<svg xmlns="http://www.w3.org/2000/svg" xmlns:xlink="http://www.w3.org/1999/xlink" width="100%" height="100%" viewBox="0 0 1280 459"><g><g transform="translate(5,189)"></g><rect fill="none" stroke="#DDD" width="70" height="30" rx="8" ry="8" x="5" y="199"/><text text-anchor="middle" fill="#333" x="40" y="219">13-12</text><g transform="translate(5,239)"><g><a target="_top" xlink:href="dtp-sliceTagOther-step2628000-ofs18-col18-cat0.html"><rect style="display:none" class="hcell-act-col18-cat0" fill="#777" stroke="#000" stroke-width="5" width="70" height="20" x="0" y="5" rx="8" ry="8"/><rect class="hcell-col18-cat0" fill="#777" stroke="#DDD" width="70" height="30" x="0" y="0" rx="8" ry="8"/><text text-anchor="middle" fill="#FFF" x="35" y="20">-178</text></a></g></g></g><g><g transform="translate(85,189)"><g><a target="_top" xlink:href="dtp-sliceTagOther-step2628000-ofs18-col19-cat0.html"><rect style="display:none" class="hcell-act-col19-cat0" fill="#777" stroke="#000" stroke-width="5" width="70" height="28" x="0" y="-33" rx="8" ry="8"/><rect class="hcell-col19-cat0" fill="#777" stroke="#DDD" width="70" height="38" x="0" y="-38" rx="8" ry="8"/><text text-anchor="middle" fill="#FFF" x="35" y="-18">546</text></a></g></g><rect fill="none" stroke="#DDD" width="70" height="30" rx="8" ry="8" x="85" y="199"/><text text-anchor="middle" fill="#333" x="120" y="219">14-01</text><g transform="translate(85,239)"></g></g><g><g transform="translate(165,189)"></g><rect fill="none" stroke="#DDD" width="70" height="30" rx="8" ry="8" x="165" y="199"/><text text-anchor="middle" fill="#333" x="200" y="219">14-03</text><g transform="translate(165,239)"><g><a target="_top" xlink:href="dtp-sliceTagOther-step2628000-ofs18-col20-cat0.html"><rect style="display:none" class="hcell-act-col20-cat0" fill="#777" stroke="#000" stroke-width="5" width="70" height="20" x="0" y="5" rx="8" ry="8"/><rect class="hcell-col20-cat0" fill="#777" stroke="#DDD" width="70" height="30" x="0" y="0" rx="8" ry="8"/><text text-anchor="middle" fill="#FFF" x="35" y="20">-84</text></a></g></g></g><g><g transform="translate(245,189)"></g><rect fill="none" stroke="#DDD" width="70" height="30" rx="8" ry="8" x="245" y="199"/><text text-anchor="middle" fill="#333" x="280" y="219">14-04</text><g transform="translate(245,239)"><g><a target="_top" xlink:href="dtp-sliceTagOther-step2628000-ofs18-col21-cat0.html"><rect style="display:none" class="hcell-act-col21-cat0" fill="#777" stroke="#000" stroke-width="5" width="70" height="205" x="0" y="5" rx="8" ry="8"/><rect class="hcell-col21-cat0" fill="#777" stroke="#DDD" width="70" height="215" x="0" y="0" rx="8" ry="8"/><text text-anchor="middle" fill="#FFF" x="35" y="20">-3060</text></a></g></g></g><g><g transform="translate(325,189)"></g><rect fill="none" stroke="#DDD" width="70" height="30" rx="8" ry="8" x="325" y="199"/><text text-anchor="middle" fill="#333" x="360" y="219">14-05</text><g transform="translate(325,239)"><g><a target="_top" xlink:href="dtp-sliceTagOther-step2628000-ofs18-col22-cat0.html"><rect style="display:none" class="hcell-act-col22-cat0" fill="#777" stroke="#000" stroke-width="5" width="70" height="57" x="0" y="5" rx="8" ry="8"/><rect class="hcell-col22-cat0" fill="#777" stroke="#DDD" width="70" height="67" x="0" y="0" rx="8" ry="8"/><text text-anchor="middle" fill="#FFF" x="35" y="20">-965</text></a></g></g></g><g><g transform="translate(405,189)"><g><a target="_top" xlink:href="dtp-sliceTagOther-step2628000-ofs18-col23-cat0.html"><rect style="display:none" class="hcell-act-col23-cat0" fill="#777" stroke="#000" stroke-width="5" width="70" height="20" x="0" y="-25" rx="8" ry="8"/><rect class="hcell-col23-cat0" fill="#777" stroke="#DDD" width="70" height="30" x="0" y="-30" rx="8" ry="8"/><text text-anchor="middle" fill="#FFF" x="35" y="-10">147</text></a></g></g><rect fill="none" stroke="#DDD" width="70" height="30" rx="8" ry="8" x="405" y="199"/><text text-anchor="middle" fill="#333" x="440" y="219">14-06</text><g transform="translate(405,239)"></g></g><g><g transform="translate(485,189)"></g><rect fill="none" stroke="#DDD" width="70" height="30" rx="8" ry="8" x="485" y="199"/><text text-anchor="middle" fill="#333" x="520" y="219">14-07</text><g transform="translate(485,239)"><g><a target="_top" xlink:href="dtp-sliceTagOther-step2628000-ofs18-col24-cat0.html"><rect style="display:none" class="hcell-act-col24-cat0" fill="#777" stroke="#000" stroke-width="5" width="70" height="20" x="0" y="5" rx="8" ry="8"/><rect class="hcell-col24-cat0" fill="#777" stroke="#DDD" width="70" height="30" x="0" y="0" rx="8" ry="8"/><text text-anchor="middle" fill="#FFF" x="35" y="20">-208</text></a></g></g></g><g><g transform="translate(565,189)"><g><a target="_top" xlink:href="dtp-sliceTagOther-step2628000-ofs18-col25-cat0.html"><rect style="display:none" class="hcell-act-col25-cat0" fill="#777" stroke="#000" stroke-width="5" width="70" height="174" x="0" y="-179" rx="8" ry="8"/><rect class="hcell-col25-cat0" fill="#777" stroke="#DDD" width="70" height="184" x="0" y="-184" rx="8" ry="8"/><text text-anchor="middle" fill="#FFF" x="35" y="-164">2621</text></a></g></g><rect fill="none" stroke="#DDD" width="70" height="30" rx="8" ry="8" x="565" y="199"/><text text-anchor="middle" fill="#333" x="600" y="219">14-08</text><g transform="translate(565,239)"></g></g><g><g transform="translate(645,189)"></g><rect fill="none" stroke="#DDD" width="70" height="30" rx="8" ry="8" x="645" y="199"/><text text-anchor="middle" fill="#333" x="680" y="219">14-08</text><g transform="translate(645,239)"><g><a target="_top" xlink:href="dtp-sliceTagOther-step2628000-ofs18-col26-cat0.html"><rect style="display:none" class="hcell-act-col26-cat0" fill="#777" stroke="#000" stroke-width="5" width="70" height="167" x="0" y="5" rx="8" ry="8"/><rect class="hcell-col26-cat0" fill="#777" stroke="#DDD" width="70" height="177" x="0" y="0" rx="8" ry="8"/><text text-anchor="middle" fill="#FFF" x="35" y="20">-2520</text></a></g></g></g><g><g transform="translate(725,189)"><g><a target="_top" xlink:href="dtp-sliceTagOther-step2628000-ofs18-col27-cat0.html"><rect style="display:none" class="hcell-act-col27-cat0" fill="#777" stroke="#000" stroke-width="5" width="70" height="100" x="0" y="-105" rx="8" ry="8"/><rect class="hcell-col27-cat0" fill="#777" stroke="#DDD" width="70" height="110" x="0" y="-110" rx="8" ry="8"/><text text-anchor="middle" fill="#FFF" x="35" y="-90">1569</text></a></g></g><rect fill="none" stroke="#DDD" width="70" height="30" rx="8" ry="8" x="725" y="199"/><text text-anchor="middle" fill="#333" x="760" y="219">14-10</text><g transform="translate(725,239)"></g></g><g><g transform="translate(805,189)"></g><rect fill="none" stroke="#DDD" width="70" height="30" rx="8" ry="8" x="805" y="199"/><text text-anchor="middle" fill="#333" x="840" y="219">14-10</text><g transform="translate(805,239)"><g><a target="_top" xlink:href="dtp-sliceTagOther-step2628000-ofs18-col28-cat0.html"><rect style="display:none" class="hcell-act-col28-cat0" fill="#777" stroke="#000" stroke-width="5" width="70" height="45" x="0" y="5" rx="8" ry="8"/><rect class="hcell-col28-cat0" fill="#777" stroke="#DDD" width="70" height="55" x="0" y="0" rx="8" ry="8"/><text text-anchor="middle" fill="#FFF" x="35" y="20">-793</text></a></g></g></g><g><g transform="translate(885,189)"></g><rect fill="none" stroke="#DDD" width="70" height="30" rx="8" ry="8" x="885" y="199"/><text text-anchor="middle" fill="#333" x="920" y="219">14-12</text><g transform="translate(885,239)"><g><a target="_top" xlink:href="dtp-sliceTagOther-step2628000-ofs18-col29-cat0.html"><rect style="display:none" class="hcell-act-col29-cat0" fill="#777" stroke="#000" stroke-width="5" width="70" height="20" x="0" y="5" rx="8" ry="8"/><rect class="hcell-col29-cat0" fill="#777" stroke="#DDD" width="70" height="30" x="0" y="0" rx="8" ry="8"/><text text-anchor="middle" fill="#FFF" x="35" y="20">-301</text></a></g></g></g><g><g transform="translate(965,189)"></g><rect fill="none" stroke="#DDD" width="70" height="30" rx="8" ry="8" x="965" y="199"/><text text-anchor="middle" fill="#333" x="1000" y="219">14-12</text><g transform="translate(965,239)"><g><a target="_top" xlink:href="dtp-sliceTagOther-step2628000-ofs18-col30-cat0.html"><rect style="display:none" class="hcell-act-col30-cat0" fill="#777" stroke="#000" stroke-width="5" width="70" height="86" x="0" y="5" rx="8" ry="8"/><rect class="hcell-col30-cat0" fill="#777" stroke="#DDD" width="70" height="96" x="0" y="0" rx="8" ry="8"/><text text-anchor="middle" fill="#FFF" x="35" y="20">-1373</text></a></g></g></g><g><g transform="translate(1045,189)"></g><rect fill="none" stroke="#DDD" width="70" height="30" rx="8" ry="8" x="1045" y="199"/><text text-anchor="middle" fill="#333" x="1080" y="219">15-01</text><g transform="translate(1045,239)"><g><a target="_top" xlink:href="dtp-sliceTagOther-step2628000-ofs18-col31-cat0.html"><rect style="display:none" class="hcell-act-col31-cat0" fill="#777" stroke="#000" stroke-width="5" width="70" height="166" x="0" y="5" rx="8" ry="8"/><rect class="hcell-col31-cat0" fill="#777" stroke="#DDD" width="70" height="176" x="0" y="0" rx="8" ry="8"/><text text-anchor="middle" fill="#FFF" x="35" y="20">-2512</text></a></g></g></g><g><g transform="translate(1125,189)"><g><a target="_top" xlink:href="dtp-sliceTagOther-step2628000-ofs18-col32-cat0.html"><rect style="display:none" class="hcell-act-col32-cat0" fill="#777" stroke="#000" stroke-width="5" width="70" height="20" x="0" y="-25" rx="8" ry="8"/><rect class="hcell-col32-cat0" fill="#777" stroke="#DDD" width="70" height="30" x="0" y="-30" rx="8" ry="8"/><text text-anchor="middle" fill="#FFF" x="35" y="-10">412</text></a></g></g><rect fill="none" stroke="#DDD" width="70" height="30" rx="8" ry="8" x="1125" y="199"/><text text-anchor="middle" fill="#333" x="1160" y="219">15-03</text><g transform="translate(1125,239)"></g></g><g><g transform="translate(1205,189)"></g><rect fill="none" stroke="#DDD" width="70" height="30" rx="8" ry="8" x="1205" y="199"/><text text-anchor="middle" fill="#333" x="1240" y="219">15-04</text><g transform="translate(1205,239)"><g><a target="_top" xlink:href="dtp-sliceTagOther-step2628000-ofs18-col33-cat0.html"><rect style="display:none" class="hcell-act-col33-cat0" fill="#777" stroke="#000" stroke-width="5" width="70" height="118" x="0" y="5" rx="8" ry="8"/><rect class="hcell-col33-cat0" fill="#777" stroke="#DDD" width="70" height="128" x="0" y="0" rx="8" ry="8"/><text text-anchor="middle" fill="#FFF" x="35" y="20">-1826</text></a></g></g></g></svg>