<svg xmlns="http://www.w3.org/2000/svg" xmlns:xlink="http://www.w3.org/1999/xlink" width="100%" height="100%" viewBox="0 0 1280 459"><g><g transform="translate(5,106)"><g><a target="_top" xlink:href="dtp-slice2-step2628000-ofs2-col2-cat0.html"><rect style="display:none" class="hcell-act-col2-cat0" fill="#D9534F" stroke="#000" stroke-width="5" width="70" height="20" x="0" y="-25" rx="8" ry="8"/><rect class="hcell-col2-cat0" fill="#D9534F" stroke="#DDD" width="70" height="30" x="0" y="-30" rx="8" ry="8"/><text text-anchor="middle" fill="#FFF" x="35" y="-10">64</text></a></g></g><rect fill="none" stroke="#DDD" width="70" height="30" rx="8" ry="8" x="5" y="116"/><text text-anchor="middle" fill="#333" x="40" y="136">12-08</text><g transform="translate(5,156)"></g></g><g><g transform="translate(85,106)"></g><rect fill="none" stroke="#DDD" width="70" height="30" rx="8" ry="8" x="85" y="116"/><text text-anchor="middle" fill="#333" x="120" y="136">12-10</text><g transform="translate(85,156)"><g><a target="_top" xlink:href="dtp-slice2-step2628000-ofs2-col3-cat0.html"><rect style="display:none" class="hcell-act-col3-cat0" fill="#D9534F" stroke="#000" stroke-width="5" width="70" height="20" x="0" y="5" rx="8" ry="8"/><rect class="hcell-col3-cat0" fill="#D9534F" stroke="#DDD" width="70" height="30" x="0" y="0" rx="8" ry="8"/><text text-anchor="middle" fill="#FFF" x="35" y="20">-158</text></a></g></g></g><g><g transform="translate(165,106)"><g><a target="_top" xlink:href="dtp-slice2-step2628000-ofs2-col4-cat0.html"><rect style="display:none" class="hcell-act-col4-cat0" fill="#D9534F" stroke="#000" stroke-width="5" width="70" height="91" x="0" y="-96" rx="8" ry="8"/><rect class="hcell-col4-cat0" fill="#D9534F" stroke="#DDD" width="70" height="101" x="0" y="-101" rx="8" ry="8"/><text text-anchor="middle" fill="#FFF" x="35" y="-81">1511</text></a></g></g><rect fill="none" stroke="#DDD" width="70" height="30" rx="8" ry="8" x="165" y="116"/><text text-anchor="middle" fill="#333" x="200" y="136">12-10</text><g transform="translate(165,156)"></g></g><g><g transform="translate(245,106)"></g><rect fill="none" stroke="#DDD" width="70" height="30" rx="8" ry="8" x="245" y="116"/><text text-anchor="middle" fill="#333" x="280" y="136">12-12</text><g transform="translate(245,156)"><g><a target="_top" xlink:href="dtp-slice2-step2628000-ofs2-col5-cat0.html"><rect style="display:none" class="hcell-act-col5-cat0" fill="#D9534F" stroke="#000" stroke-width="5" width="70" height="20" x="0" y="5" rx="8" ry="8"/><rect class="hcell-col5-cat0" fill="#D9534F" stroke="#DDD" width="70" height="30" x="0" y="0" rx="8" ry="8"/><text text-anchor="middle" fill="#FFF" x="35" y="20">-186</text></a></g></g></g><g><g transform="translate(325,106)"></g><rect fill="none" stroke="#DDD" width="70" height="30" rx="8" ry="8" x="325" y="116"/><text text-anchor="middle" fill="#333" x="360" y="136">12-12</text><g transform="translate(325,156)"><g><a target="_top" xlink:href="dtp-slice2-step2628000-ofs2-col6-cat0.html"><rect style="display:none" class="hcell-act-col6-cat0" fill="#D9534F" stroke="#000" stroke-width="5" width="70" height="20" x="0" y="5" rx="8" ry="8"/><rect class="hcell-col6-cat0" fill="#D9534F" stroke="#DDD" width="70" height="30" x="0" y="0" rx="8" ry="8"/><text text-anchor="middle" fill="#FFF" x="35" y="20">-104</text></a></g></g></g><g><g transform="translate(405,106)"><g><a target="_top" xlink:href="dtp-slice2-step2628000-ofs2-col7-cat0.html"><rect style="display:none" class="hcell-act-col7-cat0" fill="#D9534F" stroke="#000" stroke-width="5" width="70" height="21" x="0" y="-26" rx="8" ry="8"/><rect class="hcell-col7-cat0" fill="#D9534F" stroke="#DDD" width="70" height="31" x="0" y="-31" rx="8" ry="8"/><text text-anchor="middle" fill="#FFF" x="35" y="-11">472</text></a></g></g><rect fill="none" stroke="#DDD" width="70" height="30" rx="8" ry="8" x="405" y="116"/><text text-anchor="middle" fill="#333" x="440" y="136">13-01</text><g transform="translate(405,156)"></g></g><g><g transform="translate(485,106)"><g><a target="_top" xlink:href="dtp-slice2-step2628000-ofs2-col8-cat0.html"><rect style="display:none" class="hcell-act-col8-cat0" fill="#D9534F" stroke="#000" stroke-width="5" width="70" height="88" x="0" y="-93" rx="8" ry="8"/><rect class="hcell-col8-cat0" fill="#D9534F" stroke="#DDD" width="70" height="98" x="0" y="-98" rx="8" ry="8"/><text text-anchor="middle" fill="#FFF" x="35" y="-78">1468</text></a></g></g><rect fill="none" stroke="#DDD" width="70" height="30" rx="8" ry="8" x="485" y="116"/><text text-anchor="middle" fill="#333" x="520" y="136">13-03</text><g transform="translate(485,156)"></g></g><g><g transform="translate(565,106)"></g><rect fill="none" stroke="#DDD" width="70" height="30" rx="8" ry="8" x="565" y="116"/><text text-anchor="middle" fill="#333" x="600" y="136">13-04</text><g transform="translate(565,156)"><g><a target="_top" xlink:href="dtp-slice2-step2628000-ofs2-col9-cat0.html"><rect style="display:none" class="hcell-act-col9-cat0" fill="#D9534F" stroke="#000" stroke-width="5" width="70" height="20" x="0" y="5" rx="8" ry="8"/><rect class="hcell-col9-cat0" fill="#D9534F" stroke="#DDD" width="70" height="30" x="0" y="0" rx="8" ry="8"/><text text-anchor="middle" fill="#FFF" x="35" y="20">-19</text></a></g></g></g><g><g transform="translate(645,106)"></g><rect fill="none" stroke="#DDD" width="70" height="30" rx="8" ry="8" x="645" y="116"/><text text-anchor="middle" fill="#333" x="680" y="136">13-05</text><g transform="translate(645,156)"><g><a target="_top" xlink:href="dtp-slice2-step2628000-ofs2-col10-cat0.html"><rect style="display:none" class="hcell-act-col10-cat0" fill="#D9534F" stroke="#000" stroke-width="5" width="70" height="20" x="0" y="5" rx="8" ry="8"/><rect class="hcell-col10-cat0" fill="#D9534F" stroke="#DDD" width="70" height="30" x="0" y="0" rx="8" ry="8"/><text text-anchor="middle" fill="#FFF" x="35" y="20">-110</text></a></g></g></g><g><g transform="translate(725,106)"><g><a target="_top" xlink:href="dtp-slice2-step2628000-ofs2-col11-cat0.html"><rect style="display:none" class="hcell-act-col11-cat0" fill="#D9534F" stroke="#000" stroke-width="5" width="70" height="20" x="0" y="-25" rx="8" ry="8"/><rect class="hcell-col11-cat0" fill="#D9534F" stroke="#DDD" width="70" height="30" x="0" y="-30" rx="8" ry="8"/><text text-anchor="middle" fill="#FFF" x="35" y="-10">108</text></a></g></g><rect fill="none" stroke="#DDD" width="70" height="30" rx="8" ry="8" x="725" y="116"/><text text-anchor="middle" fill="#333" x="760" y="136">13-06</text><g transform="translate(725,156)"></g></g><g><g transform="translate(805,106)"></g><rect fill="none" stroke="#DDD" width="70" height="30" rx="8" ry="8" x="805" y="116"/><text text-anchor="middle" fill="#333" x="840" y="136">13-07</text><g transform="translate(805,156)"><g><a target="_top" xlink:href="dtp-slice2-step2628000-ofs2-col12-cat0.html"><rect style="display:none" class="hcell-act-col12-cat0" fill="#D9534F" stroke="#000" stroke-width="5" width="70" height="288" x="0" y="5" rx="8" ry="8"/><rect class="hcell-col12-cat0" fill="#D9534F" stroke="#DDD" width="70" height="298" x="0" y="0" rx="8" ry="8"/><text text-anchor="middle" fill="#FFF" x="35" y="20">-4438</text></a></g></g></g><g><g transform="translate(885,106)"></g><rect fill="none" stroke="#DDD" width="70" height="30" rx="8" ry="8" x="885" y="116"/><text text-anchor="middle" fill="#333" x="920" y="136">13-08</text><g transform="translate(885,156)"><g><a target="_top" xlink:href="dtp-slice2-step2628000-ofs2-col13-cat0.html"><rect style="display:none" class="hcell-act-col13-cat0" fill="#D9534F" stroke="#000" stroke-width="5" width="70" height="20" x="0" y="5" rx="8" ry="8"/><rect class="hcell-col13-cat0" fill="#D9534F" stroke="#DDD" width="70" height="30" x="0" y="0" rx="8" ry="8"/><text text-anchor="middle" fill="#FFF" x="35" y="20">-218</text></a></g></g></g><g><g transform="translate(965,106)"><g><a target="_top" xlink:href="dtp-slice2-step2628000-ofs2-col14-cat0.html"><rect style="display:none" class="hcell-act-col14-cat0" fill="#D9534F" stroke="#000" stroke-width="5" width="70" height="26" x="0" y="-31" rx="8" ry="8"/><rect class="hcell-col14-cat0" fill="#D9534F" stroke="#DDD" width="70" height="36" x="0" y="-36" rx="8" ry="8"/><text text-anchor="middle" fill="#FFF" x="35" y="-16">541</text></a></g></g><rect fill="none" stroke="#DDD" width="70" height="30" rx="8" ry="8" x="965" y="116"/><text text-anchor="middle" fill="#333" x="1000" y="136">13-08</text><g transform="translate(965,156)"></g></g><g><g transform="translate(1045,106)"><g><a target="_top" xlink:href="dtp-slice2-step2628000-ofs2-col15-cat0.html"><rect style="display:none" class="hcell-act-col15-cat0" fill="#D9534F" stroke="#000" stroke-width="5" width="70" height="20" x="0" y="-25" rx="8" ry="8"/><rect class="hcell-col15-cat0" fill="#D9534F" stroke="#DDD" width="70" height="30" x="0" y="-30" rx="8" ry="8"/><text text-anchor="middle" fill="#FFF" x="35" y="-10">183</text></a></g></g><rect fill="none" stroke="#DDD" width="70" height="30" rx="8" ry="8" x="1045" y="116"/><text text-anchor="middle" fill="#333" x="1080" y="136">13-10</text><g transform="translate(1045,156)"></g></g><g><g transform="translate(1125,106)"><g><a target="_top" xlink:href="dtp-slice2-step2628000-ofs2-col16-cat0.html"><rect style="display:none" class="hcell-act-col16-cat0" fill="#D9534F" stroke="#000" stroke-width="5" width="70" height="20" x="0" y="-25" rx="8" ry="8"/><rect class="hcell-col16-cat0" fill="#D9534F" stroke="#DDD" width="70" height="30" x="0" y="-30" rx="8" ry="8"/><text text-anchor="middle" fill="#FFF" x="35" y="-10">21</text></a></g></g><rect fill="none" stroke="#DDD" width="70" height="30" rx="8" ry="8" x="1125" y="116"/><text text-anchor="middle" fill="#333" x="1160" y="136">13-10</text><g transform="translate(1125,156)"></g></g><g><g transform="translate(1205,106)"></g><rect fill="none" stroke="#DDD" width="70" height="30" rx="8" ry="8" x="1205" y="116"/><text text-anchor="middle" fill="#333" x="1240" y="136">13-12</text><g transform="translate(1205,156)"><g><a target="_top" xlink:href="dtp-slice2-step2628000-ofs2-col17-cat0.html"><rect style="display:none" class="hcell-act-col17-cat0" fill="#D9534F" stroke="#000" stroke-width="5" width="70" height="20" x="0" y="5" rx="8" ry="8"/><rect class="hcell-col17-cat0" fill="#D9534F" stroke="#DDD" width="70" height="30" x="0" y="0" rx="8" ry="8"/><text text-anchor="middle" fill="#FFF" x="35" y="20">-430</text></a></g></g></g></svg>