<svg xmlns="http://www.w3.org/2000/svg" xmlns:xlink="http://www.w3.org/1999/xlink" width="100%" height="100%" viewBox="0 0 1280 459"><g><g transform="translate(5,187)"><g><a target="_top" xlink:href="dtp-sliceTagAsset-step5578201-ofs0-col0-cat0.html"><rect style="display:none" class="hcell-act-col0-cat0" fill="#777" stroke="#000" stroke-width="5" width="70" height="87" x="0" y="-92" rx="8" ry="8"/><rect class="hcell-col0-cat0" fill="#777" stroke="#DDD" width="70" height="97" x="0" y="-97" rx="8" ry="8"/><text text-anchor="middle" fill="#FFF" x="35" y="-77">6046</text></a></g></g><rect fill="none" stroke="#DDD" width="70" height="30" rx="8" ry="8" x="5" y="197"/><text text-anchor="middle" fill="#333" x="40" y="217">12-07</text><g transform="translate(5,237)"><g><a target="_top" xlink:href="dtp-sliceTagAsset-step5578201-ofs0-col0-cat0.html"><rect style="display:none" class="hcell-act-col0-cat0" fill="#777" stroke="#000" stroke-width="5" width="70" height="78" x="0" y="5" rx="8" ry="8"/><rect class="hcell-col0-cat0" fill="#777" stroke="#DDD" width="70" height="88" x="0" y="0" rx="8" ry="8"/><text text-anchor="middle" fill="#FFF" x="35" y="20">-5512</text></a></g></g></g><g><g transform="translate(85,187)"><g><a target="_top" xlink:href="dtp-sliceTagAsset-step5578201-ofs0-col1-cat0.html"><rect style="display:none" class="hcell-act-col1-cat0" fill="#777" stroke="#000" stroke-width="5" width="70" height="78" x="0" y="-83" rx="8" ry="8"/><rect class="hcell-col1-cat0" fill="#777" stroke="#DDD" width="70" height="88" x="0" y="-88" rx="8" ry="8"/><text text-anchor="middle" fill="#FFF" x="35" y="-68">5502</text></a></g></g><rect fill="none" stroke="#DDD" width="70" height="30" rx="8" ry="8" x="85" y="197"/><text text-anchor="middle" fill="#333" x="120" y="217">12-09</text><g transform="translate(85,237)"><g><a target="_top" xlink:href="dtp-sliceTagAsset-step5578201-ofs0-col1-cat0.html"><rect style="display:none" class="hcell-act-col1-cat0" fill="#777" stroke="#000" stroke-width="5" width="70" height="94" x="0" y="5" rx="8" ry="8"/><rect class="hcell-col1-cat0" fill="#777" stroke="#DDD" width="70" height="104" x="0" y="0" rx="8" ry="8"/><text text-anchor="middle" fill="#FFF" x="35" y="20">-6487</text></a></g></g></g><g><g transform="translate(165,187)"><g><a target="_top" xlink:href="dtp-sliceTagAsset-step5578201-ofs0-col2-cat0.html"><rect style="display:none" class="hcell-act-col2-cat0" fill="#777" stroke="#000" stroke-width="5" width="70" height="126" x="0" y="-131" rx="8" ry="8"/><rect class="hcell-col2-cat0" fill="#777" stroke="#DDD" width="70" height="136" x="0" y="-136" rx="8" ry="8"/><text text-anchor="middle" fill="#FFF" x="35" y="-116">8464</text></a></g></g><rect fill="none" stroke="#DDD" width="70" height="30" rx="8" ry="8" x="165" y="197"/><text text-anchor="middle" fill="#333" x="200" y="217">12-11</text><g transform="translate(165,237)"><g><a target="_top" xlink:href="dtp-sliceTagAsset-step5578201-ofs0-col2-cat0.html"><rect style="display:none" class="hcell-act-col2-cat0" fill="#777" stroke="#000" stroke-width="5" width="70" height="108" x="0" y="5" rx="8" ry="8"/><rect class="hcell-col2-cat0" fill="#777" stroke="#DDD" width="70" height="118" x="0" y="0" rx="8" ry="8"/><text text-anchor="middle" fill="#FFF" x="35" y="20">-7372</text></a></g></g></g><g><g transform="translate(245,187)"><g><a target="_top" xlink:href="dtp-sliceTagAsset-step5578201-ofs0-col3-cat0.html"><rect style="display:none" class="hcell-act-col3-cat0" fill="#777" stroke="#000" stroke-width="5" width="70" height="106" x="0" y="-111" rx="8" ry="8"/><rect class="hcell-col3-cat0" fill="#777" stroke="#DDD" width="70" height="116" x="0" y="-116" rx="8" ry="8"/><text text-anchor="middle" fill="#FFF" x="35" y="-96">7247</text></a></g></g><rect fill="none" stroke="#DDD" width="70" height="30" rx="8" ry="8" x="245" y="197"/><text text-anchor="middle" fill="#333" x="280" y="217">13-01</text><g transform="translate(245,237)"><g><a target="_top" xlink:href="dtp-sliceTagAsset-step5578201-ofs0-col3-cat0.html"><rect style="display:none" class="hcell-act-col3-cat0" fill="#777" stroke="#000" stroke-width="5" width="70" height="85" x="0" y="5" rx="8" ry="8"/><rect class="hcell-col3-cat0" fill="#777" stroke="#DDD" width="70" height="95" x="0" y="0" rx="8" ry="8"/><text text-anchor="middle" fill="#FFF" x="35" y="20">-5909</text></a></g></g></g><g><g transform="translate(325,187)"><g><a target="_top" xlink:href="dtp-sliceTagAsset-step5578201-ofs0-col4-cat0.html"><rect style="display:none" class="hcell-act-col4-cat0" fill="#777" stroke="#000" stroke-width="5" width="70" height="159" x="0" y="-164" rx="8" ry="8"/><rect class="hcell-col4-cat0" fill="#777" stroke="#DDD" width="70" height="169" x="0" y="-169" rx="8" ry="8"/><text text-anchor="middle" fill="#FFF" x="35" y="-149">10558</text></a></g></g><rect fill="none" stroke="#DDD" width="70" height="30" rx="8" ry="8" x="325" y="197"/><text text-anchor="middle" fill="#333" x="360" y="217">13-03</text><g transform="translate(325,237)"><g><a target="_top" xlink:href="dtp-sliceTagAsset-step5578201-ofs0-col4-cat0.html"><rect style="display:none" class="hcell-act-col4-cat0" fill="#777" stroke="#000" stroke-width="5" width="70" height="120" x="0" y="5" rx="8" ry="8"/><rect class="hcell-col4-cat0" fill="#777" stroke="#DDD" width="70" height="130" x="0" y="0" rx="8" ry="8"/><text text-anchor="middle" fill="#FFF" x="35" y="20">-8098</text></a></g></g></g><g><g transform="translate(405,187)"><g><a target="_top" xlink:href="dtp-sliceTagAsset-step5578201-ofs0-col5-cat0.html"><rect style="display:none" class="hcell-act-col5-cat0" fill="#777" stroke="#000" stroke-width="5" width="70" height="115" x="0" y="-120" rx="8" ry="8"/><rect class="hcell-col5-cat0" fill="#777" stroke="#DDD" width="70" height="125" x="0" y="-125" rx="8" ry="8"/><text text-anchor="middle" fill="#FFF" x="35" y="-105">7779</text></a></g></g><rect fill="none" stroke="#DDD" width="70" height="30" rx="8" ry="8" x="405" y="197"/><text text-anchor="middle" fill="#333" x="440" y="217">13-05</text><g transform="translate(405,237)"><g><a target="_top" xlink:href="dtp-sliceTagAsset-step5578201-ofs0-col5-cat0.html"><rect style="display:none" class="hcell-act-col5-cat0" fill="#777" stroke="#000" stroke-width="5" width="70" height="191" x="0" y="5" rx="8" ry="8"/><rect class="hcell-col5-cat0" fill="#777" stroke="#DDD" width="70" height="201" x="0" y="0" rx="8" ry="8"/><text text-anchor="middle" fill="#FFF" x="35" y="20">-12541</text></a></g></g></g><g><g transform="translate(485,187)"><g><a target="_top" xlink:href="dtp-sliceTagAsset-step5578201-ofs0-col6-cat0.html"><rect style="display:none" class="hcell-act-col6-cat0" fill="#777" stroke="#000" stroke-width="5" width="70" height="74" x="0" y="-79" rx="8" ry="8"/><rect class="hcell-col6-cat0" fill="#777" stroke="#DDD" width="70" height="84" x="0" y="-84" rx="8" ry="8"/><text text-anchor="middle" fill="#FFF" x="35" y="-64">5224</text></a></g></g><rect fill="none" stroke="#DDD" width="70" height="30" rx="8" ry="8" x="485" y="197"/><text text-anchor="middle" fill="#333" x="520" y="217">13-07</text><g transform="translate(485,237)"><g><a target="_top" xlink:href="dtp-sliceTagAsset-step5578201-ofs0-col6-cat0.html"><rect style="display:none" class="hcell-act-col6-cat0" fill="#777" stroke="#000" stroke-width="5" width="70" height="74" x="0" y="5" rx="8" ry="8"/><rect class="hcell-col6-cat0" fill="#777" stroke="#DDD" width="70" height="84" x="0" y="0" rx="8" ry="8"/><text text-anchor="middle" fill="#FFF" x="35" y="20">-5247</text></a></g></g></g><g><g transform="translate(565,187)"><g><a target="_top" xlink:href="dtp-sliceTagAsset-step5578201-ofs0-col7-cat0.html"><rect style="display:none" class="hcell-act-col7-cat0" fill="#777" stroke="#000" stroke-width="5" width="70" height="111" x="0" y="-116" rx="8" ry="8"/><rect class="hcell-col7-cat0" fill="#777" stroke="#DDD" width="70" height="121" x="0" y="-121" rx="8" ry="8"/><text text-anchor="middle" fill="#FFF" x="35" y="-101">7531</text></a></g></g><rect fill="none" stroke="#DDD" width="70" height="30" rx="8" ry="8" x="565" y="197"/><text text-anchor="middle" fill="#333" x="600" y="217">13-09</text><g transform="translate(565,237)"><g><a target="_top" xlink:href="dtp-sliceTagAsset-step5578201-ofs0-col7-cat0.html"><rect style="display:none" class="hcell-act-col7-cat0" fill="#777" stroke="#000" stroke-width="5" width="70" height="109" x="0" y="5" rx="8" ry="8"/><rect class="hcell-col7-cat0" fill="#777" stroke="#DDD" width="70" height="119" x="0" y="0" rx="8" ry="8"/><text text-anchor="middle" fill="#FFF" x="35" y="20">-7407</text></a></g></g></g><g><g transform="translate(645,187)"><g><a target="_top" xlink:href="dtp-sliceTagAsset-step5578201-ofs0-col8-cat0.html"><rect style="display:none" class="hcell-act-col8-cat0" fill="#777" stroke="#000" stroke-width="5" width="70" height="118" x="0" y="-123" rx="8" ry="8"/><rect class="hcell-col8-cat0" fill="#777" stroke="#DDD" width="70" height="128" x="0" y="-128" rx="8" ry="8"/><text text-anchor="middle" fill="#FFF" x="35" y="-108">7978</text></a></g></g><rect fill="none" stroke="#DDD" width="70" height="30" rx="8" ry="8" x="645" y="197"/><text text-anchor="middle" fill="#333" x="680" y="217">13-11</text><g transform="translate(645,237)"><g><a target="_top" xlink:href="dtp-sliceTagAsset-step5578201-ofs0-col8-cat0.html"><rect style="display:none" class="hcell-act-col8-cat0" fill="#777" stroke="#000" stroke-width="5" width="70" height="134" x="0" y="5" rx="8" ry="8"/><rect class="hcell-col8-cat0" fill="#777" stroke="#DDD" width="70" height="144" x="0" y="0" rx="8" ry="8"/><text text-anchor="middle" fill="#FFF" x="35" y="20">-8968</text></a></g></g></g><g><g transform="translate(725,187)"><g><a target="_top" xlink:href="dtp-sliceTagAsset-step5578201-ofs0-col9-cat0.html"><rect style="display:none" class="hcell-act-col9-cat0" fill="#777" stroke="#000" stroke-width="5" width="70" height="150" x="0" y="-155" rx="8" ry="8"/><rect class="hcell-col9-cat0" fill="#777" stroke="#DDD" width="70" height="160" x="0" y="-160" rx="8" ry="8"/><text text-anchor="middle" fill="#FFF" x="35" y="-140">9994</text></a></g></g><rect fill="none" stroke="#DDD" width="70" height="30" rx="8" ry="8" x="725" y="197"/><text text-anchor="middle" fill="#333" x="760" y="217">14-02</text><g transform="translate(725,237)"><g><a target="_top" xlink:href="dtp-sliceTagAsset-step5578201-ofs0-col9-cat0.html"><rect style="display:none" class="hcell-act-col9-cat0" fill="#777" stroke="#000" stroke-width="5" width="70" height="191" x="0" y="5" rx="8" ry="8"/><rect class="hcell-col9-cat0" fill="#777" stroke="#DDD" width="70" height="201" x="0" y="0" rx="8" ry="8"/><text text-anchor="middle" fill="#FFF" x="35" y="20">-12539</text></a></g></g></g><g><g transform="translate(805,187)"><g><a target="_top" xlink:href="dtp-sliceTagAsset-step5578201-ofs0-col10-cat0.html"><rect style="display:none" class="hcell-act-col10-cat0" fill="#777" stroke="#000" stroke-width="5" width="70" height="128" x="0" y="-133" rx="8" ry="8"/><rect class="hcell-col10-cat0" fill="#777" stroke="#DDD" width="70" height="138" x="0" y="-138" rx="8" ry="8"/><text text-anchor="middle" fill="#FFF" x="35" y="-118">8584</text></a></g></g><rect fill="none" stroke="#DDD" width="70" height="30" rx="8" ry="8" x="805" y="197"/><text text-anchor="middle" fill="#333" x="840" y="217">14-04</text><g transform="translate(805,237)"><g><a target="_top" xlink:href="dtp-sliceTagAsset-step5578201-ofs0-col10-cat0.html"><rect style="display:none" class="hcell-act-col10-cat0" fill="#777" stroke="#000" stroke-width="5" width="70" height="197" x="0" y="5" rx="8" ry="8"/><rect class="hcell-col10-cat0" fill="#777" stroke="#DDD" width="70" height="207" x="0" y="0" rx="8" ry="8"/><text text-anchor="middle" fill="#FFF" x="35" y="20">-12888</text></a></g></g></g><g><g transform="translate(885,187)"><g><a target="_top" xlink:href="dtp-sliceTagAsset-step5578201-ofs0-col11-cat0.html"><rect style="display:none" class="hcell-act-col11-cat0" fill="#777" stroke="#000" stroke-width="5" width="70" height="160" x="0" y="-165" rx="8" ry="8"/><rect class="hcell-col11-cat0" fill="#777" stroke="#DDD" width="70" height="170" x="0" y="-170" rx="8" ry="8"/><text text-anchor="middle" fill="#FFF" x="35" y="-150">10575</text></a></g></g><rect fill="none" stroke="#DDD" width="70" height="30" rx="8" ry="8" x="885" y="197"/><text text-anchor="middle" fill="#333" x="920" y="217">14-06</text><g transform="translate(885,237)"><g><a target="_top" xlink:href="dtp-sliceTagAsset-step5578201-ofs0-col11-cat0.html"><rect style="display:none" class="hcell-act-col11-cat0" fill="#777" stroke="#000" stroke-width="5" width="70" height="107" x="0" y="5" rx="8" ry="8"/><rect class="hcell-col11-cat0" fill="#777" stroke="#DDD" width="70" height="117" x="0" y="0" rx="8" ry="8"/><text text-anchor="middle" fill="#FFF" x="35" y="20">-7293</text></a></g></g></g><g><g transform="translate(965,187)"><g><a target="_top" xlink:href="dtp-sliceTagAsset-step5578201-ofs0-col12-cat0.html"><rect style="display:none" class="hcell-act-col12-cat0" fill="#777" stroke="#000" stroke-width="5" width="70" height="172" x="0" y="-177" rx="8" ry="8"/><rect class="hcell-col12-cat0" fill="#777" stroke="#DDD" width="70" height="182" x="0" y="-182" rx="8" ry="8"/><text text-anchor="middle" fill="#FFF" x="35" y="-162">11331</text></a></g></g><rect fill="none" stroke="#DDD" width="70" height="30" rx="8" ry="8" x="965" y="197"/><text text-anchor="middle" fill="#333" x="1000" y="217">14-08</text><g transform="translate(965,237)"><g><a target="_top" xlink:href="dtp-sliceTagAsset-step5578201-ofs0-col12-cat0.html"><rect style="display:none" class="hcell-act-col12-cat0" fill="#777" stroke="#000" stroke-width="5" width="70" height="207" x="0" y="5" rx="8" ry="8"/><rect class="hcell-col12-cat0" fill="#777" stroke="#DDD" width="70" height="217" x="0" y="0" rx="8" ry="8"/><text text-anchor="middle" fill="#FFF" x="35" y="20">-13491</text></a></g></g></g><g><g transform="translate(1045,187)"><g><a target="_top" xlink:href="dtp-sliceTagAsset-step5578201-ofs0-col13-cat0.html"><rect style="display:none" class="hcell-act-col13-cat0" fill="#777" stroke="#000" stroke-width="5" width="70" height="103" x="0" y="-108" rx="8" ry="8"/><rect class="hcell-col13-cat0" fill="#777" stroke="#DDD" width="70" height="113" x="0" y="-113" rx="8" ry="8"/><text text-anchor="middle" fill="#FFF" x="35" y="-93">7029</text></a></g></g><rect fill="none" stroke="#DDD" width="70" height="30" rx="8" ry="8" x="1045" y="197"/><text text-anchor="middle" fill="#333" x="1080" y="217">14-10</text><g transform="translate(1045,237)"><g><a target="_top" xlink:href="dtp-sliceTagAsset-step5578201-ofs0-col13-cat0.html"><rect style="display:none" class="hcell-act-col13-cat0" fill="#777" stroke="#000" stroke-width="5" width="70" height="111" x="0" y="5" rx="8" ry="8"/><rect class="hcell-col13-cat0" fill="#777" stroke="#DDD" width="70" height="121" x="0" y="0" rx="8" ry="8"/><text text-anchor="middle" fill="#FFF" x="35" y="20">-7550</text></a></g></g></g><g><g transform="translate(1125,187)"><g><a target="_top" xlink:href="dtp-sliceTagAsset-step5578201-ofs0-col14-cat0.html"><rect style="display:none" class="hcell-act-col14-cat0" fill="#777" stroke="#000" stroke-width="5" width="70" height="149" x="0" y="-154" rx="8" ry="8"/><rect class="hcell-col14-cat0" fill="#777" stroke="#DDD" width="70" height="159" x="0" y="-159" rx="8" ry="8"/><text text-anchor="middle" fill="#FFF" x="35" y="-139">9927</text></a></g></g><rect fill="none" stroke="#DDD" width="70" height="30" rx="8" ry="8" x="1125" y="197"/><text text-anchor="middle" fill="#333" x="1160" y="217">14-12</text><g transform="translate(1125,237)"><g><a target="_top" xlink:href="dtp-sliceTagAsset-step5578201-ofs0-col14-cat0.html"><rect style="display:none" class="hcell-act-col14-cat0" fill="#777" stroke="#000" stroke-width="5" width="70" height="207" x="0" y="5" rx="8" ry="8"/><rect class="hcell-col14-cat0" fill="#777" stroke="#DDD" width="70" height="217" x="0" y="0" rx="8" ry="8"/><text text-anchor="middle" fill="#FFF" x="35" y="20">-13523</text></a></g></g></g><g><g transform="translate(1205,187)"><g><a target="_top" xlink:href="dtp-sliceTagAsset-step5578201-ofs0-col15-cat0.html"><rect style="display:none" class="hcell-act-col15-cat0" fill="#777" stroke="#000" stroke-width="5" width="70" height="140" x="0" y="-145" rx="8" ry="8"/><rect class="hcell-col15-cat0" fill="#777" stroke="#DDD" width="70" height="150" x="0" y="-150" rx="8" ry="8"/><text text-anchor="middle" fill="#FFF" x="35" y="-130">9351</text></a></g></g><rect fill="none" stroke="#DDD" width="70" height="30" rx="8" ry="8" x="1205" y="197"/><text text-anchor="middle" fill="#333" x="1240" y="217">15-02</text><g transform="translate(1205,237)"><g><a target="_top" xlink:href="dtp-sliceTagAsset-step5578201-ofs0-col15-cat0.html"><rect style="display:none" class="hcell-act-col15-cat0" fill="#777" stroke="#000" stroke-width="5" width="70" height="197" x="0" y="5" rx="8" ry="8"/><rect class="hcell-col15-cat0" fill="#777" stroke="#DDD" width="70" height="207" x="0" y="0" rx="8" ry="8"/><text text-anchor="middle" fill="#FFF" x="35" y="20">-12865</text></a></g></g></g></svg>