<svg xmlns="http://www.w3.org/2000/svg" xmlns:xlink="http://www.w3.org/1999/xlink" width="100%" height="100%" viewBox="0 0 1280 496"><g><g transform="translate(5,198)"><g><a target="_top" xlink:href="dtp-slice3-step2628000-ofs2-col2-cat2.html"><rect style="display:none" class="hcell-act-col2-cat2" fill="#D9534F" stroke="#000" stroke-width="5" width="70" height="20" x="0" y="-25" rx="8" ry="8"/><rect class="hcell-col2-cat2" fill="#D9534F" stroke="#DDD" width="70" height="30" x="0" y="-30" rx="8" ry="8"/><text text-anchor="middle" fill="#FFF" x="35" y="-10">609</text></a><g transform="translate(0,-30)"><g><a target="_top" xlink:href="dtp-slice3-step2628000-ofs2-col2-cat0.html"><rect style="display:none" class="hcell-act-col2-cat0" fill="#5CB85C" stroke="#000" stroke-width="5" width="70" height="79" x="0" y="-84" rx="8" ry="8"/><rect class="hcell-col2-cat0" fill="#5CB85C" stroke="#DDD" width="70" height="89" x="0" y="-89" rx="8" ry="8"/><text text-anchor="middle" fill="#FFF" x="35" y="-69">3176</text></a></g></g></g></g><rect fill="none" stroke="#DDD" width="70" height="30" rx="8" ry="8" x="5" y="208"/><text text-anchor="middle" fill="#333" x="40" y="228">12-08</text><g transform="translate(5,248)"><g><a target="_top" xlink:href="dtp-slice3-step2628000-ofs2-col2-cat1.html"><rect style="display:none" class="hcell-act-col2-cat1" fill="#337AB7" stroke="#000" stroke-width="5" width="70" height="20" x="0" y="5" rx="8" ry="8"/><rect class="hcell-col2-cat1" fill="#337AB7" stroke="#DDD" width="70" height="30" x="0" y="0" rx="8" ry="8"/><text text-anchor="middle" fill="#FFF" x="35" y="20">-104</text></a><g transform="translate(0,30)"><g><a target="_top" xlink:href="dtp-slice3-step2628000-ofs2-col2-cat0.html"><rect style="display:none" class="hcell-act-col2-cat0" fill="#5CB85C" stroke="#000" stroke-width="5" width="70" height="78" x="0" y="5" rx="8" ry="8"/><rect class="hcell-col2-cat0" fill="#5CB85C" stroke="#DDD" width="70" height="88" x="0" y="0" rx="8" ry="8"/><text text-anchor="middle" fill="#FFF" x="35" y="20">-3112</text></a></g></g></g></g></g><g><g transform="translate(85,198)"><g><a target="_top" xlink:href="dtp-slice3-step2628000-ofs2-col3-cat2.html"><rect style="display:none" class="hcell-act-col3-cat2" fill="#D9534F" stroke="#000" stroke-width="5" width="70" height="20" x="0" y="-25" rx="8" ry="8"/><rect class="hcell-col3-cat2" fill="#D9534F" stroke="#DDD" width="70" height="30" x="0" y="-30" rx="8" ry="8"/><text text-anchor="middle" fill="#FFF" x="35" y="-10">653</text></a><g transform="translate(0,-30)"><g><a target="_top" xlink:href="dtp-slice3-step2628000-ofs2-col3-cat0.html"><rect style="display:none" class="hcell-act-col3-cat0" fill="#5CB85C" stroke="#000" stroke-width="5" width="70" height="64" x="0" y="-69" rx="8" ry="8"/><rect class="hcell-col3-cat0" fill="#5CB85C" stroke="#DDD" width="70" height="74" x="0" y="-74" rx="8" ry="8"/><text text-anchor="middle" fill="#FFF" x="35" y="-54">2626</text></a></g></g></g></g><rect fill="none" stroke="#DDD" width="70" height="30" rx="8" ry="8" x="85" y="208"/><text text-anchor="middle" fill="#333" x="120" y="228">12-10</text><g transform="translate(85,248)"><g><a target="_top" xlink:href="dtp-slice3-step2628000-ofs2-col3-cat1.html"><rect style="display:none" class="hcell-act-col3-cat1" fill="#337AB7" stroke="#000" stroke-width="5" width="70" height="20" x="0" y="5" rx="8" ry="8"/><rect class="hcell-col3-cat1" fill="#337AB7" stroke="#DDD" width="70" height="30" x="0" y="0" rx="8" ry="8"/><text text-anchor="middle" fill="#FFF" x="35" y="20">-108</text></a><g transform="translate(0,30)"><g><a target="_top" xlink:href="dtp-slice3-step2628000-ofs2-col3-cat0.html"><rect style="display:none" class="hcell-act-col3-cat0" fill="#5CB85C" stroke="#000" stroke-width="5" width="70" height="68" x="0" y="5" rx="8" ry="8"/><rect class="hcell-col3-cat0" fill="#5CB85C" stroke="#DDD" width="70" height="78" x="0" y="0" rx="8" ry="8"/><text text-anchor="middle" fill="#FFF" x="35" y="20">-2784</text></a></g></g></g></g></g><g><g transform="translate(165,198)"><g><a target="_top" xlink:href="dtp-slice3-step2628000-ofs2-col4-cat2.html"><rect style="display:none" class="hcell-act-col4-cat2" fill="#D9534F" stroke="#000" stroke-width="5" width="70" height="20" x="0" y="-25" rx="8" ry="8"/><rect class="hcell-col4-cat2" fill="#D9534F" stroke="#DDD" width="70" height="30" x="0" y="-30" rx="8" ry="8"/><text text-anchor="middle" fill="#FFF" x="35" y="-10">511</text></a><g transform="translate(0,-30)"><g><a target="_top" xlink:href="dtp-slice3-step2628000-ofs2-col4-cat0.html"><rect style="display:none" class="hcell-act-col4-cat0" fill="#5CB85C" stroke="#000" stroke-width="5" width="70" height="145" x="0" y="-150" rx="8" ry="8"/><rect class="hcell-col4-cat0" fill="#5CB85C" stroke="#DDD" width="70" height="155" x="0" y="-155" rx="8" ry="8"/><text text-anchor="middle" fill="#FFF" x="35" y="-135">5499</text></a></g></g></g></g><rect fill="none" stroke="#DDD" width="70" height="30" rx="8" ry="8" x="165" y="208"/><text text-anchor="middle" fill="#333" x="200" y="228">12-10</text><g transform="translate(165,248)"><g><a target="_top" xlink:href="dtp-slice3-step2628000-ofs2-col4-cat1.html"><rect style="display:none" class="hcell-act-col4-cat1" fill="#337AB7" stroke="#000" stroke-width="5" width="70" height="20" x="0" y="5" rx="8" ry="8"/><rect class="hcell-col4-cat1" fill="#337AB7" stroke="#DDD" width="70" height="30" x="0" y="0" rx="8" ry="8"/><text text-anchor="middle" fill="#FFF" x="35" y="20">-113</text></a><g transform="translate(0,30)"><g><a target="_top" xlink:href="dtp-slice3-step2628000-ofs2-col4-cat0.html"><rect style="display:none" class="hcell-act-col4-cat0" fill="#5CB85C" stroke="#000" stroke-width="5" width="70" height="102" x="0" y="5" rx="8" ry="8"/><rect class="hcell-col4-cat0" fill="#5CB85C" stroke="#DDD" width="70" height="112" x="0" y="0" rx="8" ry="8"/><text text-anchor="middle" fill="#FFF" x="35" y="20">-3989</text></a></g></g></g></g></g><g><g transform="translate(245,198)"><g><a target="_top" xlink:href="dtp-slice3-step2628000-ofs2-col5-cat2.html"><rect style="display:none" class="hcell-act-col5-cat2" fill="#D9534F" stroke="#000" stroke-width="5" width="70" height="20" x="0" y="-25" rx="8" ry="8"/><rect class="hcell-col5-cat2" fill="#D9534F" stroke="#DDD" width="70" height="30" x="0" y="-30" rx="8" ry="8"/><text text-anchor="middle" fill="#FFF" x="35" y="-10">645</text></a><g transform="translate(0,-30)"><g><a target="_top" xlink:href="dtp-slice3-step2628000-ofs2-col5-cat0.html"><rect style="display:none" class="hcell-act-col5-cat0" fill="#5CB85C" stroke="#000" stroke-width="5" width="70" height="69" x="0" y="-74" rx="8" ry="8"/><rect class="hcell-col5-cat0" fill="#5CB85C" stroke="#DDD" width="70" height="79" x="0" y="-79" rx="8" ry="8"/><text text-anchor="middle" fill="#FFF" x="35" y="-59">2811</text></a></g></g></g></g><rect fill="none" stroke="#DDD" width="70" height="30" rx="8" ry="8" x="245" y="208"/><text text-anchor="middle" fill="#333" x="280" y="228">12-12</text><g transform="translate(245,248)"><g><a target="_top" xlink:href="dtp-slice3-step2628000-ofs2-col5-cat1.html"><rect style="display:none" class="hcell-act-col5-cat1" fill="#337AB7" stroke="#000" stroke-width="5" width="70" height="20" x="0" y="5" rx="8" ry="8"/><rect class="hcell-col5-cat1" fill="#337AB7" stroke="#DDD" width="70" height="30" x="0" y="0" rx="8" ry="8"/><text text-anchor="middle" fill="#FFF" x="35" y="20">-122</text></a><g transform="translate(0,30)"><g><a target="_top" xlink:href="dtp-slice3-step2628000-ofs2-col5-cat0.html"><rect style="display:none" class="hcell-act-col5-cat0" fill="#5CB85C" stroke="#000" stroke-width="5" width="70" height="74" x="0" y="5" rx="8" ry="8"/><rect class="hcell-col5-cat0" fill="#5CB85C" stroke="#DDD" width="70" height="84" x="0" y="0" rx="8" ry="8"/><text text-anchor="middle" fill="#FFF" x="35" y="20">-2997</text></a></g></g></g></g></g><g><g transform="translate(325,198)"><g><a target="_top" xlink:href="dtp-slice3-step2628000-ofs2-col6-cat2.html"><rect style="display:none" class="hcell-act-col6-cat2" fill="#D9534F" stroke="#000" stroke-width="5" width="70" height="20" x="0" y="-25" rx="8" ry="8"/><rect class="hcell-col6-cat2" fill="#D9534F" stroke="#DDD" width="70" height="30" x="0" y="-30" rx="8" ry="8"/><text text-anchor="middle" fill="#FFF" x="35" y="-10">626</text></a><g transform="translate(0,-30)"><g><a target="_top" xlink:href="dtp-slice3-step2628000-ofs2-col6-cat0.html"><rect style="display:none" class="hcell-act-col6-cat0" fill="#5CB85C" stroke="#000" stroke-width="5" width="70" height="68" x="0" y="-73" rx="8" ry="8"/><rect class="hcell-col6-cat0" fill="#5CB85C" stroke="#DDD" width="70" height="78" x="0" y="-78" rx="8" ry="8"/><text text-anchor="middle" fill="#FFF" x="35" y="-58">2753</text></a></g></g></g></g><rect fill="none" stroke="#DDD" width="70" height="30" rx="8" ry="8" x="325" y="208"/><text text-anchor="middle" fill="#333" x="360" y="228">12-12</text><g transform="translate(325,248)"><g><a target="_top" xlink:href="dtp-slice3-step2628000-ofs2-col6-cat1.html"><rect style="display:none" class="hcell-act-col6-cat1" fill="#337AB7" stroke="#000" stroke-width="5" width="70" height="20" x="0" y="5" rx="8" ry="8"/><rect class="hcell-col6-cat1" fill="#337AB7" stroke="#DDD" width="70" height="30" x="0" y="0" rx="8" ry="8"/><text text-anchor="middle" fill="#FFF" x="35" y="20">-130</text></a><g transform="translate(0,30)"><g><a target="_top" xlink:href="dtp-slice3-step2628000-ofs2-col6-cat0.html"><rect style="display:none" class="hcell-act-col6-cat0" fill="#5CB85C" stroke="#000" stroke-width="5" width="70" height="70" x="0" y="5" rx="8" ry="8"/><rect class="hcell-col6-cat0" fill="#5CB85C" stroke="#DDD" width="70" height="80" x="0" y="0" rx="8" ry="8"/><text text-anchor="middle" fill="#FFF" x="35" y="20">-2858</text></a></g></g></g></g></g><g><g transform="translate(405,198)"><g><a target="_top" xlink:href="dtp-slice3-step2628000-ofs2-col7-cat2.html"><rect style="display:none" class="hcell-act-col7-cat2" fill="#D9534F" stroke="#000" stroke-width="5" width="70" height="20" x="0" y="-25" rx="8" ry="8"/><rect class="hcell-col7-cat2" fill="#D9534F" stroke="#DDD" width="70" height="30" x="0" y="-30" rx="8" ry="8"/><text text-anchor="middle" fill="#FFF" x="35" y="-10">558</text></a><g transform="translate(0,-30)"><g><a target="_top" xlink:href="dtp-slice3-step2628000-ofs2-col7-cat0.html"><rect style="display:none" class="hcell-act-col7-cat0" fill="#5CB85C" stroke="#000" stroke-width="5" width="70" height="70" x="0" y="-75" rx="8" ry="8"/><rect class="hcell-col7-cat0" fill="#5CB85C" stroke="#DDD" width="70" height="80" x="0" y="-80" rx="8" ry="8"/><text text-anchor="middle" fill="#FFF" x="35" y="-60">2848</text></a></g></g></g></g><rect fill="none" stroke="#DDD" width="70" height="30" rx="8" ry="8" x="405" y="208"/><text text-anchor="middle" fill="#333" x="440" y="228">13-01</text><g transform="translate(405,248)"><g><a target="_top" xlink:href="dtp-slice3-step2628000-ofs2-col7-cat1.html"><rect style="display:none" class="hcell-act-col7-cat1" fill="#337AB7" stroke="#000" stroke-width="5" width="70" height="20" x="0" y="5" rx="8" ry="8"/><rect class="hcell-col7-cat1" fill="#337AB7" stroke="#DDD" width="70" height="30" x="0" y="0" rx="8" ry="8"/><text text-anchor="middle" fill="#FFF" x="35" y="20">-117</text></a><g transform="translate(0,30)"><g><a target="_top" xlink:href="dtp-slice3-step2628000-ofs2-col7-cat0.html"><rect style="display:none" class="hcell-act-col7-cat0" fill="#5CB85C" stroke="#000" stroke-width="5" width="70" height="57" x="0" y="5" rx="8" ry="8"/><rect class="hcell-col7-cat0" fill="#5CB85C" stroke="#DDD" width="70" height="67" x="0" y="0" rx="8" ry="8"/><text text-anchor="middle" fill="#FFF" x="35" y="20">-2377</text></a></g></g></g></g></g><g><g transform="translate(485,198)"><g><a target="_top" xlink:href="dtp-slice3-step2628000-ofs2-col8-cat2.html"><rect style="display:none" class="hcell-act-col8-cat2" fill="#D9534F" stroke="#000" stroke-width="5" width="70" height="20" x="0" y="-25" rx="8" ry="8"/><rect class="hcell-col8-cat2" fill="#D9534F" stroke="#DDD" width="70" height="30" x="0" y="-30" rx="8" ry="8"/><text text-anchor="middle" fill="#FFF" x="35" y="-10">686</text></a><g transform="translate(0,-30)"><g><a target="_top" xlink:href="dtp-slice3-step2628000-ofs2-col8-cat0.html"><rect style="display:none" class="hcell-act-col8-cat0" fill="#5CB85C" stroke="#000" stroke-width="5" width="70" height="153" x="0" y="-158" rx="8" ry="8"/><rect class="hcell-col8-cat0" fill="#5CB85C" stroke="#DDD" width="70" height="163" x="0" y="-163" rx="8" ry="8"/><text text-anchor="middle" fill="#FFF" x="35" y="-143">5786</text></a></g></g></g></g><rect fill="none" stroke="#DDD" width="70" height="30" rx="8" ry="8" x="485" y="208"/><text text-anchor="middle" fill="#333" x="520" y="228">13-03</text><g transform="translate(485,248)"><g><a target="_top" xlink:href="dtp-slice3-step2628000-ofs2-col8-cat1.html"><rect style="display:none" class="hcell-act-col8-cat1" fill="#337AB7" stroke="#000" stroke-width="5" width="70" height="20" x="0" y="5" rx="8" ry="8"/><rect class="hcell-col8-cat1" fill="#337AB7" stroke="#DDD" width="70" height="30" x="0" y="0" rx="8" ry="8"/><text text-anchor="middle" fill="#FFF" x="35" y="20">-96</text></a><g transform="translate(0,30)"><g><a target="_top" xlink:href="dtp-slice3-step2628000-ofs2-col8-cat0.html"><rect style="display:none" class="hcell-act-col8-cat0" fill="#5CB85C" stroke="#000" stroke-width="5" width="70" height="112" x="0" y="5" rx="8" ry="8"/><rect class="hcell-col8-cat0" fill="#5CB85C" stroke="#DDD" width="70" height="122" x="0" y="0" rx="8" ry="8"/><text text-anchor="middle" fill="#FFF" x="35" y="20">-4319</text></a></g></g></g></g></g><g><g transform="translate(565,198)"><g><a target="_top" xlink:href="dtp-slice3-step2628000-ofs2-col9-cat2.html"><rect style="display:none" class="hcell-act-col9-cat2" fill="#D9534F" stroke="#000" stroke-width="5" width="70" height="20" x="0" y="-25" rx="8" ry="8"/><rect class="hcell-col9-cat2" fill="#D9534F" stroke="#DDD" width="70" height="30" x="0" y="-30" rx="8" ry="8"/><text text-anchor="middle" fill="#FFF" x="35" y="-10">563</text></a><g transform="translate(0,-30)"><g><a target="_top" xlink:href="dtp-slice3-step2628000-ofs2-col9-cat0.html"><rect style="display:none" class="hcell-act-col9-cat0" fill="#5CB85C" stroke="#000" stroke-width="5" width="70" height="102" x="0" y="-107" rx="8" ry="8"/><rect class="hcell-col9-cat0" fill="#5CB85C" stroke="#DDD" width="70" height="112" x="0" y="-112" rx="8" ry="8"/><text text-anchor="middle" fill="#FFF" x="35" y="-92">3970</text></a></g></g></g></g><rect fill="none" stroke="#DDD" width="70" height="30" rx="8" ry="8" x="565" y="208"/><text text-anchor="middle" fill="#333" x="600" y="228">13-04</text><g transform="translate(565,248)"><g><a target="_top" xlink:href="dtp-slice3-step2628000-ofs2-col9-cat1.html"><rect style="display:none" class="hcell-act-col9-cat1" fill="#337AB7" stroke="#000" stroke-width="5" width="70" height="20" x="0" y="5" rx="8" ry="8"/><rect class="hcell-col9-cat1" fill="#337AB7" stroke="#DDD" width="70" height="30" x="0" y="0" rx="8" ry="8"/><text text-anchor="middle" fill="#FFF" x="35" y="20">-107</text></a><g transform="translate(0,30)"><g><a target="_top" xlink:href="dtp-slice3-step2628000-ofs2-col9-cat0.html"><rect style="display:none" class="hcell-act-col9-cat0" fill="#5CB85C" stroke="#000" stroke-width="5" width="70" height="102" x="0" y="5" rx="8" ry="8"/><rect class="hcell-col9-cat0" fill="#5CB85C" stroke="#DDD" width="70" height="112" x="0" y="0" rx="8" ry="8"/><text text-anchor="middle" fill="#FFF" x="35" y="20">-3989</text></a></g></g></g></g></g><g><g transform="translate(645,198)"><g><a target="_top" xlink:href="dtp-slice3-step2628000-ofs2-col10-cat2.html"><rect style="display:none" class="hcell-act-col10-cat2" fill="#D9534F" stroke="#000" stroke-width="5" width="70" height="20" x="0" y="-25" rx="8" ry="8"/><rect class="hcell-col10-cat2" fill="#D9534F" stroke="#DDD" width="70" height="30" x="0" y="-30" rx="8" ry="8"/><text text-anchor="middle" fill="#FFF" x="35" y="-10">607</text></a><g transform="translate(0,-30)"><g><a target="_top" xlink:href="dtp-slice3-step2628000-ofs2-col10-cat0.html"><rect style="display:none" class="hcell-act-col10-cat0" fill="#5CB85C" stroke="#000" stroke-width="5" width="70" height="96" x="0" y="-101" rx="8" ry="8"/><rect class="hcell-col10-cat0" fill="#5CB85C" stroke="#DDD" width="70" height="106" x="0" y="-106" rx="8" ry="8"/><text text-anchor="middle" fill="#FFF" x="35" y="-86">3757</text></a></g></g></g></g><rect fill="none" stroke="#DDD" width="70" height="30" rx="8" ry="8" x="645" y="208"/><text text-anchor="middle" fill="#333" x="680" y="228">13-05</text><g transform="translate(645,248)"><g><a target="_top" xlink:href="dtp-slice3-step2628000-ofs2-col10-cat1.html"><rect style="display:none" class="hcell-act-col10-cat1" fill="#337AB7" stroke="#000" stroke-width="5" width="70" height="20" x="0" y="5" rx="8" ry="8"/><rect class="hcell-col10-cat1" fill="#337AB7" stroke="#DDD" width="70" height="30" x="0" y="0" rx="8" ry="8"/><text text-anchor="middle" fill="#FFF" x="35" y="20">-84</text></a><g transform="translate(0,30)"><g><a target="_top" xlink:href="dtp-slice3-step2628000-ofs2-col10-cat0.html"><rect style="display:none" class="hcell-act-col10-cat0" fill="#5CB85C" stroke="#000" stroke-width="5" width="70" height="99" x="0" y="5" rx="8" ry="8"/><rect class="hcell-col10-cat0" fill="#5CB85C" stroke="#DDD" width="70" height="109" x="0" y="0" rx="8" ry="8"/><text text-anchor="middle" fill="#FFF" x="35" y="20">-3867</text></a></g></g></g></g></g><g><g transform="translate(725,198)"><g><a target="_top" xlink:href="dtp-slice3-step2628000-ofs2-col11-cat2.html"><rect style="display:none" class="hcell-act-col11-cat2" fill="#D9534F" stroke="#000" stroke-width="5" width="70" height="20" x="0" y="-25" rx="8" ry="8"/><rect class="hcell-col11-cat2" fill="#D9534F" stroke="#DDD" width="70" height="30" x="0" y="-30" rx="8" ry="8"/><text text-anchor="middle" fill="#FFF" x="35" y="-10">401</text></a><g transform="translate(0,-30)"><g><a target="_top" xlink:href="dtp-slice3-step2628000-ofs2-col11-cat0.html"><rect style="display:none" class="hcell-act-col11-cat0" fill="#5CB85C" stroke="#000" stroke-width="5" width="70" height="90" x="0" y="-95" rx="8" ry="8"/><rect class="hcell-col11-cat0" fill="#5CB85C" stroke="#DDD" width="70" height="100" x="0" y="-100" rx="8" ry="8"/><text text-anchor="middle" fill="#FFF" x="35" y="-80">3532</text></a></g></g></g></g><rect fill="none" stroke="#DDD" width="70" height="30" rx="8" ry="8" x="725" y="208"/><text text-anchor="middle" fill="#333" x="760" y="228">13-06</text><g transform="translate(725,248)"><g><a target="_top" xlink:href="dtp-slice3-step2628000-ofs2-col11-cat1.html"><rect style="display:none" class="hcell-act-col11-cat1" fill="#337AB7" stroke="#000" stroke-width="5" width="70" height="20" x="0" y="5" rx="8" ry="8"/><rect class="hcell-col11-cat1" fill="#337AB7" stroke="#DDD" width="70" height="30" x="0" y="0" rx="8" ry="8"/><text text-anchor="middle" fill="#FFF" x="35" y="20">-78</text></a><g transform="translate(0,30)"><g><a target="_top" xlink:href="dtp-slice3-step2628000-ofs2-col11-cat0.html"><rect style="display:none" class="hcell-act-col11-cat0" fill="#5CB85C" stroke="#000" stroke-width="5" width="70" height="87" x="0" y="5" rx="8" ry="8"/><rect class="hcell-col11-cat0" fill="#5CB85C" stroke="#DDD" width="70" height="97" x="0" y="0" rx="8" ry="8"/><text text-anchor="middle" fill="#FFF" x="35" y="20">-3425</text></a></g></g></g></g></g><g><g transform="translate(805,198)"><g><a target="_top" xlink:href="dtp-slice3-step2628000-ofs2-col12-cat2.html"><rect style="display:none" class="hcell-act-col12-cat2" fill="#D9534F" stroke="#000" stroke-width="5" width="70" height="20" x="0" y="-25" rx="8" ry="8"/><rect class="hcell-col12-cat2" fill="#D9534F" stroke="#DDD" width="70" height="30" x="0" y="-30" rx="8" ry="8"/><text text-anchor="middle" fill="#FFF" x="35" y="-10">960</text></a><g transform="translate(0,-30)"><g><a target="_top" xlink:href="dtp-slice3-step2628000-ofs2-col12-cat0.html"><rect style="display:none" class="hcell-act-col12-cat0" fill="#5CB85C" stroke="#000" stroke-width="5" width="70" height="77" x="0" y="-82" rx="8" ry="8"/><rect class="hcell-col12-cat0" fill="#5CB85C" stroke="#DDD" width="70" height="87" x="0" y="-87" rx="8" ry="8"/><text text-anchor="middle" fill="#FFF" x="35" y="-67">3090</text></a></g></g></g></g><rect fill="none" stroke="#DDD" width="70" height="30" rx="8" ry="8" x="805" y="208"/><text text-anchor="middle" fill="#333" x="840" y="228">13-07</text><g transform="translate(805,248)"><g><a target="_top" xlink:href="dtp-slice3-step2628000-ofs2-col12-cat1.html"><rect style="display:none" class="hcell-act-col12-cat1" fill="#337AB7" stroke="#000" stroke-width="5" width="70" height="20" x="0" y="5" rx="8" ry="8"/><rect class="hcell-col12-cat1" fill="#337AB7" stroke="#DDD" width="70" height="30" x="0" y="0" rx="8" ry="8"/><text text-anchor="middle" fill="#FFF" x="35" y="20">-120</text></a><g transform="translate(0,30)"><g><a target="_top" xlink:href="dtp-slice3-step2628000-ofs2-col12-cat0.html"><rect style="display:none" class="hcell-act-col12-cat0" fill="#5CB85C" stroke="#000" stroke-width="5" width="70" height="203" x="0" y="5" rx="8" ry="8"/><rect class="hcell-col12-cat0" fill="#5CB85C" stroke="#DDD" width="70" height="213" x="0" y="0" rx="8" ry="8"/><text text-anchor="middle" fill="#FFF" x="35" y="20">-7528</text></a></g></g></g></g></g><g><g transform="translate(885,198)"><g><a target="_top" xlink:href="dtp-slice3-step2628000-ofs2-col13-cat2.html"><rect style="display:none" class="hcell-act-col13-cat2" fill="#D9534F" stroke="#000" stroke-width="5" width="70" height="20" x="0" y="-25" rx="8" ry="8"/><rect class="hcell-col13-cat2" fill="#D9534F" stroke="#DDD" width="70" height="30" x="0" y="-30" rx="8" ry="8"/><text text-anchor="middle" fill="#FFF" x="35" y="-10">697</text></a><g transform="translate(0,-30)"><g><a target="_top" xlink:href="dtp-slice3-step2628000-ofs2-col13-cat0.html"><rect style="display:none" class="hcell-act-col13-cat0" fill="#5CB85C" stroke="#000" stroke-width="5" width="70" height="64" x="0" y="-69" rx="8" ry="8"/><rect class="hcell-col13-cat0" fill="#5CB85C" stroke="#DDD" width="70" height="74" x="0" y="-74" rx="8" ry="8"/><text text-anchor="middle" fill="#FFF" x="35" y="-54">2624</text></a></g></g></g></g><rect fill="none" stroke="#DDD" width="70" height="30" rx="8" ry="8" x="885" y="208"/><text text-anchor="middle" fill="#333" x="920" y="228">13-08</text><g transform="translate(885,248)"><g><a target="_top" xlink:href="dtp-slice3-step2628000-ofs2-col13-cat1.html"><rect style="display:none" class="hcell-act-col13-cat1" fill="#337AB7" stroke="#000" stroke-width="5" width="70" height="20" x="0" y="5" rx="8" ry="8"/><rect class="hcell-col13-cat1" fill="#337AB7" stroke="#DDD" width="70" height="30" x="0" y="0" rx="8" ry="8"/><text text-anchor="middle" fill="#FFF" x="35" y="20">-105</text></a><g transform="translate(0,30)"><g><a target="_top" xlink:href="dtp-slice3-step2628000-ofs2-col13-cat0.html"><rect style="display:none" class="hcell-act-col13-cat0" fill="#5CB85C" stroke="#000" stroke-width="5" width="70" height="70" x="0" y="5" rx="8" ry="8"/><rect class="hcell-col13-cat0" fill="#5CB85C" stroke="#DDD" width="70" height="80" x="0" y="0" rx="8" ry="8"/><text text-anchor="middle" fill="#FFF" x="35" y="20">-2843</text></a></g></g></g></g></g><g><g transform="translate(965,198)"><g><a target="_top" xlink:href="dtp-slice3-step2628000-ofs2-col14-cat2.html"><rect style="display:none" class="hcell-act-col14-cat2" fill="#D9534F" stroke="#000" stroke-width="5" width="70" height="20" x="0" y="-25" rx="8" ry="8"/><rect class="hcell-col14-cat2" fill="#D9534F" stroke="#DDD" width="70" height="30" x="0" y="-30" rx="8" ry="8"/><text text-anchor="middle" fill="#FFF" x="35" y="-10">235</text></a><g transform="translate(0,-30)"><g><a target="_top" xlink:href="dtp-slice3-step2628000-ofs2-col14-cat0.html"><rect style="display:none" class="hcell-act-col14-cat0" fill="#5CB85C" stroke="#000" stroke-width="5" width="70" height="63" x="0" y="-68" rx="8" ry="8"/><rect class="hcell-col14-cat0" fill="#5CB85C" stroke="#DDD" width="70" height="73" x="0" y="-73" rx="8" ry="8"/><text text-anchor="middle" fill="#FFF" x="35" y="-53">2600</text></a></g></g></g></g><rect fill="none" stroke="#DDD" width="70" height="30" rx="8" ry="8" x="965" y="208"/><text text-anchor="middle" fill="#333" x="1000" y="228">13-08</text><g transform="translate(965,248)"><g><a target="_top" xlink:href="dtp-slice3-step2628000-ofs2-col14-cat1.html"><rect style="display:none" class="hcell-act-col14-cat1" fill="#337AB7" stroke="#000" stroke-width="5" width="70" height="20" x="0" y="5" rx="8" ry="8"/><rect class="hcell-col14-cat1" fill="#337AB7" stroke="#DDD" width="70" height="30" x="0" y="0" rx="8" ry="8"/><text text-anchor="middle" fill="#FFF" x="35" y="20">-40</text></a><g transform="translate(0,30)"><g><a target="_top" xlink:href="dtp-slice3-step2628000-ofs2-col14-cat0.html"><rect style="display:none" class="hcell-act-col14-cat0" fill="#5CB85C" stroke="#000" stroke-width="5" width="70" height="48" x="0" y="5" rx="8" ry="8"/><rect class="hcell-col14-cat0" fill="#5CB85C" stroke="#DDD" width="70" height="58" x="0" y="0" rx="8" ry="8"/><text text-anchor="middle" fill="#FFF" x="35" y="20">-2059</text></a></g></g></g></g></g><g><g transform="translate(1045,198)"><g><a target="_top" xlink:href="dtp-slice3-step2628000-ofs2-col15-cat2.html"><rect style="display:none" class="hcell-act-col15-cat2" fill="#D9534F" stroke="#000" stroke-width="5" width="70" height="20" x="0" y="-25" rx="8" ry="8"/><rect class="hcell-col15-cat2" fill="#D9534F" stroke="#DDD" width="70" height="30" x="0" y="-30" rx="8" ry="8"/><text text-anchor="middle" fill="#FFF" x="35" y="-10">562</text></a><g transform="translate(0,-30)"><g><a target="_top" xlink:href="dtp-slice3-step2628000-ofs2-col15-cat0.html"><rect style="display:none" class="hcell-act-col15-cat0" fill="#5CB85C" stroke="#000" stroke-width="5" width="70" height="66" x="0" y="-71" rx="8" ry="8"/><rect class="hcell-col15-cat0" fill="#5CB85C" stroke="#DDD" width="70" height="76" x="0" y="-76" rx="8" ry="8"/><text text-anchor="middle" fill="#FFF" x="35" y="-56">2711</text></a></g></g></g></g><rect fill="none" stroke="#DDD" width="70" height="30" rx="8" ry="8" x="1045" y="208"/><text text-anchor="middle" fill="#333" x="1080" y="228">13-10</text><g transform="translate(1045,248)"><g><a target="_top" xlink:href="dtp-slice3-step2628000-ofs2-col15-cat1.html"><rect style="display:none" class="hcell-act-col15-cat1" fill="#337AB7" stroke="#000" stroke-width="5" width="70" height="20" x="0" y="5" rx="8" ry="8"/><rect class="hcell-col15-cat1" fill="#337AB7" stroke="#DDD" width="70" height="30" x="0" y="0" rx="8" ry="8"/><text text-anchor="middle" fill="#FFF" x="35" y="20">-147</text></a><g transform="translate(0,30)"><g><a target="_top" xlink:href="dtp-slice3-step2628000-ofs2-col15-cat0.html"><rect style="display:none" class="hcell-act-col15-cat0" fill="#5CB85C" stroke="#000" stroke-width="5" width="70" height="61" x="0" y="5" rx="8" ry="8"/><rect class="hcell-col15-cat0" fill="#5CB85C" stroke="#DDD" width="70" height="71" x="0" y="0" rx="8" ry="8"/><text text-anchor="middle" fill="#FFF" x="35" y="20">-2528</text></a></g></g></g></g></g><g><g transform="translate(1125,198)"><g><a target="_top" xlink:href="dtp-slice3-step2628000-ofs2-col16-cat2.html"><rect style="display:none" class="hcell-act-col16-cat2" fill="#D9534F" stroke="#000" stroke-width="5" width="70" height="20" x="0" y="-25" rx="8" ry="8"/><rect class="hcell-col16-cat2" fill="#D9534F" stroke="#DDD" width="70" height="30" x="0" y="-30" rx="8" ry="8"/><text text-anchor="middle" fill="#FFF" x="35" y="-10">429</text></a><g transform="translate(0,-30)"><g><a target="_top" xlink:href="dtp-slice3-step2628000-ofs2-col16-cat0.html"><rect style="display:none" class="hcell-act-col16-cat0" fill="#5CB85C" stroke="#000" stroke-width="5" width="70" height="126" x="0" y="-131" rx="8" ry="8"/><rect class="hcell-col16-cat0" fill="#5CB85C" stroke="#DDD" width="70" height="136" x="0" y="-136" rx="8" ry="8"/><text text-anchor="middle" fill="#FFF" x="35" y="-116">4820</text></a></g></g></g></g><rect fill="none" stroke="#DDD" width="70" height="30" rx="8" ry="8" x="1125" y="208"/><text text-anchor="middle" fill="#333" x="1160" y="228">13-10</text><g transform="translate(1125,248)"><g><a target="_top" xlink:href="dtp-slice3-step2628000-ofs2-col16-cat1.html"><rect style="display:none" class="hcell-act-col16-cat1" fill="#337AB7" stroke="#000" stroke-width="5" width="70" height="20" x="0" y="5" rx="8" ry="8"/><rect class="hcell-col16-cat1" fill="#337AB7" stroke="#DDD" width="70" height="30" x="0" y="0" rx="8" ry="8"/><text text-anchor="middle" fill="#FFF" x="35" y="20">-48</text></a><g transform="translate(0,30)"><g><a target="_top" xlink:href="dtp-slice3-step2628000-ofs2-col16-cat0.html"><rect style="display:none" class="hcell-act-col16-cat0" fill="#5CB85C" stroke="#000" stroke-width="5" width="70" height="125" x="0" y="5" rx="8" ry="8"/><rect class="hcell-col16-cat0" fill="#5CB85C" stroke="#DDD" width="70" height="135" x="0" y="0" rx="8" ry="8"/><text text-anchor="middle" fill="#FFF" x="35" y="20">-4799</text></a></g></g></g></g></g><g><g transform="translate(1205,198)"><g><a target="_top" xlink:href="dtp-slice3-step2628000-ofs2-col17-cat2.html"><rect style="display:none" class="hcell-act-col17-cat2" fill="#D9534F" stroke="#000" stroke-width="5" width="70" height="20" x="0" y="-25" rx="8" ry="8"/><rect class="hcell-col17-cat2" fill="#D9534F" stroke="#DDD" width="70" height="30" x="0" y="-30" rx="8" ry="8"/><text text-anchor="middle" fill="#FFF" x="35" y="-10">643</text></a><g transform="translate(0,-30)"><g><a target="_top" xlink:href="dtp-slice3-step2628000-ofs2-col17-cat0.html"><rect style="display:none" class="hcell-act-col17-cat0" fill="#5CB85C" stroke="#000" stroke-width="5" width="70" height="79" x="0" y="-84" rx="8" ry="8"/><rect class="hcell-col17-cat0" fill="#5CB85C" stroke="#DDD" width="70" height="89" x="0" y="-89" rx="8" ry="8"/><text text-anchor="middle" fill="#FFF" x="35" y="-69">3162</text></a></g></g></g></g><rect fill="none" stroke="#DDD" width="70" height="30" rx="8" ry="8" x="1205" y="208"/><text text-anchor="middle" fill="#333" x="1240" y="228">13-12</text><g transform="translate(1205,248)"><g><a target="_top" xlink:href="dtp-slice3-step2628000-ofs2-col17-cat1.html"><rect style="display:none" class="hcell-act-col17-cat1" fill="#337AB7" stroke="#000" stroke-width="5" width="70" height="20" x="0" y="5" rx="8" ry="8"/><rect class="hcell-col17-cat1" fill="#337AB7" stroke="#DDD" width="70" height="30" x="0" y="0" rx="8" ry="8"/><text text-anchor="middle" fill="#FFF" x="35" y="20">-160</text></a><g transform="translate(0,30)"><g><a target="_top" xlink:href="dtp-slice3-step2628000-ofs2-col17-cat0.html"><rect style="display:none" class="hcell-act-col17-cat0" fill="#5CB85C" stroke="#000" stroke-width="5" width="70" height="91" x="0" y="5" rx="8" ry="8"/><rect class="hcell-col17-cat0" fill="#5CB85C" stroke="#DDD" width="70" height="101" x="0" y="0" rx="8" ry="8"/><text text-anchor="middle" fill="#FFF" x="35" y="20">-3592</text></a></g></g></g></g></g></svg>