<svg xmlns="http://www.w3.org/2000/svg" xmlns:xlink="http://www.w3.org/1999/xlink" width="100%" height="100%" viewBox="0 0 1280 462"><g><g transform="translate(5,407)"><g><a target="_top" xlink:href="dtp-slice0-step2628000-ofs0-col0-cat0.html"><rect style="display:none" class="hcell-act-col0-cat0" fill="#5CB85C" stroke="#000" stroke-width="5" width="70" height="20" x="0" y="-25" rx="8" ry="8"/><rect class="hcell-col0-cat0" fill="#5CB85C" stroke="#DDD" width="70" height="30" x="0" y="-30" rx="8" ry="8"/><text text-anchor="middle" fill="#FFF" x="35" y="-10">35</text></a><g transform="translate(0,-30)"><g><a target="_top" xlink:href="dtp-slice0-step2628000-ofs0-col0-cat1.html"><rect style="display:none" class="hcell-act-col0-cat1" fill="#337AB7" stroke="#000" stroke-width="5" width="70" height="21" x="0" y="-26" rx="8" ry="8"/><rect class="hcell-col0-cat1" fill="#337AB7" stroke="#DDD" width="70" height="31" x="0" y="-31" rx="8" ry="8"/><text text-anchor="middle" fill="#FFF" x="35" y="-11">76</text></a><g transform="translate(0,-31)"><g><a target="_top" xlink:href="dtp-slice0-step2628000-ofs0-col0-cat2.html"><rect style="display:none" class="hcell-act-col0-cat2" fill="#D9534F" stroke="#000" stroke-width="5" width="70" height="130" x="0" y="-135" rx="8" ry="8"/><rect class="hcell-col0-cat2" fill="#D9534F" stroke="#DDD" width="70" height="140" x="0" y="-140" rx="8" ry="8"/><text text-anchor="middle" fill="#FFF" x="35" y="-120">337</text></a></g></g></g></g></g></g><rect fill="none" stroke="#DDD" width="70" height="30" rx="8" ry="8" x="5" y="417"/><text text-anchor="middle" fill="#333" x="40" y="437">12-07</text><g transform="translate(5,457)"></g></g><g><g transform="translate(85,407)"><g><a target="_top" xlink:href="dtp-slice0-step2628000-ofs0-col1-cat0.html"><rect style="display:none" class="hcell-act-col1-cat0" fill="#5CB85C" stroke="#000" stroke-width="5" width="70" height="20" x="0" y="-25" rx="8" ry="8"/><rect class="hcell-col1-cat0" fill="#5CB85C" stroke="#DDD" width="70" height="30" x="0" y="-30" rx="8" ry="8"/><text text-anchor="middle" fill="#FFF" x="35" y="-10">29</text></a><g transform="translate(0,-30)"><g><a target="_top" xlink:href="dtp-slice0-step2628000-ofs0-col1-cat1.html"><rect style="display:none" class="hcell-act-col1-cat1" fill="#337AB7" stroke="#000" stroke-width="5" width="70" height="33" x="0" y="-38" rx="8" ry="8"/><rect class="hcell-col1-cat1" fill="#337AB7" stroke="#DDD" width="70" height="43" x="0" y="-43" rx="8" ry="8"/><text text-anchor="middle" fill="#FFF" x="35" y="-23">105</text></a><g transform="translate(0,-43)"><g><a target="_top" xlink:href="dtp-slice0-step2628000-ofs0-col1-cat2.html"><rect style="display:none" class="hcell-act-col1-cat2" fill="#D9534F" stroke="#000" stroke-width="5" width="70" height="100" x="0" y="-105" rx="8" ry="8"/><rect class="hcell-col1-cat2" fill="#D9534F" stroke="#DDD" width="70" height="110" x="0" y="-110" rx="8" ry="8"/><text text-anchor="middle" fill="#FFF" x="35" y="-90">264</text></a></g></g></g></g></g></g><rect fill="none" stroke="#DDD" width="70" height="30" rx="8" ry="8" x="85" y="417"/><text text-anchor="middle" fill="#333" x="120" y="437">12-08</text><g transform="translate(85,457)"></g></g><g><g transform="translate(165,407)"><g><a target="_top" xlink:href="dtp-slice0-step2628000-ofs0-col2-cat0.html"><rect style="display:none" class="hcell-act-col2-cat0" fill="#5CB85C" stroke="#000" stroke-width="5" width="70" height="20" x="0" y="-25" rx="8" ry="8"/><rect class="hcell-col2-cat0" fill="#5CB85C" stroke="#DDD" width="70" height="30" x="0" y="-30" rx="8" ry="8"/><text text-anchor="middle" fill="#FFF" x="35" y="-10">40</text></a><g transform="translate(0,-30)"><g><a target="_top" xlink:href="dtp-slice0-step2628000-ofs0-col2-cat1.html"><rect style="display:none" class="hcell-act-col2-cat1" fill="#337AB7" stroke="#000" stroke-width="5" width="70" height="44" x="0" y="-49" rx="8" ry="8"/><rect class="hcell-col2-cat1" fill="#337AB7" stroke="#DDD" width="70" height="54" x="0" y="-54" rx="8" ry="8"/><text text-anchor="middle" fill="#FFF" x="35" y="-34">131</text></a><g transform="translate(0,-54)"><g><a target="_top" xlink:href="dtp-slice0-step2628000-ofs0-col2-cat2.html"><rect style="display:none" class="hcell-act-col2-cat2" fill="#D9534F" stroke="#000" stroke-width="5" width="70" height="172" x="0" y="-177" rx="8" ry="8"/><rect class="hcell-col2-cat2" fill="#D9534F" stroke="#DDD" width="70" height="182" x="0" y="-182" rx="8" ry="8"/><text text-anchor="middle" fill="#FFF" x="35" y="-162">438</text></a></g></g></g></g></g></g><rect fill="none" stroke="#DDD" width="70" height="30" rx="8" ry="8" x="165" y="417"/><text text-anchor="middle" fill="#333" x="200" y="437">12-08</text><g transform="translate(165,457)"></g></g><g><g transform="translate(245,407)"><g><a target="_top" xlink:href="dtp-slice0-step2628000-ofs0-col3-cat0.html"><rect style="display:none" class="hcell-act-col3-cat0" fill="#5CB85C" stroke="#000" stroke-width="5" width="70" height="20" x="0" y="-25" rx="8" ry="8"/><rect class="hcell-col3-cat0" fill="#5CB85C" stroke="#DDD" width="70" height="30" x="0" y="-30" rx="8" ry="8"/><text text-anchor="middle" fill="#FFF" x="35" y="-10">45</text></a><g transform="translate(0,-30)"><g><a target="_top" xlink:href="dtp-slice0-step2628000-ofs0-col3-cat1.html"><rect style="display:none" class="hcell-act-col3-cat1" fill="#337AB7" stroke="#000" stroke-width="5" width="70" height="56" x="0" y="-61" rx="8" ry="8"/><rect class="hcell-col3-cat1" fill="#337AB7" stroke="#DDD" width="70" height="66" x="0" y="-66" rx="8" ry="8"/><text text-anchor="middle" fill="#FFF" x="35" y="-46">158</text></a><g transform="translate(0,-66)"><g><a target="_top" xlink:href="dtp-slice0-step2628000-ofs0-col3-cat2.html"><rect style="display:none" class="hcell-act-col3-cat2" fill="#D9534F" stroke="#000" stroke-width="5" width="70" height="177" x="0" y="-182" rx="8" ry="8"/><rect class="hcell-col3-cat2" fill="#D9534F" stroke="#DDD" width="70" height="187" x="0" y="-187" rx="8" ry="8"/><text text-anchor="middle" fill="#FFF" x="35" y="-167">449</text></a></g></g></g></g></g></g><rect fill="none" stroke="#DDD" width="70" height="30" rx="8" ry="8" x="245" y="417"/><text text-anchor="middle" fill="#333" x="280" y="437">12-10</text><g transform="translate(245,457)"></g></g><g><g transform="translate(325,407)"><g><a target="_top" xlink:href="dtp-slice0-step2628000-ofs0-col4-cat0.html"><rect style="display:none" class="hcell-act-col4-cat0" fill="#5CB85C" stroke="#000" stroke-width="5" width="70" height="20" x="0" y="-25" rx="8" ry="8"/><rect class="hcell-col4-cat0" fill="#5CB85C" stroke="#DDD" width="70" height="30" x="0" y="-30" rx="8" ry="8"/><text text-anchor="middle" fill="#FFF" x="35" y="-10">38</text></a><g transform="translate(0,-30)"><g><a target="_top" xlink:href="dtp-slice0-step2628000-ofs0-col4-cat1.html"><rect style="display:none" class="hcell-act-col4-cat1" fill="#337AB7" stroke="#000" stroke-width="5" width="70" height="36" x="0" y="-41" rx="8" ry="8"/><rect class="hcell-col4-cat1" fill="#337AB7" stroke="#DDD" width="70" height="46" x="0" y="-46" rx="8" ry="8"/><text text-anchor="middle" fill="#FFF" x="35" y="-26">110</text></a><g transform="translate(0,-46)"><g><a target="_top" xlink:href="dtp-slice0-step2628000-ofs0-col4-cat2.html"><rect style="display:none" class="hcell-act-col4-cat2" fill="#D9534F" stroke="#000" stroke-width="5" width="70" height="140" x="0" y="-145" rx="8" ry="8"/><rect class="hcell-col4-cat2" fill="#D9534F" stroke="#DDD" width="70" height="150" x="0" y="-150" rx="8" ry="8"/><text text-anchor="middle" fill="#FFF" x="35" y="-130">362</text></a></g></g></g></g></g></g><rect fill="none" stroke="#DDD" width="70" height="30" rx="8" ry="8" x="325" y="417"/><text text-anchor="middle" fill="#333" x="360" y="437">12-10</text><g transform="translate(325,457)"></g></g><g><g transform="translate(405,407)"><g><a target="_top" xlink:href="dtp-slice0-step2628000-ofs0-col5-cat0.html"><rect style="display:none" class="hcell-act-col5-cat0" fill="#5CB85C" stroke="#000" stroke-width="5" width="70" height="20" x="0" y="-25" rx="8" ry="8"/><rect class="hcell-col5-cat0" fill="#5CB85C" stroke="#DDD" width="70" height="30" x="0" y="-30" rx="8" ry="8"/><text text-anchor="middle" fill="#FFF" x="35" y="-10">41</text></a><g transform="translate(0,-30)"><g><a target="_top" xlink:href="dtp-slice0-step2628000-ofs0-col5-cat1.html"><rect style="display:none" class="hcell-act-col5-cat1" fill="#337AB7" stroke="#000" stroke-width="5" width="70" height="50" x="0" y="-55" rx="8" ry="8"/><rect class="hcell-col5-cat1" fill="#337AB7" stroke="#DDD" width="70" height="60" x="0" y="-60" rx="8" ry="8"/><text text-anchor="middle" fill="#FFF" x="35" y="-40">145</text></a><g transform="translate(0,-60)"><g><a target="_top" xlink:href="dtp-slice0-step2628000-ofs0-col5-cat2.html"><rect style="display:none" class="hcell-act-col5-cat2" fill="#D9534F" stroke="#000" stroke-width="5" width="70" height="180" x="0" y="-185" rx="8" ry="8"/><rect class="hcell-col5-cat2" fill="#D9534F" stroke="#DDD" width="70" height="190" x="0" y="-190" rx="8" ry="8"/><text text-anchor="middle" fill="#FFF" x="35" y="-170">457</text></a></g></g></g></g></g></g><rect fill="none" stroke="#DDD" width="70" height="30" rx="8" ry="8" x="405" y="417"/><text text-anchor="middle" fill="#333" x="440" y="437">12-12</text><g transform="translate(405,457)"></g></g><g><g transform="translate(485,407)"><g><a target="_top" xlink:href="dtp-slice0-step2628000-ofs0-col6-cat0.html"><rect style="display:none" class="hcell-act-col6-cat0" fill="#5CB85C" stroke="#000" stroke-width="5" width="70" height="20" x="0" y="-25" rx="8" ry="8"/><rect class="hcell-col6-cat0" fill="#5CB85C" stroke="#DDD" width="70" height="30" x="0" y="-30" rx="8" ry="8"/><text text-anchor="middle" fill="#FFF" x="35" y="-10">56</text></a><g transform="translate(0,-30)"><g><a target="_top" xlink:href="dtp-slice0-step2628000-ofs0-col6-cat1.html"><rect style="display:none" class="hcell-act-col6-cat1" fill="#337AB7" stroke="#000" stroke-width="5" width="70" height="52" x="0" y="-57" rx="8" ry="8"/><rect class="hcell-col6-cat1" fill="#337AB7" stroke="#DDD" width="70" height="62" x="0" y="-62" rx="8" ry="8"/><text text-anchor="middle" fill="#FFF" x="35" y="-42">149</text></a><g transform="translate(0,-62)"><g><a target="_top" xlink:href="dtp-slice0-step2628000-ofs0-col6-cat2.html"><rect style="display:none" class="hcell-act-col6-cat2" fill="#D9534F" stroke="#000" stroke-width="5" width="70" height="165" x="0" y="-170" rx="8" ry="8"/><rect class="hcell-col6-cat2" fill="#D9534F" stroke="#DDD" width="70" height="175" x="0" y="-175" rx="8" ry="8"/><text text-anchor="middle" fill="#FFF" x="35" y="-155">420</text></a></g></g></g></g></g></g><rect fill="none" stroke="#DDD" width="70" height="30" rx="8" ry="8" x="485" y="417"/><text text-anchor="middle" fill="#333" x="520" y="437">12-12</text><g transform="translate(485,457)"></g></g><g><g transform="translate(565,407)"><g><a target="_top" xlink:href="dtp-slice0-step2628000-ofs0-col7-cat0.html"><rect style="display:none" class="hcell-act-col7-cat0" fill="#5CB85C" stroke="#000" stroke-width="5" width="70" height="20" x="0" y="-25" rx="8" ry="8"/><rect class="hcell-col7-cat0" fill="#5CB85C" stroke="#DDD" width="70" height="30" x="0" y="-30" rx="8" ry="8"/><text text-anchor="middle" fill="#FFF" x="35" y="-10">40</text></a><g transform="translate(0,-30)"><g><a target="_top" xlink:href="dtp-slice0-step2628000-ofs0-col7-cat1.html"><rect style="display:none" class="hcell-act-col7-cat1" fill="#337AB7" stroke="#000" stroke-width="5" width="70" height="57" x="0" y="-62" rx="8" ry="8"/><rect class="hcell-col7-cat1" fill="#337AB7" stroke="#DDD" width="70" height="67" x="0" y="-67" rx="8" ry="8"/><text text-anchor="middle" fill="#FFF" x="35" y="-47">161</text></a><g transform="translate(0,-67)"><g><a target="_top" xlink:href="dtp-slice0-step2628000-ofs0-col7-cat2.html"><rect style="display:none" class="hcell-act-col7-cat2" fill="#D9534F" stroke="#000" stroke-width="5" width="70" height="138" x="0" y="-143" rx="8" ry="8"/><rect class="hcell-col7-cat2" fill="#D9534F" stroke="#DDD" width="70" height="148" x="0" y="-148" rx="8" ry="8"/><text text-anchor="middle" fill="#FFF" x="35" y="-128">356</text></a></g></g></g></g></g></g><rect fill="none" stroke="#DDD" width="70" height="30" rx="8" ry="8" x="565" y="417"/><text text-anchor="middle" fill="#333" x="600" y="437">13-01</text><g transform="translate(565,457)"></g></g><g><g transform="translate(645,407)"><g><a target="_top" xlink:href="dtp-slice0-step2628000-ofs0-col8-cat0.html"><rect style="display:none" class="hcell-act-col8-cat0" fill="#5CB85C" stroke="#000" stroke-width="5" width="70" height="20" x="0" y="-25" rx="8" ry="8"/><rect class="hcell-col8-cat0" fill="#5CB85C" stroke="#DDD" width="70" height="30" x="0" y="-30" rx="8" ry="8"/><text text-anchor="middle" fill="#FFF" x="35" y="-10">62</text></a><g transform="translate(0,-30)"><g><a target="_top" xlink:href="dtp-slice0-step2628000-ofs0-col8-cat1.html"><rect style="display:none" class="hcell-act-col8-cat1" fill="#337AB7" stroke="#000" stroke-width="5" width="70" height="59" x="0" y="-64" rx="8" ry="8"/><rect class="hcell-col8-cat1" fill="#337AB7" stroke="#DDD" width="70" height="69" x="0" y="-69" rx="8" ry="8"/><text text-anchor="middle" fill="#FFF" x="35" y="-49">166</text></a><g transform="translate(0,-69)"><g><a target="_top" xlink:href="dtp-slice0-step2628000-ofs0-col8-cat2.html"><rect style="display:none" class="hcell-act-col8-cat2" fill="#D9534F" stroke="#000" stroke-width="5" width="70" height="180" x="0" y="-185" rx="8" ry="8"/><rect class="hcell-col8-cat2" fill="#D9534F" stroke="#DDD" width="70" height="190" x="0" y="-190" rx="8" ry="8"/><text text-anchor="middle" fill="#FFF" x="35" y="-170">457</text></a></g></g></g></g></g></g><rect fill="none" stroke="#DDD" width="70" height="30" rx="8" ry="8" x="645" y="417"/><text text-anchor="middle" fill="#333" x="680" y="437">13-03</text><g transform="translate(645,457)"></g></g><g><g transform="translate(725,407)"><g><a target="_top" xlink:href="dtp-slice0-step2628000-ofs0-col9-cat0.html"><rect style="display:none" class="hcell-act-col9-cat0" fill="#5CB85C" stroke="#000" stroke-width="5" width="70" height="20" x="0" y="-25" rx="8" ry="8"/><rect class="hcell-col9-cat0" fill="#5CB85C" stroke="#DDD" width="70" height="30" x="0" y="-30" rx="8" ry="8"/><text text-anchor="middle" fill="#FFF" x="35" y="-10">42</text></a><g transform="translate(0,-30)"><g><a target="_top" xlink:href="dtp-slice0-step2628000-ofs0-col9-cat1.html"><rect style="display:none" class="hcell-act-col9-cat1" fill="#337AB7" stroke="#000" stroke-width="5" width="70" height="42" x="0" y="-47" rx="8" ry="8"/><rect class="hcell-col9-cat1" fill="#337AB7" stroke="#DDD" width="70" height="52" x="0" y="-52" rx="8" ry="8"/><text text-anchor="middle" fill="#FFF" x="35" y="-32">125</text></a><g transform="translate(0,-52)"><g><a target="_top" xlink:href="dtp-slice0-step2628000-ofs0-col9-cat2.html"><rect style="display:none" class="hcell-act-col9-cat2" fill="#D9534F" stroke="#000" stroke-width="5" width="70" height="154" x="0" y="-159" rx="8" ry="8"/><rect class="hcell-col9-cat2" fill="#D9534F" stroke="#DDD" width="70" height="164" x="0" y="-164" rx="8" ry="8"/><text text-anchor="middle" fill="#FFF" x="35" y="-144">395</text></a></g></g></g></g></g></g><rect fill="none" stroke="#DDD" width="70" height="30" rx="8" ry="8" x="725" y="417"/><text text-anchor="middle" fill="#333" x="760" y="437">13-04</text><g transform="translate(725,457)"></g></g><g><g transform="translate(805,407)"><g><a target="_top" xlink:href="dtp-slice0-step2628000-ofs0-col10-cat0.html"><rect style="display:none" class="hcell-act-col10-cat0" fill="#5CB85C" stroke="#000" stroke-width="5" width="70" height="20" x="0" y="-25" rx="8" ry="8"/><rect class="hcell-col10-cat0" fill="#5CB85C" stroke="#DDD" width="70" height="30" x="0" y="-30" rx="8" ry="8"/><text text-anchor="middle" fill="#FFF" x="35" y="-10">55</text></a><g transform="translate(0,-30)"><g><a target="_top" xlink:href="dtp-slice0-step2628000-ofs0-col10-cat1.html"><rect style="display:none" class="hcell-act-col10-cat1" fill="#337AB7" stroke="#000" stroke-width="5" width="70" height="41" x="0" y="-46" rx="8" ry="8"/><rect class="hcell-col10-cat1" fill="#337AB7" stroke="#DDD" width="70" height="51" x="0" y="-51" rx="8" ry="8"/><text text-anchor="middle" fill="#FFF" x="35" y="-31">124</text></a><g transform="translate(0,-51)"><g><a target="_top" xlink:href="dtp-slice0-step2628000-ofs0-col10-cat2.html"><rect style="display:none" class="hcell-act-col10-cat2" fill="#D9534F" stroke="#000" stroke-width="5" width="70" height="168" x="0" y="-173" rx="8" ry="8"/><rect class="hcell-col10-cat2" fill="#D9534F" stroke="#DDD" width="70" height="178" x="0" y="-178" rx="8" ry="8"/><text text-anchor="middle" fill="#FFF" x="35" y="-158">427</text></a></g></g></g></g></g></g><rect fill="none" stroke="#DDD" width="70" height="30" rx="8" ry="8" x="805" y="417"/><text text-anchor="middle" fill="#333" x="840" y="437">13-05</text><g transform="translate(805,457)"></g></g><g><g transform="translate(885,407)"><g><a target="_top" xlink:href="dtp-slice0-step2628000-ofs0-col11-cat0.html"><rect style="display:none" class="hcell-act-col11-cat0" fill="#5CB85C" stroke="#000" stroke-width="5" width="70" height="20" x="0" y="-25" rx="8" ry="8"/><rect class="hcell-col11-cat0" fill="#5CB85C" stroke="#DDD" width="70" height="30" x="0" y="-30" rx="8" ry="8"/><text text-anchor="middle" fill="#FFF" x="35" y="-10">37</text></a><g transform="translate(0,-30)"><g><a target="_top" xlink:href="dtp-slice0-step2628000-ofs0-col11-cat1.html"><rect style="display:none" class="hcell-act-col11-cat1" fill="#337AB7" stroke="#000" stroke-width="5" width="70" height="23" x="0" y="-28" rx="8" ry="8"/><rect class="hcell-col11-cat1" fill="#337AB7" stroke="#DDD" width="70" height="33" x="0" y="-33" rx="8" ry="8"/><text text-anchor="middle" fill="#FFF" x="35" y="-13">81</text></a><g transform="translate(0,-33)"><g><a target="_top" xlink:href="dtp-slice0-step2628000-ofs0-col11-cat2.html"><rect style="display:none" class="hcell-act-col11-cat2" fill="#D9534F" stroke="#000" stroke-width="5" width="70" height="107" x="0" y="-112" rx="8" ry="8"/><rect class="hcell-col11-cat2" fill="#D9534F" stroke="#DDD" width="70" height="117" x="0" y="-117" rx="8" ry="8"/><text text-anchor="middle" fill="#FFF" x="35" y="-97">282</text></a></g></g></g></g></g></g><rect fill="none" stroke="#DDD" width="70" height="30" rx="8" ry="8" x="885" y="417"/><text text-anchor="middle" fill="#333" x="920" y="437">13-06</text><g transform="translate(885,457)"></g></g><g><g transform="translate(965,407)"><g><a target="_top" xlink:href="dtp-slice0-step2628000-ofs0-col12-cat0.html"><rect style="display:none" class="hcell-act-col12-cat0" fill="#5CB85C" stroke="#000" stroke-width="5" width="70" height="20" x="0" y="-25" rx="8" ry="8"/><rect class="hcell-col12-cat0" fill="#5CB85C" stroke="#DDD" width="70" height="30" x="0" y="-30" rx="8" ry="8"/><text text-anchor="middle" fill="#FFF" x="35" y="-10">65</text></a><g transform="translate(0,-30)"><g><a target="_top" xlink:href="dtp-slice0-step2628000-ofs0-col12-cat1.html"><rect style="display:none" class="hcell-act-col12-cat1" fill="#337AB7" stroke="#000" stroke-width="5" width="70" height="110" x="0" y="-115" rx="8" ry="8"/><rect class="hcell-col12-cat1" fill="#337AB7" stroke="#DDD" width="70" height="120" x="0" y="-120" rx="8" ry="8"/><text text-anchor="middle" fill="#FFF" x="35" y="-100">288</text></a><g transform="translate(0,-120)"><g><a target="_top" xlink:href="dtp-slice0-step2628000-ofs0-col12-cat2.html"><rect style="display:none" class="hcell-act-col12-cat2" fill="#D9534F" stroke="#000" stroke-width="5" width="70" height="242" x="0" y="-247" rx="8" ry="8"/><rect class="hcell-col12-cat2" fill="#D9534F" stroke="#DDD" width="70" height="252" x="0" y="-252" rx="8" ry="8"/><text text-anchor="middle" fill="#FFF" x="35" y="-232">607</text></a></g></g></g></g></g></g><rect fill="none" stroke="#DDD" width="70" height="30" rx="8" ry="8" x="965" y="417"/><text text-anchor="middle" fill="#333" x="1000" y="437">13-07</text><g transform="translate(965,457)"></g></g><g><g transform="translate(1045,407)"><g><a target="_top" xlink:href="dtp-slice0-step2628000-ofs0-col13-cat0.html"><rect style="display:none" class="hcell-act-col13-cat0" fill="#5CB85C" stroke="#000" stroke-width="5" width="70" height="20" x="0" y="-25" rx="8" ry="8"/><rect class="hcell-col13-cat0" fill="#5CB85C" stroke="#DDD" width="70" height="30" x="0" y="-30" rx="8" ry="8"/><text text-anchor="middle" fill="#FFF" x="35" y="-10">54</text></a><g transform="translate(0,-30)"><g><a target="_top" xlink:href="dtp-slice0-step2628000-ofs0-col13-cat1.html"><rect style="display:none" class="hcell-act-col13-cat1" fill="#337AB7" stroke="#000" stroke-width="5" width="70" height="54" x="0" y="-59" rx="8" ry="8"/><rect class="hcell-col13-cat1" fill="#337AB7" stroke="#DDD" width="70" height="64" x="0" y="-64" rx="8" ry="8"/><text text-anchor="middle" fill="#FFF" x="35" y="-44">154</text></a><g transform="translate(0,-64)"><g><a target="_top" xlink:href="dtp-slice0-step2628000-ofs0-col13-cat2.html"><rect style="display:none" class="hcell-act-col13-cat2" fill="#D9534F" stroke="#000" stroke-width="5" width="70" height="193" x="0" y="-198" rx="8" ry="8"/><rect class="hcell-col13-cat2" fill="#D9534F" stroke="#DDD" width="70" height="203" x="0" y="-203" rx="8" ry="8"/><text text-anchor="middle" fill="#FFF" x="35" y="-183">488</text></a></g></g></g></g></g></g><rect fill="none" stroke="#DDD" width="70" height="30" rx="8" ry="8" x="1045" y="417"/><text text-anchor="middle" fill="#333" x="1080" y="437">13-08</text><g transform="translate(1045,457)"></g></g><g><g transform="translate(1125,407)"><g><a target="_top" xlink:href="dtp-slice0-step2628000-ofs0-col14-cat0.html"><rect style="display:none" class="hcell-act-col14-cat0" fill="#5CB85C" stroke="#000" stroke-width="5" width="70" height="20" x="0" y="-25" rx="8" ry="8"/><rect class="hcell-col14-cat0" fill="#5CB85C" stroke="#DDD" width="70" height="30" x="0" y="-30" rx="8" ry="8"/><text text-anchor="middle" fill="#FFF" x="35" y="-10">26</text></a><g transform="translate(0,-30)"><g><a target="_top" xlink:href="dtp-slice0-step2628000-ofs0-col14-cat1.html"><rect style="display:none" class="hcell-act-col14-cat1" fill="#337AB7" stroke="#000" stroke-width="5" width="70" height="20" x="0" y="-25" rx="8" ry="8"/><rect class="hcell-col14-cat1" fill="#337AB7" stroke="#DDD" width="70" height="30" x="0" y="-30" rx="8" ry="8"/><text text-anchor="middle" fill="#FFF" x="35" y="-10">38</text></a><g transform="translate(0,-30)"><g><a target="_top" xlink:href="dtp-slice0-step2628000-ofs0-col14-cat2.html"><rect style="display:none" class="hcell-act-col14-cat2" fill="#D9534F" stroke="#000" stroke-width="5" width="70" height="60" x="0" y="-65" rx="8" ry="8"/><rect class="hcell-col14-cat2" fill="#D9534F" stroke="#DDD" width="70" height="70" x="0" y="-70" rx="8" ry="8"/><text text-anchor="middle" fill="#FFF" x="35" y="-50">170</text></a></g></g></g></g></g></g><rect fill="none" stroke="#DDD" width="70" height="30" rx="8" ry="8" x="1125" y="417"/><text text-anchor="middle" fill="#333" x="1160" y="437">13-08</text><g transform="translate(1125,457)"></g></g><g><g transform="translate(1205,407)"><g><a target="_top" xlink:href="dtp-slice0-step2628000-ofs0-col15-cat0.html"><rect style="display:none" class="hcell-act-col15-cat0" fill="#5CB85C" stroke="#000" stroke-width="5" width="70" height="20" x="0" y="-25" rx="8" ry="8"/><rect class="hcell-col15-cat0" fill="#5CB85C" stroke="#DDD" width="70" height="30" x="0" y="-30" rx="8" ry="8"/><text text-anchor="middle" fill="#FFF" x="35" y="-10">32</text></a><g transform="translate(0,-30)"><g><a target="_top" xlink:href="dtp-slice0-step2628000-ofs0-col15-cat1.html"><rect style="display:none" class="hcell-act-col15-cat1" fill="#337AB7" stroke="#000" stroke-width="5" width="70" height="29" x="0" y="-34" rx="8" ry="8"/><rect class="hcell-col15-cat1" fill="#337AB7" stroke="#DDD" width="70" height="39" x="0" y="-39" rx="8" ry="8"/><text text-anchor="middle" fill="#FFF" x="35" y="-19">94</text></a><g transform="translate(0,-39)"><g><a target="_top" xlink:href="dtp-slice0-step2628000-ofs0-col15-cat2.html"><rect style="display:none" class="hcell-act-col15-cat2" fill="#D9534F" stroke="#000" stroke-width="5" width="70" height="171" x="0" y="-176" rx="8" ry="8"/><rect class="hcell-col15-cat2" fill="#D9534F" stroke="#DDD" width="70" height="181" x="0" y="-181" rx="8" ry="8"/><text text-anchor="middle" fill="#FFF" x="35" y="-161">435</text></a></g></g></g></g></g></g><rect fill="none" stroke="#DDD" width="70" height="30" rx="8" ry="8" x="1205" y="417"/><text text-anchor="middle" fill="#333" x="1240" y="437">13-10</text><g transform="translate(1205,457)"></g></g></svg>