<svg xmlns="http://www.w3.org/2000/svg" xmlns:xlink="http://www.w3.org/1999/xlink" width="100%" height="100%" viewBox="0 0 1280 460"><g><g transform="translate(5,405)"><g><a target="_top" xlink:href="dtp-slice0-step2628000-ofs18-col18-cat0.html"><rect style="display:none" class="hcell-act-col18-cat0" fill="#5CB85C" stroke="#000" stroke-width="5" width="70" height="20" x="0" y="-25" rx="8" ry="8"/><rect class="hcell-col18-cat0" fill="#5CB85C" stroke="#DDD" width="70" height="30" x="0" y="-30" rx="8" ry="8"/><text text-anchor="middle" fill="#FFF" x="35" y="-10">15</text></a><g transform="translate(0,-30)"><g><a target="_top" xlink:href="dtp-slice0-step2628000-ofs18-col18-cat1.html"><rect style="display:none" class="hcell-act-col18-cat1" fill="#337AB7" stroke="#000" stroke-width="5" width="70" height="40" x="0" y="-45" rx="8" ry="8"/><rect class="hcell-col18-cat1" fill="#337AB7" stroke="#DDD" width="70" height="50" x="0" y="-50" rx="8" ry="8"/><text text-anchor="middle" fill="#FFF" x="35" y="-30">89</text></a><g transform="translate(0,-50)"><g><a target="_top" xlink:href="dtp-slice0-step2628000-ofs18-col18-cat2.html"><rect style="display:none" class="hcell-act-col18-cat2" fill="#D9534F" stroke="#000" stroke-width="5" width="70" height="135" x="0" y="-140" rx="8" ry="8"/><rect class="hcell-col18-cat2" fill="#D9534F" stroke="#DDD" width="70" height="145" x="0" y="-145" rx="8" ry="8"/><text text-anchor="middle" fill="#FFF" x="35" y="-125">255</text></a></g></g></g></g></g></g><rect fill="none" stroke="#DDD" width="70" height="30" rx="8" ry="8" x="5" y="415"/><text text-anchor="middle" fill="#333" x="40" y="435">13-12</text><g transform="translate(5,455)"></g></g><g><g transform="translate(85,405)"><g><a target="_top" xlink:href="dtp-slice0-step2628000-ofs18-col19-cat0.html"><rect style="display:none" class="hcell-act-col19-cat0" fill="#5CB85C" stroke="#000" stroke-width="5" width="70" height="20" x="0" y="-25" rx="8" ry="8"/><rect class="hcell-col19-cat0" fill="#5CB85C" stroke="#DDD" width="70" height="30" x="0" y="-30" rx="8" ry="8"/><text text-anchor="middle" fill="#FFF" x="35" y="-10">27</text></a><g transform="translate(0,-30)"><g><a target="_top" xlink:href="dtp-slice0-step2628000-ofs18-col19-cat1.html"><rect style="display:none" class="hcell-act-col19-cat1" fill="#337AB7" stroke="#000" stroke-width="5" width="70" height="39" x="0" y="-44" rx="8" ry="8"/><rect class="hcell-col19-cat1" fill="#337AB7" stroke="#DDD" width="70" height="49" x="0" y="-49" rx="8" ry="8"/><text text-anchor="middle" fill="#FFF" x="35" y="-29">87</text></a><g transform="translate(0,-49)"><g><a target="_top" xlink:href="dtp-slice0-step2628000-ofs18-col19-cat2.html"><rect style="display:none" class="hcell-act-col19-cat2" fill="#D9534F" stroke="#000" stroke-width="5" width="70" height="153" x="0" y="-158" rx="8" ry="8"/><rect class="hcell-col19-cat2" fill="#D9534F" stroke="#DDD" width="70" height="163" x="0" y="-163" rx="8" ry="8"/><text text-anchor="middle" fill="#FFF" x="35" y="-143">288</text></a></g></g></g></g></g></g><rect fill="none" stroke="#DDD" width="70" height="30" rx="8" ry="8" x="85" y="415"/><text text-anchor="middle" fill="#333" x="120" y="435">14-01</text><g transform="translate(85,455)"></g></g><g><g transform="translate(165,405)"><g><a target="_top" xlink:href="dtp-slice0-step2628000-ofs18-col20-cat0.html"><rect style="display:none" class="hcell-act-col20-cat0" fill="#5CB85C" stroke="#000" stroke-width="5" width="70" height="20" x="0" y="-25" rx="8" ry="8"/><rect class="hcell-col20-cat0" fill="#5CB85C" stroke="#DDD" width="70" height="30" x="0" y="-30" rx="8" ry="8"/><text text-anchor="middle" fill="#FFF" x="35" y="-10">49</text></a><g transform="translate(0,-30)"><g><a target="_top" xlink:href="dtp-slice0-step2628000-ofs18-col20-cat1.html"><rect style="display:none" class="hcell-act-col20-cat1" fill="#337AB7" stroke="#000" stroke-width="5" width="70" height="51" x="0" y="-56" rx="8" ry="8"/><rect class="hcell-col20-cat1" fill="#337AB7" stroke="#DDD" width="70" height="61" x="0" y="-61" rx="8" ry="8"/><text text-anchor="middle" fill="#FFF" x="35" y="-41">108</text></a><g transform="translate(0,-61)"><g><a target="_top" xlink:href="dtp-slice0-step2628000-ofs18-col20-cat2.html"><rect style="display:none" class="hcell-act-col20-cat2" fill="#D9534F" stroke="#000" stroke-width="5" width="70" height="239" x="0" y="-244" rx="8" ry="8"/><rect class="hcell-col20-cat2" fill="#D9534F" stroke="#DDD" width="70" height="249" x="0" y="-249" rx="8" ry="8"/><text text-anchor="middle" fill="#FFF" x="35" y="-229">440</text></a></g></g></g></g></g></g><rect fill="none" stroke="#DDD" width="70" height="30" rx="8" ry="8" x="165" y="415"/><text text-anchor="middle" fill="#333" x="200" y="435">14-03</text><g transform="translate(165,455)"></g></g><g><g transform="translate(245,405)"><g><a target="_top" xlink:href="dtp-slice0-step2628000-ofs18-col21-cat0.html"><rect style="display:none" class="hcell-act-col21-cat0" fill="#5CB85C" stroke="#000" stroke-width="5" width="70" height="20" x="0" y="-25" rx="8" ry="8"/><rect class="hcell-col21-cat0" fill="#5CB85C" stroke="#DDD" width="70" height="30" x="0" y="-30" rx="8" ry="8"/><text text-anchor="middle" fill="#FFF" x="35" y="-10">24</text></a><g transform="translate(0,-30)"><g><a target="_top" xlink:href="dtp-slice0-step2628000-ofs18-col21-cat1.html"><rect style="display:none" class="hcell-act-col21-cat1" fill="#337AB7" stroke="#000" stroke-width="5" width="70" height="68" x="0" y="-73" rx="8" ry="8"/><rect class="hcell-col21-cat1" fill="#337AB7" stroke="#DDD" width="70" height="78" x="0" y="-78" rx="8" ry="8"/><text text-anchor="middle" fill="#FFF" x="35" y="-58">138</text></a><g transform="translate(0,-78)"><g><a target="_top" xlink:href="dtp-slice0-step2628000-ofs18-col21-cat2.html"><rect style="display:none" class="hcell-act-col21-cat2" fill="#D9534F" stroke="#000" stroke-width="5" width="70" height="189" x="0" y="-194" rx="8" ry="8"/><rect class="hcell-col21-cat2" fill="#D9534F" stroke="#DDD" width="70" height="199" x="0" y="-199" rx="8" ry="8"/><text text-anchor="middle" fill="#FFF" x="35" y="-179">351</text></a></g></g></g></g></g></g><rect fill="none" stroke="#DDD" width="70" height="30" rx="8" ry="8" x="245" y="415"/><text text-anchor="middle" fill="#333" x="280" y="435">14-04</text><g transform="translate(245,455)"></g></g><g><g transform="translate(325,405)"><g><a target="_top" xlink:href="dtp-slice0-step2628000-ofs18-col22-cat0.html"><rect style="display:none" class="hcell-act-col22-cat0" fill="#5CB85C" stroke="#000" stroke-width="5" width="70" height="26" x="0" y="-31" rx="8" ry="8"/><rect class="hcell-col22-cat0" fill="#5CB85C" stroke="#DDD" width="70" height="36" x="0" y="-36" rx="8" ry="8"/><text text-anchor="middle" fill="#FFF" x="35" y="-16">63</text></a><g transform="translate(0,-36)"><g><a target="_top" xlink:href="dtp-slice0-step2628000-ofs18-col22-cat1.html"><rect style="display:none" class="hcell-act-col22-cat1" fill="#337AB7" stroke="#000" stroke-width="5" width="70" height="70" x="0" y="-75" rx="8" ry="8"/><rect class="hcell-col22-cat1" fill="#337AB7" stroke="#DDD" width="70" height="80" x="0" y="-80" rx="8" ry="8"/><text text-anchor="middle" fill="#FFF" x="35" y="-60">142</text></a><g transform="translate(0,-80)"><g><a target="_top" xlink:href="dtp-slice0-step2628000-ofs18-col22-cat2.html"><rect style="display:none" class="hcell-act-col22-cat2" fill="#D9534F" stroke="#000" stroke-width="5" width="70" height="270" x="0" y="-275" rx="8" ry="8"/><rect class="hcell-col22-cat2" fill="#D9534F" stroke="#DDD" width="70" height="280" x="0" y="-280" rx="8" ry="8"/><text text-anchor="middle" fill="#FFF" x="35" y="-260">494</text></a></g></g></g></g></g></g><rect fill="none" stroke="#DDD" width="70" height="30" rx="8" ry="8" x="325" y="415"/><text text-anchor="middle" fill="#333" x="360" y="435">14-05</text><g transform="translate(325,455)"></g></g><g><g transform="translate(405,405)"><g><a target="_top" xlink:href="dtp-slice0-step2628000-ofs18-col23-cat0.html"><rect style="display:none" class="hcell-act-col23-cat0" fill="#5CB85C" stroke="#000" stroke-width="5" width="70" height="20" x="0" y="-25" rx="8" ry="8"/><rect class="hcell-col23-cat0" fill="#5CB85C" stroke="#DDD" width="70" height="30" x="0" y="-30" rx="8" ry="8"/><text text-anchor="middle" fill="#FFF" x="35" y="-10">38</text></a><g transform="translate(0,-30)"><g><a target="_top" xlink:href="dtp-slice0-step2628000-ofs18-col23-cat1.html"><rect style="display:none" class="hcell-act-col23-cat1" fill="#337AB7" stroke="#000" stroke-width="5" width="70" height="73" x="0" y="-78" rx="8" ry="8"/><rect class="hcell-col23-cat1" fill="#337AB7" stroke="#DDD" width="70" height="83" x="0" y="-83" rx="8" ry="8"/><text text-anchor="middle" fill="#FFF" x="35" y="-63">146</text></a><g transform="translate(0,-83)"><g><a target="_top" xlink:href="dtp-slice0-step2628000-ofs18-col23-cat2.html"><rect style="display:none" class="hcell-act-col23-cat2" fill="#D9534F" stroke="#000" stroke-width="5" width="70" height="134" x="0" y="-139" rx="8" ry="8"/><rect class="hcell-col23-cat2" fill="#D9534F" stroke="#DDD" width="70" height="144" x="0" y="-144" rx="8" ry="8"/><text text-anchor="middle" fill="#FFF" x="35" y="-124">253</text></a></g></g></g></g></g></g><rect fill="none" stroke="#DDD" width="70" height="30" rx="8" ry="8" x="405" y="415"/><text text-anchor="middle" fill="#333" x="440" y="435">14-06</text><g transform="translate(405,455)"></g></g><g><g transform="translate(485,405)"><g><a target="_top" xlink:href="dtp-slice0-step2628000-ofs18-col24-cat0.html"><rect style="display:none" class="hcell-act-col24-cat0" fill="#5CB85C" stroke="#000" stroke-width="5" width="70" height="20" x="0" y="-25" rx="8" ry="8"/><rect class="hcell-col24-cat0" fill="#5CB85C" stroke="#DDD" width="70" height="30" x="0" y="-30" rx="8" ry="8"/><text text-anchor="middle" fill="#FFF" x="35" y="-10">51</text></a><g transform="translate(0,-30)"><g><a target="_top" xlink:href="dtp-slice0-step2628000-ofs18-col24-cat1.html"><rect style="display:none" class="hcell-act-col24-cat1" fill="#337AB7" stroke="#000" stroke-width="5" width="70" height="81" x="0" y="-86" rx="8" ry="8"/><rect class="hcell-col24-cat1" fill="#337AB7" stroke="#DDD" width="70" height="91" x="0" y="-91" rx="8" ry="8"/><text text-anchor="middle" fill="#FFF" x="35" y="-71">160</text></a><g transform="translate(0,-91)"><g><a target="_top" xlink:href="dtp-slice0-step2628000-ofs18-col24-cat2.html"><rect style="display:none" class="hcell-act-col24-cat2" fill="#D9534F" stroke="#000" stroke-width="5" width="70" height="269" x="0" y="-274" rx="8" ry="8"/><rect class="hcell-col24-cat2" fill="#D9534F" stroke="#DDD" width="70" height="279" x="0" y="-279" rx="8" ry="8"/><text text-anchor="middle" fill="#FFF" x="35" y="-259">493</text></a></g></g></g></g></g></g><rect fill="none" stroke="#DDD" width="70" height="30" rx="8" ry="8" x="485" y="415"/><text text-anchor="middle" fill="#333" x="520" y="435">14-07</text><g transform="translate(485,455)"></g></g><g><g transform="translate(565,405)"><g><a target="_top" xlink:href="dtp-slice0-step2628000-ofs18-col25-cat0.html"><rect style="display:none" class="hcell-act-col25-cat0" fill="#5CB85C" stroke="#000" stroke-width="5" width="70" height="20" x="0" y="-25" rx="8" ry="8"/><rect class="hcell-col25-cat0" fill="#5CB85C" stroke="#DDD" width="70" height="30" x="0" y="-30" rx="8" ry="8"/><text text-anchor="middle" fill="#FFF" x="35" y="-10">38</text></a><g transform="translate(0,-30)"><g><a target="_top" xlink:href="dtp-slice0-step2628000-ofs18-col25-cat1.html"><rect style="display:none" class="hcell-act-col25-cat1" fill="#337AB7" stroke="#000" stroke-width="5" width="70" height="54" x="0" y="-59" rx="8" ry="8"/><rect class="hcell-col25-cat1" fill="#337AB7" stroke="#DDD" width="70" height="64" x="0" y="-64" rx="8" ry="8"/><text text-anchor="middle" fill="#FFF" x="35" y="-44">113</text></a><g transform="translate(0,-64)"><g><a target="_top" xlink:href="dtp-slice0-step2628000-ofs18-col25-cat2.html"><rect style="display:none" class="hcell-act-col25-cat2" fill="#D9534F" stroke="#000" stroke-width="5" width="70" height="155" x="0" y="-160" rx="8" ry="8"/><rect class="hcell-col25-cat2" fill="#D9534F" stroke="#DDD" width="70" height="165" x="0" y="-165" rx="8" ry="8"/><text text-anchor="middle" fill="#FFF" x="35" y="-145">292</text></a></g></g></g></g></g></g><rect fill="none" stroke="#DDD" width="70" height="30" rx="8" ry="8" x="565" y="415"/><text text-anchor="middle" fill="#333" x="600" y="435">14-08</text><g transform="translate(565,455)"></g></g><g><g transform="translate(645,405)"><g><a target="_top" xlink:href="dtp-slice0-step2628000-ofs18-col26-cat0.html"><rect style="display:none" class="hcell-act-col26-cat0" fill="#5CB85C" stroke="#000" stroke-width="5" width="70" height="20" x="0" y="-25" rx="8" ry="8"/><rect class="hcell-col26-cat0" fill="#5CB85C" stroke="#DDD" width="70" height="30" x="0" y="-30" rx="8" ry="8"/><text text-anchor="middle" fill="#FFF" x="35" y="-10">53</text></a><g transform="translate(0,-30)"><g><a target="_top" xlink:href="dtp-slice0-step2628000-ofs18-col26-cat1.html"><rect style="display:none" class="hcell-act-col26-cat1" fill="#337AB7" stroke="#000" stroke-width="5" width="70" height="37" x="0" y="-42" rx="8" ry="8"/><rect class="hcell-col26-cat1" fill="#337AB7" stroke="#DDD" width="70" height="47" x="0" y="-47" rx="8" ry="8"/><text text-anchor="middle" fill="#FFF" x="35" y="-27">83</text></a><g transform="translate(0,-47)"><g><a target="_top" xlink:href="dtp-slice0-step2628000-ofs18-col26-cat2.html"><rect style="display:none" class="hcell-act-col26-cat2" fill="#D9534F" stroke="#000" stroke-width="5" width="70" height="276" x="0" y="-281" rx="8" ry="8"/><rect class="hcell-col26-cat2" fill="#D9534F" stroke="#DDD" width="70" height="286" x="0" y="-286" rx="8" ry="8"/><text text-anchor="middle" fill="#FFF" x="35" y="-266">505</text></a></g></g></g></g></g></g><rect fill="none" stroke="#DDD" width="70" height="30" rx="8" ry="8" x="645" y="415"/><text text-anchor="middle" fill="#333" x="680" y="435">14-08</text><g transform="translate(645,455)"></g></g><g><g transform="translate(725,405)"><g><a target="_top" xlink:href="dtp-slice0-step2628000-ofs18-col27-cat0.html"><rect style="display:none" class="hcell-act-col27-cat0" fill="#5CB85C" stroke="#000" stroke-width="5" width="70" height="20" x="0" y="-25" rx="8" ry="8"/><rect class="hcell-col27-cat0" fill="#5CB85C" stroke="#DDD" width="70" height="30" x="0" y="-30" rx="8" ry="8"/><text text-anchor="middle" fill="#FFF" x="35" y="-10">30</text></a><g transform="translate(0,-30)"><g><a target="_top" xlink:href="dtp-slice0-step2628000-ofs18-col27-cat1.html"><rect style="display:none" class="hcell-act-col27-cat1" fill="#337AB7" stroke="#000" stroke-width="5" width="70" height="42" x="0" y="-47" rx="8" ry="8"/><rect class="hcell-col27-cat1" fill="#337AB7" stroke="#DDD" width="70" height="52" x="0" y="-52" rx="8" ry="8"/><text text-anchor="middle" fill="#FFF" x="35" y="-32">91</text></a><g transform="translate(0,-52)"><g><a target="_top" xlink:href="dtp-slice0-step2628000-ofs18-col27-cat2.html"><rect style="display:none" class="hcell-act-col27-cat2" fill="#D9534F" stroke="#000" stroke-width="5" width="70" height="119" x="0" y="-124" rx="8" ry="8"/><rect class="hcell-col27-cat2" fill="#D9534F" stroke="#DDD" width="70" height="129" x="0" y="-129" rx="8" ry="8"/><text text-anchor="middle" fill="#FFF" x="35" y="-109">228</text></a></g></g></g></g></g></g><rect fill="none" stroke="#DDD" width="70" height="30" rx="8" ry="8" x="725" y="415"/><text text-anchor="middle" fill="#333" x="760" y="435">14-10</text><g transform="translate(725,455)"></g></g><g><g transform="translate(805,405)"><g><a target="_top" xlink:href="dtp-slice0-step2628000-ofs18-col28-cat0.html"><rect style="display:none" class="hcell-act-col28-cat0" fill="#5CB85C" stroke="#000" stroke-width="5" width="70" height="20" x="0" y="-25" rx="8" ry="8"/><rect class="hcell-col28-cat0" fill="#5CB85C" stroke="#DDD" width="70" height="30" x="0" y="-30" rx="8" ry="8"/><text text-anchor="middle" fill="#FFF" x="35" y="-10">47</text></a><g transform="translate(0,-30)"><g><a target="_top" xlink:href="dtp-slice0-step2628000-ofs18-col28-cat1.html"><rect style="display:none" class="hcell-act-col28-cat1" fill="#337AB7" stroke="#000" stroke-width="5" width="70" height="60" x="0" y="-65" rx="8" ry="8"/><rect class="hcell-col28-cat1" fill="#337AB7" stroke="#DDD" width="70" height="70" x="0" y="-70" rx="8" ry="8"/><text text-anchor="middle" fill="#FFF" x="35" y="-50">124</text></a><g transform="translate(0,-70)"><g><a target="_top" xlink:href="dtp-slice0-step2628000-ofs18-col28-cat2.html"><rect style="display:none" class="hcell-act-col28-cat2" fill="#D9534F" stroke="#000" stroke-width="5" width="70" height="226" x="0" y="-231" rx="8" ry="8"/><rect class="hcell-col28-cat2" fill="#D9534F" stroke="#DDD" width="70" height="236" x="0" y="-236" rx="8" ry="8"/><text text-anchor="middle" fill="#FFF" x="35" y="-216">417</text></a></g></g></g></g></g></g><rect fill="none" stroke="#DDD" width="70" height="30" rx="8" ry="8" x="805" y="415"/><text text-anchor="middle" fill="#333" x="840" y="435">14-10</text><g transform="translate(805,455)"></g></g><g><g transform="translate(885,405)"><g><a target="_top" xlink:href="dtp-slice0-step2628000-ofs18-col29-cat0.html"><rect style="display:none" class="hcell-act-col29-cat0" fill="#5CB85C" stroke="#000" stroke-width="5" width="70" height="20" x="0" y="-25" rx="8" ry="8"/><rect class="hcell-col29-cat0" fill="#5CB85C" stroke="#DDD" width="70" height="30" x="0" y="-30" rx="8" ry="8"/><text text-anchor="middle" fill="#FFF" x="35" y="-10">29</text></a><g transform="translate(0,-30)"><g><a target="_top" xlink:href="dtp-slice0-step2628000-ofs18-col29-cat1.html"><rect style="display:none" class="hcell-act-col29-cat1" fill="#337AB7" stroke="#000" stroke-width="5" width="70" height="40" x="0" y="-45" rx="8" ry="8"/><rect class="hcell-col29-cat1" fill="#337AB7" stroke="#DDD" width="70" height="50" x="0" y="-50" rx="8" ry="8"/><text text-anchor="middle" fill="#FFF" x="35" y="-30">88</text></a><g transform="translate(0,-50)"><g><a target="_top" xlink:href="dtp-slice0-step2628000-ofs18-col29-cat2.html"><rect style="display:none" class="hcell-act-col29-cat2" fill="#D9534F" stroke="#000" stroke-width="5" width="70" height="144" x="0" y="-149" rx="8" ry="8"/><rect class="hcell-col29-cat2" fill="#D9534F" stroke="#DDD" width="70" height="154" x="0" y="-154" rx="8" ry="8"/><text text-anchor="middle" fill="#FFF" x="35" y="-134">272</text></a></g></g></g></g></g></g><rect fill="none" stroke="#DDD" width="70" height="30" rx="8" ry="8" x="885" y="415"/><text text-anchor="middle" fill="#333" x="920" y="435">14-12</text><g transform="translate(885,455)"></g></g><g><g transform="translate(965,405)"><g><a target="_top" xlink:href="dtp-slice0-step2628000-ofs18-col30-cat0.html"><rect style="display:none" class="hcell-act-col30-cat0" fill="#5CB85C" stroke="#000" stroke-width="5" width="70" height="20" x="0" y="-25" rx="8" ry="8"/><rect class="hcell-col30-cat0" fill="#5CB85C" stroke="#DDD" width="70" height="30" x="0" y="-30" rx="8" ry="8"/><text text-anchor="middle" fill="#FFF" x="35" y="-10">18</text></a><g transform="translate(0,-30)"><g><a target="_top" xlink:href="dtp-slice0-step2628000-ofs18-col30-cat1.html"><rect style="display:none" class="hcell-act-col30-cat1" fill="#337AB7" stroke="#000" stroke-width="5" width="70" height="20" x="0" y="-25" rx="8" ry="8"/><rect class="hcell-col30-cat1" fill="#337AB7" stroke="#DDD" width="70" height="30" x="0" y="-30" rx="8" ry="8"/><text text-anchor="middle" fill="#FFF" x="35" y="-10">47</text></a><g transform="translate(0,-30)"><g><a target="_top" xlink:href="dtp-slice0-step2628000-ofs18-col30-cat2.html"><rect style="display:none" class="hcell-act-col30-cat2" fill="#D9534F" stroke="#000" stroke-width="5" width="70" height="79" x="0" y="-84" rx="8" ry="8"/><rect class="hcell-col30-cat2" fill="#D9534F" stroke="#DDD" width="70" height="89" x="0" y="-89" rx="8" ry="8"/><text text-anchor="middle" fill="#FFF" x="35" y="-69">157</text></a></g></g></g></g></g></g><rect fill="none" stroke="#DDD" width="70" height="30" rx="8" ry="8" x="965" y="415"/><text text-anchor="middle" fill="#333" x="1000" y="435">14-12</text><g transform="translate(965,455)"></g></g><g><g transform="translate(1045,405)"><g><a target="_top" xlink:href="dtp-slice0-step2628000-ofs18-col31-cat0.html"><rect style="display:none" class="hcell-act-col31-cat0" fill="#5CB85C" stroke="#000" stroke-width="5" width="70" height="20" x="0" y="-25" rx="8" ry="8"/><rect class="hcell-col31-cat0" fill="#5CB85C" stroke="#DDD" width="70" height="30" x="0" y="-30" rx="8" ry="8"/><text text-anchor="middle" fill="#FFF" x="35" y="-10">26</text></a><g transform="translate(0,-30)"><g><a target="_top" xlink:href="dtp-slice0-step2628000-ofs18-col31-cat1.html"><rect style="display:none" class="hcell-act-col31-cat1" fill="#337AB7" stroke="#000" stroke-width="5" width="70" height="44" x="0" y="-49" rx="8" ry="8"/><rect class="hcell-col31-cat1" fill="#337AB7" stroke="#DDD" width="70" height="54" x="0" y="-54" rx="8" ry="8"/><text text-anchor="middle" fill="#FFF" x="35" y="-34">95</text></a><g transform="translate(0,-54)"><g><a target="_top" xlink:href="dtp-slice0-step2628000-ofs18-col31-cat2.html"><rect style="display:none" class="hcell-act-col31-cat2" fill="#D9534F" stroke="#000" stroke-width="5" width="70" height="206" x="0" y="-211" rx="8" ry="8"/><rect class="hcell-col31-cat2" fill="#D9534F" stroke="#DDD" width="70" height="216" x="0" y="-216" rx="8" ry="8"/><text text-anchor="middle" fill="#FFF" x="35" y="-196">381</text></a></g></g></g></g></g></g><rect fill="none" stroke="#DDD" width="70" height="30" rx="8" ry="8" x="1045" y="415"/><text text-anchor="middle" fill="#333" x="1080" y="435">15-01</text><g transform="translate(1045,455)"></g></g><g><g transform="translate(1125,405)"><g><a target="_top" xlink:href="dtp-slice0-step2628000-ofs18-col32-cat0.html"><rect style="display:none" class="hcell-act-col32-cat0" fill="#5CB85C" stroke="#000" stroke-width="5" width="70" height="20" x="0" y="-25" rx="8" ry="8"/><rect class="hcell-col32-cat0" fill="#5CB85C" stroke="#DDD" width="70" height="30" x="0" y="-30" rx="8" ry="8"/><text text-anchor="middle" fill="#FFF" x="35" y="-10">8</text></a><g transform="translate(0,-30)"><g><a target="_top" xlink:href="dtp-slice0-step2628000-ofs18-col32-cat1.html"><rect style="display:none" class="hcell-act-col32-cat1" fill="#337AB7" stroke="#000" stroke-width="5" width="70" height="20" x="0" y="-25" rx="8" ry="8"/><rect class="hcell-col32-cat1" fill="#337AB7" stroke="#DDD" width="70" height="30" x="0" y="-30" rx="8" ry="8"/><text text-anchor="middle" fill="#FFF" x="35" y="-10">44</text></a><g transform="translate(0,-30)"><g><a target="_top" xlink:href="dtp-slice0-step2628000-ofs18-col32-cat2.html"><rect style="display:none" class="hcell-act-col32-cat2" fill="#D9534F" stroke="#000" stroke-width="5" width="70" height="80" x="0" y="-85" rx="8" ry="8"/><rect class="hcell-col32-cat2" fill="#D9534F" stroke="#DDD" width="70" height="90" x="0" y="-90" rx="8" ry="8"/><text text-anchor="middle" fill="#FFF" x="35" y="-70">159</text></a></g></g></g></g></g></g><rect fill="none" stroke="#DDD" width="70" height="30" rx="8" ry="8" x="1125" y="415"/><text text-anchor="middle" fill="#333" x="1160" y="435">15-03</text><g transform="translate(1125,455)"></g></g><g><g transform="translate(1205,405)"><g><a target="_top" xlink:href="dtp-slice0-step2628000-ofs18-col33-cat0.html"><rect style="display:none" class="hcell-act-col33-cat0" fill="#5CB85C" stroke="#000" stroke-width="5" width="70" height="20" x="0" y="-25" rx="8" ry="8"/><rect class="hcell-col33-cat0" fill="#5CB85C" stroke="#DDD" width="70" height="30" x="0" y="-30" rx="8" ry="8"/><text text-anchor="middle" fill="#FFF" x="35" y="-10">38</text></a><g transform="translate(0,-30)"><g><a target="_top" xlink:href="dtp-slice0-step2628000-ofs18-col33-cat1.html"><rect style="display:none" class="hcell-act-col33-cat1" fill="#337AB7" stroke="#000" stroke-width="5" width="70" height="88" x="0" y="-93" rx="8" ry="8"/><rect class="hcell-col33-cat1" fill="#337AB7" stroke="#DDD" width="70" height="98" x="0" y="-98" rx="8" ry="8"/><text text-anchor="middle" fill="#FFF" x="35" y="-78">173</text></a><g transform="translate(0,-98)"><g><a target="_top" xlink:href="dtp-slice0-step2628000-ofs18-col33-cat2.html"><rect style="display:none" class="hcell-act-col33-cat2" fill="#D9534F" stroke="#000" stroke-width="5" width="70" height="217" x="0" y="-222" rx="8" ry="8"/><rect class="hcell-col33-cat2" fill="#D9534F" stroke="#DDD" width="70" height="227" x="0" y="-227" rx="8" ry="8"/><text text-anchor="middle" fill="#FFF" x="35" y="-207">401</text></a></g></g></g></g></g></g><rect fill="none" stroke="#DDD" width="70" height="30" rx="8" ry="8" x="1205" y="415"/><text text-anchor="middle" fill="#333" x="1240" y="435">15-04</text><g transform="translate(1205,455)"></g></g></svg>