<svg xmlns="http://www.w3.org/2000/svg" xmlns:xlink="http://www.w3.org/1999/xlink" width="100%" height="100%" viewBox="0 0 1280 459"><g><g transform="translate(5,186)"><g><a target="_top" xlink:href="dtp-sliceTagOther-step2628000-ofs2-col2-cat0.html"><rect style="display:none" class="hcell-act-col2-cat0" fill="#777" stroke="#000" stroke-width="5" width="70" height="94" x="0" y="-99" rx="8" ry="8"/><rect class="hcell-col2-cat0" fill="#777" stroke="#DDD" width="70" height="104" x="0" y="-104" rx="8" ry="8"/><text text-anchor="middle" fill="#FFF" x="35" y="-84">3614</text></a></g></g><rect fill="none" stroke="#DDD" width="70" height="30" rx="8" ry="8" x="5" y="196"/><text text-anchor="middle" fill="#333" x="40" y="216">12-08</text><g transform="translate(5,236)"><g><a target="_top" xlink:href="dtp-sliceTagOther-step2628000-ofs2-col2-cat0.html"><rect style="display:none" class="hcell-act-col2-cat0" fill="#777" stroke="#000" stroke-width="5" width="70" height="80" x="0" y="5" rx="8" ry="8"/><rect class="hcell-col2-cat0" fill="#777" stroke="#DDD" width="70" height="90" x="0" y="0" rx="8" ry="8"/><text text-anchor="middle" fill="#FFF" x="35" y="20">-3112</text></a></g></g></g><g><g transform="translate(85,186)"><g><a target="_top" xlink:href="dtp-sliceTagOther-step2628000-ofs2-col3-cat0.html"><rect style="display:none" class="hcell-act-col3-cat0" fill="#777" stroke="#000" stroke-width="5" width="70" height="79" x="0" y="-84" rx="8" ry="8"/><rect class="hcell-col3-cat0" fill="#777" stroke="#DDD" width="70" height="89" x="0" y="-89" rx="8" ry="8"/><text text-anchor="middle" fill="#FFF" x="35" y="-69">3075</text></a></g></g><rect fill="none" stroke="#DDD" width="70" height="30" rx="8" ry="8" x="85" y="196"/><text text-anchor="middle" fill="#333" x="120" y="216">12-10</text><g transform="translate(85,236)"><g><a target="_top" xlink:href="dtp-sliceTagOther-step2628000-ofs2-col3-cat0.html"><rect style="display:none" class="hcell-act-col3-cat0" fill="#777" stroke="#000" stroke-width="5" width="70" height="70" x="0" y="5" rx="8" ry="8"/><rect class="hcell-col3-cat0" fill="#777" stroke="#DDD" width="70" height="80" x="0" y="0" rx="8" ry="8"/><text text-anchor="middle" fill="#FFF" x="35" y="20">-2784</text></a></g></g></g><g><g transform="translate(165,186)"><g><a target="_top" xlink:href="dtp-sliceTagOther-step2628000-ofs2-col4-cat0.html"><rect style="display:none" class="hcell-act-col4-cat0" fill="#777" stroke="#000" stroke-width="5" width="70" height="160" x="0" y="-165" rx="8" ry="8"/><rect class="hcell-col4-cat0" fill="#777" stroke="#DDD" width="70" height="170" x="0" y="-170" rx="8" ry="8"/><text text-anchor="middle" fill="#FFF" x="35" y="-150">5861</text></a></g></g><rect fill="none" stroke="#DDD" width="70" height="30" rx="8" ry="8" x="165" y="196"/><text text-anchor="middle" fill="#333" x="200" y="216">12-10</text><g transform="translate(165,236)"><g><a target="_top" xlink:href="dtp-sliceTagOther-step2628000-ofs2-col4-cat0.html"><rect style="display:none" class="hcell-act-col4-cat0" fill="#777" stroke="#000" stroke-width="5" width="70" height="105" x="0" y="5" rx="8" ry="8"/><rect class="hcell-col4-cat0" fill="#777" stroke="#DDD" width="70" height="115" x="0" y="0" rx="8" ry="8"/><text text-anchor="middle" fill="#FFF" x="35" y="20">-3989</text></a></g></g></g><g><g transform="translate(245,186)"><g><a target="_top" xlink:href="dtp-sliceTagOther-step2628000-ofs2-col5-cat0.html"><rect style="display:none" class="hcell-act-col5-cat0" fill="#777" stroke="#000" stroke-width="5" width="70" height="84" x="0" y="-89" rx="8" ry="8"/><rect class="hcell-col5-cat0" fill="#777" stroke="#DDD" width="70" height="94" x="0" y="-94" rx="8" ry="8"/><text text-anchor="middle" fill="#FFF" x="35" y="-74">3269</text></a></g></g><rect fill="none" stroke="#DDD" width="70" height="30" rx="8" ry="8" x="245" y="196"/><text text-anchor="middle" fill="#333" x="280" y="216">12-12</text><g transform="translate(245,236)"><g><a target="_top" xlink:href="dtp-sliceTagOther-step2628000-ofs2-col5-cat0.html"><rect style="display:none" class="hcell-act-col5-cat0" fill="#777" stroke="#000" stroke-width="5" width="70" height="77" x="0" y="5" rx="8" ry="8"/><rect class="hcell-col5-cat0" fill="#777" stroke="#DDD" width="70" height="87" x="0" y="0" rx="8" ry="8"/><text text-anchor="middle" fill="#FFF" x="35" y="20">-2997</text></a></g></g></g><g><g transform="translate(325,186)"><g><a target="_top" xlink:href="dtp-sliceTagOther-step2628000-ofs2-col6-cat0.html"><rect style="display:none" class="hcell-act-col6-cat0" fill="#777" stroke="#000" stroke-width="5" width="70" height="82" x="0" y="-87" rx="8" ry="8"/><rect class="hcell-col6-cat0" fill="#777" stroke="#DDD" width="70" height="92" x="0" y="-92" rx="8" ry="8"/><text text-anchor="middle" fill="#FFF" x="35" y="-72">3174</text></a></g></g><rect fill="none" stroke="#DDD" width="70" height="30" rx="8" ry="8" x="325" y="196"/><text text-anchor="middle" fill="#333" x="360" y="216">12-12</text><g transform="translate(325,236)"><g><a target="_top" xlink:href="dtp-sliceTagOther-step2628000-ofs2-col6-cat0.html"><rect style="display:none" class="hcell-act-col6-cat0" fill="#777" stroke="#000" stroke-width="5" width="70" height="72" x="0" y="5" rx="8" ry="8"/><rect class="hcell-col6-cat0" fill="#777" stroke="#DDD" width="70" height="82" x="0" y="0" rx="8" ry="8"/><text text-anchor="middle" fill="#FFF" x="35" y="20">-2858</text></a></g></g></g><g><g transform="translate(405,186)"><g><a target="_top" xlink:href="dtp-sliceTagOther-step2628000-ofs2-col7-cat0.html"><rect style="display:none" class="hcell-act-col7-cat0" fill="#777" stroke="#000" stroke-width="5" width="70" height="83" x="0" y="-88" rx="8" ry="8"/><rect class="hcell-col7-cat0" fill="#777" stroke="#DDD" width="70" height="93" x="0" y="-93" rx="8" ry="8"/><text text-anchor="middle" fill="#FFF" x="35" y="-73">3205</text></a></g></g><rect fill="none" stroke="#DDD" width="70" height="30" rx="8" ry="8" x="405" y="196"/><text text-anchor="middle" fill="#333" x="440" y="216">13-01</text><g transform="translate(405,236)"><g><a target="_top" xlink:href="dtp-sliceTagOther-step2628000-ofs2-col7-cat0.html"><rect style="display:none" class="hcell-act-col7-cat0" fill="#777" stroke="#000" stroke-width="5" width="70" height="59" x="0" y="5" rx="8" ry="8"/><rect class="hcell-col7-cat0" fill="#777" stroke="#DDD" width="70" height="69" x="0" y="0" rx="8" ry="8"/><text text-anchor="middle" fill="#FFF" x="35" y="20">-2377</text></a></g></g></g><g><g transform="translate(485,186)"><g><a target="_top" xlink:href="dtp-sliceTagOther-step2628000-ofs2-col8-cat0.html"><rect style="display:none" class="hcell-act-col8-cat0" fill="#777" stroke="#000" stroke-width="5" width="70" height="171" x="0" y="-176" rx="8" ry="8"/><rect class="hcell-col8-cat0" fill="#777" stroke="#DDD" width="70" height="181" x="0" y="-181" rx="8" ry="8"/><text text-anchor="middle" fill="#FFF" x="35" y="-161">6244</text></a></g></g><rect fill="none" stroke="#DDD" width="70" height="30" rx="8" ry="8" x="485" y="196"/><text text-anchor="middle" fill="#333" x="520" y="216">13-03</text><g transform="translate(485,236)"><g><a target="_top" xlink:href="dtp-sliceTagOther-step2628000-ofs2-col8-cat0.html"><rect style="display:none" class="hcell-act-col8-cat0" fill="#777" stroke="#000" stroke-width="5" width="70" height="115" x="0" y="5" rx="8" ry="8"/><rect class="hcell-col8-cat0" fill="#777" stroke="#DDD" width="70" height="125" x="0" y="0" rx="8" ry="8"/><text text-anchor="middle" fill="#FFF" x="35" y="20">-4319</text></a></g></g></g><g><g transform="translate(565,186)"><g><a target="_top" xlink:href="dtp-sliceTagOther-step2628000-ofs2-col9-cat0.html"><rect style="display:none" class="hcell-act-col9-cat0" fill="#777" stroke="#000" stroke-width="5" width="70" height="116" x="0" y="-121" rx="8" ry="8"/><rect class="hcell-col9-cat0" fill="#777" stroke="#DDD" width="70" height="126" x="0" y="-126" rx="8" ry="8"/><text text-anchor="middle" fill="#FFF" x="35" y="-106">4365</text></a></g></g><rect fill="none" stroke="#DDD" width="70" height="30" rx="8" ry="8" x="565" y="196"/><text text-anchor="middle" fill="#333" x="600" y="216">13-04</text><g transform="translate(565,236)"><g><a target="_top" xlink:href="dtp-sliceTagOther-step2628000-ofs2-col9-cat0.html"><rect style="display:none" class="hcell-act-col9-cat0" fill="#777" stroke="#000" stroke-width="5" width="70" height="105" x="0" y="5" rx="8" ry="8"/><rect class="hcell-col9-cat0" fill="#777" stroke="#DDD" width="70" height="115" x="0" y="0" rx="8" ry="8"/><text text-anchor="middle" fill="#FFF" x="35" y="20">-3989</text></a></g></g></g><g><g transform="translate(645,186)"><g><a target="_top" xlink:href="dtp-sliceTagOther-step2628000-ofs2-col10-cat0.html"><rect style="display:none" class="hcell-act-col10-cat0" fill="#777" stroke="#000" stroke-width="5" width="70" height="111" x="0" y="-116" rx="8" ry="8"/><rect class="hcell-col10-cat0" fill="#777" stroke="#DDD" width="70" height="121" x="0" y="-121" rx="8" ry="8"/><text text-anchor="middle" fill="#FFF" x="35" y="-101">4184</text></a></g></g><rect fill="none" stroke="#DDD" width="70" height="30" rx="8" ry="8" x="645" y="196"/><text text-anchor="middle" fill="#333" x="680" y="216">13-05</text><g transform="translate(645,236)"><g><a target="_top" xlink:href="dtp-sliceTagOther-step2628000-ofs2-col10-cat0.html"><rect style="display:none" class="hcell-act-col10-cat0" fill="#777" stroke="#000" stroke-width="5" width="70" height="102" x="0" y="5" rx="8" ry="8"/><rect class="hcell-col10-cat0" fill="#777" stroke="#DDD" width="70" height="112" x="0" y="0" rx="8" ry="8"/><text text-anchor="middle" fill="#FFF" x="35" y="20">-3867</text></a></g></g></g><g><g transform="translate(725,186)"><g><a target="_top" xlink:href="dtp-sliceTagOther-step2628000-ofs2-col11-cat0.html"><rect style="display:none" class="hcell-act-col11-cat0" fill="#777" stroke="#000" stroke-width="5" width="70" height="100" x="0" y="-105" rx="8" ry="8"/><rect class="hcell-col11-cat0" fill="#777" stroke="#DDD" width="70" height="110" x="0" y="-110" rx="8" ry="8"/><text text-anchor="middle" fill="#FFF" x="35" y="-90">3815</text></a></g></g><rect fill="none" stroke="#DDD" width="70" height="30" rx="8" ry="8" x="725" y="196"/><text text-anchor="middle" fill="#333" x="760" y="216">13-06</text><g transform="translate(725,236)"><g><a target="_top" xlink:href="dtp-sliceTagOther-step2628000-ofs2-col11-cat0.html"><rect style="display:none" class="hcell-act-col11-cat0" fill="#777" stroke="#000" stroke-width="5" width="70" height="89" x="0" y="5" rx="8" ry="8"/><rect class="hcell-col11-cat0" fill="#777" stroke="#DDD" width="70" height="99" x="0" y="0" rx="8" ry="8"/><text text-anchor="middle" fill="#FFF" x="35" y="20">-3425</text></a></g></g></g><g><g transform="translate(805,186)"><g><a target="_top" xlink:href="dtp-sliceTagOther-step2628000-ofs2-col12-cat0.html"><rect style="display:none" class="hcell-act-col12-cat0" fill="#777" stroke="#000" stroke-width="5" width="70" height="97" x="0" y="-102" rx="8" ry="8"/><rect class="hcell-col12-cat0" fill="#777" stroke="#DDD" width="70" height="107" x="0" y="-107" rx="8" ry="8"/><text text-anchor="middle" fill="#FFF" x="35" y="-87">3697</text></a></g></g><rect fill="none" stroke="#DDD" width="70" height="30" rx="8" ry="8" x="805" y="196"/><text text-anchor="middle" fill="#333" x="840" y="216">13-07</text><g transform="translate(805,236)"><g><a target="_top" xlink:href="dtp-sliceTagOther-step2628000-ofs2-col12-cat0.html"><rect style="display:none" class="hcell-act-col12-cat0" fill="#777" stroke="#000" stroke-width="5" width="70" height="208" x="0" y="5" rx="8" ry="8"/><rect class="hcell-col12-cat0" fill="#777" stroke="#DDD" width="70" height="218" x="0" y="0" rx="8" ry="8"/><text text-anchor="middle" fill="#FFF" x="35" y="20">-7528</text></a></g></g></g><g><g transform="translate(885,186)"><g><a target="_top" xlink:href="dtp-sliceTagOther-step2628000-ofs2-col13-cat0.html"><rect style="display:none" class="hcell-act-col13-cat0" fill="#777" stroke="#000" stroke-width="5" width="70" height="80" x="0" y="-85" rx="8" ry="8"/><rect class="hcell-col13-cat0" fill="#777" stroke="#DDD" width="70" height="90" x="0" y="-90" rx="8" ry="8"/><text text-anchor="middle" fill="#FFF" x="35" y="-70">3113</text></a></g></g><rect fill="none" stroke="#DDD" width="70" height="30" rx="8" ry="8" x="885" y="196"/><text text-anchor="middle" fill="#333" x="920" y="216">13-08</text><g transform="translate(885,236)"><g><a target="_top" xlink:href="dtp-sliceTagOther-step2628000-ofs2-col13-cat0.html"><rect style="display:none" class="hcell-act-col13-cat0" fill="#777" stroke="#000" stroke-width="5" width="70" height="72" x="0" y="5" rx="8" ry="8"/><rect class="hcell-col13-cat0" fill="#777" stroke="#DDD" width="70" height="82" x="0" y="0" rx="8" ry="8"/><text text-anchor="middle" fill="#FFF" x="35" y="20">-2843</text></a></g></g></g><g><g transform="translate(965,186)"><g><a target="_top" xlink:href="dtp-sliceTagOther-step2628000-ofs2-col14-cat0.html"><rect style="display:none" class="hcell-act-col14-cat0" fill="#777" stroke="#000" stroke-width="5" width="70" height="70" x="0" y="-75" rx="8" ry="8"/><rect class="hcell-col14-cat0" fill="#777" stroke="#DDD" width="70" height="80" x="0" y="-80" rx="8" ry="8"/><text text-anchor="middle" fill="#FFF" x="35" y="-60">2770</text></a></g></g><rect fill="none" stroke="#DDD" width="70" height="30" rx="8" ry="8" x="965" y="196"/><text text-anchor="middle" fill="#333" x="1000" y="216">13-08</text><g transform="translate(965,236)"><g><a target="_top" xlink:href="dtp-sliceTagOther-step2628000-ofs2-col14-cat0.html"><rect style="display:none" class="hcell-act-col14-cat0" fill="#777" stroke="#000" stroke-width="5" width="70" height="49" x="0" y="5" rx="8" ry="8"/><rect class="hcell-col14-cat0" fill="#777" stroke="#DDD" width="70" height="59" x="0" y="0" rx="8" ry="8"/><text text-anchor="middle" fill="#FFF" x="35" y="20">-2059</text></a></g></g></g><g><g transform="translate(1045,186)"><g><a target="_top" xlink:href="dtp-sliceTagOther-step2628000-ofs2-col15-cat0.html"><rect style="display:none" class="hcell-act-col15-cat0" fill="#777" stroke="#000" stroke-width="5" width="70" height="81" x="0" y="-86" rx="8" ry="8"/><rect class="hcell-col15-cat0" fill="#777" stroke="#DDD" width="70" height="91" x="0" y="-91" rx="8" ry="8"/><text text-anchor="middle" fill="#FFF" x="35" y="-71">3146</text></a></g></g><rect fill="none" stroke="#DDD" width="70" height="30" rx="8" ry="8" x="1045" y="196"/><text text-anchor="middle" fill="#333" x="1080" y="216">13-10</text><g transform="translate(1045,236)"><g><a target="_top" xlink:href="dtp-sliceTagOther-step2628000-ofs2-col15-cat0.html"><rect style="display:none" class="hcell-act-col15-cat0" fill="#777" stroke="#000" stroke-width="5" width="70" height="63" x="0" y="5" rx="8" ry="8"/><rect class="hcell-col15-cat0" fill="#777" stroke="#DDD" width="70" height="73" x="0" y="0" rx="8" ry="8"/><text text-anchor="middle" fill="#FFF" x="35" y="20">-2528</text></a></g></g></g><g><g transform="translate(1125,186)"><g><a target="_top" xlink:href="dtp-sliceTagOther-step2628000-ofs2-col16-cat0.html"><rect style="display:none" class="hcell-act-col16-cat0" fill="#777" stroke="#000" stroke-width="5" width="70" height="139" x="0" y="-144" rx="8" ry="8"/><rect class="hcell-col16-cat0" fill="#777" stroke="#DDD" width="70" height="149" x="0" y="-149" rx="8" ry="8"/><text text-anchor="middle" fill="#FFF" x="35" y="-129">5130</text></a></g></g><rect fill="none" stroke="#DDD" width="70" height="30" rx="8" ry="8" x="1125" y="196"/><text text-anchor="middle" fill="#333" x="1160" y="216">13-10</text><g transform="translate(1125,236)"><g><a target="_top" xlink:href="dtp-sliceTagOther-step2628000-ofs2-col16-cat0.html"><rect style="display:none" class="hcell-act-col16-cat0" fill="#777" stroke="#000" stroke-width="5" width="70" height="129" x="0" y="5" rx="8" ry="8"/><rect class="hcell-col16-cat0" fill="#777" stroke="#DDD" width="70" height="139" x="0" y="0" rx="8" ry="8"/><text text-anchor="middle" fill="#FFF" x="35" y="20">-4799</text></a></g></g></g><g><g transform="translate(1205,186)"><g><a target="_top" xlink:href="dtp-sliceTagOther-step2628000-ofs2-col17-cat0.html"><rect style="display:none" class="hcell-act-col17-cat0" fill="#777" stroke="#000" stroke-width="5" width="70" height="95" x="0" y="-100" rx="8" ry="8"/><rect class="hcell-col17-cat0" fill="#777" stroke="#DDD" width="70" height="105" x="0" y="-105" rx="8" ry="8"/><text text-anchor="middle" fill="#FFF" x="35" y="-85">3637</text></a></g></g><rect fill="none" stroke="#DDD" width="70" height="30" rx="8" ry="8" x="1205" y="196"/><text text-anchor="middle" fill="#333" x="1240" y="216">13-12</text><g transform="translate(1205,236)"><g><a target="_top" xlink:href="dtp-sliceTagOther-step2628000-ofs2-col17-cat0.html"><rect style="display:none" class="hcell-act-col17-cat0" fill="#777" stroke="#000" stroke-width="5" width="70" height="94" x="0" y="5" rx="8" ry="8"/><rect class="hcell-col17-cat0" fill="#777" stroke="#DDD" width="70" height="104" x="0" y="0" rx="8" ry="8"/><text text-anchor="middle" fill="#FFF" x="35" y="20">-3592</text></a></g></g></g></svg>