<svg xmlns="http://www.w3.org/2000/svg" xmlns:xlink="http://www.w3.org/1999/xlink" width="100%" height="100%" viewBox="0 0 1280 460"><g><g transform="translate(5,5)"></g><rect fill="none" stroke="#DDD" width="70" height="30" rx="8" ry="8" x="5" y="15"/><text text-anchor="middle" fill="#333" x="40" y="35">12-07</text><g transform="translate(5,55)"><g><a target="_top" xlink:href="dtp-slice1-step2628000-ofs0-col0-cat0.html"><rect style="display:none" class="hcell-act-col0-cat0" fill="#337AB7" stroke="#000" stroke-width="5" width="70" height="230" x="0" y="5" rx="8" ry="8"/><rect class="hcell-col0-cat0" fill="#337AB7" stroke="#DDD" width="70" height="240" x="0" y="0" rx="8" ry="8"/><text text-anchor="middle" fill="#FFF" x="35" y="20">-88</text></a></g></g></g><g><g transform="translate(85,5)"></g><rect fill="none" stroke="#DDD" width="70" height="30" rx="8" ry="8" x="85" y="15"/><text text-anchor="middle" fill="#333" x="120" y="35">12-08</text><g transform="translate(85,55)"><g><a target="_top" xlink:href="dtp-slice1-step2628000-ofs0-col1-cat0.html"><rect style="display:none" class="hcell-act-col1-cat0" fill="#337AB7" stroke="#000" stroke-width="5" width="70" height="148" x="0" y="5" rx="8" ry="8"/><rect class="hcell-col1-cat0" fill="#337AB7" stroke="#DDD" width="70" height="158" x="0" y="0" rx="8" ry="8"/><text text-anchor="middle" fill="#FFF" x="35" y="20">-59</text></a></g></g></g><g><g transform="translate(165,5)"></g><rect fill="none" stroke="#DDD" width="70" height="30" rx="8" ry="8" x="165" y="15"/><text text-anchor="middle" fill="#333" x="200" y="35">12-08</text><g transform="translate(165,55)"><g><a target="_top" xlink:href="dtp-slice1-step2628000-ofs0-col2-cat0.html"><rect style="display:none" class="hcell-act-col2-cat0" fill="#337AB7" stroke="#000" stroke-width="5" width="70" height="273" x="0" y="5" rx="8" ry="8"/><rect class="hcell-col2-cat0" fill="#337AB7" stroke="#DDD" width="70" height="283" x="0" y="0" rx="8" ry="8"/><text text-anchor="middle" fill="#FFF" x="35" y="20">-104</text></a></g></g></g><g><g transform="translate(245,5)"></g><rect fill="none" stroke="#DDD" width="70" height="30" rx="8" ry="8" x="245" y="15"/><text text-anchor="middle" fill="#333" x="280" y="35">12-10</text><g transform="translate(245,55)"><g><a target="_top" xlink:href="dtp-slice1-step2628000-ofs0-col3-cat0.html"><rect style="display:none" class="hcell-act-col3-cat0" fill="#337AB7" stroke="#000" stroke-width="5" width="70" height="283" x="0" y="5" rx="8" ry="8"/><rect class="hcell-col3-cat0" fill="#337AB7" stroke="#DDD" width="70" height="293" x="0" y="0" rx="8" ry="8"/><text text-anchor="middle" fill="#FFF" x="35" y="20">-108</text></a></g></g></g><g><g transform="translate(325,5)"></g><rect fill="none" stroke="#DDD" width="70" height="30" rx="8" ry="8" x="325" y="15"/><text text-anchor="middle" fill="#333" x="360" y="35">12-10</text><g transform="translate(325,55)"><g><a target="_top" xlink:href="dtp-slice1-step2628000-ofs0-col4-cat0.html"><rect style="display:none" class="hcell-act-col4-cat0" fill="#337AB7" stroke="#000" stroke-width="5" width="70" height="299" x="0" y="5" rx="8" ry="8"/><rect class="hcell-col4-cat0" fill="#337AB7" stroke="#DDD" width="70" height="309" x="0" y="0" rx="8" ry="8"/><text text-anchor="middle" fill="#FFF" x="35" y="20">-113</text></a></g></g></g><g><g transform="translate(405,5)"></g><rect fill="none" stroke="#DDD" width="70" height="30" rx="8" ry="8" x="405" y="15"/><text text-anchor="middle" fill="#333" x="440" y="35">12-12</text><g transform="translate(405,55)"><g><a target="_top" xlink:href="dtp-slice1-step2628000-ofs0-col5-cat0.html"><rect style="display:none" class="hcell-act-col5-cat0" fill="#337AB7" stroke="#000" stroke-width="5" width="70" height="323" x="0" y="5" rx="8" ry="8"/><rect class="hcell-col5-cat0" fill="#337AB7" stroke="#DDD" width="70" height="333" x="0" y="0" rx="8" ry="8"/><text text-anchor="middle" fill="#FFF" x="35" y="20">-122</text></a></g></g></g><g><g transform="translate(485,5)"></g><rect fill="none" stroke="#DDD" width="70" height="30" rx="8" ry="8" x="485" y="15"/><text text-anchor="middle" fill="#333" x="520" y="35">12-12</text><g transform="translate(485,55)"><g><a target="_top" xlink:href="dtp-slice1-step2628000-ofs0-col6-cat0.html"><rect style="display:none" class="hcell-act-col6-cat0" fill="#337AB7" stroke="#000" stroke-width="5" width="70" height="345" x="0" y="5" rx="8" ry="8"/><rect class="hcell-col6-cat0" fill="#337AB7" stroke="#DDD" width="70" height="355" x="0" y="0" rx="8" ry="8"/><text text-anchor="middle" fill="#FFF" x="35" y="20">-130</text></a></g></g></g><g><g transform="translate(565,5)"></g><rect fill="none" stroke="#DDD" width="70" height="30" rx="8" ry="8" x="565" y="15"/><text text-anchor="middle" fill="#333" x="600" y="35">13-01</text><g transform="translate(565,55)"><g><a target="_top" xlink:href="dtp-slice1-step2628000-ofs0-col7-cat0.html"><rect style="display:none" class="hcell-act-col7-cat0" fill="#337AB7" stroke="#000" stroke-width="5" width="70" height="309" x="0" y="5" rx="8" ry="8"/><rect class="hcell-col7-cat0" fill="#337AB7" stroke="#DDD" width="70" height="319" x="0" y="0" rx="8" ry="8"/><text text-anchor="middle" fill="#FFF" x="35" y="20">-117</text></a></g></g></g><g><g transform="translate(645,5)"></g><rect fill="none" stroke="#DDD" width="70" height="30" rx="8" ry="8" x="645" y="15"/><text text-anchor="middle" fill="#333" x="680" y="35">13-03</text><g transform="translate(645,55)"><g><a target="_top" xlink:href="dtp-slice1-step2628000-ofs0-col8-cat0.html"><rect style="display:none" class="hcell-act-col8-cat0" fill="#337AB7" stroke="#000" stroke-width="5" width="70" height="251" x="0" y="5" rx="8" ry="8"/><rect class="hcell-col8-cat0" fill="#337AB7" stroke="#DDD" width="70" height="261" x="0" y="0" rx="8" ry="8"/><text text-anchor="middle" fill="#FFF" x="35" y="20">-96</text></a></g></g></g><g><g transform="translate(725,5)"></g><rect fill="none" stroke="#DDD" width="70" height="30" rx="8" ry="8" x="725" y="15"/><text text-anchor="middle" fill="#333" x="760" y="35">13-04</text><g transform="translate(725,55)"><g><a target="_top" xlink:href="dtp-slice1-step2628000-ofs0-col9-cat0.html"><rect style="display:none" class="hcell-act-col9-cat0" fill="#337AB7" stroke="#000" stroke-width="5" width="70" height="281" x="0" y="5" rx="8" ry="8"/><rect class="hcell-col9-cat0" fill="#337AB7" stroke="#DDD" width="70" height="291" x="0" y="0" rx="8" ry="8"/><text text-anchor="middle" fill="#FFF" x="35" y="20">-107</text></a></g></g></g><g><g transform="translate(805,5)"></g><rect fill="none" stroke="#DDD" width="70" height="30" rx="8" ry="8" x="805" y="15"/><text text-anchor="middle" fill="#333" x="840" y="35">13-05</text><g transform="translate(805,55)"><g><a target="_top" xlink:href="dtp-slice1-step2628000-ofs0-col10-cat0.html"><rect style="display:none" class="hcell-act-col10-cat0" fill="#337AB7" stroke="#000" stroke-width="5" width="70" height="217" x="0" y="5" rx="8" ry="8"/><rect class="hcell-col10-cat0" fill="#337AB7" stroke="#DDD" width="70" height="227" x="0" y="0" rx="8" ry="8"/><text text-anchor="middle" fill="#FFF" x="35" y="20">-84</text></a></g></g></g><g><g transform="translate(885,5)"></g><rect fill="none" stroke="#DDD" width="70" height="30" rx="8" ry="8" x="885" y="15"/><text text-anchor="middle" fill="#333" x="920" y="35">13-06</text><g transform="translate(885,55)"><g><a target="_top" xlink:href="dtp-slice1-step2628000-ofs0-col11-cat0.html"><rect style="display:none" class="hcell-act-col11-cat0" fill="#337AB7" stroke="#000" stroke-width="5" width="70" height="202" x="0" y="5" rx="8" ry="8"/><rect class="hcell-col11-cat0" fill="#337AB7" stroke="#DDD" width="70" height="212" x="0" y="0" rx="8" ry="8"/><text text-anchor="middle" fill="#FFF" x="35" y="20">-78</text></a></g></g></g><g><g transform="translate(965,5)"></g><rect fill="none" stroke="#DDD" width="70" height="30" rx="8" ry="8" x="965" y="15"/><text text-anchor="middle" fill="#333" x="1000" y="35">13-07</text><g transform="translate(965,55)"><g><a target="_top" xlink:href="dtp-slice1-step2628000-ofs0-col12-cat0.html"><rect style="display:none" class="hcell-act-col12-cat0" fill="#337AB7" stroke="#000" stroke-width="5" width="70" height="317" x="0" y="5" rx="8" ry="8"/><rect class="hcell-col12-cat0" fill="#337AB7" stroke="#DDD" width="70" height="327" x="0" y="0" rx="8" ry="8"/><text text-anchor="middle" fill="#FFF" x="35" y="20">-120</text></a></g></g></g><g><g transform="translate(1045,5)"></g><rect fill="none" stroke="#DDD" width="70" height="30" rx="8" ry="8" x="1045" y="15"/><text text-anchor="middle" fill="#333" x="1080" y="35">13-08</text><g transform="translate(1045,55)"><g><a target="_top" xlink:href="dtp-slice1-step2628000-ofs0-col13-cat0.html"><rect style="display:none" class="hcell-act-col13-cat0" fill="#337AB7" stroke="#000" stroke-width="5" width="70" height="276" x="0" y="5" rx="8" ry="8"/><rect class="hcell-col13-cat0" fill="#337AB7" stroke="#DDD" width="70" height="286" x="0" y="0" rx="8" ry="8"/><text text-anchor="middle" fill="#FFF" x="35" y="20">-105</text></a></g></g></g><g><g transform="translate(1125,5)"></g><rect fill="none" stroke="#DDD" width="70" height="30" rx="8" ry="8" x="1125" y="15"/><text text-anchor="middle" fill="#333" x="1160" y="35">13-08</text><g transform="translate(1125,55)"><g><a target="_top" xlink:href="dtp-slice1-step2628000-ofs0-col14-cat0.html"><rect style="display:none" class="hcell-act-col14-cat0" fill="#337AB7" stroke="#000" stroke-width="5" width="70" height="98" x="0" y="5" rx="8" ry="8"/><rect class="hcell-col14-cat0" fill="#337AB7" stroke="#DDD" width="70" height="108" x="0" y="0" rx="8" ry="8"/><text text-anchor="middle" fill="#FFF" x="35" y="20">-40</text></a></g></g></g><g><g transform="translate(1205,5)"></g><rect fill="none" stroke="#DDD" width="70" height="30" rx="8" ry="8" x="1205" y="15"/><text text-anchor="middle" fill="#333" x="1240" y="35">13-10</text><g transform="translate(1205,55)"><g><a target="_top" xlink:href="dtp-slice1-step2628000-ofs0-col15-cat0.html"><rect style="display:none" class="hcell-act-col15-cat0" fill="#337AB7" stroke="#000" stroke-width="5" width="70" height="390" x="0" y="5" rx="8" ry="8"/><rect class="hcell-col15-cat0" fill="#337AB7" stroke="#DDD" width="70" height="400" x="0" y="0" rx="8" ry="8"/><text text-anchor="middle" fill="#FFF" x="35" y="20">-147</text></a></g></g></g></svg>