<svg xmlns="http://www.w3.org/2000/svg" xmlns:xlink="http://www.w3.org/1999/xlink" width="100%" height="100%" viewBox="0 0 1280 483"><g><g transform="translate(5,182)"><g><a target="_top" xlink:href="dtp-slice3-step2628000-ofs18-col18-cat2.html"><rect style="display:none" class="hcell-act-col18-cat2" fill="#D9534F" stroke="#000" stroke-width="5" width="70" height="20" x="0" y="-25" rx="8" ry="8"/><rect class="hcell-col18-cat2" fill="#D9534F" stroke="#DDD" width="70" height="30" x="0" y="-30" rx="8" ry="8"/><text text-anchor="middle" fill="#FFF" x="35" y="-10">360</text></a></g></g><rect fill="none" stroke="#DDD" width="70" height="30" rx="8" ry="8" x="5" y="192"/><text text-anchor="middle" fill="#333" x="40" y="212">13-12</text><g transform="translate(5,232)"><g><a target="_top" xlink:href="dtp-slice3-step2628000-ofs18-col18-cat1.html"><rect style="display:none" class="hcell-act-col18-cat1" fill="#337AB7" stroke="#000" stroke-width="5" width="70" height="20" x="0" y="5" rx="8" ry="8"/><rect class="hcell-col18-cat1" fill="#337AB7" stroke="#DDD" width="70" height="30" x="0" y="0" rx="8" ry="8"/><text text-anchor="middle" fill="#FFF" x="35" y="20">-76</text></a><g transform="translate(0,30)"><g><a target="_top" xlink:href="dtp-slice3-step2628000-ofs18-col18-cat0.html"><rect style="display:none" class="hcell-act-col18-cat0" fill="#5CB85C" stroke="#000" stroke-width="5" width="70" height="20" x="0" y="5" rx="8" ry="8"/><rect class="hcell-col18-cat0" fill="#5CB85C" stroke="#DDD" width="70" height="30" x="0" y="0" rx="8" ry="8"/><text text-anchor="middle" fill="#FFF" x="35" y="20">-434</text></a></g></g></g></g></g><g><g transform="translate(85,182)"><g><a target="_top" xlink:href="dtp-slice3-step2628000-ofs18-col19-cat0.html"><rect style="display:none" class="hcell-act-col19-cat0" fill="#5CB85C" stroke="#000" stroke-width="5" width="70" height="20" x="0" y="-25" rx="8" ry="8"/><rect class="hcell-col19-cat0" fill="#5CB85C" stroke="#DDD" width="70" height="30" x="0" y="-30" rx="8" ry="8"/><text text-anchor="middle" fill="#FFF" x="35" y="-10">258</text></a><g transform="translate(0,-30)"><g><a target="_top" xlink:href="dtp-slice3-step2628000-ofs18-col19-cat2.html"><rect style="display:none" class="hcell-act-col19-cat2" fill="#D9534F" stroke="#000" stroke-width="5" width="70" height="20" x="0" y="-25" rx="8" ry="8"/><rect class="hcell-col19-cat2" fill="#D9534F" stroke="#DDD" width="70" height="30" x="0" y="-30" rx="8" ry="8"/><text text-anchor="middle" fill="#FFF" x="35" y="-10">403</text></a></g></g></g></g><rect fill="none" stroke="#DDD" width="70" height="30" rx="8" ry="8" x="85" y="192"/><text text-anchor="middle" fill="#333" x="120" y="212">14-01</text><g transform="translate(85,232)"><g><a target="_top" xlink:href="dtp-slice3-step2628000-ofs18-col19-cat1.html"><rect style="display:none" class="hcell-act-col19-cat1" fill="#337AB7" stroke="#000" stroke-width="5" width="70" height="20" x="0" y="5" rx="8" ry="8"/><rect class="hcell-col19-cat1" fill="#337AB7" stroke="#DDD" width="70" height="30" x="0" y="0" rx="8" ry="8"/><text text-anchor="middle" fill="#FFF" x="35" y="20">-100</text></a></g></g></g><g><g transform="translate(165,182)"><g><a target="_top" xlink:href="dtp-slice3-step2628000-ofs18-col20-cat2.html"><rect style="display:none" class="hcell-act-col20-cat2" fill="#D9534F" stroke="#000" stroke-width="5" width="70" height="27" x="0" y="-32" rx="8" ry="8"/><rect class="hcell-col20-cat2" fill="#D9534F" stroke="#DDD" width="70" height="37" x="0" y="-37" rx="8" ry="8"/><text text-anchor="middle" fill="#FFF" x="35" y="-17">597</text></a></g></g><rect fill="none" stroke="#DDD" width="70" height="30" rx="8" ry="8" x="165" y="192"/><text text-anchor="middle" fill="#333" x="200" y="212">14-03</text><g transform="translate(165,232)"><g><a target="_top" xlink:href="dtp-slice3-step2628000-ofs18-col20-cat1.html"><rect style="display:none" class="hcell-act-col20-cat1" fill="#337AB7" stroke="#000" stroke-width="5" width="70" height="20" x="0" y="5" rx="8" ry="8"/><rect class="hcell-col20-cat1" fill="#337AB7" stroke="#DDD" width="70" height="30" x="0" y="0" rx="8" ry="8"/><text text-anchor="middle" fill="#FFF" x="35" y="20">-130</text></a><g transform="translate(0,30)"><g><a target="_top" xlink:href="dtp-slice3-step2628000-ofs18-col20-cat0.html"><rect style="display:none" class="hcell-act-col20-cat0" fill="#5CB85C" stroke="#000" stroke-width="5" width="70" height="23" x="0" y="5" rx="8" ry="8"/><rect class="hcell-col20-cat0" fill="#5CB85C" stroke="#DDD" width="70" height="33" x="0" y="0" rx="8" ry="8"/><text text-anchor="middle" fill="#FFF" x="35" y="20">-524</text></a></g></g></g></g></g><g><g transform="translate(245,182)"><g><a target="_top" xlink:href="dtp-slice3-step2628000-ofs18-col21-cat2.html"><rect style="display:none" class="hcell-act-col21-cat2" fill="#D9534F" stroke="#000" stroke-width="5" width="70" height="22" x="0" y="-27" rx="8" ry="8"/><rect class="hcell-col21-cat2" fill="#D9534F" stroke="#DDD" width="70" height="32" x="0" y="-32" rx="8" ry="8"/><text text-anchor="middle" fill="#FFF" x="35" y="-12">515</text></a></g></g><rect fill="none" stroke="#DDD" width="70" height="30" rx="8" ry="8" x="245" y="192"/><text text-anchor="middle" fill="#333" x="280" y="212">14-04</text><g transform="translate(245,232)"><g><a target="_top" xlink:href="dtp-slice3-step2628000-ofs18-col21-cat1.html"><rect style="display:none" class="hcell-act-col21-cat1" fill="#337AB7" stroke="#000" stroke-width="5" width="70" height="20" x="0" y="5" rx="8" ry="8"/><rect class="hcell-col21-cat1" fill="#337AB7" stroke="#DDD" width="70" height="30" x="0" y="0" rx="8" ry="8"/><text text-anchor="middle" fill="#FFF" x="35" y="20">-113</text></a><g transform="translate(0,30)"><g><a target="_top" xlink:href="dtp-slice3-step2628000-ofs18-col21-cat0.html"><rect style="display:none" class="hcell-act-col21-cat0" fill="#5CB85C" stroke="#000" stroke-width="5" width="70" height="206" x="0" y="5" rx="8" ry="8"/><rect class="hcell-col21-cat0" fill="#5CB85C" stroke="#DDD" width="70" height="216" x="0" y="0" rx="8" ry="8"/><text text-anchor="middle" fill="#FFF" x="35" y="20">-3412</text></a></g></g></g></g></g><g><g transform="translate(325,182)"><g><a target="_top" xlink:href="dtp-slice3-step2628000-ofs18-col22-cat2.html"><rect style="display:none" class="hcell-act-col22-cat2" fill="#D9534F" stroke="#000" stroke-width="5" width="70" height="34" x="0" y="-39" rx="8" ry="8"/><rect class="hcell-col22-cat2" fill="#D9534F" stroke="#DDD" width="70" height="44" x="0" y="-44" rx="8" ry="8"/><text text-anchor="middle" fill="#FFF" x="35" y="-24">701</text></a></g></g><rect fill="none" stroke="#DDD" width="70" height="30" rx="8" ry="8" x="325" y="192"/><text text-anchor="middle" fill="#333" x="360" y="212">14-05</text><g transform="translate(325,232)"><g><a target="_top" xlink:href="dtp-slice3-step2628000-ofs18-col22-cat1.html"><rect style="display:none" class="hcell-act-col22-cat1" fill="#337AB7" stroke="#000" stroke-width="5" width="70" height="20" x="0" y="5" rx="8" ry="8"/><rect class="hcell-col22-cat1" fill="#337AB7" stroke="#DDD" width="70" height="30" x="0" y="0" rx="8" ry="8"/><text text-anchor="middle" fill="#FFF" x="35" y="20">-129</text></a><g transform="translate(0,30)"><g><a target="_top" xlink:href="dtp-slice3-step2628000-ofs18-col22-cat0.html"><rect style="display:none" class="hcell-act-col22-cat0" fill="#5CB85C" stroke="#000" stroke-width="5" width="70" height="82" x="0" y="5" rx="8" ry="8"/><rect class="hcell-col22-cat0" fill="#5CB85C" stroke="#DDD" width="70" height="92" x="0" y="0" rx="8" ry="8"/><text text-anchor="middle" fill="#FFF" x="35" y="20">-1460</text></a></g></g></g></g></g><g><g transform="translate(405,182)"><g><a target="_top" xlink:href="dtp-slice3-step2628000-ofs18-col23-cat2.html"><rect style="display:none" class="hcell-act-col23-cat2" fill="#D9534F" stroke="#000" stroke-width="5" width="70" height="20" x="0" y="-25" rx="8" ry="8"/><rect class="hcell-col23-cat2" fill="#D9534F" stroke="#DDD" width="70" height="30" x="0" y="-30" rx="8" ry="8"/><text text-anchor="middle" fill="#FFF" x="35" y="-10">439</text></a></g></g><rect fill="none" stroke="#DDD" width="70" height="30" rx="8" ry="8" x="405" y="192"/><text text-anchor="middle" fill="#333" x="440" y="212">14-06</text><g transform="translate(405,232)"><g><a target="_top" xlink:href="dtp-slice3-step2628000-ofs18-col23-cat1.html"><rect style="display:none" class="hcell-act-col23-cat1" fill="#337AB7" stroke="#000" stroke-width="5" width="70" height="20" x="0" y="5" rx="8" ry="8"/><rect class="hcell-col23-cat1" fill="#337AB7" stroke="#DDD" width="70" height="30" x="0" y="0" rx="8" ry="8"/><text text-anchor="middle" fill="#FFF" x="35" y="20">-68</text></a><g transform="translate(0,30)"><g><a target="_top" xlink:href="dtp-slice3-step2628000-ofs18-col23-cat0.html"><rect style="display:none" class="hcell-act-col23-cat0" fill="#5CB85C" stroke="#000" stroke-width="5" width="70" height="20" x="0" y="5" rx="8" ry="8"/><rect class="hcell-col23-cat0" fill="#5CB85C" stroke="#DDD" width="70" height="30" x="0" y="0" rx="8" ry="8"/><text text-anchor="middle" fill="#FFF" x="35" y="20">-106</text></a></g></g></g></g></g><g><g transform="translate(485,182)"><g><a target="_top" xlink:href="dtp-slice3-step2628000-ofs18-col24-cat2.html"><rect style="display:none" class="hcell-act-col24-cat2" fill="#D9534F" stroke="#000" stroke-width="5" width="70" height="34" x="0" y="-39" rx="8" ry="8"/><rect class="hcell-col24-cat2" fill="#D9534F" stroke="#DDD" width="70" height="44" x="0" y="-44" rx="8" ry="8"/><text text-anchor="middle" fill="#FFF" x="35" y="-24">705</text></a></g></g><rect fill="none" stroke="#DDD" width="70" height="30" rx="8" ry="8" x="485" y="192"/><text text-anchor="middle" fill="#333" x="520" y="212">14-07</text><g transform="translate(485,232)"><g><a target="_top" xlink:href="dtp-slice3-step2628000-ofs18-col24-cat1.html"><rect style="display:none" class="hcell-act-col24-cat1" fill="#337AB7" stroke="#000" stroke-width="5" width="70" height="20" x="0" y="5" rx="8" ry="8"/><rect class="hcell-col24-cat1" fill="#337AB7" stroke="#DDD" width="70" height="30" x="0" y="0" rx="8" ry="8"/><text text-anchor="middle" fill="#FFF" x="35" y="20">-135</text></a><g transform="translate(0,30)"><g><a target="_top" xlink:href="dtp-slice3-step2628000-ofs18-col24-cat0.html"><rect style="display:none" class="hcell-act-col24-cat0" fill="#5CB85C" stroke="#000" stroke-width="5" width="70" height="34" x="0" y="5" rx="8" ry="8"/><rect class="hcell-col24-cat0" fill="#5CB85C" stroke="#DDD" width="70" height="44" x="0" y="0" rx="8" ry="8"/><text text-anchor="middle" fill="#FFF" x="35" y="20">-701</text></a></g></g></g></g></g><g><g transform="translate(565,182)"><g><a target="_top" xlink:href="dtp-slice3-step2628000-ofs18-col25-cat2.html"><rect style="display:none" class="hcell-act-col25-cat2" fill="#D9534F" stroke="#000" stroke-width="5" width="70" height="20" x="0" y="-25" rx="8" ry="8"/><rect class="hcell-col25-cat2" fill="#D9534F" stroke="#DDD" width="70" height="30" x="0" y="-30" rx="8" ry="8"/><text text-anchor="middle" fill="#FFF" x="35" y="-10">444</text></a><g transform="translate(0,-30)"><g><a target="_top" xlink:href="dtp-slice3-step2628000-ofs18-col25-cat0.html"><rect style="display:none" class="hcell-act-col25-cat0" fill="#5CB85C" stroke="#000" stroke-width="5" width="70" height="137" x="0" y="-142" rx="8" ry="8"/><rect class="hcell-col25-cat0" fill="#5CB85C" stroke="#DDD" width="70" height="147" x="0" y="-147" rx="8" ry="8"/><text text-anchor="middle" fill="#FFF" x="35" y="-127">2328</text></a></g></g></g></g><rect fill="none" stroke="#DDD" width="70" height="30" rx="8" ry="8" x="565" y="192"/><text text-anchor="middle" fill="#333" x="600" y="212">14-08</text><g transform="translate(565,232)"><g><a target="_top" xlink:href="dtp-slice3-step2628000-ofs18-col25-cat1.html"><rect style="display:none" class="hcell-act-col25-cat1" fill="#337AB7" stroke="#000" stroke-width="5" width="70" height="20" x="0" y="5" rx="8" ry="8"/><rect class="hcell-col25-cat1" fill="#337AB7" stroke="#DDD" width="70" height="30" x="0" y="0" rx="8" ry="8"/><text text-anchor="middle" fill="#FFF" x="35" y="20">-67</text></a></g></g></g><g><g transform="translate(645,182)"><g><a target="_top" xlink:href="dtp-slice3-step2628000-ofs18-col26-cat2.html"><rect style="display:none" class="hcell-act-col26-cat2" fill="#D9534F" stroke="#000" stroke-width="5" width="70" height="30" x="0" y="-35" rx="8" ry="8"/><rect class="hcell-col26-cat2" fill="#D9534F" stroke="#DDD" width="70" height="40" x="0" y="-40" rx="8" ry="8"/><text text-anchor="middle" fill="#FFF" x="35" y="-20">643</text></a></g></g><rect fill="none" stroke="#DDD" width="70" height="30" rx="8" ry="8" x="645" y="192"/><text text-anchor="middle" fill="#333" x="680" y="212">14-08</text><g transform="translate(645,232)"><g><a target="_top" xlink:href="dtp-slice3-step2628000-ofs18-col26-cat1.html"><rect style="display:none" class="hcell-act-col26-cat1" fill="#337AB7" stroke="#000" stroke-width="5" width="70" height="20" x="0" y="5" rx="8" ry="8"/><rect class="hcell-col26-cat1" fill="#337AB7" stroke="#DDD" width="70" height="30" x="0" y="0" rx="8" ry="8"/><text text-anchor="middle" fill="#FFF" x="35" y="20">-135</text></a><g transform="translate(0,30)"><g><a target="_top" xlink:href="dtp-slice3-step2628000-ofs18-col26-cat0.html"><rect style="display:none" class="hcell-act-col26-cat0" fill="#5CB85C" stroke="#000" stroke-width="5" width="70" height="182" x="0" y="5" rx="8" ry="8"/><rect class="hcell-col26-cat0" fill="#5CB85C" stroke="#DDD" width="70" height="192" x="0" y="0" rx="8" ry="8"/><text text-anchor="middle" fill="#FFF" x="35" y="20">-3026</text></a></g></g></g></g></g><g><g transform="translate(725,182)"><g><a target="_top" xlink:href="dtp-slice3-step2628000-ofs18-col27-cat2.html"><rect style="display:none" class="hcell-act-col27-cat2" fill="#D9534F" stroke="#000" stroke-width="5" width="70" height="20" x="0" y="-25" rx="8" ry="8"/><rect class="hcell-col27-cat2" fill="#D9534F" stroke="#DDD" width="70" height="30" x="0" y="-30" rx="8" ry="8"/><text text-anchor="middle" fill="#FFF" x="35" y="-10">350</text></a><g transform="translate(0,-30)"><g><a target="_top" xlink:href="dtp-slice3-step2628000-ofs18-col27-cat0.html"><rect style="display:none" class="hcell-act-col27-cat0" fill="#5CB85C" stroke="#000" stroke-width="5" width="70" height="75" x="0" y="-80" rx="8" ry="8"/><rect class="hcell-col27-cat0" fill="#5CB85C" stroke="#DDD" width="70" height="85" x="0" y="-85" rx="8" ry="8"/><text text-anchor="middle" fill="#FFF" x="35" y="-65">1341</text></a></g></g></g></g><rect fill="none" stroke="#DDD" width="70" height="30" rx="8" ry="8" x="725" y="192"/><text text-anchor="middle" fill="#333" x="760" y="212">14-10</text><g transform="translate(725,232)"><g><a target="_top" xlink:href="dtp-slice3-step2628000-ofs18-col27-cat1.html"><rect style="display:none" class="hcell-act-col27-cat1" fill="#337AB7" stroke="#000" stroke-width="5" width="70" height="20" x="0" y="5" rx="8" ry="8"/><rect class="hcell-col27-cat1" fill="#337AB7" stroke="#DDD" width="70" height="30" x="0" y="0" rx="8" ry="8"/><text text-anchor="middle" fill="#FFF" x="35" y="20">-38</text></a></g></g></g><g><g transform="translate(805,182)"><g><a target="_top" xlink:href="dtp-slice3-step2628000-ofs18-col28-cat2.html"><rect style="display:none" class="hcell-act-col28-cat2" fill="#D9534F" stroke="#000" stroke-width="5" width="70" height="27" x="0" y="-32" rx="8" ry="8"/><rect class="hcell-col28-cat2" fill="#D9534F" stroke="#DDD" width="70" height="37" x="0" y="-37" rx="8" ry="8"/><text text-anchor="middle" fill="#FFF" x="35" y="-17">589</text></a></g></g><rect fill="none" stroke="#DDD" width="70" height="30" rx="8" ry="8" x="805" y="192"/><text text-anchor="middle" fill="#333" x="840" y="212">14-10</text><g transform="translate(805,232)"><g><a target="_top" xlink:href="dtp-slice3-step2628000-ofs18-col28-cat1.html"><rect style="display:none" class="hcell-act-col28-cat1" fill="#337AB7" stroke="#000" stroke-width="5" width="70" height="20" x="0" y="5" rx="8" ry="8"/><rect class="hcell-col28-cat1" fill="#337AB7" stroke="#DDD" width="70" height="30" x="0" y="0" rx="8" ry="8"/><text text-anchor="middle" fill="#FFF" x="35" y="20">-99</text></a><g transform="translate(0,30)"><g><a target="_top" xlink:href="dtp-slice3-step2628000-ofs18-col28-cat0.html"><rect style="display:none" class="hcell-act-col28-cat0" fill="#5CB85C" stroke="#000" stroke-width="5" width="70" height="66" x="0" y="5" rx="8" ry="8"/><rect class="hcell-col28-cat0" fill="#5CB85C" stroke="#DDD" width="70" height="76" x="0" y="0" rx="8" ry="8"/><text text-anchor="middle" fill="#FFF" x="35" y="20">-1211</text></a></g></g></g></g></g><g><g transform="translate(885,182)"><g><a target="_top" xlink:href="dtp-slice3-step2628000-ofs18-col29-cat2.html"><rect style="display:none" class="hcell-act-col29-cat2" fill="#D9534F" stroke="#000" stroke-width="5" width="70" height="20" x="0" y="-25" rx="8" ry="8"/><rect class="hcell-col29-cat2" fill="#D9534F" stroke="#DDD" width="70" height="30" x="0" y="-30" rx="8" ry="8"/><text text-anchor="middle" fill="#FFF" x="35" y="-10">390</text></a></g></g><rect fill="none" stroke="#DDD" width="70" height="30" rx="8" ry="8" x="885" y="192"/><text text-anchor="middle" fill="#333" x="920" y="212">14-12</text><g transform="translate(885,232)"><g><a target="_top" xlink:href="dtp-slice3-step2628000-ofs18-col29-cat1.html"><rect style="display:none" class="hcell-act-col29-cat1" fill="#337AB7" stroke="#000" stroke-width="5" width="70" height="20" x="0" y="5" rx="8" ry="8"/><rect class="hcell-col29-cat1" fill="#337AB7" stroke="#DDD" width="70" height="30" x="0" y="0" rx="8" ry="8"/><text text-anchor="middle" fill="#FFF" x="35" y="20">-68</text></a><g transform="translate(0,30)"><g><a target="_top" xlink:href="dtp-slice3-step2628000-ofs18-col29-cat0.html"><rect style="display:none" class="hcell-act-col29-cat0" fill="#5CB85C" stroke="#000" stroke-width="5" width="70" height="26" x="0" y="5" rx="8" ry="8"/><rect class="hcell-col29-cat0" fill="#5CB85C" stroke="#DDD" width="70" height="36" x="0" y="0" rx="8" ry="8"/><text text-anchor="middle" fill="#FFF" x="35" y="20">-573</text></a></g></g></g></g></g><g><g transform="translate(965,182)"><g><a target="_top" xlink:href="dtp-slice3-step2628000-ofs18-col30-cat2.html"><rect style="display:none" class="hcell-act-col30-cat2" fill="#D9534F" stroke="#000" stroke-width="5" width="70" height="20" x="0" y="-25" rx="8" ry="8"/><rect class="hcell-col30-cat2" fill="#D9534F" stroke="#DDD" width="70" height="30" x="0" y="-30" rx="8" ry="8"/><text text-anchor="middle" fill="#FFF" x="35" y="-10">223</text></a></g></g><rect fill="none" stroke="#DDD" width="70" height="30" rx="8" ry="8" x="965" y="192"/><text text-anchor="middle" fill="#333" x="1000" y="212">14-12</text><g transform="translate(965,232)"><g><a target="_top" xlink:href="dtp-slice3-step2628000-ofs18-col30-cat1.html"><rect style="display:none" class="hcell-act-col30-cat1" fill="#337AB7" stroke="#000" stroke-width="5" width="70" height="20" x="0" y="5" rx="8" ry="8"/><rect class="hcell-col30-cat1" fill="#337AB7" stroke="#DDD" width="70" height="30" x="0" y="0" rx="8" ry="8"/><text text-anchor="middle" fill="#FFF" x="35" y="20">-38</text></a><g transform="translate(0,30)"><g><a target="_top" xlink:href="dtp-slice3-step2628000-ofs18-col30-cat0.html"><rect style="display:none" class="hcell-act-col30-cat0" fill="#5CB85C" stroke="#000" stroke-width="5" width="70" height="87" x="0" y="5" rx="8" ry="8"/><rect class="hcell-col30-cat0" fill="#5CB85C" stroke="#DDD" width="70" height="97" x="0" y="0" rx="8" ry="8"/><text text-anchor="middle" fill="#FFF" x="35" y="20">-1531</text></a></g></g></g></g></g><g><g transform="translate(1045,182)"><g><a target="_top" xlink:href="dtp-slice3-step2628000-ofs18-col31-cat2.html"><rect style="display:none" class="hcell-act-col31-cat2" fill="#D9534F" stroke="#000" stroke-width="5" width="70" height="22" x="0" y="-27" rx="8" ry="8"/><rect class="hcell-col31-cat2" fill="#D9534F" stroke="#DDD" width="70" height="32" x="0" y="-32" rx="8" ry="8"/><text text-anchor="middle" fill="#FFF" x="35" y="-12">504</text></a></g></g><rect fill="none" stroke="#DDD" width="70" height="30" rx="8" ry="8" x="1045" y="192"/><text text-anchor="middle" fill="#333" x="1080" y="212">15-01</text><g transform="translate(1045,232)"><g><a target="_top" xlink:href="dtp-slice3-step2628000-ofs18-col31-cat1.html"><rect style="display:none" class="hcell-act-col31-cat1" fill="#337AB7" stroke="#000" stroke-width="5" width="70" height="20" x="0" y="5" rx="8" ry="8"/><rect class="hcell-col31-cat1" fill="#337AB7" stroke="#DDD" width="70" height="30" x="0" y="0" rx="8" ry="8"/><text text-anchor="middle" fill="#FFF" x="35" y="20">-110</text></a><g transform="translate(0,30)"><g><a target="_top" xlink:href="dtp-slice3-step2628000-ofs18-col31-cat0.html"><rect style="display:none" class="hcell-act-col31-cat0" fill="#5CB85C" stroke="#000" stroke-width="5" width="70" height="173" x="0" y="5" rx="8" ry="8"/><rect class="hcell-col31-cat0" fill="#5CB85C" stroke="#DDD" width="70" height="183" x="0" y="0" rx="8" ry="8"/><text text-anchor="middle" fill="#FFF" x="35" y="20">-2894</text></a></g></g></g></g></g><g><g transform="translate(1125,182)"><g><a target="_top" xlink:href="dtp-slice3-step2628000-ofs18-col32-cat2.html"><rect style="display:none" class="hcell-act-col32-cat2" fill="#D9534F" stroke="#000" stroke-width="5" width="70" height="20" x="0" y="-25" rx="8" ry="8"/><rect class="hcell-col32-cat2" fill="#D9534F" stroke="#DDD" width="70" height="30" x="0" y="-30" rx="8" ry="8"/><text text-anchor="middle" fill="#FFF" x="35" y="-10">212</text></a><g transform="translate(0,-30)"><g><a target="_top" xlink:href="dtp-slice3-step2628000-ofs18-col32-cat0.html"><rect style="display:none" class="hcell-act-col32-cat0" fill="#5CB85C" stroke="#000" stroke-width="5" width="70" height="20" x="0" y="-25" rx="8" ry="8"/><rect class="hcell-col32-cat0" fill="#5CB85C" stroke="#DDD" width="70" height="30" x="0" y="-30" rx="8" ry="8"/><text text-anchor="middle" fill="#FFF" x="35" y="-10">252</text></a></g></g></g></g><rect fill="none" stroke="#DDD" width="70" height="30" rx="8" ry="8" x="1125" y="192"/><text text-anchor="middle" fill="#333" x="1160" y="212">15-03</text><g transform="translate(1125,232)"><g><a target="_top" xlink:href="dtp-slice3-step2628000-ofs18-col32-cat1.html"><rect style="display:none" class="hcell-act-col32-cat1" fill="#337AB7" stroke="#000" stroke-width="5" width="70" height="20" x="0" y="5" rx="8" ry="8"/><rect class="hcell-col32-cat1" fill="#337AB7" stroke="#DDD" width="70" height="30" x="0" y="0" rx="8" ry="8"/><text text-anchor="middle" fill="#FFF" x="35" y="20">-62</text></a></g></g></g><g><g transform="translate(1205,182)"><g><a target="_top" xlink:href="dtp-slice3-step2628000-ofs18-col33-cat2.html"><rect style="display:none" class="hcell-act-col33-cat2" fill="#D9534F" stroke="#000" stroke-width="5" width="70" height="28" x="0" y="-33" rx="8" ry="8"/><rect class="hcell-col33-cat2" fill="#D9534F" stroke="#DDD" width="70" height="38" x="0" y="-38" rx="8" ry="8"/><text text-anchor="middle" fill="#FFF" x="35" y="-18">613</text></a></g></g><rect fill="none" stroke="#DDD" width="70" height="30" rx="8" ry="8" x="1205" y="192"/><text text-anchor="middle" fill="#333" x="1240" y="212">15-04</text><g transform="translate(1205,232)"><g><a target="_top" xlink:href="dtp-slice3-step2628000-ofs18-col33-cat1.html"><rect style="display:none" class="hcell-act-col33-cat1" fill="#337AB7" stroke="#000" stroke-width="5" width="70" height="20" x="0" y="5" rx="8" ry="8"/><rect class="hcell-col33-cat1" fill="#337AB7" stroke="#DDD" width="70" height="30" x="0" y="0" rx="8" ry="8"/><text text-anchor="middle" fill="#FFF" x="35" y="20">-85</text></a><g transform="translate(0,30)"><g><a target="_top" xlink:href="dtp-slice3-step2628000-ofs18-col33-cat0.html"><rect style="display:none" class="hcell-act-col33-cat0" fill="#5CB85C" stroke="#000" stroke-width="5" width="70" height="131" x="0" y="5" rx="8" ry="8"/><rect class="hcell-col33-cat0" fill="#5CB85C" stroke="#DDD" width="70" height="141" x="0" y="0" rx="8" ry="8"/><text text-anchor="middle" fill="#FFF" x="35" y="20">-2227</text></a></g></g></g></g></g></svg>