<svg xmlns="http://www.w3.org/2000/svg" xmlns:xlink="http://www.w3.org/1999/xlink" width="100%" height="100%" viewBox="0 0 1280 459"><g><g transform="translate(5,167)"></g><rect fill="none" stroke="#DDD" width="70" height="30" rx="8" ry="8" x="5" y="177"/><text text-anchor="middle" fill="#333" x="40" y="197">13-12</text><g transform="translate(5,217)"><g><a target="_top" xlink:href="dtp-slice2-step2628000-ofs18-col18-cat0.html"><rect style="display:none" class="hcell-act-col18-cat0" fill="#D9534F" stroke="#000" stroke-width="5" width="70" height="20" x="0" y="5" rx="8" ry="8"/><rect class="hcell-col18-cat0" fill="#D9534F" stroke="#DDD" width="70" height="30" x="0" y="0" rx="8" ry="8"/><text text-anchor="middle" fill="#FFF" x="35" y="20">-434</text></a></g></g></g><g><g transform="translate(85,167)"><g><a target="_top" xlink:href="dtp-slice2-step2628000-ofs18-col19-cat0.html"><rect style="display:none" class="hcell-act-col19-cat0" fill="#D9534F" stroke="#000" stroke-width="5" width="70" height="20" x="0" y="-25" rx="8" ry="8"/><rect class="hcell-col19-cat0" fill="#D9534F" stroke="#DDD" width="70" height="30" x="0" y="-30" rx="8" ry="8"/><text text-anchor="middle" fill="#FFF" x="35" y="-10">258</text></a></g></g><rect fill="none" stroke="#DDD" width="70" height="30" rx="8" ry="8" x="85" y="177"/><text text-anchor="middle" fill="#333" x="120" y="197">14-01</text><g transform="translate(85,217)"></g></g><g><g transform="translate(165,167)"></g><rect fill="none" stroke="#DDD" width="70" height="30" rx="8" ry="8" x="165" y="177"/><text text-anchor="middle" fill="#333" x="200" y="197">14-03</text><g transform="translate(165,217)"><g><a target="_top" xlink:href="dtp-slice2-step2628000-ofs18-col20-cat0.html"><rect style="display:none" class="hcell-act-col20-cat0" fill="#D9534F" stroke="#000" stroke-width="5" width="70" height="26" x="0" y="5" rx="8" ry="8"/><rect class="hcell-col20-cat0" fill="#D9534F" stroke="#DDD" width="70" height="36" x="0" y="0" rx="8" ry="8"/><text text-anchor="middle" fill="#FFF" x="35" y="20">-524</text></a></g></g></g><g><g transform="translate(245,167)"></g><rect fill="none" stroke="#DDD" width="70" height="30" rx="8" ry="8" x="245" y="177"/><text text-anchor="middle" fill="#333" x="280" y="197">14-04</text><g transform="translate(245,217)"><g><a target="_top" xlink:href="dtp-slice2-step2628000-ofs18-col21-cat0.html"><rect style="display:none" class="hcell-act-col21-cat0" fill="#D9534F" stroke="#000" stroke-width="5" width="70" height="227" x="0" y="5" rx="8" ry="8"/><rect class="hcell-col21-cat0" fill="#D9534F" stroke="#DDD" width="70" height="237" x="0" y="0" rx="8" ry="8"/><text text-anchor="middle" fill="#FFF" x="35" y="20">-3412</text></a></g></g></g><g><g transform="translate(325,167)"></g><rect fill="none" stroke="#DDD" width="70" height="30" rx="8" ry="8" x="325" y="177"/><text text-anchor="middle" fill="#333" x="360" y="197">14-05</text><g transform="translate(325,217)"><g><a target="_top" xlink:href="dtp-slice2-step2628000-ofs18-col22-cat0.html"><rect style="display:none" class="hcell-act-col22-cat0" fill="#D9534F" stroke="#000" stroke-width="5" width="70" height="91" x="0" y="5" rx="8" ry="8"/><rect class="hcell-col22-cat0" fill="#D9534F" stroke="#DDD" width="70" height="101" x="0" y="0" rx="8" ry="8"/><text text-anchor="middle" fill="#FFF" x="35" y="20">-1460</text></a></g></g></g><g><g transform="translate(405,167)"></g><rect fill="none" stroke="#DDD" width="70" height="30" rx="8" ry="8" x="405" y="177"/><text text-anchor="middle" fill="#333" x="440" y="197">14-06</text><g transform="translate(405,217)"><g><a target="_top" xlink:href="dtp-slice2-step2628000-ofs18-col23-cat0.html"><rect style="display:none" class="hcell-act-col23-cat0" fill="#D9534F" stroke="#000" stroke-width="5" width="70" height="20" x="0" y="5" rx="8" ry="8"/><rect class="hcell-col23-cat0" fill="#D9534F" stroke="#DDD" width="70" height="30" x="0" y="0" rx="8" ry="8"/><text text-anchor="middle" fill="#FFF" x="35" y="20">-106</text></a></g></g></g><g><g transform="translate(485,167)"></g><rect fill="none" stroke="#DDD" width="70" height="30" rx="8" ry="8" x="485" y="177"/><text text-anchor="middle" fill="#333" x="520" y="197">14-07</text><g transform="translate(485,217)"><g><a target="_top" xlink:href="dtp-slice2-step2628000-ofs18-col24-cat0.html"><rect style="display:none" class="hcell-act-col24-cat0" fill="#D9534F" stroke="#000" stroke-width="5" width="70" height="38" x="0" y="5" rx="8" ry="8"/><rect class="hcell-col24-cat0" fill="#D9534F" stroke="#DDD" width="70" height="48" x="0" y="0" rx="8" ry="8"/><text text-anchor="middle" fill="#FFF" x="35" y="20">-701</text></a></g></g></g><g><g transform="translate(565,167)"><g><a target="_top" xlink:href="dtp-slice2-step2628000-ofs18-col25-cat0.html"><rect style="display:none" class="hcell-act-col25-cat0" fill="#D9534F" stroke="#000" stroke-width="5" width="70" height="152" x="0" y="-157" rx="8" ry="8"/><rect class="hcell-col25-cat0" fill="#D9534F" stroke="#DDD" width="70" height="162" x="0" y="-162" rx="8" ry="8"/><text text-anchor="middle" fill="#FFF" x="35" y="-142">2328</text></a></g></g><rect fill="none" stroke="#DDD" width="70" height="30" rx="8" ry="8" x="565" y="177"/><text text-anchor="middle" fill="#333" x="600" y="197">14-08</text><g transform="translate(565,217)"></g></g><g><g transform="translate(645,167)"></g><rect fill="none" stroke="#DDD" width="70" height="30" rx="8" ry="8" x="645" y="177"/><text text-anchor="middle" fill="#333" x="680" y="197">14-08</text><g transform="translate(645,217)"><g><a target="_top" xlink:href="dtp-slice2-step2628000-ofs18-col26-cat0.html"><rect style="display:none" class="hcell-act-col26-cat0" fill="#D9534F" stroke="#000" stroke-width="5" width="70" height="200" x="0" y="5" rx="8" ry="8"/><rect class="hcell-col26-cat0" fill="#D9534F" stroke="#DDD" width="70" height="210" x="0" y="0" rx="8" ry="8"/><text text-anchor="middle" fill="#FFF" x="35" y="20">-3026</text></a></g></g></g><g><g transform="translate(725,167)"><g><a target="_top" xlink:href="dtp-slice2-step2628000-ofs18-col27-cat0.html"><rect style="display:none" class="hcell-act-col27-cat0" fill="#D9534F" stroke="#000" stroke-width="5" width="70" height="83" x="0" y="-88" rx="8" ry="8"/><rect class="hcell-col27-cat0" fill="#D9534F" stroke="#DDD" width="70" height="93" x="0" y="-93" rx="8" ry="8"/><text text-anchor="middle" fill="#FFF" x="35" y="-73">1341</text></a></g></g><rect fill="none" stroke="#DDD" width="70" height="30" rx="8" ry="8" x="725" y="177"/><text text-anchor="middle" fill="#333" x="760" y="197">14-10</text><g transform="translate(725,217)"></g></g><g><g transform="translate(805,167)"></g><rect fill="none" stroke="#DDD" width="70" height="30" rx="8" ry="8" x="805" y="177"/><text text-anchor="middle" fill="#333" x="840" y="197">14-10</text><g transform="translate(805,217)"><g><a target="_top" xlink:href="dtp-slice2-step2628000-ofs18-col28-cat0.html"><rect style="display:none" class="hcell-act-col28-cat0" fill="#D9534F" stroke="#000" stroke-width="5" width="70" height="74" x="0" y="5" rx="8" ry="8"/><rect class="hcell-col28-cat0" fill="#D9534F" stroke="#DDD" width="70" height="84" x="0" y="0" rx="8" ry="8"/><text text-anchor="middle" fill="#FFF" x="35" y="20">-1211</text></a></g></g></g><g><g transform="translate(885,167)"></g><rect fill="none" stroke="#DDD" width="70" height="30" rx="8" ry="8" x="885" y="177"/><text text-anchor="middle" fill="#333" x="920" y="197">14-12</text><g transform="translate(885,217)"><g><a target="_top" xlink:href="dtp-slice2-step2628000-ofs18-col29-cat0.html"><rect style="display:none" class="hcell-act-col29-cat0" fill="#D9534F" stroke="#000" stroke-width="5" width="70" height="29" x="0" y="5" rx="8" ry="8"/><rect class="hcell-col29-cat0" fill="#D9534F" stroke="#DDD" width="70" height="39" x="0" y="0" rx="8" ry="8"/><text text-anchor="middle" fill="#FFF" x="35" y="20">-573</text></a></g></g></g><g><g transform="translate(965,167)"></g><rect fill="none" stroke="#DDD" width="70" height="30" rx="8" ry="8" x="965" y="177"/><text text-anchor="middle" fill="#333" x="1000" y="197">14-12</text><g transform="translate(965,217)"><g><a target="_top" xlink:href="dtp-slice2-step2628000-ofs18-col30-cat0.html"><rect style="display:none" class="hcell-act-col30-cat0" fill="#D9534F" stroke="#000" stroke-width="5" width="70" height="96" x="0" y="5" rx="8" ry="8"/><rect class="hcell-col30-cat0" fill="#D9534F" stroke="#DDD" width="70" height="106" x="0" y="0" rx="8" ry="8"/><text text-anchor="middle" fill="#FFF" x="35" y="20">-1531</text></a></g></g></g><g><g transform="translate(1045,167)"></g><rect fill="none" stroke="#DDD" width="70" height="30" rx="8" ry="8" x="1045" y="177"/><text text-anchor="middle" fill="#333" x="1080" y="197">15-01</text><g transform="translate(1045,217)"><g><a target="_top" xlink:href="dtp-slice2-step2628000-ofs18-col31-cat0.html"><rect style="display:none" class="hcell-act-col31-cat0" fill="#D9534F" stroke="#000" stroke-width="5" width="70" height="191" x="0" y="5" rx="8" ry="8"/><rect class="hcell-col31-cat0" fill="#D9534F" stroke="#DDD" width="70" height="201" x="0" y="0" rx="8" ry="8"/><text text-anchor="middle" fill="#FFF" x="35" y="20">-2894</text></a></g></g></g><g><g transform="translate(1125,167)"><g><a target="_top" xlink:href="dtp-slice2-step2628000-ofs18-col32-cat0.html"><rect style="display:none" class="hcell-act-col32-cat0" fill="#D9534F" stroke="#000" stroke-width="5" width="70" height="20" x="0" y="-25" rx="8" ry="8"/><rect class="hcell-col32-cat0" fill="#D9534F" stroke="#DDD" width="70" height="30" x="0" y="-30" rx="8" ry="8"/><text text-anchor="middle" fill="#FFF" x="35" y="-10">252</text></a></g></g><rect fill="none" stroke="#DDD" width="70" height="30" rx="8" ry="8" x="1125" y="177"/><text text-anchor="middle" fill="#333" x="1160" y="197">15-03</text><g transform="translate(1125,217)"></g></g><g><g transform="translate(1205,167)"></g><rect fill="none" stroke="#DDD" width="70" height="30" rx="8" ry="8" x="1205" y="177"/><text text-anchor="middle" fill="#333" x="1240" y="197">15-04</text><g transform="translate(1205,217)"><g><a target="_top" xlink:href="dtp-slice2-step2628000-ofs18-col33-cat0.html"><rect style="display:none" class="hcell-act-col33-cat0" fill="#D9534F" stroke="#000" stroke-width="5" width="70" height="145" x="0" y="5" rx="8" ry="8"/><rect class="hcell-col33-cat0" fill="#D9534F" stroke="#DDD" width="70" height="155" x="0" y="0" rx="8" ry="8"/><text text-anchor="middle" fill="#FFF" x="35" y="20">-2227</text></a></g></g></g></svg>