<svg xmlns="http://www.w3.org/2000/svg" xmlns:xlink="http://www.w3.org/1999/xlink" width="100%" height="100%" viewBox="0 0 1280 481"><g><g transform="translate(5,132)"><g><a target="_top" xlink:href="dtp-slice3-step2628000-ofs0-col0-cat0.html"><rect style="display:none" class="hcell-act-col0-cat0" fill="#5CB85C" stroke="#000" stroke-width="5" width="70" height="20" x="0" y="-25" rx="8" ry="8"/><rect class="hcell-col0-cat0" fill="#5CB85C" stroke="#DDD" width="70" height="30" x="0" y="-30" rx="8" ry="8"/><text text-anchor="middle" fill="#FFF" x="35" y="-10">239</text></a><g transform="translate(0,-30)"><g><a target="_top" xlink:href="dtp-slice3-step2628000-ofs0-col0-cat2.html"><rect style="display:none" class="hcell-act-col0-cat2" fill="#D9534F" stroke="#000" stroke-width="5" width="70" height="20" x="0" y="-25" rx="8" ry="8"/><rect class="hcell-col0-cat2" fill="#D9534F" stroke="#DDD" width="70" height="30" x="0" y="-30" rx="8" ry="8"/><text text-anchor="middle" fill="#FFF" x="35" y="-10">449</text></a></g></g></g></g><rect fill="none" stroke="#DDD" width="70" height="30" rx="8" ry="8" x="5" y="142"/><text text-anchor="middle" fill="#333" x="40" y="162">12-07</text><g transform="translate(5,182)"><g><a target="_top" xlink:href="dtp-slice3-step2628000-ofs0-col0-cat1.html"><rect style="display:none" class="hcell-act-col0-cat1" fill="#337AB7" stroke="#000" stroke-width="5" width="70" height="20" x="0" y="5" rx="8" ry="8"/><rect class="hcell-col0-cat1" fill="#337AB7" stroke="#DDD" width="70" height="30" x="0" y="0" rx="8" ry="8"/><text text-anchor="middle" fill="#FFF" x="35" y="20">-88</text></a></g></g></g><g><g transform="translate(85,132)"><g><a target="_top" xlink:href="dtp-slice3-step2628000-ofs0-col1-cat2.html"><rect style="display:none" class="hcell-act-col1-cat2" fill="#D9534F" stroke="#000" stroke-width="5" width="70" height="20" x="0" y="-25" rx="8" ry="8"/><rect class="hcell-col1-cat2" fill="#D9534F" stroke="#DDD" width="70" height="30" x="0" y="-30" rx="8" ry="8"/><text text-anchor="middle" fill="#FFF" x="35" y="-10">399</text></a><g transform="translate(0,-30)"><g><a target="_top" xlink:href="dtp-slice3-step2628000-ofs0-col1-cat0.html"><rect style="display:none" class="hcell-act-col1-cat0" fill="#5CB85C" stroke="#000" stroke-width="5" width="70" height="20" x="0" y="-25" rx="8" ry="8"/><rect class="hcell-col1-cat0" fill="#5CB85C" stroke="#DDD" width="70" height="30" x="0" y="-30" rx="8" ry="8"/><text text-anchor="middle" fill="#FFF" x="35" y="-10">404</text></a></g></g></g></g><rect fill="none" stroke="#DDD" width="70" height="30" rx="8" ry="8" x="85" y="142"/><text text-anchor="middle" fill="#333" x="120" y="162">12-08</text><g transform="translate(85,182)"><g><a target="_top" xlink:href="dtp-slice3-step2628000-ofs0-col1-cat1.html"><rect style="display:none" class="hcell-act-col1-cat1" fill="#337AB7" stroke="#000" stroke-width="5" width="70" height="20" x="0" y="5" rx="8" ry="8"/><rect class="hcell-col1-cat1" fill="#337AB7" stroke="#DDD" width="70" height="30" x="0" y="0" rx="8" ry="8"/><text text-anchor="middle" fill="#FFF" x="35" y="20">-59</text></a></g></g></g><g><g transform="translate(165,132)"><g><a target="_top" xlink:href="dtp-slice3-step2628000-ofs0-col2-cat0.html"><rect style="display:none" class="hcell-act-col2-cat0" fill="#5CB85C" stroke="#000" stroke-width="5" width="70" height="20" x="0" y="-25" rx="8" ry="8"/><rect class="hcell-col2-cat0" fill="#5CB85C" stroke="#DDD" width="70" height="30" x="0" y="-30" rx="8" ry="8"/><text text-anchor="middle" fill="#FFF" x="35" y="-10">64</text></a><g transform="translate(0,-30)"><g><a target="_top" xlink:href="dtp-slice3-step2628000-ofs0-col2-cat2.html"><rect style="display:none" class="hcell-act-col2-cat2" fill="#D9534F" stroke="#000" stroke-width="5" width="70" height="26" x="0" y="-31" rx="8" ry="8"/><rect class="hcell-col2-cat2" fill="#D9534F" stroke="#DDD" width="70" height="36" x="0" y="-36" rx="8" ry="8"/><text text-anchor="middle" fill="#FFF" x="35" y="-16">609</text></a></g></g></g></g><rect fill="none" stroke="#DDD" width="70" height="30" rx="8" ry="8" x="165" y="142"/><text text-anchor="middle" fill="#333" x="200" y="162">12-08</text><g transform="translate(165,182)"><g><a target="_top" xlink:href="dtp-slice3-step2628000-ofs0-col2-cat1.html"><rect style="display:none" class="hcell-act-col2-cat1" fill="#337AB7" stroke="#000" stroke-width="5" width="70" height="20" x="0" y="5" rx="8" ry="8"/><rect class="hcell-col2-cat1" fill="#337AB7" stroke="#DDD" width="70" height="30" x="0" y="0" rx="8" ry="8"/><text text-anchor="middle" fill="#FFF" x="35" y="20">-104</text></a></g></g></g><g><g transform="translate(245,132)"><g><a target="_top" xlink:href="dtp-slice3-step2628000-ofs0-col3-cat2.html"><rect style="display:none" class="hcell-act-col3-cat2" fill="#D9534F" stroke="#000" stroke-width="5" width="70" height="28" x="0" y="-33" rx="8" ry="8"/><rect class="hcell-col3-cat2" fill="#D9534F" stroke="#DDD" width="70" height="38" x="0" y="-38" rx="8" ry="8"/><text text-anchor="middle" fill="#FFF" x="35" y="-18">653</text></a></g></g><rect fill="none" stroke="#DDD" width="70" height="30" rx="8" ry="8" x="245" y="142"/><text text-anchor="middle" fill="#333" x="280" y="162">12-10</text><g transform="translate(245,182)"><g><a target="_top" xlink:href="dtp-slice3-step2628000-ofs0-col3-cat1.html"><rect style="display:none" class="hcell-act-col3-cat1" fill="#337AB7" stroke="#000" stroke-width="5" width="70" height="20" x="0" y="5" rx="8" ry="8"/><rect class="hcell-col3-cat1" fill="#337AB7" stroke="#DDD" width="70" height="30" x="0" y="0" rx="8" ry="8"/><text text-anchor="middle" fill="#FFF" x="35" y="20">-108</text></a><g transform="translate(0,30)"><g><a target="_top" xlink:href="dtp-slice3-step2628000-ofs0-col3-cat0.html"><rect style="display:none" class="hcell-act-col3-cat0" fill="#5CB85C" stroke="#000" stroke-width="5" width="70" height="20" x="0" y="5" rx="8" ry="8"/><rect class="hcell-col3-cat0" fill="#5CB85C" stroke="#DDD" width="70" height="30" x="0" y="0" rx="8" ry="8"/><text text-anchor="middle" fill="#FFF" x="35" y="20">-158</text></a></g></g></g></g></g><g><g transform="translate(325,132)"><g><a target="_top" xlink:href="dtp-slice3-step2628000-ofs0-col4-cat2.html"><rect style="display:none" class="hcell-act-col4-cat2" fill="#D9534F" stroke="#000" stroke-width="5" width="70" height="20" x="0" y="-25" rx="8" ry="8"/><rect class="hcell-col4-cat2" fill="#D9534F" stroke="#DDD" width="70" height="30" x="0" y="-30" rx="8" ry="8"/><text text-anchor="middle" fill="#FFF" x="35" y="-10">511</text></a><g transform="translate(0,-30)"><g><a target="_top" xlink:href="dtp-slice3-step2628000-ofs0-col4-cat0.html"><rect style="display:none" class="hcell-act-col4-cat0" fill="#5CB85C" stroke="#000" stroke-width="5" width="70" height="80" x="0" y="-85" rx="8" ry="8"/><rect class="hcell-col4-cat0" fill="#5CB85C" stroke="#DDD" width="70" height="90" x="0" y="-90" rx="8" ry="8"/><text text-anchor="middle" fill="#FFF" x="35" y="-70">1511</text></a></g></g></g></g><rect fill="none" stroke="#DDD" width="70" height="30" rx="8" ry="8" x="325" y="142"/><text text-anchor="middle" fill="#333" x="360" y="162">12-10</text><g transform="translate(325,182)"><g><a target="_top" xlink:href="dtp-slice3-step2628000-ofs0-col4-cat1.html"><rect style="display:none" class="hcell-act-col4-cat1" fill="#337AB7" stroke="#000" stroke-width="5" width="70" height="20" x="0" y="5" rx="8" ry="8"/><rect class="hcell-col4-cat1" fill="#337AB7" stroke="#DDD" width="70" height="30" x="0" y="0" rx="8" ry="8"/><text text-anchor="middle" fill="#FFF" x="35" y="20">-113</text></a></g></g></g><g><g transform="translate(405,132)"><g><a target="_top" xlink:href="dtp-slice3-step2628000-ofs0-col5-cat2.html"><rect style="display:none" class="hcell-act-col5-cat2" fill="#D9534F" stroke="#000" stroke-width="5" width="70" height="28" x="0" y="-33" rx="8" ry="8"/><rect class="hcell-col5-cat2" fill="#D9534F" stroke="#DDD" width="70" height="38" x="0" y="-38" rx="8" ry="8"/><text text-anchor="middle" fill="#FFF" x="35" y="-18">645</text></a></g></g><rect fill="none" stroke="#DDD" width="70" height="30" rx="8" ry="8" x="405" y="142"/><text text-anchor="middle" fill="#333" x="440" y="162">12-12</text><g transform="translate(405,182)"><g><a target="_top" xlink:href="dtp-slice3-step2628000-ofs0-col5-cat1.html"><rect style="display:none" class="hcell-act-col5-cat1" fill="#337AB7" stroke="#000" stroke-width="5" width="70" height="20" x="0" y="5" rx="8" ry="8"/><rect class="hcell-col5-cat1" fill="#337AB7" stroke="#DDD" width="70" height="30" x="0" y="0" rx="8" ry="8"/><text text-anchor="middle" fill="#FFF" x="35" y="20">-122</text></a><g transform="translate(0,30)"><g><a target="_top" xlink:href="dtp-slice3-step2628000-ofs0-col5-cat0.html"><rect style="display:none" class="hcell-act-col5-cat0" fill="#5CB85C" stroke="#000" stroke-width="5" width="70" height="20" x="0" y="5" rx="8" ry="8"/><rect class="hcell-col5-cat0" fill="#5CB85C" stroke="#DDD" width="70" height="30" x="0" y="0" rx="8" ry="8"/><text text-anchor="middle" fill="#FFF" x="35" y="20">-186</text></a></g></g></g></g></g><g><g transform="translate(485,132)"><g><a target="_top" xlink:href="dtp-slice3-step2628000-ofs0-col6-cat2.html"><rect style="display:none" class="hcell-act-col6-cat2" fill="#D9534F" stroke="#000" stroke-width="5" width="70" height="27" x="0" y="-32" rx="8" ry="8"/><rect class="hcell-col6-cat2" fill="#D9534F" stroke="#DDD" width="70" height="37" x="0" y="-37" rx="8" ry="8"/><text text-anchor="middle" fill="#FFF" x="35" y="-17">626</text></a></g></g><rect fill="none" stroke="#DDD" width="70" height="30" rx="8" ry="8" x="485" y="142"/><text text-anchor="middle" fill="#333" x="520" y="162">12-12</text><g transform="translate(485,182)"><g><a target="_top" xlink:href="dtp-slice3-step2628000-ofs0-col6-cat0.html"><rect style="display:none" class="hcell-act-col6-cat0" fill="#5CB85C" stroke="#000" stroke-width="5" width="70" height="20" x="0" y="5" rx="8" ry="8"/><rect class="hcell-col6-cat0" fill="#5CB85C" stroke="#DDD" width="70" height="30" x="0" y="0" rx="8" ry="8"/><text text-anchor="middle" fill="#FFF" x="35" y="20">-104</text></a><g transform="translate(0,30)"><g><a target="_top" xlink:href="dtp-slice3-step2628000-ofs0-col6-cat1.html"><rect style="display:none" class="hcell-act-col6-cat1" fill="#337AB7" stroke="#000" stroke-width="5" width="70" height="20" x="0" y="5" rx="8" ry="8"/><rect class="hcell-col6-cat1" fill="#337AB7" stroke="#DDD" width="70" height="30" x="0" y="0" rx="8" ry="8"/><text text-anchor="middle" fill="#FFF" x="35" y="20">-130</text></a></g></g></g></g></g><g><g transform="translate(565,132)"><g><a target="_top" xlink:href="dtp-slice3-step2628000-ofs0-col7-cat0.html"><rect style="display:none" class="hcell-act-col7-cat0" fill="#5CB85C" stroke="#000" stroke-width="5" width="70" height="20" x="0" y="-25" rx="8" ry="8"/><rect class="hcell-col7-cat0" fill="#5CB85C" stroke="#DDD" width="70" height="30" x="0" y="-30" rx="8" ry="8"/><text text-anchor="middle" fill="#FFF" x="35" y="-10">472</text></a><g transform="translate(0,-30)"><g><a target="_top" xlink:href="dtp-slice3-step2628000-ofs0-col7-cat2.html"><rect style="display:none" class="hcell-act-col7-cat2" fill="#D9534F" stroke="#000" stroke-width="5" width="70" height="23" x="0" y="-28" rx="8" ry="8"/><rect class="hcell-col7-cat2" fill="#D9534F" stroke="#DDD" width="70" height="33" x="0" y="-33" rx="8" ry="8"/><text text-anchor="middle" fill="#FFF" x="35" y="-13">558</text></a></g></g></g></g><rect fill="none" stroke="#DDD" width="70" height="30" rx="8" ry="8" x="565" y="142"/><text text-anchor="middle" fill="#333" x="600" y="162">13-01</text><g transform="translate(565,182)"><g><a target="_top" xlink:href="dtp-slice3-step2628000-ofs0-col7-cat1.html"><rect style="display:none" class="hcell-act-col7-cat1" fill="#337AB7" stroke="#000" stroke-width="5" width="70" height="20" x="0" y="5" rx="8" ry="8"/><rect class="hcell-col7-cat1" fill="#337AB7" stroke="#DDD" width="70" height="30" x="0" y="0" rx="8" ry="8"/><text text-anchor="middle" fill="#FFF" x="35" y="20">-117</text></a></g></g></g><g><g transform="translate(645,132)"><g><a target="_top" xlink:href="dtp-slice3-step2628000-ofs0-col8-cat2.html"><rect style="display:none" class="hcell-act-col8-cat2" fill="#D9534F" stroke="#000" stroke-width="5" width="70" height="30" x="0" y="-35" rx="8" ry="8"/><rect class="hcell-col8-cat2" fill="#D9534F" stroke="#DDD" width="70" height="40" x="0" y="-40" rx="8" ry="8"/><text text-anchor="middle" fill="#FFF" x="35" y="-20">686</text></a><g transform="translate(0,-40)"><g><a target="_top" xlink:href="dtp-slice3-step2628000-ofs0-col8-cat0.html"><rect style="display:none" class="hcell-act-col8-cat0" fill="#5CB85C" stroke="#000" stroke-width="5" width="70" height="77" x="0" y="-82" rx="8" ry="8"/><rect class="hcell-col8-cat0" fill="#5CB85C" stroke="#DDD" width="70" height="87" x="0" y="-87" rx="8" ry="8"/><text text-anchor="middle" fill="#FFF" x="35" y="-67">1468</text></a></g></g></g></g><rect fill="none" stroke="#DDD" width="70" height="30" rx="8" ry="8" x="645" y="142"/><text text-anchor="middle" fill="#333" x="680" y="162">13-03</text><g transform="translate(645,182)"><g><a target="_top" xlink:href="dtp-slice3-step2628000-ofs0-col8-cat1.html"><rect style="display:none" class="hcell-act-col8-cat1" fill="#337AB7" stroke="#000" stroke-width="5" width="70" height="20" x="0" y="5" rx="8" ry="8"/><rect class="hcell-col8-cat1" fill="#337AB7" stroke="#DDD" width="70" height="30" x="0" y="0" rx="8" ry="8"/><text text-anchor="middle" fill="#FFF" x="35" y="20">-96</text></a></g></g></g><g><g transform="translate(725,132)"><g><a target="_top" xlink:href="dtp-slice3-step2628000-ofs0-col9-cat2.html"><rect style="display:none" class="hcell-act-col9-cat2" fill="#D9534F" stroke="#000" stroke-width="5" width="70" height="23" x="0" y="-28" rx="8" ry="8"/><rect class="hcell-col9-cat2" fill="#D9534F" stroke="#DDD" width="70" height="33" x="0" y="-33" rx="8" ry="8"/><text text-anchor="middle" fill="#FFF" x="35" y="-13">563</text></a></g></g><rect fill="none" stroke="#DDD" width="70" height="30" rx="8" ry="8" x="725" y="142"/><text text-anchor="middle" fill="#333" x="760" y="162">13-04</text><g transform="translate(725,182)"><g><a target="_top" xlink:href="dtp-slice3-step2628000-ofs0-col9-cat0.html"><rect style="display:none" class="hcell-act-col9-cat0" fill="#5CB85C" stroke="#000" stroke-width="5" width="70" height="20" x="0" y="5" rx="8" ry="8"/><rect class="hcell-col9-cat0" fill="#5CB85C" stroke="#DDD" width="70" height="30" x="0" y="0" rx="8" ry="8"/><text text-anchor="middle" fill="#FFF" x="35" y="20">-19</text></a><g transform="translate(0,30)"><g><a target="_top" xlink:href="dtp-slice3-step2628000-ofs0-col9-cat1.html"><rect style="display:none" class="hcell-act-col9-cat1" fill="#337AB7" stroke="#000" stroke-width="5" width="70" height="20" x="0" y="5" rx="8" ry="8"/><rect class="hcell-col9-cat1" fill="#337AB7" stroke="#DDD" width="70" height="30" x="0" y="0" rx="8" ry="8"/><text text-anchor="middle" fill="#FFF" x="35" y="20">-107</text></a></g></g></g></g></g><g><g transform="translate(805,132)"><g><a target="_top" xlink:href="dtp-slice3-step2628000-ofs0-col10-cat2.html"><rect style="display:none" class="hcell-act-col10-cat2" fill="#D9534F" stroke="#000" stroke-width="5" width="70" height="26" x="0" y="-31" rx="8" ry="8"/><rect class="hcell-col10-cat2" fill="#D9534F" stroke="#DDD" width="70" height="36" x="0" y="-36" rx="8" ry="8"/><text text-anchor="middle" fill="#FFF" x="35" y="-16">607</text></a></g></g><rect fill="none" stroke="#DDD" width="70" height="30" rx="8" ry="8" x="805" y="142"/><text text-anchor="middle" fill="#333" x="840" y="162">13-05</text><g transform="translate(805,182)"><g><a target="_top" xlink:href="dtp-slice3-step2628000-ofs0-col10-cat1.html"><rect style="display:none" class="hcell-act-col10-cat1" fill="#337AB7" stroke="#000" stroke-width="5" width="70" height="20" x="0" y="5" rx="8" ry="8"/><rect class="hcell-col10-cat1" fill="#337AB7" stroke="#DDD" width="70" height="30" x="0" y="0" rx="8" ry="8"/><text text-anchor="middle" fill="#FFF" x="35" y="20">-84</text></a><g transform="translate(0,30)"><g><a target="_top" xlink:href="dtp-slice3-step2628000-ofs0-col10-cat0.html"><rect style="display:none" class="hcell-act-col10-cat0" fill="#5CB85C" stroke="#000" stroke-width="5" width="70" height="20" x="0" y="5" rx="8" ry="8"/><rect class="hcell-col10-cat0" fill="#5CB85C" stroke="#DDD" width="70" height="30" x="0" y="0" rx="8" ry="8"/><text text-anchor="middle" fill="#FFF" x="35" y="20">-110</text></a></g></g></g></g></g><g><g transform="translate(885,132)"><g><a target="_top" xlink:href="dtp-slice3-step2628000-ofs0-col11-cat0.html"><rect style="display:none" class="hcell-act-col11-cat0" fill="#5CB85C" stroke="#000" stroke-width="5" width="70" height="20" x="0" y="-25" rx="8" ry="8"/><rect class="hcell-col11-cat0" fill="#5CB85C" stroke="#DDD" width="70" height="30" x="0" y="-30" rx="8" ry="8"/><text text-anchor="middle" fill="#FFF" x="35" y="-10">108</text></a><g transform="translate(0,-30)"><g><a target="_top" xlink:href="dtp-slice3-step2628000-ofs0-col11-cat2.html"><rect style="display:none" class="hcell-act-col11-cat2" fill="#D9534F" stroke="#000" stroke-width="5" width="70" height="20" x="0" y="-25" rx="8" ry="8"/><rect class="hcell-col11-cat2" fill="#D9534F" stroke="#DDD" width="70" height="30" x="0" y="-30" rx="8" ry="8"/><text text-anchor="middle" fill="#FFF" x="35" y="-10">401</text></a></g></g></g></g><rect fill="none" stroke="#DDD" width="70" height="30" rx="8" ry="8" x="885" y="142"/><text text-anchor="middle" fill="#333" x="920" y="162">13-06</text><g transform="translate(885,182)"><g><a target="_top" xlink:href="dtp-slice3-step2628000-ofs0-col11-cat1.html"><rect style="display:none" class="hcell-act-col11-cat1" fill="#337AB7" stroke="#000" stroke-width="5" width="70" height="20" x="0" y="5" rx="8" ry="8"/><rect class="hcell-col11-cat1" fill="#337AB7" stroke="#DDD" width="70" height="30" x="0" y="0" rx="8" ry="8"/><text text-anchor="middle" fill="#FFF" x="35" y="20">-78</text></a></g></g></g><g><g transform="translate(965,132)"><g><a target="_top" xlink:href="dtp-slice3-step2628000-ofs0-col12-cat2.html"><rect style="display:none" class="hcell-act-col12-cat2" fill="#D9534F" stroke="#000" stroke-width="5" width="70" height="47" x="0" y="-52" rx="8" ry="8"/><rect class="hcell-col12-cat2" fill="#D9534F" stroke="#DDD" width="70" height="57" x="0" y="-57" rx="8" ry="8"/><text text-anchor="middle" fill="#FFF" x="35" y="-37">960</text></a></g></g><rect fill="none" stroke="#DDD" width="70" height="30" rx="8" ry="8" x="965" y="142"/><text text-anchor="middle" fill="#333" x="1000" y="162">13-07</text><g transform="translate(965,182)"><g><a target="_top" xlink:href="dtp-slice3-step2628000-ofs0-col12-cat1.html"><rect style="display:none" class="hcell-act-col12-cat1" fill="#337AB7" stroke="#000" stroke-width="5" width="70" height="20" x="0" y="5" rx="8" ry="8"/><rect class="hcell-col12-cat1" fill="#337AB7" stroke="#DDD" width="70" height="30" x="0" y="0" rx="8" ry="8"/><text text-anchor="middle" fill="#FFF" x="35" y="20">-120</text></a><g transform="translate(0,30)"><g><a target="_top" xlink:href="dtp-slice3-step2628000-ofs0-col12-cat0.html"><rect style="display:none" class="hcell-act-col12-cat0" fill="#5CB85C" stroke="#000" stroke-width="5" width="70" height="254" x="0" y="5" rx="8" ry="8"/><rect class="hcell-col12-cat0" fill="#5CB85C" stroke="#DDD" width="70" height="264" x="0" y="0" rx="8" ry="8"/><text text-anchor="middle" fill="#FFF" x="35" y="20">-4438</text></a></g></g></g></g></g><g><g transform="translate(1045,132)"><g><a target="_top" xlink:href="dtp-slice3-step2628000-ofs0-col13-cat2.html"><rect style="display:none" class="hcell-act-col13-cat2" fill="#D9534F" stroke="#000" stroke-width="5" width="70" height="31" x="0" y="-36" rx="8" ry="8"/><rect class="hcell-col13-cat2" fill="#D9534F" stroke="#DDD" width="70" height="41" x="0" y="-41" rx="8" ry="8"/><text text-anchor="middle" fill="#FFF" x="35" y="-21">697</text></a></g></g><rect fill="none" stroke="#DDD" width="70" height="30" rx="8" ry="8" x="1045" y="142"/><text text-anchor="middle" fill="#333" x="1080" y="162">13-08</text><g transform="translate(1045,182)"><g><a target="_top" xlink:href="dtp-slice3-step2628000-ofs0-col13-cat1.html"><rect style="display:none" class="hcell-act-col13-cat1" fill="#337AB7" stroke="#000" stroke-width="5" width="70" height="20" x="0" y="5" rx="8" ry="8"/><rect class="hcell-col13-cat1" fill="#337AB7" stroke="#DDD" width="70" height="30" x="0" y="0" rx="8" ry="8"/><text text-anchor="middle" fill="#FFF" x="35" y="20">-105</text></a><g transform="translate(0,30)"><g><a target="_top" xlink:href="dtp-slice3-step2628000-ofs0-col13-cat0.html"><rect style="display:none" class="hcell-act-col13-cat0" fill="#5CB85C" stroke="#000" stroke-width="5" width="70" height="20" x="0" y="5" rx="8" ry="8"/><rect class="hcell-col13-cat0" fill="#5CB85C" stroke="#DDD" width="70" height="30" x="0" y="0" rx="8" ry="8"/><text text-anchor="middle" fill="#FFF" x="35" y="20">-218</text></a></g></g></g></g></g><g><g transform="translate(1125,132)"><g><a target="_top" xlink:href="dtp-slice3-step2628000-ofs0-col14-cat2.html"><rect style="display:none" class="hcell-act-col14-cat2" fill="#D9534F" stroke="#000" stroke-width="5" width="70" height="20" x="0" y="-25" rx="8" ry="8"/><rect class="hcell-col14-cat2" fill="#D9534F" stroke="#DDD" width="70" height="30" x="0" y="-30" rx="8" ry="8"/><text text-anchor="middle" fill="#FFF" x="35" y="-10">235</text></a><g transform="translate(0,-30)"><g><a target="_top" xlink:href="dtp-slice3-step2628000-ofs0-col14-cat0.html"><rect style="display:none" class="hcell-act-col14-cat0" fill="#5CB85C" stroke="#000" stroke-width="5" width="70" height="22" x="0" y="-27" rx="8" ry="8"/><rect class="hcell-col14-cat0" fill="#5CB85C" stroke="#DDD" width="70" height="32" x="0" y="-32" rx="8" ry="8"/><text text-anchor="middle" fill="#FFF" x="35" y="-12">541</text></a></g></g></g></g><rect fill="none" stroke="#DDD" width="70" height="30" rx="8" ry="8" x="1125" y="142"/><text text-anchor="middle" fill="#333" x="1160" y="162">13-08</text><g transform="translate(1125,182)"><g><a target="_top" xlink:href="dtp-slice3-step2628000-ofs0-col14-cat1.html"><rect style="display:none" class="hcell-act-col14-cat1" fill="#337AB7" stroke="#000" stroke-width="5" width="70" height="20" x="0" y="5" rx="8" ry="8"/><rect class="hcell-col14-cat1" fill="#337AB7" stroke="#DDD" width="70" height="30" x="0" y="0" rx="8" ry="8"/><text text-anchor="middle" fill="#FFF" x="35" y="20">-40</text></a></g></g></g><g><g transform="translate(1205,132)"><g><a target="_top" xlink:href="dtp-slice3-step2628000-ofs0-col15-cat0.html"><rect style="display:none" class="hcell-act-col15-cat0" fill="#5CB85C" stroke="#000" stroke-width="5" width="70" height="20" x="0" y="-25" rx="8" ry="8"/><rect class="hcell-col15-cat0" fill="#5CB85C" stroke="#DDD" width="70" height="30" x="0" y="-30" rx="8" ry="8"/><text text-anchor="middle" fill="#FFF" x="35" y="-10">183</text></a><g transform="translate(0,-30)"><g><a target="_top" xlink:href="dtp-slice3-step2628000-ofs0-col15-cat2.html"><rect style="display:none" class="hcell-act-col15-cat2" fill="#D9534F" stroke="#000" stroke-width="5" width="70" height="23" x="0" y="-28" rx="8" ry="8"/><rect class="hcell-col15-cat2" fill="#D9534F" stroke="#DDD" width="70" height="33" x="0" y="-33" rx="8" ry="8"/><text text-anchor="middle" fill="#FFF" x="35" y="-13">562</text></a></g></g></g></g><rect fill="none" stroke="#DDD" width="70" height="30" rx="8" ry="8" x="1205" y="142"/><text text-anchor="middle" fill="#333" x="1240" y="162">13-10</text><g transform="translate(1205,182)"><g><a target="_top" xlink:href="dtp-slice3-step2628000-ofs0-col15-cat1.html"><rect style="display:none" class="hcell-act-col15-cat1" fill="#337AB7" stroke="#000" stroke-width="5" width="70" height="20" x="0" y="5" rx="8" ry="8"/><rect class="hcell-col15-cat1" fill="#337AB7" stroke="#DDD" width="70" height="30" x="0" y="0" rx="8" ry="8"/><text text-anchor="middle" fill="#FFF" x="35" y="20">-147</text></a></g></g></g></svg>