<svg xmlns="http://www.w3.org/2000/svg" xmlns:xlink="http://www.w3.org/1999/xlink" width="100%" height="100%" viewBox="0 0 400 459"><g><g transform="translate(5,99)"><g><a target="_top" xlink:href="mob-sliceTagAsset-step17850241-ofs0-col0-cat0.html"><rect style="display:none" class="hcell-act-col0-cat0" fill="#777" stroke="#000" stroke-width="5" width="70" height="84" x="0" y="-89" rx="8" ry="8"/><rect class="hcell-col0-cat0" fill="#777" stroke="#DDD" width="70" height="94" x="0" y="-94" rx="8" ry="8"/><text text-anchor="middle" fill="#FFF" x="35" y="-74">2067</text></a></g></g><rect fill="none" stroke="#DDD" width="70" height="30" rx="8" ry="8" x="5" y="109"/><text text-anchor="middle" fill="#333" x="40" y="129">12-07</text><g transform="translate(5,149)"></g></g><g><g transform="translate(85,99)"></g><rect fill="none" stroke="#DDD" width="70" height="30" rx="8" ry="8" x="85" y="109"/><text text-anchor="middle" fill="#333" x="120" y="129">13-01</text><g transform="translate(85,149)"><g><a target="_top" xlink:href="mob-sliceTagAsset-step17850241-ofs0-col1-cat0.html"><rect style="display:none" class="hcell-act-col1-cat0" fill="#777" stroke="#000" stroke-width="5" width="70" height="75" x="0" y="5" rx="8" ry="8"/><rect class="hcell-col1-cat0" fill="#777" stroke="#DDD" width="70" height="85" x="0" y="0" rx="8" ry="8"/><text text-anchor="middle" fill="#FFF" x="35" y="20">-1869</text></a></g></g></g><g><g transform="translate(165,99)"></g><rect fill="none" stroke="#DDD" width="70" height="30" rx="8" ry="8" x="165" y="109"/><text text-anchor="middle" fill="#333" x="200" y="129">13-08</text><g transform="translate(165,149)"><g><a target="_top" xlink:href="mob-sliceTagAsset-step17850241-ofs0-col2-cat0.html"><rect style="display:none" class="hcell-act-col2-cat0" fill="#777" stroke="#000" stroke-width="5" width="70" height="105" x="0" y="5" rx="8" ry="8"/><rect class="hcell-col2-cat0" fill="#777" stroke="#DDD" width="70" height="115" x="0" y="0" rx="8" ry="8"/><text text-anchor="middle" fill="#FFF" x="35" y="20">-2509</text></a></g></g></g><g><g transform="translate(245,99)"></g><rect fill="none" stroke="#DDD" width="70" height="30" rx="8" ry="8" x="245" y="109"/><text text-anchor="middle" fill="#333" x="280" y="129">14-03</text><g transform="translate(245,149)"><g><a target="_top" xlink:href="mob-sliceTagAsset-step17850241-ofs0-col3-cat0.html"><rect style="display:none" class="hcell-act-col3-cat0" fill="#777" stroke="#000" stroke-width="5" width="70" height="295" x="0" y="5" rx="8" ry="8"/><rect class="hcell-col3-cat0" fill="#777" stroke="#DDD" width="70" height="305" x="0" y="0" rx="8" ry="8"/><text text-anchor="middle" fill="#FFF" x="35" y="20">-6648</text></a></g></g></g><g><g transform="translate(325,99)"></g><rect fill="none" stroke="#DDD" width="70" height="30" rx="8" ry="8" x="325" y="109"/><text text-anchor="middle" fill="#333" x="360" y="129">14-10</text><g transform="translate(325,149)"><g><a target="_top" xlink:href="mob-sliceTagAsset-step17850241-ofs0-col4-cat0.html"><rect style="display:none" class="hcell-act-col4-cat0" fill="#777" stroke="#000" stroke-width="5" width="70" height="246" x="0" y="5" rx="8" ry="8"/><rect class="hcell-col4-cat0" fill="#777" stroke="#DDD" width="70" height="256" x="0" y="0" rx="8" ry="8"/><text text-anchor="middle" fill="#FFF" x="35" y="20">-5598</text></a></g></g></g></svg>