<svg xmlns="http://www.w3.org/2000/svg" xmlns:xlink="http://www.w3.org/1999/xlink" width="100%" height="100%" viewBox="0 0 400 480"><g><g transform="translate(5,74)"><g><a target="_top" xlink:href="mob-slice3-step2628000-ofs9-col9-cat2.html"><rect style="display:none" class="hcell-act-col9-cat2" fill="#D9534F" stroke="#000" stroke-width="5" width="70" height="30" x="0" y="-35" rx="8" ry="8"/><rect class="hcell-col9-cat2" fill="#D9534F" stroke="#DDD" width="70" height="40" x="0" y="-40" rx="8" ry="8"/><text text-anchor="middle" fill="#FFF" x="35" y="-20">563</text></a></g></g><rect fill="none" stroke="#DDD" width="70" height="30" rx="8" ry="8" x="5" y="84"/><text text-anchor="middle" fill="#333" x="40" y="104">13-04</text><g transform="translate(5,124)"><g><a target="_top" xlink:href="mob-slice3-step2628000-ofs9-col9-cat0.html"><rect style="display:none" class="hcell-act-col9-cat0" fill="#5CB85C" stroke="#000" stroke-width="5" width="70" height="20" x="0" y="5" rx="8" ry="8"/><rect class="hcell-col9-cat0" fill="#5CB85C" stroke="#DDD" width="70" height="30" x="0" y="0" rx="8" ry="8"/><text text-anchor="middle" fill="#FFF" x="35" y="20">-19</text></a><g transform="translate(0,30)"><g><a target="_top" xlink:href="mob-slice3-step2628000-ofs9-col9-cat1.html"><rect style="display:none" class="hcell-act-col9-cat1" fill="#337AB7" stroke="#000" stroke-width="5" width="70" height="20" x="0" y="5" rx="8" ry="8"/><rect class="hcell-col9-cat1" fill="#337AB7" stroke="#DDD" width="70" height="30" x="0" y="0" rx="8" ry="8"/><text text-anchor="middle" fill="#FFF" x="35" y="20">-107</text></a></g></g></g></g></g><g><g transform="translate(85,74)"><g><a target="_top" xlink:href="mob-slice3-step2628000-ofs9-col10-cat2.html"><rect style="display:none" class="hcell-act-col10-cat2" fill="#D9534F" stroke="#000" stroke-width="5" width="70" height="34" x="0" y="-39" rx="8" ry="8"/><rect class="hcell-col10-cat2" fill="#D9534F" stroke="#DDD" width="70" height="44" x="0" y="-44" rx="8" ry="8"/><text text-anchor="middle" fill="#FFF" x="35" y="-24">607</text></a></g></g><rect fill="none" stroke="#DDD" width="70" height="30" rx="8" ry="8" x="85" y="84"/><text text-anchor="middle" fill="#333" x="120" y="104">13-05</text><g transform="translate(85,124)"><g><a target="_top" xlink:href="mob-slice3-step2628000-ofs9-col10-cat1.html"><rect style="display:none" class="hcell-act-col10-cat1" fill="#337AB7" stroke="#000" stroke-width="5" width="70" height="20" x="0" y="5" rx="8" ry="8"/><rect class="hcell-col10-cat1" fill="#337AB7" stroke="#DDD" width="70" height="30" x="0" y="0" rx="8" ry="8"/><text text-anchor="middle" fill="#FFF" x="35" y="20">-84</text></a><g transform="translate(0,30)"><g><a target="_top" xlink:href="mob-slice3-step2628000-ofs9-col10-cat0.html"><rect style="display:none" class="hcell-act-col10-cat0" fill="#5CB85C" stroke="#000" stroke-width="5" width="70" height="20" x="0" y="5" rx="8" ry="8"/><rect class="hcell-col10-cat0" fill="#5CB85C" stroke="#DDD" width="70" height="30" x="0" y="0" rx="8" ry="8"/><text text-anchor="middle" fill="#FFF" x="35" y="20">-110</text></a></g></g></g></g></g><g><g transform="translate(165,74)"><g><a target="_top" xlink:href="mob-slice3-step2628000-ofs9-col11-cat0.html"><rect style="display:none" class="hcell-act-col11-cat0" fill="#5CB85C" stroke="#000" stroke-width="5" width="70" height="20" x="0" y="-25" rx="8" ry="8"/><rect class="hcell-col11-cat0" fill="#5CB85C" stroke="#DDD" width="70" height="30" x="0" y="-30" rx="8" ry="8"/><text text-anchor="middle" fill="#FFF" x="35" y="-10">108</text></a><g transform="translate(0,-30)"><g><a target="_top" xlink:href="mob-slice3-step2628000-ofs9-col11-cat2.html"><rect style="display:none" class="hcell-act-col11-cat2" fill="#D9534F" stroke="#000" stroke-width="5" width="70" height="20" x="0" y="-25" rx="8" ry="8"/><rect class="hcell-col11-cat2" fill="#D9534F" stroke="#DDD" width="70" height="30" x="0" y="-30" rx="8" ry="8"/><text text-anchor="middle" fill="#FFF" x="35" y="-10">401</text></a></g></g></g></g><rect fill="none" stroke="#DDD" width="70" height="30" rx="8" ry="8" x="165" y="84"/><text text-anchor="middle" fill="#333" x="200" y="104">13-06</text><g transform="translate(165,124)"><g><a target="_top" xlink:href="mob-slice3-step2628000-ofs9-col11-cat1.html"><rect style="display:none" class="hcell-act-col11-cat1" fill="#337AB7" stroke="#000" stroke-width="5" width="70" height="20" x="0" y="5" rx="8" ry="8"/><rect class="hcell-col11-cat1" fill="#337AB7" stroke="#DDD" width="70" height="30" x="0" y="0" rx="8" ry="8"/><text text-anchor="middle" fill="#FFF" x="35" y="20">-78</text></a></g></g></g><g><g transform="translate(245,74)"><g><a target="_top" xlink:href="mob-slice3-step2628000-ofs9-col12-cat2.html"><rect style="display:none" class="hcell-act-col12-cat2" fill="#D9534F" stroke="#000" stroke-width="5" width="70" height="59" x="0" y="-64" rx="8" ry="8"/><rect class="hcell-col12-cat2" fill="#D9534F" stroke="#DDD" width="70" height="69" x="0" y="-69" rx="8" ry="8"/><text text-anchor="middle" fill="#FFF" x="35" y="-49">960</text></a></g></g><rect fill="none" stroke="#DDD" width="70" height="30" rx="8" ry="8" x="245" y="84"/><text text-anchor="middle" fill="#333" x="280" y="104">13-07</text><g transform="translate(245,124)"><g><a target="_top" xlink:href="mob-slice3-step2628000-ofs9-col12-cat1.html"><rect style="display:none" class="hcell-act-col12-cat1" fill="#337AB7" stroke="#000" stroke-width="5" width="70" height="20" x="0" y="5" rx="8" ry="8"/><rect class="hcell-col12-cat1" fill="#337AB7" stroke="#DDD" width="70" height="30" x="0" y="0" rx="8" ry="8"/><text text-anchor="middle" fill="#FFF" x="35" y="20">-120</text></a><g transform="translate(0,30)"><g><a target="_top" xlink:href="mob-slice3-step2628000-ofs9-col12-cat0.html"><rect style="display:none" class="hcell-act-col12-cat0" fill="#5CB85C" stroke="#000" stroke-width="5" width="70" height="311" x="0" y="5" rx="8" ry="8"/><rect class="hcell-col12-cat0" fill="#5CB85C" stroke="#DDD" width="70" height="321" x="0" y="0" rx="8" ry="8"/><text text-anchor="middle" fill="#FFF" x="35" y="20">-4438</text></a></g></g></g></g></g><g><g transform="translate(325,74)"><g><a target="_top" xlink:href="mob-slice3-step2628000-ofs9-col13-cat2.html"><rect style="display:none" class="hcell-act-col13-cat2" fill="#D9534F" stroke="#000" stroke-width="5" width="70" height="40" x="0" y="-45" rx="8" ry="8"/><rect class="hcell-col13-cat2" fill="#D9534F" stroke="#DDD" width="70" height="50" x="0" y="-50" rx="8" ry="8"/><text text-anchor="middle" fill="#FFF" x="35" y="-30">697</text></a></g></g><rect fill="none" stroke="#DDD" width="70" height="30" rx="8" ry="8" x="325" y="84"/><text text-anchor="middle" fill="#333" x="360" y="104">13-08</text><g transform="translate(325,124)"><g><a target="_top" xlink:href="mob-slice3-step2628000-ofs9-col13-cat1.html"><rect style="display:none" class="hcell-act-col13-cat1" fill="#337AB7" stroke="#000" stroke-width="5" width="70" height="20" x="0" y="5" rx="8" ry="8"/><rect class="hcell-col13-cat1" fill="#337AB7" stroke="#DDD" width="70" height="30" x="0" y="0" rx="8" ry="8"/><text text-anchor="middle" fill="#FFF" x="35" y="20">-105</text></a><g transform="translate(0,30)"><g><a target="_top" xlink:href="mob-slice3-step2628000-ofs9-col13-cat0.html"><rect style="display:none" class="hcell-act-col13-cat0" fill="#5CB85C" stroke="#000" stroke-width="5" width="70" height="20" x="0" y="5" rx="8" ry="8"/><rect class="hcell-col13-cat0" fill="#5CB85C" stroke="#DDD" width="70" height="30" x="0" y="0" rx="8" ry="8"/><text text-anchor="middle" fill="#FFF" x="35" y="20">-218</text></a></g></g></g></g></g></svg>