<svg xmlns="http://www.w3.org/2000/svg" xmlns:xlink="http://www.w3.org/1999/xlink" width="100%" height="100%" viewBox="0 0 400 459"><g><g transform="translate(5,208)"></g><rect fill="none" stroke="#DDD" width="70" height="30" rx="8" ry="8" x="5" y="218"/><text text-anchor="middle" fill="#333" x="40" y="238">14-07</text><g transform="translate(5,258)"><g><a target="_top" xlink:href="mob-sliceTagOther-step2628000-ofs24-col24-cat0.html"><rect style="display:none" class="hcell-act-col24-cat0" fill="#777" stroke="#000" stroke-width="5" width="70" height="20" x="0" y="5" rx="8" ry="8"/><rect class="hcell-col24-cat0" fill="#777" stroke="#DDD" width="70" height="30" x="0" y="0" rx="8" ry="8"/><text text-anchor="middle" fill="#FFF" x="35" y="20">-208</text></a></g></g></g><g><g transform="translate(85,208)"><g><a target="_top" xlink:href="mob-sliceTagOther-step2628000-ofs24-col25-cat0.html"><rect style="display:none" class="hcell-act-col25-cat0" fill="#777" stroke="#000" stroke-width="5" width="70" height="193" x="0" y="-198" rx="8" ry="8"/><rect class="hcell-col25-cat0" fill="#777" stroke="#DDD" width="70" height="203" x="0" y="-203" rx="8" ry="8"/><text text-anchor="middle" fill="#FFF" x="35" y="-183">2621</text></a></g></g><rect fill="none" stroke="#DDD" width="70" height="30" rx="8" ry="8" x="85" y="218"/><text text-anchor="middle" fill="#333" x="120" y="238">14-08</text><g transform="translate(85,258)"></g></g><g><g transform="translate(165,208)"></g><rect fill="none" stroke="#DDD" width="70" height="30" rx="8" ry="8" x="165" y="218"/><text text-anchor="middle" fill="#333" x="200" y="238">14-08</text><g transform="translate(165,258)"><g><a target="_top" xlink:href="mob-sliceTagOther-step2628000-ofs24-col26-cat0.html"><rect style="display:none" class="hcell-act-col26-cat0" fill="#777" stroke="#000" stroke-width="5" width="70" height="186" x="0" y="5" rx="8" ry="8"/><rect class="hcell-col26-cat0" fill="#777" stroke="#DDD" width="70" height="196" x="0" y="0" rx="8" ry="8"/><text text-anchor="middle" fill="#FFF" x="35" y="20">-2520</text></a></g></g></g><g><g transform="translate(245,208)"><g><a target="_top" xlink:href="mob-sliceTagOther-step2628000-ofs24-col27-cat0.html"><rect style="display:none" class="hcell-act-col27-cat0" fill="#777" stroke="#000" stroke-width="5" width="70" height="112" x="0" y="-117" rx="8" ry="8"/><rect class="hcell-col27-cat0" fill="#777" stroke="#DDD" width="70" height="122" x="0" y="-122" rx="8" ry="8"/><text text-anchor="middle" fill="#FFF" x="35" y="-102">1569</text></a></g></g><rect fill="none" stroke="#DDD" width="70" height="30" rx="8" ry="8" x="245" y="218"/><text text-anchor="middle" fill="#333" x="280" y="238">14-10</text><g transform="translate(245,258)"></g></g><g><g transform="translate(325,208)"></g><rect fill="none" stroke="#DDD" width="70" height="30" rx="8" ry="8" x="325" y="218"/><text text-anchor="middle" fill="#333" x="360" y="238">14-10</text><g transform="translate(325,258)"><g><a target="_top" xlink:href="mob-sliceTagOther-step2628000-ofs24-col28-cat0.html"><rect style="display:none" class="hcell-act-col28-cat0" fill="#777" stroke="#000" stroke-width="5" width="70" height="51" x="0" y="5" rx="8" ry="8"/><rect class="hcell-col28-cat0" fill="#777" stroke="#DDD" width="70" height="61" x="0" y="0" rx="8" ry="8"/><text text-anchor="middle" fill="#FFF" x="35" y="20">-793</text></a></g></g></g></svg>