<svg xmlns="http://www.w3.org/2000/svg" xmlns:xlink="http://www.w3.org/1999/xlink" width="100%" height="100%" viewBox="0 0 400 459"><g><g transform="translate(5,42)"><g><a target="_top" xlink:href="mob-sliceTagOther-step2628000-ofs9-col9-cat0.html"><rect style="display:none" class="hcell-act-col9-cat0" fill="#777" stroke="#000" stroke-width="5" width="70" height="25" x="0" y="-30" rx="8" ry="8"/><rect class="hcell-col9-cat0" fill="#777" stroke="#DDD" width="70" height="35" x="0" y="-35" rx="8" ry="8"/><text text-anchor="middle" fill="#FFF" x="35" y="-15">376</text></a></g></g><rect fill="none" stroke="#DDD" width="70" height="30" rx="8" ry="8" x="5" y="52"/><text text-anchor="middle" fill="#333" x="40" y="72">13-04</text><g transform="translate(5,92)"></g></g><g><g transform="translate(85,42)"><g><a target="_top" xlink:href="mob-sliceTagOther-step2628000-ofs9-col10-cat0.html"><rect style="display:none" class="hcell-act-col10-cat0" fill="#777" stroke="#000" stroke-width="5" width="70" height="20" x="0" y="-25" rx="8" ry="8"/><rect class="hcell-col10-cat0" fill="#777" stroke="#DDD" width="70" height="30" x="0" y="-30" rx="8" ry="8"/><text text-anchor="middle" fill="#FFF" x="35" y="-10">318</text></a></g></g><rect fill="none" stroke="#DDD" width="70" height="30" rx="8" ry="8" x="85" y="52"/><text text-anchor="middle" fill="#333" x="120" y="72">13-05</text><g transform="translate(85,92)"></g></g><g><g transform="translate(165,42)"><g><a target="_top" xlink:href="mob-sliceTagOther-step2628000-ofs9-col11-cat0.html"><rect style="display:none" class="hcell-act-col11-cat0" fill="#777" stroke="#000" stroke-width="5" width="70" height="27" x="0" y="-32" rx="8" ry="8"/><rect class="hcell-col11-cat0" fill="#777" stroke="#DDD" width="70" height="37" x="0" y="-37" rx="8" ry="8"/><text text-anchor="middle" fill="#FFF" x="35" y="-17">391</text></a></g></g><rect fill="none" stroke="#DDD" width="70" height="30" rx="8" ry="8" x="165" y="52"/><text text-anchor="middle" fill="#333" x="200" y="72">13-06</text><g transform="translate(165,92)"></g></g><g><g transform="translate(245,42)"></g><rect fill="none" stroke="#DDD" width="70" height="30" rx="8" ry="8" x="245" y="52"/><text text-anchor="middle" fill="#333" x="280" y="72">13-07</text><g transform="translate(245,92)"><g><a target="_top" xlink:href="mob-sliceTagOther-step2628000-ofs9-col12-cat0.html"><rect style="display:none" class="hcell-act-col12-cat0" fill="#777" stroke="#000" stroke-width="5" width="70" height="352" x="0" y="5" rx="8" ry="8"/><rect class="hcell-col12-cat0" fill="#777" stroke="#DDD" width="70" height="362" x="0" y="0" rx="8" ry="8"/><text text-anchor="middle" fill="#FFF" x="35" y="20">-3831</text></a></g></g></g><g><g transform="translate(325,42)"><g><a target="_top" xlink:href="mob-sliceTagOther-step2628000-ofs9-col13-cat0.html"><rect style="display:none" class="hcell-act-col13-cat0" fill="#777" stroke="#000" stroke-width="5" width="70" height="20" x="0" y="-25" rx="8" ry="8"/><rect class="hcell-col13-cat0" fill="#777" stroke="#DDD" width="70" height="30" x="0" y="-30" rx="8" ry="8"/><text text-anchor="middle" fill="#FFF" x="35" y="-10">271</text></a></g></g><rect fill="none" stroke="#DDD" width="70" height="30" rx="8" ry="8" x="325" y="52"/><text text-anchor="middle" fill="#333" x="360" y="72">13-08</text><g transform="translate(325,92)"></g></g></svg>