<svg xmlns="http://www.w3.org/2000/svg" xmlns:xlink="http://www.w3.org/1999/xlink" width="100%" height="100%" viewBox="0 0 400 459"><g><g transform="translate(5,209)"><g><a target="_top" xlink:href="mob-sliceTagOther-step2628000-ofs14-col14-cat0.html"><rect style="display:none" class="hcell-act-col14-cat0" fill="#777" stroke="#000" stroke-width="5" width="70" height="100" x="0" y="-105" rx="8" ry="8"/><rect class="hcell-col14-cat0" fill="#777" stroke="#DDD" width="70" height="110" x="0" y="-110" rx="8" ry="8"/><text text-anchor="middle" fill="#FFF" x="35" y="-90">2770</text></a></g></g><rect fill="none" stroke="#DDD" width="70" height="30" rx="8" ry="8" x="5" y="219"/><text text-anchor="middle" fill="#333" x="40" y="239">13-08</text><g transform="translate(5,259)"><g><a target="_top" xlink:href="mob-sliceTagOther-step2628000-ofs14-col14-cat0.html"><rect style="display:none" class="hcell-act-col14-cat0" fill="#777" stroke="#000" stroke-width="5" width="70" height="72" x="0" y="5" rx="8" ry="8"/><rect class="hcell-col14-cat0" fill="#777" stroke="#DDD" width="70" height="82" x="0" y="0" rx="8" ry="8"/><text text-anchor="middle" fill="#FFF" x="35" y="20">-2059</text></a></g></g></g><g><g transform="translate(85,209)"><g><a target="_top" xlink:href="mob-sliceTagOther-step2628000-ofs14-col15-cat0.html"><rect style="display:none" class="hcell-act-col15-cat0" fill="#777" stroke="#000" stroke-width="5" width="70" height="115" x="0" y="-120" rx="8" ry="8"/><rect class="hcell-col15-cat0" fill="#777" stroke="#DDD" width="70" height="125" x="0" y="-125" rx="8" ry="8"/><text text-anchor="middle" fill="#FFF" x="35" y="-105">3146</text></a></g></g><rect fill="none" stroke="#DDD" width="70" height="30" rx="8" ry="8" x="85" y="219"/><text text-anchor="middle" fill="#333" x="120" y="239">13-10</text><g transform="translate(85,259)"><g><a target="_top" xlink:href="mob-sliceTagOther-step2628000-ofs14-col15-cat0.html"><rect style="display:none" class="hcell-act-col15-cat0" fill="#777" stroke="#000" stroke-width="5" width="70" height="90" x="0" y="5" rx="8" ry="8"/><rect class="hcell-col15-cat0" fill="#777" stroke="#DDD" width="70" height="100" x="0" y="0" rx="8" ry="8"/><text text-anchor="middle" fill="#FFF" x="35" y="20">-2528</text></a></g></g></g><g><g transform="translate(165,209)"><g><a target="_top" xlink:href="mob-sliceTagOther-step2628000-ofs14-col16-cat0.html"><rect style="display:none" class="hcell-act-col16-cat0" fill="#777" stroke="#000" stroke-width="5" width="70" height="194" x="0" y="-199" rx="8" ry="8"/><rect class="hcell-col16-cat0" fill="#777" stroke="#DDD" width="70" height="204" x="0" y="-204" rx="8" ry="8"/><text text-anchor="middle" fill="#FFF" x="35" y="-184">5130</text></a></g></g><rect fill="none" stroke="#DDD" width="70" height="30" rx="8" ry="8" x="165" y="219"/><text text-anchor="middle" fill="#333" x="200" y="239">13-10</text><g transform="translate(165,259)"><g><a target="_top" xlink:href="mob-sliceTagOther-step2628000-ofs14-col16-cat0.html"><rect style="display:none" class="hcell-act-col16-cat0" fill="#777" stroke="#000" stroke-width="5" width="70" height="181" x="0" y="5" rx="8" ry="8"/><rect class="hcell-col16-cat0" fill="#777" stroke="#DDD" width="70" height="191" x="0" y="0" rx="8" ry="8"/><text text-anchor="middle" fill="#FFF" x="35" y="20">-4799</text></a></g></g></g><g><g transform="translate(245,209)"><g><a target="_top" xlink:href="mob-sliceTagOther-step2628000-ofs14-col17-cat0.html"><rect style="display:none" class="hcell-act-col17-cat0" fill="#777" stroke="#000" stroke-width="5" width="70" height="135" x="0" y="-140" rx="8" ry="8"/><rect class="hcell-col17-cat0" fill="#777" stroke="#DDD" width="70" height="145" x="0" y="-145" rx="8" ry="8"/><text text-anchor="middle" fill="#FFF" x="35" y="-125">3637</text></a></g></g><rect fill="none" stroke="#DDD" width="70" height="30" rx="8" ry="8" x="245" y="219"/><text text-anchor="middle" fill="#333" x="280" y="239">13-12</text><g transform="translate(245,259)"><g><a target="_top" xlink:href="mob-sliceTagOther-step2628000-ofs14-col17-cat0.html"><rect style="display:none" class="hcell-act-col17-cat0" fill="#777" stroke="#000" stroke-width="5" width="70" height="133" x="0" y="5" rx="8" ry="8"/><rect class="hcell-col17-cat0" fill="#777" stroke="#DDD" width="70" height="143" x="0" y="0" rx="8" ry="8"/><text text-anchor="middle" fill="#FFF" x="35" y="20">-3592</text></a></g></g></g><g><g transform="translate(325,209)"><g><a target="_top" xlink:href="mob-sliceTagOther-step2628000-ofs14-col18-cat0.html"><rect style="display:none" class="hcell-act-col18-cat0" fill="#777" stroke="#000" stroke-width="5" width="70" height="178" x="0" y="-183" rx="8" ry="8"/><rect class="hcell-col18-cat0" fill="#777" stroke="#DDD" width="70" height="188" x="0" y="-188" rx="8" ry="8"/><text text-anchor="middle" fill="#FFF" x="35" y="-168">4712</text></a></g></g><rect fill="none" stroke="#DDD" width="70" height="30" rx="8" ry="8" x="325" y="219"/><text text-anchor="middle" fill="#333" x="360" y="239">13-12</text><g transform="translate(325,259)"><g><a target="_top" xlink:href="mob-sliceTagOther-step2628000-ofs14-col18-cat0.html"><rect style="display:none" class="hcell-act-col18-cat0" fill="#777" stroke="#000" stroke-width="5" width="70" height="185" x="0" y="5" rx="8" ry="8"/><rect class="hcell-col18-cat0" fill="#777" stroke="#DDD" width="70" height="195" x="0" y="0" rx="8" ry="8"/><text text-anchor="middle" fill="#FFF" x="35" y="20">-4891</text></a></g></g></g></svg>