<svg xmlns="http://www.w3.org/2000/svg" xmlns:xlink="http://www.w3.org/1999/xlink" width="100%" height="100%" viewBox="0 0 400 460"><g><g transform="translate(5,5)"></g><rect fill="none" stroke="#DDD" width="70" height="30" rx="8" ry="8" x="5" y="15"/><text text-anchor="middle" fill="#333" x="40" y="35">14-01</text><g transform="translate(5,55)"><g><a target="_top" xlink:href="mob-slice1-step2628000-ofs19-col19-cat0.html"><rect style="display:none" class="hcell-act-col19-cat0" fill="#337AB7" stroke="#000" stroke-width="5" width="70" height="295" x="0" y="5" rx="8" ry="8"/><rect class="hcell-col19-cat0" fill="#337AB7" stroke="#DDD" width="70" height="305" x="0" y="0" rx="8" ry="8"/><text text-anchor="middle" fill="#FFF" x="35" y="20">-100</text></a></g></g></g><g><g transform="translate(85,5)"></g><rect fill="none" stroke="#DDD" width="70" height="30" rx="8" ry="8" x="85" y="15"/><text text-anchor="middle" fill="#333" x="120" y="35">14-03</text><g transform="translate(85,55)"><g><a target="_top" xlink:href="mob-slice1-step2628000-ofs19-col20-cat0.html"><rect style="display:none" class="hcell-act-col20-cat0" fill="#337AB7" stroke="#000" stroke-width="5" width="70" height="390" x="0" y="5" rx="8" ry="8"/><rect class="hcell-col20-cat0" fill="#337AB7" stroke="#DDD" width="70" height="400" x="0" y="0" rx="8" ry="8"/><text text-anchor="middle" fill="#FFF" x="35" y="20">-130</text></a></g></g></g><g><g transform="translate(165,5)"></g><rect fill="none" stroke="#DDD" width="70" height="30" rx="8" ry="8" x="165" y="15"/><text text-anchor="middle" fill="#333" x="200" y="35">14-04</text><g transform="translate(165,55)"><g><a target="_top" xlink:href="mob-slice1-step2628000-ofs19-col21-cat0.html"><rect style="display:none" class="hcell-act-col21-cat0" fill="#337AB7" stroke="#000" stroke-width="5" width="70" height="336" x="0" y="5" rx="8" ry="8"/><rect class="hcell-col21-cat0" fill="#337AB7" stroke="#DDD" width="70" height="346" x="0" y="0" rx="8" ry="8"/><text text-anchor="middle" fill="#FFF" x="35" y="20">-113</text></a></g></g></g><g><g transform="translate(245,5)"></g><rect fill="none" stroke="#DDD" width="70" height="30" rx="8" ry="8" x="245" y="15"/><text text-anchor="middle" fill="#333" x="280" y="35">14-05</text><g transform="translate(245,55)"><g><a target="_top" xlink:href="mob-slice1-step2628000-ofs19-col22-cat0.html"><rect style="display:none" class="hcell-act-col22-cat0" fill="#337AB7" stroke="#000" stroke-width="5" width="70" height="386" x="0" y="5" rx="8" ry="8"/><rect class="hcell-col22-cat0" fill="#337AB7" stroke="#DDD" width="70" height="396" x="0" y="0" rx="8" ry="8"/><text text-anchor="middle" fill="#FFF" x="35" y="20">-129</text></a></g></g></g><g><g transform="translate(325,5)"></g><rect fill="none" stroke="#DDD" width="70" height="30" rx="8" ry="8" x="325" y="15"/><text text-anchor="middle" fill="#333" x="360" y="35">14-06</text><g transform="translate(325,55)"><g><a target="_top" xlink:href="mob-slice1-step2628000-ofs19-col23-cat0.html"><rect style="display:none" class="hcell-act-col23-cat0" fill="#337AB7" stroke="#000" stroke-width="5" width="70" height="197" x="0" y="5" rx="8" ry="8"/><rect class="hcell-col23-cat0" fill="#337AB7" stroke="#DDD" width="70" height="207" x="0" y="0" rx="8" ry="8"/><text text-anchor="middle" fill="#FFF" x="35" y="20">-68</text></a></g></g></g></svg>