<svg xmlns="http://www.w3.org/2000/svg" xmlns:xlink="http://www.w3.org/1999/xlink" width="100%" height="100%" viewBox="0 0 400 466"><g><g transform="translate(5,180)"><g><a target="_top" xlink:href="mob-slice3-step17850241-ofs0-col0-cat0.html"><rect style="display:none" class="hcell-act-col0-cat0" fill="#5CB85C" stroke="#000" stroke-width="5" width="70" height="52" x="0" y="-57" rx="8" ry="8"/><rect class="hcell-col0-cat0" fill="#5CB85C" stroke="#DDD" width="70" height="62" x="0" y="-62" rx="8" ry="8"/><text text-anchor="middle" fill="#FFF" x="35" y="-42">2067</text></a><g transform="translate(0,-62)"><g><a target="_top" xlink:href="mob-slice3-step17850241-ofs0-col0-cat2.html"><rect style="display:none" class="hcell-act-col0-cat2" fill="#D9534F" stroke="#000" stroke-width="5" width="70" height="103" x="0" y="-108" rx="8" ry="8"/><rect class="hcell-col0-cat2" fill="#D9534F" stroke="#DDD" width="70" height="113" x="0" y="-113" rx="8" ry="8"/><text text-anchor="middle" fill="#FFF" x="35" y="-93">3736</text></a></g></g></g></g><rect fill="none" stroke="#DDD" width="70" height="30" rx="8" ry="8" x="5" y="190"/><text text-anchor="middle" fill="#333" x="40" y="210">12-07</text><g transform="translate(5,230)"><g><a target="_top" xlink:href="mob-slice3-step17850241-ofs0-col0-cat1.html"><rect style="display:none" class="hcell-act-col0-cat1" fill="#337AB7" stroke="#000" stroke-width="5" width="70" height="20" x="0" y="5" rx="8" ry="8"/><rect class="hcell-col0-cat1" fill="#337AB7" stroke="#DDD" width="70" height="30" x="0" y="0" rx="8" ry="8"/><text text-anchor="middle" fill="#FFF" x="35" y="20">-678</text></a></g></g></g><g><g transform="translate(85,180)"><g><a target="_top" xlink:href="mob-slice3-step17850241-ofs0-col1-cat2.html"><rect style="display:none" class="hcell-act-col1-cat2" fill="#D9534F" stroke="#000" stroke-width="5" width="70" height="116" x="0" y="-121" rx="8" ry="8"/><rect class="hcell-col1-cat2" fill="#D9534F" stroke="#DDD" width="70" height="126" x="0" y="-126" rx="8" ry="8"/><text text-anchor="middle" fill="#FFF" x="35" y="-106">4183</text></a></g></g><rect fill="none" stroke="#DDD" width="70" height="30" rx="8" ry="8" x="85" y="190"/><text text-anchor="middle" fill="#333" x="120" y="210">13-01</text><g transform="translate(85,230)"><g><a target="_top" xlink:href="mob-slice3-step17850241-ofs0-col1-cat1.html"><rect style="display:none" class="hcell-act-col1-cat1" fill="#337AB7" stroke="#000" stroke-width="5" width="70" height="20" x="0" y="5" rx="8" ry="8"/><rect class="hcell-col1-cat1" fill="#337AB7" stroke="#DDD" width="70" height="30" x="0" y="0" rx="8" ry="8"/><text text-anchor="middle" fill="#FFF" x="35" y="20">-680</text></a><g transform="translate(0,30)"><g><a target="_top" xlink:href="mob-slice3-step17850241-ofs0-col1-cat0.html"><rect style="display:none" class="hcell-act-col1-cat0" fill="#5CB85C" stroke="#000" stroke-width="5" width="70" height="46" x="0" y="5" rx="8" ry="8"/><rect class="hcell-col1-cat0" fill="#5CB85C" stroke="#DDD" width="70" height="56" x="0" y="0" rx="8" ry="8"/><text text-anchor="middle" fill="#FFF" x="35" y="20">-1869</text></a></g></g></g></g></g><g><g transform="translate(165,180)"><g><a target="_top" xlink:href="mob-slice3-step17850241-ofs0-col2-cat2.html"><rect style="display:none" class="hcell-act-col2-cat2" fill="#D9534F" stroke="#000" stroke-width="5" width="70" height="88" x="0" y="-93" rx="8" ry="8"/><rect class="hcell-col2-cat2" fill="#D9534F" stroke="#DDD" width="70" height="98" x="0" y="-98" rx="8" ry="8"/><text text-anchor="middle" fill="#FFF" x="35" y="-78">3261</text></a></g></g><rect fill="none" stroke="#DDD" width="70" height="30" rx="8" ry="8" x="165" y="190"/><text text-anchor="middle" fill="#333" x="200" y="210">13-08</text><g transform="translate(165,230)"><g><a target="_top" xlink:href="mob-slice3-step17850241-ofs0-col2-cat1.html"><rect style="display:none" class="hcell-act-col2-cat1" fill="#337AB7" stroke="#000" stroke-width="5" width="70" height="20" x="0" y="5" rx="8" ry="8"/><rect class="hcell-col2-cat1" fill="#337AB7" stroke="#DDD" width="70" height="30" x="0" y="0" rx="8" ry="8"/><text text-anchor="middle" fill="#FFF" x="35" y="20">-678</text></a><g transform="translate(0,30)"><g><a target="_top" xlink:href="mob-slice3-step17850241-ofs0-col2-cat0.html"><rect style="display:none" class="hcell-act-col2-cat0" fill="#5CB85C" stroke="#000" stroke-width="5" width="70" height="66" x="0" y="5" rx="8" ry="8"/><rect class="hcell-col2-cat0" fill="#5CB85C" stroke="#DDD" width="70" height="76" x="0" y="0" rx="8" ry="8"/><text text-anchor="middle" fill="#FFF" x="35" y="20">-2509</text></a></g></g></g></g></g><g><g transform="translate(245,180)"><g><a target="_top" xlink:href="mob-slice3-step17850241-ofs0-col3-cat2.html"><rect style="display:none" class="hcell-act-col3-cat2" fill="#D9534F" stroke="#000" stroke-width="5" width="70" height="109" x="0" y="-114" rx="8" ry="8"/><rect class="hcell-col3-cat2" fill="#D9534F" stroke="#DDD" width="70" height="119" x="0" y="-119" rx="8" ry="8"/><text text-anchor="middle" fill="#FFF" x="35" y="-99">3944</text></a></g></g><rect fill="none" stroke="#DDD" width="70" height="30" rx="8" ry="8" x="245" y="190"/><text text-anchor="middle" fill="#333" x="280" y="210">14-03</text><g transform="translate(245,230)"><g><a target="_top" xlink:href="mob-slice3-step17850241-ofs0-col3-cat1.html"><rect style="display:none" class="hcell-act-col3-cat1" fill="#337AB7" stroke="#000" stroke-width="5" width="70" height="20" x="0" y="5" rx="8" ry="8"/><rect class="hcell-col3-cat1" fill="#337AB7" stroke="#DDD" width="70" height="30" x="0" y="0" rx="8" ry="8"/><text text-anchor="middle" fill="#FFF" x="35" y="20">-734</text></a><g transform="translate(0,30)"><g><a target="_top" xlink:href="mob-slice3-step17850241-ofs0-col3-cat0.html"><rect style="display:none" class="hcell-act-col3-cat0" fill="#5CB85C" stroke="#000" stroke-width="5" width="70" height="191" x="0" y="5" rx="8" ry="8"/><rect class="hcell-col3-cat0" fill="#5CB85C" stroke="#DDD" width="70" height="201" x="0" y="0" rx="8" ry="8"/><text text-anchor="middle" fill="#FFF" x="35" y="20">-6648</text></a></g></g></g></g></g><g><g transform="translate(325,180)"><g><a target="_top" xlink:href="mob-slice3-step17850241-ofs0-col4-cat2.html"><rect style="display:none" class="hcell-act-col4-cat2" fill="#D9534F" stroke="#000" stroke-width="5" width="70" height="75" x="0" y="-80" rx="8" ry="8"/><rect class="hcell-col4-cat2" fill="#D9534F" stroke="#DDD" width="70" height="85" x="0" y="-85" rx="8" ry="8"/><text text-anchor="middle" fill="#FFF" x="35" y="-65">2810</text></a></g></g><rect fill="none" stroke="#DDD" width="70" height="30" rx="8" ry="8" x="325" y="190"/><text text-anchor="middle" fill="#333" x="360" y="210">14-10</text><g transform="translate(325,230)"><g><a target="_top" xlink:href="mob-slice3-step17850241-ofs0-col4-cat1.html"><rect style="display:none" class="hcell-act-col4-cat1" fill="#337AB7" stroke="#000" stroke-width="5" width="70" height="20" x="0" y="5" rx="8" ry="8"/><rect class="hcell-col4-cat1" fill="#337AB7" stroke="#DDD" width="70" height="30" x="0" y="0" rx="8" ry="8"/><text text-anchor="middle" fill="#FFF" x="35" y="20">-493</text></a><g transform="translate(0,30)"><g><a target="_top" xlink:href="mob-slice3-step17850241-ofs0-col4-cat0.html"><rect style="display:none" class="hcell-act-col4-cat0" fill="#5CB85C" stroke="#000" stroke-width="5" width="70" height="159" x="0" y="5" rx="8" ry="8"/><rect class="hcell-col4-cat0" fill="#5CB85C" stroke="#DDD" width="70" height="169" x="0" y="0" rx="8" ry="8"/><text text-anchor="middle" fill="#FFF" x="35" y="20">-5598</text></a></g></g></g></g></g></svg>