<svg xmlns="http://www.w3.org/2000/svg" xmlns:xlink="http://www.w3.org/1999/xlink" width="100%" height="100%" viewBox="0 0 400 461"><g><g transform="translate(5,35)"><g><a target="_top" xlink:href="mob-slice2-step2628000-ofs19-col19-cat0.html"><rect style="display:none" class="hcell-act-col19-cat0" fill="#D9534F" stroke="#000" stroke-width="5" width="70" height="20" x="0" y="-25" rx="8" ry="8"/><rect class="hcell-col19-cat0" fill="#D9534F" stroke="#DDD" width="70" height="30" x="0" y="-30" rx="8" ry="8"/><text text-anchor="middle" fill="#FFF" x="35" y="-10">258</text></a></g></g><rect fill="none" stroke="#DDD" width="70" height="30" rx="8" ry="8" x="5" y="45"/><text text-anchor="middle" fill="#333" x="40" y="65">14-01</text><g transform="translate(5,85)"></g></g><g><g transform="translate(85,35)"></g><rect fill="none" stroke="#DDD" width="70" height="30" rx="8" ry="8" x="85" y="45"/><text text-anchor="middle" fill="#333" x="120" y="65">14-03</text><g transform="translate(85,85)"><g><a target="_top" xlink:href="mob-slice2-step2628000-ofs19-col20-cat0.html"><rect style="display:none" class="hcell-act-col20-cat0" fill="#D9534F" stroke="#000" stroke-width="5" width="70" height="47" x="0" y="5" rx="8" ry="8"/><rect class="hcell-col20-cat0" fill="#D9534F" stroke="#DDD" width="70" height="57" x="0" y="0" rx="8" ry="8"/><text text-anchor="middle" fill="#FFF" x="35" y="20">-524</text></a></g></g></g><g><g transform="translate(165,35)"></g><rect fill="none" stroke="#DDD" width="70" height="30" rx="8" ry="8" x="165" y="45"/><text text-anchor="middle" fill="#333" x="200" y="65">14-04</text><g transform="translate(165,85)"><g><a target="_top" xlink:href="mob-slice2-step2628000-ofs19-col21-cat0.html"><rect style="display:none" class="hcell-act-col21-cat0" fill="#D9534F" stroke="#000" stroke-width="5" width="70" height="361" x="0" y="5" rx="8" ry="8"/><rect class="hcell-col21-cat0" fill="#D9534F" stroke="#DDD" width="70" height="371" x="0" y="0" rx="8" ry="8"/><text text-anchor="middle" fill="#FFF" x="35" y="20">-3412</text></a></g></g></g><g><g transform="translate(245,35)"></g><rect fill="none" stroke="#DDD" width="70" height="30" rx="8" ry="8" x="245" y="45"/><text text-anchor="middle" fill="#333" x="280" y="65">14-05</text><g transform="translate(245,85)"><g><a target="_top" xlink:href="mob-slice2-step2628000-ofs19-col22-cat0.html"><rect style="display:none" class="hcell-act-col22-cat0" fill="#D9534F" stroke="#000" stroke-width="5" width="70" height="149" x="0" y="5" rx="8" ry="8"/><rect class="hcell-col22-cat0" fill="#D9534F" stroke="#DDD" width="70" height="159" x="0" y="0" rx="8" ry="8"/><text text-anchor="middle" fill="#FFF" x="35" y="20">-1460</text></a></g></g></g><g><g transform="translate(325,35)"></g><rect fill="none" stroke="#DDD" width="70" height="30" rx="8" ry="8" x="325" y="45"/><text text-anchor="middle" fill="#333" x="360" y="65">14-06</text><g transform="translate(325,85)"><g><a target="_top" xlink:href="mob-slice2-step2628000-ofs19-col23-cat0.html"><rect style="display:none" class="hcell-act-col23-cat0" fill="#D9534F" stroke="#000" stroke-width="5" width="70" height="20" x="0" y="5" rx="8" ry="8"/><rect class="hcell-col23-cat0" fill="#D9534F" stroke="#DDD" width="70" height="30" x="0" y="0" rx="8" ry="8"/><text text-anchor="middle" fill="#FFF" x="35" y="20">-106</text></a></g></g></g></svg>