<svg xmlns="http://www.w3.org/2000/svg" xmlns:xlink="http://www.w3.org/1999/xlink" width="100%" height="100%" viewBox="0 0 400 480"><g><g transform="translate(5,35)"></g><rect fill="none" stroke="#DDD" width="70" height="30" rx="8" ry="8" x="5" y="45"/><text text-anchor="middle" fill="#333" x="40" y="65">13-04</text><g transform="translate(5,85)"><g><a target="_top" xlink:href="mob-sliceTagAsset-step2628000-ofs9-col9-cat0.html"><rect style="display:none" class="hcell-act-col9-cat0" fill="#777" stroke="#000" stroke-width="5" width="70" height="20" x="0" y="5" rx="8" ry="8"/><rect class="hcell-col9-cat0" fill="#777" stroke="#DDD" width="70" height="30" x="0" y="0" rx="8" ry="8"/><text text-anchor="middle" fill="#FFF" x="35" y="20">-19</text></a></g></g></g><g><g transform="translate(85,35)"></g><rect fill="none" stroke="#DDD" width="70" height="30" rx="8" ry="8" x="85" y="45"/><text text-anchor="middle" fill="#333" x="120" y="65">13-05</text><g transform="translate(85,85)"><g><a target="_top" xlink:href="mob-sliceTagAsset-step2628000-ofs9-col10-cat0.html"><rect style="display:none" class="hcell-act-col10-cat0" fill="#777" stroke="#000" stroke-width="5" width="70" height="20" x="0" y="5" rx="8" ry="8"/><rect class="hcell-col10-cat0" fill="#777" stroke="#DDD" width="70" height="30" x="0" y="0" rx="8" ry="8"/><text text-anchor="middle" fill="#FFF" x="35" y="20">-110</text></a></g></g></g><g><g transform="translate(165,35)"><g><a target="_top" xlink:href="mob-sliceTagAsset-step2628000-ofs9-col11-cat0.html"><rect style="display:none" class="hcell-act-col11-cat0" fill="#777" stroke="#000" stroke-width="5" width="70" height="20" x="0" y="-25" rx="8" ry="8"/><rect class="hcell-col11-cat0" fill="#777" stroke="#DDD" width="70" height="30" x="0" y="-30" rx="8" ry="8"/><text text-anchor="middle" fill="#FFF" x="35" y="-10">108</text></a></g></g><rect fill="none" stroke="#DDD" width="70" height="30" rx="8" ry="8" x="165" y="45"/><text text-anchor="middle" fill="#333" x="200" y="65">13-06</text><g transform="translate(165,85)"></g></g><g><g transform="translate(245,35)"></g><rect fill="none" stroke="#DDD" width="70" height="30" rx="8" ry="8" x="245" y="45"/><text text-anchor="middle" fill="#333" x="280" y="65">13-07</text><g transform="translate(245,85)"><g><a target="_top" xlink:href="mob-sliceTagAsset-step2628000-ofs9-col12-cat0.html"><rect style="display:none" class="hcell-act-col12-cat0" fill="#777" stroke="#000" stroke-width="5" width="70" height="380" x="0" y="5" rx="8" ry="8"/><rect class="hcell-col12-cat0" fill="#777" stroke="#DDD" width="70" height="390" x="0" y="0" rx="8" ry="8"/><text text-anchor="middle" fill="#FFF" x="35" y="20">-4438</text></a></g></g></g><g><g transform="translate(325,35)"></g><rect fill="none" stroke="#DDD" width="70" height="30" rx="8" ry="8" x="325" y="45"/><text text-anchor="middle" fill="#333" x="360" y="65">13-08</text><g transform="translate(325,85)"><g><a target="_top" xlink:href="mob-sliceTagAsset-step2628000-ofs9-col13-cat0.html"><rect style="display:none" class="hcell-act-col13-cat0" fill="#777" stroke="#000" stroke-width="5" width="70" height="20" x="0" y="5" rx="8" ry="8"/><rect class="hcell-col13-cat0" fill="#777" stroke="#DDD" width="70" height="30" x="0" y="0" rx="8" ry="8"/><text text-anchor="middle" fill="#FFF" x="35" y="20">-218</text></a></g></g></g></svg>