<svg xmlns="http://www.w3.org/2000/svg" xmlns:xlink="http://www.w3.org/1999/xlink" width="100%" height="100%" viewBox="0 0 400 460"><g><g transform="translate(5,405)"><g><a target="_top" xlink:href="mob-sliceTagShipping-step2628000-ofs9-col9-cat0.html"><rect style="display:none" class="hcell-act-col9-cat0" fill="#777" stroke="#000" stroke-width="5" width="70" height="164" x="0" y="-169" rx="8" ry="8"/><rect class="hcell-col9-cat0" fill="#777" stroke="#DDD" width="70" height="174" x="0" y="-174" rx="8" ry="8"/><text text-anchor="middle" fill="#FFF" x="35" y="-154">125</text></a></g></g><rect fill="none" stroke="#DDD" width="70" height="30" rx="8" ry="8" x="5" y="415"/><text text-anchor="middle" fill="#333" x="40" y="435">13-04</text><g transform="translate(5,455)"></g></g><g><g transform="translate(85,405)"><g><a target="_top" xlink:href="mob-sliceTagShipping-step2628000-ofs9-col10-cat0.html"><rect style="display:none" class="hcell-act-col10-cat0" fill="#777" stroke="#000" stroke-width="5" width="70" height="162" x="0" y="-167" rx="8" ry="8"/><rect class="hcell-col10-cat0" fill="#777" stroke="#DDD" width="70" height="172" x="0" y="-172" rx="8" ry="8"/><text text-anchor="middle" fill="#FFF" x="35" y="-152">124</text></a></g></g><rect fill="none" stroke="#DDD" width="70" height="30" rx="8" ry="8" x="85" y="415"/><text text-anchor="middle" fill="#333" x="120" y="435">13-05</text><g transform="translate(85,455)"></g></g><g><g transform="translate(165,405)"><g><a target="_top" xlink:href="mob-sliceTagShipping-step2628000-ofs9-col11-cat0.html"><rect style="display:none" class="hcell-act-col11-cat0" fill="#777" stroke="#000" stroke-width="5" width="70" height="102" x="0" y="-107" rx="8" ry="8"/><rect class="hcell-col11-cat0" fill="#777" stroke="#DDD" width="70" height="112" x="0" y="-112" rx="8" ry="8"/><text text-anchor="middle" fill="#FFF" x="35" y="-92">81</text></a></g></g><rect fill="none" stroke="#DDD" width="70" height="30" rx="8" ry="8" x="165" y="415"/><text text-anchor="middle" fill="#333" x="200" y="435">13-06</text><g transform="translate(165,455)"></g></g><g><g transform="translate(245,405)"><g><a target="_top" xlink:href="mob-sliceTagShipping-step2628000-ofs9-col12-cat0.html"><rect style="display:none" class="hcell-act-col12-cat0" fill="#777" stroke="#000" stroke-width="5" width="70" height="390" x="0" y="-395" rx="8" ry="8"/><rect class="hcell-col12-cat0" fill="#777" stroke="#DDD" width="70" height="400" x="0" y="-400" rx="8" ry="8"/><text text-anchor="middle" fill="#FFF" x="35" y="-380">288</text></a></g></g><rect fill="none" stroke="#DDD" width="70" height="30" rx="8" ry="8" x="245" y="415"/><text text-anchor="middle" fill="#333" x="280" y="435">13-07</text><g transform="translate(245,455)"></g></g><g><g transform="translate(325,405)"><g><a target="_top" xlink:href="mob-sliceTagShipping-step2628000-ofs9-col13-cat0.html"><rect style="display:none" class="hcell-act-col13-cat0" fill="#777" stroke="#000" stroke-width="5" width="70" height="203" x="0" y="-208" rx="8" ry="8"/><rect class="hcell-col13-cat0" fill="#777" stroke="#DDD" width="70" height="213" x="0" y="-213" rx="8" ry="8"/><text text-anchor="middle" fill="#FFF" x="35" y="-193">154</text></a></g></g><rect fill="none" stroke="#DDD" width="70" height="30" rx="8" ry="8" x="325" y="415"/><text text-anchor="middle" fill="#333" x="360" y="435">13-08</text><g transform="translate(325,455)"></g></g></svg>