<svg xmlns="http://www.w3.org/2000/svg" xmlns:xlink="http://www.w3.org/1999/xlink" width="100%" height="100%" viewBox="0 0 400 459"><g><g transform="translate(5,361)"><g><a target="_top" xlink:href="mob-sliceTagAsset-step2628000-ofs4-col4-cat0.html"><rect style="display:none" class="hcell-act-col4-cat0" fill="#777" stroke="#000" stroke-width="5" width="70" height="346" x="0" y="-351" rx="8" ry="8"/><rect class="hcell-col4-cat0" fill="#777" stroke="#DDD" width="70" height="356" x="0" y="-356" rx="8" ry="8"/><text text-anchor="middle" fill="#FFF" x="35" y="-336">1511</text></a></g></g><rect fill="none" stroke="#DDD" width="70" height="30" rx="8" ry="8" x="5" y="371"/><text text-anchor="middle" fill="#333" x="40" y="391">12-10</text><g transform="translate(5,411)"></g></g><g><g transform="translate(85,361)"></g><rect fill="none" stroke="#DDD" width="70" height="30" rx="8" ry="8" x="85" y="371"/><text text-anchor="middle" fill="#333" x="120" y="391">12-12</text><g transform="translate(85,411)"><g><a target="_top" xlink:href="mob-sliceTagAsset-step2628000-ofs4-col5-cat0.html"><rect style="display:none" class="hcell-act-col5-cat0" fill="#777" stroke="#000" stroke-width="5" width="70" height="33" x="0" y="5" rx="8" ry="8"/><rect class="hcell-col5-cat0" fill="#777" stroke="#DDD" width="70" height="43" x="0" y="0" rx="8" ry="8"/><text text-anchor="middle" fill="#FFF" x="35" y="20">-186</text></a></g></g></g><g><g transform="translate(165,361)"></g><rect fill="none" stroke="#DDD" width="70" height="30" rx="8" ry="8" x="165" y="371"/><text text-anchor="middle" fill="#333" x="200" y="391">12-12</text><g transform="translate(165,411)"><g><a target="_top" xlink:href="mob-sliceTagAsset-step2628000-ofs4-col6-cat0.html"><rect style="display:none" class="hcell-act-col6-cat0" fill="#777" stroke="#000" stroke-width="5" width="70" height="20" x="0" y="5" rx="8" ry="8"/><rect class="hcell-col6-cat0" fill="#777" stroke="#DDD" width="70" height="30" x="0" y="0" rx="8" ry="8"/><text text-anchor="middle" fill="#FFF" x="35" y="20">-104</text></a></g></g></g><g><g transform="translate(245,361)"><g><a target="_top" xlink:href="mob-sliceTagAsset-step2628000-ofs4-col7-cat0.html"><rect style="display:none" class="hcell-act-col7-cat0" fill="#777" stroke="#000" stroke-width="5" width="70" height="101" x="0" y="-106" rx="8" ry="8"/><rect class="hcell-col7-cat0" fill="#777" stroke="#DDD" width="70" height="111" x="0" y="-111" rx="8" ry="8"/><text text-anchor="middle" fill="#FFF" x="35" y="-91">472</text></a></g></g><rect fill="none" stroke="#DDD" width="70" height="30" rx="8" ry="8" x="245" y="371"/><text text-anchor="middle" fill="#333" x="280" y="391">13-01</text><g transform="translate(245,411)"></g></g><g><g transform="translate(325,361)"><g><a target="_top" xlink:href="mob-sliceTagAsset-step2628000-ofs4-col8-cat0.html"><rect style="display:none" class="hcell-act-col8-cat0" fill="#777" stroke="#000" stroke-width="5" width="70" height="336" x="0" y="-341" rx="8" ry="8"/><rect class="hcell-col8-cat0" fill="#777" stroke="#DDD" width="70" height="346" x="0" y="-346" rx="8" ry="8"/><text text-anchor="middle" fill="#FFF" x="35" y="-326">1468</text></a></g></g><rect fill="none" stroke="#DDD" width="70" height="30" rx="8" ry="8" x="325" y="371"/><text text-anchor="middle" fill="#333" x="360" y="391">13-03</text><g transform="translate(325,411)"></g></g></svg>