<svg xmlns="http://www.w3.org/2000/svg" xmlns:xlink="http://www.w3.org/1999/xlink" width="100%" height="100%" viewBox="0 0 400 479"><g><g transform="translate(5,191)"><g><a target="_top" xlink:href="mob-slice3-step2628000-ofs24-col24-cat2.html"><rect style="display:none" class="hcell-act-col24-cat2" fill="#D9534F" stroke="#000" stroke-width="5" width="70" height="37" x="0" y="-42" rx="8" ry="8"/><rect class="hcell-col24-cat2" fill="#D9534F" stroke="#DDD" width="70" height="47" x="0" y="-47" rx="8" ry="8"/><text text-anchor="middle" fill="#FFF" x="35" y="-27">705</text></a></g></g><rect fill="none" stroke="#DDD" width="70" height="30" rx="8" ry="8" x="5" y="201"/><text text-anchor="middle" fill="#333" x="40" y="221">14-07</text><g transform="translate(5,241)"><g><a target="_top" xlink:href="mob-slice3-step2628000-ofs24-col24-cat1.html"><rect style="display:none" class="hcell-act-col24-cat1" fill="#337AB7" stroke="#000" stroke-width="5" width="70" height="20" x="0" y="5" rx="8" ry="8"/><rect class="hcell-col24-cat1" fill="#337AB7" stroke="#DDD" width="70" height="30" x="0" y="0" rx="8" ry="8"/><text text-anchor="middle" fill="#FFF" x="35" y="20">-135</text></a><g transform="translate(0,30)"><g><a target="_top" xlink:href="mob-slice3-step2628000-ofs24-col24-cat0.html"><rect style="display:none" class="hcell-act-col24-cat0" fill="#5CB85C" stroke="#000" stroke-width="5" width="70" height="37" x="0" y="5" rx="8" ry="8"/><rect class="hcell-col24-cat0" fill="#5CB85C" stroke="#DDD" width="70" height="47" x="0" y="0" rx="8" ry="8"/><text text-anchor="middle" fill="#FFF" x="35" y="20">-701</text></a></g></g></g></g></g><g><g transform="translate(85,191)"><g><a target="_top" xlink:href="mob-slice3-step2628000-ofs24-col25-cat2.html"><rect style="display:none" class="hcell-act-col25-cat2" fill="#D9534F" stroke="#000" stroke-width="5" width="70" height="20" x="0" y="-25" rx="8" ry="8"/><rect class="hcell-col25-cat2" fill="#D9534F" stroke="#DDD" width="70" height="30" x="0" y="-30" rx="8" ry="8"/><text text-anchor="middle" fill="#FFF" x="35" y="-10">444</text></a><g transform="translate(0,-30)"><g><a target="_top" xlink:href="mob-slice3-step2628000-ofs24-col25-cat0.html"><rect style="display:none" class="hcell-act-col25-cat0" fill="#5CB85C" stroke="#000" stroke-width="5" width="70" height="146" x="0" y="-151" rx="8" ry="8"/><rect class="hcell-col25-cat0" fill="#5CB85C" stroke="#DDD" width="70" height="156" x="0" y="-156" rx="8" ry="8"/><text text-anchor="middle" fill="#FFF" x="35" y="-136">2328</text></a></g></g></g></g><rect fill="none" stroke="#DDD" width="70" height="30" rx="8" ry="8" x="85" y="201"/><text text-anchor="middle" fill="#333" x="120" y="221">14-08</text><g transform="translate(85,241)"><g><a target="_top" xlink:href="mob-slice3-step2628000-ofs24-col25-cat1.html"><rect style="display:none" class="hcell-act-col25-cat1" fill="#337AB7" stroke="#000" stroke-width="5" width="70" height="20" x="0" y="5" rx="8" ry="8"/><rect class="hcell-col25-cat1" fill="#337AB7" stroke="#DDD" width="70" height="30" x="0" y="0" rx="8" ry="8"/><text text-anchor="middle" fill="#FFF" x="35" y="20">-67</text></a></g></g></g><g><g transform="translate(165,191)"><g><a target="_top" xlink:href="mob-slice3-step2628000-ofs24-col26-cat2.html"><rect style="display:none" class="hcell-act-col26-cat2" fill="#D9534F" stroke="#000" stroke-width="5" width="70" height="33" x="0" y="-38" rx="8" ry="8"/><rect class="hcell-col26-cat2" fill="#D9534F" stroke="#DDD" width="70" height="43" x="0" y="-43" rx="8" ry="8"/><text text-anchor="middle" fill="#FFF" x="35" y="-23">643</text></a></g></g><rect fill="none" stroke="#DDD" width="70" height="30" rx="8" ry="8" x="165" y="201"/><text text-anchor="middle" fill="#333" x="200" y="221">14-08</text><g transform="translate(165,241)"><g><a target="_top" xlink:href="mob-slice3-step2628000-ofs24-col26-cat1.html"><rect style="display:none" class="hcell-act-col26-cat1" fill="#337AB7" stroke="#000" stroke-width="5" width="70" height="20" x="0" y="5" rx="8" ry="8"/><rect class="hcell-col26-cat1" fill="#337AB7" stroke="#DDD" width="70" height="30" x="0" y="0" rx="8" ry="8"/><text text-anchor="middle" fill="#FFF" x="35" y="20">-135</text></a><g transform="translate(0,30)"><g><a target="_top" xlink:href="mob-slice3-step2628000-ofs24-col26-cat0.html"><rect style="display:none" class="hcell-act-col26-cat0" fill="#5CB85C" stroke="#000" stroke-width="5" width="70" height="193" x="0" y="5" rx="8" ry="8"/><rect class="hcell-col26-cat0" fill="#5CB85C" stroke="#DDD" width="70" height="203" x="0" y="0" rx="8" ry="8"/><text text-anchor="middle" fill="#FFF" x="35" y="20">-3026</text></a></g></g></g></g></g><g><g transform="translate(245,191)"><g><a target="_top" xlink:href="mob-slice3-step2628000-ofs24-col27-cat2.html"><rect style="display:none" class="hcell-act-col27-cat2" fill="#D9534F" stroke="#000" stroke-width="5" width="70" height="20" x="0" y="-25" rx="8" ry="8"/><rect class="hcell-col27-cat2" fill="#D9534F" stroke="#DDD" width="70" height="30" x="0" y="-30" rx="8" ry="8"/><text text-anchor="middle" fill="#FFF" x="35" y="-10">350</text></a><g transform="translate(0,-30)"><g><a target="_top" xlink:href="mob-slice3-step2628000-ofs24-col27-cat0.html"><rect style="display:none" class="hcell-act-col27-cat0" fill="#5CB85C" stroke="#000" stroke-width="5" width="70" height="80" x="0" y="-85" rx="8" ry="8"/><rect class="hcell-col27-cat0" fill="#5CB85C" stroke="#DDD" width="70" height="90" x="0" y="-90" rx="8" ry="8"/><text text-anchor="middle" fill="#FFF" x="35" y="-70">1341</text></a></g></g></g></g><rect fill="none" stroke="#DDD" width="70" height="30" rx="8" ry="8" x="245" y="201"/><text text-anchor="middle" fill="#333" x="280" y="221">14-10</text><g transform="translate(245,241)"><g><a target="_top" xlink:href="mob-slice3-step2628000-ofs24-col27-cat1.html"><rect style="display:none" class="hcell-act-col27-cat1" fill="#337AB7" stroke="#000" stroke-width="5" width="70" height="20" x="0" y="5" rx="8" ry="8"/><rect class="hcell-col27-cat1" fill="#337AB7" stroke="#DDD" width="70" height="30" x="0" y="0" rx="8" ry="8"/><text text-anchor="middle" fill="#FFF" x="35" y="20">-38</text></a></g></g></g><g><g transform="translate(325,191)"><g><a target="_top" xlink:href="mob-slice3-step2628000-ofs24-col28-cat2.html"><rect style="display:none" class="hcell-act-col28-cat2" fill="#D9534F" stroke="#000" stroke-width="5" width="70" height="29" x="0" y="-34" rx="8" ry="8"/><rect class="hcell-col28-cat2" fill="#D9534F" stroke="#DDD" width="70" height="39" x="0" y="-39" rx="8" ry="8"/><text text-anchor="middle" fill="#FFF" x="35" y="-19">589</text></a></g></g><rect fill="none" stroke="#DDD" width="70" height="30" rx="8" ry="8" x="325" y="201"/><text text-anchor="middle" fill="#333" x="360" y="221">14-10</text><g transform="translate(325,241)"><g><a target="_top" xlink:href="mob-slice3-step2628000-ofs24-col28-cat1.html"><rect style="display:none" class="hcell-act-col28-cat1" fill="#337AB7" stroke="#000" stroke-width="5" width="70" height="20" x="0" y="5" rx="8" ry="8"/><rect class="hcell-col28-cat1" fill="#337AB7" stroke="#DDD" width="70" height="30" x="0" y="0" rx="8" ry="8"/><text text-anchor="middle" fill="#FFF" x="35" y="20">-99</text></a><g transform="translate(0,30)"><g><a target="_top" xlink:href="mob-slice3-step2628000-ofs24-col28-cat0.html"><rect style="display:none" class="hcell-act-col28-cat0" fill="#5CB85C" stroke="#000" stroke-width="5" width="70" height="71" x="0" y="5" rx="8" ry="8"/><rect class="hcell-col28-cat0" fill="#5CB85C" stroke="#DDD" width="70" height="81" x="0" y="0" rx="8" ry="8"/><text text-anchor="middle" fill="#FFF" x="35" y="20">-1211</text></a></g></g></g></g></g></svg>