<svg xmlns="http://www.w3.org/2000/svg" xmlns:xlink="http://www.w3.org/1999/xlink" width="100%" height="100%" viewBox="0 0 400 459"><g><g transform="translate(5,204)"><g><a target="_top" xlink:href="mob-sliceTagAsset-step2628000-ofs24-col24-cat0.html"><rect style="display:none" class="hcell-act-col24-cat0" fill="#777" stroke="#000" stroke-width="5" width="70" height="57" x="0" y="-62" rx="8" ry="8"/><rect class="hcell-col24-cat0" fill="#777" stroke="#DDD" width="70" height="67" x="0" y="-67" rx="8" ry="8"/><text text-anchor="middle" fill="#FFF" x="35" y="-47">2686</text></a></g></g><rect fill="none" stroke="#DDD" width="70" height="30" rx="8" ry="8" x="5" y="214"/><text text-anchor="middle" fill="#333" x="40" y="234">14-07</text><g transform="translate(5,254)"><g><a target="_top" xlink:href="mob-sliceTagAsset-step2628000-ofs24-col24-cat0.html"><rect style="display:none" class="hcell-act-col24-cat0" fill="#777" stroke="#000" stroke-width="5" width="70" height="75" x="0" y="5" rx="8" ry="8"/><rect class="hcell-col24-cat0" fill="#777" stroke="#DDD" width="70" height="85" x="0" y="0" rx="8" ry="8"/><text text-anchor="middle" fill="#FFF" x="35" y="20">-3388</text></a></g></g></g><g><g transform="translate(85,204)"><g><a target="_top" xlink:href="mob-sliceTagAsset-step2628000-ofs24-col25-cat0.html"><rect style="display:none" class="hcell-act-col25-cat0" fill="#777" stroke="#000" stroke-width="5" width="70" height="189" x="0" y="-194" rx="8" ry="8"/><rect class="hcell-col25-cat0" fill="#777" stroke="#DDD" width="70" height="199" x="0" y="-199" rx="8" ry="8"/><text text-anchor="middle" fill="#FFF" x="35" y="-179">7951</text></a></g></g><rect fill="none" stroke="#DDD" width="70" height="30" rx="8" ry="8" x="85" y="214"/><text text-anchor="middle" fill="#333" x="120" y="234">14-08</text><g transform="translate(85,254)"><g><a target="_top" xlink:href="mob-sliceTagAsset-step2628000-ofs24-col25-cat0.html"><rect style="display:none" class="hcell-act-col25-cat0" fill="#777" stroke="#000" stroke-width="5" width="70" height="131" x="0" y="5" rx="8" ry="8"/><rect class="hcell-col25-cat0" fill="#777" stroke="#DDD" width="70" height="141" x="0" y="0" rx="8" ry="8"/><text text-anchor="middle" fill="#FFF" x="35" y="20">-5623</text></a></g></g></g><g><g transform="translate(165,204)"><g><a target="_top" xlink:href="mob-sliceTagAsset-step2628000-ofs24-col26-cat0.html"><rect style="display:none" class="hcell-act-col26-cat0" fill="#777" stroke="#000" stroke-width="5" width="70" height="114" x="0" y="-119" rx="8" ry="8"/><rect class="hcell-col26-cat0" fill="#777" stroke="#DDD" width="70" height="124" x="0" y="-124" rx="8" ry="8"/><text text-anchor="middle" fill="#FFF" x="35" y="-104">4963</text></a></g></g><rect fill="none" stroke="#DDD" width="70" height="30" rx="8" ry="8" x="165" y="214"/><text text-anchor="middle" fill="#333" x="200" y="234">14-08</text><g transform="translate(165,254)"><g><a target="_top" xlink:href="mob-sliceTagAsset-step2628000-ofs24-col26-cat0.html"><rect style="display:none" class="hcell-act-col26-cat0" fill="#777" stroke="#000" stroke-width="5" width="70" height="190" x="0" y="5" rx="8" ry="8"/><rect class="hcell-col26-cat0" fill="#777" stroke="#DDD" width="70" height="200" x="0" y="0" rx="8" ry="8"/><text text-anchor="middle" fill="#FFF" x="35" y="20">-7989</text></a></g></g></g><g><g transform="translate(245,204)"><g><a target="_top" xlink:href="mob-sliceTagAsset-step2628000-ofs24-col27-cat0.html"><rect style="display:none" class="hcell-act-col27-cat0" fill="#777" stroke="#000" stroke-width="5" width="70" height="95" x="0" y="-100" rx="8" ry="8"/><rect class="hcell-col27-cat0" fill="#777" stroke="#DDD" width="70" height="105" x="0" y="-105" rx="8" ry="8"/><text text-anchor="middle" fill="#FFF" x="35" y="-85">4216</text></a></g></g><rect fill="none" stroke="#DDD" width="70" height="30" rx="8" ry="8" x="245" y="214"/><text text-anchor="middle" fill="#333" x="280" y="234">14-10</text><g transform="translate(245,254)"><g><a target="_top" xlink:href="mob-sliceTagAsset-step2628000-ofs24-col27-cat0.html"><rect style="display:none" class="hcell-act-col27-cat0" fill="#777" stroke="#000" stroke-width="5" width="70" height="62" x="0" y="5" rx="8" ry="8"/><rect class="hcell-col27-cat0" fill="#777" stroke="#DDD" width="70" height="72" x="0" y="0" rx="8" ry="8"/><text text-anchor="middle" fill="#FFF" x="35" y="20">-2875</text></a></g></g></g><g><g transform="translate(325,204)"><g><a target="_top" xlink:href="mob-sliceTagAsset-step2628000-ofs24-col28-cat0.html"><rect style="display:none" class="hcell-act-col28-cat0" fill="#777" stroke="#000" stroke-width="5" width="70" height="56" x="0" y="-61" rx="8" ry="8"/><rect class="hcell-col28-cat0" fill="#777" stroke="#DDD" width="70" height="66" x="0" y="-66" rx="8" ry="8"/><text text-anchor="middle" fill="#FFF" x="35" y="-46">2637</text></a></g></g><rect fill="none" stroke="#DDD" width="70" height="30" rx="8" ry="8" x="325" y="214"/><text text-anchor="middle" fill="#333" x="360" y="234">14-10</text><g transform="translate(325,254)"><g><a target="_top" xlink:href="mob-sliceTagAsset-step2628000-ofs24-col28-cat0.html"><rect style="display:none" class="hcell-act-col28-cat0" fill="#777" stroke="#000" stroke-width="5" width="70" height="86" x="0" y="5" rx="8" ry="8"/><rect class="hcell-col28-cat0" fill="#777" stroke="#DDD" width="70" height="96" x="0" y="0" rx="8" ry="8"/><text text-anchor="middle" fill="#FFF" x="35" y="20">-3848</text></a></g></g></g></svg>