<svg xmlns="http://www.w3.org/2000/svg" xmlns:xlink="http://www.w3.org/1999/xlink" width="100%" height="100%" viewBox="0 0 400 464"><g><g transform="translate(5,409)"><g><a target="_top" xlink:href="mob-slice0-step2628000-ofs29-col29-cat0.html"><rect style="display:none" class="hcell-act-col29-cat0" fill="#5CB85C" stroke="#000" stroke-width="5" width="70" height="20" x="0" y="-25" rx="8" ry="8"/><rect class="hcell-col29-cat0" fill="#5CB85C" stroke="#DDD" width="70" height="30" x="0" y="-30" rx="8" ry="8"/><text text-anchor="middle" fill="#FFF" x="35" y="-10">29</text></a><g transform="translate(0,-30)"><g><a target="_top" xlink:href="mob-slice0-step2628000-ofs29-col29-cat1.html"><rect style="display:none" class="hcell-act-col29-cat1" fill="#337AB7" stroke="#000" stroke-width="5" width="70" height="47" x="0" y="-52" rx="8" ry="8"/><rect class="hcell-col29-cat1" fill="#337AB7" stroke="#DDD" width="70" height="57" x="0" y="-57" rx="8" ry="8"/><text text-anchor="middle" fill="#FFF" x="35" y="-37">88</text></a><g transform="translate(0,-57)"><g><a target="_top" xlink:href="mob-slice0-step2628000-ofs29-col29-cat2.html"><rect style="display:none" class="hcell-act-col29-cat2" fill="#D9534F" stroke="#000" stroke-width="5" width="70" height="167" x="0" y="-172" rx="8" ry="8"/><rect class="hcell-col29-cat2" fill="#D9534F" stroke="#DDD" width="70" height="177" x="0" y="-177" rx="8" ry="8"/><text text-anchor="middle" fill="#FFF" x="35" y="-157">272</text></a></g></g></g></g></g></g><rect fill="none" stroke="#DDD" width="70" height="30" rx="8" ry="8" x="5" y="419"/><text text-anchor="middle" fill="#333" x="40" y="439">14-12</text><g transform="translate(5,459)"></g></g><g><g transform="translate(85,409)"><g><a target="_top" xlink:href="mob-slice0-step2628000-ofs29-col30-cat0.html"><rect style="display:none" class="hcell-act-col30-cat0" fill="#5CB85C" stroke="#000" stroke-width="5" width="70" height="20" x="0" y="-25" rx="8" ry="8"/><rect class="hcell-col30-cat0" fill="#5CB85C" stroke="#DDD" width="70" height="30" x="0" y="-30" rx="8" ry="8"/><text text-anchor="middle" fill="#FFF" x="35" y="-10">18</text></a><g transform="translate(0,-30)"><g><a target="_top" xlink:href="mob-slice0-step2628000-ofs29-col30-cat1.html"><rect style="display:none" class="hcell-act-col30-cat1" fill="#337AB7" stroke="#000" stroke-width="5" width="70" height="21" x="0" y="-26" rx="8" ry="8"/><rect class="hcell-col30-cat1" fill="#337AB7" stroke="#DDD" width="70" height="31" x="0" y="-31" rx="8" ry="8"/><text text-anchor="middle" fill="#FFF" x="35" y="-11">47</text></a><g transform="translate(0,-31)"><g><a target="_top" xlink:href="mob-slice0-step2628000-ofs29-col30-cat2.html"><rect style="display:none" class="hcell-act-col30-cat2" fill="#D9534F" stroke="#000" stroke-width="5" width="70" height="92" x="0" y="-97" rx="8" ry="8"/><rect class="hcell-col30-cat2" fill="#D9534F" stroke="#DDD" width="70" height="102" x="0" y="-102" rx="8" ry="8"/><text text-anchor="middle" fill="#FFF" x="35" y="-82">157</text></a></g></g></g></g></g></g><rect fill="none" stroke="#DDD" width="70" height="30" rx="8" ry="8" x="85" y="419"/><text text-anchor="middle" fill="#333" x="120" y="439">14-12</text><g transform="translate(85,459)"></g></g><g><g transform="translate(165,409)"><g><a target="_top" xlink:href="mob-slice0-step2628000-ofs29-col31-cat0.html"><rect style="display:none" class="hcell-act-col31-cat0" fill="#5CB85C" stroke="#000" stroke-width="5" width="70" height="20" x="0" y="-25" rx="8" ry="8"/><rect class="hcell-col31-cat0" fill="#5CB85C" stroke="#DDD" width="70" height="30" x="0" y="-30" rx="8" ry="8"/><text text-anchor="middle" fill="#FFF" x="35" y="-10">26</text></a><g transform="translate(0,-30)"><g><a target="_top" xlink:href="mob-slice0-step2628000-ofs29-col31-cat1.html"><rect style="display:none" class="hcell-act-col31-cat1" fill="#337AB7" stroke="#000" stroke-width="5" width="70" height="52" x="0" y="-57" rx="8" ry="8"/><rect class="hcell-col31-cat1" fill="#337AB7" stroke="#DDD" width="70" height="62" x="0" y="-62" rx="8" ry="8"/><text text-anchor="middle" fill="#FFF" x="35" y="-42">95</text></a><g transform="translate(0,-62)"><g><a target="_top" xlink:href="mob-slice0-step2628000-ofs29-col31-cat2.html"><rect style="display:none" class="hcell-act-col31-cat2" fill="#D9534F" stroke="#000" stroke-width="5" width="70" height="238" x="0" y="-243" rx="8" ry="8"/><rect class="hcell-col31-cat2" fill="#D9534F" stroke="#DDD" width="70" height="248" x="0" y="-248" rx="8" ry="8"/><text text-anchor="middle" fill="#FFF" x="35" y="-228">381</text></a></g></g></g></g></g></g><rect fill="none" stroke="#DDD" width="70" height="30" rx="8" ry="8" x="165" y="419"/><text text-anchor="middle" fill="#333" x="200" y="439">15-01</text><g transform="translate(165,459)"></g></g><g><g transform="translate(245,409)"><g><a target="_top" xlink:href="mob-slice0-step2628000-ofs29-col32-cat0.html"><rect style="display:none" class="hcell-act-col32-cat0" fill="#5CB85C" stroke="#000" stroke-width="5" width="70" height="20" x="0" y="-25" rx="8" ry="8"/><rect class="hcell-col32-cat0" fill="#5CB85C" stroke="#DDD" width="70" height="30" x="0" y="-30" rx="8" ry="8"/><text text-anchor="middle" fill="#FFF" x="35" y="-10">8</text></a><g transform="translate(0,-30)"><g><a target="_top" xlink:href="mob-slice0-step2628000-ofs29-col32-cat1.html"><rect style="display:none" class="hcell-act-col32-cat1" fill="#337AB7" stroke="#000" stroke-width="5" width="70" height="20" x="0" y="-25" rx="8" ry="8"/><rect class="hcell-col32-cat1" fill="#337AB7" stroke="#DDD" width="70" height="30" x="0" y="-30" rx="8" ry="8"/><text text-anchor="middle" fill="#FFF" x="35" y="-10">44</text></a><g transform="translate(0,-30)"><g><a target="_top" xlink:href="mob-slice0-step2628000-ofs29-col32-cat2.html"><rect style="display:none" class="hcell-act-col32-cat2" fill="#D9534F" stroke="#000" stroke-width="5" width="70" height="94" x="0" y="-99" rx="8" ry="8"/><rect class="hcell-col32-cat2" fill="#D9534F" stroke="#DDD" width="70" height="104" x="0" y="-104" rx="8" ry="8"/><text text-anchor="middle" fill="#FFF" x="35" y="-84">159</text></a></g></g></g></g></g></g><rect fill="none" stroke="#DDD" width="70" height="30" rx="8" ry="8" x="245" y="419"/><text text-anchor="middle" fill="#333" x="280" y="439">15-03</text><g transform="translate(245,459)"></g></g><g><g transform="translate(325,409)"><g><a target="_top" xlink:href="mob-slice0-step2628000-ofs29-col33-cat0.html"><rect style="display:none" class="hcell-act-col33-cat0" fill="#5CB85C" stroke="#000" stroke-width="5" width="70" height="20" x="0" y="-25" rx="8" ry="8"/><rect class="hcell-col33-cat0" fill="#5CB85C" stroke="#DDD" width="70" height="30" x="0" y="-30" rx="8" ry="8"/><text text-anchor="middle" fill="#FFF" x="35" y="-10">38</text></a><g transform="translate(0,-30)"><g><a target="_top" xlink:href="mob-slice0-step2628000-ofs29-col33-cat1.html"><rect style="display:none" class="hcell-act-col33-cat1" fill="#337AB7" stroke="#000" stroke-width="5" width="70" height="103" x="0" y="-108" rx="8" ry="8"/><rect class="hcell-col33-cat1" fill="#337AB7" stroke="#DDD" width="70" height="113" x="0" y="-113" rx="8" ry="8"/><text text-anchor="middle" fill="#FFF" x="35" y="-93">173</text></a><g transform="translate(0,-113)"><g><a target="_top" xlink:href="mob-slice0-step2628000-ofs29-col33-cat2.html"><rect style="display:none" class="hcell-act-col33-cat2" fill="#D9534F" stroke="#000" stroke-width="5" width="70" height="251" x="0" y="-256" rx="8" ry="8"/><rect class="hcell-col33-cat2" fill="#D9534F" stroke="#DDD" width="70" height="261" x="0" y="-261" rx="8" ry="8"/><text text-anchor="middle" fill="#FFF" x="35" y="-241">401</text></a></g></g></g></g></g></g><rect fill="none" stroke="#DDD" width="70" height="30" rx="8" ry="8" x="325" y="419"/><text text-anchor="middle" fill="#333" x="360" y="439">15-04</text><g transform="translate(325,459)"></g></g></svg>