<svg xmlns="http://www.w3.org/2000/svg" xmlns:xlink="http://www.w3.org/1999/xlink" width="100%" height="100%" viewBox="0 0 400 459"><g><g transform="translate(5,325)"><g><a target="_top" xlink:href="mob-sliceTagOther-step2628000-ofs14-col14-cat0.html"><rect style="display:none" class="hcell-act-col14-cat0" fill="#777" stroke="#000" stroke-width="5" width="70" height="310" x="0" y="-315" rx="8" ry="8"/><rect class="hcell-col14-cat0" fill="#777" stroke="#DDD" width="70" height="320" x="0" y="-320" rx="8" ry="8"/><text text-anchor="middle" fill="#FFF" x="35" y="-300">711</text></a></g></g><rect fill="none" stroke="#DDD" width="70" height="30" rx="8" ry="8" x="5" y="335"/><text text-anchor="middle" fill="#333" x="40" y="355">13-08</text><g transform="translate(5,375)"></g></g><g><g transform="translate(85,325)"><g><a target="_top" xlink:href="mob-sliceTagOther-step2628000-ofs14-col15-cat0.html"><rect style="display:none" class="hcell-act-col15-cat0" fill="#777" stroke="#000" stroke-width="5" width="70" height="268" x="0" y="-273" rx="8" ry="8"/><rect class="hcell-col15-cat0" fill="#777" stroke="#DDD" width="70" height="278" x="0" y="-278" rx="8" ry="8"/><text text-anchor="middle" fill="#FFF" x="35" y="-258">619</text></a></g></g><rect fill="none" stroke="#DDD" width="70" height="30" rx="8" ry="8" x="85" y="335"/><text text-anchor="middle" fill="#333" x="120" y="355">13-10</text><g transform="translate(85,375)"></g></g><g><g transform="translate(165,325)"><g><a target="_top" xlink:href="mob-sliceTagOther-step2628000-ofs14-col16-cat0.html"><rect style="display:none" class="hcell-act-col16-cat0" fill="#777" stroke="#000" stroke-width="5" width="70" height="139" x="0" y="-144" rx="8" ry="8"/><rect class="hcell-col16-cat0" fill="#777" stroke="#DDD" width="70" height="149" x="0" y="-149" rx="8" ry="8"/><text text-anchor="middle" fill="#FFF" x="35" y="-129">332</text></a></g></g><rect fill="none" stroke="#DDD" width="70" height="30" rx="8" ry="8" x="165" y="335"/><text text-anchor="middle" fill="#333" x="200" y="355">13-10</text><g transform="translate(165,375)"></g></g><g><g transform="translate(245,325)"><g><a target="_top" xlink:href="mob-sliceTagOther-step2628000-ofs14-col17-cat0.html"><rect style="display:none" class="hcell-act-col17-cat0" fill="#777" stroke="#000" stroke-width="5" width="70" height="20" x="0" y="-25" rx="8" ry="8"/><rect class="hcell-col17-cat0" fill="#777" stroke="#DDD" width="70" height="30" x="0" y="-30" rx="8" ry="8"/><text text-anchor="middle" fill="#FFF" x="35" y="-10">45</text></a></g></g><rect fill="none" stroke="#DDD" width="70" height="30" rx="8" ry="8" x="245" y="335"/><text text-anchor="middle" fill="#333" x="280" y="355">13-12</text><g transform="translate(245,375)"></g></g><g><g transform="translate(325,325)"></g><rect fill="none" stroke="#DDD" width="70" height="30" rx="8" ry="8" x="325" y="335"/><text text-anchor="middle" fill="#333" x="360" y="355">13-12</text><g transform="translate(325,375)"><g><a target="_top" xlink:href="mob-sliceTagOther-step2628000-ofs14-col18-cat0.html"><rect style="display:none" class="hcell-act-col18-cat0" fill="#777" stroke="#000" stroke-width="5" width="70" height="69" x="0" y="5" rx="8" ry="8"/><rect class="hcell-col18-cat0" fill="#777" stroke="#DDD" width="70" height="79" x="0" y="0" rx="8" ry="8"/><text text-anchor="middle" fill="#FFF" x="35" y="20">-178</text></a></g></g></g></svg>