<svg xmlns="http://www.w3.org/2000/svg" xmlns:xlink="http://www.w3.org/1999/xlink" width="100%" height="100%" viewBox="0 0 400 459"><g><g transform="translate(5,404)"><g><a target="_top" xlink:href="mob-slice0-step2628000-ofs19-col19-cat0.html"><rect style="display:none" class="hcell-act-col19-cat0" fill="#5CB85C" stroke="#000" stroke-width="5" width="70" height="20" x="0" y="-25" rx="8" ry="8"/><rect class="hcell-col19-cat0" fill="#5CB85C" stroke="#DDD" width="70" height="30" x="0" y="-30" rx="8" ry="8"/><text text-anchor="middle" fill="#FFF" x="35" y="-10">27</text></a><g transform="translate(0,-30)"><g><a target="_top" xlink:href="mob-slice0-step2628000-ofs19-col19-cat1.html"><rect style="display:none" class="hcell-act-col19-cat1" fill="#337AB7" stroke="#000" stroke-width="5" width="70" height="39" x="0" y="-44" rx="8" ry="8"/><rect class="hcell-col19-cat1" fill="#337AB7" stroke="#DDD" width="70" height="49" x="0" y="-49" rx="8" ry="8"/><text text-anchor="middle" fill="#FFF" x="35" y="-29">87</text></a><g transform="translate(0,-49)"><g><a target="_top" xlink:href="mob-slice0-step2628000-ofs19-col19-cat2.html"><rect style="display:none" class="hcell-act-col19-cat2" fill="#D9534F" stroke="#000" stroke-width="5" width="70" height="154" x="0" y="-159" rx="8" ry="8"/><rect class="hcell-col19-cat2" fill="#D9534F" stroke="#DDD" width="70" height="164" x="0" y="-164" rx="8" ry="8"/><text text-anchor="middle" fill="#FFF" x="35" y="-144">288</text></a></g></g></g></g></g></g><rect fill="none" stroke="#DDD" width="70" height="30" rx="8" ry="8" x="5" y="414"/><text text-anchor="middle" fill="#333" x="40" y="434">14-01</text><g transform="translate(5,454)"></g></g><g><g transform="translate(85,404)"><g><a target="_top" xlink:href="mob-slice0-step2628000-ofs19-col20-cat0.html"><rect style="display:none" class="hcell-act-col20-cat0" fill="#5CB85C" stroke="#000" stroke-width="5" width="70" height="20" x="0" y="-25" rx="8" ry="8"/><rect class="hcell-col20-cat0" fill="#5CB85C" stroke="#DDD" width="70" height="30" x="0" y="-30" rx="8" ry="8"/><text text-anchor="middle" fill="#FFF" x="35" y="-10">49</text></a><g transform="translate(0,-30)"><g><a target="_top" xlink:href="mob-slice0-step2628000-ofs19-col20-cat1.html"><rect style="display:none" class="hcell-act-col20-cat1" fill="#337AB7" stroke="#000" stroke-width="5" width="70" height="51" x="0" y="-56" rx="8" ry="8"/><rect class="hcell-col20-cat1" fill="#337AB7" stroke="#DDD" width="70" height="61" x="0" y="-61" rx="8" ry="8"/><text text-anchor="middle" fill="#FFF" x="35" y="-41">108</text></a><g transform="translate(0,-61)"><g><a target="_top" xlink:href="mob-slice0-step2628000-ofs19-col20-cat2.html"><rect style="display:none" class="hcell-act-col20-cat2" fill="#D9534F" stroke="#000" stroke-width="5" width="70" height="241" x="0" y="-246" rx="8" ry="8"/><rect class="hcell-col20-cat2" fill="#D9534F" stroke="#DDD" width="70" height="251" x="0" y="-251" rx="8" ry="8"/><text text-anchor="middle" fill="#FFF" x="35" y="-231">440</text></a></g></g></g></g></g></g><rect fill="none" stroke="#DDD" width="70" height="30" rx="8" ry="8" x="85" y="414"/><text text-anchor="middle" fill="#333" x="120" y="434">14-03</text><g transform="translate(85,454)"></g></g><g><g transform="translate(165,404)"><g><a target="_top" xlink:href="mob-slice0-step2628000-ofs19-col21-cat0.html"><rect style="display:none" class="hcell-act-col21-cat0" fill="#5CB85C" stroke="#000" stroke-width="5" width="70" height="20" x="0" y="-25" rx="8" ry="8"/><rect class="hcell-col21-cat0" fill="#5CB85C" stroke="#DDD" width="70" height="30" x="0" y="-30" rx="8" ry="8"/><text text-anchor="middle" fill="#FFF" x="35" y="-10">24</text></a><g transform="translate(0,-30)"><g><a target="_top" xlink:href="mob-slice0-step2628000-ofs19-col21-cat1.html"><rect style="display:none" class="hcell-act-col21-cat1" fill="#337AB7" stroke="#000" stroke-width="5" width="70" height="68" x="0" y="-73" rx="8" ry="8"/><rect class="hcell-col21-cat1" fill="#337AB7" stroke="#DDD" width="70" height="78" x="0" y="-78" rx="8" ry="8"/><text text-anchor="middle" fill="#FFF" x="35" y="-58">138</text></a><g transform="translate(0,-78)"><g><a target="_top" xlink:href="mob-slice0-step2628000-ofs19-col21-cat2.html"><rect style="display:none" class="hcell-act-col21-cat2" fill="#D9534F" stroke="#000" stroke-width="5" width="70" height="190" x="0" y="-195" rx="8" ry="8"/><rect class="hcell-col21-cat2" fill="#D9534F" stroke="#DDD" width="70" height="200" x="0" y="-200" rx="8" ry="8"/><text text-anchor="middle" fill="#FFF" x="35" y="-180">351</text></a></g></g></g></g></g></g><rect fill="none" stroke="#DDD" width="70" height="30" rx="8" ry="8" x="165" y="414"/><text text-anchor="middle" fill="#333" x="200" y="434">14-04</text><g transform="translate(165,454)"></g></g><g><g transform="translate(245,404)"><g><a target="_top" xlink:href="mob-slice0-step2628000-ofs19-col22-cat0.html"><rect style="display:none" class="hcell-act-col22-cat0" fill="#5CB85C" stroke="#000" stroke-width="5" width="70" height="26" x="0" y="-31" rx="8" ry="8"/><rect class="hcell-col22-cat0" fill="#5CB85C" stroke="#DDD" width="70" height="36" x="0" y="-36" rx="8" ry="8"/><text text-anchor="middle" fill="#FFF" x="35" y="-16">63</text></a><g transform="translate(0,-36)"><g><a target="_top" xlink:href="mob-slice0-step2628000-ofs19-col22-cat1.html"><rect style="display:none" class="hcell-act-col22-cat1" fill="#337AB7" stroke="#000" stroke-width="5" width="70" height="71" x="0" y="-76" rx="8" ry="8"/><rect class="hcell-col22-cat1" fill="#337AB7" stroke="#DDD" width="70" height="81" x="0" y="-81" rx="8" ry="8"/><text text-anchor="middle" fill="#FFF" x="35" y="-61">142</text></a><g transform="translate(0,-81)"><g><a target="_top" xlink:href="mob-slice0-step2628000-ofs19-col22-cat2.html"><rect style="display:none" class="hcell-act-col22-cat2" fill="#D9534F" stroke="#000" stroke-width="5" width="70" height="272" x="0" y="-277" rx="8" ry="8"/><rect class="hcell-col22-cat2" fill="#D9534F" stroke="#DDD" width="70" height="282" x="0" y="-282" rx="8" ry="8"/><text text-anchor="middle" fill="#FFF" x="35" y="-262">494</text></a></g></g></g></g></g></g><rect fill="none" stroke="#DDD" width="70" height="30" rx="8" ry="8" x="245" y="414"/><text text-anchor="middle" fill="#333" x="280" y="434">14-05</text><g transform="translate(245,454)"></g></g><g><g transform="translate(325,404)"><g><a target="_top" xlink:href="mob-slice0-step2628000-ofs19-col23-cat0.html"><rect style="display:none" class="hcell-act-col23-cat0" fill="#5CB85C" stroke="#000" stroke-width="5" width="70" height="20" x="0" y="-25" rx="8" ry="8"/><rect class="hcell-col23-cat0" fill="#5CB85C" stroke="#DDD" width="70" height="30" x="0" y="-30" rx="8" ry="8"/><text text-anchor="middle" fill="#FFF" x="35" y="-10">38</text></a><g transform="translate(0,-30)"><g><a target="_top" xlink:href="mob-slice0-step2628000-ofs19-col23-cat1.html"><rect style="display:none" class="hcell-act-col23-cat1" fill="#337AB7" stroke="#000" stroke-width="5" width="70" height="73" x="0" y="-78" rx="8" ry="8"/><rect class="hcell-col23-cat1" fill="#337AB7" stroke="#DDD" width="70" height="83" x="0" y="-83" rx="8" ry="8"/><text text-anchor="middle" fill="#FFF" x="35" y="-63">146</text></a><g transform="translate(0,-83)"><g><a target="_top" xlink:href="mob-slice0-step2628000-ofs19-col23-cat2.html"><rect style="display:none" class="hcell-act-col23-cat2" fill="#D9534F" stroke="#000" stroke-width="5" width="70" height="134" x="0" y="-139" rx="8" ry="8"/><rect class="hcell-col23-cat2" fill="#D9534F" stroke="#DDD" width="70" height="144" x="0" y="-144" rx="8" ry="8"/><text text-anchor="middle" fill="#FFF" x="35" y="-124">253</text></a></g></g></g></g></g></g><rect fill="none" stroke="#DDD" width="70" height="30" rx="8" ry="8" x="325" y="414"/><text text-anchor="middle" fill="#333" x="360" y="434">14-06</text><g transform="translate(325,454)"></g></g></svg>