<svg xmlns="http://www.w3.org/2000/svg" xmlns:xlink="http://www.w3.org/1999/xlink" width="100%" height="100%" viewBox="0 0 400 459"><g><g transform="translate(5,234)"><g><a target="_top" xlink:href="mob-sliceTagAsset-step2628000-ofs4-col4-cat0.html"><rect style="display:none" class="hcell-act-col4-cat0" fill="#777" stroke="#000" stroke-width="5" width="70" height="207" x="0" y="-212" rx="8" ry="8"/><rect class="hcell-col4-cat0" fill="#777" stroke="#DDD" width="70" height="217" x="0" y="-217" rx="8" ry="8"/><text text-anchor="middle" fill="#FFF" x="35" y="-197">5499</text></a></g></g><rect fill="none" stroke="#DDD" width="70" height="30" rx="8" ry="8" x="5" y="244"/><text text-anchor="middle" fill="#333" x="40" y="264">12-10</text><g transform="translate(5,284)"><g><a target="_top" xlink:href="mob-sliceTagAsset-step2628000-ofs4-col4-cat0.html"><rect style="display:none" class="hcell-act-col4-cat0" fill="#777" stroke="#000" stroke-width="5" width="70" height="147" x="0" y="5" rx="8" ry="8"/><rect class="hcell-col4-cat0" fill="#777" stroke="#DDD" width="70" height="157" x="0" y="0" rx="8" ry="8"/><text text-anchor="middle" fill="#FFF" x="35" y="20">-3989</text></a></g></g></g><g><g transform="translate(85,234)"><g><a target="_top" xlink:href="mob-sliceTagAsset-step2628000-ofs4-col5-cat0.html"><rect style="display:none" class="hcell-act-col5-cat0" fill="#777" stroke="#000" stroke-width="5" width="70" height="101" x="0" y="-106" rx="8" ry="8"/><rect class="hcell-col5-cat0" fill="#777" stroke="#DDD" width="70" height="111" x="0" y="-111" rx="8" ry="8"/><text text-anchor="middle" fill="#FFF" x="35" y="-91">2811</text></a></g></g><rect fill="none" stroke="#DDD" width="70" height="30" rx="8" ry="8" x="85" y="244"/><text text-anchor="middle" fill="#333" x="120" y="264">12-12</text><g transform="translate(85,284)"><g><a target="_top" xlink:href="mob-sliceTagAsset-step2628000-ofs4-col5-cat0.html"><rect style="display:none" class="hcell-act-col5-cat0" fill="#777" stroke="#000" stroke-width="5" width="70" height="108" x="0" y="5" rx="8" ry="8"/><rect class="hcell-col5-cat0" fill="#777" stroke="#DDD" width="70" height="118" x="0" y="0" rx="8" ry="8"/><text text-anchor="middle" fill="#FFF" x="35" y="20">-2997</text></a></g></g></g><g><g transform="translate(165,234)"><g><a target="_top" xlink:href="mob-sliceTagAsset-step2628000-ofs4-col6-cat0.html"><rect style="display:none" class="hcell-act-col6-cat0" fill="#777" stroke="#000" stroke-width="5" width="70" height="99" x="0" y="-104" rx="8" ry="8"/><rect class="hcell-col6-cat0" fill="#777" stroke="#DDD" width="70" height="109" x="0" y="-109" rx="8" ry="8"/><text text-anchor="middle" fill="#FFF" x="35" y="-89">2753</text></a></g></g><rect fill="none" stroke="#DDD" width="70" height="30" rx="8" ry="8" x="165" y="244"/><text text-anchor="middle" fill="#333" x="200" y="264">12-12</text><g transform="translate(165,284)"><g><a target="_top" xlink:href="mob-sliceTagAsset-step2628000-ofs4-col6-cat0.html"><rect style="display:none" class="hcell-act-col6-cat0" fill="#777" stroke="#000" stroke-width="5" width="70" height="103" x="0" y="5" rx="8" ry="8"/><rect class="hcell-col6-cat0" fill="#777" stroke="#DDD" width="70" height="113" x="0" y="0" rx="8" ry="8"/><text text-anchor="middle" fill="#FFF" x="35" y="20">-2858</text></a></g></g></g><g><g transform="translate(245,234)"><g><a target="_top" xlink:href="mob-sliceTagAsset-step2628000-ofs4-col7-cat0.html"><rect style="display:none" class="hcell-act-col7-cat0" fill="#777" stroke="#000" stroke-width="5" width="70" height="102" x="0" y="-107" rx="8" ry="8"/><rect class="hcell-col7-cat0" fill="#777" stroke="#DDD" width="70" height="112" x="0" y="-112" rx="8" ry="8"/><text text-anchor="middle" fill="#FFF" x="35" y="-92">2848</text></a></g></g><rect fill="none" stroke="#DDD" width="70" height="30" rx="8" ry="8" x="245" y="244"/><text text-anchor="middle" fill="#333" x="280" y="264">13-01</text><g transform="translate(245,284)"><g><a target="_top" xlink:href="mob-sliceTagAsset-step2628000-ofs4-col7-cat0.html"><rect style="display:none" class="hcell-act-col7-cat0" fill="#777" stroke="#000" stroke-width="5" width="70" height="84" x="0" y="5" rx="8" ry="8"/><rect class="hcell-col7-cat0" fill="#777" stroke="#DDD" width="70" height="94" x="0" y="0" rx="8" ry="8"/><text text-anchor="middle" fill="#FFF" x="35" y="20">-2377</text></a></g></g></g><g><g transform="translate(325,234)"><g><a target="_top" xlink:href="mob-sliceTagAsset-step2628000-ofs4-col8-cat0.html"><rect style="display:none" class="hcell-act-col8-cat0" fill="#777" stroke="#000" stroke-width="5" width="70" height="219" x="0" y="-224" rx="8" ry="8"/><rect class="hcell-col8-cat0" fill="#777" stroke="#DDD" width="70" height="229" x="0" y="-229" rx="8" ry="8"/><text text-anchor="middle" fill="#FFF" x="35" y="-209">5786</text></a></g></g><rect fill="none" stroke="#DDD" width="70" height="30" rx="8" ry="8" x="325" y="244"/><text text-anchor="middle" fill="#333" x="360" y="264">13-03</text><g transform="translate(325,284)"><g><a target="_top" xlink:href="mob-sliceTagAsset-step2628000-ofs4-col8-cat0.html"><rect style="display:none" class="hcell-act-col8-cat0" fill="#777" stroke="#000" stroke-width="5" width="70" height="160" x="0" y="5" rx="8" ry="8"/><rect class="hcell-col8-cat0" fill="#777" stroke="#DDD" width="70" height="170" x="0" y="0" rx="8" ry="8"/><text text-anchor="middle" fill="#FFF" x="35" y="20">-4319</text></a></g></g></g></svg>