<svg xmlns="http://www.w3.org/2000/svg" xmlns:xlink="http://www.w3.org/1999/xlink" width="100%" height="100%" viewBox="0 0 400 457"><g><g transform="translate(5,231)"><g><a target="_top" xlink:href="mob-slice3-step2628000-ofs14-col14-cat2.html"><rect style="display:none" class="hcell-act-col14-cat2" fill="#D9534F" stroke="#000" stroke-width="5" width="70" height="58" x="0" y="-63" rx="8" ry="8"/><rect class="hcell-col14-cat2" fill="#D9534F" stroke="#DDD" width="70" height="68" x="0" y="-68" rx="8" ry="8"/><text text-anchor="middle" fill="#FFF" x="35" y="-48">235</text></a><g transform="translate(0,-68)"><g><a target="_top" xlink:href="mob-slice3-step2628000-ofs14-col14-cat0.html"><rect style="display:none" class="hcell-act-col14-cat0" fill="#5CB85C" stroke="#000" stroke-width="5" width="70" height="148" x="0" y="-153" rx="8" ry="8"/><rect class="hcell-col14-cat0" fill="#5CB85C" stroke="#DDD" width="70" height="158" x="0" y="-158" rx="8" ry="8"/><text text-anchor="middle" fill="#FFF" x="35" y="-138">541</text></a></g></g></g></g><rect fill="none" stroke="#DDD" width="70" height="30" rx="8" ry="8" x="5" y="241"/><text text-anchor="middle" fill="#333" x="40" y="261">13-08</text><g transform="translate(5,281)"><g><a target="_top" xlink:href="mob-slice3-step2628000-ofs14-col14-cat1.html"><rect style="display:none" class="hcell-act-col14-cat1" fill="#337AB7" stroke="#000" stroke-width="5" width="70" height="20" x="0" y="5" rx="8" ry="8"/><rect class="hcell-col14-cat1" fill="#337AB7" stroke="#DDD" width="70" height="30" x="0" y="0" rx="8" ry="8"/><text text-anchor="middle" fill="#FFF" x="35" y="20">-40</text></a></g></g></g><g><g transform="translate(85,231)"><g><a target="_top" xlink:href="mob-slice3-step2628000-ofs14-col15-cat0.html"><rect style="display:none" class="hcell-act-col15-cat0" fill="#5CB85C" stroke="#000" stroke-width="5" width="70" height="43" x="0" y="-48" rx="8" ry="8"/><rect class="hcell-col15-cat0" fill="#5CB85C" stroke="#DDD" width="70" height="53" x="0" y="-53" rx="8" ry="8"/><text text-anchor="middle" fill="#FFF" x="35" y="-33">183</text></a><g transform="translate(0,-53)"><g><a target="_top" xlink:href="mob-slice3-step2628000-ofs14-col15-cat2.html"><rect style="display:none" class="hcell-act-col15-cat2" fill="#D9534F" stroke="#000" stroke-width="5" width="70" height="154" x="0" y="-159" rx="8" ry="8"/><rect class="hcell-col15-cat2" fill="#D9534F" stroke="#DDD" width="70" height="164" x="0" y="-164" rx="8" ry="8"/><text text-anchor="middle" fill="#FFF" x="35" y="-144">562</text></a></g></g></g></g><rect fill="none" stroke="#DDD" width="70" height="30" rx="8" ry="8" x="85" y="241"/><text text-anchor="middle" fill="#333" x="120" y="261">13-10</text><g transform="translate(85,281)"><g><a target="_top" xlink:href="mob-slice3-step2628000-ofs14-col15-cat1.html"><rect style="display:none" class="hcell-act-col15-cat1" fill="#337AB7" stroke="#000" stroke-width="5" width="70" height="32" x="0" y="5" rx="8" ry="8"/><rect class="hcell-col15-cat1" fill="#337AB7" stroke="#DDD" width="70" height="42" x="0" y="0" rx="8" ry="8"/><text text-anchor="middle" fill="#FFF" x="35" y="20">-147</text></a></g></g></g><g><g transform="translate(165,231)"><g><a target="_top" xlink:href="mob-slice3-step2628000-ofs14-col16-cat0.html"><rect style="display:none" class="hcell-act-col16-cat0" fill="#5CB85C" stroke="#000" stroke-width="5" width="70" height="20" x="0" y="-25" rx="8" ry="8"/><rect class="hcell-col16-cat0" fill="#5CB85C" stroke="#DDD" width="70" height="30" x="0" y="-30" rx="8" ry="8"/><text text-anchor="middle" fill="#FFF" x="35" y="-10">21</text></a><g transform="translate(0,-30)"><g><a target="_top" xlink:href="mob-slice3-step2628000-ofs14-col16-cat2.html"><rect style="display:none" class="hcell-act-col16-cat2" fill="#D9534F" stroke="#000" stroke-width="5" width="70" height="115" x="0" y="-120" rx="8" ry="8"/><rect class="hcell-col16-cat2" fill="#D9534F" stroke="#DDD" width="70" height="125" x="0" y="-125" rx="8" ry="8"/><text text-anchor="middle" fill="#FFF" x="35" y="-105">429</text></a></g></g></g></g><rect fill="none" stroke="#DDD" width="70" height="30" rx="8" ry="8" x="165" y="241"/><text text-anchor="middle" fill="#333" x="200" y="261">13-10</text><g transform="translate(165,281)"><g><a target="_top" xlink:href="mob-slice3-step2628000-ofs14-col16-cat1.html"><rect style="display:none" class="hcell-act-col16-cat1" fill="#337AB7" stroke="#000" stroke-width="5" width="70" height="20" x="0" y="5" rx="8" ry="8"/><rect class="hcell-col16-cat1" fill="#337AB7" stroke="#DDD" width="70" height="30" x="0" y="0" rx="8" ry="8"/><text text-anchor="middle" fill="#FFF" x="35" y="20">-48</text></a></g></g></g><g><g transform="translate(245,231)"><g><a target="_top" xlink:href="mob-slice3-step2628000-ofs14-col17-cat2.html"><rect style="display:none" class="hcell-act-col17-cat2" fill="#D9534F" stroke="#000" stroke-width="5" width="70" height="178" x="0" y="-183" rx="8" ry="8"/><rect class="hcell-col17-cat2" fill="#D9534F" stroke="#DDD" width="70" height="188" x="0" y="-188" rx="8" ry="8"/><text text-anchor="middle" fill="#FFF" x="35" y="-168">643</text></a></g></g><rect fill="none" stroke="#DDD" width="70" height="30" rx="8" ry="8" x="245" y="241"/><text text-anchor="middle" fill="#333" x="280" y="261">13-12</text><g transform="translate(245,281)"><g><a target="_top" xlink:href="mob-slice3-step2628000-ofs14-col17-cat1.html"><rect style="display:none" class="hcell-act-col17-cat1" fill="#337AB7" stroke="#000" stroke-width="5" width="70" height="36" x="0" y="5" rx="8" ry="8"/><rect class="hcell-col17-cat1" fill="#337AB7" stroke="#DDD" width="70" height="46" x="0" y="0" rx="8" ry="8"/><text text-anchor="middle" fill="#FFF" x="35" y="20">-160</text></a><g transform="translate(0,46)"><g><a target="_top" xlink:href="mob-slice3-step2628000-ofs14-col17-cat0.html"><rect style="display:none" class="hcell-act-col17-cat0" fill="#5CB85C" stroke="#000" stroke-width="5" width="70" height="115" x="0" y="5" rx="8" ry="8"/><rect class="hcell-col17-cat0" fill="#5CB85C" stroke="#DDD" width="70" height="125" x="0" y="0" rx="8" ry="8"/><text text-anchor="middle" fill="#FFF" x="35" y="20">-430</text></a></g></g></g></g></g><g><g transform="translate(325,231)"><g><a target="_top" xlink:href="mob-slice3-step2628000-ofs14-col18-cat2.html"><rect style="display:none" class="hcell-act-col18-cat2" fill="#D9534F" stroke="#000" stroke-width="5" width="70" height="95" x="0" y="-100" rx="8" ry="8"/><rect class="hcell-col18-cat2" fill="#D9534F" stroke="#DDD" width="70" height="105" x="0" y="-105" rx="8" ry="8"/><text text-anchor="middle" fill="#FFF" x="35" y="-85">360</text></a></g></g><rect fill="none" stroke="#DDD" width="70" height="30" rx="8" ry="8" x="325" y="241"/><text text-anchor="middle" fill="#333" x="360" y="261">13-12</text><g transform="translate(325,281)"><g><a target="_top" xlink:href="mob-slice3-step2628000-ofs14-col18-cat1.html"><rect style="display:none" class="hcell-act-col18-cat1" fill="#337AB7" stroke="#000" stroke-width="5" width="70" height="20" x="0" y="5" rx="8" ry="8"/><rect class="hcell-col18-cat1" fill="#337AB7" stroke="#DDD" width="70" height="30" x="0" y="0" rx="8" ry="8"/><text text-anchor="middle" fill="#FFF" x="35" y="20">-76</text></a><g transform="translate(0,30)"><g><a target="_top" xlink:href="mob-slice3-step2628000-ofs14-col18-cat0.html"><rect style="display:none" class="hcell-act-col18-cat0" fill="#5CB85C" stroke="#000" stroke-width="5" width="70" height="116" x="0" y="5" rx="8" ry="8"/><rect class="hcell-col18-cat0" fill="#5CB85C" stroke="#DDD" width="70" height="126" x="0" y="0" rx="8" ry="8"/><text text-anchor="middle" fill="#FFF" x="35" y="20">-434</text></a></g></g></g></g></g></svg>