<svg xmlns="http://www.w3.org/2000/svg" xmlns:xlink="http://www.w3.org/1999/xlink" width="100%" height="100%" viewBox="0 0 400 498"><g><g transform="translate(5,199)"><g><a target="_top" xlink:href="mob-slice3-step2628000-ofs19-col19-cat2.html"><rect style="display:none" class="hcell-act-col19-cat2" fill="#D9534F" stroke="#000" stroke-width="5" width="70" height="20" x="0" y="-25" rx="8" ry="8"/><rect class="hcell-col19-cat2" fill="#D9534F" stroke="#DDD" width="70" height="30" x="0" y="-30" rx="8" ry="8"/><text text-anchor="middle" fill="#FFF" x="35" y="-10">403</text></a><g transform="translate(0,-30)"><g><a target="_top" xlink:href="mob-slice3-step2628000-ofs19-col19-cat0.html"><rect style="display:none" class="hcell-act-col19-cat0" fill="#5CB85C" stroke="#000" stroke-width="5" width="70" height="142" x="0" y="-147" rx="8" ry="8"/><rect class="hcell-col19-cat0" fill="#5CB85C" stroke="#DDD" width="70" height="152" x="0" y="-152" rx="8" ry="8"/><text text-anchor="middle" fill="#FFF" x="35" y="-132">4980</text></a></g></g></g></g><rect fill="none" stroke="#DDD" width="70" height="30" rx="8" ry="8" x="5" y="209"/><text text-anchor="middle" fill="#333" x="40" y="229">14-01</text><g transform="translate(5,249)"><g><a target="_top" xlink:href="mob-slice3-step2628000-ofs19-col19-cat1.html"><rect style="display:none" class="hcell-act-col19-cat1" fill="#337AB7" stroke="#000" stroke-width="5" width="70" height="20" x="0" y="5" rx="8" ry="8"/><rect class="hcell-col19-cat1" fill="#337AB7" stroke="#DDD" width="70" height="30" x="0" y="0" rx="8" ry="8"/><text text-anchor="middle" fill="#FFF" x="35" y="20">-100</text></a><g transform="translate(0,30)"><g><a target="_top" xlink:href="mob-slice3-step2628000-ofs19-col19-cat0.html"><rect style="display:none" class="hcell-act-col19-cat0" fill="#5CB85C" stroke="#000" stroke-width="5" width="70" height="134" x="0" y="5" rx="8" ry="8"/><rect class="hcell-col19-cat0" fill="#5CB85C" stroke="#DDD" width="70" height="144" x="0" y="0" rx="8" ry="8"/><text text-anchor="middle" fill="#FFF" x="35" y="20">-4723</text></a></g></g></g></g></g><g><g transform="translate(85,199)"><g><a target="_top" xlink:href="mob-slice3-step2628000-ofs19-col20-cat2.html"><rect style="display:none" class="hcell-act-col20-cat2" fill="#D9534F" stroke="#000" stroke-width="5" width="70" height="20" x="0" y="-25" rx="8" ry="8"/><rect class="hcell-col20-cat2" fill="#D9534F" stroke="#DDD" width="70" height="30" x="0" y="-30" rx="8" ry="8"/><text text-anchor="middle" fill="#FFF" x="35" y="-10">597</text></a><g transform="translate(0,-30)"><g><a target="_top" xlink:href="mob-slice3-step2628000-ofs19-col20-cat0.html"><rect style="display:none" class="hcell-act-col20-cat0" fill="#5CB85C" stroke="#000" stroke-width="5" width="70" height="154" x="0" y="-159" rx="8" ry="8"/><rect class="hcell-col20-cat0" fill="#5CB85C" stroke="#DDD" width="70" height="164" x="0" y="-164" rx="8" ry="8"/><text text-anchor="middle" fill="#FFF" x="35" y="-144">5360</text></a></g></g></g></g><rect fill="none" stroke="#DDD" width="70" height="30" rx="8" ry="8" x="85" y="209"/><text text-anchor="middle" fill="#333" x="120" y="229">14-03</text><g transform="translate(85,249)"><g><a target="_top" xlink:href="mob-slice3-step2628000-ofs19-col20-cat1.html"><rect style="display:none" class="hcell-act-col20-cat1" fill="#337AB7" stroke="#000" stroke-width="5" width="70" height="20" x="0" y="5" rx="8" ry="8"/><rect class="hcell-col20-cat1" fill="#337AB7" stroke="#DDD" width="70" height="30" x="0" y="0" rx="8" ry="8"/><text text-anchor="middle" fill="#FFF" x="35" y="20">-130</text></a><g transform="translate(0,30)"><g><a target="_top" xlink:href="mob-slice3-step2628000-ofs19-col20-cat0.html"><rect style="display:none" class="hcell-act-col20-cat0" fill="#5CB85C" stroke="#000" stroke-width="5" width="70" height="170" x="0" y="5" rx="8" ry="8"/><rect class="hcell-col20-cat0" fill="#5CB85C" stroke="#DDD" width="70" height="180" x="0" y="0" rx="8" ry="8"/><text text-anchor="middle" fill="#FFF" x="35" y="20">-5884</text></a></g></g></g></g></g><g><g transform="translate(165,199)"><g><a target="_top" xlink:href="mob-slice3-step2628000-ofs19-col21-cat2.html"><rect style="display:none" class="hcell-act-col21-cat2" fill="#D9534F" stroke="#000" stroke-width="5" width="70" height="20" x="0" y="-25" rx="8" ry="8"/><rect class="hcell-col21-cat2" fill="#D9534F" stroke="#DDD" width="70" height="30" x="0" y="-30" rx="8" ry="8"/><text text-anchor="middle" fill="#FFF" x="35" y="-10">515</text></a><g transform="translate(0,-30)"><g><a target="_top" xlink:href="mob-slice3-step2628000-ofs19-col21-cat0.html"><rect style="display:none" class="hcell-act-col21-cat0" fill="#5CB85C" stroke="#000" stroke-width="5" width="70" height="99" x="0" y="-104" rx="8" ry="8"/><rect class="hcell-col21-cat0" fill="#5CB85C" stroke="#DDD" width="70" height="109" x="0" y="-109" rx="8" ry="8"/><text text-anchor="middle" fill="#FFF" x="35" y="-89">3589</text></a></g></g></g></g><rect fill="none" stroke="#DDD" width="70" height="30" rx="8" ry="8" x="165" y="209"/><text text-anchor="middle" fill="#333" x="200" y="229">14-04</text><g transform="translate(165,249)"><g><a target="_top" xlink:href="mob-slice3-step2628000-ofs19-col21-cat1.html"><rect style="display:none" class="hcell-act-col21-cat1" fill="#337AB7" stroke="#000" stroke-width="5" width="70" height="20" x="0" y="5" rx="8" ry="8"/><rect class="hcell-col21-cat1" fill="#337AB7" stroke="#DDD" width="70" height="30" x="0" y="0" rx="8" ry="8"/><text text-anchor="middle" fill="#FFF" x="35" y="20">-113</text></a><g transform="translate(0,30)"><g><a target="_top" xlink:href="mob-slice3-step2628000-ofs19-col21-cat0.html"><rect style="display:none" class="hcell-act-col21-cat0" fill="#5CB85C" stroke="#000" stroke-width="5" width="70" height="204" x="0" y="5" rx="8" ry="8"/><rect class="hcell-col21-cat0" fill="#5CB85C" stroke="#DDD" width="70" height="214" x="0" y="0" rx="8" ry="8"/><text text-anchor="middle" fill="#FFF" x="35" y="20">-7001</text></a></g></g></g></g></g><g><g transform="translate(245,199)"><g><a target="_top" xlink:href="mob-slice3-step2628000-ofs19-col22-cat2.html"><rect style="display:none" class="hcell-act-col22-cat2" fill="#D9534F" stroke="#000" stroke-width="5" width="70" height="20" x="0" y="-25" rx="8" ry="8"/><rect class="hcell-col22-cat2" fill="#D9534F" stroke="#DDD" width="70" height="30" x="0" y="-30" rx="8" ry="8"/><text text-anchor="middle" fill="#FFF" x="35" y="-10">701</text></a><g transform="translate(0,-30)"><g><a target="_top" xlink:href="mob-slice3-step2628000-ofs19-col22-cat0.html"><rect style="display:none" class="hcell-act-col22-cat0" fill="#5CB85C" stroke="#000" stroke-width="5" width="70" height="104" x="0" y="-109" rx="8" ry="8"/><rect class="hcell-col22-cat0" fill="#5CB85C" stroke="#DDD" width="70" height="114" x="0" y="-114" rx="8" ry="8"/><text text-anchor="middle" fill="#FFF" x="35" y="-94">3742</text></a></g></g></g></g><rect fill="none" stroke="#DDD" width="70" height="30" rx="8" ry="8" x="245" y="209"/><text text-anchor="middle" fill="#333" x="280" y="229">14-05</text><g transform="translate(245,249)"><g><a target="_top" xlink:href="mob-slice3-step2628000-ofs19-col22-cat1.html"><rect style="display:none" class="hcell-act-col22-cat1" fill="#337AB7" stroke="#000" stroke-width="5" width="70" height="20" x="0" y="5" rx="8" ry="8"/><rect class="hcell-col22-cat1" fill="#337AB7" stroke="#DDD" width="70" height="30" x="0" y="0" rx="8" ry="8"/><text text-anchor="middle" fill="#FFF" x="35" y="20">-129</text></a><g transform="translate(0,30)"><g><a target="_top" xlink:href="mob-slice3-step2628000-ofs19-col22-cat0.html"><rect style="display:none" class="hcell-act-col22-cat0" fill="#5CB85C" stroke="#000" stroke-width="5" width="70" height="149" x="0" y="5" rx="8" ry="8"/><rect class="hcell-col22-cat0" fill="#5CB85C" stroke="#DDD" width="70" height="159" x="0" y="0" rx="8" ry="8"/><text text-anchor="middle" fill="#FFF" x="35" y="20">-5202</text></a></g></g></g></g></g><g><g transform="translate(325,199)"><g><a target="_top" xlink:href="mob-slice3-step2628000-ofs19-col23-cat2.html"><rect style="display:none" class="hcell-act-col23-cat2" fill="#D9534F" stroke="#000" stroke-width="5" width="70" height="20" x="0" y="-25" rx="8" ry="8"/><rect class="hcell-col23-cat2" fill="#D9534F" stroke="#DDD" width="70" height="30" x="0" y="-30" rx="8" ry="8"/><text text-anchor="middle" fill="#FFF" x="35" y="-10">439</text></a><g transform="translate(0,-30)"><g><a target="_top" xlink:href="mob-slice3-step2628000-ofs19-col23-cat0.html"><rect style="display:none" class="hcell-act-col23-cat0" fill="#5CB85C" stroke="#000" stroke-width="5" width="70" height="140" x="0" y="-145" rx="8" ry="8"/><rect class="hcell-col23-cat0" fill="#5CB85C" stroke="#DDD" width="70" height="150" x="0" y="-150" rx="8" ry="8"/><text text-anchor="middle" fill="#FFF" x="35" y="-130">4902</text></a></g></g></g></g><rect fill="none" stroke="#DDD" width="70" height="30" rx="8" ry="8" x="325" y="209"/><text text-anchor="middle" fill="#333" x="360" y="229">14-06</text><g transform="translate(325,249)"><g><a target="_top" xlink:href="mob-slice3-step2628000-ofs19-col23-cat1.html"><rect style="display:none" class="hcell-act-col23-cat1" fill="#337AB7" stroke="#000" stroke-width="5" width="70" height="20" x="0" y="5" rx="8" ry="8"/><rect class="hcell-col23-cat1" fill="#337AB7" stroke="#DDD" width="70" height="30" x="0" y="0" rx="8" ry="8"/><text text-anchor="middle" fill="#FFF" x="35" y="20">-68</text></a><g transform="translate(0,30)"><g><a target="_top" xlink:href="mob-slice3-step2628000-ofs19-col23-cat0.html"><rect style="display:none" class="hcell-act-col23-cat0" fill="#5CB85C" stroke="#000" stroke-width="5" width="70" height="143" x="0" y="5" rx="8" ry="8"/><rect class="hcell-col23-cat0" fill="#5CB85C" stroke="#DDD" width="70" height="153" x="0" y="0" rx="8" ry="8"/><text text-anchor="middle" fill="#FFF" x="35" y="20">-5008</text></a></g></g></g></g></g></svg>