<svg xmlns="http://www.w3.org/2000/svg" xmlns:xlink="http://www.w3.org/1999/xlink" width="100%" height="100%" viewBox="0 0 400 459"><g><g transform="translate(5,404)"><g><a target="_top" xlink:href="mob-slice0-step2628000-ofs4-col4-cat0.html"><rect style="display:none" class="hcell-act-col4-cat0" fill="#5CB85C" stroke="#000" stroke-width="5" width="70" height="20" x="0" y="-25" rx="8" ry="8"/><rect class="hcell-col4-cat0" fill="#5CB85C" stroke="#DDD" width="70" height="30" x="0" y="-30" rx="8" ry="8"/><text text-anchor="middle" fill="#FFF" x="35" y="-10">38</text></a><g transform="translate(0,-30)"><g><a target="_top" xlink:href="mob-slice0-step2628000-ofs4-col4-cat1.html"><rect style="display:none" class="hcell-act-col4-cat1" fill="#337AB7" stroke="#000" stroke-width="5" width="70" height="54" x="0" y="-59" rx="8" ry="8"/><rect class="hcell-col4-cat1" fill="#337AB7" stroke="#DDD" width="70" height="64" x="0" y="-64" rx="8" ry="8"/><text text-anchor="middle" fill="#FFF" x="35" y="-44">110</text></a><g transform="translate(0,-64)"><g><a target="_top" xlink:href="mob-slice0-step2628000-ofs4-col4-cat2.html"><rect style="display:none" class="hcell-act-col4-cat2" fill="#D9534F" stroke="#000" stroke-width="5" width="70" height="200" x="0" y="-205" rx="8" ry="8"/><rect class="hcell-col4-cat2" fill="#D9534F" stroke="#DDD" width="70" height="210" x="0" y="-210" rx="8" ry="8"/><text text-anchor="middle" fill="#FFF" x="35" y="-190">362</text></a></g></g></g></g></g></g><rect fill="none" stroke="#DDD" width="70" height="30" rx="8" ry="8" x="5" y="414"/><text text-anchor="middle" fill="#333" x="40" y="434">12-10</text><g transform="translate(5,454)"></g></g><g><g transform="translate(85,404)"><g><a target="_top" xlink:href="mob-slice0-step2628000-ofs4-col5-cat0.html"><rect style="display:none" class="hcell-act-col5-cat0" fill="#5CB85C" stroke="#000" stroke-width="5" width="70" height="20" x="0" y="-25" rx="8" ry="8"/><rect class="hcell-col5-cat0" fill="#5CB85C" stroke="#DDD" width="70" height="30" x="0" y="-30" rx="8" ry="8"/><text text-anchor="middle" fill="#FFF" x="35" y="-10">41</text></a><g transform="translate(0,-30)"><g><a target="_top" xlink:href="mob-slice0-step2628000-ofs4-col5-cat1.html"><rect style="display:none" class="hcell-act-col5-cat1" fill="#337AB7" stroke="#000" stroke-width="5" width="70" height="74" x="0" y="-79" rx="8" ry="8"/><rect class="hcell-col5-cat1" fill="#337AB7" stroke="#DDD" width="70" height="84" x="0" y="-84" rx="8" ry="8"/><text text-anchor="middle" fill="#FFF" x="35" y="-64">145</text></a><g transform="translate(0,-84)"><g><a target="_top" xlink:href="mob-slice0-step2628000-ofs4-col5-cat2.html"><rect style="display:none" class="hcell-act-col5-cat2" fill="#D9534F" stroke="#000" stroke-width="5" width="70" height="256" x="0" y="-261" rx="8" ry="8"/><rect class="hcell-col5-cat2" fill="#D9534F" stroke="#DDD" width="70" height="266" x="0" y="-266" rx="8" ry="8"/><text text-anchor="middle" fill="#FFF" x="35" y="-246">457</text></a></g></g></g></g></g></g><rect fill="none" stroke="#DDD" width="70" height="30" rx="8" ry="8" x="85" y="414"/><text text-anchor="middle" fill="#333" x="120" y="434">12-12</text><g transform="translate(85,454)"></g></g><g><g transform="translate(165,404)"><g><a target="_top" xlink:href="mob-slice0-step2628000-ofs4-col6-cat0.html"><rect style="display:none" class="hcell-act-col6-cat0" fill="#5CB85C" stroke="#000" stroke-width="5" width="70" height="22" x="0" y="-27" rx="8" ry="8"/><rect class="hcell-col6-cat0" fill="#5CB85C" stroke="#DDD" width="70" height="32" x="0" y="-32" rx="8" ry="8"/><text text-anchor="middle" fill="#FFF" x="35" y="-12">56</text></a><g transform="translate(0,-32)"><g><a target="_top" xlink:href="mob-slice0-step2628000-ofs4-col6-cat1.html"><rect style="display:none" class="hcell-act-col6-cat1" fill="#337AB7" stroke="#000" stroke-width="5" width="70" height="77" x="0" y="-82" rx="8" ry="8"/><rect class="hcell-col6-cat1" fill="#337AB7" stroke="#DDD" width="70" height="87" x="0" y="-87" rx="8" ry="8"/><text text-anchor="middle" fill="#FFF" x="35" y="-67">149</text></a><g transform="translate(0,-87)"><g><a target="_top" xlink:href="mob-slice0-step2628000-ofs4-col6-cat2.html"><rect style="display:none" class="hcell-act-col6-cat2" fill="#D9534F" stroke="#000" stroke-width="5" width="70" height="235" x="0" y="-240" rx="8" ry="8"/><rect class="hcell-col6-cat2" fill="#D9534F" stroke="#DDD" width="70" height="245" x="0" y="-245" rx="8" ry="8"/><text text-anchor="middle" fill="#FFF" x="35" y="-225">420</text></a></g></g></g></g></g></g><rect fill="none" stroke="#DDD" width="70" height="30" rx="8" ry="8" x="165" y="414"/><text text-anchor="middle" fill="#333" x="200" y="434">12-12</text><g transform="translate(165,454)"></g></g><g><g transform="translate(245,404)"><g><a target="_top" xlink:href="mob-slice0-step2628000-ofs4-col7-cat0.html"><rect style="display:none" class="hcell-act-col7-cat0" fill="#5CB85C" stroke="#000" stroke-width="5" width="70" height="20" x="0" y="-25" rx="8" ry="8"/><rect class="hcell-col7-cat0" fill="#5CB85C" stroke="#DDD" width="70" height="30" x="0" y="-30" rx="8" ry="8"/><text text-anchor="middle" fill="#FFF" x="35" y="-10">40</text></a><g transform="translate(0,-30)"><g><a target="_top" xlink:href="mob-slice0-step2628000-ofs4-col7-cat1.html"><rect style="display:none" class="hcell-act-col7-cat1" fill="#337AB7" stroke="#000" stroke-width="5" width="70" height="83" x="0" y="-88" rx="8" ry="8"/><rect class="hcell-col7-cat1" fill="#337AB7" stroke="#DDD" width="70" height="93" x="0" y="-93" rx="8" ry="8"/><text text-anchor="middle" fill="#FFF" x="35" y="-73">161</text></a><g transform="translate(0,-93)"><g><a target="_top" xlink:href="mob-slice0-step2628000-ofs4-col7-cat2.html"><rect style="display:none" class="hcell-act-col7-cat2" fill="#D9534F" stroke="#000" stroke-width="5" width="70" height="197" x="0" y="-202" rx="8" ry="8"/><rect class="hcell-col7-cat2" fill="#D9534F" stroke="#DDD" width="70" height="207" x="0" y="-207" rx="8" ry="8"/><text text-anchor="middle" fill="#FFF" x="35" y="-187">356</text></a></g></g></g></g></g></g><rect fill="none" stroke="#DDD" width="70" height="30" rx="8" ry="8" x="245" y="414"/><text text-anchor="middle" fill="#333" x="280" y="434">13-01</text><g transform="translate(245,454)"></g></g><g><g transform="translate(325,404)"><g><a target="_top" xlink:href="mob-slice0-step2628000-ofs4-col8-cat0.html"><rect style="display:none" class="hcell-act-col8-cat0" fill="#5CB85C" stroke="#000" stroke-width="5" width="70" height="26" x="0" y="-31" rx="8" ry="8"/><rect class="hcell-col8-cat0" fill="#5CB85C" stroke="#DDD" width="70" height="36" x="0" y="-36" rx="8" ry="8"/><text text-anchor="middle" fill="#FFF" x="35" y="-16">62</text></a><g transform="translate(0,-36)"><g><a target="_top" xlink:href="mob-slice0-step2628000-ofs4-col8-cat1.html"><rect style="display:none" class="hcell-act-col8-cat1" fill="#337AB7" stroke="#000" stroke-width="5" width="70" height="87" x="0" y="-92" rx="8" ry="8"/><rect class="hcell-col8-cat1" fill="#337AB7" stroke="#DDD" width="70" height="97" x="0" y="-97" rx="8" ry="8"/><text text-anchor="middle" fill="#FFF" x="35" y="-77">166</text></a><g transform="translate(0,-97)"><g><a target="_top" xlink:href="mob-slice0-step2628000-ofs4-col8-cat2.html"><rect style="display:none" class="hcell-act-col8-cat2" fill="#D9534F" stroke="#000" stroke-width="5" width="70" height="256" x="0" y="-261" rx="8" ry="8"/><rect class="hcell-col8-cat2" fill="#D9534F" stroke="#DDD" width="70" height="266" x="0" y="-266" rx="8" ry="8"/><text text-anchor="middle" fill="#FFF" x="35" y="-246">457</text></a></g></g></g></g></g></g><rect fill="none" stroke="#DDD" width="70" height="30" rx="8" ry="8" x="325" y="414"/><text text-anchor="middle" fill="#333" x="360" y="434">13-03</text><g transform="translate(325,454)"></g></g></svg>