<svg xmlns="http://www.w3.org/2000/svg" xmlns:xlink="http://www.w3.org/1999/xlink" width="100%" height="100%" viewBox="0 0 400 459"><g><g transform="translate(5,61)"></g><rect fill="none" stroke="#DDD" width="70" height="30" rx="8" ry="8" x="5" y="71"/><text text-anchor="middle" fill="#333" x="40" y="91">14-12</text><g transform="translate(5,111)"><g><a target="_top" xlink:href="mob-sliceTagOther-step2628000-ofs29-col29-cat0.html"><rect style="display:none" class="hcell-act-col29-cat0" fill="#777" stroke="#000" stroke-width="5" width="70" height="31" x="0" y="5" rx="8" ry="8"/><rect class="hcell-col29-cat0" fill="#777" stroke="#DDD" width="70" height="41" x="0" y="0" rx="8" ry="8"/><text text-anchor="middle" fill="#FFF" x="35" y="20">-301</text></a></g></g></g><g><g transform="translate(85,61)"></g><rect fill="none" stroke="#DDD" width="70" height="30" rx="8" ry="8" x="85" y="71"/><text text-anchor="middle" fill="#333" x="120" y="91">14-12</text><g transform="translate(85,111)"><g><a target="_top" xlink:href="mob-sliceTagOther-step2628000-ofs29-col30-cat0.html"><rect style="display:none" class="hcell-act-col30-cat0" fill="#777" stroke="#000" stroke-width="5" width="70" height="177" x="0" y="5" rx="8" ry="8"/><rect class="hcell-col30-cat0" fill="#777" stroke="#DDD" width="70" height="187" x="0" y="0" rx="8" ry="8"/><text text-anchor="middle" fill="#FFF" x="35" y="20">-1373</text></a></g></g></g><g><g transform="translate(165,61)"></g><rect fill="none" stroke="#DDD" width="70" height="30" rx="8" ry="8" x="165" y="71"/><text text-anchor="middle" fill="#333" x="200" y="91">15-01</text><g transform="translate(165,111)"><g><a target="_top" xlink:href="mob-sliceTagOther-step2628000-ofs29-col31-cat0.html"><rect style="display:none" class="hcell-act-col31-cat0" fill="#777" stroke="#000" stroke-width="5" width="70" height="333" x="0" y="5" rx="8" ry="8"/><rect class="hcell-col31-cat0" fill="#777" stroke="#DDD" width="70" height="343" x="0" y="0" rx="8" ry="8"/><text text-anchor="middle" fill="#FFF" x="35" y="20">-2512</text></a></g></g></g><g><g transform="translate(245,61)"><g><a target="_top" xlink:href="mob-sliceTagOther-step2628000-ofs29-col32-cat0.html"><rect style="display:none" class="hcell-act-col32-cat0" fill="#777" stroke="#000" stroke-width="5" width="70" height="46" x="0" y="-51" rx="8" ry="8"/><rect class="hcell-col32-cat0" fill="#777" stroke="#DDD" width="70" height="56" x="0" y="-56" rx="8" ry="8"/><text text-anchor="middle" fill="#FFF" x="35" y="-36">412</text></a></g></g><rect fill="none" stroke="#DDD" width="70" height="30" rx="8" ry="8" x="245" y="71"/><text text-anchor="middle" fill="#333" x="280" y="91">15-03</text><g transform="translate(245,111)"></g></g><g><g transform="translate(325,61)"></g><rect fill="none" stroke="#DDD" width="70" height="30" rx="8" ry="8" x="325" y="71"/><text text-anchor="middle" fill="#333" x="360" y="91">15-04</text><g transform="translate(325,111)"><g><a target="_top" xlink:href="mob-sliceTagOther-step2628000-ofs29-col33-cat0.html"><rect style="display:none" class="hcell-act-col33-cat0" fill="#777" stroke="#000" stroke-width="5" width="70" height="239" x="0" y="5" rx="8" ry="8"/><rect class="hcell-col33-cat0" fill="#777" stroke="#DDD" width="70" height="249" x="0" y="0" rx="8" ry="8"/><text text-anchor="middle" fill="#FFF" x="35" y="20">-1826</text></a></g></g></g></svg>