<svg xmlns="http://www.w3.org/2000/svg" xmlns:xlink="http://www.w3.org/1999/xlink" width="100%" height="100%" viewBox="0 0 400 459"><g><g transform="translate(5,227)"><g><a target="_top" xlink:href="mob-slice2-step2628000-ofs14-col14-cat0.html"><rect style="display:none" class="hcell-act-col14-cat0" fill="#D9534F" stroke="#000" stroke-width="5" width="70" height="212" x="0" y="-217" rx="8" ry="8"/><rect class="hcell-col14-cat0" fill="#D9534F" stroke="#DDD" width="70" height="222" x="0" y="-222" rx="8" ry="8"/><text text-anchor="middle" fill="#FFF" x="35" y="-202">541</text></a></g></g><rect fill="none" stroke="#DDD" width="70" height="30" rx="8" ry="8" x="5" y="237"/><text text-anchor="middle" fill="#333" x="40" y="257">13-08</text><g transform="translate(5,277)"></g></g><g><g transform="translate(85,227)"><g><a target="_top" xlink:href="mob-slice2-step2628000-ofs14-col15-cat0.html"><rect style="display:none" class="hcell-act-col15-cat0" fill="#D9534F" stroke="#000" stroke-width="5" width="70" height="65" x="0" y="-70" rx="8" ry="8"/><rect class="hcell-col15-cat0" fill="#D9534F" stroke="#DDD" width="70" height="75" x="0" y="-75" rx="8" ry="8"/><text text-anchor="middle" fill="#FFF" x="35" y="-55">183</text></a></g></g><rect fill="none" stroke="#DDD" width="70" height="30" rx="8" ry="8" x="85" y="237"/><text text-anchor="middle" fill="#333" x="120" y="257">13-10</text><g transform="translate(85,277)"></g></g><g><g transform="translate(165,227)"><g><a target="_top" xlink:href="mob-slice2-step2628000-ofs14-col16-cat0.html"><rect style="display:none" class="hcell-act-col16-cat0" fill="#D9534F" stroke="#000" stroke-width="5" width="70" height="20" x="0" y="-25" rx="8" ry="8"/><rect class="hcell-col16-cat0" fill="#D9534F" stroke="#DDD" width="70" height="30" x="0" y="-30" rx="8" ry="8"/><text text-anchor="middle" fill="#FFF" x="35" y="-10">21</text></a></g></g><rect fill="none" stroke="#DDD" width="70" height="30" rx="8" ry="8" x="165" y="237"/><text text-anchor="middle" fill="#333" x="200" y="257">13-10</text><g transform="translate(165,277)"></g></g><g><g transform="translate(245,227)"></g><rect fill="none" stroke="#DDD" width="70" height="30" rx="8" ry="8" x="245" y="237"/><text text-anchor="middle" fill="#333" x="280" y="257">13-12</text><g transform="translate(245,277)"><g><a target="_top" xlink:href="mob-slice2-step2628000-ofs14-col17-cat0.html"><rect style="display:none" class="hcell-act-col17-cat0" fill="#D9534F" stroke="#000" stroke-width="5" width="70" height="165" x="0" y="5" rx="8" ry="8"/><rect class="hcell-col17-cat0" fill="#D9534F" stroke="#DDD" width="70" height="175" x="0" y="0" rx="8" ry="8"/><text text-anchor="middle" fill="#FFF" x="35" y="20">-430</text></a></g></g></g><g><g transform="translate(325,227)"></g><rect fill="none" stroke="#DDD" width="70" height="30" rx="8" ry="8" x="325" y="237"/><text text-anchor="middle" fill="#333" x="360" y="257">13-12</text><g transform="translate(325,277)"><g><a target="_top" xlink:href="mob-slice2-step2628000-ofs14-col18-cat0.html"><rect style="display:none" class="hcell-act-col18-cat0" fill="#D9534F" stroke="#000" stroke-width="5" width="70" height="167" x="0" y="5" rx="8" ry="8"/><rect class="hcell-col18-cat0" fill="#D9534F" stroke="#DDD" width="70" height="177" x="0" y="0" rx="8" ry="8"/><text text-anchor="middle" fill="#FFF" x="35" y="20">-434</text></a></g></g></g></svg>