<svg xmlns="http://www.w3.org/2000/svg" xmlns:xlink="http://www.w3.org/1999/xlink" width="100%" height="100%" viewBox="0 0 400 459"><g><g transform="translate(5,186)"><g><a target="_top" xlink:href="mob-slice2-step17850241-ofs0-col0-cat0.html"><rect style="display:none" class="hcell-act-col0-cat0" fill="#D9534F" stroke="#000" stroke-width="5" width="70" height="115" x="0" y="-120" rx="8" ry="8"/><rect class="hcell-col0-cat0" fill="#D9534F" stroke="#DDD" width="70" height="125" x="0" y="-125" rx="8" ry="8"/><text text-anchor="middle" fill="#FFF" x="35" y="-105">22613</text></a></g></g><rect fill="none" stroke="#DDD" width="70" height="30" rx="8" ry="8" x="5" y="196"/><text text-anchor="middle" fill="#333" x="40" y="216">12-07</text><g transform="translate(5,236)"><g><a target="_top" xlink:href="mob-slice2-step17850241-ofs0-col0-cat0.html"><rect style="display:none" class="hcell-act-col0-cat0" fill="#D9534F" stroke="#000" stroke-width="5" width="70" height="103" x="0" y="5" rx="8" ry="8"/><rect class="hcell-col0-cat0" fill="#D9534F" stroke="#DDD" width="70" height="113" x="0" y="0" rx="8" ry="8"/><text text-anchor="middle" fill="#FFF" x="35" y="20">-20547</text></a></g></g></g><g><g transform="translate(85,186)"><g><a target="_top" xlink:href="mob-slice2-step17850241-ofs0-col1-cat0.html"><rect style="display:none" class="hcell-act-col1-cat0" fill="#D9534F" stroke="#000" stroke-width="5" width="70" height="131" x="0" y="-136" rx="8" ry="8"/><rect class="hcell-col1-cat0" fill="#D9534F" stroke="#DDD" width="70" height="141" x="0" y="-141" rx="8" ry="8"/><text text-anchor="middle" fill="#FFF" x="35" y="-121">25609</text></a></g></g><rect fill="none" stroke="#DDD" width="70" height="30" rx="8" ry="8" x="85" y="196"/><text text-anchor="middle" fill="#333" x="120" y="216">13-01</text><g transform="translate(85,236)"><g><a target="_top" xlink:href="mob-slice2-step17850241-ofs0-col1-cat0.html"><rect style="display:none" class="hcell-act-col1-cat0" fill="#D9534F" stroke="#000" stroke-width="5" width="70" height="142" x="0" y="5" rx="8" ry="8"/><rect class="hcell-col1-cat0" fill="#D9534F" stroke="#DDD" width="70" height="152" x="0" y="0" rx="8" ry="8"/><text text-anchor="middle" fill="#FFF" x="35" y="20">-27479</text></a></g></g></g><g><g transform="translate(165,186)"><g><a target="_top" xlink:href="mob-slice2-step17850241-ofs0-col2-cat0.html"><rect style="display:none" class="hcell-act-col2-cat0" fill="#D9534F" stroke="#000" stroke-width="5" width="70" height="117" x="0" y="-122" rx="8" ry="8"/><rect class="hcell-col2-cat0" fill="#D9534F" stroke="#DDD" width="70" height="127" x="0" y="-127" rx="8" ry="8"/><text text-anchor="middle" fill="#FFF" x="35" y="-107">23112</text></a></g></g><rect fill="none" stroke="#DDD" width="70" height="30" rx="8" ry="8" x="165" y="196"/><text text-anchor="middle" fill="#333" x="200" y="216">13-08</text><g transform="translate(165,236)"><g><a target="_top" xlink:href="mob-slice2-step17850241-ofs0-col2-cat0.html"><rect style="display:none" class="hcell-act-col2-cat0" fill="#D9534F" stroke="#000" stroke-width="5" width="70" height="131" x="0" y="5" rx="8" ry="8"/><rect class="hcell-col2-cat0" fill="#D9534F" stroke="#DDD" width="70" height="141" x="0" y="0" rx="8" ry="8"/><text text-anchor="middle" fill="#FFF" x="35" y="20">-25622</text></a></g></g></g><g><g transform="translate(245,186)"><g><a target="_top" xlink:href="mob-slice2-step17850241-ofs0-col3-cat0.html"><rect style="display:none" class="hcell-act-col3-cat0" fill="#D9534F" stroke="#000" stroke-width="5" width="70" height="171" x="0" y="-176" rx="8" ry="8"/><rect class="hcell-col3-cat0" fill="#D9534F" stroke="#DDD" width="70" height="181" x="0" y="-181" rx="8" ry="8"/><text text-anchor="middle" fill="#FFF" x="35" y="-161">32824</text></a></g></g><rect fill="none" stroke="#DDD" width="70" height="30" rx="8" ry="8" x="245" y="196"/><text text-anchor="middle" fill="#333" x="280" y="216">14-03</text><g transform="translate(245,236)"><g><a target="_top" xlink:href="mob-slice2-step17850241-ofs0-col3-cat0.html"><rect style="display:none" class="hcell-act-col3-cat0" fill="#D9534F" stroke="#000" stroke-width="5" width="70" height="208" x="0" y="5" rx="8" ry="8"/><rect class="hcell-col3-cat0" fill="#D9534F" stroke="#DDD" width="70" height="218" x="0" y="0" rx="8" ry="8"/><text text-anchor="middle" fill="#FFF" x="35" y="20">-39473</text></a></g></g></g><g><g transform="translate(325,186)"><g><a target="_top" xlink:href="mob-slice2-step17850241-ofs0-col4-cat0.html"><rect style="display:none" class="hcell-act-col4-cat0" fill="#D9534F" stroke="#000" stroke-width="5" width="70" height="150" x="0" y="-155" rx="8" ry="8"/><rect class="hcell-col4-cat0" fill="#D9534F" stroke="#DDD" width="70" height="160" x="0" y="-160" rx="8" ry="8"/><text text-anchor="middle" fill="#FFF" x="35" y="-140">28966</text></a></g></g><rect fill="none" stroke="#DDD" width="70" height="30" rx="8" ry="8" x="325" y="196"/><text text-anchor="middle" fill="#333" x="360" y="216">14-10</text><g transform="translate(325,236)"><g><a target="_top" xlink:href="mob-slice2-step17850241-ofs0-col4-cat0.html"><rect style="display:none" class="hcell-act-col4-cat0" fill="#D9534F" stroke="#000" stroke-width="5" width="70" height="181" x="0" y="5" rx="8" ry="8"/><rect class="hcell-col4-cat0" fill="#D9534F" stroke="#DDD" width="70" height="191" x="0" y="0" rx="8" ry="8"/><text text-anchor="middle" fill="#FFF" x="35" y="20">-34564</text></a></g></g></g></svg>