<svg xmlns="http://www.w3.org/2000/svg" xmlns:xlink="http://www.w3.org/1999/xlink" width="100%" height="100%" viewBox="0 0 400 459"><g><g transform="translate(5,241)"><g><a target="_top" xlink:href="mob-sliceTagOther-step2628000-ofs4-col4-cat0.html"><rect style="display:none" class="hcell-act-col4-cat0" fill="#777" stroke="#000" stroke-width="5" width="70" height="211" x="0" y="-216" rx="8" ry="8"/><rect class="hcell-col4-cat0" fill="#777" stroke="#DDD" width="70" height="221" x="0" y="-221" rx="8" ry="8"/><text text-anchor="middle" fill="#FFF" x="35" y="-201">5861</text></a></g></g><rect fill="none" stroke="#DDD" width="70" height="30" rx="8" ry="8" x="5" y="251"/><text text-anchor="middle" fill="#333" x="40" y="271">12-10</text><g transform="translate(5,291)"><g><a target="_top" xlink:href="mob-sliceTagOther-step2628000-ofs4-col4-cat0.html"><rect style="display:none" class="hcell-act-col4-cat0" fill="#777" stroke="#000" stroke-width="5" width="70" height="141" x="0" y="5" rx="8" ry="8"/><rect class="hcell-col4-cat0" fill="#777" stroke="#DDD" width="70" height="151" x="0" y="0" rx="8" ry="8"/><text text-anchor="middle" fill="#FFF" x="35" y="20">-3989</text></a></g></g></g><g><g transform="translate(85,241)"><g><a target="_top" xlink:href="mob-sliceTagOther-step2628000-ofs4-col5-cat0.html"><rect style="display:none" class="hcell-act-col5-cat0" fill="#777" stroke="#000" stroke-width="5" width="70" height="113" x="0" y="-118" rx="8" ry="8"/><rect class="hcell-col5-cat0" fill="#777" stroke="#DDD" width="70" height="123" x="0" y="-123" rx="8" ry="8"/><text text-anchor="middle" fill="#FFF" x="35" y="-103">3269</text></a></g></g><rect fill="none" stroke="#DDD" width="70" height="30" rx="8" ry="8" x="85" y="251"/><text text-anchor="middle" fill="#333" x="120" y="271">12-12</text><g transform="translate(85,291)"><g><a target="_top" xlink:href="mob-sliceTagOther-step2628000-ofs4-col5-cat0.html"><rect style="display:none" class="hcell-act-col5-cat0" fill="#777" stroke="#000" stroke-width="5" width="70" height="103" x="0" y="5" rx="8" ry="8"/><rect class="hcell-col5-cat0" fill="#777" stroke="#DDD" width="70" height="113" x="0" y="0" rx="8" ry="8"/><text text-anchor="middle" fill="#FFF" x="35" y="20">-2997</text></a></g></g></g><g><g transform="translate(165,241)"><g><a target="_top" xlink:href="mob-sliceTagOther-step2628000-ofs4-col6-cat0.html"><rect style="display:none" class="hcell-act-col6-cat0" fill="#777" stroke="#000" stroke-width="5" width="70" height="110" x="0" y="-115" rx="8" ry="8"/><rect class="hcell-col6-cat0" fill="#777" stroke="#DDD" width="70" height="120" x="0" y="-120" rx="8" ry="8"/><text text-anchor="middle" fill="#FFF" x="35" y="-100">3174</text></a></g></g><rect fill="none" stroke="#DDD" width="70" height="30" rx="8" ry="8" x="165" y="251"/><text text-anchor="middle" fill="#333" x="200" y="271">12-12</text><g transform="translate(165,291)"><g><a target="_top" xlink:href="mob-sliceTagOther-step2628000-ofs4-col6-cat0.html"><rect style="display:none" class="hcell-act-col6-cat0" fill="#777" stroke="#000" stroke-width="5" width="70" height="98" x="0" y="5" rx="8" ry="8"/><rect class="hcell-col6-cat0" fill="#777" stroke="#DDD" width="70" height="108" x="0" y="0" rx="8" ry="8"/><text text-anchor="middle" fill="#FFF" x="35" y="20">-2858</text></a></g></g></g><g><g transform="translate(245,241)"><g><a target="_top" xlink:href="mob-sliceTagOther-step2628000-ofs4-col7-cat0.html"><rect style="display:none" class="hcell-act-col7-cat0" fill="#777" stroke="#000" stroke-width="5" width="70" height="111" x="0" y="-116" rx="8" ry="8"/><rect class="hcell-col7-cat0" fill="#777" stroke="#DDD" width="70" height="121" x="0" y="-121" rx="8" ry="8"/><text text-anchor="middle" fill="#FFF" x="35" y="-101">3205</text></a></g></g><rect fill="none" stroke="#DDD" width="70" height="30" rx="8" ry="8" x="245" y="251"/><text text-anchor="middle" fill="#333" x="280" y="271">13-01</text><g transform="translate(245,291)"><g><a target="_top" xlink:href="mob-sliceTagOther-step2628000-ofs4-col7-cat0.html"><rect style="display:none" class="hcell-act-col7-cat0" fill="#777" stroke="#000" stroke-width="5" width="70" height="79" x="0" y="5" rx="8" ry="8"/><rect class="hcell-col7-cat0" fill="#777" stroke="#DDD" width="70" height="89" x="0" y="0" rx="8" ry="8"/><text text-anchor="middle" fill="#FFF" x="35" y="20">-2377</text></a></g></g></g><g><g transform="translate(325,241)"><g><a target="_top" xlink:href="mob-sliceTagOther-step2628000-ofs4-col8-cat0.html"><rect style="display:none" class="hcell-act-col8-cat0" fill="#777" stroke="#000" stroke-width="5" width="70" height="226" x="0" y="-231" rx="8" ry="8"/><rect class="hcell-col8-cat0" fill="#777" stroke="#DDD" width="70" height="236" x="0" y="-236" rx="8" ry="8"/><text text-anchor="middle" fill="#FFF" x="35" y="-216">6244</text></a></g></g><rect fill="none" stroke="#DDD" width="70" height="30" rx="8" ry="8" x="325" y="251"/><text text-anchor="middle" fill="#333" x="360" y="271">13-03</text><g transform="translate(325,291)"><g><a target="_top" xlink:href="mob-sliceTagOther-step2628000-ofs4-col8-cat0.html"><rect style="display:none" class="hcell-act-col8-cat0" fill="#777" stroke="#000" stroke-width="5" width="70" height="153" x="0" y="5" rx="8" ry="8"/><rect class="hcell-col8-cat0" fill="#777" stroke="#DDD" width="70" height="163" x="0" y="0" rx="8" ry="8"/><text text-anchor="middle" fill="#FFF" x="35" y="20">-4319</text></a></g></g></g></svg>