<svg xmlns="http://www.w3.org/2000/svg" xmlns:xlink="http://www.w3.org/1999/xlink" width="100%" height="100%" viewBox="0 0 400 459"><g><g transform="translate(5,186)"><g><a target="_top" xlink:href="mob-sliceTagOther-step2628000-ofs19-col19-cat0.html"><rect style="display:none" class="hcell-act-col19-cat0" fill="#777" stroke="#000" stroke-width="5" width="70" height="154" x="0" y="-159" rx="8" ry="8"/><rect class="hcell-col19-cat0" fill="#777" stroke="#DDD" width="70" height="164" x="0" y="-164" rx="8" ry="8"/><text text-anchor="middle" fill="#FFF" x="35" y="-144">5268</text></a></g></g><rect fill="none" stroke="#DDD" width="70" height="30" rx="8" ry="8" x="5" y="196"/><text text-anchor="middle" fill="#333" x="40" y="216">14-01</text><g transform="translate(5,236)"><g><a target="_top" xlink:href="mob-sliceTagOther-step2628000-ofs19-col19-cat0.html"><rect style="display:none" class="hcell-act-col19-cat0" fill="#777" stroke="#000" stroke-width="5" width="70" height="137" x="0" y="5" rx="8" ry="8"/><rect class="hcell-col19-cat0" fill="#777" stroke="#DDD" width="70" height="147" x="0" y="0" rx="8" ry="8"/><text text-anchor="middle" fill="#FFF" x="35" y="20">-4723</text></a></g></g></g><g><g transform="translate(85,186)"><g><a target="_top" xlink:href="mob-sliceTagOther-step2628000-ofs19-col20-cat0.html"><rect style="display:none" class="hcell-act-col20-cat0" fill="#777" stroke="#000" stroke-width="5" width="70" height="171" x="0" y="-176" rx="8" ry="8"/><rect class="hcell-col20-cat0" fill="#777" stroke="#DDD" width="70" height="181" x="0" y="-181" rx="8" ry="8"/><text text-anchor="middle" fill="#FFF" x="35" y="-161">5800</text></a></g></g><rect fill="none" stroke="#DDD" width="70" height="30" rx="8" ry="8" x="85" y="196"/><text text-anchor="middle" fill="#333" x="120" y="216">14-03</text><g transform="translate(85,236)"><g><a target="_top" xlink:href="mob-sliceTagOther-step2628000-ofs19-col20-cat0.html"><rect style="display:none" class="hcell-act-col20-cat0" fill="#777" stroke="#000" stroke-width="5" width="70" height="173" x="0" y="5" rx="8" ry="8"/><rect class="hcell-col20-cat0" fill="#777" stroke="#DDD" width="70" height="183" x="0" y="0" rx="8" ry="8"/><text text-anchor="middle" fill="#FFF" x="35" y="20">-5884</text></a></g></g></g><g><g transform="translate(165,186)"><g><a target="_top" xlink:href="mob-sliceTagOther-step2628000-ofs19-col21-cat0.html"><rect style="display:none" class="hcell-act-col21-cat0" fill="#777" stroke="#000" stroke-width="5" width="70" height="113" x="0" y="-118" rx="8" ry="8"/><rect class="hcell-col21-cat0" fill="#777" stroke="#DDD" width="70" height="123" x="0" y="-123" rx="8" ry="8"/><text text-anchor="middle" fill="#FFF" x="35" y="-103">3940</text></a></g></g><rect fill="none" stroke="#DDD" width="70" height="30" rx="8" ry="8" x="165" y="196"/><text text-anchor="middle" fill="#333" x="200" y="216">14-04</text><g transform="translate(165,236)"><g><a target="_top" xlink:href="mob-sliceTagOther-step2628000-ofs19-col21-cat0.html"><rect style="display:none" class="hcell-act-col21-cat0" fill="#777" stroke="#000" stroke-width="5" width="70" height="208" x="0" y="5" rx="8" ry="8"/><rect class="hcell-col21-cat0" fill="#777" stroke="#DDD" width="70" height="218" x="0" y="0" rx="8" ry="8"/><text text-anchor="middle" fill="#FFF" x="35" y="20">-7001</text></a></g></g></g><g><g transform="translate(245,186)"><g><a target="_top" xlink:href="mob-sliceTagOther-step2628000-ofs19-col22-cat0.html"><rect style="display:none" class="hcell-act-col22-cat0" fill="#777" stroke="#000" stroke-width="5" width="70" height="122" x="0" y="-127" rx="8" ry="8"/><rect class="hcell-col22-cat0" fill="#777" stroke="#DDD" width="70" height="132" x="0" y="-132" rx="8" ry="8"/><text text-anchor="middle" fill="#FFF" x="35" y="-112">4236</text></a></g></g><rect fill="none" stroke="#DDD" width="70" height="30" rx="8" ry="8" x="245" y="196"/><text text-anchor="middle" fill="#333" x="280" y="216">14-05</text><g transform="translate(245,236)"><g><a target="_top" xlink:href="mob-sliceTagOther-step2628000-ofs19-col22-cat0.html"><rect style="display:none" class="hcell-act-col22-cat0" fill="#777" stroke="#000" stroke-width="5" width="70" height="152" x="0" y="5" rx="8" ry="8"/><rect class="hcell-col22-cat0" fill="#777" stroke="#DDD" width="70" height="162" x="0" y="0" rx="8" ry="8"/><text text-anchor="middle" fill="#FFF" x="35" y="20">-5202</text></a></g></g></g><g><g transform="translate(325,186)"><g><a target="_top" xlink:href="mob-sliceTagOther-step2628000-ofs19-col23-cat0.html"><rect style="display:none" class="hcell-act-col23-cat0" fill="#777" stroke="#000" stroke-width="5" width="70" height="151" x="0" y="-156" rx="8" ry="8"/><rect class="hcell-col23-cat0" fill="#777" stroke="#DDD" width="70" height="161" x="0" y="-161" rx="8" ry="8"/><text text-anchor="middle" fill="#FFF" x="35" y="-141">5155</text></a></g></g><rect fill="none" stroke="#DDD" width="70" height="30" rx="8" ry="8" x="325" y="196"/><text text-anchor="middle" fill="#333" x="360" y="216">14-06</text><g transform="translate(325,236)"><g><a target="_top" xlink:href="mob-sliceTagOther-step2628000-ofs19-col23-cat0.html"><rect style="display:none" class="hcell-act-col23-cat0" fill="#777" stroke="#000" stroke-width="5" width="70" height="146" x="0" y="5" rx="8" ry="8"/><rect class="hcell-col23-cat0" fill="#777" stroke="#DDD" width="70" height="156" x="0" y="0" rx="8" ry="8"/><text text-anchor="middle" fill="#FFF" x="35" y="20">-5008</text></a></g></g></g></svg>