<svg xmlns="http://www.w3.org/2000/svg" xmlns:xlink="http://www.w3.org/1999/xlink" width="100%" height="100%" viewBox="0 0 400 505"><g><g transform="translate(5,227)"><g><a target="_top" xlink:href="mob-slice3-step2628000-ofs24-col24-cat2.html"><rect style="display:none" class="hcell-act-col24-cat2" fill="#D9534F" stroke="#000" stroke-width="5" width="70" height="20" x="0" y="-25" rx="8" ry="8"/><rect class="hcell-col24-cat2" fill="#D9534F" stroke="#DDD" width="70" height="30" x="0" y="-30" rx="8" ry="8"/><text text-anchor="middle" fill="#FFF" x="35" y="-10">705</text></a><g transform="translate(0,-30)"><g><a target="_top" xlink:href="mob-slice3-step2628000-ofs24-col24-cat0.html"><rect style="display:none" class="hcell-act-col24-cat0" fill="#5CB85C" stroke="#000" stroke-width="5" width="70" height="55" x="0" y="-60" rx="8" ry="8"/><rect class="hcell-col24-cat0" fill="#5CB85C" stroke="#DDD" width="70" height="65" x="0" y="-65" rx="8" ry="8"/><text text-anchor="middle" fill="#FFF" x="35" y="-45">2686</text></a></g></g></g></g><rect fill="none" stroke="#DDD" width="70" height="30" rx="8" ry="8" x="5" y="237"/><text text-anchor="middle" fill="#333" x="40" y="257">14-07</text><g transform="translate(5,277)"><g><a target="_top" xlink:href="mob-slice3-step2628000-ofs24-col24-cat1.html"><rect style="display:none" class="hcell-act-col24-cat1" fill="#337AB7" stroke="#000" stroke-width="5" width="70" height="20" x="0" y="5" rx="8" ry="8"/><rect class="hcell-col24-cat1" fill="#337AB7" stroke="#DDD" width="70" height="30" x="0" y="0" rx="8" ry="8"/><text text-anchor="middle" fill="#FFF" x="35" y="20">-135</text></a><g transform="translate(0,30)"><g><a target="_top" xlink:href="mob-slice3-step2628000-ofs24-col24-cat0.html"><rect style="display:none" class="hcell-act-col24-cat0" fill="#5CB85C" stroke="#000" stroke-width="5" width="70" height="72" x="0" y="5" rx="8" ry="8"/><rect class="hcell-col24-cat0" fill="#5CB85C" stroke="#DDD" width="70" height="82" x="0" y="0" rx="8" ry="8"/><text text-anchor="middle" fill="#FFF" x="35" y="20">-3388</text></a></g></g></g></g></g><g><g transform="translate(85,227)"><g><a target="_top" xlink:href="mob-slice3-step2628000-ofs24-col25-cat2.html"><rect style="display:none" class="hcell-act-col25-cat2" fill="#D9534F" stroke="#000" stroke-width="5" width="70" height="20" x="0" y="-25" rx="8" ry="8"/><rect class="hcell-col25-cat2" fill="#D9534F" stroke="#DDD" width="70" height="30" x="0" y="-30" rx="8" ry="8"/><text text-anchor="middle" fill="#FFF" x="35" y="-10">444</text></a><g transform="translate(0,-30)"><g><a target="_top" xlink:href="mob-slice3-step2628000-ofs24-col25-cat0.html"><rect style="display:none" class="hcell-act-col25-cat0" fill="#5CB85C" stroke="#000" stroke-width="5" width="70" height="182" x="0" y="-187" rx="8" ry="8"/><rect class="hcell-col25-cat0" fill="#5CB85C" stroke="#DDD" width="70" height="192" x="0" y="-192" rx="8" ry="8"/><text text-anchor="middle" fill="#FFF" x="35" y="-172">7951</text></a></g></g></g></g><rect fill="none" stroke="#DDD" width="70" height="30" rx="8" ry="8" x="85" y="237"/><text text-anchor="middle" fill="#333" x="120" y="257">14-08</text><g transform="translate(85,277)"><g><a target="_top" xlink:href="mob-slice3-step2628000-ofs24-col25-cat1.html"><rect style="display:none" class="hcell-act-col25-cat1" fill="#337AB7" stroke="#000" stroke-width="5" width="70" height="20" x="0" y="5" rx="8" ry="8"/><rect class="hcell-col25-cat1" fill="#337AB7" stroke="#DDD" width="70" height="30" x="0" y="0" rx="8" ry="8"/><text text-anchor="middle" fill="#FFF" x="35" y="20">-67</text></a><g transform="translate(0,30)"><g><a target="_top" xlink:href="mob-slice3-step2628000-ofs24-col25-cat0.html"><rect style="display:none" class="hcell-act-col25-cat0" fill="#5CB85C" stroke="#000" stroke-width="5" width="70" height="126" x="0" y="5" rx="8" ry="8"/><rect class="hcell-col25-cat0" fill="#5CB85C" stroke="#DDD" width="70" height="136" x="0" y="0" rx="8" ry="8"/><text text-anchor="middle" fill="#FFF" x="35" y="20">-5623</text></a></g></g></g></g></g><g><g transform="translate(165,227)"><g><a target="_top" xlink:href="mob-slice3-step2628000-ofs24-col26-cat2.html"><rect style="display:none" class="hcell-act-col26-cat2" fill="#D9534F" stroke="#000" stroke-width="5" width="70" height="20" x="0" y="-25" rx="8" ry="8"/><rect class="hcell-col26-cat2" fill="#D9534F" stroke="#DDD" width="70" height="30" x="0" y="-30" rx="8" ry="8"/><text text-anchor="middle" fill="#FFF" x="35" y="-10">643</text></a><g transform="translate(0,-30)"><g><a target="_top" xlink:href="mob-slice3-step2628000-ofs24-col26-cat0.html"><rect style="display:none" class="hcell-act-col26-cat0" fill="#5CB85C" stroke="#000" stroke-width="5" width="70" height="110" x="0" y="-115" rx="8" ry="8"/><rect class="hcell-col26-cat0" fill="#5CB85C" stroke="#DDD" width="70" height="120" x="0" y="-120" rx="8" ry="8"/><text text-anchor="middle" fill="#FFF" x="35" y="-100">4963</text></a></g></g></g></g><rect fill="none" stroke="#DDD" width="70" height="30" rx="8" ry="8" x="165" y="237"/><text text-anchor="middle" fill="#333" x="200" y="257">14-08</text><g transform="translate(165,277)"><g><a target="_top" xlink:href="mob-slice3-step2628000-ofs24-col26-cat1.html"><rect style="display:none" class="hcell-act-col26-cat1" fill="#337AB7" stroke="#000" stroke-width="5" width="70" height="20" x="0" y="5" rx="8" ry="8"/><rect class="hcell-col26-cat1" fill="#337AB7" stroke="#DDD" width="70" height="30" x="0" y="0" rx="8" ry="8"/><text text-anchor="middle" fill="#FFF" x="35" y="20">-135</text></a><g transform="translate(0,30)"><g><a target="_top" xlink:href="mob-slice3-step2628000-ofs24-col26-cat0.html"><rect style="display:none" class="hcell-act-col26-cat0" fill="#5CB85C" stroke="#000" stroke-width="5" width="70" height="183" x="0" y="5" rx="8" ry="8"/><rect class="hcell-col26-cat0" fill="#5CB85C" stroke="#DDD" width="70" height="193" x="0" y="0" rx="8" ry="8"/><text text-anchor="middle" fill="#FFF" x="35" y="20">-7989</text></a></g></g></g></g></g><g><g transform="translate(245,227)"><g><a target="_top" xlink:href="mob-slice3-step2628000-ofs24-col27-cat2.html"><rect style="display:none" class="hcell-act-col27-cat2" fill="#D9534F" stroke="#000" stroke-width="5" width="70" height="20" x="0" y="-25" rx="8" ry="8"/><rect class="hcell-col27-cat2" fill="#D9534F" stroke="#DDD" width="70" height="30" x="0" y="-30" rx="8" ry="8"/><text text-anchor="middle" fill="#FFF" x="35" y="-10">350</text></a><g transform="translate(0,-30)"><g><a target="_top" xlink:href="mob-slice3-step2628000-ofs24-col27-cat0.html"><rect style="display:none" class="hcell-act-col27-cat0" fill="#5CB85C" stroke="#000" stroke-width="5" width="70" height="92" x="0" y="-97" rx="8" ry="8"/><rect class="hcell-col27-cat0" fill="#5CB85C" stroke="#DDD" width="70" height="102" x="0" y="-102" rx="8" ry="8"/><text text-anchor="middle" fill="#FFF" x="35" y="-82">4216</text></a></g></g></g></g><rect fill="none" stroke="#DDD" width="70" height="30" rx="8" ry="8" x="245" y="237"/><text text-anchor="middle" fill="#333" x="280" y="257">14-10</text><g transform="translate(245,277)"><g><a target="_top" xlink:href="mob-slice3-step2628000-ofs24-col27-cat1.html"><rect style="display:none" class="hcell-act-col27-cat1" fill="#337AB7" stroke="#000" stroke-width="5" width="70" height="20" x="0" y="5" rx="8" ry="8"/><rect class="hcell-col27-cat1" fill="#337AB7" stroke="#DDD" width="70" height="30" x="0" y="0" rx="8" ry="8"/><text text-anchor="middle" fill="#FFF" x="35" y="20">-38</text></a><g transform="translate(0,30)"><g><a target="_top" xlink:href="mob-slice3-step2628000-ofs24-col27-cat0.html"><rect style="display:none" class="hcell-act-col27-cat0" fill="#5CB85C" stroke="#000" stroke-width="5" width="70" height="59" x="0" y="5" rx="8" ry="8"/><rect class="hcell-col27-cat0" fill="#5CB85C" stroke="#DDD" width="70" height="69" x="0" y="0" rx="8" ry="8"/><text text-anchor="middle" fill="#FFF" x="35" y="20">-2875</text></a></g></g></g></g></g><g><g transform="translate(325,227)"><g><a target="_top" xlink:href="mob-slice3-step2628000-ofs24-col28-cat2.html"><rect style="display:none" class="hcell-act-col28-cat2" fill="#D9534F" stroke="#000" stroke-width="5" width="70" height="20" x="0" y="-25" rx="8" ry="8"/><rect class="hcell-col28-cat2" fill="#D9534F" stroke="#DDD" width="70" height="30" x="0" y="-30" rx="8" ry="8"/><text text-anchor="middle" fill="#FFF" x="35" y="-10">589</text></a><g transform="translate(0,-30)"><g><a target="_top" xlink:href="mob-slice3-step2628000-ofs24-col28-cat0.html"><rect style="display:none" class="hcell-act-col28-cat0" fill="#5CB85C" stroke="#000" stroke-width="5" width="70" height="53" x="0" y="-58" rx="8" ry="8"/><rect class="hcell-col28-cat0" fill="#5CB85C" stroke="#DDD" width="70" height="63" x="0" y="-63" rx="8" ry="8"/><text text-anchor="middle" fill="#FFF" x="35" y="-43">2637</text></a></g></g></g></g><rect fill="none" stroke="#DDD" width="70" height="30" rx="8" ry="8" x="325" y="237"/><text text-anchor="middle" fill="#333" x="360" y="257">14-10</text><g transform="translate(325,277)"><g><a target="_top" xlink:href="mob-slice3-step2628000-ofs24-col28-cat1.html"><rect style="display:none" class="hcell-act-col28-cat1" fill="#337AB7" stroke="#000" stroke-width="5" width="70" height="20" x="0" y="5" rx="8" ry="8"/><rect class="hcell-col28-cat1" fill="#337AB7" stroke="#DDD" width="70" height="30" x="0" y="0" rx="8" ry="8"/><text text-anchor="middle" fill="#FFF" x="35" y="20">-99</text></a><g transform="translate(0,30)"><g><a target="_top" xlink:href="mob-slice3-step2628000-ofs24-col28-cat0.html"><rect style="display:none" class="hcell-act-col28-cat0" fill="#5CB85C" stroke="#000" stroke-width="5" width="70" height="83" x="0" y="5" rx="8" ry="8"/><rect class="hcell-col28-cat0" fill="#5CB85C" stroke="#DDD" width="70" height="93" x="0" y="0" rx="8" ry="8"/><text text-anchor="middle" fill="#FFF" x="35" y="20">-3848</text></a></g></g></g></g></g></svg>