<svg xmlns="http://www.w3.org/2000/svg" xmlns:xlink="http://www.w3.org/1999/xlink" width="100%" height="100%" viewBox="0 0 400 459"><g><g transform="translate(5,143)"><g><a target="_top" xlink:href="mob-slice2-step2628000-ofs9-col9-cat0.html"><rect style="display:none" class="hcell-act-col9-cat0" fill="#D9534F" stroke="#000" stroke-width="5" width="70" height="128" x="0" y="-133" rx="8" ry="8"/><rect class="hcell-col9-cat0" fill="#D9534F" stroke="#DDD" width="70" height="138" x="0" y="-138" rx="8" ry="8"/><text text-anchor="middle" fill="#FFF" x="35" y="-118">3970</text></a></g></g><rect fill="none" stroke="#DDD" width="70" height="30" rx="8" ry="8" x="5" y="153"/><text text-anchor="middle" fill="#333" x="40" y="173">13-04</text><g transform="translate(5,193)"><g><a target="_top" xlink:href="mob-slice2-step2628000-ofs9-col9-cat0.html"><rect style="display:none" class="hcell-act-col9-cat0" fill="#D9534F" stroke="#000" stroke-width="5" width="70" height="128" x="0" y="5" rx="8" ry="8"/><rect class="hcell-col9-cat0" fill="#D9534F" stroke="#DDD" width="70" height="138" x="0" y="0" rx="8" ry="8"/><text text-anchor="middle" fill="#FFF" x="35" y="20">-3989</text></a></g></g></g><g><g transform="translate(85,143)"><g><a target="_top" xlink:href="mob-slice2-step2628000-ofs9-col10-cat0.html"><rect style="display:none" class="hcell-act-col10-cat0" fill="#D9534F" stroke="#000" stroke-width="5" width="70" height="120" x="0" y="-125" rx="8" ry="8"/><rect class="hcell-col10-cat0" fill="#D9534F" stroke="#DDD" width="70" height="130" x="0" y="-130" rx="8" ry="8"/><text text-anchor="middle" fill="#FFF" x="35" y="-110">3757</text></a></g></g><rect fill="none" stroke="#DDD" width="70" height="30" rx="8" ry="8" x="85" y="153"/><text text-anchor="middle" fill="#333" x="120" y="173">13-05</text><g transform="translate(85,193)"><g><a target="_top" xlink:href="mob-slice2-step2628000-ofs9-col10-cat0.html"><rect style="display:none" class="hcell-act-col10-cat0" fill="#D9534F" stroke="#000" stroke-width="5" width="70" height="124" x="0" y="5" rx="8" ry="8"/><rect class="hcell-col10-cat0" fill="#D9534F" stroke="#DDD" width="70" height="134" x="0" y="0" rx="8" ry="8"/><text text-anchor="middle" fill="#FFF" x="35" y="20">-3867</text></a></g></g></g><g><g transform="translate(165,143)"><g><a target="_top" xlink:href="mob-slice2-step2628000-ofs9-col11-cat0.html"><rect style="display:none" class="hcell-act-col11-cat0" fill="#D9534F" stroke="#000" stroke-width="5" width="70" height="112" x="0" y="-117" rx="8" ry="8"/><rect class="hcell-col11-cat0" fill="#D9534F" stroke="#DDD" width="70" height="122" x="0" y="-122" rx="8" ry="8"/><text text-anchor="middle" fill="#FFF" x="35" y="-102">3532</text></a></g></g><rect fill="none" stroke="#DDD" width="70" height="30" rx="8" ry="8" x="165" y="153"/><text text-anchor="middle" fill="#333" x="200" y="173">13-06</text><g transform="translate(165,193)"><g><a target="_top" xlink:href="mob-slice2-step2628000-ofs9-col11-cat0.html"><rect style="display:none" class="hcell-act-col11-cat0" fill="#D9534F" stroke="#000" stroke-width="5" width="70" height="109" x="0" y="5" rx="8" ry="8"/><rect class="hcell-col11-cat0" fill="#D9534F" stroke="#DDD" width="70" height="119" x="0" y="0" rx="8" ry="8"/><text text-anchor="middle" fill="#FFF" x="35" y="20">-3425</text></a></g></g></g><g><g transform="translate(245,143)"><g><a target="_top" xlink:href="mob-slice2-step2628000-ofs9-col12-cat0.html"><rect style="display:none" class="hcell-act-col12-cat0" fill="#D9534F" stroke="#000" stroke-width="5" width="70" height="97" x="0" y="-102" rx="8" ry="8"/><rect class="hcell-col12-cat0" fill="#D9534F" stroke="#DDD" width="70" height="107" x="0" y="-107" rx="8" ry="8"/><text text-anchor="middle" fill="#FFF" x="35" y="-87">3090</text></a></g></g><rect fill="none" stroke="#DDD" width="70" height="30" rx="8" ry="8" x="245" y="153"/><text text-anchor="middle" fill="#333" x="280" y="173">13-07</text><g transform="translate(245,193)"><g><a target="_top" xlink:href="mob-slice2-step2628000-ofs9-col12-cat0.html"><rect style="display:none" class="hcell-act-col12-cat0" fill="#D9534F" stroke="#000" stroke-width="5" width="70" height="251" x="0" y="5" rx="8" ry="8"/><rect class="hcell-col12-cat0" fill="#D9534F" stroke="#DDD" width="70" height="261" x="0" y="0" rx="8" ry="8"/><text text-anchor="middle" fill="#FFF" x="35" y="20">-7528</text></a></g></g></g><g><g transform="translate(325,143)"><g><a target="_top" xlink:href="mob-slice2-step2628000-ofs9-col13-cat0.html"><rect style="display:none" class="hcell-act-col13-cat0" fill="#D9534F" stroke="#000" stroke-width="5" width="70" height="81" x="0" y="-86" rx="8" ry="8"/><rect class="hcell-col13-cat0" fill="#D9534F" stroke="#DDD" width="70" height="91" x="0" y="-91" rx="8" ry="8"/><text text-anchor="middle" fill="#FFF" x="35" y="-71">2624</text></a></g></g><rect fill="none" stroke="#DDD" width="70" height="30" rx="8" ry="8" x="325" y="153"/><text text-anchor="middle" fill="#333" x="360" y="173">13-08</text><g transform="translate(325,193)"><g><a target="_top" xlink:href="mob-slice2-step2628000-ofs9-col13-cat0.html"><rect style="display:none" class="hcell-act-col13-cat0" fill="#D9534F" stroke="#000" stroke-width="5" width="70" height="88" x="0" y="5" rx="8" ry="8"/><rect class="hcell-col13-cat0" fill="#D9534F" stroke="#DDD" width="70" height="98" x="0" y="0" rx="8" ry="8"/><text text-anchor="middle" fill="#FFF" x="35" y="20">-2843</text></a></g></g></g></svg>