<svg xmlns="http://www.w3.org/2000/svg" xmlns:xlink="http://www.w3.org/1999/xlink" width="100%" height="100%" viewBox="0 0 1280 459"><g><g transform="translate(5,175)"></g><rect fill="none" stroke="#DDD" width="70" height="30" rx="8" ry="8" x="5" y="185"/><text text-anchor="middle" fill="#333" x="40" y="205">12-07</text><g transform="translate(5,225)"><g><a target="_top" xlink:href="dtp-sliceTag6PM-step2628000-ofs0-col0-cat0.html"><rect style="display:none" class="hcell-act-col0-cat0" fill="#777" stroke="#000" stroke-width="5" width="70" height="91" x="0" y="5" rx="8" ry="8"/><rect class="hcell-col0-cat0" fill="#777" stroke="#DDD" width="70" height="101" x="0" y="0" rx="8" ry="8"/><text text-anchor="middle" fill="#FFF" x="35" y="20">-45</text></a></g></g></g><g><g transform="translate(85,175)"></g><rect fill="none" stroke="#DDD" width="70" height="30" rx="8" ry="8" x="85" y="185"/><text text-anchor="middle" fill="#333" x="120" y="205">12-08</text><g transform="translate(85,225)"></g></g><g><g transform="translate(165,175)"><g><a target="_top" xlink:href="dtp-sliceTag6PM-step2628000-ofs0-col2-cat0.html"><rect style="display:none" class="hcell-act-col2-cat0" fill="#777" stroke="#000" stroke-width="5" width="70" height="160" x="0" y="-165" rx="8" ry="8"/><rect class="hcell-col2-cat0" fill="#777" stroke="#DDD" width="70" height="170" x="0" y="-170" rx="8" ry="8"/><text text-anchor="middle" fill="#FFF" x="35" y="-150">74</text></a></g></g><rect fill="none" stroke="#DDD" width="70" height="30" rx="8" ry="8" x="165" y="185"/><text text-anchor="middle" fill="#333" x="200" y="205">12-08</text><g transform="translate(165,225)"><g><a target="_top" xlink:href="dtp-sliceTag6PM-step2628000-ofs0-col2-cat0.html"><rect style="display:none" class="hcell-act-col2-cat0" fill="#777" stroke="#000" stroke-width="5" width="70" height="110" x="0" y="5" rx="8" ry="8"/><rect class="hcell-col2-cat0" fill="#777" stroke="#DDD" width="70" height="120" x="0" y="0" rx="8" ry="8"/><text text-anchor="middle" fill="#FFF" x="35" y="20">-53</text></a></g></g></g><g><g transform="translate(245,175)"></g><rect fill="none" stroke="#DDD" width="70" height="30" rx="8" ry="8" x="245" y="185"/><text text-anchor="middle" fill="#333" x="280" y="205">12-10</text><g transform="translate(245,225)"><g><a target="_top" xlink:href="dtp-sliceTag6PM-step2628000-ofs0-col3-cat0.html"><rect style="display:none" class="hcell-act-col3-cat0" fill="#777" stroke="#000" stroke-width="5" width="70" height="219" x="0" y="5" rx="8" ry="8"/><rect class="hcell-col3-cat0" fill="#777" stroke="#DDD" width="70" height="229" x="0" y="0" rx="8" ry="8"/><text text-anchor="middle" fill="#FFF" x="35" y="20">-100</text></a></g></g></g><g><g transform="translate(325,175)"></g><rect fill="none" stroke="#DDD" width="70" height="30" rx="8" ry="8" x="325" y="185"/><text text-anchor="middle" fill="#333" x="360" y="205">12-10</text><g transform="translate(325,225)"></g></g><g><g transform="translate(405,175)"></g><rect fill="none" stroke="#DDD" width="70" height="30" rx="8" ry="8" x="405" y="185"/><text text-anchor="middle" fill="#333" x="440" y="205">12-12</text><g transform="translate(405,225)"></g></g><g><g transform="translate(485,175)"></g><rect fill="none" stroke="#DDD" width="70" height="30" rx="8" ry="8" x="485" y="185"/><text text-anchor="middle" fill="#333" x="520" y="205">12-12</text><g transform="translate(485,225)"></g></g><g><g transform="translate(565,175)"></g><rect fill="none" stroke="#DDD" width="70" height="30" rx="8" ry="8" x="565" y="185"/><text text-anchor="middle" fill="#333" x="600" y="205">13-01</text><g transform="translate(565,225)"><g><a target="_top" xlink:href="dtp-sliceTag6PM-step2628000-ofs0-col7-cat0.html"><rect style="display:none" class="hcell-act-col7-cat0" fill="#777" stroke="#000" stroke-width="5" width="70" height="60" x="0" y="5" rx="8" ry="8"/><rect class="hcell-col7-cat0" fill="#777" stroke="#DDD" width="70" height="70" x="0" y="0" rx="8" ry="8"/><text text-anchor="middle" fill="#FFF" x="35" y="20">-31</text></a></g></g></g><g><g transform="translate(645,175)"></g><rect fill="none" stroke="#DDD" width="70" height="30" rx="8" ry="8" x="645" y="185"/><text text-anchor="middle" fill="#333" x="680" y="205">13-03</text><g transform="translate(645,225)"><g><a target="_top" xlink:href="dtp-sliceTag6PM-step2628000-ofs0-col8-cat0.html"><rect style="display:none" class="hcell-act-col8-cat0" fill="#777" stroke="#000" stroke-width="5" width="70" height="70" x="0" y="5" rx="8" ry="8"/><rect class="hcell-col8-cat0" fill="#777" stroke="#DDD" width="70" height="80" x="0" y="0" rx="8" ry="8"/><text text-anchor="middle" fill="#FFF" x="35" y="20">-36</text></a></g></g></g><g><g transform="translate(725,175)"></g><rect fill="none" stroke="#DDD" width="70" height="30" rx="8" ry="8" x="725" y="185"/><text text-anchor="middle" fill="#333" x="760" y="205">13-04</text><g transform="translate(725,225)"><g><a target="_top" xlink:href="dtp-sliceTag6PM-step2628000-ofs0-col9-cat0.html"><rect style="display:none" class="hcell-act-col9-cat0" fill="#777" stroke="#000" stroke-width="5" width="70" height="104" x="0" y="5" rx="8" ry="8"/><rect class="hcell-col9-cat0" fill="#777" stroke="#DDD" width="70" height="114" x="0" y="0" rx="8" ry="8"/><text text-anchor="middle" fill="#FFF" x="35" y="20">-50</text></a></g></g></g><g><g transform="translate(805,175)"></g><rect fill="none" stroke="#DDD" width="70" height="30" rx="8" ry="8" x="805" y="185"/><text text-anchor="middle" fill="#333" x="840" y="205">13-05</text><g transform="translate(805,225)"></g></g><g><g transform="translate(885,175)"></g><rect fill="none" stroke="#DDD" width="70" height="30" rx="8" ry="8" x="885" y="185"/><text text-anchor="middle" fill="#333" x="920" y="205">13-06</text><g transform="translate(885,225)"><g><a target="_top" xlink:href="dtp-sliceTag6PM-step2628000-ofs0-col11-cat0.html"><rect style="display:none" class="hcell-act-col11-cat0" fill="#777" stroke="#000" stroke-width="5" width="70" height="93" x="0" y="5" rx="8" ry="8"/><rect class="hcell-col11-cat0" fill="#777" stroke="#DDD" width="70" height="103" x="0" y="0" rx="8" ry="8"/><text text-anchor="middle" fill="#FFF" x="35" y="20">-46</text></a></g></g></g><g><g transform="translate(965,175)"></g><rect fill="none" stroke="#DDD" width="70" height="30" rx="8" ry="8" x="965" y="185"/><text text-anchor="middle" fill="#333" x="1000" y="205">13-07</text><g transform="translate(965,225)"></g></g><g><g transform="translate(1045,175)"></g><rect fill="none" stroke="#DDD" width="70" height="30" rx="8" ry="8" x="1045" y="185"/><text text-anchor="middle" fill="#333" x="1080" y="205">13-08</text><g transform="translate(1045,225)"></g></g><g><g transform="translate(1125,175)"></g><rect fill="none" stroke="#DDD" width="70" height="30" rx="8" ry="8" x="1125" y="185"/><text text-anchor="middle" fill="#333" x="1160" y="205">13-08</text><g transform="translate(1125,225)"><g><a target="_top" xlink:href="dtp-sliceTag6PM-step2628000-ofs0-col14-cat0.html"><rect style="display:none" class="hcell-act-col14-cat0" fill="#777" stroke="#000" stroke-width="5" width="70" height="144" x="0" y="5" rx="8" ry="8"/><rect class="hcell-col14-cat0" fill="#777" stroke="#DDD" width="70" height="154" x="0" y="0" rx="8" ry="8"/><text text-anchor="middle" fill="#FFF" x="35" y="20">-68</text></a></g></g></g><g><g transform="translate(1205,175)"></g><rect fill="none" stroke="#DDD" width="70" height="30" rx="8" ry="8" x="1205" y="185"/><text text-anchor="middle" fill="#333" x="1240" y="205">13-10</text><g transform="translate(1205,225)"></g></g></svg>