<svg xmlns="http://www.w3.org/2000/svg" xmlns:xlink="http://www.w3.org/1999/xlink" width="100%" height="100%" viewBox="0 0 1280 537"><g><g transform="translate(5,375)"></g><rect fill="none" stroke="#DDD" width="70" height="30" rx="8" ry="8" x="5" y="385"/><text text-anchor="middle" fill="#333" x="40" y="405">14-01</text><g transform="translate(5,425)"></g></g><g><g transform="translate(85,375)"></g><rect fill="none" stroke="#DDD" width="70" height="30" rx="8" ry="8" x="85" y="385"/><text text-anchor="middle" fill="#333" x="120" y="405">14-03</text><g transform="translate(85,425)"></g></g><g><g transform="translate(165,375)"></g><rect fill="none" stroke="#DDD" width="70" height="30" rx="8" ry="8" x="165" y="385"/><text text-anchor="middle" fill="#333" x="200" y="405">14-04</text><g transform="translate(165,425)"></g></g><g><g transform="translate(245,375)"></g><rect fill="none" stroke="#DDD" width="70" height="30" rx="8" ry="8" x="245" y="385"/><text text-anchor="middle" fill="#333" x="280" y="405">14-05</text><g transform="translate(245,425)"></g></g><g><g transform="translate(325,375)"></g><rect fill="none" stroke="#DDD" width="70" height="30" rx="8" ry="8" x="325" y="385"/><text text-anchor="middle" fill="#333" x="360" y="405">14-06</text><g transform="translate(325,425)"></g></g><g><g transform="translate(405,375)"></g><rect fill="none" stroke="#DDD" width="70" height="30" rx="8" ry="8" x="405" y="385"/><text text-anchor="middle" fill="#333" x="440" y="405">14-07</text><g transform="translate(405,425)"></g></g><g><g transform="translate(485,375)"><g><a target="_top" xlink:href="dtp-slice2-step2628000-ofs19-col25-cat0.html"><rect style="display:none" class="hcell-act-col25-cat0" fill="#5CB85C" stroke="#000" stroke-width="5" width="70" height="20" x="0" y="-25" rx="8" ry="8"/><rect class="hcell-col25-cat0" fill="#5CB85C" stroke="#DDD" width="70" height="30" x="0" y="-30" rx="8" ry="8"/><text text-anchor="middle" fill="#FFF" x="35" y="-10">11</text></a></g></g><rect fill="none" stroke="#DDD" width="70" height="30" rx="8" ry="8" x="485" y="385"/><text text-anchor="middle" fill="#333" x="520" y="405">14-08</text><g transform="translate(485,425)"><g><a target="_top" xlink:href="dtp-slice2-step2628000-ofs19-col25-cat1.html"><rect style="display:none" class="hcell-act-col25-cat1" fill="#5BC0DE" stroke="#000" stroke-width="5" width="70" height="20" x="0" y="5" rx="8" ry="8"/><rect class="hcell-col25-cat1" fill="#5BC0DE" stroke="#DDD" width="70" height="30" x="0" y="0" rx="8" ry="8"/><text text-anchor="middle" fill="#FFF" x="35" y="20">-20</text></a><g transform="translate(0,30)"><g><a target="_top" xlink:href="dtp-slice2-step2628000-ofs19-col25-cat3.html"><rect style="display:none" class="hcell-act-col25-cat3" fill="#F0AD4E" stroke="#000" stroke-width="5" width="70" height="37" x="0" y="5" rx="8" ry="8"/><rect class="hcell-col25-cat3" fill="#F0AD4E" stroke="#DDD" width="70" height="47" x="0" y="0" rx="8" ry="8"/><text text-anchor="middle" fill="#FFF" x="35" y="20">-200</text></a></g></g></g></g></g><g><g transform="translate(565,375)"><g><a target="_top" xlink:href="dtp-slice2-step2628000-ofs19-col26-cat0.html"><rect style="display:none" class="hcell-act-col26-cat0" fill="#5CB85C" stroke="#000" stroke-width="5" width="70" height="20" x="0" y="-25" rx="8" ry="8"/><rect class="hcell-col26-cat0" fill="#5CB85C" stroke="#DDD" width="70" height="30" x="0" y="-30" rx="8" ry="8"/><text text-anchor="middle" fill="#FFF" x="35" y="-10">10</text></a><g transform="translate(0,-30)"><g><a target="_top" xlink:href="dtp-slice2-step2628000-ofs19-col26-cat3.html"><rect style="display:none" class="hcell-act-col26-cat3" fill="#F0AD4E" stroke="#000" stroke-width="5" width="70" height="330" x="0" y="-335" rx="8" ry="8"/><rect class="hcell-col26-cat3" fill="#F0AD4E" stroke="#DDD" width="70" height="340" x="0" y="-340" rx="8" ry="8"/><text text-anchor="middle" fill="#FFF" x="35" y="-320">1435</text></a></g></g></g></g><rect fill="none" stroke="#DDD" width="70" height="30" rx="8" ry="8" x="565" y="385"/><text text-anchor="middle" fill="#333" x="600" y="405">14-08</text><g transform="translate(565,425)"><g><a target="_top" xlink:href="dtp-slice2-step2628000-ofs19-col26-cat1.html"><rect style="display:none" class="hcell-act-col26-cat1" fill="#5BC0DE" stroke="#000" stroke-width="5" width="70" height="20" x="0" y="5" rx="8" ry="8"/><rect class="hcell-col26-cat1" fill="#5BC0DE" stroke="#DDD" width="70" height="30" x="0" y="0" rx="8" ry="8"/><text text-anchor="middle" fill="#FFF" x="35" y="20">-20</text></a></g></g></g><g><g transform="translate(645,375)"><g><a target="_top" xlink:href="dtp-slice2-step2628000-ofs19-col27-cat0.html"><rect style="display:none" class="hcell-act-col27-cat0" fill="#5CB85C" stroke="#000" stroke-width="5" width="70" height="20" x="0" y="-25" rx="8" ry="8"/><rect class="hcell-col27-cat0" fill="#5CB85C" stroke="#DDD" width="70" height="30" x="0" y="-30" rx="8" ry="8"/><text text-anchor="middle" fill="#FFF" x="35" y="-10">11</text></a></g></g><rect fill="none" stroke="#DDD" width="70" height="30" rx="8" ry="8" x="645" y="385"/><text text-anchor="middle" fill="#333" x="680" y="405">14-10</text><g transform="translate(645,425)"><g><a target="_top" xlink:href="dtp-slice2-step2628000-ofs19-col27-cat1.html"><rect style="display:none" class="hcell-act-col27-cat1" fill="#5BC0DE" stroke="#000" stroke-width="5" width="70" height="20" x="0" y="5" rx="8" ry="8"/><rect class="hcell-col27-cat1" fill="#5BC0DE" stroke="#DDD" width="70" height="30" x="0" y="0" rx="8" ry="8"/><text text-anchor="middle" fill="#FFF" x="35" y="20">-20</text></a><g transform="translate(0,30)"><g><a target="_top" xlink:href="dtp-slice2-step2628000-ofs19-col27-cat3.html"><rect style="display:none" class="hcell-act-col27-cat3" fill="#F0AD4E" stroke="#000" stroke-width="5" width="70" height="37" x="0" y="5" rx="8" ry="8"/><rect class="hcell-col27-cat3" fill="#F0AD4E" stroke="#DDD" width="70" height="47" x="0" y="0" rx="8" ry="8"/><text text-anchor="middle" fill="#FFF" x="35" y="20">-200</text></a></g></g></g></g></g><g><g transform="translate(725,375)"><g><a target="_top" xlink:href="dtp-slice2-step2628000-ofs19-col28-cat2.html"><rect style="display:none" class="hcell-act-col28-cat2" fill="#337AB7" stroke="#000" stroke-width="5" width="70" height="20" x="0" y="-25" rx="8" ry="8"/><rect class="hcell-col28-cat2" fill="#337AB7" stroke="#DDD" width="70" height="30" x="0" y="-30" rx="8" ry="8"/><text text-anchor="middle" fill="#FFF" x="35" y="-10">10</text></a><g transform="translate(0,-30)"><g><a target="_top" xlink:href="dtp-slice2-step2628000-ofs19-col28-cat3.html"><rect style="display:none" class="hcell-act-col28-cat3" fill="#F0AD4E" stroke="#000" stroke-width="5" width="70" height="149" x="0" y="-154" rx="8" ry="8"/><rect class="hcell-col28-cat3" fill="#F0AD4E" stroke="#DDD" width="70" height="159" x="0" y="-159" rx="8" ry="8"/><text text-anchor="middle" fill="#FFF" x="35" y="-139">673</text></a></g></g></g></g><rect fill="none" stroke="#DDD" width="70" height="30" rx="8" ry="8" x="725" y="385"/><text text-anchor="middle" fill="#333" x="760" y="405">14-10</text><g transform="translate(725,425)"><g><a target="_top" xlink:href="dtp-slice2-step2628000-ofs19-col28-cat0.html"><rect style="display:none" class="hcell-act-col28-cat0" fill="#5CB85C" stroke="#000" stroke-width="5" width="70" height="20" x="0" y="5" rx="8" ry="8"/><rect class="hcell-col28-cat0" fill="#5CB85C" stroke="#DDD" width="70" height="30" x="0" y="0" rx="8" ry="8"/><text text-anchor="middle" fill="#FFF" x="35" y="20">-20</text></a><g transform="translate(0,30)"><g><a target="_top" xlink:href="dtp-slice2-step2628000-ofs19-col28-cat1.html"><rect style="display:none" class="hcell-act-col28-cat1" fill="#5BC0DE" stroke="#000" stroke-width="5" width="70" height="20" x="0" y="5" rx="8" ry="8"/><rect class="hcell-col28-cat1" fill="#5BC0DE" stroke="#DDD" width="70" height="30" x="0" y="0" rx="8" ry="8"/><text text-anchor="middle" fill="#FFF" x="35" y="20">-20</text></a></g></g></g></g></g><g><g transform="translate(805,375)"><g><a target="_top" xlink:href="dtp-slice2-step2628000-ofs19-col29-cat2.html"><rect style="display:none" class="hcell-act-col29-cat2" fill="#337AB7" stroke="#000" stroke-width="5" width="70" height="20" x="0" y="-25" rx="8" ry="8"/><rect class="hcell-col29-cat2" fill="#337AB7" stroke="#DDD" width="70" height="30" x="0" y="-30" rx="8" ry="8"/><text text-anchor="middle" fill="#FFF" x="35" y="-10">20</text></a><g transform="translate(0,-30)"><g><a target="_top" xlink:href="dtp-slice2-step2628000-ofs19-col29-cat1.html"><rect style="display:none" class="hcell-act-col29-cat1" fill="#5BC0DE" stroke="#000" stroke-width="5" width="70" height="20" x="0" y="-25" rx="8" ry="8"/><rect class="hcell-col29-cat1" fill="#5BC0DE" stroke="#DDD" width="70" height="30" x="0" y="-30" rx="8" ry="8"/><text text-anchor="middle" fill="#FFF" x="35" y="-10">24</text></a></g></g></g></g><rect fill="none" stroke="#DDD" width="70" height="30" rx="8" ry="8" x="805" y="385"/><text text-anchor="middle" fill="#333" x="840" y="405">14-12</text><g transform="translate(805,425)"><g><a target="_top" xlink:href="dtp-slice2-step2628000-ofs19-col29-cat0.html"><rect style="display:none" class="hcell-act-col29-cat0" fill="#5CB85C" stroke="#000" stroke-width="5" width="70" height="20" x="0" y="5" rx="8" ry="8"/><rect class="hcell-col29-cat0" fill="#5CB85C" stroke="#DDD" width="70" height="30" x="0" y="0" rx="8" ry="8"/><text text-anchor="middle" fill="#FFF" x="35" y="20">-20</text></a><g transform="translate(0,30)"><g><a target="_top" xlink:href="dtp-slice2-step2628000-ofs19-col29-cat3.html"><rect style="display:none" class="hcell-act-col29-cat3" fill="#F0AD4E" stroke="#000" stroke-width="5" width="70" height="37" x="0" y="5" rx="8" ry="8"/><rect class="hcell-col29-cat3" fill="#F0AD4E" stroke="#DDD" width="70" height="47" x="0" y="0" rx="8" ry="8"/><text text-anchor="middle" fill="#FFF" x="35" y="20">-200</text></a></g></g></g></g></g><g><g transform="translate(885,375)"></g><rect fill="none" stroke="#DDD" width="70" height="30" rx="8" ry="8" x="885" y="385"/><text text-anchor="middle" fill="#333" x="920" y="405">14-12</text><g transform="translate(885,425)"><g><a target="_top" xlink:href="dtp-slice2-step2628000-ofs19-col30-cat0.html"><rect style="display:none" class="hcell-act-col30-cat0" fill="#5CB85C" stroke="#000" stroke-width="5" width="70" height="20" x="0" y="5" rx="8" ry="8"/><rect class="hcell-col30-cat0" fill="#5CB85C" stroke="#DDD" width="70" height="30" x="0" y="0" rx="8" ry="8"/><text text-anchor="middle" fill="#FFF" x="35" y="20">-20</text></a><g transform="translate(0,30)"><g><a target="_top" xlink:href="dtp-slice2-step2628000-ofs19-col30-cat1.html"><rect style="display:none" class="hcell-act-col30-cat1" fill="#5BC0DE" stroke="#000" stroke-width="5" width="70" height="20" x="0" y="5" rx="8" ry="8"/><rect class="hcell-col30-cat1" fill="#5BC0DE" stroke="#DDD" width="70" height="30" x="0" y="0" rx="8" ry="8"/><text text-anchor="middle" fill="#FFF" x="35" y="20">-20</text></a><g transform="translate(0,30)"><g><a target="_top" xlink:href="dtp-slice2-step2628000-ofs19-col30-cat3.html"><rect style="display:none" class="hcell-act-col30-cat3" fill="#F0AD4E" stroke="#000" stroke-width="5" width="70" height="37" x="0" y="5" rx="8" ry="8"/><rect class="hcell-col30-cat3" fill="#F0AD4E" stroke="#DDD" width="70" height="47" x="0" y="0" rx="8" ry="8"/><text text-anchor="middle" fill="#FFF" x="35" y="20">-200</text></a></g></g></g></g></g></g></g><g><g transform="translate(965,375)"><g><a target="_top" xlink:href="dtp-slice2-step2628000-ofs19-col31-cat0.html"><rect style="display:none" class="hcell-act-col31-cat0" fill="#5CB85C" stroke="#000" stroke-width="5" width="70" height="20" x="0" y="-25" rx="8" ry="8"/><rect class="hcell-col31-cat0" fill="#5CB85C" stroke="#DDD" width="70" height="30" x="0" y="-30" rx="8" ry="8"/><text text-anchor="middle" fill="#FFF" x="35" y="-10">9</text></a><g transform="translate(0,-30)"><g><a target="_top" xlink:href="dtp-slice2-step2628000-ofs19-col31-cat1.html"><rect style="display:none" class="hcell-act-col31-cat1" fill="#5BC0DE" stroke="#000" stroke-width="5" width="70" height="20" x="0" y="-25" rx="8" ry="8"/><rect class="hcell-col31-cat1" fill="#5BC0DE" stroke="#DDD" width="70" height="30" x="0" y="-30" rx="8" ry="8"/><text text-anchor="middle" fill="#FFF" x="35" y="-10">49</text></a></g></g></g></g><rect fill="none" stroke="#DDD" width="70" height="30" rx="8" ry="8" x="965" y="385"/><text text-anchor="middle" fill="#333" x="1000" y="405">15-01</text><g transform="translate(965,425)"><g><a target="_top" xlink:href="dtp-slice2-step2628000-ofs19-col31-cat3.html"><rect style="display:none" class="hcell-act-col31-cat3" fill="#F0AD4E" stroke="#000" stroke-width="5" width="70" height="37" x="0" y="5" rx="8" ry="8"/><rect class="hcell-col31-cat3" fill="#F0AD4E" stroke="#DDD" width="70" height="47" x="0" y="0" rx="8" ry="8"/><text text-anchor="middle" fill="#FFF" x="35" y="20">-200</text></a></g></g></g><g><g transform="translate(1045,375)"><g><a target="_top" xlink:href="dtp-slice2-step2628000-ofs19-col32-cat1.html"><rect style="display:none" class="hcell-act-col32-cat1" fill="#5BC0DE" stroke="#000" stroke-width="5" width="70" height="20" x="0" y="-25" rx="8" ry="8"/><rect class="hcell-col32-cat1" fill="#5BC0DE" stroke="#DDD" width="70" height="30" x="0" y="-30" rx="8" ry="8"/><text text-anchor="middle" fill="#FFF" x="35" y="-10">39</text></a><g transform="translate(0,-30)"><g><a target="_top" xlink:href="dtp-slice2-step2628000-ofs19-col32-cat0.html"><rect style="display:none" class="hcell-act-col32-cat0" fill="#5CB85C" stroke="#000" stroke-width="5" width="70" height="20" x="0" y="-25" rx="8" ry="8"/><rect class="hcell-col32-cat0" fill="#5CB85C" stroke="#DDD" width="70" height="30" x="0" y="-30" rx="8" ry="8"/><text text-anchor="middle" fill="#FFF" x="35" y="-10">45</text></a></g></g></g></g><rect fill="none" stroke="#DDD" width="70" height="30" rx="8" ry="8" x="1045" y="385"/><text text-anchor="middle" fill="#333" x="1080" y="405">15-03</text><g transform="translate(1045,425)"><g><a target="_top" xlink:href="dtp-slice2-step2628000-ofs19-col32-cat3.html"><rect style="display:none" class="hcell-act-col32-cat3" fill="#F0AD4E" stroke="#000" stroke-width="5" width="70" height="37" x="0" y="5" rx="8" ry="8"/><rect class="hcell-col32-cat3" fill="#F0AD4E" stroke="#DDD" width="70" height="47" x="0" y="0" rx="8" ry="8"/><text text-anchor="middle" fill="#FFF" x="35" y="20">-200</text></a></g></g></g><g><g transform="translate(1125,375)"><g><a target="_top" xlink:href="dtp-slice2-step2628000-ofs19-col33-cat0.html"><rect style="display:none" class="hcell-act-col33-cat0" fill="#5CB85C" stroke="#000" stroke-width="5" width="70" height="20" x="0" y="-25" rx="8" ry="8"/><rect class="hcell-col33-cat0" fill="#5CB85C" stroke="#DDD" width="70" height="30" x="0" y="-30" rx="8" ry="8"/><text text-anchor="middle" fill="#FFF" x="35" y="-10">5</text></a></g></g><rect fill="none" stroke="#DDD" width="70" height="30" rx="8" ry="8" x="1125" y="385"/><text text-anchor="middle" fill="#333" x="1160" y="405">15-04</text><g transform="translate(1125,425)"><g><a target="_top" xlink:href="dtp-slice2-step2628000-ofs19-col33-cat1.html"><rect style="display:none" class="hcell-act-col33-cat1" fill="#5BC0DE" stroke="#000" stroke-width="5" width="70" height="20" x="0" y="5" rx="8" ry="8"/><rect class="hcell-col33-cat1" fill="#5BC0DE" stroke="#DDD" width="70" height="30" x="0" y="0" rx="8" ry="8"/><text text-anchor="middle" fill="#FFF" x="35" y="20">-20</text></a><g transform="translate(0,30)"><g><a target="_top" xlink:href="dtp-slice2-step2628000-ofs19-col33-cat3.html"><rect style="display:none" class="hcell-act-col33-cat3" fill="#F0AD4E" stroke="#000" stroke-width="5" width="70" height="37" x="0" y="5" rx="8" ry="8"/><rect class="hcell-col33-cat3" fill="#F0AD4E" stroke="#DDD" width="70" height="47" x="0" y="0" rx="8" ry="8"/><text text-anchor="middle" fill="#FFF" x="35" y="20">-200</text></a></g></g></g></g></g><g><g transform="translate(1205,375)"></g><rect fill="none" stroke="#DDD" width="70" height="30" rx="8" ry="8" x="1205" y="385"/><text text-anchor="middle" fill="#333" x="1240" y="405">15-05</text><g transform="translate(1205,425)"><g><a target="_top" xlink:href="dtp-slice2-step2628000-ofs19-col34-cat0.html"><rect style="display:none" class="hcell-act-col34-cat0" fill="#5CB85C" stroke="#000" stroke-width="5" width="70" height="20" x="0" y="5" rx="8" ry="8"/><rect class="hcell-col34-cat0" fill="#5CB85C" stroke="#DDD" width="70" height="30" x="0" y="0" rx="8" ry="8"/><text text-anchor="middle" fill="#FFF" x="35" y="20">-20</text></a><g transform="translate(0,30)"><g><a target="_top" xlink:href="dtp-slice2-step2628000-ofs19-col34-cat1.html"><rect style="display:none" class="hcell-act-col34-cat1" fill="#5BC0DE" stroke="#000" stroke-width="5" width="70" height="20" x="0" y="5" rx="8" ry="8"/><rect class="hcell-col34-cat1" fill="#5BC0DE" stroke="#DDD" width="70" height="30" x="0" y="0" rx="8" ry="8"/><text text-anchor="middle" fill="#FFF" x="35" y="20">-20</text></a><g transform="translate(0,30)"><g><a target="_top" xlink:href="dtp-slice2-step2628000-ofs19-col34-cat3.html"><rect style="display:none" class="hcell-act-col34-cat3" fill="#F0AD4E" stroke="#000" stroke-width="5" width="70" height="37" x="0" y="5" rx="8" ry="8"/><rect class="hcell-col34-cat3" fill="#F0AD4E" stroke="#DDD" width="70" height="47" x="0" y="0" rx="8" ry="8"/><text text-anchor="middle" fill="#FFF" x="35" y="20">-200</text></a></g></g></g></g></g></g></g></svg>