<svg xmlns="http://www.w3.org/2000/svg" xmlns:xlink="http://www.w3.org/1999/xlink" width="100%" height="100%" viewBox="0 0 1280 459"><g><g transform="translate(5,301)"></g><rect fill="none" stroke="#DDD" width="70" height="30" rx="8" ry="8" x="5" y="311"/><text text-anchor="middle" fill="#333" x="40" y="331">12-07</text><g transform="translate(5,351)"></g></g><g><g transform="translate(85,301)"></g><rect fill="none" stroke="#DDD" width="70" height="30" rx="8" ry="8" x="85" y="311"/><text text-anchor="middle" fill="#333" x="120" y="331">12-09</text><g transform="translate(85,351)"></g></g><g><g transform="translate(165,301)"></g><rect fill="none" stroke="#DDD" width="70" height="30" rx="8" ry="8" x="165" y="311"/><text text-anchor="middle" fill="#333" x="200" y="331">12-11</text><g transform="translate(165,351)"></g></g><g><g transform="translate(245,301)"></g><rect fill="none" stroke="#DDD" width="70" height="30" rx="8" ry="8" x="245" y="311"/><text text-anchor="middle" fill="#333" x="280" y="331">13-01</text><g transform="translate(245,351)"></g></g><g><g transform="translate(325,301)"></g><rect fill="none" stroke="#DDD" width="70" height="30" rx="8" ry="8" x="325" y="311"/><text text-anchor="middle" fill="#333" x="360" y="331">13-03</text><g transform="translate(325,351)"></g></g><g><g transform="translate(405,301)"></g><rect fill="none" stroke="#DDD" width="70" height="30" rx="8" ry="8" x="405" y="311"/><text text-anchor="middle" fill="#333" x="440" y="331">13-05</text><g transform="translate(405,351)"></g></g><g><g transform="translate(485,301)"></g><rect fill="none" stroke="#DDD" width="70" height="30" rx="8" ry="8" x="485" y="311"/><text text-anchor="middle" fill="#333" x="520" y="331">13-07</text><g transform="translate(485,351)"></g></g><g><g transform="translate(565,301)"></g><rect fill="none" stroke="#DDD" width="70" height="30" rx="8" ry="8" x="565" y="311"/><text text-anchor="middle" fill="#333" x="600" y="331">13-09</text><g transform="translate(565,351)"></g></g><g><g transform="translate(645,301)"></g><rect fill="none" stroke="#DDD" width="70" height="30" rx="8" ry="8" x="645" y="311"/><text text-anchor="middle" fill="#333" x="680" y="331">13-12</text><g transform="translate(645,351)"></g></g><g><g transform="translate(725,301)"></g><rect fill="none" stroke="#DDD" width="70" height="30" rx="8" ry="8" x="725" y="311"/><text text-anchor="middle" fill="#333" x="760" y="331">14-02</text><g transform="translate(725,351)"></g></g><g><g transform="translate(805,301)"></g><rect fill="none" stroke="#DDD" width="70" height="30" rx="8" ry="8" x="805" y="311"/><text text-anchor="middle" fill="#333" x="840" y="331">14-04</text><g transform="translate(805,351)"></g></g><g><g transform="translate(885,301)"><g><a target="_top" xlink:href="dtp-sliceTagGas-step5605201-ofs0-col11-cat0.html"><rect style="display:none" class="hcell-act-col11-cat0" fill="#777" stroke="#000" stroke-width="5" width="70" height="100" x="0" y="-105" rx="8" ry="8"/><rect class="hcell-col11-cat0" fill="#777" stroke="#DDD" width="70" height="110" x="0" y="-110" rx="8" ry="8"/><text text-anchor="middle" fill="#FFF" x="35" y="-90">11</text></a></g></g><rect fill="none" stroke="#DDD" width="70" height="30" rx="8" ry="8" x="885" y="311"/><text text-anchor="middle" fill="#333" x="920" y="331">14-06</text><g transform="translate(885,351)"></g></g><g><g transform="translate(965,301)"></g><rect fill="none" stroke="#DDD" width="70" height="30" rx="8" ry="8" x="965" y="311"/><text text-anchor="middle" fill="#333" x="1000" y="331">14-08</text><g transform="translate(965,351)"><g><a target="_top" xlink:href="dtp-sliceTagGas-step5605201-ofs0-col12-cat0.html"><rect style="display:none" class="hcell-act-col12-cat0" fill="#777" stroke="#000" stroke-width="5" width="70" height="82" x="0" y="5" rx="8" ry="8"/><rect class="hcell-col12-cat0" fill="#777" stroke="#DDD" width="70" height="92" x="0" y="0" rx="8" ry="8"/><text text-anchor="middle" fill="#FFF" x="35" y="20">-10</text></a></g></g></g><g><g transform="translate(1045,301)"></g><rect fill="none" stroke="#DDD" width="70" height="30" rx="8" ry="8" x="1045" y="311"/><text text-anchor="middle" fill="#333" x="1080" y="331">14-10</text><g transform="translate(1045,351)"><g><a target="_top" xlink:href="dtp-sliceTagGas-step5605201-ofs0-col13-cat0.html"><rect style="display:none" class="hcell-act-col13-cat0" fill="#777" stroke="#000" stroke-width="5" width="70" height="72" x="0" y="5" rx="8" ry="8"/><rect class="hcell-col13-cat0" fill="#777" stroke="#DDD" width="70" height="82" x="0" y="0" rx="8" ry="8"/><text text-anchor="middle" fill="#FFF" x="35" y="20">-9</text></a></g></g></g><g><g transform="translate(1125,301)"></g><rect fill="none" stroke="#DDD" width="70" height="30" rx="8" ry="8" x="1125" y="311"/><text text-anchor="middle" fill="#333" x="1160" y="331">14-12</text><g transform="translate(1125,351)"><g><a target="_top" xlink:href="dtp-sliceTagGas-step5605201-ofs0-col14-cat0.html"><rect style="display:none" class="hcell-act-col14-cat0" fill="#777" stroke="#000" stroke-width="5" width="70" height="93" x="0" y="5" rx="8" ry="8"/><rect class="hcell-col14-cat0" fill="#777" stroke="#DDD" width="70" height="103" x="0" y="0" rx="8" ry="8"/><text text-anchor="middle" fill="#FFF" x="35" y="20">-11</text></a></g></g></g><g><g transform="translate(1205,301)"><g><a target="_top" xlink:href="dtp-sliceTagGas-step5605201-ofs0-col15-cat0.html"><rect style="display:none" class="hcell-act-col15-cat0" fill="#777" stroke="#000" stroke-width="5" width="70" height="286" x="0" y="-291" rx="8" ry="8"/><rect class="hcell-col15-cat0" fill="#777" stroke="#DDD" width="70" height="296" x="0" y="-296" rx="8" ry="8"/><text text-anchor="middle" fill="#FFF" x="35" y="-276">31</text></a></g></g><rect fill="none" stroke="#DDD" width="70" height="30" rx="8" ry="8" x="1205" y="311"/><text text-anchor="middle" fill="#333" x="1240" y="331">15-03</text><g transform="translate(1205,351)"></g></g></svg>