<svg xmlns="http://www.w3.org/2000/svg" xmlns:xlink="http://www.w3.org/1999/xlink" width="100%" height="100%" viewBox="0 0 1280 459"><g><g transform="translate(5,108)"></g><rect fill="none" stroke="#DDD" width="70" height="30" rx="8" ry="8" x="5" y="118"/><text text-anchor="middle" fill="#333" x="40" y="138">12-07</text><g transform="translate(5,158)"></g></g><g><g transform="translate(85,108)"></g><rect fill="none" stroke="#DDD" width="70" height="30" rx="8" ry="8" x="85" y="118"/><text text-anchor="middle" fill="#333" x="120" y="138">12-09</text><g transform="translate(85,158)"></g></g><g><g transform="translate(165,108)"></g><rect fill="none" stroke="#DDD" width="70" height="30" rx="8" ry="8" x="165" y="118"/><text text-anchor="middle" fill="#333" x="200" y="138">12-11</text><g transform="translate(165,158)"></g></g><g><g transform="translate(245,108)"></g><rect fill="none" stroke="#DDD" width="70" height="30" rx="8" ry="8" x="245" y="118"/><text text-anchor="middle" fill="#333" x="280" y="138">13-01</text><g transform="translate(245,158)"></g></g><g><g transform="translate(325,108)"></g><rect fill="none" stroke="#DDD" width="70" height="30" rx="8" ry="8" x="325" y="118"/><text text-anchor="middle" fill="#333" x="360" y="138">13-03</text><g transform="translate(325,158)"></g></g><g><g transform="translate(405,108)"></g><rect fill="none" stroke="#DDD" width="70" height="30" rx="8" ry="8" x="405" y="118"/><text text-anchor="middle" fill="#333" x="440" y="138">13-05</text><g transform="translate(405,158)"></g></g><g><g transform="translate(485,108)"></g><rect fill="none" stroke="#DDD" width="70" height="30" rx="8" ry="8" x="485" y="118"/><text text-anchor="middle" fill="#333" x="520" y="138">13-07</text><g transform="translate(485,158)"></g></g><g><g transform="translate(565,108)"></g><rect fill="none" stroke="#DDD" width="70" height="30" rx="8" ry="8" x="565" y="118"/><text text-anchor="middle" fill="#333" x="600" y="138">13-09</text><g transform="translate(565,158)"></g></g><g><g transform="translate(645,108)"></g><rect fill="none" stroke="#DDD" width="70" height="30" rx="8" ry="8" x="645" y="118"/><text text-anchor="middle" fill="#333" x="680" y="138">13-12</text><g transform="translate(645,158)"></g></g><g><g transform="translate(725,108)"></g><rect fill="none" stroke="#DDD" width="70" height="30" rx="8" ry="8" x="725" y="118"/><text text-anchor="middle" fill="#333" x="760" y="138">14-02</text><g transform="translate(725,158)"></g></g><g><g transform="translate(805,108)"></g><rect fill="none" stroke="#DDD" width="70" height="30" rx="8" ry="8" x="805" y="118"/><text text-anchor="middle" fill="#333" x="840" y="138">14-04</text><g transform="translate(805,158)"></g></g><g><g transform="translate(885,108)"></g><rect fill="none" stroke="#DDD" width="70" height="30" rx="8" ry="8" x="885" y="118"/><text text-anchor="middle" fill="#333" x="920" y="138">14-06</text><g transform="translate(885,158)"><g><a target="_top" xlink:href="dtp-sliceTagYoga-step5605201-ofs0-col11-cat0.html"><rect style="display:none" class="hcell-act-col11-cat0" fill="#777" stroke="#000" stroke-width="5" width="70" height="286" x="0" y="5" rx="8" ry="8"/><rect class="hcell-col11-cat0" fill="#777" stroke="#DDD" width="70" height="296" x="0" y="0" rx="8" ry="8"/><text text-anchor="middle" fill="#FFF" x="35" y="20">-50</text></a></g></g></g><g><g transform="translate(965,108)"></g><rect fill="none" stroke="#DDD" width="70" height="30" rx="8" ry="8" x="965" y="118"/><text text-anchor="middle" fill="#333" x="1000" y="138">14-08</text><g transform="translate(965,158)"><g><a target="_top" xlink:href="dtp-sliceTagYoga-step5605201-ofs0-col12-cat0.html"><rect style="display:none" class="hcell-act-col12-cat0" fill="#777" stroke="#000" stroke-width="5" width="70" height="242" x="0" y="5" rx="8" ry="8"/><rect class="hcell-col12-cat0" fill="#777" stroke="#DDD" width="70" height="252" x="0" y="0" rx="8" ry="8"/><text text-anchor="middle" fill="#FFF" x="35" y="20">-43</text></a></g></g></g><g><g transform="translate(1045,108)"></g><rect fill="none" stroke="#DDD" width="70" height="30" rx="8" ry="8" x="1045" y="118"/><text text-anchor="middle" fill="#333" x="1080" y="138">14-10</text><g transform="translate(1045,158)"><g><a target="_top" xlink:href="dtp-sliceTagYoga-step5605201-ofs0-col13-cat0.html"><rect style="display:none" class="hcell-act-col13-cat0" fill="#777" stroke="#000" stroke-width="5" width="70" height="164" x="0" y="5" rx="8" ry="8"/><rect class="hcell-col13-cat0" fill="#777" stroke="#DDD" width="70" height="174" x="0" y="0" rx="8" ry="8"/><text text-anchor="middle" fill="#FFF" x="35" y="20">-30</text></a></g></g></g><g><g transform="translate(1125,108)"><g><a target="_top" xlink:href="dtp-sliceTagYoga-step5605201-ofs0-col14-cat0.html"><rect style="display:none" class="hcell-act-col14-cat0" fill="#777" stroke="#000" stroke-width="5" width="70" height="93" x="0" y="-98" rx="8" ry="8"/><rect class="hcell-col14-cat0" fill="#777" stroke="#DDD" width="70" height="103" x="0" y="-103" rx="8" ry="8"/><text text-anchor="middle" fill="#FFF" x="35" y="-83">17</text></a></g></g><rect fill="none" stroke="#DDD" width="70" height="30" rx="8" ry="8" x="1125" y="118"/><text text-anchor="middle" fill="#333" x="1160" y="138">14-12</text><g transform="translate(1125,158)"></g></g><g><g transform="translate(1205,108)"></g><rect fill="none" stroke="#DDD" width="70" height="30" rx="8" ry="8" x="1205" y="118"/><text text-anchor="middle" fill="#333" x="1240" y="138">15-03</text><g transform="translate(1205,158)"><g><a target="_top" xlink:href="dtp-sliceTagYoga-step5605201-ofs0-col15-cat0.html"><rect style="display:none" class="hcell-act-col15-cat0" fill="#777" stroke="#000" stroke-width="5" width="70" height="250" x="0" y="5" rx="8" ry="8"/><rect class="hcell-col15-cat0" fill="#777" stroke="#DDD" width="70" height="260" x="0" y="0" rx="8" ry="8"/><text text-anchor="middle" fill="#FFF" x="35" y="20">-44</text></a></g></g></g></svg>