<svg xmlns="http://www.w3.org/2000/svg" xmlns:xlink="http://www.w3.org/1999/xlink" width="100%" height="100%" viewBox="0 0 1280 459"><g><g transform="translate(5,275)"></g><rect fill="none" stroke="#DDD" width="70" height="30" rx="8" ry="8" x="5" y="285"/><text text-anchor="middle" fill="#333" x="40" y="305">12-07</text><g transform="translate(5,325)"></g></g><g><g transform="translate(85,275)"></g><rect fill="none" stroke="#DDD" width="70" height="30" rx="8" ry="8" x="85" y="285"/><text text-anchor="middle" fill="#333" x="120" y="305">12-09</text><g transform="translate(85,325)"></g></g><g><g transform="translate(165,275)"></g><rect fill="none" stroke="#DDD" width="70" height="30" rx="8" ry="8" x="165" y="285"/><text text-anchor="middle" fill="#333" x="200" y="305">12-11</text><g transform="translate(165,325)"></g></g><g><g transform="translate(245,275)"></g><rect fill="none" stroke="#DDD" width="70" height="30" rx="8" ry="8" x="245" y="285"/><text text-anchor="middle" fill="#333" x="280" y="305">13-01</text><g transform="translate(245,325)"></g></g><g><g transform="translate(325,275)"></g><rect fill="none" stroke="#DDD" width="70" height="30" rx="8" ry="8" x="325" y="285"/><text text-anchor="middle" fill="#333" x="360" y="305">13-03</text><g transform="translate(325,325)"></g></g><g><g transform="translate(405,275)"></g><rect fill="none" stroke="#DDD" width="70" height="30" rx="8" ry="8" x="405" y="285"/><text text-anchor="middle" fill="#333" x="440" y="305">13-05</text><g transform="translate(405,325)"></g></g><g><g transform="translate(485,275)"></g><rect fill="none" stroke="#DDD" width="70" height="30" rx="8" ry="8" x="485" y="285"/><text text-anchor="middle" fill="#333" x="520" y="305">13-07</text><g transform="translate(485,325)"></g></g><g><g transform="translate(565,275)"></g><rect fill="none" stroke="#DDD" width="70" height="30" rx="8" ry="8" x="565" y="285"/><text text-anchor="middle" fill="#333" x="600" y="305">13-09</text><g transform="translate(565,325)"></g></g><g><g transform="translate(645,275)"></g><rect fill="none" stroke="#DDD" width="70" height="30" rx="8" ry="8" x="645" y="285"/><text text-anchor="middle" fill="#333" x="680" y="305">13-12</text><g transform="translate(645,325)"></g></g><g><g transform="translate(725,275)"></g><rect fill="none" stroke="#DDD" width="70" height="30" rx="8" ry="8" x="725" y="285"/><text text-anchor="middle" fill="#333" x="760" y="305">14-02</text><g transform="translate(725,325)"></g></g><g><g transform="translate(805,275)"></g><rect fill="none" stroke="#DDD" width="70" height="30" rx="8" ry="8" x="805" y="285"/><text text-anchor="middle" fill="#333" x="840" y="305">14-04</text><g transform="translate(805,325)"></g></g><g><g transform="translate(885,275)"></g><rect fill="none" stroke="#DDD" width="70" height="30" rx="8" ry="8" x="885" y="285"/><text text-anchor="middle" fill="#333" x="920" y="305">14-06</text><g transform="translate(885,325)"><g><a target="_top" xlink:href="dtp-sliceTagCar-step5605201-ofs0-col11-cat0.html"><rect style="display:none" class="hcell-act-col11-cat0" fill="#777" stroke="#000" stroke-width="5" width="70" height="37" x="0" y="5" rx="8" ry="8"/><rect class="hcell-col11-cat0" fill="#777" stroke="#DDD" width="70" height="47" x="0" y="0" rx="8" ry="8"/><text text-anchor="middle" fill="#FFF" x="35" y="20">-209</text></a></g></g></g><g><g transform="translate(965,275)"><g><a target="_top" xlink:href="dtp-sliceTagCar-step5605201-ofs0-col12-cat0.html"><rect style="display:none" class="hcell-act-col12-cat0" fill="#777" stroke="#000" stroke-width="5" width="70" height="260" x="0" y="-265" rx="8" ry="8"/><rect class="hcell-col12-cat0" fill="#777" stroke="#DDD" width="70" height="270" x="0" y="-270" rx="8" ry="8"/><text text-anchor="middle" fill="#FFF" x="35" y="-250">1185</text></a></g></g><rect fill="none" stroke="#DDD" width="70" height="30" rx="8" ry="8" x="965" y="285"/><text text-anchor="middle" fill="#333" x="1000" y="305">14-08</text><g transform="translate(965,325)"></g></g><g><g transform="translate(1045,275)"><g><a target="_top" xlink:href="dtp-sliceTagCar-step5605201-ofs0-col13-cat0.html"><rect style="display:none" class="hcell-act-col13-cat0" fill="#777" stroke="#000" stroke-width="5" width="70" height="103" x="0" y="-108" rx="8" ry="8"/><rect class="hcell-col13-cat0" fill="#777" stroke="#DDD" width="70" height="113" x="0" y="-113" rx="8" ry="8"/><text text-anchor="middle" fill="#FFF" x="35" y="-93">499</text></a></g></g><rect fill="none" stroke="#DDD" width="70" height="30" rx="8" ry="8" x="1045" y="285"/><text text-anchor="middle" fill="#333" x="1080" y="305">14-10</text><g transform="translate(1045,325)"></g></g><g><g transform="translate(1125,275)"></g><rect fill="none" stroke="#DDD" width="70" height="30" rx="8" ry="8" x="1125" y="285"/><text text-anchor="middle" fill="#333" x="1160" y="305">14-12</text><g transform="translate(1125,325)"><g><a target="_top" xlink:href="dtp-sliceTagCar-step5605201-ofs0-col14-cat0.html"><rect style="display:none" class="hcell-act-col14-cat0" fill="#777" stroke="#000" stroke-width="5" width="70" height="76" x="0" y="5" rx="8" ry="8"/><rect class="hcell-col14-cat0" fill="#777" stroke="#DDD" width="70" height="86" x="0" y="0" rx="8" ry="8"/><text text-anchor="middle" fill="#FFF" x="35" y="20">-382</text></a></g></g></g><g><g transform="translate(1205,275)"></g><rect fill="none" stroke="#DDD" width="70" height="30" rx="8" ry="8" x="1205" y="285"/><text text-anchor="middle" fill="#333" x="1240" y="305">15-03</text><g transform="translate(1205,325)"><g><a target="_top" xlink:href="dtp-sliceTagCar-step5605201-ofs0-col15-cat0.html"><rect style="display:none" class="hcell-act-col15-cat0" fill="#777" stroke="#000" stroke-width="5" width="70" height="119" x="0" y="5" rx="8" ry="8"/><rect class="hcell-col15-cat0" fill="#777" stroke="#DDD" width="70" height="129" x="0" y="0" rx="8" ry="8"/><text text-anchor="middle" fill="#FFF" x="35" y="20">-570</text></a></g></g></g></svg>