<svg xmlns="http://www.w3.org/2000/svg" xmlns:xlink="http://www.w3.org/1999/xlink" width="100%" height="100%" viewBox="0 0 1280 460"><g><g transform="translate(5,405)"><g><a target="_top" xlink:href="dtp-sliceTagEatingOut-step2628000-ofs19-col19-cat0.html"><rect style="display:none" class="hcell-act-col19-cat0" fill="#777" stroke="#000" stroke-width="5" width="70" height="141" x="0" y="-146" rx="8" ry="8"/><rect class="hcell-col19-cat0" fill="#777" stroke="#DDD" width="70" height="151" x="0" y="-151" rx="8" ry="8"/><text text-anchor="middle" fill="#FFF" x="35" y="-131">50</text></a></g></g><rect fill="none" stroke="#DDD" width="70" height="30" rx="8" ry="8" x="5" y="415"/><text text-anchor="middle" fill="#333" x="40" y="435">14-01</text><g transform="translate(5,455)"></g></g><g><g transform="translate(85,405)"><g><a target="_top" xlink:href="dtp-sliceTagEatingOut-step2628000-ofs19-col20-cat0.html"><rect style="display:none" class="hcell-act-col20-cat0" fill="#777" stroke="#000" stroke-width="5" width="70" height="82" x="0" y="-87" rx="8" ry="8"/><rect class="hcell-col20-cat0" fill="#777" stroke="#DDD" width="70" height="92" x="0" y="-92" rx="8" ry="8"/><text text-anchor="middle" fill="#FFF" x="35" y="-72">30</text></a></g></g><rect fill="none" stroke="#DDD" width="70" height="30" rx="8" ry="8" x="85" y="415"/><text text-anchor="middle" fill="#333" x="120" y="435">14-03</text><g transform="translate(85,455)"></g></g><g><g transform="translate(165,405)"><g><a target="_top" xlink:href="dtp-sliceTagEatingOut-step2628000-ofs19-col21-cat0.html"><rect style="display:none" class="hcell-act-col21-cat0" fill="#777" stroke="#000" stroke-width="5" width="70" height="104" x="0" y="-109" rx="8" ry="8"/><rect class="hcell-col21-cat0" fill="#777" stroke="#DDD" width="70" height="114" x="0" y="-114" rx="8" ry="8"/><text text-anchor="middle" fill="#FFF" x="35" y="-94">38</text></a></g></g><rect fill="none" stroke="#DDD" width="70" height="30" rx="8" ry="8" x="165" y="415"/><text text-anchor="middle" fill="#333" x="200" y="435">14-04</text><g transform="translate(165,455)"></g></g><g><g transform="translate(245,405)"><g><a target="_top" xlink:href="dtp-sliceTagEatingOut-step2628000-ofs19-col22-cat0.html"><rect style="display:none" class="hcell-act-col22-cat0" fill="#777" stroke="#000" stroke-width="5" width="70" height="70" x="0" y="-75" rx="8" ry="8"/><rect class="hcell-col22-cat0" fill="#777" stroke="#DDD" width="70" height="80" x="0" y="-80" rx="8" ry="8"/><text text-anchor="middle" fill="#FFF" x="35" y="-60">26</text></a></g></g><rect fill="none" stroke="#DDD" width="70" height="30" rx="8" ry="8" x="245" y="415"/><text text-anchor="middle" fill="#333" x="280" y="435">14-05</text><g transform="translate(245,455)"></g></g><g><g transform="translate(325,405)"><g><a target="_top" xlink:href="dtp-sliceTagEatingOut-step2628000-ofs19-col23-cat0.html"><rect style="display:none" class="hcell-act-col23-cat0" fill="#777" stroke="#000" stroke-width="5" width="70" height="122" x="0" y="-127" rx="8" ry="8"/><rect class="hcell-col23-cat0" fill="#777" stroke="#DDD" width="70" height="132" x="0" y="-132" rx="8" ry="8"/><text text-anchor="middle" fill="#FFF" x="35" y="-112">44</text></a></g></g><rect fill="none" stroke="#DDD" width="70" height="30" rx="8" ry="8" x="325" y="415"/><text text-anchor="middle" fill="#333" x="360" y="435">14-06</text><g transform="translate(325,455)"></g></g><g><g transform="translate(405,405)"><g><a target="_top" xlink:href="dtp-sliceTagEatingOut-step2628000-ofs19-col24-cat0.html"><rect style="display:none" class="hcell-act-col24-cat0" fill="#777" stroke="#000" stroke-width="5" width="70" height="257" x="0" y="-262" rx="8" ry="8"/><rect class="hcell-col24-cat0" fill="#777" stroke="#DDD" width="70" height="267" x="0" y="-267" rx="8" ry="8"/><text text-anchor="middle" fill="#FFF" x="35" y="-247">88</text></a></g></g><rect fill="none" stroke="#DDD" width="70" height="30" rx="8" ry="8" x="405" y="415"/><text text-anchor="middle" fill="#333" x="440" y="435">14-07</text><g transform="translate(405,455)"></g></g><g><g transform="translate(485,405)"><g><a target="_top" xlink:href="dtp-sliceTagEatingOut-step2628000-ofs19-col25-cat0.html"><rect style="display:none" class="hcell-act-col25-cat0" fill="#777" stroke="#000" stroke-width="5" width="70" height="390" x="0" y="-395" rx="8" ry="8"/><rect class="hcell-col25-cat0" fill="#777" stroke="#DDD" width="70" height="400" x="0" y="-400" rx="8" ry="8"/><text text-anchor="middle" fill="#FFF" x="35" y="-380">132</text></a></g></g><rect fill="none" stroke="#DDD" width="70" height="30" rx="8" ry="8" x="485" y="415"/><text text-anchor="middle" fill="#333" x="520" y="435">14-08</text><g transform="translate(485,455)"></g></g><g><g transform="translate(565,405)"><g><a target="_top" xlink:href="dtp-sliceTagEatingOut-step2628000-ofs19-col26-cat0.html"><rect style="display:none" class="hcell-act-col26-cat0" fill="#777" stroke="#000" stroke-width="5" width="70" height="273" x="0" y="-278" rx="8" ry="8"/><rect class="hcell-col26-cat0" fill="#777" stroke="#DDD" width="70" height="283" x="0" y="-283" rx="8" ry="8"/><text text-anchor="middle" fill="#FFF" x="35" y="-263">93</text></a></g></g><rect fill="none" stroke="#DDD" width="70" height="30" rx="8" ry="8" x="565" y="415"/><text text-anchor="middle" fill="#333" x="600" y="435">14-08</text><g transform="translate(565,455)"></g></g><g><g transform="translate(645,405)"><g><a target="_top" xlink:href="dtp-sliceTagEatingOut-step2628000-ofs19-col27-cat0.html"><rect style="display:none" class="hcell-act-col27-cat0" fill="#777" stroke="#000" stroke-width="5" width="70" height="169" x="0" y="-174" rx="8" ry="8"/><rect class="hcell-col27-cat0" fill="#777" stroke="#DDD" width="70" height="179" x="0" y="-179" rx="8" ry="8"/><text text-anchor="middle" fill="#FFF" x="35" y="-159">59</text></a></g></g><rect fill="none" stroke="#DDD" width="70" height="30" rx="8" ry="8" x="645" y="415"/><text text-anchor="middle" fill="#333" x="680" y="435">14-10</text><g transform="translate(645,455)"></g></g><g><g transform="translate(725,405)"></g><rect fill="none" stroke="#DDD" width="70" height="30" rx="8" ry="8" x="725" y="415"/><text text-anchor="middle" fill="#333" x="760" y="435">14-10</text><g transform="translate(725,455)"></g></g><g><g transform="translate(805,405)"></g><rect fill="none" stroke="#DDD" width="70" height="30" rx="8" ry="8" x="805" y="415"/><text text-anchor="middle" fill="#333" x="840" y="435">14-12</text><g transform="translate(805,455)"></g></g><g><g transform="translate(885,405)"><g><a target="_top" xlink:href="dtp-sliceTagEatingOut-step2628000-ofs19-col30-cat0.html"><rect style="display:none" class="hcell-act-col30-cat0" fill="#777" stroke="#000" stroke-width="5" width="70" height="91" x="0" y="-96" rx="8" ry="8"/><rect class="hcell-col30-cat0" fill="#777" stroke="#DDD" width="70" height="101" x="0" y="-101" rx="8" ry="8"/><text text-anchor="middle" fill="#FFF" x="35" y="-81">33</text></a></g></g><rect fill="none" stroke="#DDD" width="70" height="30" rx="8" ry="8" x="885" y="415"/><text text-anchor="middle" fill="#333" x="920" y="435">14-12</text><g transform="translate(885,455)"></g></g><g><g transform="translate(965,405)"><g><a target="_top" xlink:href="dtp-sliceTagEatingOut-step2628000-ofs19-col31-cat0.html"><rect style="display:none" class="hcell-act-col31-cat0" fill="#777" stroke="#000" stroke-width="5" width="70" height="167" x="0" y="-172" rx="8" ry="8"/><rect class="hcell-col31-cat0" fill="#777" stroke="#DDD" width="70" height="177" x="0" y="-177" rx="8" ry="8"/><text text-anchor="middle" fill="#FFF" x="35" y="-157">58</text></a></g></g><rect fill="none" stroke="#DDD" width="70" height="30" rx="8" ry="8" x="965" y="415"/><text text-anchor="middle" fill="#333" x="1000" y="435">15-01</text><g transform="translate(965,455)"></g></g><g><g transform="translate(1045,405)"><g><a target="_top" xlink:href="dtp-sliceTagEatingOut-step2628000-ofs19-col32-cat0.html"><rect style="display:none" class="hcell-act-col32-cat0" fill="#777" stroke="#000" stroke-width="5" width="70" height="46" x="0" y="-51" rx="8" ry="8"/><rect class="hcell-col32-cat0" fill="#777" stroke="#DDD" width="70" height="56" x="0" y="-56" rx="8" ry="8"/><text text-anchor="middle" fill="#FFF" x="35" y="-36">18</text></a></g></g><rect fill="none" stroke="#DDD" width="70" height="30" rx="8" ry="8" x="1045" y="415"/><text text-anchor="middle" fill="#333" x="1080" y="435">15-03</text><g transform="translate(1045,455)"></g></g><g><g transform="translate(1125,405)"><g><a target="_top" xlink:href="dtp-sliceTagEatingOut-step2628000-ofs19-col33-cat0.html"><rect style="display:none" class="hcell-act-col33-cat0" fill="#777" stroke="#000" stroke-width="5" width="70" height="92" x="0" y="-97" rx="8" ry="8"/><rect class="hcell-col33-cat0" fill="#777" stroke="#DDD" width="70" height="102" x="0" y="-102" rx="8" ry="8"/><text text-anchor="middle" fill="#FFF" x="35" y="-82">33</text></a></g></g><rect fill="none" stroke="#DDD" width="70" height="30" rx="8" ry="8" x="1125" y="415"/><text text-anchor="middle" fill="#333" x="1160" y="435">15-04</text><g transform="translate(1125,455)"></g></g><g><g transform="translate(1205,405)"></g><rect fill="none" stroke="#DDD" width="70" height="30" rx="8" ry="8" x="1205" y="415"/><text text-anchor="middle" fill="#333" x="1240" y="435">15-05</text><g transform="translate(1205,455)"></g></g></svg>