<svg xmlns="http://www.w3.org/2000/svg" xmlns:xlink="http://www.w3.org/1999/xlink" width="100%" height="100%" viewBox="0 0 1280 459"><g><g transform="translate(5,266)"><g><a target="_top" xlink:href="dtp-sliceTagClothes-step5605201-ofs0-col0-cat0.html"><rect style="display:none" class="hcell-act-col0-cat0" fill="#777" stroke="#000" stroke-width="5" width="70" height="73" x="0" y="-78" rx="8" ry="8"/><rect class="hcell-col0-cat0" fill="#777" stroke="#DDD" width="70" height="83" x="0" y="-83" rx="8" ry="8"/><text text-anchor="middle" fill="#FFF" x="35" y="-63">94</text></a></g></g><rect fill="none" stroke="#DDD" width="70" height="30" rx="8" ry="8" x="5" y="276"/><text text-anchor="middle" fill="#333" x="40" y="296">12-07</text><g transform="translate(5,316)"><g><a target="_top" xlink:href="dtp-sliceTagClothes-step5605201-ofs0-col0-cat0.html"><rect style="display:none" class="hcell-act-col0-cat0" fill="#777" stroke="#000" stroke-width="5" width="70" height="128" x="0" y="5" rx="8" ry="8"/><rect class="hcell-col0-cat0" fill="#777" stroke="#DDD" width="70" height="138" x="0" y="0" rx="8" ry="8"/><text text-anchor="middle" fill="#FFF" x="35" y="20">-157</text></a></g></g></g><g><g transform="translate(85,266)"><g><a target="_top" xlink:href="dtp-sliceTagClothes-step5605201-ofs0-col1-cat0.html"><rect style="display:none" class="hcell-act-col1-cat0" fill="#777" stroke="#000" stroke-width="5" width="70" height="212" x="0" y="-217" rx="8" ry="8"/><rect class="hcell-col1-cat0" fill="#777" stroke="#DDD" width="70" height="222" x="0" y="-222" rx="8" ry="8"/><text text-anchor="middle" fill="#FFF" x="35" y="-202">251</text></a></g></g><rect fill="none" stroke="#DDD" width="70" height="30" rx="8" ry="8" x="85" y="276"/><text text-anchor="middle" fill="#333" x="120" y="296">12-09</text><g transform="translate(85,316)"><g><a target="_top" xlink:href="dtp-sliceTagClothes-step5605201-ofs0-col1-cat0.html"><rect style="display:none" class="hcell-act-col1-cat0" fill="#777" stroke="#000" stroke-width="5" width="70" height="55" x="0" y="5" rx="8" ry="8"/><rect class="hcell-col1-cat0" fill="#777" stroke="#DDD" width="70" height="65" x="0" y="0" rx="8" ry="8"/><text text-anchor="middle" fill="#FFF" x="35" y="20">-75</text></a></g></g></g><g><g transform="translate(165,266)"><g><a target="_top" xlink:href="dtp-sliceTagClothes-step5605201-ofs0-col2-cat0.html"><rect style="display:none" class="hcell-act-col2-cat0" fill="#777" stroke="#000" stroke-width="5" width="70" height="128" x="0" y="-133" rx="8" ry="8"/><rect class="hcell-col2-cat0" fill="#777" stroke="#DDD" width="70" height="138" x="0" y="-138" rx="8" ry="8"/><text text-anchor="middle" fill="#FFF" x="35" y="-118">156</text></a></g></g><rect fill="none" stroke="#DDD" width="70" height="30" rx="8" ry="8" x="165" y="276"/><text text-anchor="middle" fill="#333" x="200" y="296">12-11</text><g transform="translate(165,316)"></g></g><g><g transform="translate(245,266)"><g><a target="_top" xlink:href="dtp-sliceTagClothes-step5605201-ofs0-col3-cat0.html"><rect style="display:none" class="hcell-act-col3-cat0" fill="#777" stroke="#000" stroke-width="5" width="70" height="144" x="0" y="-149" rx="8" ry="8"/><rect class="hcell-col3-cat0" fill="#777" stroke="#DDD" width="70" height="154" x="0" y="-154" rx="8" ry="8"/><text text-anchor="middle" fill="#FFF" x="35" y="-134">174</text></a></g></g><rect fill="none" stroke="#DDD" width="70" height="30" rx="8" ry="8" x="245" y="276"/><text text-anchor="middle" fill="#333" x="280" y="296">13-01</text><g transform="translate(245,316)"></g></g><g><g transform="translate(325,266)"><g><a target="_top" xlink:href="dtp-sliceTagClothes-step5605201-ofs0-col4-cat0.html"><rect style="display:none" class="hcell-act-col4-cat0" fill="#777" stroke="#000" stroke-width="5" width="70" height="213" x="0" y="-218" rx="8" ry="8"/><rect class="hcell-col4-cat0" fill="#777" stroke="#DDD" width="70" height="223" x="0" y="-223" rx="8" ry="8"/><text text-anchor="middle" fill="#FFF" x="35" y="-203">253</text></a></g></g><rect fill="none" stroke="#DDD" width="70" height="30" rx="8" ry="8" x="325" y="276"/><text text-anchor="middle" fill="#333" x="360" y="296">13-03</text><g transform="translate(325,316)"></g></g><g><g transform="translate(405,266)"><g><a target="_top" xlink:href="dtp-sliceTagClothes-step5605201-ofs0-col5-cat0.html"><rect style="display:none" class="hcell-act-col5-cat0" fill="#777" stroke="#000" stroke-width="5" width="70" height="216" x="0" y="-221" rx="8" ry="8"/><rect class="hcell-col5-cat0" fill="#777" stroke="#DDD" width="70" height="226" x="0" y="-226" rx="8" ry="8"/><text text-anchor="middle" fill="#FFF" x="35" y="-206">256</text></a></g></g><rect fill="none" stroke="#DDD" width="70" height="30" rx="8" ry="8" x="405" y="276"/><text text-anchor="middle" fill="#333" x="440" y="296">13-05</text><g transform="translate(405,316)"><g><a target="_top" xlink:href="dtp-sliceTagClothes-step5605201-ofs0-col5-cat0.html"><rect style="display:none" class="hcell-act-col5-cat0" fill="#777" stroke="#000" stroke-width="5" width="70" height="41" x="0" y="5" rx="8" ry="8"/><rect class="hcell-col5-cat0" fill="#777" stroke="#DDD" width="70" height="51" x="0" y="0" rx="8" ry="8"/><text text-anchor="middle" fill="#FFF" x="35" y="20">-59</text></a></g></g></g><g><g transform="translate(485,266)"><g><a target="_top" xlink:href="dtp-sliceTagClothes-step5605201-ofs0-col6-cat0.html"><rect style="display:none" class="hcell-act-col6-cat0" fill="#777" stroke="#000" stroke-width="5" width="70" height="132" x="0" y="-137" rx="8" ry="8"/><rect class="hcell-col6-cat0" fill="#777" stroke="#DDD" width="70" height="142" x="0" y="-142" rx="8" ry="8"/><text text-anchor="middle" fill="#FFF" x="35" y="-122">161</text></a></g></g><rect fill="none" stroke="#DDD" width="70" height="30" rx="8" ry="8" x="485" y="276"/><text text-anchor="middle" fill="#333" x="520" y="296">13-07</text><g transform="translate(485,316)"></g></g><g><g transform="translate(565,266)"><g><a target="_top" xlink:href="dtp-sliceTagClothes-step5605201-ofs0-col7-cat0.html"><rect style="display:none" class="hcell-act-col7-cat0" fill="#777" stroke="#000" stroke-width="5" width="70" height="104" x="0" y="-109" rx="8" ry="8"/><rect class="hcell-col7-cat0" fill="#777" stroke="#DDD" width="70" height="114" x="0" y="-114" rx="8" ry="8"/><text text-anchor="middle" fill="#FFF" x="35" y="-94">129</text></a></g></g><rect fill="none" stroke="#DDD" width="70" height="30" rx="8" ry="8" x="565" y="276"/><text text-anchor="middle" fill="#333" x="600" y="296">13-09</text><g transform="translate(565,316)"></g></g><g><g transform="translate(645,266)"><g><a target="_top" xlink:href="dtp-sliceTagClothes-step5605201-ofs0-col8-cat0.html"><rect style="display:none" class="hcell-act-col8-cat0" fill="#777" stroke="#000" stroke-width="5" width="70" height="37" x="0" y="-42" rx="8" ry="8"/><rect class="hcell-col8-cat0" fill="#777" stroke="#DDD" width="70" height="47" x="0" y="-47" rx="8" ry="8"/><text text-anchor="middle" fill="#FFF" x="35" y="-27">54</text></a></g></g><rect fill="none" stroke="#DDD" width="70" height="30" rx="8" ry="8" x="645" y="276"/><text text-anchor="middle" fill="#333" x="680" y="296">13-12</text><g transform="translate(645,316)"><g><a target="_top" xlink:href="dtp-sliceTagClothes-step5605201-ofs0-col8-cat0.html"><rect style="display:none" class="hcell-act-col8-cat0" fill="#777" stroke="#000" stroke-width="5" width="70" height="20" x="0" y="5" rx="8" ry="8"/><rect class="hcell-col8-cat0" fill="#777" stroke="#DDD" width="70" height="30" x="0" y="0" rx="8" ry="8"/><text text-anchor="middle" fill="#FFF" x="35" y="20">-34</text></a></g></g></g><g><g transform="translate(725,266)"><g><a target="_top" xlink:href="dtp-sliceTagClothes-step5605201-ofs0-col9-cat0.html"><rect style="display:none" class="hcell-act-col9-cat0" fill="#777" stroke="#000" stroke-width="5" width="70" height="199" x="0" y="-204" rx="8" ry="8"/><rect class="hcell-col9-cat0" fill="#777" stroke="#DDD" width="70" height="209" x="0" y="-209" rx="8" ry="8"/><text text-anchor="middle" fill="#FFF" x="35" y="-189">237</text></a></g></g><rect fill="none" stroke="#DDD" width="70" height="30" rx="8" ry="8" x="725" y="276"/><text text-anchor="middle" fill="#333" x="760" y="296">14-02</text><g transform="translate(725,316)"></g></g><g><g transform="translate(805,266)"><g><a target="_top" xlink:href="dtp-sliceTagClothes-step5605201-ofs0-col10-cat0.html"><rect style="display:none" class="hcell-act-col10-cat0" fill="#777" stroke="#000" stroke-width="5" width="70" height="203" x="0" y="-208" rx="8" ry="8"/><rect class="hcell-col10-cat0" fill="#777" stroke="#DDD" width="70" height="213" x="0" y="-213" rx="8" ry="8"/><text text-anchor="middle" fill="#FFF" x="35" y="-193">241</text></a></g></g><rect fill="none" stroke="#DDD" width="70" height="30" rx="8" ry="8" x="805" y="276"/><text text-anchor="middle" fill="#333" x="840" y="296">14-04</text><g transform="translate(805,316)"><g><a target="_top" xlink:href="dtp-sliceTagClothes-step5605201-ofs0-col10-cat0.html"><rect style="display:none" class="hcell-act-col10-cat0" fill="#777" stroke="#000" stroke-width="5" width="70" height="95" x="0" y="5" rx="8" ry="8"/><rect class="hcell-col10-cat0" fill="#777" stroke="#DDD" width="70" height="105" x="0" y="0" rx="8" ry="8"/><text text-anchor="middle" fill="#FFF" x="35" y="20">-120</text></a></g></g></g><g><g transform="translate(885,266)"><g><a target="_top" xlink:href="dtp-sliceTagClothes-step5605201-ofs0-col11-cat0.html"><rect style="display:none" class="hcell-act-col11-cat0" fill="#777" stroke="#000" stroke-width="5" width="70" height="251" x="0" y="-256" rx="8" ry="8"/><rect class="hcell-col11-cat0" fill="#777" stroke="#DDD" width="70" height="261" x="0" y="-261" rx="8" ry="8"/><text text-anchor="middle" fill="#FFF" x="35" y="-241">296</text></a></g></g><rect fill="none" stroke="#DDD" width="70" height="30" rx="8" ry="8" x="885" y="276"/><text text-anchor="middle" fill="#333" x="920" y="296">14-06</text><g transform="translate(885,316)"></g></g><g><g transform="translate(965,266)"><g><a target="_top" xlink:href="dtp-sliceTagClothes-step5605201-ofs0-col12-cat0.html"><rect style="display:none" class="hcell-act-col12-cat0" fill="#777" stroke="#000" stroke-width="5" width="70" height="246" x="0" y="-251" rx="8" ry="8"/><rect class="hcell-col12-cat0" fill="#777" stroke="#DDD" width="70" height="256" x="0" y="-256" rx="8" ry="8"/><text text-anchor="middle" fill="#FFF" x="35" y="-236">290</text></a></g></g><rect fill="none" stroke="#DDD" width="70" height="30" rx="8" ry="8" x="965" y="276"/><text text-anchor="middle" fill="#333" x="1000" y="296">14-08</text><g transform="translate(965,316)"></g></g><g><g transform="translate(1045,266)"><g><a target="_top" xlink:href="dtp-sliceTagClothes-step5605201-ofs0-col13-cat0.html"><rect style="display:none" class="hcell-act-col13-cat0" fill="#777" stroke="#000" stroke-width="5" width="70" height="244" x="0" y="-249" rx="8" ry="8"/><rect class="hcell-col13-cat0" fill="#777" stroke="#DDD" width="70" height="254" x="0" y="-254" rx="8" ry="8"/><text text-anchor="middle" fill="#FFF" x="35" y="-234">287</text></a></g></g><rect fill="none" stroke="#DDD" width="70" height="30" rx="8" ry="8" x="1045" y="276"/><text text-anchor="middle" fill="#333" x="1080" y="296">14-10</text><g transform="translate(1045,316)"><g><a target="_top" xlink:href="dtp-sliceTagClothes-step5605201-ofs0-col13-cat0.html"><rect style="display:none" class="hcell-act-col13-cat0" fill="#777" stroke="#000" stroke-width="5" width="70" height="20" x="0" y="5" rx="8" ry="8"/><rect class="hcell-col13-cat0" fill="#777" stroke="#DDD" width="70" height="30" x="0" y="0" rx="8" ry="8"/><text text-anchor="middle" fill="#FFF" x="35" y="20">-31</text></a></g></g></g><g><g transform="translate(1125,266)"><g><a target="_top" xlink:href="dtp-sliceTagClothes-step5605201-ofs0-col14-cat0.html"><rect style="display:none" class="hcell-act-col14-cat0" fill="#777" stroke="#000" stroke-width="5" width="70" height="232" x="0" y="-237" rx="8" ry="8"/><rect class="hcell-col14-cat0" fill="#777" stroke="#DDD" width="70" height="242" x="0" y="-242" rx="8" ry="8"/><text text-anchor="middle" fill="#FFF" x="35" y="-222">273</text></a></g></g><rect fill="none" stroke="#DDD" width="70" height="30" rx="8" ry="8" x="1125" y="276"/><text text-anchor="middle" fill="#333" x="1160" y="296">14-12</text><g transform="translate(1125,316)"><g><a target="_top" xlink:href="dtp-sliceTagClothes-step5605201-ofs0-col14-cat0.html"><rect style="display:none" class="hcell-act-col14-cat0" fill="#777" stroke="#000" stroke-width="5" width="70" height="58" x="0" y="5" rx="8" ry="8"/><rect class="hcell-col14-cat0" fill="#777" stroke="#DDD" width="70" height="68" x="0" y="0" rx="8" ry="8"/><text text-anchor="middle" fill="#FFF" x="35" y="20">-78</text></a></g></g></g><g><g transform="translate(1205,266)"><g><a target="_top" xlink:href="dtp-sliceTagClothes-step5605201-ofs0-col15-cat0.html"><rect style="display:none" class="hcell-act-col15-cat0" fill="#777" stroke="#000" stroke-width="5" width="70" height="89" x="0" y="-94" rx="8" ry="8"/><rect class="hcell-col15-cat0" fill="#777" stroke="#DDD" width="70" height="99" x="0" y="-99" rx="8" ry="8"/><text text-anchor="middle" fill="#FFF" x="35" y="-79">112</text></a></g></g><rect fill="none" stroke="#DDD" width="70" height="30" rx="8" ry="8" x="1205" y="276"/><text text-anchor="middle" fill="#333" x="1240" y="296">15-03</text><g transform="translate(1205,316)"><g><a target="_top" xlink:href="dtp-sliceTagClothes-step5605201-ofs0-col15-cat0.html"><rect style="display:none" class="hcell-act-col15-cat0" fill="#777" stroke="#000" stroke-width="5" width="70" height="20" x="0" y="5" rx="8" ry="8"/><rect class="hcell-col15-cat0" fill="#777" stroke="#DDD" width="70" height="30" x="0" y="0" rx="8" ry="8"/><text text-anchor="middle" fill="#FFF" x="35" y="20">-33</text></a></g></g></g></svg>