<svg xmlns="http://www.w3.org/2000/svg" xmlns:xlink="http://www.w3.org/1999/xlink" width="100%" height="100%" viewBox="0 0 1280 459"><g><g transform="translate(5,132)"></g><rect fill="none" stroke="#DDD" width="70" height="30" rx="8" ry="8" x="5" y="142"/><text text-anchor="middle" fill="#333" x="40" y="162">14-01</text><g transform="translate(5,182)"></g></g><g><g transform="translate(85,132)"></g><rect fill="none" stroke="#DDD" width="70" height="30" rx="8" ry="8" x="85" y="142"/><text text-anchor="middle" fill="#333" x="120" y="162">14-03</text><g transform="translate(85,182)"></g></g><g><g transform="translate(165,132)"></g><rect fill="none" stroke="#DDD" width="70" height="30" rx="8" ry="8" x="165" y="142"/><text text-anchor="middle" fill="#333" x="200" y="162">14-04</text><g transform="translate(165,182)"><g><a target="_top" xlink:href="dtp-sliceTagInstyle-step2628000-ofs19-col21-cat0.html"><rect style="display:none" class="hcell-act-col21-cat0" fill="#777" stroke="#000" stroke-width="5" width="70" height="129" x="0" y="5" rx="8" ry="8"/><rect class="hcell-col21-cat0" fill="#777" stroke="#DDD" width="70" height="139" x="0" y="0" rx="8" ry="8"/><text text-anchor="middle" fill="#FFF" x="35" y="20">-86</text></a></g></g></g><g><g transform="translate(245,132)"><g><a target="_top" xlink:href="dtp-sliceTagInstyle-step2628000-ofs19-col22-cat0.html"><rect style="display:none" class="hcell-act-col22-cat0" fill="#777" stroke="#000" stroke-width="5" width="70" height="107" x="0" y="-112" rx="8" ry="8"/><rect class="hcell-col22-cat0" fill="#777" stroke="#DDD" width="70" height="117" x="0" y="-117" rx="8" ry="8"/><text text-anchor="middle" fill="#FFF" x="35" y="-97">71</text></a></g></g><rect fill="none" stroke="#DDD" width="70" height="30" rx="8" ry="8" x="245" y="142"/><text text-anchor="middle" fill="#333" x="280" y="162">14-05</text><g transform="translate(245,182)"></g></g><g><g transform="translate(325,132)"></g><rect fill="none" stroke="#DDD" width="70" height="30" rx="8" ry="8" x="325" y="142"/><text text-anchor="middle" fill="#333" x="360" y="162">14-06</text><g transform="translate(325,182)"><g><a target="_top" xlink:href="dtp-sliceTagInstyle-step2628000-ofs19-col23-cat0.html"><rect style="display:none" class="hcell-act-col23-cat0" fill="#777" stroke="#000" stroke-width="5" width="70" height="220" x="0" y="5" rx="8" ry="8"/><rect class="hcell-col23-cat0" fill="#777" stroke="#DDD" width="70" height="230" x="0" y="0" rx="8" ry="8"/><text text-anchor="middle" fill="#FFF" x="35" y="20">-141</text></a></g></g></g><g><g transform="translate(405,132)"></g><rect fill="none" stroke="#DDD" width="70" height="30" rx="8" ry="8" x="405" y="142"/><text text-anchor="middle" fill="#333" x="440" y="162">14-07</text><g transform="translate(405,182)"><g><a target="_top" xlink:href="dtp-sliceTagInstyle-step2628000-ofs19-col24-cat0.html"><rect style="display:none" class="hcell-act-col24-cat0" fill="#777" stroke="#000" stroke-width="5" width="70" height="147" x="0" y="5" rx="8" ry="8"/><rect class="hcell-col24-cat0" fill="#777" stroke="#DDD" width="70" height="157" x="0" y="0" rx="8" ry="8"/><text text-anchor="middle" fill="#FFF" x="35" y="20">-97</text></a></g></g></g><g><g transform="translate(485,132)"></g><rect fill="none" stroke="#DDD" width="70" height="30" rx="8" ry="8" x="485" y="142"/><text text-anchor="middle" fill="#333" x="520" y="162">14-08</text><g transform="translate(485,182)"></g></g><g><g transform="translate(565,132)"></g><rect fill="none" stroke="#DDD" width="70" height="30" rx="8" ry="8" x="565" y="142"/><text text-anchor="middle" fill="#333" x="600" y="162">14-08</text><g transform="translate(565,182)"></g></g><g><g transform="translate(645,132)"></g><rect fill="none" stroke="#DDD" width="70" height="30" rx="8" ry="8" x="645" y="142"/><text text-anchor="middle" fill="#333" x="680" y="162">14-10</text><g transform="translate(645,182)"><g><a target="_top" xlink:href="dtp-sliceTagInstyle-step2628000-ofs19-col27-cat0.html"><rect style="display:none" class="hcell-act-col27-cat0" fill="#777" stroke="#000" stroke-width="5" width="70" height="262" x="0" y="5" rx="8" ry="8"/><rect class="hcell-col27-cat0" fill="#777" stroke="#DDD" width="70" height="272" x="0" y="0" rx="8" ry="8"/><text text-anchor="middle" fill="#FFF" x="35" y="20">-167</text></a></g></g></g><g><g transform="translate(725,132)"></g><rect fill="none" stroke="#DDD" width="70" height="30" rx="8" ry="8" x="725" y="142"/><text text-anchor="middle" fill="#333" x="760" y="162">14-10</text><g transform="translate(725,182)"><g><a target="_top" xlink:href="dtp-sliceTagInstyle-step2628000-ofs19-col28-cat0.html"><rect style="display:none" class="hcell-act-col28-cat0" fill="#777" stroke="#000" stroke-width="5" width="70" height="131" x="0" y="5" rx="8" ry="8"/><rect class="hcell-col28-cat0" fill="#777" stroke="#DDD" width="70" height="141" x="0" y="0" rx="8" ry="8"/><text text-anchor="middle" fill="#FFF" x="35" y="20">-87</text></a></g></g></g><g><g transform="translate(805,132)"></g><rect fill="none" stroke="#DDD" width="70" height="30" rx="8" ry="8" x="805" y="142"/><text text-anchor="middle" fill="#333" x="840" y="162">14-12</text><g transform="translate(805,182)"><g><a target="_top" xlink:href="dtp-sliceTagInstyle-step2628000-ofs19-col29-cat0.html"><rect style="display:none" class="hcell-act-col29-cat0" fill="#777" stroke="#000" stroke-width="5" width="70" height="129" x="0" y="5" rx="8" ry="8"/><rect class="hcell-col29-cat0" fill="#777" stroke="#DDD" width="70" height="139" x="0" y="0" rx="8" ry="8"/><text text-anchor="middle" fill="#FFF" x="35" y="20">-86</text></a></g></g></g><g><g transform="translate(885,132)"><g><a target="_top" xlink:href="dtp-sliceTagInstyle-step2628000-ofs19-col30-cat0.html"><rect style="display:none" class="hcell-act-col30-cat0" fill="#777" stroke="#000" stroke-width="5" width="70" height="117" x="0" y="-122" rx="8" ry="8"/><rect class="hcell-col30-cat0" fill="#777" stroke="#DDD" width="70" height="127" x="0" y="-127" rx="8" ry="8"/><text text-anchor="middle" fill="#FFF" x="35" y="-107">77</text></a></g></g><rect fill="none" stroke="#DDD" width="70" height="30" rx="8" ry="8" x="885" y="142"/><text text-anchor="middle" fill="#333" x="920" y="162">14-12</text><g transform="translate(885,182)"><g><a target="_top" xlink:href="dtp-sliceTagInstyle-step2628000-ofs19-col30-cat0.html"><rect style="display:none" class="hcell-act-col30-cat0" fill="#777" stroke="#000" stroke-width="5" width="70" height="124" x="0" y="5" rx="8" ry="8"/><rect class="hcell-col30-cat0" fill="#777" stroke="#DDD" width="70" height="134" x="0" y="0" rx="8" ry="8"/><text text-anchor="middle" fill="#FFF" x="35" y="20">-83</text></a></g></g></g><g><g transform="translate(965,132)"></g><rect fill="none" stroke="#DDD" width="70" height="30" rx="8" ry="8" x="965" y="142"/><text text-anchor="middle" fill="#333" x="1000" y="162">15-01</text><g transform="translate(965,182)"><g><a target="_top" xlink:href="dtp-sliceTagInstyle-step2628000-ofs19-col31-cat0.html"><rect style="display:none" class="hcell-act-col31-cat0" fill="#777" stroke="#000" stroke-width="5" width="70" height="105" x="0" y="5" rx="8" ry="8"/><rect class="hcell-col31-cat0" fill="#777" stroke="#DDD" width="70" height="115" x="0" y="0" rx="8" ry="8"/><text text-anchor="middle" fill="#FFF" x="35" y="20">-71</text></a></g></g></g><g><g transform="translate(1045,132)"></g><rect fill="none" stroke="#DDD" width="70" height="30" rx="8" ry="8" x="1045" y="142"/><text text-anchor="middle" fill="#333" x="1080" y="162">15-03</text><g transform="translate(1045,182)"><g><a target="_top" xlink:href="dtp-sliceTagInstyle-step2628000-ofs19-col32-cat0.html"><rect style="display:none" class="hcell-act-col32-cat0" fill="#777" stroke="#000" stroke-width="5" width="70" height="37" x="0" y="5" rx="8" ry="8"/><rect class="hcell-col32-cat0" fill="#777" stroke="#DDD" width="70" height="47" x="0" y="0" rx="8" ry="8"/><text text-anchor="middle" fill="#FFF" x="35" y="20">-29</text></a></g></g></g><g><g transform="translate(1125,132)"><g><a target="_top" xlink:href="dtp-sliceTagInstyle-step2628000-ofs19-col33-cat0.html"><rect style="display:none" class="hcell-act-col33-cat0" fill="#777" stroke="#000" stroke-width="5" width="70" height="43" x="0" y="-48" rx="8" ry="8"/><rect class="hcell-col33-cat0" fill="#777" stroke="#DDD" width="70" height="53" x="0" y="-53" rx="8" ry="8"/><text text-anchor="middle" fill="#FFF" x="35" y="-33">32</text></a></g></g><rect fill="none" stroke="#DDD" width="70" height="30" rx="8" ry="8" x="1125" y="142"/><text text-anchor="middle" fill="#333" x="1160" y="162">15-04</text><g transform="translate(1125,182)"></g></g><g><g transform="translate(1205,132)"></g><rect fill="none" stroke="#DDD" width="70" height="30" rx="8" ry="8" x="1205" y="142"/><text text-anchor="middle" fill="#333" x="1240" y="162">15-05</text><g transform="translate(1205,182)"></g></g></svg>