<svg xmlns="http://www.w3.org/2000/svg" xmlns:xlink="http://www.w3.org/1999/xlink" width="100%" height="100%" viewBox="0 0 1280 467"><g><g transform="translate(5,244)"></g><rect fill="none" stroke="#DDD" width="70" height="30" rx="8" ry="8" x="5" y="254"/><text text-anchor="middle" fill="#333" x="40" y="274">14-01</text><g transform="translate(5,294)"></g></g><g><g transform="translate(85,244)"></g><rect fill="none" stroke="#DDD" width="70" height="30" rx="8" ry="8" x="85" y="254"/><text text-anchor="middle" fill="#333" x="120" y="274">14-03</text><g transform="translate(85,294)"></g></g><g><g transform="translate(165,244)"></g><rect fill="none" stroke="#DDD" width="70" height="30" rx="8" ry="8" x="165" y="254"/><text text-anchor="middle" fill="#333" x="200" y="274">14-04</text><g transform="translate(165,294)"></g></g><g><g transform="translate(245,244)"></g><rect fill="none" stroke="#DDD" width="70" height="30" rx="8" ry="8" x="245" y="254"/><text text-anchor="middle" fill="#333" x="280" y="274">14-05</text><g transform="translate(245,294)"></g></g><g><g transform="translate(325,244)"></g><rect fill="none" stroke="#DDD" width="70" height="30" rx="8" ry="8" x="325" y="254"/><text text-anchor="middle" fill="#333" x="360" y="274">14-06</text><g transform="translate(325,294)"></g></g><g><g transform="translate(405,244)"></g><rect fill="none" stroke="#DDD" width="70" height="30" rx="8" ry="8" x="405" y="254"/><text text-anchor="middle" fill="#333" x="440" y="274">14-07</text><g transform="translate(405,294)"></g></g><g><g transform="translate(485,244)"><g><a target="_top" xlink:href="dtp-slice1-step2628000-ofs19-col25-cat4.html"><rect style="display:none" class="hcell-act-col25-cat4" fill="#D9534F" stroke="#000" stroke-width="5" width="70" height="20" x="0" y="-25" rx="8" ry="8"/><rect class="hcell-col25-cat4" fill="#D9534F" stroke="#DDD" width="70" height="30" x="0" y="-30" rx="8" ry="8"/><text text-anchor="middle" fill="#FFF" x="35" y="-10">4</text></a><g transform="translate(0,-30)"><g><a target="_top" xlink:href="dtp-slice1-step2628000-ofs19-col25-cat3.html"><rect style="display:none" class="hcell-act-col25-cat3" fill="#F0AD4E" stroke="#000" stroke-width="5" width="70" height="20" x="0" y="-25" rx="8" ry="8"/><rect class="hcell-col25-cat3" fill="#F0AD4E" stroke="#DDD" width="70" height="30" x="0" y="-30" rx="8" ry="8"/><text text-anchor="middle" fill="#FFF" x="35" y="-10">5</text></a></g></g></g></g><rect fill="none" stroke="#DDD" width="70" height="30" rx="8" ry="8" x="485" y="254"/><text text-anchor="middle" fill="#333" x="520" y="274">14-08</text><g transform="translate(485,294)"><g><a target="_top" xlink:href="dtp-slice1-step2628000-ofs19-col25-cat2.html"><rect style="display:none" class="hcell-act-col25-cat2" fill="#337AB7" stroke="#000" stroke-width="5" width="70" height="20" x="0" y="5" rx="8" ry="8"/><rect class="hcell-col25-cat2" fill="#337AB7" stroke="#DDD" width="70" height="30" x="0" y="0" rx="8" ry="8"/><text text-anchor="middle" fill="#FFF" x="35" y="20">-6</text></a><g transform="translate(0,30)"><g><a target="_top" xlink:href="dtp-slice1-step2628000-ofs19-col25-cat0.html"><rect style="display:none" class="hcell-act-col25-cat0" fill="#5CB85C" stroke="#000" stroke-width="5" width="70" height="20" x="0" y="5" rx="8" ry="8"/><rect class="hcell-col25-cat0" fill="#5CB85C" stroke="#DDD" width="70" height="30" x="0" y="0" rx="8" ry="8"/><text text-anchor="middle" fill="#FFF" x="35" y="20">-20</text></a><g transform="translate(0,30)"><g><a target="_top" xlink:href="dtp-slice1-step2628000-ofs19-col25-cat1.html"><rect style="display:none" class="hcell-act-col25-cat1" fill="#5BC0DE" stroke="#000" stroke-width="5" width="70" height="38" x="0" y="5" rx="8" ry="8"/><rect class="hcell-col25-cat1" fill="#5BC0DE" stroke="#DDD" width="70" height="48" x="0" y="0" rx="8" ry="8"/><text text-anchor="middle" fill="#FFF" x="35" y="20">-46</text></a></g></g></g></g></g></g></g><g><g transform="translate(565,244)"><g><a target="_top" xlink:href="dtp-slice1-step2628000-ofs19-col26-cat0.html"><rect style="display:none" class="hcell-act-col26-cat0" fill="#5CB85C" stroke="#000" stroke-width="5" width="70" height="229" x="0" y="-234" rx="8" ry="8"/><rect class="hcell-col26-cat0" fill="#5CB85C" stroke="#DDD" width="70" height="239" x="0" y="-239" rx="8" ry="8"/><text text-anchor="middle" fill="#FFF" x="35" y="-219">224</text></a></g></g><rect fill="none" stroke="#DDD" width="70" height="30" rx="8" ry="8" x="565" y="254"/><text text-anchor="middle" fill="#333" x="600" y="274">14-08</text><g transform="translate(565,294)"><g><a target="_top" xlink:href="dtp-slice1-step2628000-ofs19-col26-cat2.html"><rect style="display:none" class="hcell-act-col26-cat2" fill="#337AB7" stroke="#000" stroke-width="5" width="70" height="20" x="0" y="5" rx="8" ry="8"/><rect class="hcell-col26-cat2" fill="#337AB7" stroke="#DDD" width="70" height="30" x="0" y="0" rx="8" ry="8"/><text text-anchor="middle" fill="#FFF" x="35" y="20">-2</text></a><g transform="translate(0,30)"><g><a target="_top" xlink:href="dtp-slice1-step2628000-ofs19-col26-cat1.html"><rect style="display:none" class="hcell-act-col26-cat1" fill="#5BC0DE" stroke="#000" stroke-width="5" width="70" height="20" x="0" y="5" rx="8" ry="8"/><rect class="hcell-col26-cat1" fill="#5BC0DE" stroke="#DDD" width="70" height="30" x="0" y="0" rx="8" ry="8"/><text text-anchor="middle" fill="#FFF" x="35" y="20">-24</text></a><g transform="translate(0,30)"><g><a target="_top" xlink:href="dtp-slice1-step2628000-ofs19-col26-cat3.html"><rect style="display:none" class="hcell-act-col26-cat3" fill="#F0AD4E" stroke="#000" stroke-width="5" width="70" height="22" x="0" y="5" rx="8" ry="8"/><rect class="hcell-col26-cat3" fill="#F0AD4E" stroke="#DDD" width="70" height="32" x="0" y="0" rx="8" ry="8"/><text text-anchor="middle" fill="#FFF" x="35" y="20">-30</text></a></g></g></g></g></g></g></g><g><g transform="translate(645,244)"><g><a target="_top" xlink:href="dtp-slice1-step2628000-ofs19-col27-cat4.html"><rect style="display:none" class="hcell-act-col27-cat4" fill="#D9534F" stroke="#000" stroke-width="5" width="70" height="20" x="0" y="-25" rx="8" ry="8"/><rect class="hcell-col27-cat4" fill="#D9534F" stroke="#DDD" width="70" height="30" x="0" y="-30" rx="8" ry="8"/><text text-anchor="middle" fill="#FFF" x="35" y="-10">7</text></a><g transform="translate(0,-30)"><g><a target="_top" xlink:href="dtp-slice1-step2628000-ofs19-col27-cat2.html"><rect style="display:none" class="hcell-act-col27-cat2" fill="#337AB7" stroke="#000" stroke-width="5" width="70" height="20" x="0" y="-25" rx="8" ry="8"/><rect class="hcell-col27-cat2" fill="#337AB7" stroke="#DDD" width="70" height="30" x="0" y="-30" rx="8" ry="8"/><text text-anchor="middle" fill="#FFF" x="35" y="-10">20</text></a><g transform="translate(0,-30)"><g><a target="_top" xlink:href="dtp-slice1-step2628000-ofs19-col27-cat3.html"><rect style="display:none" class="hcell-act-col27-cat3" fill="#F0AD4E" stroke="#000" stroke-width="5" width="70" height="101" x="0" y="-106" rx="8" ry="8"/><rect class="hcell-col27-cat3" fill="#F0AD4E" stroke="#DDD" width="70" height="111" x="0" y="-111" rx="8" ry="8"/><text text-anchor="middle" fill="#FFF" x="35" y="-91">104</text></a></g></g></g></g></g></g><rect fill="none" stroke="#DDD" width="70" height="30" rx="8" ry="8" x="645" y="254"/><text text-anchor="middle" fill="#333" x="680" y="274">14-10</text><g transform="translate(645,294)"><g><a target="_top" xlink:href="dtp-slice1-step2628000-ofs19-col27-cat1.html"><rect style="display:none" class="hcell-act-col27-cat1" fill="#5BC0DE" stroke="#000" stroke-width="5" width="70" height="20" x="0" y="5" rx="8" ry="8"/><rect class="hcell-col27-cat1" fill="#5BC0DE" stroke="#DDD" width="70" height="30" x="0" y="0" rx="8" ry="8"/><text text-anchor="middle" fill="#FFF" x="35" y="20">-24</text></a><g transform="translate(0,30)"><g><a target="_top" xlink:href="dtp-slice1-step2628000-ofs19-col27-cat0.html"><rect style="display:none" class="hcell-act-col27-cat0" fill="#5CB85C" stroke="#000" stroke-width="5" width="70" height="39" x="0" y="5" rx="8" ry="8"/><rect class="hcell-col27-cat0" fill="#5CB85C" stroke="#DDD" width="70" height="49" x="0" y="0" rx="8" ry="8"/><text text-anchor="middle" fill="#FFF" x="35" y="20">-47</text></a></g></g></g></g></g><g><g transform="translate(725,244)"><g><a target="_top" xlink:href="dtp-slice1-step2628000-ofs19-col28-cat4.html"><rect style="display:none" class="hcell-act-col28-cat4" fill="#D9534F" stroke="#000" stroke-width="5" width="70" height="41" x="0" y="-46" rx="8" ry="8"/><rect class="hcell-col28-cat4" fill="#D9534F" stroke="#DDD" width="70" height="51" x="0" y="-51" rx="8" ry="8"/><text text-anchor="middle" fill="#FFF" x="35" y="-31">47</text></a><g transform="translate(0,-51)"><g><a target="_top" xlink:href="dtp-slice1-step2628000-ofs19-col28-cat0.html"><rect style="display:none" class="hcell-act-col28-cat0" fill="#5CB85C" stroke="#000" stroke-width="5" width="70" height="170" x="0" y="-175" rx="8" ry="8"/><rect class="hcell-col28-cat0" fill="#5CB85C" stroke="#DDD" width="70" height="180" x="0" y="-180" rx="8" ry="8"/><text text-anchor="middle" fill="#FFF" x="35" y="-160">169</text></a></g></g></g></g><rect fill="none" stroke="#DDD" width="70" height="30" rx="8" ry="8" x="725" y="254"/><text text-anchor="middle" fill="#333" x="760" y="274">14-10</text><g transform="translate(725,294)"><g><a target="_top" xlink:href="dtp-slice1-step2628000-ofs19-col28-cat2.html"><rect style="display:none" class="hcell-act-col28-cat2" fill="#337AB7" stroke="#000" stroke-width="5" width="70" height="20" x="0" y="5" rx="8" ry="8"/><rect class="hcell-col28-cat2" fill="#337AB7" stroke="#DDD" width="70" height="30" x="0" y="0" rx="8" ry="8"/><text text-anchor="middle" fill="#FFF" x="35" y="20">-3</text></a><g transform="translate(0,30)"><g><a target="_top" xlink:href="dtp-slice1-step2628000-ofs19-col28-cat3.html"><rect style="display:none" class="hcell-act-col28-cat3" fill="#F0AD4E" stroke="#000" stroke-width="5" width="70" height="22" x="0" y="5" rx="8" ry="8"/><rect class="hcell-col28-cat3" fill="#F0AD4E" stroke="#DDD" width="70" height="32" x="0" y="0" rx="8" ry="8"/><text text-anchor="middle" fill="#FFF" x="35" y="20">-30</text></a><g transform="translate(0,32)"><g><a target="_top" xlink:href="dtp-slice1-step2628000-ofs19-col28-cat1.html"><rect style="display:none" class="hcell-act-col28-cat1" fill="#5BC0DE" stroke="#000" stroke-width="5" width="70" height="31" x="0" y="5" rx="8" ry="8"/><rect class="hcell-col28-cat1" fill="#5BC0DE" stroke="#DDD" width="70" height="41" x="0" y="0" rx="8" ry="8"/><text text-anchor="middle" fill="#FFF" x="35" y="20">-40</text></a></g></g></g></g></g></g></g><g><g transform="translate(805,244)"><g><a target="_top" xlink:href="dtp-slice1-step2628000-ofs19-col29-cat1.html"><rect style="display:none" class="hcell-act-col29-cat1" fill="#5BC0DE" stroke="#000" stroke-width="5" width="70" height="20" x="0" y="-25" rx="8" ry="8"/><rect class="hcell-col29-cat1" fill="#5BC0DE" stroke="#DDD" width="70" height="30" x="0" y="-30" rx="8" ry="8"/><text text-anchor="middle" fill="#FFF" x="35" y="-10">17</text></a><g transform="translate(0,-30)"><g><a target="_top" xlink:href="dtp-slice1-step2628000-ofs19-col29-cat4.html"><rect style="display:none" class="hcell-act-col29-cat4" fill="#D9534F" stroke="#000" stroke-width="5" width="70" height="20" x="0" y="-25" rx="8" ry="8"/><rect class="hcell-col29-cat4" fill="#D9534F" stroke="#DDD" width="70" height="30" x="0" y="-30" rx="8" ry="8"/><text text-anchor="middle" fill="#FFF" x="35" y="-10">18</text></a><g transform="translate(0,-30)"><g><a target="_top" xlink:href="dtp-slice1-step2628000-ofs19-col29-cat3.html"><rect style="display:none" class="hcell-act-col29-cat3" fill="#F0AD4E" stroke="#000" stroke-width="5" width="70" height="34" x="0" y="-39" rx="8" ry="8"/><rect class="hcell-col29-cat3" fill="#F0AD4E" stroke="#DDD" width="70" height="44" x="0" y="-44" rx="8" ry="8"/><text text-anchor="middle" fill="#FFF" x="35" y="-24">41</text></a></g></g></g></g></g></g><rect fill="none" stroke="#DDD" width="70" height="30" rx="8" ry="8" x="805" y="254"/><text text-anchor="middle" fill="#333" x="840" y="274">14-12</text><g transform="translate(805,294)"><g><a target="_top" xlink:href="dtp-slice1-step2628000-ofs19-col29-cat2.html"><rect style="display:none" class="hcell-act-col29-cat2" fill="#337AB7" stroke="#000" stroke-width="5" width="70" height="20" x="0" y="5" rx="8" ry="8"/><rect class="hcell-col29-cat2" fill="#337AB7" stroke="#DDD" width="70" height="30" x="0" y="0" rx="8" ry="8"/><text text-anchor="middle" fill="#FFF" x="35" y="20">-6</text></a><g transform="translate(0,30)"><g><a target="_top" xlink:href="dtp-slice1-step2628000-ofs19-col29-cat0.html"><rect style="display:none" class="hcell-act-col29-cat0" fill="#5CB85C" stroke="#000" stroke-width="5" width="70" height="43" x="0" y="5" rx="8" ry="8"/><rect class="hcell-col29-cat0" fill="#5CB85C" stroke="#DDD" width="70" height="53" x="0" y="0" rx="8" ry="8"/><text text-anchor="middle" fill="#FFF" x="35" y="20">-50</text></a></g></g></g></g></g><g><g transform="translate(885,244)"><g><a target="_top" xlink:href="dtp-slice1-step2628000-ofs19-col30-cat4.html"><rect style="display:none" class="hcell-act-col30-cat4" fill="#D9534F" stroke="#000" stroke-width="5" width="70" height="20" x="0" y="-25" rx="8" ry="8"/><rect class="hcell-col30-cat4" fill="#D9534F" stroke="#DDD" width="70" height="30" x="0" y="-30" rx="8" ry="8"/><text text-anchor="middle" fill="#FFF" x="35" y="-10">5</text></a></g></g><rect fill="none" stroke="#DDD" width="70" height="30" rx="8" ry="8" x="885" y="254"/><text text-anchor="middle" fill="#333" x="920" y="274">14-12</text><g transform="translate(885,294)"><g><a target="_top" xlink:href="dtp-slice1-step2628000-ofs19-col30-cat1.html"><rect style="display:none" class="hcell-act-col30-cat1" fill="#5BC0DE" stroke="#000" stroke-width="5" width="70" height="20" x="0" y="5" rx="8" ry="8"/><rect class="hcell-col30-cat1" fill="#5BC0DE" stroke="#DDD" width="70" height="30" x="0" y="0" rx="8" ry="8"/><text text-anchor="middle" fill="#FFF" x="35" y="20">-8</text></a><g transform="translate(0,30)"><g><a target="_top" xlink:href="dtp-slice1-step2628000-ofs19-col30-cat2.html"><rect style="display:none" class="hcell-act-col30-cat2" fill="#337AB7" stroke="#000" stroke-width="5" width="70" height="20" x="0" y="5" rx="8" ry="8"/><rect class="hcell-col30-cat2" fill="#337AB7" stroke="#DDD" width="70" height="30" x="0" y="0" rx="8" ry="8"/><text text-anchor="middle" fill="#FFF" x="35" y="20">-20</text></a><g transform="translate(0,30)"><g><a target="_top" xlink:href="dtp-slice1-step2628000-ofs19-col30-cat3.html"><rect style="display:none" class="hcell-act-col30-cat3" fill="#F0AD4E" stroke="#000" stroke-width="5" width="70" height="22" x="0" y="5" rx="8" ry="8"/><rect class="hcell-col30-cat3" fill="#F0AD4E" stroke="#DDD" width="70" height="32" x="0" y="0" rx="8" ry="8"/><text text-anchor="middle" fill="#FFF" x="35" y="20">-30</text></a><g transform="translate(0,32)"><g><a target="_top" xlink:href="dtp-slice1-step2628000-ofs19-col30-cat0.html"><rect style="display:none" class="hcell-act-col30-cat0" fill="#5CB85C" stroke="#000" stroke-width="5" width="70" height="43" x="0" y="5" rx="8" ry="8"/><rect class="hcell-col30-cat0" fill="#5CB85C" stroke="#DDD" width="70" height="53" x="0" y="0" rx="8" ry="8"/><text text-anchor="middle" fill="#FFF" x="35" y="20">-50</text></a></g></g></g></g></g></g></g></g></g><g><g transform="translate(965,244)"><g><a target="_top" xlink:href="dtp-slice1-step2628000-ofs19-col31-cat4.html"><rect style="display:none" class="hcell-act-col31-cat4" fill="#D9534F" stroke="#000" stroke-width="5" width="70" height="20" x="0" y="-25" rx="8" ry="8"/><rect class="hcell-col31-cat4" fill="#D9534F" stroke="#DDD" width="70" height="30" x="0" y="-30" rx="8" ry="8"/><text text-anchor="middle" fill="#FFF" x="35" y="-10">10</text></a><g transform="translate(0,-30)"><g><a target="_top" xlink:href="dtp-slice1-step2628000-ofs19-col31-cat1.html"><rect style="display:none" class="hcell-act-col31-cat1" fill="#5BC0DE" stroke="#000" stroke-width="5" width="70" height="20" x="0" y="-25" rx="8" ry="8"/><rect class="hcell-col31-cat1" fill="#5BC0DE" stroke="#DDD" width="70" height="30" x="0" y="-30" rx="8" ry="8"/><text text-anchor="middle" fill="#FFF" x="35" y="-10">17</text></a><g transform="translate(0,-30)"><g><a target="_top" xlink:href="dtp-slice1-step2628000-ofs19-col31-cat0.html"><rect style="display:none" class="hcell-act-col31-cat0" fill="#5CB85C" stroke="#000" stroke-width="5" width="70" height="126" x="0" y="-131" rx="8" ry="8"/><rect class="hcell-col31-cat0" fill="#5CB85C" stroke="#DDD" width="70" height="136" x="0" y="-136" rx="8" ry="8"/><text text-anchor="middle" fill="#FFF" x="35" y="-116">127</text></a></g></g></g></g></g></g><rect fill="none" stroke="#DDD" width="70" height="30" rx="8" ry="8" x="965" y="254"/><text text-anchor="middle" fill="#333" x="1000" y="274">15-01</text><g transform="translate(965,294)"><g><a target="_top" xlink:href="dtp-slice1-step2628000-ofs19-col31-cat2.html"><rect style="display:none" class="hcell-act-col31-cat2" fill="#337AB7" stroke="#000" stroke-width="5" width="70" height="20" x="0" y="5" rx="8" ry="8"/><rect class="hcell-col31-cat2" fill="#337AB7" stroke="#DDD" width="70" height="30" x="0" y="0" rx="8" ry="8"/><text text-anchor="middle" fill="#FFF" x="35" y="20">-18</text></a><g transform="translate(0,30)"><g><a target="_top" xlink:href="dtp-slice1-step2628000-ofs19-col31-cat3.html"><rect style="display:none" class="hcell-act-col31-cat3" fill="#F0AD4E" stroke="#000" stroke-width="5" width="70" height="22" x="0" y="5" rx="8" ry="8"/><rect class="hcell-col31-cat3" fill="#F0AD4E" stroke="#DDD" width="70" height="32" x="0" y="0" rx="8" ry="8"/><text text-anchor="middle" fill="#FFF" x="35" y="20">-30</text></a></g></g></g></g></g><g><g transform="translate(1045,244)"><g><a target="_top" xlink:href="dtp-slice1-step2628000-ofs19-col32-cat4.html"><rect style="display:none" class="hcell-act-col32-cat4" fill="#D9534F" stroke="#000" stroke-width="5" width="70" height="20" x="0" y="-25" rx="8" ry="8"/><rect class="hcell-col32-cat4" fill="#D9534F" stroke="#DDD" width="70" height="30" x="0" y="-30" rx="8" ry="8"/><text text-anchor="middle" fill="#FFF" x="35" y="-10">15</text></a><g transform="translate(0,-30)"><g><a target="_top" xlink:href="dtp-slice1-step2628000-ofs19-col32-cat3.html"><rect style="display:none" class="hcell-act-col32-cat3" fill="#F0AD4E" stroke="#000" stroke-width="5" width="70" height="47" x="0" y="-52" rx="8" ry="8"/><rect class="hcell-col32-cat3" fill="#F0AD4E" stroke="#DDD" width="70" height="57" x="0" y="-57" rx="8" ry="8"/><text text-anchor="middle" fill="#FFF" x="35" y="-37">53</text></a></g></g></g></g><rect fill="none" stroke="#DDD" width="70" height="30" rx="8" ry="8" x="1045" y="254"/><text text-anchor="middle" fill="#333" x="1080" y="274">15-03</text><g transform="translate(1045,294)"><g><a target="_top" xlink:href="dtp-slice1-step2628000-ofs19-col32-cat2.html"><rect style="display:none" class="hcell-act-col32-cat2" fill="#337AB7" stroke="#000" stroke-width="5" width="70" height="20" x="0" y="5" rx="8" ry="8"/><rect class="hcell-col32-cat2" fill="#337AB7" stroke="#DDD" width="70" height="30" x="0" y="0" rx="8" ry="8"/><text text-anchor="middle" fill="#FFF" x="35" y="20">-2</text></a><g transform="translate(0,30)"><g><a target="_top" xlink:href="dtp-slice1-step2628000-ofs19-col32-cat0.html"><rect style="display:none" class="hcell-act-col32-cat0" fill="#5CB85C" stroke="#000" stroke-width="5" width="70" height="20" x="0" y="5" rx="8" ry="8"/><rect class="hcell-col32-cat0" fill="#5CB85C" stroke="#DDD" width="70" height="30" x="0" y="0" rx="8" ry="8"/><text text-anchor="middle" fill="#FFF" x="35" y="20">-24</text></a><g transform="translate(0,30)"><g><a target="_top" xlink:href="dtp-slice1-step2628000-ofs19-col32-cat1.html"><rect style="display:none" class="hcell-act-col32-cat1" fill="#5BC0DE" stroke="#000" stroke-width="5" width="70" height="20" x="0" y="5" rx="8" ry="8"/><rect class="hcell-col32-cat1" fill="#5BC0DE" stroke="#DDD" width="70" height="30" x="0" y="0" rx="8" ry="8"/><text text-anchor="middle" fill="#FFF" x="35" y="20">-28</text></a></g></g></g></g></g></g></g><g><g transform="translate(1125,244)"><g><a target="_top" xlink:href="dtp-slice1-step2628000-ofs19-col33-cat2.html"><rect style="display:none" class="hcell-act-col33-cat2" fill="#337AB7" stroke="#000" stroke-width="5" width="70" height="20" x="0" y="-25" rx="8" ry="8"/><rect class="hcell-col33-cat2" fill="#337AB7" stroke="#DDD" width="70" height="30" x="0" y="-30" rx="8" ry="8"/><text text-anchor="middle" fill="#FFF" x="35" y="-10">7</text></a><g transform="translate(0,-30)"><g><a target="_top" xlink:href="dtp-slice1-step2628000-ofs19-col33-cat1.html"><rect style="display:none" class="hcell-act-col33-cat1" fill="#5BC0DE" stroke="#000" stroke-width="5" width="70" height="25" x="0" y="-30" rx="8" ry="8"/><rect class="hcell-col33-cat1" fill="#5BC0DE" stroke="#DDD" width="70" height="35" x="0" y="-35" rx="8" ry="8"/><text text-anchor="middle" fill="#FFF" x="35" y="-15">33</text></a><g transform="translate(0,-35)"><g><a target="_top" xlink:href="dtp-slice1-step2628000-ofs19-col33-cat4.html"><rect style="display:none" class="hcell-act-col33-cat4" fill="#D9534F" stroke="#000" stroke-width="5" width="70" height="31" x="0" y="-36" rx="8" ry="8"/><rect class="hcell-col33-cat4" fill="#D9534F" stroke="#DDD" width="70" height="41" x="0" y="-41" rx="8" ry="8"/><text text-anchor="middle" fill="#FFF" x="35" y="-21">39</text></a></g></g></g></g></g></g><rect fill="none" stroke="#DDD" width="70" height="30" rx="8" ry="8" x="1125" y="254"/><text text-anchor="middle" fill="#333" x="1160" y="274">15-04</text><g transform="translate(1125,294)"><g><a target="_top" xlink:href="dtp-slice1-step2628000-ofs19-col33-cat3.html"><rect style="display:none" class="hcell-act-col33-cat3" fill="#F0AD4E" stroke="#000" stroke-width="5" width="70" height="22" x="0" y="5" rx="8" ry="8"/><rect class="hcell-col33-cat3" fill="#F0AD4E" stroke="#DDD" width="70" height="32" x="0" y="0" rx="8" ry="8"/><text text-anchor="middle" fill="#FFF" x="35" y="20">-30</text></a><g transform="translate(0,32)"><g><a target="_top" xlink:href="dtp-slice1-step2628000-ofs19-col33-cat0.html"><rect style="display:none" class="hcell-act-col33-cat0" fill="#5CB85C" stroke="#000" stroke-width="5" width="70" height="33" x="0" y="5" rx="8" ry="8"/><rect class="hcell-col33-cat0" fill="#5CB85C" stroke="#DDD" width="70" height="43" x="0" y="0" rx="8" ry="8"/><text text-anchor="middle" fill="#FFF" x="35" y="20">-41</text></a></g></g></g></g></g><g><g transform="translate(1205,244)"></g><rect fill="none" stroke="#DDD" width="70" height="30" rx="8" ry="8" x="1205" y="254"/><text text-anchor="middle" fill="#333" x="1240" y="274">15-05</text><g transform="translate(1205,294)"><g><a target="_top" xlink:href="dtp-slice1-step2628000-ofs19-col34-cat2.html"><rect style="display:none" class="hcell-act-col34-cat2" fill="#337AB7" stroke="#000" stroke-width="5" width="70" height="20" x="0" y="5" rx="8" ry="8"/><rect class="hcell-col34-cat2" fill="#337AB7" stroke="#DDD" width="70" height="30" x="0" y="0" rx="8" ry="8"/><text text-anchor="middle" fill="#FFF" x="35" y="20">-20</text></a><g transform="translate(0,30)"><g><a target="_top" xlink:href="dtp-slice1-step2628000-ofs19-col34-cat3.html"><rect style="display:none" class="hcell-act-col34-cat3" fill="#F0AD4E" stroke="#000" stroke-width="5" width="70" height="22" x="0" y="5" rx="8" ry="8"/><rect class="hcell-col34-cat3" fill="#F0AD4E" stroke="#DDD" width="70" height="32" x="0" y="0" rx="8" ry="8"/><text text-anchor="middle" fill="#FFF" x="35" y="20">-30</text></a><g transform="translate(0,32)"><g><a target="_top" xlink:href="dtp-slice1-step2628000-ofs19-col34-cat0.html"><rect style="display:none" class="hcell-act-col34-cat0" fill="#5CB85C" stroke="#000" stroke-width="5" width="70" height="43" x="0" y="5" rx="8" ry="8"/><rect class="hcell-col34-cat0" fill="#5CB85C" stroke="#DDD" width="70" height="53" x="0" y="0" rx="8" ry="8"/><text text-anchor="middle" fill="#FFF" x="35" y="20">-50</text></a><g transform="translate(0,53)"><g><a target="_top" xlink:href="dtp-slice1-step2628000-ofs19-col34-cat1.html"><rect style="display:none" class="hcell-act-col34-cat1" fill="#5BC0DE" stroke="#000" stroke-width="5" width="70" height="43" x="0" y="5" rx="8" ry="8"/><rect class="hcell-col34-cat1" fill="#5BC0DE" stroke="#DDD" width="70" height="53" x="0" y="0" rx="8" ry="8"/><text text-anchor="middle" fill="#FFF" x="35" y="20">-50</text></a></g></g></g></g></g></g></g></g></g></svg>