<svg xmlns="http://www.w3.org/2000/svg" xmlns:xlink="http://www.w3.org/1999/xlink" width="100%" height="100%" viewBox="0 0 1280 459"><g><g transform="translate(5,347)"></g><rect fill="none" stroke="#DDD" width="70" height="30" rx="8" ry="8" x="5" y="357"/><text text-anchor="middle" fill="#333" x="40" y="377">14-01</text><g transform="translate(5,397)"></g></g><g><g transform="translate(85,347)"></g><rect fill="none" stroke="#DDD" width="70" height="30" rx="8" ry="8" x="85" y="357"/><text text-anchor="middle" fill="#333" x="120" y="377">14-03</text><g transform="translate(85,397)"></g></g><g><g transform="translate(165,347)"></g><rect fill="none" stroke="#DDD" width="70" height="30" rx="8" ry="8" x="165" y="357"/><text text-anchor="middle" fill="#333" x="200" y="377">14-04</text><g transform="translate(165,397)"></g></g><g><g transform="translate(245,347)"></g><rect fill="none" stroke="#DDD" width="70" height="30" rx="8" ry="8" x="245" y="357"/><text text-anchor="middle" fill="#333" x="280" y="377">14-05</text><g transform="translate(245,397)"></g></g><g><g transform="translate(325,347)"></g><rect fill="none" stroke="#DDD" width="70" height="30" rx="8" ry="8" x="325" y="357"/><text text-anchor="middle" fill="#333" x="360" y="377">14-06</text><g transform="translate(325,397)"></g></g><g><g transform="translate(405,347)"></g><rect fill="none" stroke="#DDD" width="70" height="30" rx="8" ry="8" x="405" y="357"/><text text-anchor="middle" fill="#333" x="440" y="377">14-07</text><g transform="translate(405,397)"></g></g><g><g transform="translate(485,347)"></g><rect fill="none" stroke="#DDD" width="70" height="30" rx="8" ry="8" x="485" y="357"/><text text-anchor="middle" fill="#333" x="520" y="377">14-08</text><g transform="translate(485,397)"><g><a target="_top" xlink:href="dtp-sliceTagCar-step2628000-ofs19-col25-cat0.html"><rect style="display:none" class="hcell-act-col25-cat0" fill="#777" stroke="#000" stroke-width="5" width="70" height="40" x="0" y="5" rx="8" ry="8"/><rect class="hcell-col25-cat0" fill="#777" stroke="#DDD" width="70" height="50" x="0" y="0" rx="8" ry="8"/><text text-anchor="middle" fill="#FFF" x="35" y="20">-209</text></a></g></g></g><g><g transform="translate(565,347)"><g><a target="_top" xlink:href="dtp-sliceTagCar-step2628000-ofs19-col26-cat0.html"><rect style="display:none" class="hcell-act-col26-cat0" fill="#777" stroke="#000" stroke-width="5" width="70" height="332" x="0" y="-337" rx="8" ry="8"/><rect class="hcell-col26-cat0" fill="#777" stroke="#DDD" width="70" height="342" x="0" y="-342" rx="8" ry="8"/><text text-anchor="middle" fill="#FFF" x="35" y="-322">1425</text></a></g></g><rect fill="none" stroke="#DDD" width="70" height="30" rx="8" ry="8" x="565" y="357"/><text text-anchor="middle" fill="#333" x="600" y="377">14-08</text><g transform="translate(565,397)"></g></g><g><g transform="translate(645,347)"></g><rect fill="none" stroke="#DDD" width="70" height="30" rx="8" ry="8" x="645" y="357"/><text text-anchor="middle" fill="#333" x="680" y="377">14-10</text><g transform="translate(645,397)"><g><a target="_top" xlink:href="dtp-sliceTagCar-step2628000-ofs19-col27-cat0.html"><rect style="display:none" class="hcell-act-col27-cat0" fill="#777" stroke="#000" stroke-width="5" width="70" height="40" x="0" y="5" rx="8" ry="8"/><rect class="hcell-col27-cat0" fill="#777" stroke="#DDD" width="70" height="50" x="0" y="0" rx="8" ry="8"/><text text-anchor="middle" fill="#FFF" x="35" y="20">-209</text></a></g></g></g><g><g transform="translate(725,347)"><g><a target="_top" xlink:href="dtp-sliceTagCar-step2628000-ofs19-col28-cat0.html"><rect style="display:none" class="hcell-act-col28-cat0" fill="#777" stroke="#000" stroke-width="5" width="70" height="144" x="0" y="-149" rx="8" ry="8"/><rect class="hcell-col28-cat0" fill="#777" stroke="#DDD" width="70" height="154" x="0" y="-154" rx="8" ry="8"/><text text-anchor="middle" fill="#FFF" x="35" y="-134">643</text></a></g></g><rect fill="none" stroke="#DDD" width="70" height="30" rx="8" ry="8" x="725" y="357"/><text text-anchor="middle" fill="#333" x="760" y="377">14-10</text><g transform="translate(725,397)"></g></g><g><g transform="translate(805,347)"></g><rect fill="none" stroke="#DDD" width="70" height="30" rx="8" ry="8" x="805" y="357"/><text text-anchor="middle" fill="#333" x="840" y="377">14-12</text><g transform="translate(805,397)"><g><a target="_top" xlink:href="dtp-sliceTagCar-step2628000-ofs19-col29-cat0.html"><rect style="display:none" class="hcell-act-col29-cat0" fill="#777" stroke="#000" stroke-width="5" width="70" height="32" x="0" y="5" rx="8" ry="8"/><rect class="hcell-col29-cat0" fill="#777" stroke="#DDD" width="70" height="42" x="0" y="0" rx="8" ry="8"/><text text-anchor="middle" fill="#FFF" x="35" y="20">-176</text></a></g></g></g><g><g transform="translate(885,347)"></g><rect fill="none" stroke="#DDD" width="70" height="30" rx="8" ry="8" x="885" y="357"/><text text-anchor="middle" fill="#333" x="920" y="377">14-12</text><g transform="translate(885,397)"><g><a target="_top" xlink:href="dtp-sliceTagCar-step2628000-ofs19-col30-cat0.html"><rect style="display:none" class="hcell-act-col30-cat0" fill="#777" stroke="#000" stroke-width="5" width="70" height="47" x="0" y="5" rx="8" ry="8"/><rect class="hcell-col30-cat0" fill="#777" stroke="#DDD" width="70" height="57" x="0" y="0" rx="8" ry="8"/><text text-anchor="middle" fill="#FFF" x="35" y="20">-240</text></a></g></g></g><g><g transform="translate(965,347)"></g><rect fill="none" stroke="#DDD" width="70" height="30" rx="8" ry="8" x="965" y="357"/><text text-anchor="middle" fill="#333" x="1000" y="377">15-01</text><g transform="translate(965,397)"><g><a target="_top" xlink:href="dtp-sliceTagCar-step2628000-ofs19-col31-cat0.html"><rect style="display:none" class="hcell-act-col31-cat0" fill="#777" stroke="#000" stroke-width="5" width="70" height="23" x="0" y="5" rx="8" ry="8"/><rect class="hcell-col31-cat0" fill="#777" stroke="#DDD" width="70" height="33" x="0" y="0" rx="8" ry="8"/><text text-anchor="middle" fill="#FFF" x="35" y="20">-142</text></a></g></g></g><g><g transform="translate(1045,347)"></g><rect fill="none" stroke="#DDD" width="70" height="30" rx="8" ry="8" x="1045" y="357"/><text text-anchor="middle" fill="#333" x="1080" y="377">15-03</text><g transform="translate(1045,397)"><g><a target="_top" xlink:href="dtp-sliceTagCar-step2628000-ofs19-col32-cat0.html"><rect style="display:none" class="hcell-act-col32-cat0" fill="#777" stroke="#000" stroke-width="5" width="70" height="20" x="0" y="5" rx="8" ry="8"/><rect class="hcell-col32-cat0" fill="#777" stroke="#DDD" width="70" height="30" x="0" y="0" rx="8" ry="8"/><text text-anchor="middle" fill="#FFF" x="35" y="20">-116</text></a></g></g></g><g><g transform="translate(1125,347)"></g><rect fill="none" stroke="#DDD" width="70" height="30" rx="8" ry="8" x="1125" y="357"/><text text-anchor="middle" fill="#333" x="1160" y="377">15-04</text><g transform="translate(1125,397)"><g><a target="_top" xlink:href="dtp-sliceTagCar-step2628000-ofs19-col33-cat0.html"><rect style="display:none" class="hcell-act-col33-cat0" fill="#777" stroke="#000" stroke-width="5" width="70" height="41" x="0" y="5" rx="8" ry="8"/><rect class="hcell-col33-cat0" fill="#777" stroke="#DDD" width="70" height="51" x="0" y="0" rx="8" ry="8"/><text text-anchor="middle" fill="#FFF" x="35" y="20">-215</text></a></g></g></g><g><g transform="translate(1205,347)"></g><rect fill="none" stroke="#DDD" width="70" height="30" rx="8" ry="8" x="1205" y="357"/><text text-anchor="middle" fill="#333" x="1240" y="377">15-05</text><g transform="translate(1205,397)"><g><a target="_top" xlink:href="dtp-sliceTagCar-step2628000-ofs19-col34-cat0.html"><rect style="display:none" class="hcell-act-col34-cat0" fill="#777" stroke="#000" stroke-width="5" width="70" height="47" x="0" y="5" rx="8" ry="8"/><rect class="hcell-col34-cat0" fill="#777" stroke="#DDD" width="70" height="57" x="0" y="0" rx="8" ry="8"/><text text-anchor="middle" fill="#FFF" x="35" y="20">-240</text></a></g></g></g></svg>