<svg xmlns="http://www.w3.org/2000/svg" xmlns:xlink="http://www.w3.org/1999/xlink" width="100%" height="100%" viewBox="0 0 1280 459"><g><g transform="translate(5,118)"></g><rect fill="none" stroke="#DDD" width="70" height="30" rx="8" ry="8" x="5" y="128"/><text text-anchor="middle" fill="#333" x="40" y="148">12-07</text><g transform="translate(5,168)"></g></g><g><g transform="translate(85,118)"></g><rect fill="none" stroke="#DDD" width="70" height="30" rx="8" ry="8" x="85" y="128"/><text text-anchor="middle" fill="#333" x="120" y="148">12-09</text><g transform="translate(85,168)"></g></g><g><g transform="translate(165,118)"></g><rect fill="none" stroke="#DDD" width="70" height="30" rx="8" ry="8" x="165" y="128"/><text text-anchor="middle" fill="#333" x="200" y="148">12-11</text><g transform="translate(165,168)"></g></g><g><g transform="translate(245,118)"></g><rect fill="none" stroke="#DDD" width="70" height="30" rx="8" ry="8" x="245" y="128"/><text text-anchor="middle" fill="#333" x="280" y="148">13-01</text><g transform="translate(245,168)"></g></g><g><g transform="translate(325,118)"></g><rect fill="none" stroke="#DDD" width="70" height="30" rx="8" ry="8" x="325" y="128"/><text text-anchor="middle" fill="#333" x="360" y="148">13-03</text><g transform="translate(325,168)"></g></g><g><g transform="translate(405,118)"></g><rect fill="none" stroke="#DDD" width="70" height="30" rx="8" ry="8" x="405" y="128"/><text text-anchor="middle" fill="#333" x="440" y="148">13-05</text><g transform="translate(405,168)"></g></g><g><g transform="translate(485,118)"></g><rect fill="none" stroke="#DDD" width="70" height="30" rx="8" ry="8" x="485" y="128"/><text text-anchor="middle" fill="#333" x="520" y="148">13-07</text><g transform="translate(485,168)"></g></g><g><g transform="translate(565,118)"></g><rect fill="none" stroke="#DDD" width="70" height="30" rx="8" ry="8" x="565" y="128"/><text text-anchor="middle" fill="#333" x="600" y="148">13-09</text><g transform="translate(565,168)"></g></g><g><g transform="translate(645,118)"></g><rect fill="none" stroke="#DDD" width="70" height="30" rx="8" ry="8" x="645" y="128"/><text text-anchor="middle" fill="#333" x="680" y="148">13-12</text><g transform="translate(645,168)"></g></g><g><g transform="translate(725,118)"></g><rect fill="none" stroke="#DDD" width="70" height="30" rx="8" ry="8" x="725" y="128"/><text text-anchor="middle" fill="#333" x="760" y="148">14-02</text><g transform="translate(725,168)"></g></g><g><g transform="translate(805,118)"></g><rect fill="none" stroke="#DDD" width="70" height="30" rx="8" ry="8" x="805" y="128"/><text text-anchor="middle" fill="#333" x="840" y="148">14-04</text><g transform="translate(805,168)"></g></g><g><g transform="translate(885,118)"></g><rect fill="none" stroke="#DDD" width="70" height="30" rx="8" ry="8" x="885" y="128"/><text text-anchor="middle" fill="#333" x="920" y="148">14-06</text><g transform="translate(885,168)"><g><a target="_top" xlink:href="dtp-sliceTagWeight-step5605201-ofs0-col11-cat0.html"><rect style="display:none" class="hcell-act-col11-cat0" fill="#777" stroke="#000" stroke-width="5" width="70" height="34" x="0" y="5" rx="8" ry="8"/><rect class="hcell-col11-cat0" fill="#777" stroke="#DDD" width="70" height="44" x="0" y="0" rx="8" ry="8"/><text text-anchor="middle" fill="#FFF" x="35" y="20">-6</text></a></g></g></g><g><g transform="translate(965,118)"></g><rect fill="none" stroke="#DDD" width="70" height="30" rx="8" ry="8" x="965" y="128"/><text text-anchor="middle" fill="#333" x="1000" y="148">14-08</text><g transform="translate(965,168)"><g><a target="_top" xlink:href="dtp-sliceTagWeight-step5605201-ofs0-col12-cat0.html"><rect style="display:none" class="hcell-act-col12-cat0" fill="#777" stroke="#000" stroke-width="5" width="70" height="25" x="0" y="5" rx="8" ry="8"/><rect class="hcell-col12-cat0" fill="#777" stroke="#DDD" width="70" height="35" x="0" y="0" rx="8" ry="8"/><text text-anchor="middle" fill="#FFF" x="35" y="20">-5</text></a></g></g></g><g><g transform="translate(1045,118)"><g><a target="_top" xlink:href="dtp-sliceTagWeight-step5605201-ofs0-col13-cat0.html"><rect style="display:none" class="hcell-act-col13-cat0" fill="#777" stroke="#000" stroke-width="5" width="70" height="103" x="0" y="-108" rx="8" ry="8"/><rect class="hcell-col13-cat0" fill="#777" stroke="#DDD" width="70" height="113" x="0" y="-113" rx="8" ry="8"/><text text-anchor="middle" fill="#FFF" x="35" y="-93">14</text></a></g></g><rect fill="none" stroke="#DDD" width="70" height="30" rx="8" ry="8" x="1045" y="128"/><text text-anchor="middle" fill="#333" x="1080" y="148">14-10</text><g transform="translate(1045,168)"></g></g><g><g transform="translate(1125,118)"></g><rect fill="none" stroke="#DDD" width="70" height="30" rx="8" ry="8" x="1125" y="128"/><text text-anchor="middle" fill="#333" x="1160" y="148">14-12</text><g transform="translate(1125,168)"><g><a target="_top" xlink:href="dtp-sliceTagWeight-step5605201-ofs0-col14-cat0.html"><rect style="display:none" class="hcell-act-col14-cat0" fill="#777" stroke="#000" stroke-width="5" width="70" height="276" x="0" y="5" rx="8" ry="8"/><rect class="hcell-col14-cat0" fill="#777" stroke="#DDD" width="70" height="286" x="0" y="0" rx="8" ry="8"/><text text-anchor="middle" fill="#FFF" x="35" y="20">-37</text></a></g></g></g><g><g transform="translate(1205,118)"></g><rect fill="none" stroke="#DDD" width="70" height="30" rx="8" ry="8" x="1205" y="128"/><text text-anchor="middle" fill="#333" x="1240" y="148">15-03</text><g transform="translate(1205,168)"><g><a target="_top" xlink:href="dtp-sliceTagWeight-step5605201-ofs0-col15-cat0.html"><rect style="display:none" class="hcell-act-col15-cat0" fill="#777" stroke="#000" stroke-width="5" width="70" height="105" x="0" y="5" rx="8" ry="8"/><rect class="hcell-col15-cat0" fill="#777" stroke="#DDD" width="70" height="115" x="0" y="0" rx="8" ry="8"/><text text-anchor="middle" fill="#FFF" x="35" y="20">-15</text></a></g></g></g></svg>