<svg xmlns="http://www.w3.org/2000/svg" xmlns:xlink="http://www.w3.org/1999/xlink" width="100%" height="100%" viewBox="0 0 1280 507"><g><g transform="translate(5,5)"></g><rect fill="none" stroke="#DDD" width="70" height="30" rx="8" ry="8" x="5" y="15"/><text text-anchor="middle" fill="#333" x="40" y="35">15-06</text><g transform="translate(5,55)"><g><a target="_top" xlink:href="dtp-slice0-step2628000-ofs35-col35-cat5.html"><rect style="display:none" class="hcell-act-col35-cat5" fill="#777" stroke="#000" stroke-width="5" width="70" height="20" x="0" y="5" rx="8" ry="8"/><rect class="hcell-col35-cat5" fill="#777" stroke="#DDD" width="70" height="30" x="0" y="0" rx="8" ry="8"/><text text-anchor="middle" fill="#FFF" x="35" y="20">-20</text></a><g transform="translate(0,30)"><g><a target="_top" xlink:href="dtp-slice0-step2628000-ofs35-col35-cat3.html"><rect style="display:none" class="hcell-act-col35-cat3" fill="#5BC0DE" stroke="#000" stroke-width="5" width="70" height="20" x="0" y="5" rx="8" ry="8"/><rect class="hcell-col35-cat3" fill="#5BC0DE" stroke="#DDD" width="70" height="30" x="0" y="0" rx="8" ry="8"/><text text-anchor="middle" fill="#FFF" x="35" y="20">-80</text></a><g transform="translate(0,30)"><g><a target="_top" xlink:href="dtp-slice0-step2628000-ofs35-col35-cat4.html"><rect style="display:none" class="hcell-act-col35-cat4" fill="#337AB7" stroke="#000" stroke-width="5" width="70" height="25" x="0" y="5" rx="8" ry="8"/><rect class="hcell-col35-cat4" fill="#337AB7" stroke="#DDD" width="70" height="35" x="0" y="0" rx="8" ry="8"/><text text-anchor="middle" fill="#FFF" x="35" y="20">-310</text></a><g transform="translate(0,35)"><g><a target="_top" xlink:href="dtp-slice0-step2628000-ofs35-col35-cat2.html"><rect style="display:none" class="hcell-act-col35-cat2" fill="#5CB85C" stroke="#000" stroke-width="5" width="70" height="26" x="0" y="5" rx="8" ry="8"/><rect class="hcell-col35-cat2" fill="#5CB85C" stroke="#DDD" width="70" height="36" x="0" y="0" rx="8" ry="8"/><text text-anchor="middle" fill="#FFF" x="35" y="20">-320</text></a><g transform="translate(0,36)"><g><a target="_top" xlink:href="dtp-slice0-step2628000-ofs35-col35-cat1.html"><rect style="display:none" class="hcell-act-col35-cat1" fill="#F0AD4E" stroke="#000" stroke-width="5" width="70" height="70" x="0" y="5" rx="8" ry="8"/><rect class="hcell-col35-cat1" fill="#F0AD4E" stroke="#DDD" width="70" height="80" x="0" y="0" rx="8" ry="8"/><text text-anchor="middle" fill="#FFF" x="35" y="20">-700</text></a><g transform="translate(0,80)"><g><a target="_top" xlink:href="dtp-slice0-step2628000-ofs35-col35-cat0.html"><rect style="display:none" class="hcell-act-col35-cat0" fill="#D9534F" stroke="#000" stroke-width="5" width="70" height="180" x="0" y="5" rx="8" ry="8"/><rect class="hcell-col35-cat0" fill="#D9534F" stroke="#DDD" width="70" height="190" x="0" y="0" rx="8" ry="8"/><text text-anchor="middle" fill="#FFF" x="35" y="20">-1660</text></a></g></g></g></g></g></g></g></g></g></g></g></g></g><g><g transform="translate(85,5)"></g><rect fill="none" stroke="#DDD" width="70" height="30" rx="8" ry="8" x="85" y="15"/><text text-anchor="middle" fill="#333" x="120" y="35">15-07</text><g transform="translate(85,55)"><g><a target="_top" xlink:href="dtp-slice0-step2628000-ofs35-col36-cat5.html"><rect style="display:none" class="hcell-act-col36-cat5" fill="#777" stroke="#000" stroke-width="5" width="70" height="20" x="0" y="5" rx="8" ry="8"/><rect class="hcell-col36-cat5" fill="#777" stroke="#DDD" width="70" height="30" x="0" y="0" rx="8" ry="8"/><text text-anchor="middle" fill="#FFF" x="35" y="20">-20</text></a><g transform="translate(0,30)"><g><a target="_top" xlink:href="dtp-slice0-step2628000-ofs35-col36-cat3.html"><rect style="display:none" class="hcell-act-col36-cat3" fill="#5BC0DE" stroke="#000" stroke-width="5" width="70" height="20" x="0" y="5" rx="8" ry="8"/><rect class="hcell-col36-cat3" fill="#5BC0DE" stroke="#DDD" width="70" height="30" x="0" y="0" rx="8" ry="8"/><text text-anchor="middle" fill="#FFF" x="35" y="20">-80</text></a><g transform="translate(0,30)"><g><a target="_top" xlink:href="dtp-slice0-step2628000-ofs35-col36-cat4.html"><rect style="display:none" class="hcell-act-col36-cat4" fill="#337AB7" stroke="#000" stroke-width="5" width="70" height="25" x="0" y="5" rx="8" ry="8"/><rect class="hcell-col36-cat4" fill="#337AB7" stroke="#DDD" width="70" height="35" x="0" y="0" rx="8" ry="8"/><text text-anchor="middle" fill="#FFF" x="35" y="20">-310</text></a><g transform="translate(0,35)"><g><a target="_top" xlink:href="dtp-slice0-step2628000-ofs35-col36-cat2.html"><rect style="display:none" class="hcell-act-col36-cat2" fill="#5CB85C" stroke="#000" stroke-width="5" width="70" height="26" x="0" y="5" rx="8" ry="8"/><rect class="hcell-col36-cat2" fill="#5CB85C" stroke="#DDD" width="70" height="36" x="0" y="0" rx="8" ry="8"/><text text-anchor="middle" fill="#FFF" x="35" y="20">-320</text></a><g transform="translate(0,36)"><g><a target="_top" xlink:href="dtp-slice0-step2628000-ofs35-col36-cat1.html"><rect style="display:none" class="hcell-act-col36-cat1" fill="#F0AD4E" stroke="#000" stroke-width="5" width="70" height="70" x="0" y="5" rx="8" ry="8"/><rect class="hcell-col36-cat1" fill="#F0AD4E" stroke="#DDD" width="70" height="80" x="0" y="0" rx="8" ry="8"/><text text-anchor="middle" fill="#FFF" x="35" y="20">-700</text></a><g transform="translate(0,80)"><g><a target="_top" xlink:href="dtp-slice0-step2628000-ofs35-col36-cat0.html"><rect style="display:none" class="hcell-act-col36-cat0" fill="#D9534F" stroke="#000" stroke-width="5" width="70" height="226" x="0" y="5" rx="8" ry="8"/><rect class="hcell-col36-cat0" fill="#D9534F" stroke="#DDD" width="70" height="236" x="0" y="0" rx="8" ry="8"/><text text-anchor="middle" fill="#FFF" x="35" y="20">-2060</text></a></g></g></g></g></g></g></g></g></g></g></g></g></g><g><g transform="translate(165,5)"></g><rect fill="none" stroke="#DDD" width="70" height="30" rx="8" ry="8" x="165" y="15"/><text text-anchor="middle" fill="#333" x="200" y="35">15-08</text><g transform="translate(165,55)"></g></g><g><g transform="translate(245,5)"></g><rect fill="none" stroke="#DDD" width="70" height="30" rx="8" ry="8" x="245" y="15"/><text text-anchor="middle" fill="#333" x="280" y="35">15-08</text><g transform="translate(245,55)"></g></g><g><g transform="translate(325,5)"></g><rect fill="none" stroke="#DDD" width="70" height="30" rx="8" ry="8" x="325" y="15"/><text text-anchor="middle" fill="#333" x="360" y="35">15-10</text><g transform="translate(325,55)"></g></g><g><g transform="translate(405,5)"></g><rect fill="none" stroke="#DDD" width="70" height="30" rx="8" ry="8" x="405" y="15"/><text text-anchor="middle" fill="#333" x="440" y="35">15-10</text><g transform="translate(405,55)"></g></g><g><g transform="translate(485,5)"></g><rect fill="none" stroke="#DDD" width="70" height="30" rx="8" ry="8" x="485" y="15"/><text text-anchor="middle" fill="#333" x="520" y="35">15-12</text><g transform="translate(485,55)"></g></g><g><g transform="translate(565,5)"></g><rect fill="none" stroke="#DDD" width="70" height="30" rx="8" ry="8" x="565" y="15"/><text text-anchor="middle" fill="#333" x="600" y="35">15-12</text><g transform="translate(565,55)"></g></g><g><g transform="translate(645,5)"></g><rect fill="none" stroke="#DDD" width="70" height="30" rx="8" ry="8" x="645" y="15"/><text text-anchor="middle" fill="#333" x="680" y="35">16-01</text><g transform="translate(645,55)"></g></g><g><g transform="translate(725,5)"></g><rect fill="none" stroke="#DDD" width="70" height="30" rx="8" ry="8" x="725" y="15"/><text text-anchor="middle" fill="#333" x="760" y="35">16-03</text><g transform="translate(725,55)"></g></g><g><g transform="translate(805,5)"></g><rect fill="none" stroke="#DDD" width="70" height="30" rx="8" ry="8" x="805" y="15"/><text text-anchor="middle" fill="#333" x="840" y="35">16-03</text><g transform="translate(805,55)"></g></g><g><g transform="translate(885,5)"></g><rect fill="none" stroke="#DDD" width="70" height="30" rx="8" ry="8" x="885" y="15"/><text text-anchor="middle" fill="#333" x="920" y="35">16-05</text><g transform="translate(885,55)"></g></g><g><g transform="translate(965,5)"></g><rect fill="none" stroke="#DDD" width="70" height="30" rx="8" ry="8" x="965" y="15"/><text text-anchor="middle" fill="#333" x="1000" y="35">16-05</text><g transform="translate(965,55)"></g></g><g><g transform="translate(1045,5)"></g><rect fill="none" stroke="#DDD" width="70" height="30" rx="8" ry="8" x="1045" y="15"/><text text-anchor="middle" fill="#333" x="1080" y="35">16-07</text><g transform="translate(1045,55)"></g></g><g><g transform="translate(1125,5)"></g><rect fill="none" stroke="#DDD" width="70" height="30" rx="8" ry="8" x="1125" y="15"/><text text-anchor="middle" fill="#333" x="1160" y="35">16-07</text><g transform="translate(1125,55)"></g></g><g><g transform="translate(1205,5)"></g><rect fill="none" stroke="#DDD" width="70" height="30" rx="8" ry="8" x="1205" y="15"/><text text-anchor="middle" fill="#333" x="1240" y="35">16-08</text><g transform="translate(1205,55)"></g></g></svg>