<svg xmlns="http://www.w3.org/2000/svg" xmlns:xlink="http://www.w3.org/1999/xlink" width="100%" height="100%" viewBox="0 0 1280 459"><g><g transform="translate(5,143)"></g><rect fill="none" stroke="#DDD" width="70" height="30" rx="8" ry="8" x="5" y="153"/><text text-anchor="middle" fill="#333" x="40" y="173">14-01</text><g transform="translate(5,193)"></g></g><g><g transform="translate(85,143)"></g><rect fill="none" stroke="#DDD" width="70" height="30" rx="8" ry="8" x="85" y="153"/><text text-anchor="middle" fill="#333" x="120" y="173">14-03</text><g transform="translate(85,193)"></g></g><g><g transform="translate(165,143)"></g><rect fill="none" stroke="#DDD" width="70" height="30" rx="8" ry="8" x="165" y="153"/><text text-anchor="middle" fill="#333" x="200" y="173">14-04</text><g transform="translate(165,193)"></g></g><g><g transform="translate(245,143)"></g><rect fill="none" stroke="#DDD" width="70" height="30" rx="8" ry="8" x="245" y="153"/><text text-anchor="middle" fill="#333" x="280" y="173">14-05</text><g transform="translate(245,193)"></g></g><g><g transform="translate(325,143)"></g><rect fill="none" stroke="#DDD" width="70" height="30" rx="8" ry="8" x="325" y="153"/><text text-anchor="middle" fill="#333" x="360" y="173">14-06</text><g transform="translate(325,193)"></g></g><g><g transform="translate(405,143)"></g><rect fill="none" stroke="#DDD" width="70" height="30" rx="8" ry="8" x="405" y="153"/><text text-anchor="middle" fill="#333" x="440" y="173">14-07</text><g transform="translate(405,193)"></g></g><g><g transform="translate(485,143)"><g><a target="_top" xlink:href="dtp-sliceTagExpense-step2628000-ofs19-col25-cat0.html"><rect style="display:none" class="hcell-act-col25-cat0" fill="#777" stroke="#000" stroke-width="5" width="70" height="20" x="0" y="-25" rx="8" ry="8"/><rect class="hcell-col25-cat0" fill="#777" stroke="#DDD" width="70" height="30" x="0" y="-30" rx="8" ry="8"/><text text-anchor="middle" fill="#FFF" x="35" y="-10">402</text></a></g></g><rect fill="none" stroke="#DDD" width="70" height="30" rx="8" ry="8" x="485" y="153"/><text text-anchor="middle" fill="#333" x="520" y="173">14-08</text><g transform="translate(485,193)"></g></g><g><g transform="translate(565,143)"><g><a target="_top" xlink:href="dtp-sliceTagExpense-step2628000-ofs19-col26-cat0.html"><rect style="display:none" class="hcell-act-col26-cat0" fill="#777" stroke="#000" stroke-width="5" width="70" height="128" x="0" y="-133" rx="8" ry="8"/><rect class="hcell-col26-cat0" fill="#777" stroke="#DDD" width="70" height="138" x="0" y="-138" rx="8" ry="8"/><text text-anchor="middle" fill="#FFF" x="35" y="-118">1838</text></a></g></g><rect fill="none" stroke="#DDD" width="70" height="30" rx="8" ry="8" x="565" y="153"/><text text-anchor="middle" fill="#333" x="600" y="173">14-08</text><g transform="translate(565,193)"></g></g><g><g transform="translate(645,143)"></g><rect fill="none" stroke="#DDD" width="70" height="30" rx="8" ry="8" x="645" y="153"/><text text-anchor="middle" fill="#333" x="680" y="173">14-10</text><g transform="translate(645,193)"><g><a target="_top" xlink:href="dtp-sliceTagExpense-step2628000-ofs19-col27-cat0.html"><rect style="display:none" class="hcell-act-col27-cat0" fill="#777" stroke="#000" stroke-width="5" width="70" height="20" x="0" y="5" rx="8" ry="8"/><rect class="hcell-col27-cat0" fill="#777" stroke="#DDD" width="70" height="30" x="0" y="0" rx="8" ry="8"/><text text-anchor="middle" fill="#FFF" x="35" y="20">-248</text></a></g></g></g><g><g transform="translate(725,143)"><g><a target="_top" xlink:href="dtp-sliceTagExpense-step2628000-ofs19-col28-cat0.html"><rect style="display:none" class="hcell-act-col28-cat0" fill="#777" stroke="#000" stroke-width="5" width="70" height="37" x="0" y="-42" rx="8" ry="8"/><rect class="hcell-col28-cat0" fill="#777" stroke="#DDD" width="70" height="47" x="0" y="-47" rx="8" ry="8"/><text text-anchor="middle" fill="#FFF" x="35" y="-27">638</text></a></g></g><rect fill="none" stroke="#DDD" width="70" height="30" rx="8" ry="8" x="725" y="153"/><text text-anchor="middle" fill="#333" x="760" y="173">14-10</text><g transform="translate(725,193)"></g></g><g><g transform="translate(805,143)"></g><rect fill="none" stroke="#DDD" width="70" height="30" rx="8" ry="8" x="805" y="153"/><text text-anchor="middle" fill="#333" x="840" y="173">14-12</text><g transform="translate(805,193)"><g><a target="_top" xlink:href="dtp-sliceTagExpense-step2628000-ofs19-col29-cat0.html"><rect style="display:none" class="hcell-act-col29-cat0" fill="#777" stroke="#000" stroke-width="5" width="70" height="20" x="0" y="5" rx="8" ry="8"/><rect class="hcell-col29-cat0" fill="#777" stroke="#DDD" width="70" height="30" x="0" y="0" rx="8" ry="8"/><text text-anchor="middle" fill="#FFF" x="35" y="20">-51</text></a></g></g></g><g><g transform="translate(885,143)"></g><rect fill="none" stroke="#DDD" width="70" height="30" rx="8" ry="8" x="885" y="153"/><text text-anchor="middle" fill="#333" x="920" y="173">14-12</text><g transform="translate(885,193)"><g><a target="_top" xlink:href="dtp-sliceTagExpense-step2628000-ofs19-col30-cat0.html"><rect style="display:none" class="hcell-act-col30-cat0" fill="#777" stroke="#000" stroke-width="5" width="70" height="20" x="0" y="5" rx="8" ry="8"/><rect class="hcell-col30-cat0" fill="#777" stroke="#DDD" width="70" height="30" x="0" y="0" rx="8" ry="8"/><text text-anchor="middle" fill="#FFF" x="35" y="20">-44</text></a></g></g></g><g><g transform="translate(965,143)"><g><a target="_top" xlink:href="dtp-sliceTagExpense-step2628000-ofs19-col31-cat0.html"><rect style="display:none" class="hcell-act-col31-cat0" fill="#777" stroke="#000" stroke-width="5" width="70" height="27" x="0" y="-32" rx="8" ry="8"/><rect class="hcell-col31-cat0" fill="#777" stroke="#DDD" width="70" height="37" x="0" y="-37" rx="8" ry="8"/><text text-anchor="middle" fill="#FFF" x="35" y="-17">501</text></a></g></g><rect fill="none" stroke="#DDD" width="70" height="30" rx="8" ry="8" x="965" y="153"/><text text-anchor="middle" fill="#333" x="1000" y="173">15-01</text><g transform="translate(965,193)"></g></g><g><g transform="translate(1045,143)"></g><rect fill="none" stroke="#DDD" width="70" height="30" rx="8" ry="8" x="1045" y="153"/><text text-anchor="middle" fill="#333" x="1080" y="173">15-03</text><g transform="translate(1045,193)"><g><a target="_top" xlink:href="dtp-sliceTagExpense-step2628000-ofs19-col32-cat0.html"><rect style="display:none" class="hcell-act-col32-cat0" fill="#777" stroke="#000" stroke-width="5" width="70" height="34" x="0" y="5" rx="8" ry="8"/><rect class="hcell-col32-cat0" fill="#777" stroke="#DDD" width="70" height="44" x="0" y="0" rx="8" ry="8"/><text text-anchor="middle" fill="#FFF" x="35" y="20">-594</text></a></g></g></g><g><g transform="translate(1125,143)"></g><rect fill="none" stroke="#DDD" width="70" height="30" rx="8" ry="8" x="1125" y="153"/><text text-anchor="middle" fill="#333" x="1160" y="173">15-04</text><g transform="translate(1125,193)"><g><a target="_top" xlink:href="dtp-sliceTagExpense-step2628000-ofs19-col33-cat0.html"><rect style="display:none" class="hcell-act-col33-cat0" fill="#777" stroke="#000" stroke-width="5" width="70" height="20" x="0" y="5" rx="8" ry="8"/><rect class="hcell-col33-cat0" fill="#777" stroke="#DDD" width="70" height="30" x="0" y="0" rx="8" ry="8"/><text text-anchor="middle" fill="#FFF" x="35" y="20">-155</text></a></g></g></g><g><g transform="translate(1205,143)"></g><rect fill="none" stroke="#DDD" width="70" height="30" rx="8" ry="8" x="1205" y="153"/><text text-anchor="middle" fill="#333" x="1240" y="173">15-05</text><g transform="translate(1205,193)"><g><a target="_top" xlink:href="dtp-sliceTagExpense-step2628000-ofs19-col34-cat0.html"><rect style="display:none" class="hcell-act-col34-cat0" fill="#777" stroke="#000" stroke-width="5" width="70" height="251" x="0" y="5" rx="8" ry="8"/><rect class="hcell-col34-cat0" fill="#777" stroke="#DDD" width="70" height="261" x="0" y="0" rx="8" ry="8"/><text text-anchor="middle" fill="#FFF" x="35" y="20">-3490</text></a></g></g></g></svg>