<svg xmlns="http://www.w3.org/2000/svg" xmlns:xlink="http://www.w3.org/1999/xlink" width="100%" height="100%" viewBox="0 0 1280 459"><g><g transform="translate(5,164)"></g><rect fill="none" stroke="#DDD" width="70" height="30" rx="8" ry="8" x="5" y="174"/><text text-anchor="middle" fill="#333" x="40" y="194">14-01</text><g transform="translate(5,214)"></g></g><g><g transform="translate(85,164)"></g><rect fill="none" stroke="#DDD" width="70" height="30" rx="8" ry="8" x="85" y="174"/><text text-anchor="middle" fill="#333" x="120" y="194">14-03</text><g transform="translate(85,214)"></g></g><g><g transform="translate(165,164)"></g><rect fill="none" stroke="#DDD" width="70" height="30" rx="8" ry="8" x="165" y="174"/><text text-anchor="middle" fill="#333" x="200" y="194">14-04</text><g transform="translate(165,214)"></g></g><g><g transform="translate(245,164)"></g><rect fill="none" stroke="#DDD" width="70" height="30" rx="8" ry="8" x="245" y="174"/><text text-anchor="middle" fill="#333" x="280" y="194">14-05</text><g transform="translate(245,214)"></g></g><g><g transform="translate(325,164)"></g><rect fill="none" stroke="#DDD" width="70" height="30" rx="8" ry="8" x="325" y="174"/><text text-anchor="middle" fill="#333" x="360" y="194">14-06</text><g transform="translate(325,214)"></g></g><g><g transform="translate(405,164)"></g><rect fill="none" stroke="#DDD" width="70" height="30" rx="8" ry="8" x="405" y="174"/><text text-anchor="middle" fill="#333" x="440" y="194">14-07</text><g transform="translate(405,214)"></g></g><g><g transform="translate(485,164)"></g><rect fill="none" stroke="#DDD" width="70" height="30" rx="8" ry="8" x="485" y="174"/><text text-anchor="middle" fill="#333" x="520" y="194">14-08</text><g transform="translate(485,214)"><g><a target="_top" xlink:href="dtp-sliceTagYoga-step2628000-ofs19-col25-cat0.html"><rect style="display:none" class="hcell-act-col25-cat0" fill="#777" stroke="#000" stroke-width="5" width="70" height="210" x="0" y="5" rx="8" ry="8"/><rect class="hcell-col25-cat0" fill="#777" stroke="#DDD" width="70" height="220" x="0" y="0" rx="8" ry="8"/><text text-anchor="middle" fill="#FFF" x="35" y="20">-46</text></a></g></g></g><g><g transform="translate(565,164)"></g><rect fill="none" stroke="#DDD" width="70" height="30" rx="8" ry="8" x="565" y="174"/><text text-anchor="middle" fill="#333" x="600" y="194">14-08</text><g transform="translate(565,214)"><g><a target="_top" xlink:href="dtp-sliceTagYoga-step2628000-ofs19-col26-cat0.html"><rect style="display:none" class="hcell-act-col26-cat0" fill="#777" stroke="#000" stroke-width="5" width="70" height="103" x="0" y="5" rx="8" ry="8"/><rect class="hcell-col26-cat0" fill="#777" stroke="#DDD" width="70" height="113" x="0" y="0" rx="8" ry="8"/><text text-anchor="middle" fill="#FFF" x="35" y="20">-24</text></a></g></g></g><g><g transform="translate(645,164)"></g><rect fill="none" stroke="#DDD" width="70" height="30" rx="8" ry="8" x="645" y="174"/><text text-anchor="middle" fill="#333" x="680" y="194">14-10</text><g transform="translate(645,214)"><g><a target="_top" xlink:href="dtp-sliceTagYoga-step2628000-ofs19-col27-cat0.html"><rect style="display:none" class="hcell-act-col27-cat0" fill="#777" stroke="#000" stroke-width="5" width="70" height="101" x="0" y="5" rx="8" ry="8"/><rect class="hcell-col27-cat0" fill="#777" stroke="#DDD" width="70" height="111" x="0" y="0" rx="8" ry="8"/><text text-anchor="middle" fill="#FFF" x="35" y="20">-24</text></a></g></g></g><g><g transform="translate(725,164)"></g><rect fill="none" stroke="#DDD" width="70" height="30" rx="8" ry="8" x="725" y="174"/><text text-anchor="middle" fill="#333" x="760" y="194">14-10</text><g transform="translate(725,214)"><g><a target="_top" xlink:href="dtp-sliceTagYoga-step2628000-ofs19-col28-cat0.html"><rect style="display:none" class="hcell-act-col28-cat0" fill="#777" stroke="#000" stroke-width="5" width="70" height="178" x="0" y="5" rx="8" ry="8"/><rect class="hcell-col28-cat0" fill="#777" stroke="#DDD" width="70" height="188" x="0" y="0" rx="8" ry="8"/><text text-anchor="middle" fill="#FFF" x="35" y="20">-40</text></a></g></g></g><g><g transform="translate(805,164)"><g><a target="_top" xlink:href="dtp-sliceTagYoga-step2628000-ofs19-col29-cat0.html"><rect style="display:none" class="hcell-act-col29-cat0" fill="#777" stroke="#000" stroke-width="5" width="70" height="73" x="0" y="-78" rx="8" ry="8"/><rect class="hcell-col29-cat0" fill="#777" stroke="#DDD" width="70" height="83" x="0" y="-83" rx="8" ry="8"/><text text-anchor="middle" fill="#FFF" x="35" y="-63">17</text></a></g></g><rect fill="none" stroke="#DDD" width="70" height="30" rx="8" ry="8" x="805" y="174"/><text text-anchor="middle" fill="#333" x="840" y="194">14-12</text><g transform="translate(805,214)"></g></g><g><g transform="translate(885,164)"></g><rect fill="none" stroke="#DDD" width="70" height="30" rx="8" ry="8" x="885" y="174"/><text text-anchor="middle" fill="#333" x="920" y="194">14-12</text><g transform="translate(885,214)"><g><a target="_top" xlink:href="dtp-sliceTagYoga-step2628000-ofs19-col30-cat0.html"><rect style="display:none" class="hcell-act-col30-cat0" fill="#777" stroke="#000" stroke-width="5" width="70" height="24" x="0" y="5" rx="8" ry="8"/><rect class="hcell-col30-cat0" fill="#777" stroke="#DDD" width="70" height="34" x="0" y="0" rx="8" ry="8"/><text text-anchor="middle" fill="#FFF" x="35" y="20">-8</text></a></g></g></g><g><g transform="translate(965,164)"><g><a target="_top" xlink:href="dtp-sliceTagYoga-step2628000-ofs19-col31-cat0.html"><rect style="display:none" class="hcell-act-col31-cat0" fill="#777" stroke="#000" stroke-width="5" width="70" height="72" x="0" y="-77" rx="8" ry="8"/><rect class="hcell-col31-cat0" fill="#777" stroke="#DDD" width="70" height="82" x="0" y="-82" rx="8" ry="8"/><text text-anchor="middle" fill="#FFF" x="35" y="-62">17</text></a></g></g><rect fill="none" stroke="#DDD" width="70" height="30" rx="8" ry="8" x="965" y="174"/><text text-anchor="middle" fill="#333" x="1000" y="194">15-01</text><g transform="translate(965,214)"></g></g><g><g transform="translate(1045,164)"></g><rect fill="none" stroke="#DDD" width="70" height="30" rx="8" ry="8" x="1045" y="174"/><text text-anchor="middle" fill="#333" x="1080" y="194">15-03</text><g transform="translate(1045,214)"><g><a target="_top" xlink:href="dtp-sliceTagYoga-step2628000-ofs19-col32-cat0.html"><rect style="display:none" class="hcell-act-col32-cat0" fill="#777" stroke="#000" stroke-width="5" width="70" height="120" x="0" y="5" rx="8" ry="8"/><rect class="hcell-col32-cat0" fill="#777" stroke="#DDD" width="70" height="130" x="0" y="0" rx="8" ry="8"/><text text-anchor="middle" fill="#FFF" x="35" y="20">-28</text></a></g></g></g><g><g transform="translate(1125,164)"><g><a target="_top" xlink:href="dtp-sliceTagYoga-step2628000-ofs19-col33-cat0.html"><rect style="display:none" class="hcell-act-col33-cat0" fill="#777" stroke="#000" stroke-width="5" width="70" height="149" x="0" y="-154" rx="8" ry="8"/><rect class="hcell-col33-cat0" fill="#777" stroke="#DDD" width="70" height="159" x="0" y="-159" rx="8" ry="8"/><text text-anchor="middle" fill="#FFF" x="35" y="-139">33</text></a></g></g><rect fill="none" stroke="#DDD" width="70" height="30" rx="8" ry="8" x="1125" y="174"/><text text-anchor="middle" fill="#333" x="1160" y="194">15-04</text><g transform="translate(1125,214)"></g></g><g><g transform="translate(1205,164)"></g><rect fill="none" stroke="#DDD" width="70" height="30" rx="8" ry="8" x="1205" y="174"/><text text-anchor="middle" fill="#333" x="1240" y="194">15-05</text><g transform="translate(1205,214)"><g><a target="_top" xlink:href="dtp-sliceTagYoga-step2628000-ofs19-col34-cat0.html"><rect style="display:none" class="hcell-act-col34-cat0" fill="#777" stroke="#000" stroke-width="5" width="70" height="230" x="0" y="5" rx="8" ry="8"/><rect class="hcell-col34-cat0" fill="#777" stroke="#DDD" width="70" height="240" x="0" y="0" rx="8" ry="8"/><text text-anchor="middle" fill="#FFF" x="35" y="20">-50</text></a></g></g></g></svg>