<svg xmlns="http://www.w3.org/2000/svg" xmlns:xlink="http://www.w3.org/1999/xlink" width="100%" height="100%" viewBox="0 0 1280 459"><g><g transform="translate(5,70)"></g><rect fill="none" stroke="#DDD" width="70" height="30" rx="8" ry="8" x="5" y="80"/><text text-anchor="middle" fill="#333" x="40" y="100">14-01</text><g transform="translate(5,120)"></g></g><g><g transform="translate(85,70)"></g><rect fill="none" stroke="#DDD" width="70" height="30" rx="8" ry="8" x="85" y="80"/><text text-anchor="middle" fill="#333" x="120" y="100">14-03</text><g transform="translate(85,120)"></g></g><g><g transform="translate(165,70)"></g><rect fill="none" stroke="#DDD" width="70" height="30" rx="8" ry="8" x="165" y="80"/><text text-anchor="middle" fill="#333" x="200" y="100">14-04</text><g transform="translate(165,120)"></g></g><g><g transform="translate(245,70)"></g><rect fill="none" stroke="#DDD" width="70" height="30" rx="8" ry="8" x="245" y="80"/><text text-anchor="middle" fill="#333" x="280" y="100">14-05</text><g transform="translate(245,120)"></g></g><g><g transform="translate(325,70)"></g><rect fill="none" stroke="#DDD" width="70" height="30" rx="8" ry="8" x="325" y="80"/><text text-anchor="middle" fill="#333" x="360" y="100">14-06</text><g transform="translate(325,120)"></g></g><g><g transform="translate(405,70)"></g><rect fill="none" stroke="#DDD" width="70" height="30" rx="8" ry="8" x="405" y="80"/><text text-anchor="middle" fill="#333" x="440" y="100">14-07</text><g transform="translate(405,120)"></g></g><g><g transform="translate(485,70)"></g><rect fill="none" stroke="#DDD" width="70" height="30" rx="8" ry="8" x="485" y="80"/><text text-anchor="middle" fill="#333" x="520" y="100">14-08</text><g transform="translate(485,120)"></g></g><g><g transform="translate(565,70)"></g><rect fill="none" stroke="#DDD" width="70" height="30" rx="8" ry="8" x="565" y="80"/><text text-anchor="middle" fill="#333" x="600" y="100">14-08</text><g transform="translate(565,120)"></g></g><g><g transform="translate(645,70)"></g><rect fill="none" stroke="#DDD" width="70" height="30" rx="8" ry="8" x="645" y="80"/><text text-anchor="middle" fill="#333" x="680" y="100">14-10</text><g transform="translate(645,120)"><g><a target="_top" xlink:href="dtp-sliceTagInstyle-step2628000-ofs19-col27-cat0.html"><rect style="display:none" class="hcell-act-col27-cat0" fill="#777" stroke="#000" stroke-width="5" width="70" height="324" x="0" y="5" rx="8" ry="8"/><rect class="hcell-col27-cat0" fill="#777" stroke="#DDD" width="70" height="334" x="0" y="0" rx="8" ry="8"/><text text-anchor="middle" fill="#FFF" x="35" y="20">-167</text></a></g></g></g><g><g transform="translate(725,70)"></g><rect fill="none" stroke="#DDD" width="70" height="30" rx="8" ry="8" x="725" y="80"/><text text-anchor="middle" fill="#333" x="760" y="100">14-10</text><g transform="translate(725,120)"><g><a target="_top" xlink:href="dtp-sliceTagInstyle-step2628000-ofs19-col28-cat0.html"><rect style="display:none" class="hcell-act-col28-cat0" fill="#777" stroke="#000" stroke-width="5" width="70" height="163" x="0" y="5" rx="8" ry="8"/><rect class="hcell-col28-cat0" fill="#777" stroke="#DDD" width="70" height="173" x="0" y="0" rx="8" ry="8"/><text text-anchor="middle" fill="#FFF" x="35" y="20">-87</text></a></g></g></g><g><g transform="translate(805,70)"></g><rect fill="none" stroke="#DDD" width="70" height="30" rx="8" ry="8" x="805" y="80"/><text text-anchor="middle" fill="#333" x="840" y="100">14-12</text><g transform="translate(805,120)"><g><a target="_top" xlink:href="dtp-sliceTagInstyle-step2628000-ofs19-col29-cat0.html"><rect style="display:none" class="hcell-act-col29-cat0" fill="#777" stroke="#000" stroke-width="5" width="70" height="160" x="0" y="5" rx="8" ry="8"/><rect class="hcell-col29-cat0" fill="#777" stroke="#DDD" width="70" height="170" x="0" y="0" rx="8" ry="8"/><text text-anchor="middle" fill="#FFF" x="35" y="20">-86</text></a></g></g></g><g><g transform="translate(885,70)"></g><rect fill="none" stroke="#DDD" width="70" height="30" rx="8" ry="8" x="885" y="80"/><text text-anchor="middle" fill="#333" x="920" y="100">14-12</text><g transform="translate(885,120)"><g><a target="_top" xlink:href="dtp-sliceTagInstyle-step2628000-ofs19-col30-cat0.html"><rect style="display:none" class="hcell-act-col30-cat0" fill="#777" stroke="#000" stroke-width="5" width="70" height="20" x="0" y="5" rx="8" ry="8"/><rect class="hcell-col30-cat0" fill="#777" stroke="#DDD" width="70" height="30" x="0" y="0" rx="8" ry="8"/><text text-anchor="middle" fill="#FFF" x="35" y="20">-5</text></a></g></g></g><g><g transform="translate(965,70)"></g><rect fill="none" stroke="#DDD" width="70" height="30" rx="8" ry="8" x="965" y="80"/><text text-anchor="middle" fill="#333" x="1000" y="100">15-01</text><g transform="translate(965,120)"><g><a target="_top" xlink:href="dtp-sliceTagInstyle-step2628000-ofs19-col31-cat0.html"><rect style="display:none" class="hcell-act-col31-cat0" fill="#777" stroke="#000" stroke-width="5" width="70" height="131" x="0" y="5" rx="8" ry="8"/><rect class="hcell-col31-cat0" fill="#777" stroke="#DDD" width="70" height="141" x="0" y="0" rx="8" ry="8"/><text text-anchor="middle" fill="#FFF" x="35" y="20">-71</text></a></g></g></g><g><g transform="translate(1045,70)"></g><rect fill="none" stroke="#DDD" width="70" height="30" rx="8" ry="8" x="1045" y="80"/><text text-anchor="middle" fill="#333" x="1080" y="100">15-03</text><g transform="translate(1045,120)"><g><a target="_top" xlink:href="dtp-sliceTagInstyle-step2628000-ofs19-col32-cat0.html"><rect style="display:none" class="hcell-act-col32-cat0" fill="#777" stroke="#000" stroke-width="5" width="70" height="47" x="0" y="5" rx="8" ry="8"/><rect class="hcell-col32-cat0" fill="#777" stroke="#DDD" width="70" height="57" x="0" y="0" rx="8" ry="8"/><text text-anchor="middle" fill="#FFF" x="35" y="20">-29</text></a></g></g></g><g><g transform="translate(1125,70)"><g><a target="_top" xlink:href="dtp-sliceTagInstyle-step2628000-ofs19-col33-cat0.html"><rect style="display:none" class="hcell-act-col33-cat0" fill="#777" stroke="#000" stroke-width="5" width="70" height="55" x="0" y="-60" rx="8" ry="8"/><rect class="hcell-col33-cat0" fill="#777" stroke="#DDD" width="70" height="65" x="0" y="-65" rx="8" ry="8"/><text text-anchor="middle" fill="#FFF" x="35" y="-45">32</text></a></g></g><rect fill="none" stroke="#DDD" width="70" height="30" rx="8" ry="8" x="1125" y="80"/><text text-anchor="middle" fill="#333" x="1160" y="100">15-04</text><g transform="translate(1125,120)"></g></g><g><g transform="translate(1205,70)"></g><rect fill="none" stroke="#DDD" width="70" height="30" rx="8" ry="8" x="1205" y="80"/><text text-anchor="middle" fill="#333" x="1240" y="100">15-05</text><g transform="translate(1205,120)"></g></g></svg>