<svg xmlns="http://www.w3.org/2000/svg" xmlns:xlink="http://www.w3.org/1999/xlink" width="100%" height="100%" viewBox="0 0 1280 459"><g><g transform="translate(5,222)"></g><rect fill="none" stroke="#DDD" width="70" height="30" rx="8" ry="8" x="5" y="232"/><text text-anchor="middle" fill="#333" x="40" y="252">12-10</text><g transform="translate(5,272)"></g></g><g><g transform="translate(85,222)"><g><a target="_top" xlink:href="dtp-sliceTagSavings2453-step2628000-ofs3-col4-cat0.html"><rect style="display:none" class="hcell-act-col4-cat0" fill="#777" stroke="#000" stroke-width="5" width="70" height="207" x="0" y="-212" rx="8" ry="8"/><rect class="hcell-col4-cat0" fill="#777" stroke="#DDD" width="70" height="217" x="0" y="-217" rx="8" ry="8"/><text text-anchor="middle" fill="#FFF" x="35" y="-197">2000</text></a></g></g><rect fill="none" stroke="#DDD" width="70" height="30" rx="8" ry="8" x="85" y="232"/><text text-anchor="middle" fill="#333" x="120" y="252">12-10</text><g transform="translate(85,272)"><g><a target="_top" xlink:href="dtp-sliceTagSavings2453-step2628000-ofs3-col4-cat0.html"><rect style="display:none" class="hcell-act-col4-cat0" fill="#777" stroke="#000" stroke-width="5" width="70" height="109" x="0" y="5" rx="8" ry="8"/><rect class="hcell-col4-cat0" fill="#777" stroke="#DDD" width="70" height="119" x="0" y="0" rx="8" ry="8"/><text text-anchor="middle" fill="#FFF" x="35" y="20">-1099</text></a></g></g></g><g><g transform="translate(165,222)"></g><rect fill="none" stroke="#DDD" width="70" height="30" rx="8" ry="8" x="165" y="232"/><text text-anchor="middle" fill="#333" x="200" y="252">12-12</text><g transform="translate(165,272)"></g></g><g><g transform="translate(245,222)"></g><rect fill="none" stroke="#DDD" width="70" height="30" rx="8" ry="8" x="245" y="232"/><text text-anchor="middle" fill="#333" x="280" y="252">12-12</text><g transform="translate(245,272)"></g></g><g><g transform="translate(325,222)"><g><a target="_top" xlink:href="dtp-sliceTagSavings2453-step2628000-ofs3-col7-cat0.html"><rect style="display:none" class="hcell-act-col7-cat0" fill="#777" stroke="#000" stroke-width="5" width="70" height="20" x="0" y="-25" rx="8" ry="8"/><rect class="hcell-col7-cat0" fill="#777" stroke="#DDD" width="70" height="30" x="0" y="-30" rx="8" ry="8"/><text text-anchor="middle" fill="#FFF" x="35" y="-10">222</text></a></g></g><rect fill="none" stroke="#DDD" width="70" height="30" rx="8" ry="8" x="325" y="232"/><text text-anchor="middle" fill="#333" x="360" y="252">13-01</text><g transform="translate(325,272)"></g></g><g><g transform="translate(405,222)"></g><rect fill="none" stroke="#DDD" width="70" height="30" rx="8" ry="8" x="405" y="232"/><text text-anchor="middle" fill="#333" x="440" y="252">13-03</text><g transform="translate(405,272)"></g></g><g><g transform="translate(485,222)"></g><rect fill="none" stroke="#DDD" width="70" height="30" rx="8" ry="8" x="485" y="232"/><text text-anchor="middle" fill="#333" x="520" y="252">13-04</text><g transform="translate(485,272)"></g></g><g><g transform="translate(565,222)"></g><rect fill="none" stroke="#DDD" width="70" height="30" rx="8" ry="8" x="565" y="232"/><text text-anchor="middle" fill="#333" x="600" y="252">13-05</text><g transform="translate(565,272)"></g></g><g><g transform="translate(645,222)"><g><a target="_top" xlink:href="dtp-sliceTagSavings2453-step2628000-ofs3-col11-cat0.html"><rect style="display:none" class="hcell-act-col11-cat0" fill="#777" stroke="#000" stroke-width="5" width="70" height="76" x="0" y="-81" rx="8" ry="8"/><rect class="hcell-col11-cat0" fill="#777" stroke="#DDD" width="70" height="86" x="0" y="-86" rx="8" ry="8"/><text text-anchor="middle" fill="#FFF" x="35" y="-66">800</text></a></g></g><rect fill="none" stroke="#DDD" width="70" height="30" rx="8" ry="8" x="645" y="232"/><text text-anchor="middle" fill="#333" x="680" y="252">13-06</text><g transform="translate(645,272)"></g></g><g><g transform="translate(725,222)"><g><a target="_top" xlink:href="dtp-sliceTagSavings2453-step2628000-ofs3-col12-cat0.html"><rect style="display:none" class="hcell-act-col12-cat0" fill="#777" stroke="#000" stroke-width="5" width="70" height="43" x="0" y="-48" rx="8" ry="8"/><rect class="hcell-col12-cat0" fill="#777" stroke="#DDD" width="70" height="53" x="0" y="-53" rx="8" ry="8"/><text text-anchor="middle" fill="#FFF" x="35" y="-33">490</text></a></g></g><rect fill="none" stroke="#DDD" width="70" height="30" rx="8" ry="8" x="725" y="232"/><text text-anchor="middle" fill="#333" x="760" y="252">13-07</text><g transform="translate(725,272)"></g></g><g><g transform="translate(805,222)"></g><rect fill="none" stroke="#DDD" width="70" height="30" rx="8" ry="8" x="805" y="232"/><text text-anchor="middle" fill="#333" x="840" y="252">13-08</text><g transform="translate(805,272)"></g></g><g><g transform="translate(885,222)"></g><rect fill="none" stroke="#DDD" width="70" height="30" rx="8" ry="8" x="885" y="232"/><text text-anchor="middle" fill="#333" x="920" y="252">13-08</text><g transform="translate(885,272)"></g></g><g><g transform="translate(965,222)"></g><rect fill="none" stroke="#DDD" width="70" height="30" rx="8" ry="8" x="965" y="232"/><text text-anchor="middle" fill="#333" x="1000" y="252">13-10</text><g transform="translate(965,272)"></g></g><g><g transform="translate(1045,222)"></g><rect fill="none" stroke="#DDD" width="70" height="30" rx="8" ry="8" x="1045" y="232"/><text text-anchor="middle" fill="#333" x="1080" y="252">13-10</text><g transform="translate(1045,272)"><g><a target="_top" xlink:href="dtp-sliceTagSavings2453-step2628000-ofs3-col16-cat0.html"><rect style="display:none" class="hcell-act-col16-cat0" fill="#777" stroke="#000" stroke-width="5" width="70" height="30" x="0" y="5" rx="8" ry="8"/><rect class="hcell-col16-cat0" fill="#777" stroke="#DDD" width="70" height="40" x="0" y="0" rx="8" ry="8"/><text text-anchor="middle" fill="#FFF" x="35" y="20">-371</text></a></g></g></g><g><g transform="translate(1125,222)"></g><rect fill="none" stroke="#DDD" width="70" height="30" rx="8" ry="8" x="1125" y="232"/><text text-anchor="middle" fill="#333" x="1160" y="252">13-12</text><g transform="translate(1125,272)"></g></g><g><g transform="translate(1205,222)"><g><a target="_top" xlink:href="dtp-sliceTagSavings2453-step2628000-ofs3-col18-cat0.html"><rect style="display:none" class="hcell-act-col18-cat0" fill="#777" stroke="#000" stroke-width="5" width="70" height="59" x="0" y="-64" rx="8" ry="8"/><rect class="hcell-col18-cat0" fill="#777" stroke="#DDD" width="70" height="69" x="0" y="-69" rx="8" ry="8"/><text text-anchor="middle" fill="#FFF" x="35" y="-49">640</text></a></g></g><rect fill="none" stroke="#DDD" width="70" height="30" rx="8" ry="8" x="1205" y="232"/><text text-anchor="middle" fill="#333" x="1240" y="252">13-12</text><g transform="translate(1205,272)"><g><a target="_top" xlink:href="dtp-sliceTagSavings2453-step2628000-ofs3-col18-cat0.html"><rect style="display:none" class="hcell-act-col18-cat0" fill="#777" stroke="#000" stroke-width="5" width="70" height="172" x="0" y="5" rx="8" ry="8"/><rect class="hcell-col18-cat0" fill="#777" stroke="#DDD" width="70" height="182" x="0" y="0" rx="8" ry="8"/><text text-anchor="middle" fill="#FFF" x="35" y="20">-1680</text></a></g></g></g></svg>