<svg xmlns="http://www.w3.org/2000/svg" xmlns:xlink="http://www.w3.org/1999/xlink" width="100%" height="100%" viewBox="0 0 1280 476"><g><g transform="translate(5,391)"><g><a target="_top" xlink:href="dtp-sliceTagExpense-step2628000-ofs0-col0-cat0.html"><rect style="display:none" class="hcell-act-col0-cat0" fill="#777" stroke="#000" stroke-width="5" width="70" height="189" x="0" y="-194" rx="8" ry="8"/><rect class="hcell-col0-cat0" fill="#777" stroke="#DDD" width="70" height="199" x="0" y="-199" rx="8" ry="8"/><text text-anchor="middle" fill="#FFF" x="35" y="-179">2342</text></a></g></g><rect fill="none" stroke="#DDD" width="70" height="30" rx="8" ry="8" x="5" y="401"/><text text-anchor="middle" fill="#333" x="40" y="421">12-07</text><g transform="translate(5,441)"></g></g><g><g transform="translate(85,391)"><g><a target="_top" xlink:href="dtp-sliceTagExpense-step2628000-ofs0-col1-cat0.html"><rect style="display:none" class="hcell-act-col1-cat0" fill="#777" stroke="#000" stroke-width="5" width="70" height="185" x="0" y="-190" rx="8" ry="8"/><rect class="hcell-col1-cat0" fill="#777" stroke="#DDD" width="70" height="195" x="0" y="-195" rx="8" ry="8"/><text text-anchor="middle" fill="#FFF" x="35" y="-175">2287</text></a></g></g><rect fill="none" stroke="#DDD" width="70" height="30" rx="8" ry="8" x="85" y="401"/><text text-anchor="middle" fill="#333" x="120" y="421">12-08</text><g transform="translate(85,441)"><g><a target="_top" xlink:href="dtp-sliceTagExpense-step2628000-ofs0-col1-cat0.html"><rect style="display:none" class="hcell-act-col1-cat0" fill="#777" stroke="#000" stroke-width="5" width="70" height="20" x="0" y="5" rx="8" ry="8"/><rect class="hcell-col1-cat0" fill="#777" stroke="#DDD" width="70" height="30" x="0" y="0" rx="8" ry="8"/><text text-anchor="middle" fill="#FFF" x="35" y="20">-157</text></a></g></g></g><g><g transform="translate(165,391)"><g><a target="_top" xlink:href="dtp-sliceTagExpense-step2628000-ofs0-col2-cat0.html"><rect style="display:none" class="hcell-act-col2-cat0" fill="#777" stroke="#000" stroke-width="5" width="70" height="195" x="0" y="-200" rx="8" ry="8"/><rect class="hcell-col2-cat0" fill="#777" stroke="#DDD" width="70" height="205" x="0" y="-205" rx="8" ry="8"/><text text-anchor="middle" fill="#FFF" x="35" y="-185">2408</text></a></g></g><rect fill="none" stroke="#DDD" width="70" height="30" rx="8" ry="8" x="165" y="401"/><text text-anchor="middle" fill="#333" x="200" y="421">12-08</text><g transform="translate(165,441)"><g><a target="_top" xlink:href="dtp-sliceTagExpense-step2628000-ofs0-col2-cat0.html"><rect style="display:none" class="hcell-act-col2-cat0" fill="#777" stroke="#000" stroke-width="5" width="70" height="20" x="0" y="5" rx="8" ry="8"/><rect class="hcell-col2-cat0" fill="#777" stroke="#DDD" width="70" height="30" x="0" y="0" rx="8" ry="8"/><text text-anchor="middle" fill="#FFF" x="35" y="20">-75</text></a></g></g></g><g><g transform="translate(245,391)"><g><a target="_top" xlink:href="dtp-sliceTagExpense-step2628000-ofs0-col3-cat0.html"><rect style="display:none" class="hcell-act-col3-cat0" fill="#777" stroke="#000" stroke-width="5" width="70" height="191" x="0" y="-196" rx="8" ry="8"/><rect class="hcell-col3-cat0" fill="#777" stroke="#DDD" width="70" height="201" x="0" y="-201" rx="8" ry="8"/><text text-anchor="middle" fill="#FFF" x="35" y="-181">2362</text></a></g></g><rect fill="none" stroke="#DDD" width="70" height="30" rx="8" ry="8" x="245" y="401"/><text text-anchor="middle" fill="#333" x="280" y="421">12-10</text><g transform="translate(245,441)"><g><a target="_top" xlink:href="dtp-sliceTagExpense-step2628000-ofs0-col3-cat0.html"><rect style="display:none" class="hcell-act-col3-cat0" fill="#777" stroke="#000" stroke-width="5" width="70" height="20" x="0" y="5" rx="8" ry="8"/><rect class="hcell-col3-cat0" fill="#777" stroke="#DDD" width="70" height="30" x="0" y="0" rx="8" ry="8"/><text text-anchor="middle" fill="#FFF" x="35" y="20">-27</text></a></g></g></g><g><g transform="translate(325,391)"><g><a target="_top" xlink:href="dtp-sliceTagExpense-step2628000-ofs0-col4-cat0.html"><rect style="display:none" class="hcell-act-col4-cat0" fill="#777" stroke="#000" stroke-width="5" width="70" height="129" x="0" y="-134" rx="8" ry="8"/><rect class="hcell-col4-cat0" fill="#777" stroke="#DDD" width="70" height="139" x="0" y="-139" rx="8" ry="8"/><text text-anchor="middle" fill="#FFF" x="35" y="-119">1629</text></a></g></g><rect fill="none" stroke="#DDD" width="70" height="30" rx="8" ry="8" x="325" y="401"/><text text-anchor="middle" fill="#333" x="360" y="421">12-10</text><g transform="translate(325,441)"><g><a target="_top" xlink:href="dtp-sliceTagExpense-step2628000-ofs0-col4-cat0.html"><rect style="display:none" class="hcell-act-col4-cat0" fill="#777" stroke="#000" stroke-width="5" width="70" height="20" x="0" y="5" rx="8" ry="8"/><rect class="hcell-col4-cat0" fill="#777" stroke="#DDD" width="70" height="30" x="0" y="0" rx="8" ry="8"/><text text-anchor="middle" fill="#FFF" x="35" y="20">-21</text></a></g></g></g><g><g transform="translate(405,391)"><g><a target="_top" xlink:href="dtp-sliceTagExpense-step2628000-ofs0-col5-cat0.html"><rect style="display:none" class="hcell-act-col5-cat0" fill="#777" stroke="#000" stroke-width="5" width="70" height="193" x="0" y="-198" rx="8" ry="8"/><rect class="hcell-col5-cat0" fill="#777" stroke="#DDD" width="70" height="203" x="0" y="-203" rx="8" ry="8"/><text text-anchor="middle" fill="#FFF" x="35" y="-183">2385</text></a></g></g><rect fill="none" stroke="#DDD" width="70" height="30" rx="8" ry="8" x="405" y="401"/><text text-anchor="middle" fill="#333" x="440" y="421">12-12</text><g transform="translate(405,441)"><g><a target="_top" xlink:href="dtp-sliceTagExpense-step2628000-ofs0-col5-cat0.html"><rect style="display:none" class="hcell-act-col5-cat0" fill="#777" stroke="#000" stroke-width="5" width="70" height="20" x="0" y="5" rx="8" ry="8"/><rect class="hcell-col5-cat0" fill="#777" stroke="#DDD" width="70" height="30" x="0" y="0" rx="8" ry="8"/><text text-anchor="middle" fill="#FFF" x="35" y="20">-12</text></a></g></g></g><g><g transform="translate(485,391)"><g><a target="_top" xlink:href="dtp-sliceTagExpense-step2628000-ofs0-col6-cat0.html"><rect style="display:none" class="hcell-act-col6-cat0" fill="#777" stroke="#000" stroke-width="5" width="70" height="206" x="0" y="-211" rx="8" ry="8"/><rect class="hcell-col6-cat0" fill="#777" stroke="#DDD" width="70" height="216" x="0" y="-216" rx="8" ry="8"/><text text-anchor="middle" fill="#FFF" x="35" y="-196">2534</text></a></g></g><rect fill="none" stroke="#DDD" width="70" height="30" rx="8" ry="8" x="485" y="401"/><text text-anchor="middle" fill="#333" x="520" y="421">12-12</text><g transform="translate(485,441)"><g><a target="_top" xlink:href="dtp-sliceTagExpense-step2628000-ofs0-col6-cat0.html"><rect style="display:none" class="hcell-act-col6-cat0" fill="#777" stroke="#000" stroke-width="5" width="70" height="20" x="0" y="5" rx="8" ry="8"/><rect class="hcell-col6-cat0" fill="#777" stroke="#DDD" width="70" height="30" x="0" y="0" rx="8" ry="8"/><text text-anchor="middle" fill="#FFF" x="35" y="20">-12</text></a></g></g></g><g><g transform="translate(565,391)"><g><a target="_top" xlink:href="dtp-sliceTagExpense-step2628000-ofs0-col7-cat0.html"><rect style="display:none" class="hcell-act-col7-cat0" fill="#777" stroke="#000" stroke-width="5" width="70" height="170" x="0" y="-175" rx="8" ry="8"/><rect class="hcell-col7-cat0" fill="#777" stroke="#DDD" width="70" height="180" x="0" y="-180" rx="8" ry="8"/><text text-anchor="middle" fill="#FFF" x="35" y="-160">2119</text></a></g></g><rect fill="none" stroke="#DDD" width="70" height="30" rx="8" ry="8" x="565" y="401"/><text text-anchor="middle" fill="#333" x="600" y="421">13-01</text><g transform="translate(565,441)"><g><a target="_top" xlink:href="dtp-sliceTagExpense-step2628000-ofs0-col7-cat0.html"><rect style="display:none" class="hcell-act-col7-cat0" fill="#777" stroke="#000" stroke-width="5" width="70" height="20" x="0" y="5" rx="8" ry="8"/><rect class="hcell-col7-cat0" fill="#777" stroke="#DDD" width="70" height="30" x="0" y="0" rx="8" ry="8"/><text text-anchor="middle" fill="#FFF" x="35" y="20">-27</text></a></g></g></g><g><g transform="translate(645,391)"><g><a target="_top" xlink:href="dtp-sliceTagExpense-step2628000-ofs0-col8-cat0.html"><rect style="display:none" class="hcell-act-col8-cat0" fill="#777" stroke="#000" stroke-width="5" width="70" height="200" x="0" y="-205" rx="8" ry="8"/><rect class="hcell-col8-cat0" fill="#777" stroke="#DDD" width="70" height="210" x="0" y="-210" rx="8" ry="8"/><text text-anchor="middle" fill="#FFF" x="35" y="-190">2462</text></a></g></g><rect fill="none" stroke="#DDD" width="70" height="30" rx="8" ry="8" x="645" y="401"/><text text-anchor="middle" fill="#333" x="680" y="421">13-03</text><g transform="translate(645,441)"><g><a target="_top" xlink:href="dtp-sliceTagExpense-step2628000-ofs0-col8-cat0.html"><rect style="display:none" class="hcell-act-col8-cat0" fill="#777" stroke="#000" stroke-width="5" width="70" height="20" x="0" y="5" rx="8" ry="8"/><rect class="hcell-col8-cat0" fill="#777" stroke="#DDD" width="70" height="30" x="0" y="0" rx="8" ry="8"/><text text-anchor="middle" fill="#FFF" x="35" y="20">-16</text></a></g></g></g><g><g transform="translate(725,391)"><g><a target="_top" xlink:href="dtp-sliceTagExpense-step2628000-ofs0-col9-cat0.html"><rect style="display:none" class="hcell-act-col9-cat0" fill="#777" stroke="#000" stroke-width="5" width="70" height="185" x="0" y="-190" rx="8" ry="8"/><rect class="hcell-col9-cat0" fill="#777" stroke="#DDD" width="70" height="195" x="0" y="-195" rx="8" ry="8"/><text text-anchor="middle" fill="#FFF" x="35" y="-175">2286</text></a></g></g><rect fill="none" stroke="#DDD" width="70" height="30" rx="8" ry="8" x="725" y="401"/><text text-anchor="middle" fill="#333" x="760" y="421">13-04</text><g transform="translate(725,441)"></g></g><g><g transform="translate(805,391)"><g><a target="_top" xlink:href="dtp-sliceTagExpense-step2628000-ofs0-col10-cat0.html"><rect style="display:none" class="hcell-act-col10-cat0" fill="#777" stroke="#000" stroke-width="5" width="70" height="188" x="0" y="-193" rx="8" ry="8"/><rect class="hcell-col10-cat0" fill="#777" stroke="#DDD" width="70" height="198" x="0" y="-198" rx="8" ry="8"/><text text-anchor="middle" fill="#FFF" x="35" y="-178">2327</text></a></g></g><rect fill="none" stroke="#DDD" width="70" height="30" rx="8" ry="8" x="805" y="401"/><text text-anchor="middle" fill="#333" x="840" y="421">13-05</text><g transform="translate(805,441)"><g><a target="_top" xlink:href="dtp-sliceTagExpense-step2628000-ofs0-col10-cat0.html"><rect style="display:none" class="hcell-act-col10-cat0" fill="#777" stroke="#000" stroke-width="5" width="70" height="20" x="0" y="5" rx="8" ry="8"/><rect class="hcell-col10-cat0" fill="#777" stroke="#DDD" width="70" height="30" x="0" y="0" rx="8" ry="8"/><text text-anchor="middle" fill="#FFF" x="35" y="20">-32</text></a></g></g></g><g><g transform="translate(885,391)"><g><a target="_top" xlink:href="dtp-sliceTagExpense-step2628000-ofs0-col11-cat0.html"><rect style="display:none" class="hcell-act-col11-cat0" fill="#777" stroke="#000" stroke-width="5" width="70" height="192" x="0" y="-197" rx="8" ry="8"/><rect class="hcell-col11-cat0" fill="#777" stroke="#DDD" width="70" height="202" x="0" y="-202" rx="8" ry="8"/><text text-anchor="middle" fill="#FFF" x="35" y="-182">2378</text></a></g></g><rect fill="none" stroke="#DDD" width="70" height="30" rx="8" ry="8" x="885" y="401"/><text text-anchor="middle" fill="#333" x="920" y="421">13-06</text><g transform="translate(885,441)"><g><a target="_top" xlink:href="dtp-sliceTagExpense-step2628000-ofs0-col11-cat0.html"><rect style="display:none" class="hcell-act-col11-cat0" fill="#777" stroke="#000" stroke-width="5" width="70" height="20" x="0" y="5" rx="8" ry="8"/><rect class="hcell-col11-cat0" fill="#777" stroke="#DDD" width="70" height="30" x="0" y="0" rx="8" ry="8"/><text text-anchor="middle" fill="#FFF" x="35" y="20">-133</text></a></g></g></g><g><g transform="translate(965,391)"><g><a target="_top" xlink:href="dtp-sliceTagExpense-step2628000-ofs0-col12-cat0.html"><rect style="display:none" class="hcell-act-col12-cat0" fill="#777" stroke="#000" stroke-width="5" width="70" height="376" x="0" y="-381" rx="8" ry="8"/><rect class="hcell-col12-cat0" fill="#777" stroke="#DDD" width="70" height="386" x="0" y="-386" rx="8" ry="8"/><text text-anchor="middle" fill="#FFF" x="35" y="-366">4532</text></a></g></g><rect fill="none" stroke="#DDD" width="70" height="30" rx="8" ry="8" x="965" y="401"/><text text-anchor="middle" fill="#333" x="1000" y="421">13-07</text><g transform="translate(965,441)"></g></g><g><g transform="translate(1045,391)"><g><a target="_top" xlink:href="dtp-sliceTagExpense-step2628000-ofs0-col13-cat0.html"><rect style="display:none" class="hcell-act-col13-cat0" fill="#777" stroke="#000" stroke-width="5" width="70" height="193" x="0" y="-198" rx="8" ry="8"/><rect class="hcell-col13-cat0" fill="#777" stroke="#DDD" width="70" height="203" x="0" y="-203" rx="8" ry="8"/><text text-anchor="middle" fill="#FFF" x="35" y="-183">2381</text></a></g></g><rect fill="none" stroke="#DDD" width="70" height="30" rx="8" ry="8" x="1045" y="401"/><text text-anchor="middle" fill="#333" x="1080" y="421">13-08</text><g transform="translate(1045,441)"><g><a target="_top" xlink:href="dtp-sliceTagExpense-step2628000-ofs0-col13-cat0.html"><rect style="display:none" class="hcell-act-col13-cat0" fill="#777" stroke="#000" stroke-width="5" width="70" height="20" x="0" y="5" rx="8" ry="8"/><rect class="hcell-col13-cat0" fill="#777" stroke="#DDD" width="70" height="30" x="0" y="0" rx="8" ry="8"/><text text-anchor="middle" fill="#FFF" x="35" y="20">-25</text></a></g></g></g><g><g transform="translate(1125,391)"><g><a target="_top" xlink:href="dtp-sliceTagExpense-step2628000-ofs0-col14-cat0.html"><rect style="display:none" class="hcell-act-col14-cat0" fill="#777" stroke="#000" stroke-width="5" width="70" height="156" x="0" y="-161" rx="8" ry="8"/><rect class="hcell-col14-cat0" fill="#777" stroke="#DDD" width="70" height="166" x="0" y="-166" rx="8" ry="8"/><text text-anchor="middle" fill="#FFF" x="35" y="-146">1950</text></a></g></g><rect fill="none" stroke="#DDD" width="70" height="30" rx="8" ry="8" x="1125" y="401"/><text text-anchor="middle" fill="#333" x="1160" y="421">13-08</text><g transform="translate(1125,441)"></g></g><g><g transform="translate(1205,391)"><g><a target="_top" xlink:href="dtp-sliceTagExpense-step2628000-ofs0-col15-cat0.html"><rect style="display:none" class="hcell-act-col15-cat0" fill="#777" stroke="#000" stroke-width="5" width="70" height="184" x="0" y="-189" rx="8" ry="8"/><rect class="hcell-col15-cat0" fill="#777" stroke="#DDD" width="70" height="194" x="0" y="-194" rx="8" ry="8"/><text text-anchor="middle" fill="#FFF" x="35" y="-174">2284</text></a></g></g><rect fill="none" stroke="#DDD" width="70" height="30" rx="8" ry="8" x="1205" y="401"/><text text-anchor="middle" fill="#333" x="1240" y="421">13-10</text><g transform="translate(1205,441)"></g></g></svg>