<svg xmlns="http://www.w3.org/2000/svg" xmlns:xlink="http://www.w3.org/1999/xlink" width="100%" height="100%" viewBox="0 0 1280 460"><g><g transform="translate(5,405)"><g><a target="_top" xlink:href="dtp-sliceTagHobby-step2628000-ofs19-col19-cat0.html"><rect style="display:none" class="hcell-act-col19-cat0" fill="#777" stroke="#000" stroke-width="5" width="70" height="20" x="0" y="-25" rx="8" ry="8"/><rect class="hcell-col19-cat0" fill="#777" stroke="#DDD" width="70" height="30" x="0" y="-30" rx="8" ry="8"/><text text-anchor="middle" fill="#FFF" x="35" y="-10">14</text></a></g></g><rect fill="none" stroke="#DDD" width="70" height="30" rx="8" ry="8" x="5" y="415"/><text text-anchor="middle" fill="#333" x="40" y="435">14-01</text><g transform="translate(5,455)"></g></g><g><g transform="translate(85,405)"><g><a target="_top" xlink:href="dtp-sliceTagHobby-step2628000-ofs19-col20-cat0.html"><rect style="display:none" class="hcell-act-col20-cat0" fill="#777" stroke="#000" stroke-width="5" width="70" height="85" x="0" y="-90" rx="8" ry="8"/><rect class="hcell-col20-cat0" fill="#777" stroke="#DDD" width="70" height="95" x="0" y="-95" rx="8" ry="8"/><text text-anchor="middle" fill="#FFF" x="35" y="-75">76</text></a></g></g><rect fill="none" stroke="#DDD" width="70" height="30" rx="8" ry="8" x="85" y="415"/><text text-anchor="middle" fill="#333" x="120" y="435">14-03</text><g transform="translate(85,455)"></g></g><g><g transform="translate(165,405)"><g><a target="_top" xlink:href="dtp-sliceTagHobby-step2628000-ofs19-col21-cat0.html"><rect style="display:none" class="hcell-act-col21-cat0" fill="#777" stroke="#000" stroke-width="5" width="70" height="183" x="0" y="-188" rx="8" ry="8"/><rect class="hcell-col21-cat0" fill="#777" stroke="#DDD" width="70" height="193" x="0" y="-193" rx="8" ry="8"/><text text-anchor="middle" fill="#FFF" x="35" y="-173">154</text></a></g></g><rect fill="none" stroke="#DDD" width="70" height="30" rx="8" ry="8" x="165" y="415"/><text text-anchor="middle" fill="#333" x="200" y="435">14-04</text><g transform="translate(165,455)"></g></g><g><g transform="translate(245,405)"><g><a target="_top" xlink:href="dtp-sliceTagHobby-step2628000-ofs19-col22-cat0.html"><rect style="display:none" class="hcell-act-col22-cat0" fill="#777" stroke="#000" stroke-width="5" width="70" height="172" x="0" y="-177" rx="8" ry="8"/><rect class="hcell-col22-cat0" fill="#777" stroke="#DDD" width="70" height="182" x="0" y="-182" rx="8" ry="8"/><text text-anchor="middle" fill="#FFF" x="35" y="-162">145</text></a></g></g><rect fill="none" stroke="#DDD" width="70" height="30" rx="8" ry="8" x="245" y="415"/><text text-anchor="middle" fill="#333" x="280" y="435">14-05</text><g transform="translate(245,455)"></g></g><g><g transform="translate(325,405)"><g><a target="_top" xlink:href="dtp-sliceTagHobby-step2628000-ofs19-col23-cat0.html"><rect style="display:none" class="hcell-act-col23-cat0" fill="#777" stroke="#000" stroke-width="5" width="70" height="254" x="0" y="-259" rx="8" ry="8"/><rect class="hcell-col23-cat0" fill="#777" stroke="#DDD" width="70" height="264" x="0" y="-264" rx="8" ry="8"/><text text-anchor="middle" fill="#FFF" x="35" y="-244">211</text></a></g></g><rect fill="none" stroke="#DDD" width="70" height="30" rx="8" ry="8" x="325" y="415"/><text text-anchor="middle" fill="#333" x="360" y="435">14-06</text><g transform="translate(325,455)"></g></g><g><g transform="translate(405,405)"><g><a target="_top" xlink:href="dtp-sliceTagHobby-step2628000-ofs19-col24-cat0.html"><rect style="display:none" class="hcell-act-col24-cat0" fill="#777" stroke="#000" stroke-width="5" width="70" height="169" x="0" y="-174" rx="8" ry="8"/><rect class="hcell-col24-cat0" fill="#777" stroke="#DDD" width="70" height="179" x="0" y="-179" rx="8" ry="8"/><text text-anchor="middle" fill="#FFF" x="35" y="-159">143</text></a></g></g><rect fill="none" stroke="#DDD" width="70" height="30" rx="8" ry="8" x="405" y="415"/><text text-anchor="middle" fill="#333" x="440" y="435">14-07</text><g transform="translate(405,455)"></g></g><g><g transform="translate(485,405)"><g><a target="_top" xlink:href="dtp-sliceTagHobby-step2628000-ofs19-col25-cat0.html"><rect style="display:none" class="hcell-act-col25-cat0" fill="#777" stroke="#000" stroke-width="5" width="70" height="102" x="0" y="-107" rx="8" ry="8"/><rect class="hcell-col25-cat0" fill="#777" stroke="#DDD" width="70" height="112" x="0" y="-112" rx="8" ry="8"/><text text-anchor="middle" fill="#FFF" x="35" y="-92">89</text></a></g></g><rect fill="none" stroke="#DDD" width="70" height="30" rx="8" ry="8" x="485" y="415"/><text text-anchor="middle" fill="#333" x="520" y="435">14-08</text><g transform="translate(485,455)"></g></g><g><g transform="translate(565,405)"><g><a target="_top" xlink:href="dtp-sliceTagHobby-step2628000-ofs19-col26-cat0.html"><rect style="display:none" class="hcell-act-col26-cat0" fill="#777" stroke="#000" stroke-width="5" width="70" height="390" x="0" y="-395" rx="8" ry="8"/><rect class="hcell-col26-cat0" fill="#777" stroke="#DDD" width="70" height="400" x="0" y="-400" rx="8" ry="8"/><text text-anchor="middle" fill="#FFF" x="35" y="-380">319</text></a></g></g><rect fill="none" stroke="#DDD" width="70" height="30" rx="8" ry="8" x="565" y="415"/><text text-anchor="middle" fill="#333" x="600" y="435">14-08</text><g transform="translate(565,455)"></g></g><g><g transform="translate(645,405)"><g><a target="_top" xlink:href="dtp-sliceTagHobby-step2628000-ofs19-col27-cat0.html"><rect style="display:none" class="hcell-act-col27-cat0" fill="#777" stroke="#000" stroke-width="5" width="70" height="256" x="0" y="-261" rx="8" ry="8"/><rect class="hcell-col27-cat0" fill="#777" stroke="#DDD" width="70" height="266" x="0" y="-266" rx="8" ry="8"/><text text-anchor="middle" fill="#FFF" x="35" y="-246">212</text></a></g></g><rect fill="none" stroke="#DDD" width="70" height="30" rx="8" ry="8" x="645" y="415"/><text text-anchor="middle" fill="#333" x="680" y="435">14-10</text><g transform="translate(645,455)"></g></g><g><g transform="translate(725,405)"><g><a target="_top" xlink:href="dtp-sliceTagHobby-step2628000-ofs19-col28-cat0.html"><rect style="display:none" class="hcell-act-col28-cat0" fill="#777" stroke="#000" stroke-width="5" width="70" height="359" x="0" y="-364" rx="8" ry="8"/><rect class="hcell-col28-cat0" fill="#777" stroke="#DDD" width="70" height="369" x="0" y="-369" rx="8" ry="8"/><text text-anchor="middle" fill="#FFF" x="35" y="-349">295</text></a></g></g><rect fill="none" stroke="#DDD" width="70" height="30" rx="8" ry="8" x="725" y="415"/><text text-anchor="middle" fill="#333" x="760" y="435">14-10</text><g transform="translate(725,455)"></g></g><g><g transform="translate(805,405)"><g><a target="_top" xlink:href="dtp-sliceTagHobby-step2628000-ofs19-col29-cat0.html"><rect style="display:none" class="hcell-act-col29-cat0" fill="#777" stroke="#000" stroke-width="5" width="70" height="204" x="0" y="-209" rx="8" ry="8"/><rect class="hcell-col29-cat0" fill="#777" stroke="#DDD" width="70" height="214" x="0" y="-214" rx="8" ry="8"/><text text-anchor="middle" fill="#FFF" x="35" y="-194">171</text></a></g></g><rect fill="none" stroke="#DDD" width="70" height="30" rx="8" ry="8" x="805" y="415"/><text text-anchor="middle" fill="#333" x="840" y="435">14-12</text><g transform="translate(805,455)"></g></g><g><g transform="translate(885,405)"><g><a target="_top" xlink:href="dtp-sliceTagHobby-step2628000-ofs19-col30-cat0.html"><rect style="display:none" class="hcell-act-col30-cat0" fill="#777" stroke="#000" stroke-width="5" width="70" height="50" x="0" y="-55" rx="8" ry="8"/><rect class="hcell-col30-cat0" fill="#777" stroke="#DDD" width="70" height="60" x="0" y="-60" rx="8" ry="8"/><text text-anchor="middle" fill="#FFF" x="35" y="-40">48</text></a></g></g><rect fill="none" stroke="#DDD" width="70" height="30" rx="8" ry="8" x="885" y="415"/><text text-anchor="middle" fill="#333" x="920" y="435">14-12</text><g transform="translate(885,455)"></g></g><g><g transform="translate(965,405)"><g><a target="_top" xlink:href="dtp-sliceTagHobby-step2628000-ofs19-col31-cat0.html"><rect style="display:none" class="hcell-act-col31-cat0" fill="#777" stroke="#000" stroke-width="5" width="70" height="311" x="0" y="-316" rx="8" ry="8"/><rect class="hcell-col31-cat0" fill="#777" stroke="#DDD" width="70" height="321" x="0" y="-321" rx="8" ry="8"/><text text-anchor="middle" fill="#FFF" x="35" y="-301">256</text></a></g></g><rect fill="none" stroke="#DDD" width="70" height="30" rx="8" ry="8" x="965" y="415"/><text text-anchor="middle" fill="#333" x="1000" y="435">15-01</text><g transform="translate(965,455)"></g></g><g><g transform="translate(1045,405)"><g><a target="_top" xlink:href="dtp-sliceTagHobby-step2628000-ofs19-col32-cat0.html"><rect style="display:none" class="hcell-act-col32-cat0" fill="#777" stroke="#000" stroke-width="5" width="70" height="198" x="0" y="-203" rx="8" ry="8"/><rect class="hcell-col32-cat0" fill="#777" stroke="#DDD" width="70" height="208" x="0" y="-208" rx="8" ry="8"/><text text-anchor="middle" fill="#FFF" x="35" y="-188">166</text></a></g></g><rect fill="none" stroke="#DDD" width="70" height="30" rx="8" ry="8" x="1045" y="415"/><text text-anchor="middle" fill="#333" x="1080" y="435">15-03</text><g transform="translate(1045,455)"></g></g><g><g transform="translate(1125,405)"><g><a target="_top" xlink:href="dtp-sliceTagHobby-step2628000-ofs19-col33-cat0.html"><rect style="display:none" class="hcell-act-col33-cat0" fill="#777" stroke="#000" stroke-width="5" width="70" height="189" x="0" y="-194" rx="8" ry="8"/><rect class="hcell-col33-cat0" fill="#777" stroke="#DDD" width="70" height="199" x="0" y="-199" rx="8" ry="8"/><text text-anchor="middle" fill="#FFF" x="35" y="-179">159</text></a></g></g><rect fill="none" stroke="#DDD" width="70" height="30" rx="8" ry="8" x="1125" y="415"/><text text-anchor="middle" fill="#333" x="1160" y="435">15-04</text><g transform="translate(1125,455)"></g></g><g><g transform="translate(1205,405)"></g><rect fill="none" stroke="#DDD" width="70" height="30" rx="8" ry="8" x="1205" y="415"/><text text-anchor="middle" fill="#333" x="1240" y="435">15-05</text><g transform="translate(1205,455)"></g></g></svg>