<svg xmlns="http://www.w3.org/2000/svg" xmlns:xlink="http://www.w3.org/1999/xlink" width="100%" height="100%" viewBox="0 0 1280 459"><g><g transform="translate(5,136)"></g><rect fill="none" stroke="#DDD" width="70" height="30" rx="8" ry="8" x="5" y="146"/><text text-anchor="middle" fill="#333" x="40" y="166">12-07</text><g transform="translate(5,186)"><g><a target="_top" xlink:href="dtp-sliceTag6PM-step5605201-ofs0-col0-cat0.html"><rect style="display:none" class="hcell-act-col0-cat0" fill="#777" stroke="#000" stroke-width="5" width="70" height="68" x="0" y="5" rx="8" ry="8"/><rect class="hcell-col0-cat0" fill="#777" stroke="#DDD" width="70" height="78" x="0" y="0" rx="8" ry="8"/><text text-anchor="middle" fill="#FFF" x="35" y="20">-45</text></a></g></g></g><g><g transform="translate(85,136)"><g><a target="_top" xlink:href="dtp-sliceTag6PM-step5605201-ofs0-col1-cat0.html"><rect style="display:none" class="hcell-act-col1-cat0" fill="#777" stroke="#000" stroke-width="5" width="70" height="121" x="0" y="-126" rx="8" ry="8"/><rect class="hcell-col1-cat0" fill="#777" stroke="#DDD" width="70" height="131" x="0" y="-131" rx="8" ry="8"/><text text-anchor="middle" fill="#FFF" x="35" y="-111">74</text></a></g></g><rect fill="none" stroke="#DDD" width="70" height="30" rx="8" ry="8" x="85" y="146"/><text text-anchor="middle" fill="#333" x="120" y="166">12-09</text><g transform="translate(85,186)"><g><a target="_top" xlink:href="dtp-sliceTag6PM-step5605201-ofs0-col1-cat0.html"><rect style="display:none" class="hcell-act-col1-cat0" fill="#777" stroke="#000" stroke-width="5" width="70" height="258" x="0" y="5" rx="8" ry="8"/><rect class="hcell-col1-cat0" fill="#777" stroke="#DDD" width="70" height="268" x="0" y="0" rx="8" ry="8"/><text text-anchor="middle" fill="#FFF" x="35" y="20">-153</text></a></g></g></g><g><g transform="translate(165,136)"></g><rect fill="none" stroke="#DDD" width="70" height="30" rx="8" ry="8" x="165" y="146"/><text text-anchor="middle" fill="#333" x="200" y="166">12-11</text><g transform="translate(165,186)"></g></g><g><g transform="translate(245,136)"></g><rect fill="none" stroke="#DDD" width="70" height="30" rx="8" ry="8" x="245" y="146"/><text text-anchor="middle" fill="#333" x="280" y="166">13-01</text><g transform="translate(245,186)"><g><a target="_top" xlink:href="dtp-sliceTag6PM-step5605201-ofs0-col3-cat0.html"><rect style="display:none" class="hcell-act-col3-cat0" fill="#777" stroke="#000" stroke-width="5" width="70" height="105" x="0" y="5" rx="8" ry="8"/><rect class="hcell-col3-cat0" fill="#777" stroke="#DDD" width="70" height="115" x="0" y="0" rx="8" ry="8"/><text text-anchor="middle" fill="#FFF" x="35" y="20">-66</text></a></g></g></g><g><g transform="translate(325,136)"></g><rect fill="none" stroke="#DDD" width="70" height="30" rx="8" ry="8" x="325" y="146"/><text text-anchor="middle" fill="#333" x="360" y="166">13-03</text><g transform="translate(325,186)"><g><a target="_top" xlink:href="dtp-sliceTag6PM-step5605201-ofs0-col4-cat0.html"><rect style="display:none" class="hcell-act-col4-cat0" fill="#777" stroke="#000" stroke-width="5" width="70" height="77" x="0" y="5" rx="8" ry="8"/><rect class="hcell-col4-cat0" fill="#777" stroke="#DDD" width="70" height="87" x="0" y="0" rx="8" ry="8"/><text text-anchor="middle" fill="#FFF" x="35" y="20">-50</text></a></g></g></g><g><g transform="translate(405,136)"></g><rect fill="none" stroke="#DDD" width="70" height="30" rx="8" ry="8" x="405" y="146"/><text text-anchor="middle" fill="#333" x="440" y="166">13-05</text><g transform="translate(405,186)"><g><a target="_top" xlink:href="dtp-sliceTag6PM-step5605201-ofs0-col5-cat0.html"><rect style="display:none" class="hcell-act-col5-cat0" fill="#777" stroke="#000" stroke-width="5" width="70" height="69" x="0" y="5" rx="8" ry="8"/><rect class="hcell-col5-cat0" fill="#777" stroke="#DDD" width="70" height="79" x="0" y="0" rx="8" ry="8"/><text text-anchor="middle" fill="#FFF" x="35" y="20">-46</text></a></g></g></g><g><g transform="translate(485,136)"></g><rect fill="none" stroke="#DDD" width="70" height="30" rx="8" ry="8" x="485" y="146"/><text text-anchor="middle" fill="#333" x="520" y="166">13-07</text><g transform="translate(485,186)"><g><a target="_top" xlink:href="dtp-sliceTag6PM-step5605201-ofs0-col6-cat0.html"><rect style="display:none" class="hcell-act-col6-cat0" fill="#777" stroke="#000" stroke-width="5" width="70" height="108" x="0" y="5" rx="8" ry="8"/><rect class="hcell-col6-cat0" fill="#777" stroke="#DDD" width="70" height="118" x="0" y="0" rx="8" ry="8"/><text text-anchor="middle" fill="#FFF" x="35" y="20">-68</text></a></g></g></g><g><g transform="translate(565,136)"></g><rect fill="none" stroke="#DDD" width="70" height="30" rx="8" ry="8" x="565" y="146"/><text text-anchor="middle" fill="#333" x="600" y="166">13-09</text><g transform="translate(565,186)"><g><a target="_top" xlink:href="dtp-sliceTag6PM-step5605201-ofs0-col7-cat0.html"><rect style="display:none" class="hcell-act-col7-cat0" fill="#777" stroke="#000" stroke-width="5" width="70" height="42" x="0" y="5" rx="8" ry="8"/><rect class="hcell-col7-cat0" fill="#777" stroke="#DDD" width="70" height="52" x="0" y="0" rx="8" ry="8"/><text text-anchor="middle" fill="#FFF" x="35" y="20">-30</text></a></g></g></g><g><g transform="translate(645,136)"><g><a target="_top" xlink:href="dtp-sliceTag6PM-step5605201-ofs0-col8-cat0.html"><rect style="display:none" class="hcell-act-col8-cat0" fill="#777" stroke="#000" stroke-width="5" width="70" height="49" x="0" y="-54" rx="8" ry="8"/><rect class="hcell-col8-cat0" fill="#777" stroke="#DDD" width="70" height="59" x="0" y="-59" rx="8" ry="8"/><text text-anchor="middle" fill="#FFF" x="35" y="-39">33</text></a></g></g><rect fill="none" stroke="#DDD" width="70" height="30" rx="8" ry="8" x="645" y="146"/><text text-anchor="middle" fill="#333" x="680" y="166">13-12</text><g transform="translate(645,186)"></g></g><g><g transform="translate(725,136)"></g><rect fill="none" stroke="#DDD" width="70" height="30" rx="8" ry="8" x="725" y="146"/><text text-anchor="middle" fill="#333" x="760" y="166">14-02</text><g transform="translate(725,186)"></g></g><g><g transform="translate(805,136)"><g><a target="_top" xlink:href="dtp-sliceTag6PM-step5605201-ofs0-col10-cat0.html"><rect style="display:none" class="hcell-act-col10-cat0" fill="#777" stroke="#000" stroke-width="5" width="70" height="73" x="0" y="-78" rx="8" ry="8"/><rect class="hcell-col10-cat0" fill="#777" stroke="#DDD" width="70" height="83" x="0" y="-83" rx="8" ry="8"/><text text-anchor="middle" fill="#FFF" x="35" y="-63">47</text></a></g></g><rect fill="none" stroke="#DDD" width="70" height="30" rx="8" ry="8" x="805" y="146"/><text text-anchor="middle" fill="#333" x="840" y="166">14-04</text><g transform="translate(805,186)"></g></g><g><g transform="translate(885,136)"></g><rect fill="none" stroke="#DDD" width="70" height="30" rx="8" ry="8" x="885" y="146"/><text text-anchor="middle" fill="#333" x="920" y="166">14-06</text><g transform="translate(885,186)"></g></g><g><g transform="translate(965,136)"></g><rect fill="none" stroke="#DDD" width="70" height="30" rx="8" ry="8" x="965" y="146"/><text text-anchor="middle" fill="#333" x="1000" y="166">14-08</text><g transform="translate(965,186)"></g></g><g><g transform="translate(1045,136)"></g><rect fill="none" stroke="#DDD" width="70" height="30" rx="8" ry="8" x="1045" y="146"/><text text-anchor="middle" fill="#333" x="1080" y="166">14-10</text><g transform="translate(1045,186)"></g></g><g><g transform="translate(1125,136)"></g><rect fill="none" stroke="#DDD" width="70" height="30" rx="8" ry="8" x="1125" y="146"/><text text-anchor="middle" fill="#333" x="1160" y="166">14-12</text><g transform="translate(1125,186)"></g></g><g><g transform="translate(1205,136)"></g><rect fill="none" stroke="#DDD" width="70" height="30" rx="8" ry="8" x="1205" y="146"/><text text-anchor="middle" fill="#333" x="1240" y="166">15-03</text><g transform="translate(1205,186)"></g></g></svg>