<svg xmlns="http://www.w3.org/2000/svg" xmlns:xlink="http://www.w3.org/1999/xlink" width="100%" height="100%" viewBox="0 0 1280 459"><g><g transform="translate(5,118)"></g><rect fill="none" stroke="#DDD" width="70" height="30" rx="8" ry="8" x="5" y="128"/><text text-anchor="middle" fill="#333" x="40" y="148">14-01</text><g transform="translate(5,168)"></g></g><g><g transform="translate(85,118)"></g><rect fill="none" stroke="#DDD" width="70" height="30" rx="8" ry="8" x="85" y="128"/><text text-anchor="middle" fill="#333" x="120" y="148">14-03</text><g transform="translate(85,168)"></g></g><g><g transform="translate(165,118)"></g><rect fill="none" stroke="#DDD" width="70" height="30" rx="8" ry="8" x="165" y="128"/><text text-anchor="middle" fill="#333" x="200" y="148">14-04</text><g transform="translate(165,168)"></g></g><g><g transform="translate(245,118)"></g><rect fill="none" stroke="#DDD" width="70" height="30" rx="8" ry="8" x="245" y="128"/><text text-anchor="middle" fill="#333" x="280" y="148">14-05</text><g transform="translate(245,168)"></g></g><g><g transform="translate(325,118)"></g><rect fill="none" stroke="#DDD" width="70" height="30" rx="8" ry="8" x="325" y="128"/><text text-anchor="middle" fill="#333" x="360" y="148">14-06</text><g transform="translate(325,168)"></g></g><g><g transform="translate(405,118)"></g><rect fill="none" stroke="#DDD" width="70" height="30" rx="8" ry="8" x="405" y="128"/><text text-anchor="middle" fill="#333" x="440" y="148">14-07</text><g transform="translate(405,168)"></g></g><g><g transform="translate(485,118)"><g><a target="_top" xlink:href="dtp-sliceTagEnergy-step2628000-ofs19-col25-cat0.html"><rect style="display:none" class="hcell-act-col25-cat0" fill="#777" stroke="#000" stroke-width="5" width="70" height="103" x="0" y="-108" rx="8" ry="8"/><rect class="hcell-col25-cat0" fill="#777" stroke="#DDD" width="70" height="113" x="0" y="-113" rx="8" ry="8"/><text text-anchor="middle" fill="#FFF" x="35" y="-93">19</text></a></g></g><rect fill="none" stroke="#DDD" width="70" height="30" rx="8" ry="8" x="485" y="128"/><text text-anchor="middle" fill="#333" x="520" y="148">14-08</text><g transform="translate(485,168)"></g></g><g><g transform="translate(565,118)"></g><rect fill="none" stroke="#DDD" width="70" height="30" rx="8" ry="8" x="565" y="128"/><text text-anchor="middle" fill="#333" x="600" y="148">14-08</text><g transform="translate(565,168)"><g><a target="_top" xlink:href="dtp-sliceTagEnergy-step2628000-ofs19-col26-cat0.html"><rect style="display:none" class="hcell-act-col26-cat0" fill="#777" stroke="#000" stroke-width="5" width="70" height="69" x="0" y="5" rx="8" ry="8"/><rect class="hcell-col26-cat0" fill="#777" stroke="#DDD" width="70" height="79" x="0" y="0" rx="8" ry="8"/><text text-anchor="middle" fill="#FFF" x="35" y="20">-14</text></a></g></g></g><g><g transform="translate(645,118)"><g><a target="_top" xlink:href="dtp-sliceTagEnergy-step2628000-ofs19-col27-cat0.html"><rect style="display:none" class="hcell-act-col27-cat0" fill="#777" stroke="#000" stroke-width="5" width="70" height="20" x="0" y="-25" rx="8" ry="8"/><rect class="hcell-col27-cat0" fill="#777" stroke="#DDD" width="70" height="30" x="0" y="-30" rx="8" ry="8"/><text text-anchor="middle" fill="#FFF" x="35" y="-10">2</text></a></g></g><rect fill="none" stroke="#DDD" width="70" height="30" rx="8" ry="8" x="645" y="128"/><text text-anchor="middle" fill="#333" x="680" y="148">14-10</text><g transform="translate(645,168)"></g></g><g><g transform="translate(725,118)"><g><a target="_top" xlink:href="dtp-sliceTagEnergy-step2628000-ofs19-col28-cat0.html"><rect style="display:none" class="hcell-act-col28-cat0" fill="#777" stroke="#000" stroke-width="5" width="70" height="101" x="0" y="-106" rx="8" ry="8"/><rect class="hcell-col28-cat0" fill="#777" stroke="#DDD" width="70" height="111" x="0" y="-111" rx="8" ry="8"/><text text-anchor="middle" fill="#FFF" x="35" y="-91">19</text></a></g></g><rect fill="none" stroke="#DDD" width="70" height="30" rx="8" ry="8" x="725" y="128"/><text text-anchor="middle" fill="#333" x="760" y="148">14-10</text><g transform="translate(725,168)"></g></g><g><g transform="translate(805,118)"></g><rect fill="none" stroke="#DDD" width="70" height="30" rx="8" ry="8" x="805" y="128"/><text text-anchor="middle" fill="#333" x="840" y="148">14-12</text><g transform="translate(805,168)"><g><a target="_top" xlink:href="dtp-sliceTagEnergy-step2628000-ofs19-col29-cat0.html"><rect style="display:none" class="hcell-act-col29-cat0" fill="#777" stroke="#000" stroke-width="5" width="70" height="104" x="0" y="5" rx="8" ry="8"/><rect class="hcell-col29-cat0" fill="#777" stroke="#DDD" width="70" height="114" x="0" y="0" rx="8" ry="8"/><text text-anchor="middle" fill="#FFF" x="35" y="20">-20</text></a></g></g></g><g><g transform="translate(885,118)"><g><a target="_top" xlink:href="dtp-sliceTagEnergy-step2628000-ofs19-col30-cat0.html"><rect style="display:none" class="hcell-act-col30-cat0" fill="#777" stroke="#000" stroke-width="5" width="70" height="20" x="0" y="-25" rx="8" ry="8"/><rect class="hcell-col30-cat0" fill="#777" stroke="#DDD" width="70" height="30" x="0" y="-30" rx="8" ry="8"/><text text-anchor="middle" fill="#FFF" x="35" y="-10">0</text></a></g></g><rect fill="none" stroke="#DDD" width="70" height="30" rx="8" ry="8" x="885" y="128"/><text text-anchor="middle" fill="#333" x="920" y="148">14-12</text><g transform="translate(885,168)"></g></g><g><g transform="translate(965,118)"></g><rect fill="none" stroke="#DDD" width="70" height="30" rx="8" ry="8" x="965" y="128"/><text text-anchor="middle" fill="#333" x="1000" y="148">15-01</text><g transform="translate(965,168)"><g><a target="_top" xlink:href="dtp-sliceTagEnergy-step2628000-ofs19-col31-cat0.html"><rect style="display:none" class="hcell-act-col31-cat0" fill="#777" stroke="#000" stroke-width="5" width="70" height="104" x="0" y="5" rx="8" ry="8"/><rect class="hcell-col31-cat0" fill="#777" stroke="#DDD" width="70" height="114" x="0" y="0" rx="8" ry="8"/><text text-anchor="middle" fill="#FFF" x="35" y="20">-20</text></a></g></g></g><g><g transform="translate(1045,118)"><g><a target="_top" xlink:href="dtp-sliceTagEnergy-step2628000-ofs19-col32-cat0.html"><rect style="display:none" class="hcell-act-col32-cat0" fill="#777" stroke="#000" stroke-width="5" width="70" height="20" x="0" y="-25" rx="8" ry="8"/><rect class="hcell-col32-cat0" fill="#777" stroke="#DDD" width="70" height="30" x="0" y="-30" rx="8" ry="8"/><text text-anchor="middle" fill="#FFF" x="35" y="-10">4</text></a></g></g><rect fill="none" stroke="#DDD" width="70" height="30" rx="8" ry="8" x="1045" y="128"/><text text-anchor="middle" fill="#333" x="1080" y="148">15-03</text><g transform="translate(1045,168)"></g></g><g><g transform="translate(1125,118)"><g><a target="_top" xlink:href="dtp-sliceTagEnergy-step2628000-ofs19-col33-cat0.html"><rect style="display:none" class="hcell-act-col33-cat0" fill="#777" stroke="#000" stroke-width="5" width="70" height="92" x="0" y="-97" rx="8" ry="8"/><rect class="hcell-col33-cat0" fill="#777" stroke="#DDD" width="70" height="102" x="0" y="-102" rx="8" ry="8"/><text text-anchor="middle" fill="#FFF" x="35" y="-82">17</text></a></g></g><rect fill="none" stroke="#DDD" width="70" height="30" rx="8" ry="8" x="1125" y="128"/><text text-anchor="middle" fill="#333" x="1160" y="148">15-04</text><g transform="translate(1125,168)"></g></g><g><g transform="translate(1205,118)"></g><rect fill="none" stroke="#DDD" width="70" height="30" rx="8" ry="8" x="1205" y="128"/><text text-anchor="middle" fill="#333" x="1240" y="148">15-05</text><g transform="translate(1205,168)"><g><a target="_top" xlink:href="dtp-sliceTagEnergy-step2628000-ofs19-col34-cat0.html"><rect style="display:none" class="hcell-act-col34-cat0" fill="#777" stroke="#000" stroke-width="5" width="70" height="276" x="0" y="5" rx="8" ry="8"/><rect class="hcell-col34-cat0" fill="#777" stroke="#DDD" width="70" height="286" x="0" y="0" rx="8" ry="8"/><text text-anchor="middle" fill="#FFF" x="35" y="20">-50</text></a></g></g></g></svg>