<svg xmlns="http://www.w3.org/2000/svg" xmlns:xlink="http://www.w3.org/1999/xlink" width="100%" height="100%" viewBox="0 0 1280 459"><g><g transform="translate(5,273)"><g><a target="_top" xlink:href="dtp-sliceTagClothes-step5605201-ofs0-col0-cat0.html"><rect style="display:none" class="hcell-act-col0-cat0" fill="#777" stroke="#000" stroke-width="5" width="70" height="69" x="0" y="-74" rx="8" ry="8"/><rect class="hcell-col0-cat0" fill="#777" stroke="#DDD" width="70" height="79" x="0" y="-79" rx="8" ry="8"/><text text-anchor="middle" fill="#FFF" x="35" y="-59">94</text></a></g></g><rect fill="none" stroke="#DDD" width="70" height="30" rx="8" ry="8" x="5" y="283"/><text text-anchor="middle" fill="#333" x="40" y="303">12-07</text><g transform="translate(5,323)"><g><a target="_top" xlink:href="dtp-sliceTagClothes-step5605201-ofs0-col0-cat0.html"><rect style="display:none" class="hcell-act-col0-cat0" fill="#777" stroke="#000" stroke-width="5" width="70" height="121" x="0" y="5" rx="8" ry="8"/><rect class="hcell-col0-cat0" fill="#777" stroke="#DDD" width="70" height="131" x="0" y="0" rx="8" ry="8"/><text text-anchor="middle" fill="#FFF" x="35" y="20">-157</text></a></g></g></g><g><g transform="translate(85,273)"><g><a target="_top" xlink:href="dtp-sliceTagClothes-step5605201-ofs0-col1-cat0.html"><rect style="display:none" class="hcell-act-col1-cat0" fill="#777" stroke="#000" stroke-width="5" width="70" height="201" x="0" y="-206" rx="8" ry="8"/><rect class="hcell-col1-cat0" fill="#777" stroke="#DDD" width="70" height="211" x="0" y="-211" rx="8" ry="8"/><text text-anchor="middle" fill="#FFF" x="35" y="-191">251</text></a></g></g><rect fill="none" stroke="#DDD" width="70" height="30" rx="8" ry="8" x="85" y="283"/><text text-anchor="middle" fill="#333" x="120" y="303">12-09</text><g transform="translate(85,323)"><g><a target="_top" xlink:href="dtp-sliceTagClothes-step5605201-ofs0-col1-cat0.html"><rect style="display:none" class="hcell-act-col1-cat0" fill="#777" stroke="#000" stroke-width="5" width="70" height="52" x="0" y="5" rx="8" ry="8"/><rect class="hcell-col1-cat0" fill="#777" stroke="#DDD" width="70" height="62" x="0" y="0" rx="8" ry="8"/><text text-anchor="middle" fill="#FFF" x="35" y="20">-75</text></a></g></g></g><g><g transform="translate(165,273)"><g><a target="_top" xlink:href="dtp-sliceTagClothes-step5605201-ofs0-col2-cat0.html"><rect style="display:none" class="hcell-act-col2-cat0" fill="#777" stroke="#000" stroke-width="5" width="70" height="122" x="0" y="-127" rx="8" ry="8"/><rect class="hcell-col2-cat0" fill="#777" stroke="#DDD" width="70" height="132" x="0" y="-132" rx="8" ry="8"/><text text-anchor="middle" fill="#FFF" x="35" y="-112">156</text></a></g></g><rect fill="none" stroke="#DDD" width="70" height="30" rx="8" ry="8" x="165" y="283"/><text text-anchor="middle" fill="#333" x="200" y="303">12-11</text><g transform="translate(165,323)"></g></g><g><g transform="translate(245,273)"><g><a target="_top" xlink:href="dtp-sliceTagClothes-step5605201-ofs0-col3-cat0.html"><rect style="display:none" class="hcell-act-col3-cat0" fill="#777" stroke="#000" stroke-width="5" width="70" height="137" x="0" y="-142" rx="8" ry="8"/><rect class="hcell-col3-cat0" fill="#777" stroke="#DDD" width="70" height="147" x="0" y="-147" rx="8" ry="8"/><text text-anchor="middle" fill="#FFF" x="35" y="-127">174</text></a></g></g><rect fill="none" stroke="#DDD" width="70" height="30" rx="8" ry="8" x="245" y="283"/><text text-anchor="middle" fill="#333" x="280" y="303">13-01</text><g transform="translate(245,323)"></g></g><g><g transform="translate(325,273)"><g><a target="_top" xlink:href="dtp-sliceTagClothes-step5605201-ofs0-col4-cat0.html"><rect style="display:none" class="hcell-act-col4-cat0" fill="#777" stroke="#000" stroke-width="5" width="70" height="203" x="0" y="-208" rx="8" ry="8"/><rect class="hcell-col4-cat0" fill="#777" stroke="#DDD" width="70" height="213" x="0" y="-213" rx="8" ry="8"/><text text-anchor="middle" fill="#FFF" x="35" y="-193">253</text></a></g></g><rect fill="none" stroke="#DDD" width="70" height="30" rx="8" ry="8" x="325" y="283"/><text text-anchor="middle" fill="#333" x="360" y="303">13-03</text><g transform="translate(325,323)"></g></g><g><g transform="translate(405,273)"><g><a target="_top" xlink:href="dtp-sliceTagClothes-step5605201-ofs0-col5-cat0.html"><rect style="display:none" class="hcell-act-col5-cat0" fill="#777" stroke="#000" stroke-width="5" width="70" height="205" x="0" y="-210" rx="8" ry="8"/><rect class="hcell-col5-cat0" fill="#777" stroke="#DDD" width="70" height="215" x="0" y="-215" rx="8" ry="8"/><text text-anchor="middle" fill="#FFF" x="35" y="-195">256</text></a></g></g><rect fill="none" stroke="#DDD" width="70" height="30" rx="8" ry="8" x="405" y="283"/><text text-anchor="middle" fill="#333" x="440" y="303">13-05</text><g transform="translate(405,323)"><g><a target="_top" xlink:href="dtp-sliceTagClothes-step5605201-ofs0-col5-cat0.html"><rect style="display:none" class="hcell-act-col5-cat0" fill="#777" stroke="#000" stroke-width="5" width="70" height="39" x="0" y="5" rx="8" ry="8"/><rect class="hcell-col5-cat0" fill="#777" stroke="#DDD" width="70" height="49" x="0" y="0" rx="8" ry="8"/><text text-anchor="middle" fill="#FFF" x="35" y="20">-59</text></a></g></g></g><g><g transform="translate(485,273)"><g><a target="_top" xlink:href="dtp-sliceTagClothes-step5605201-ofs0-col6-cat0.html"><rect style="display:none" class="hcell-act-col6-cat0" fill="#777" stroke="#000" stroke-width="5" width="70" height="125" x="0" y="-130" rx="8" ry="8"/><rect class="hcell-col6-cat0" fill="#777" stroke="#DDD" width="70" height="135" x="0" y="-135" rx="8" ry="8"/><text text-anchor="middle" fill="#FFF" x="35" y="-115">161</text></a></g></g><rect fill="none" stroke="#DDD" width="70" height="30" rx="8" ry="8" x="485" y="283"/><text text-anchor="middle" fill="#333" x="520" y="303">13-07</text><g transform="translate(485,323)"></g></g><g><g transform="translate(565,273)"><g><a target="_top" xlink:href="dtp-sliceTagClothes-step5605201-ofs0-col7-cat0.html"><rect style="display:none" class="hcell-act-col7-cat0" fill="#777" stroke="#000" stroke-width="5" width="70" height="98" x="0" y="-103" rx="8" ry="8"/><rect class="hcell-col7-cat0" fill="#777" stroke="#DDD" width="70" height="108" x="0" y="-108" rx="8" ry="8"/><text text-anchor="middle" fill="#FFF" x="35" y="-88">129</text></a></g></g><rect fill="none" stroke="#DDD" width="70" height="30" rx="8" ry="8" x="565" y="283"/><text text-anchor="middle" fill="#333" x="600" y="303">13-09</text><g transform="translate(565,323)"></g></g><g><g transform="translate(645,273)"><g><a target="_top" xlink:href="dtp-sliceTagClothes-step5605201-ofs0-col8-cat0.html"><rect style="display:none" class="hcell-act-col8-cat0" fill="#777" stroke="#000" stroke-width="5" width="70" height="35" x="0" y="-40" rx="8" ry="8"/><rect class="hcell-col8-cat0" fill="#777" stroke="#DDD" width="70" height="45" x="0" y="-45" rx="8" ry="8"/><text text-anchor="middle" fill="#FFF" x="35" y="-25">54</text></a></g></g><rect fill="none" stroke="#DDD" width="70" height="30" rx="8" ry="8" x="645" y="283"/><text text-anchor="middle" fill="#333" x="680" y="303">13-12</text><g transform="translate(645,323)"><g><a target="_top" xlink:href="dtp-sliceTagClothes-step5605201-ofs0-col8-cat0.html"><rect style="display:none" class="hcell-act-col8-cat0" fill="#777" stroke="#000" stroke-width="5" width="70" height="20" x="0" y="5" rx="8" ry="8"/><rect class="hcell-col8-cat0" fill="#777" stroke="#DDD" width="70" height="30" x="0" y="0" rx="8" ry="8"/><text text-anchor="middle" fill="#FFF" x="35" y="20">-34</text></a></g></g></g><g><g transform="translate(725,273)"><g><a target="_top" xlink:href="dtp-sliceTagClothes-step5605201-ofs0-col9-cat0.html"><rect style="display:none" class="hcell-act-col9-cat0" fill="#777" stroke="#000" stroke-width="5" width="70" height="189" x="0" y="-194" rx="8" ry="8"/><rect class="hcell-col9-cat0" fill="#777" stroke="#DDD" width="70" height="199" x="0" y="-199" rx="8" ry="8"/><text text-anchor="middle" fill="#FFF" x="35" y="-179">237</text></a></g></g><rect fill="none" stroke="#DDD" width="70" height="30" rx="8" ry="8" x="725" y="283"/><text text-anchor="middle" fill="#333" x="760" y="303">14-02</text><g transform="translate(725,323)"></g></g><g><g transform="translate(805,273)"><g><a target="_top" xlink:href="dtp-sliceTagClothes-step5605201-ofs0-col10-cat0.html"><rect style="display:none" class="hcell-act-col10-cat0" fill="#777" stroke="#000" stroke-width="5" width="70" height="192" x="0" y="-197" rx="8" ry="8"/><rect class="hcell-col10-cat0" fill="#777" stroke="#DDD" width="70" height="202" x="0" y="-202" rx="8" ry="8"/><text text-anchor="middle" fill="#FFF" x="35" y="-182">241</text></a></g></g><rect fill="none" stroke="#DDD" width="70" height="30" rx="8" ry="8" x="805" y="283"/><text text-anchor="middle" fill="#333" x="840" y="303">14-04</text><g transform="translate(805,323)"><g><a target="_top" xlink:href="dtp-sliceTagClothes-step5605201-ofs0-col10-cat0.html"><rect style="display:none" class="hcell-act-col10-cat0" fill="#777" stroke="#000" stroke-width="5" width="70" height="90" x="0" y="5" rx="8" ry="8"/><rect class="hcell-col10-cat0" fill="#777" stroke="#DDD" width="70" height="100" x="0" y="0" rx="8" ry="8"/><text text-anchor="middle" fill="#FFF" x="35" y="20">-120</text></a></g></g></g><g><g transform="translate(885,273)"><g><a target="_top" xlink:href="dtp-sliceTagClothes-step5605201-ofs0-col11-cat0.html"><rect style="display:none" class="hcell-act-col11-cat0" fill="#777" stroke="#000" stroke-width="5" width="70" height="258" x="0" y="-263" rx="8" ry="8"/><rect class="hcell-col11-cat0" fill="#777" stroke="#DDD" width="70" height="268" x="0" y="-268" rx="8" ry="8"/><text text-anchor="middle" fill="#FFF" x="35" y="-248">319</text></a></g></g><rect fill="none" stroke="#DDD" width="70" height="30" rx="8" ry="8" x="885" y="283"/><text text-anchor="middle" fill="#333" x="920" y="303">14-06</text><g transform="translate(885,323)"></g></g><g><g transform="translate(965,273)"><g><a target="_top" xlink:href="dtp-sliceTagClothes-step5605201-ofs0-col12-cat0.html"><rect style="display:none" class="hcell-act-col12-cat0" fill="#777" stroke="#000" stroke-width="5" width="70" height="158" x="0" y="-163" rx="8" ry="8"/><rect class="hcell-col12-cat0" fill="#777" stroke="#DDD" width="70" height="168" x="0" y="-168" rx="8" ry="8"/><text text-anchor="middle" fill="#FFF" x="35" y="-148">200</text></a></g></g><rect fill="none" stroke="#DDD" width="70" height="30" rx="8" ry="8" x="965" y="283"/><text text-anchor="middle" fill="#333" x="1000" y="303">14-08</text><g transform="translate(965,323)"></g></g><g><g transform="translate(1045,273)"><g><a target="_top" xlink:href="dtp-sliceTagClothes-step5605201-ofs0-col13-cat0.html"><rect style="display:none" class="hcell-act-col13-cat0" fill="#777" stroke="#000" stroke-width="5" width="70" height="158" x="0" y="-163" rx="8" ry="8"/><rect class="hcell-col13-cat0" fill="#777" stroke="#DDD" width="70" height="168" x="0" y="-168" rx="8" ry="8"/><text text-anchor="middle" fill="#FFF" x="35" y="-148">200</text></a></g></g><rect fill="none" stroke="#DDD" width="70" height="30" rx="8" ry="8" x="1045" y="283"/><text text-anchor="middle" fill="#333" x="1080" y="303">14-10</text><g transform="translate(1045,323)"></g></g><g><g transform="translate(1125,273)"><g><a target="_top" xlink:href="dtp-sliceTagClothes-step5605201-ofs0-col14-cat0.html"><rect style="display:none" class="hcell-act-col14-cat0" fill="#777" stroke="#000" stroke-width="5" width="70" height="158" x="0" y="-163" rx="8" ry="8"/><rect class="hcell-col14-cat0" fill="#777" stroke="#DDD" width="70" height="168" x="0" y="-168" rx="8" ry="8"/><text text-anchor="middle" fill="#FFF" x="35" y="-148">200</text></a></g></g><rect fill="none" stroke="#DDD" width="70" height="30" rx="8" ry="8" x="1125" y="283"/><text text-anchor="middle" fill="#333" x="1160" y="303">14-12</text><g transform="translate(1125,323)"></g></g><g><g transform="translate(1205,273)"><g><a target="_top" xlink:href="dtp-sliceTagClothes-step5605201-ofs0-col15-cat0.html"><rect style="display:none" class="hcell-act-col15-cat0" fill="#777" stroke="#000" stroke-width="5" width="70" height="242" x="0" y="-247" rx="8" ry="8"/><rect class="hcell-col15-cat0" fill="#777" stroke="#DDD" width="70" height="252" x="0" y="-252" rx="8" ry="8"/><text text-anchor="middle" fill="#FFF" x="35" y="-232">300</text></a></g></g><rect fill="none" stroke="#DDD" width="70" height="30" rx="8" ry="8" x="1205" y="283"/><text text-anchor="middle" fill="#333" x="1240" y="303">15-03</text><g transform="translate(1205,323)"></g></g></svg>