<svg xmlns="http://www.w3.org/2000/svg" xmlns:xlink="http://www.w3.org/1999/xlink" width="100%" height="100%" viewBox="0 0 1280 564"><g><g transform="translate(5,449)"><g><a target="_top" xlink:href="dtp-slice0-step2628000-ofs19-col19-cat5.html"><rect style="display:none" class="hcell-act-col19-cat5" fill="#777" stroke="#000" stroke-width="5" width="70" height="20" x="0" y="-25" rx="8" ry="8"/><rect class="hcell-col19-cat5" fill="#777" stroke="#DDD" width="70" height="30" x="0" y="-30" rx="8" ry="8"/><text text-anchor="middle" fill="#FFF" x="35" y="-10">29</text></a><g transform="translate(0,-30)"><g><a target="_top" xlink:href="dtp-slice0-step2628000-ofs19-col19-cat3.html"><rect style="display:none" class="hcell-act-col19-cat3" fill="#5BC0DE" stroke="#000" stroke-width="5" width="70" height="20" x="0" y="-25" rx="8" ry="8"/><rect class="hcell-col19-cat3" fill="#5BC0DE" stroke="#DDD" width="70" height="30" x="0" y="-30" rx="8" ry="8"/><text text-anchor="middle" fill="#FFF" x="35" y="-10">58</text></a><g transform="translate(0,-30)"><g><a target="_top" xlink:href="dtp-slice0-step2628000-ofs19-col19-cat4.html"><rect style="display:none" class="hcell-act-col19-cat4" fill="#337AB7" stroke="#000" stroke-width="5" width="70" height="20" x="0" y="-25" rx="8" ry="8"/><rect class="hcell-col19-cat4" fill="#337AB7" stroke="#DDD" width="70" height="30" x="0" y="-30" rx="8" ry="8"/><text text-anchor="middle" fill="#FFF" x="35" y="-10">105</text></a><g transform="translate(0,-30)"><g><a target="_top" xlink:href="dtp-slice0-step2628000-ofs19-col19-cat2.html"><rect style="display:none" class="hcell-act-col19-cat2" fill="#5CB85C" stroke="#000" stroke-width="5" width="70" height="20" x="0" y="-25" rx="8" ry="8"/><rect class="hcell-col19-cat2" fill="#5CB85C" stroke="#DDD" width="70" height="30" x="0" y="-30" rx="8" ry="8"/><text text-anchor="middle" fill="#FFF" x="35" y="-10">259</text></a><g transform="translate(0,-30)"><g><a target="_top" xlink:href="dtp-slice0-step2628000-ofs19-col19-cat1.html"><rect style="display:none" class="hcell-act-col19-cat1" fill="#F0AD4E" stroke="#000" stroke-width="5" width="70" height="40" x="0" y="-45" rx="8" ry="8"/><rect class="hcell-col19-cat1" fill="#F0AD4E" stroke="#DDD" width="70" height="50" x="0" y="-50" rx="8" ry="8"/><text text-anchor="middle" fill="#FFF" x="35" y="-30">601</text></a><g transform="translate(0,-50)"><g><a target="_top" xlink:href="dtp-slice0-step2628000-ofs19-col19-cat0.html"><rect style="display:none" class="hcell-act-col19-cat0" fill="#D9534F" stroke="#000" stroke-width="5" width="70" height="84" x="0" y="-89" rx="8" ry="8"/><rect class="hcell-col19-cat0" fill="#D9534F" stroke="#DDD" width="70" height="94" x="0" y="-94" rx="8" ry="8"/><text text-anchor="middle" fill="#FFF" x="35" y="-74">1129</text></a></g></g></g></g></g></g></g></g></g></g></g></g><rect fill="none" stroke="#DDD" width="70" height="30" rx="8" ry="8" x="5" y="459"/><text text-anchor="middle" fill="#333" x="40" y="479">14-01</text><g transform="translate(5,499)"><g><a target="_top" xlink:href="dtp-slice0-step2628000-ofs19-col19-cat5.html"><rect style="display:none" class="hcell-act-col19-cat5" fill="#777" stroke="#000" stroke-width="5" width="70" height="20" x="0" y="5" rx="8" ry="8"/><rect class="hcell-col19-cat5" fill="#777" stroke="#DDD" width="70" height="30" x="0" y="0" rx="8" ry="8"/><text text-anchor="middle" fill="#FFF" x="35" y="20">-47</text></a></g></g></g><g><g transform="translate(85,449)"><g><a target="_top" xlink:href="dtp-slice0-step2628000-ofs19-col20-cat5.html"><rect style="display:none" class="hcell-act-col20-cat5" fill="#777" stroke="#000" stroke-width="5" width="70" height="20" x="0" y="-25" rx="8" ry="8"/><rect class="hcell-col20-cat5" fill="#777" stroke="#DDD" width="70" height="30" x="0" y="-30" rx="8" ry="8"/><text text-anchor="middle" fill="#FFF" x="35" y="-10">5</text></a><g transform="translate(0,-30)"><g><a target="_top" xlink:href="dtp-slice0-step2628000-ofs19-col20-cat3.html"><rect style="display:none" class="hcell-act-col20-cat3" fill="#5BC0DE" stroke="#000" stroke-width="5" width="70" height="20" x="0" y="-25" rx="8" ry="8"/><rect class="hcell-col20-cat3" fill="#5BC0DE" stroke="#DDD" width="70" height="30" x="0" y="-30" rx="8" ry="8"/><text text-anchor="middle" fill="#FFF" x="35" y="-10">66</text></a><g transform="translate(0,-30)"><g><a target="_top" xlink:href="dtp-slice0-step2628000-ofs19-col20-cat2.html"><rect style="display:none" class="hcell-act-col20-cat2" fill="#5CB85C" stroke="#000" stroke-width="5" width="70" height="20" x="0" y="-25" rx="8" ry="8"/><rect class="hcell-col20-cat2" fill="#5CB85C" stroke="#DDD" width="70" height="30" x="0" y="-30" rx="8" ry="8"/><text text-anchor="middle" fill="#FFF" x="35" y="-10">115</text></a><g transform="translate(0,-30)"><g><a target="_top" xlink:href="dtp-slice0-step2628000-ofs19-col20-cat4.html"><rect style="display:none" class="hcell-act-col20-cat4" fill="#337AB7" stroke="#000" stroke-width="5" width="70" height="37" x="0" y="-42" rx="8" ry="8"/><rect class="hcell-col20-cat4" fill="#337AB7" stroke="#DDD" width="70" height="47" x="0" y="-47" rx="8" ry="8"/><text text-anchor="middle" fill="#FFF" x="35" y="-27">574</text></a><g transform="translate(0,-47)"><g><a target="_top" xlink:href="dtp-slice0-step2628000-ofs19-col20-cat1.html"><rect style="display:none" class="hcell-act-col20-cat1" fill="#F0AD4E" stroke="#000" stroke-width="5" width="70" height="65" x="0" y="-70" rx="8" ry="8"/><rect class="hcell-col20-cat1" fill="#F0AD4E" stroke="#DDD" width="70" height="75" x="0" y="-75" rx="8" ry="8"/><text text-anchor="middle" fill="#FFF" x="35" y="-55">903</text></a><g transform="translate(0,-75)"><g><a target="_top" xlink:href="dtp-slice0-step2628000-ofs19-col20-cat0.html"><rect style="display:none" class="hcell-act-col20-cat0" fill="#D9534F" stroke="#000" stroke-width="5" width="70" height="85" x="0" y="-90" rx="8" ry="8"/><rect class="hcell-col20-cat0" fill="#D9534F" stroke="#DDD" width="70" height="95" x="0" y="-95" rx="8" ry="8"/><text text-anchor="middle" fill="#FFF" x="35" y="-75">1149</text></a></g></g></g></g></g></g></g></g></g></g></g></g><rect fill="none" stroke="#DDD" width="70" height="30" rx="8" ry="8" x="85" y="459"/><text text-anchor="middle" fill="#333" x="120" y="479">14-03</text><g transform="translate(85,499)"><g><a target="_top" xlink:href="dtp-slice0-step2628000-ofs19-col20-cat5.html"><rect style="display:none" class="hcell-act-col20-cat5" fill="#777" stroke="#000" stroke-width="5" width="70" height="20" x="0" y="5" rx="8" ry="8"/><rect class="hcell-col20-cat5" fill="#777" stroke="#DDD" width="70" height="30" x="0" y="0" rx="8" ry="8"/><text text-anchor="middle" fill="#FFF" x="35" y="20">-27</text></a></g></g></g><g><g transform="translate(165,449)"><g><a target="_top" xlink:href="dtp-slice0-step2628000-ofs19-col21-cat3.html"><rect style="display:none" class="hcell-act-col21-cat3" fill="#5BC0DE" stroke="#000" stroke-width="5" width="70" height="20" x="0" y="-25" rx="8" ry="8"/><rect class="hcell-col21-cat3" fill="#5BC0DE" stroke="#DDD" width="70" height="30" x="0" y="-30" rx="8" ry="8"/><text text-anchor="middle" fill="#FFF" x="35" y="-10">67</text></a><g transform="translate(0,-30)"><g><a target="_top" xlink:href="dtp-slice0-step2628000-ofs19-col21-cat2.html"><rect style="display:none" class="hcell-act-col21-cat2" fill="#5CB85C" stroke="#000" stroke-width="5" width="70" height="20" x="0" y="-25" rx="8" ry="8"/><rect class="hcell-col21-cat2" fill="#5CB85C" stroke="#DDD" width="70" height="30" x="0" y="-30" rx="8" ry="8"/><text text-anchor="middle" fill="#FFF" x="35" y="-10">78</text></a><g transform="translate(0,-30)"><g><a target="_top" xlink:href="dtp-slice0-step2628000-ofs19-col21-cat1.html"><rect style="display:none" class="hcell-act-col21-cat1" fill="#F0AD4E" stroke="#000" stroke-width="5" width="70" height="45" x="0" y="-50" rx="8" ry="8"/><rect class="hcell-col21-cat1" fill="#F0AD4E" stroke="#DDD" width="70" height="55" x="0" y="-55" rx="8" ry="8"/><text text-anchor="middle" fill="#FFF" x="35" y="-35">667</text></a><g transform="translate(0,-55)"><g><a target="_top" xlink:href="dtp-slice0-step2628000-ofs19-col21-cat4.html"><rect style="display:none" class="hcell-act-col21-cat4" fill="#337AB7" stroke="#000" stroke-width="5" width="70" height="87" x="0" y="-92" rx="8" ry="8"/><rect class="hcell-col21-cat4" fill="#337AB7" stroke="#DDD" width="70" height="97" x="0" y="-97" rx="8" ry="8"/><text text-anchor="middle" fill="#FFF" x="35" y="-77">1172</text></a><g transform="translate(0,-97)"><g><a target="_top" xlink:href="dtp-slice0-step2628000-ofs19-col21-cat0.html"><rect style="display:none" class="hcell-act-col21-cat0" fill="#D9534F" stroke="#000" stroke-width="5" width="70" height="179" x="0" y="-184" rx="8" ry="8"/><rect class="hcell-col21-cat0" fill="#D9534F" stroke="#DDD" width="70" height="189" x="0" y="-189" rx="8" ry="8"/><text text-anchor="middle" fill="#FFF" x="35" y="-169">2275</text></a></g></g></g></g></g></g></g></g></g></g><rect fill="none" stroke="#DDD" width="70" height="30" rx="8" ry="8" x="165" y="459"/><text text-anchor="middle" fill="#333" x="200" y="479">14-04</text><g transform="translate(165,499)"></g></g><g><g transform="translate(245,449)"><g><a target="_top" xlink:href="dtp-slice0-step2628000-ofs19-col22-cat5.html"><rect style="display:none" class="hcell-act-col22-cat5" fill="#777" stroke="#000" stroke-width="5" width="70" height="20" x="0" y="-25" rx="8" ry="8"/><rect class="hcell-col22-cat5" fill="#777" stroke="#DDD" width="70" height="30" x="0" y="-30" rx="8" ry="8"/><text text-anchor="middle" fill="#FFF" x="35" y="-10">9</text></a><g transform="translate(0,-30)"><g><a target="_top" xlink:href="dtp-slice0-step2628000-ofs19-col22-cat3.html"><rect style="display:none" class="hcell-act-col22-cat3" fill="#5BC0DE" stroke="#000" stroke-width="5" width="70" height="20" x="0" y="-25" rx="8" ry="8"/><rect class="hcell-col22-cat3" fill="#5BC0DE" stroke="#DDD" width="70" height="30" x="0" y="-30" rx="8" ry="8"/><text text-anchor="middle" fill="#FFF" x="35" y="-10">87</text></a><g transform="translate(0,-30)"><g><a target="_top" xlink:href="dtp-slice0-step2628000-ofs19-col22-cat2.html"><rect style="display:none" class="hcell-act-col22-cat2" fill="#5CB85C" stroke="#000" stroke-width="5" width="70" height="20" x="0" y="-25" rx="8" ry="8"/><rect class="hcell-col22-cat2" fill="#5CB85C" stroke="#DDD" width="70" height="30" x="0" y="-30" rx="8" ry="8"/><text text-anchor="middle" fill="#FFF" x="35" y="-10">325</text></a><g transform="translate(0,-30)"><g><a target="_top" xlink:href="dtp-slice0-step2628000-ofs19-col22-cat4.html"><rect style="display:none" class="hcell-act-col22-cat4" fill="#337AB7" stroke="#000" stroke-width="5" width="70" height="50" x="0" y="-55" rx="8" ry="8"/><rect class="hcell-col22-cat4" fill="#337AB7" stroke="#DDD" width="70" height="60" x="0" y="-60" rx="8" ry="8"/><text text-anchor="middle" fill="#FFF" x="35" y="-40">724</text></a><g transform="translate(0,-60)"><g><a target="_top" xlink:href="dtp-slice0-step2628000-ofs19-col22-cat1.html"><rect style="display:none" class="hcell-act-col22-cat1" fill="#F0AD4E" stroke="#000" stroke-width="5" width="70" height="74" x="0" y="-79" rx="8" ry="8"/><rect class="hcell-col22-cat1" fill="#F0AD4E" stroke="#DDD" width="70" height="84" x="0" y="-84" rx="8" ry="8"/><text text-anchor="middle" fill="#FFF" x="35" y="-64">1014</text></a><g transform="translate(0,-84)"><g><a target="_top" xlink:href="dtp-slice0-step2628000-ofs19-col22-cat0.html"><rect style="display:none" class="hcell-act-col22-cat0" fill="#D9534F" stroke="#000" stroke-width="5" width="70" height="199" x="0" y="-204" rx="8" ry="8"/><rect class="hcell-col22-cat0" fill="#D9534F" stroke="#DDD" width="70" height="209" x="0" y="-209" rx="8" ry="8"/><text text-anchor="middle" fill="#FFF" x="35" y="-189">2521</text></a></g></g></g></g></g></g></g></g></g></g></g></g><rect fill="none" stroke="#DDD" width="70" height="30" rx="8" ry="8" x="245" y="459"/><text text-anchor="middle" fill="#333" x="280" y="479">14-05</text><g transform="translate(245,499)"><g><a target="_top" xlink:href="dtp-slice0-step2628000-ofs19-col22-cat4.html"><rect style="display:none" class="hcell-act-col22-cat4" fill="#337AB7" stroke="#000" stroke-width="5" width="70" height="20" x="0" y="5" rx="8" ry="8"/><rect class="hcell-col22-cat4" fill="#337AB7" stroke="#DDD" width="70" height="30" x="0" y="0" rx="8" ry="8"/><text text-anchor="middle" fill="#FFF" x="35" y="20">-120</text></a></g></g></g><g><g transform="translate(325,449)"><g><a target="_top" xlink:href="dtp-slice0-step2628000-ofs19-col23-cat2.html"><rect style="display:none" class="hcell-act-col23-cat2" fill="#5CB85C" stroke="#000" stroke-width="5" width="70" height="20" x="0" y="-25" rx="8" ry="8"/><rect class="hcell-col23-cat2" fill="#5CB85C" stroke="#DDD" width="70" height="30" x="0" y="-30" rx="8" ry="8"/><text text-anchor="middle" fill="#FFF" x="35" y="-10">13</text></a><g transform="translate(0,-30)"><g><a target="_top" xlink:href="dtp-slice0-step2628000-ofs19-col23-cat5.html"><rect style="display:none" class="hcell-act-col23-cat5" fill="#777" stroke="#000" stroke-width="5" width="70" height="20" x="0" y="-25" rx="8" ry="8"/><rect class="hcell-col23-cat5" fill="#777" stroke="#DDD" width="70" height="30" x="0" y="-30" rx="8" ry="8"/><text text-anchor="middle" fill="#FFF" x="35" y="-10">30</text></a><g transform="translate(0,-30)"><g><a target="_top" xlink:href="dtp-slice0-step2628000-ofs19-col23-cat3.html"><rect style="display:none" class="hcell-act-col23-cat3" fill="#5BC0DE" stroke="#000" stroke-width="5" width="70" height="20" x="0" y="-25" rx="8" ry="8"/><rect class="hcell-col23-cat3" fill="#5BC0DE" stroke="#DDD" width="70" height="30" x="0" y="-30" rx="8" ry="8"/><text text-anchor="middle" fill="#FFF" x="35" y="-10">93</text></a><g transform="translate(0,-30)"><g><a target="_top" xlink:href="dtp-slice0-step2628000-ofs19-col23-cat1.html"><rect style="display:none" class="hcell-act-col23-cat1" fill="#F0AD4E" stroke="#000" stroke-width="5" width="70" height="49" x="0" y="-54" rx="8" ry="8"/><rect class="hcell-col23-cat1" fill="#F0AD4E" stroke="#DDD" width="70" height="59" x="0" y="-59" rx="8" ry="8"/><text text-anchor="middle" fill="#FFF" x="35" y="-39">719</text></a><g transform="translate(0,-59)"><g><a target="_top" xlink:href="dtp-slice0-step2628000-ofs19-col23-cat4.html"><rect style="display:none" class="hcell-act-col23-cat4" fill="#337AB7" stroke="#000" stroke-width="5" width="70" height="67" x="0" y="-72" rx="8" ry="8"/><rect class="hcell-col23-cat4" fill="#337AB7" stroke="#DDD" width="70" height="77" x="0" y="-77" rx="8" ry="8"/><text text-anchor="middle" fill="#FFF" x="35" y="-57">933</text></a><g transform="translate(0,-77)"><g><a target="_top" xlink:href="dtp-slice0-step2628000-ofs19-col23-cat0.html"><rect style="display:none" class="hcell-act-col23-cat0" fill="#D9534F" stroke="#000" stroke-width="5" width="70" height="131" x="0" y="-136" rx="8" ry="8"/><rect class="hcell-col23-cat0" fill="#D9534F" stroke="#DDD" width="70" height="141" x="0" y="-141" rx="8" ry="8"/><text text-anchor="middle" fill="#FFF" x="35" y="-121">1693</text></a></g></g></g></g></g></g></g></g></g></g></g></g><rect fill="none" stroke="#DDD" width="70" height="30" rx="8" ry="8" x="325" y="459"/><text text-anchor="middle" fill="#333" x="360" y="479">14-06</text><g transform="translate(325,499)"></g></g><g><g transform="translate(405,449)"><g><a target="_top" xlink:href="dtp-slice0-step2628000-ofs19-col24-cat5.html"><rect style="display:none" class="hcell-act-col24-cat5" fill="#777" stroke="#000" stroke-width="5" width="70" height="20" x="0" y="-25" rx="8" ry="8"/><rect class="hcell-col24-cat5" fill="#777" stroke="#DDD" width="70" height="30" x="0" y="-30" rx="8" ry="8"/><text text-anchor="middle" fill="#FFF" x="35" y="-10">27</text></a><g transform="translate(0,-30)"><g><a target="_top" xlink:href="dtp-slice0-step2628000-ofs19-col24-cat3.html"><rect style="display:none" class="hcell-act-col24-cat3" fill="#5BC0DE" stroke="#000" stroke-width="5" width="70" height="20" x="0" y="-25" rx="8" ry="8"/><rect class="hcell-col24-cat3" fill="#5BC0DE" stroke="#DDD" width="70" height="30" x="0" y="-30" rx="8" ry="8"/><text text-anchor="middle" fill="#FFF" x="35" y="-10">79</text></a><g transform="translate(0,-30)"><g><a target="_top" xlink:href="dtp-slice0-step2628000-ofs19-col24-cat2.html"><rect style="display:none" class="hcell-act-col24-cat2" fill="#5CB85C" stroke="#000" stroke-width="5" width="70" height="20" x="0" y="-25" rx="8" ry="8"/><rect class="hcell-col24-cat2" fill="#5CB85C" stroke="#DDD" width="70" height="30" x="0" y="-30" rx="8" ry="8"/><text text-anchor="middle" fill="#FFF" x="35" y="-10">175</text></a><g transform="translate(0,-30)"><g><a target="_top" xlink:href="dtp-slice0-step2628000-ofs19-col24-cat4.html"><rect style="display:none" class="hcell-act-col24-cat4" fill="#337AB7" stroke="#000" stroke-width="5" width="70" height="38" x="0" y="-43" rx="8" ry="8"/><rect class="hcell-col24-cat4" fill="#337AB7" stroke="#DDD" width="70" height="48" x="0" y="-48" rx="8" ry="8"/><text text-anchor="middle" fill="#FFF" x="35" y="-28">588</text></a><g transform="translate(0,-48)"><g><a target="_top" xlink:href="dtp-slice0-step2628000-ofs19-col24-cat1.html"><rect style="display:none" class="hcell-act-col24-cat1" fill="#F0AD4E" stroke="#000" stroke-width="5" width="70" height="44" x="0" y="-49" rx="8" ry="8"/><rect class="hcell-col24-cat1" fill="#F0AD4E" stroke="#DDD" width="70" height="54" x="0" y="-54" rx="8" ry="8"/><text text-anchor="middle" fill="#FFF" x="35" y="-34">654</text></a><g transform="translate(0,-54)"><g><a target="_top" xlink:href="dtp-slice0-step2628000-ofs19-col24-cat0.html"><rect style="display:none" class="hcell-act-col24-cat0" fill="#D9534F" stroke="#000" stroke-width="5" width="70" height="104" x="0" y="-109" rx="8" ry="8"/><rect class="hcell-col24-cat0" fill="#D9534F" stroke="#DDD" width="70" height="114" x="0" y="-114" rx="8" ry="8"/><text text-anchor="middle" fill="#FFF" x="35" y="-94">1371</text></a></g></g></g></g></g></g></g></g></g></g></g></g><rect fill="none" stroke="#DDD" width="70" height="30" rx="8" ry="8" x="405" y="459"/><text text-anchor="middle" fill="#333" x="440" y="479">14-07</text><g transform="translate(405,499)"><g><a target="_top" xlink:href="dtp-slice0-step2628000-ofs19-col24-cat5.html"><rect style="display:none" class="hcell-act-col24-cat5" fill="#777" stroke="#000" stroke-width="5" width="70" height="20" x="0" y="5" rx="8" ry="8"/><rect class="hcell-col24-cat5" fill="#777" stroke="#DDD" width="70" height="30" x="0" y="0" rx="8" ry="8"/><text text-anchor="middle" fill="#FFF" x="35" y="20">-13</text></a></g></g></g><g><g transform="translate(485,449)"><g><a target="_top" xlink:href="dtp-slice0-step2628000-ofs19-col25-cat5.html"><rect style="display:none" class="hcell-act-col25-cat5" fill="#777" stroke="#000" stroke-width="5" width="70" height="20" x="0" y="-25" rx="8" ry="8"/><rect class="hcell-col25-cat5" fill="#777" stroke="#DDD" width="70" height="30" x="0" y="-30" rx="8" ry="8"/><text text-anchor="middle" fill="#FFF" x="35" y="-10">7</text></a><g transform="translate(0,-30)"><g><a target="_top" xlink:href="dtp-slice0-step2628000-ofs19-col25-cat3.html"><rect style="display:none" class="hcell-act-col25-cat3" fill="#5BC0DE" stroke="#000" stroke-width="5" width="70" height="20" x="0" y="-25" rx="8" ry="8"/><rect class="hcell-col25-cat3" fill="#5BC0DE" stroke="#DDD" width="70" height="30" x="0" y="-30" rx="8" ry="8"/><text text-anchor="middle" fill="#FFF" x="35" y="-10">107</text></a><g transform="translate(0,-30)"><g><a target="_top" xlink:href="dtp-slice0-step2628000-ofs19-col25-cat4.html"><rect style="display:none" class="hcell-act-col25-cat4" fill="#337AB7" stroke="#000" stroke-width="5" width="70" height="21" x="0" y="-26" rx="8" ry="8"/><rect class="hcell-col25-cat4" fill="#337AB7" stroke="#DDD" width="70" height="31" x="0" y="-31" rx="8" ry="8"/><text text-anchor="middle" fill="#FFF" x="35" y="-11">381</text></a><g transform="translate(0,-31)"><g><a target="_top" xlink:href="dtp-slice0-step2628000-ofs19-col25-cat1.html"><rect style="display:none" class="hcell-act-col25-cat1" fill="#F0AD4E" stroke="#000" stroke-width="5" width="70" height="28" x="0" y="-33" rx="8" ry="8"/><rect class="hcell-col25-cat1" fill="#F0AD4E" stroke="#DDD" width="70" height="38" x="0" y="-38" rx="8" ry="8"/><text text-anchor="middle" fill="#FFF" x="35" y="-18">464</text></a><g transform="translate(0,-38)"><g><a target="_top" xlink:href="dtp-slice0-step2628000-ofs19-col25-cat2.html"><rect style="display:none" class="hcell-act-col25-cat2" fill="#5CB85C" stroke="#000" stroke-width="5" width="70" height="57" x="0" y="-62" rx="8" ry="8"/><rect class="hcell-col25-cat2" fill="#5CB85C" stroke="#DDD" width="70" height="67" x="0" y="-67" rx="8" ry="8"/><text text-anchor="middle" fill="#FFF" x="35" y="-47">811</text></a><g transform="translate(0,-67)"><g><a target="_top" xlink:href="dtp-slice0-step2628000-ofs19-col25-cat0.html"><rect style="display:none" class="hcell-act-col25-cat0" fill="#D9534F" stroke="#000" stroke-width="5" width="70" height="138" x="0" y="-143" rx="8" ry="8"/><rect class="hcell-col25-cat0" fill="#D9534F" stroke="#DDD" width="70" height="148" x="0" y="-148" rx="8" ry="8"/><text text-anchor="middle" fill="#FFF" x="35" y="-128">1785</text></a></g></g></g></g></g></g></g></g></g></g></g></g><rect fill="none" stroke="#DDD" width="70" height="30" rx="8" ry="8" x="485" y="459"/><text text-anchor="middle" fill="#333" x="520" y="479">14-08</text><g transform="translate(485,499)"></g></g><g><g transform="translate(565,449)"><g><a target="_top" xlink:href="dtp-slice0-step2628000-ofs19-col26-cat5.html"><rect style="display:none" class="hcell-act-col26-cat5" fill="#777" stroke="#000" stroke-width="5" width="70" height="20" x="0" y="-25" rx="8" ry="8"/><rect class="hcell-col26-cat5" fill="#777" stroke="#DDD" width="70" height="30" x="0" y="-30" rx="8" ry="8"/><text text-anchor="middle" fill="#FFF" x="35" y="-10">27</text></a><g transform="translate(0,-30)"><g><a target="_top" xlink:href="dtp-slice0-step2628000-ofs19-col26-cat2.html"><rect style="display:none" class="hcell-act-col26-cat2" fill="#5CB85C" stroke="#000" stroke-width="5" width="70" height="20" x="0" y="-25" rx="8" ry="8"/><rect class="hcell-col26-cat2" fill="#5CB85C" stroke="#DDD" width="70" height="30" x="0" y="-30" rx="8" ry="8"/><text text-anchor="middle" fill="#FFF" x="35" y="-10">120</text></a><g transform="translate(0,-30)"><g><a target="_top" xlink:href="dtp-slice0-step2628000-ofs19-col26-cat3.html"><rect style="display:none" class="hcell-act-col26-cat3" fill="#5BC0DE" stroke="#000" stroke-width="5" width="70" height="20" x="0" y="-25" rx="8" ry="8"/><rect class="hcell-col26-cat3" fill="#5BC0DE" stroke="#DDD" width="70" height="30" x="0" y="-30" rx="8" ry="8"/><text text-anchor="middle" fill="#FFF" x="35" y="-10">131</text></a><g transform="translate(0,-30)"><g><a target="_top" xlink:href="dtp-slice0-step2628000-ofs19-col26-cat4.html"><rect style="display:none" class="hcell-act-col26-cat4" fill="#337AB7" stroke="#000" stroke-width="5" width="70" height="34" x="0" y="-39" rx="8" ry="8"/><rect class="hcell-col26-cat4" fill="#337AB7" stroke="#DDD" width="70" height="44" x="0" y="-44" rx="8" ry="8"/><text text-anchor="middle" fill="#FFF" x="35" y="-24">530</text></a><g transform="translate(0,-44)"><g><a target="_top" xlink:href="dtp-slice0-step2628000-ofs19-col26-cat1.html"><rect style="display:none" class="hcell-act-col26-cat1" fill="#F0AD4E" stroke="#000" stroke-width="5" width="70" height="57" x="0" y="-62" rx="8" ry="8"/><rect class="hcell-col26-cat1" fill="#F0AD4E" stroke="#DDD" width="70" height="67" x="0" y="-67" rx="8" ry="8"/><text text-anchor="middle" fill="#FFF" x="35" y="-47">811</text></a><g transform="translate(0,-67)"><g><a target="_top" xlink:href="dtp-slice0-step2628000-ofs19-col26-cat0.html"><rect style="display:none" class="hcell-act-col26-cat0" fill="#D9534F" stroke="#000" stroke-width="5" width="70" height="233" x="0" y="-238" rx="8" ry="8"/><rect class="hcell-col26-cat0" fill="#D9534F" stroke="#DDD" width="70" height="243" x="0" y="-243" rx="8" ry="8"/><text text-anchor="middle" fill="#FFF" x="35" y="-223">2929</text></a></g></g></g></g></g></g></g></g></g></g></g></g><rect fill="none" stroke="#DDD" width="70" height="30" rx="8" ry="8" x="565" y="459"/><text text-anchor="middle" fill="#333" x="600" y="479">14-08</text><g transform="translate(565,499)"><g><a target="_top" xlink:href="dtp-slice0-step2628000-ofs19-col26-cat5.html"><rect style="display:none" class="hcell-act-col26-cat5" fill="#777" stroke="#000" stroke-width="5" width="70" height="20" x="0" y="5" rx="8" ry="8"/><rect class="hcell-col26-cat5" fill="#777" stroke="#DDD" width="70" height="30" x="0" y="0" rx="8" ry="8"/><text text-anchor="middle" fill="#FFF" x="35" y="20">-22</text></a></g></g></g><g><g transform="translate(645,449)"><g><a target="_top" xlink:href="dtp-slice0-step2628000-ofs19-col27-cat2.html"><rect style="display:none" class="hcell-act-col27-cat2" fill="#5CB85C" stroke="#000" stroke-width="5" width="70" height="20" x="0" y="-25" rx="8" ry="8"/><rect class="hcell-col27-cat2" fill="#5CB85C" stroke="#DDD" width="70" height="30" x="0" y="-30" rx="8" ry="8"/><text text-anchor="middle" fill="#FFF" x="35" y="-10">9</text></a><g transform="translate(0,-30)"><g><a target="_top" xlink:href="dtp-slice0-step2628000-ofs19-col27-cat5.html"><rect style="display:none" class="hcell-act-col27-cat5" fill="#777" stroke="#000" stroke-width="5" width="70" height="20" x="0" y="-25" rx="8" ry="8"/><rect class="hcell-col27-cat5" fill="#777" stroke="#DDD" width="70" height="30" x="0" y="-30" rx="8" ry="8"/><text text-anchor="middle" fill="#FFF" x="35" y="-10">25</text></a><g transform="translate(0,-30)"><g><a target="_top" xlink:href="dtp-slice0-step2628000-ofs19-col27-cat3.html"><rect style="display:none" class="hcell-act-col27-cat3" fill="#5BC0DE" stroke="#000" stroke-width="5" width="70" height="20" x="0" y="-25" rx="8" ry="8"/><rect class="hcell-col27-cat3" fill="#5BC0DE" stroke="#DDD" width="70" height="30" x="0" y="-30" rx="8" ry="8"/><text text-anchor="middle" fill="#FFF" x="35" y="-10">69</text></a><g transform="translate(0,-30)"><g><a target="_top" xlink:href="dtp-slice0-step2628000-ofs19-col27-cat4.html"><rect style="display:none" class="hcell-act-col27-cat4" fill="#337AB7" stroke="#000" stroke-width="5" width="70" height="29" x="0" y="-34" rx="8" ry="8"/><rect class="hcell-col27-cat4" fill="#337AB7" stroke="#DDD" width="70" height="39" x="0" y="-39" rx="8" ry="8"/><text text-anchor="middle" fill="#FFF" x="35" y="-19">468</text></a><g transform="translate(0,-39)"><g><a target="_top" xlink:href="dtp-slice0-step2628000-ofs19-col27-cat1.html"><rect style="display:none" class="hcell-act-col27-cat1" fill="#F0AD4E" stroke="#000" stroke-width="5" width="70" height="53" x="0" y="-58" rx="8" ry="8"/><rect class="hcell-col27-cat1" fill="#F0AD4E" stroke="#DDD" width="70" height="63" x="0" y="-63" rx="8" ry="8"/><text text-anchor="middle" fill="#FFF" x="35" y="-43">763</text></a><g transform="translate(0,-63)"><g><a target="_top" xlink:href="dtp-slice0-step2628000-ofs19-col27-cat0.html"><rect style="display:none" class="hcell-act-col27-cat0" fill="#D9534F" stroke="#000" stroke-width="5" width="70" height="82" x="0" y="-87" rx="8" ry="8"/><rect class="hcell-col27-cat0" fill="#D9534F" stroke="#DDD" width="70" height="92" x="0" y="-92" rx="8" ry="8"/><text text-anchor="middle" fill="#FFF" x="35" y="-72">1106</text></a></g></g></g></g></g></g></g></g></g></g></g></g><rect fill="none" stroke="#DDD" width="70" height="30" rx="8" ry="8" x="645" y="459"/><text text-anchor="middle" fill="#333" x="680" y="479">14-10</text><g transform="translate(645,499)"></g></g><g><g transform="translate(725,449)"><g><a target="_top" xlink:href="dtp-slice0-step2628000-ofs19-col28-cat5.html"><rect style="display:none" class="hcell-act-col28-cat5" fill="#777" stroke="#000" stroke-width="5" width="70" height="20" x="0" y="-25" rx="8" ry="8"/><rect class="hcell-col28-cat5" fill="#777" stroke="#DDD" width="70" height="30" x="0" y="-30" rx="8" ry="8"/><text text-anchor="middle" fill="#FFF" x="35" y="-10">30</text></a><g transform="translate(0,-30)"><g><a target="_top" xlink:href="dtp-slice0-step2628000-ofs19-col28-cat3.html"><rect style="display:none" class="hcell-act-col28-cat3" fill="#5BC0DE" stroke="#000" stroke-width="5" width="70" height="20" x="0" y="-25" rx="8" ry="8"/><rect class="hcell-col28-cat3" fill="#5BC0DE" stroke="#DDD" width="70" height="30" x="0" y="-30" rx="8" ry="8"/><text text-anchor="middle" fill="#FFF" x="35" y="-10">123</text></a><g transform="translate(0,-30)"><g><a target="_top" xlink:href="dtp-slice0-step2628000-ofs19-col28-cat2.html"><rect style="display:none" class="hcell-act-col28-cat2" fill="#5CB85C" stroke="#000" stroke-width="5" width="70" height="20" x="0" y="-25" rx="8" ry="8"/><rect class="hcell-col28-cat2" fill="#5CB85C" stroke="#DDD" width="70" height="30" x="0" y="-30" rx="8" ry="8"/><text text-anchor="middle" fill="#FFF" x="35" y="-10">231</text></a><g transform="translate(0,-30)"><g><a target="_top" xlink:href="dtp-slice0-step2628000-ofs19-col28-cat1.html"><rect style="display:none" class="hcell-act-col28-cat1" fill="#F0AD4E" stroke="#000" stroke-width="5" width="70" height="28" x="0" y="-33" rx="8" ry="8"/><rect class="hcell-col28-cat1" fill="#F0AD4E" stroke="#DDD" width="70" height="38" x="0" y="-38" rx="8" ry="8"/><text text-anchor="middle" fill="#FFF" x="35" y="-18">456</text></a><g transform="translate(0,-38)"><g><a target="_top" xlink:href="dtp-slice0-step2628000-ofs19-col28-cat4.html"><rect style="display:none" class="hcell-act-col28-cat4" fill="#337AB7" stroke="#000" stroke-width="5" width="70" height="28" x="0" y="-33" rx="8" ry="8"/><rect class="hcell-col28-cat4" fill="#337AB7" stroke="#DDD" width="70" height="38" x="0" y="-38" rx="8" ry="8"/><text text-anchor="middle" fill="#FFF" x="35" y="-18">462</text></a><g transform="translate(0,-38)"><g><a target="_top" xlink:href="dtp-slice0-step2628000-ofs19-col28-cat0.html"><rect style="display:none" class="hcell-act-col28-cat0" fill="#D9534F" stroke="#000" stroke-width="5" width="70" height="168" x="0" y="-173" rx="8" ry="8"/><rect class="hcell-col28-cat0" fill="#D9534F" stroke="#DDD" width="70" height="178" x="0" y="-178" rx="8" ry="8"/><text text-anchor="middle" fill="#FFF" x="35" y="-158">2144</text></a></g></g></g></g></g></g></g></g></g></g></g></g><rect fill="none" stroke="#DDD" width="70" height="30" rx="8" ry="8" x="725" y="459"/><text text-anchor="middle" fill="#333" x="760" y="479">14-10</text><g transform="translate(725,499)"></g></g><g><g transform="translate(805,449)"><g><a target="_top" xlink:href="dtp-slice0-step2628000-ofs19-col29-cat3.html"><rect style="display:none" class="hcell-act-col29-cat3" fill="#5BC0DE" stroke="#000" stroke-width="5" width="70" height="20" x="0" y="-25" rx="8" ry="8"/><rect class="hcell-col29-cat3" fill="#5BC0DE" stroke="#DDD" width="70" height="30" x="0" y="-30" rx="8" ry="8"/><text text-anchor="middle" fill="#FFF" x="35" y="-10">81</text></a><g transform="translate(0,-30)"><g><a target="_top" xlink:href="dtp-slice0-step2628000-ofs19-col29-cat4.html"><rect style="display:none" class="hcell-act-col29-cat4" fill="#337AB7" stroke="#000" stroke-width="5" width="70" height="20" x="0" y="-25" rx="8" ry="8"/><rect class="hcell-col29-cat4" fill="#337AB7" stroke="#DDD" width="70" height="30" x="0" y="-30" rx="8" ry="8"/><text text-anchor="middle" fill="#FFF" x="35" y="-10">358</text></a><g transform="translate(0,-30)"><g><a target="_top" xlink:href="dtp-slice0-step2628000-ofs19-col29-cat2.html"><rect style="display:none" class="hcell-act-col29-cat2" fill="#5CB85C" stroke="#000" stroke-width="5" width="70" height="30" x="0" y="-35" rx="8" ry="8"/><rect class="hcell-col29-cat2" fill="#5CB85C" stroke="#DDD" width="70" height="40" x="0" y="-40" rx="8" ry="8"/><text text-anchor="middle" fill="#FFF" x="35" y="-20">483</text></a><g transform="translate(0,-40)"><g><a target="_top" xlink:href="dtp-slice0-step2628000-ofs19-col29-cat1.html"><rect style="display:none" class="hcell-act-col29-cat1" fill="#F0AD4E" stroke="#000" stroke-width="5" width="70" height="41" x="0" y="-46" rx="8" ry="8"/><rect class="hcell-col29-cat1" fill="#F0AD4E" stroke="#DDD" width="70" height="51" x="0" y="-51" rx="8" ry="8"/><text text-anchor="middle" fill="#FFF" x="35" y="-31">616</text></a><g transform="translate(0,-51)"><g><a target="_top" xlink:href="dtp-slice0-step2628000-ofs19-col29-cat0.html"><rect style="display:none" class="hcell-act-col29-cat0" fill="#D9534F" stroke="#000" stroke-width="5" width="70" height="123" x="0" y="-128" rx="8" ry="8"/><rect class="hcell-col29-cat0" fill="#D9534F" stroke="#DDD" width="70" height="133" x="0" y="-133" rx="8" ry="8"/><text text-anchor="middle" fill="#FFF" x="35" y="-113">1604</text></a></g></g></g></g></g></g></g></g></g></g><rect fill="none" stroke="#DDD" width="70" height="30" rx="8" ry="8" x="805" y="459"/><text text-anchor="middle" fill="#333" x="840" y="479">14-12</text><g transform="translate(805,499)"><g><a target="_top" xlink:href="dtp-slice0-step2628000-ofs19-col29-cat5.html"><rect style="display:none" class="hcell-act-col29-cat5" fill="#777" stroke="#000" stroke-width="5" width="70" height="20" x="0" y="5" rx="8" ry="8"/><rect class="hcell-col29-cat5" fill="#777" stroke="#DDD" width="70" height="30" x="0" y="0" rx="8" ry="8"/><text text-anchor="middle" fill="#FFF" x="35" y="20">-26</text></a><g transform="translate(0,30)"><g><a target="_top" xlink:href="dtp-slice0-step2628000-ofs19-col29-cat4.html"><rect style="display:none" class="hcell-act-col29-cat4" fill="#337AB7" stroke="#000" stroke-width="5" width="70" height="20" x="0" y="5" rx="8" ry="8"/><rect class="hcell-col29-cat4" fill="#337AB7" stroke="#DDD" width="70" height="30" x="0" y="0" rx="8" ry="8"/><text text-anchor="middle" fill="#FFF" x="35" y="20">-31</text></a></g></g></g></g></g><g><g transform="translate(885,449)"><g><a target="_top" xlink:href="dtp-slice0-step2628000-ofs19-col30-cat5.html"><rect style="display:none" class="hcell-act-col30-cat5" fill="#777" stroke="#000" stroke-width="5" width="70" height="20" x="0" y="-25" rx="8" ry="8"/><rect class="hcell-col30-cat5" fill="#777" stroke="#DDD" width="70" height="30" x="0" y="-30" rx="8" ry="8"/><text text-anchor="middle" fill="#FFF" x="35" y="-10">8</text></a><g transform="translate(0,-30)"><g><a target="_top" xlink:href="dtp-slice0-step2628000-ofs19-col30-cat3.html"><rect style="display:none" class="hcell-act-col30-cat3" fill="#5BC0DE" stroke="#000" stroke-width="5" width="70" height="20" x="0" y="-25" rx="8" ry="8"/><rect class="hcell-col30-cat3" fill="#5BC0DE" stroke="#DDD" width="70" height="30" x="0" y="-30" rx="8" ry="8"/><text text-anchor="middle" fill="#FFF" x="35" y="-10">73</text></a><g transform="translate(0,-30)"><g><a target="_top" xlink:href="dtp-slice0-step2628000-ofs19-col30-cat4.html"><rect style="display:none" class="hcell-act-col30-cat4" fill="#337AB7" stroke="#000" stroke-width="5" width="70" height="20" x="0" y="-25" rx="8" ry="8"/><rect class="hcell-col30-cat4" fill="#337AB7" stroke="#DDD" width="70" height="30" x="0" y="-30" rx="8" ry="8"/><text text-anchor="middle" fill="#FFF" x="35" y="-10">239</text></a><g transform="translate(0,-30)"><g><a target="_top" xlink:href="dtp-slice0-step2628000-ofs19-col30-cat1.html"><rect style="display:none" class="hcell-act-col30-cat1" fill="#F0AD4E" stroke="#000" stroke-width="5" width="70" height="31" x="0" y="-36" rx="8" ry="8"/><rect class="hcell-col30-cat1" fill="#F0AD4E" stroke="#DDD" width="70" height="41" x="0" y="-41" rx="8" ry="8"/><text text-anchor="middle" fill="#FFF" x="35" y="-21">496</text></a><g transform="translate(0,-41)"><g><a target="_top" xlink:href="dtp-slice0-step2628000-ofs19-col30-cat2.html"><rect style="display:none" class="hcell-act-col30-cat2" fill="#5CB85C" stroke="#000" stroke-width="5" width="70" height="60" x="0" y="-65" rx="8" ry="8"/><rect class="hcell-col30-cat2" fill="#5CB85C" stroke="#DDD" width="70" height="70" x="0" y="-70" rx="8" ry="8"/><text text-anchor="middle" fill="#FFF" x="35" y="-50">845</text></a><g transform="translate(0,-70)"><g><a target="_top" xlink:href="dtp-slice0-step2628000-ofs19-col30-cat0.html"><rect style="display:none" class="hcell-act-col30-cat0" fill="#D9534F" stroke="#000" stroke-width="5" width="70" height="106" x="0" y="-111" rx="8" ry="8"/><rect class="hcell-col30-cat0" fill="#D9534F" stroke="#DDD" width="70" height="116" x="0" y="-116" rx="8" ry="8"/><text text-anchor="middle" fill="#FFF" x="35" y="-96">1394</text></a></g></g></g></g></g></g></g></g></g></g></g></g><rect fill="none" stroke="#DDD" width="70" height="30" rx="8" ry="8" x="885" y="459"/><text text-anchor="middle" fill="#333" x="920" y="479">14-12</text><g transform="translate(885,499)"><g><a target="_top" xlink:href="dtp-slice0-step2628000-ofs19-col30-cat4.html"><rect style="display:none" class="hcell-act-col30-cat4" fill="#337AB7" stroke="#000" stroke-width="5" width="70" height="20" x="0" y="5" rx="8" ry="8"/><rect class="hcell-col30-cat4" fill="#337AB7" stroke="#DDD" width="70" height="30" x="0" y="0" rx="8" ry="8"/><text text-anchor="middle" fill="#FFF" x="35" y="20">-78</text></a></g></g></g><g><g transform="translate(965,449)"><g><a target="_top" xlink:href="dtp-slice0-step2628000-ofs19-col31-cat2.html"><rect style="display:none" class="hcell-act-col31-cat2" fill="#5CB85C" stroke="#000" stroke-width="5" width="70" height="20" x="0" y="-25" rx="8" ry="8"/><rect class="hcell-col31-cat2" fill="#5CB85C" stroke="#DDD" width="70" height="30" x="0" y="-30" rx="8" ry="8"/><text text-anchor="middle" fill="#FFF" x="35" y="-10">107</text></a><g transform="translate(0,-30)"><g><a target="_top" xlink:href="dtp-slice0-step2628000-ofs19-col31-cat3.html"><rect style="display:none" class="hcell-act-col31-cat3" fill="#5BC0DE" stroke="#000" stroke-width="5" width="70" height="20" x="0" y="-25" rx="8" ry="8"/><rect class="hcell-col31-cat3" fill="#5BC0DE" stroke="#DDD" width="70" height="30" x="0" y="-30" rx="8" ry="8"/><text text-anchor="middle" fill="#FFF" x="35" y="-10">184</text></a><g transform="translate(0,-30)"><g><a target="_top" xlink:href="dtp-slice0-step2628000-ofs19-col31-cat4.html"><rect style="display:none" class="hcell-act-col31-cat4" fill="#337AB7" stroke="#000" stroke-width="5" width="70" height="33" x="0" y="-38" rx="8" ry="8"/><rect class="hcell-col31-cat4" fill="#337AB7" stroke="#DDD" width="70" height="43" x="0" y="-43" rx="8" ry="8"/><text text-anchor="middle" fill="#FFF" x="35" y="-23">519</text></a><g transform="translate(0,-43)"><g><a target="_top" xlink:href="dtp-slice0-step2628000-ofs19-col31-cat1.html"><rect style="display:none" class="hcell-act-col31-cat1" fill="#F0AD4E" stroke="#000" stroke-width="5" width="70" height="81" x="0" y="-86" rx="8" ry="8"/><rect class="hcell-col31-cat1" fill="#F0AD4E" stroke="#DDD" width="70" height="91" x="0" y="-91" rx="8" ry="8"/><text text-anchor="middle" fill="#FFF" x="35" y="-71">1103</text></a><g transform="translate(0,-91)"><g><a target="_top" xlink:href="dtp-slice0-step2628000-ofs19-col31-cat0.html"><rect style="display:none" class="hcell-act-col31-cat0" fill="#D9534F" stroke="#000" stroke-width="5" width="70" height="171" x="0" y="-176" rx="8" ry="8"/><rect class="hcell-col31-cat0" fill="#D9534F" stroke="#DDD" width="70" height="181" x="0" y="-181" rx="8" ry="8"/><text text-anchor="middle" fill="#FFF" x="35" y="-161">2176</text></a></g></g></g></g></g></g></g></g></g></g><rect fill="none" stroke="#DDD" width="70" height="30" rx="8" ry="8" x="965" y="459"/><text text-anchor="middle" fill="#333" x="1000" y="479">15-01</text><g transform="translate(965,499)"></g></g><g><g transform="translate(1045,449)"><g><a target="_top" xlink:href="dtp-slice0-step2628000-ofs19-col32-cat3.html"><rect style="display:none" class="hcell-act-col32-cat3" fill="#5BC0DE" stroke="#000" stroke-width="5" width="70" height="20" x="0" y="-25" rx="8" ry="8"/><rect class="hcell-col32-cat3" fill="#5BC0DE" stroke="#DDD" width="70" height="30" x="0" y="-30" rx="8" ry="8"/><text text-anchor="middle" fill="#FFF" x="35" y="-10">13</text></a><g transform="translate(0,-30)"><g><a target="_top" xlink:href="dtp-slice0-step2628000-ofs19-col32-cat2.html"><rect style="display:none" class="hcell-act-col32-cat2" fill="#5CB85C" stroke="#000" stroke-width="5" width="70" height="20" x="0" y="-25" rx="8" ry="8"/><rect class="hcell-col32-cat2" fill="#5CB85C" stroke="#DDD" width="70" height="30" x="0" y="-30" rx="8" ry="8"/><text text-anchor="middle" fill="#FFF" x="35" y="-10">34</text></a><g transform="translate(0,-30)"><g><a target="_top" xlink:href="dtp-slice0-step2628000-ofs19-col32-cat5.html"><rect style="display:none" class="hcell-act-col32-cat5" fill="#777" stroke="#000" stroke-width="5" width="70" height="20" x="0" y="-25" rx="8" ry="8"/><rect class="hcell-col32-cat5" fill="#777" stroke="#DDD" width="70" height="30" x="0" y="-30" rx="8" ry="8"/><text text-anchor="middle" fill="#FFF" x="35" y="-10">42</text></a><g transform="translate(0,-30)"><g><a target="_top" xlink:href="dtp-slice0-step2628000-ofs19-col32-cat4.html"><rect style="display:none" class="hcell-act-col32-cat4" fill="#337AB7" stroke="#000" stroke-width="5" width="70" height="20" x="0" y="-25" rx="8" ry="8"/><rect class="hcell-col32-cat4" fill="#337AB7" stroke="#DDD" width="70" height="30" x="0" y="-30" rx="8" ry="8"/><text text-anchor="middle" fill="#FFF" x="35" y="-10">278</text></a><g transform="translate(0,-30)"><g><a target="_top" xlink:href="dtp-slice0-step2628000-ofs19-col32-cat1.html"><rect style="display:none" class="hcell-act-col32-cat1" fill="#F0AD4E" stroke="#000" stroke-width="5" width="70" height="29" x="0" y="-34" rx="8" ry="8"/><rect class="hcell-col32-cat1" fill="#F0AD4E" stroke="#DDD" width="70" height="39" x="0" y="-39" rx="8" ry="8"/><text text-anchor="middle" fill="#FFF" x="35" y="-19">478</text></a><g transform="translate(0,-39)"><g><a target="_top" xlink:href="dtp-slice0-step2628000-ofs19-col32-cat0.html"><rect style="display:none" class="hcell-act-col32-cat0" fill="#D9534F" stroke="#000" stroke-width="5" width="70" height="94" x="0" y="-99" rx="8" ry="8"/><rect class="hcell-col32-cat0" fill="#D9534F" stroke="#DDD" width="70" height="104" x="0" y="-104" rx="8" ry="8"/><text text-anchor="middle" fill="#FFF" x="35" y="-84">1249</text></a></g></g></g></g></g></g></g></g></g></g></g></g><rect fill="none" stroke="#DDD" width="70" height="30" rx="8" ry="8" x="1045" y="459"/><text text-anchor="middle" fill="#333" x="1080" y="479">15-03</text><g transform="translate(1045,499)"></g></g><g><g transform="translate(1125,449)"><g><a target="_top" xlink:href="dtp-slice0-step2628000-ofs19-col33-cat5.html"><rect style="display:none" class="hcell-act-col33-cat5" fill="#777" stroke="#000" stroke-width="5" width="70" height="20" x="0" y="-25" rx="8" ry="8"/><rect class="hcell-col33-cat5" fill="#777" stroke="#DDD" width="70" height="30" x="0" y="-30" rx="8" ry="8"/><text text-anchor="middle" fill="#FFF" x="35" y="-10">45</text></a><g transform="translate(0,-30)"><g><a target="_top" xlink:href="dtp-slice0-step2628000-ofs19-col33-cat3.html"><rect style="display:none" class="hcell-act-col33-cat3" fill="#5BC0DE" stroke="#000" stroke-width="5" width="70" height="20" x="0" y="-25" rx="8" ry="8"/><rect class="hcell-col33-cat3" fill="#5BC0DE" stroke="#DDD" width="70" height="30" x="0" y="-30" rx="8" ry="8"/><text text-anchor="middle" fill="#FFF" x="35" y="-10">84</text></a><g transform="translate(0,-30)"><g><a target="_top" xlink:href="dtp-slice0-step2628000-ofs19-col33-cat2.html"><rect style="display:none" class="hcell-act-col33-cat2" fill="#5CB85C" stroke="#000" stroke-width="5" width="70" height="20" x="0" y="-25" rx="8" ry="8"/><rect class="hcell-col33-cat2" fill="#5CB85C" stroke="#DDD" width="70" height="30" x="0" y="-30" rx="8" ry="8"/><text text-anchor="middle" fill="#FFF" x="35" y="-10">235</text></a><g transform="translate(0,-30)"><g><a target="_top" xlink:href="dtp-slice0-step2628000-ofs19-col33-cat4.html"><rect style="display:none" class="hcell-act-col33-cat4" fill="#337AB7" stroke="#000" stroke-width="5" width="70" height="20" x="0" y="-25" rx="8" ry="8"/><rect class="hcell-col33-cat4" fill="#337AB7" stroke="#DDD" width="70" height="30" x="0" y="-30" rx="8" ry="8"/><text text-anchor="middle" fill="#FFF" x="35" y="-10">317</text></a><g transform="translate(0,-30)"><g><a target="_top" xlink:href="dtp-slice0-step2628000-ofs19-col33-cat1.html"><rect style="display:none" class="hcell-act-col33-cat1" fill="#F0AD4E" stroke="#000" stroke-width="5" width="70" height="40" x="0" y="-45" rx="8" ry="8"/><rect class="hcell-col33-cat1" fill="#F0AD4E" stroke="#DDD" width="70" height="50" x="0" y="-50" rx="8" ry="8"/><text text-anchor="middle" fill="#FFF" x="35" y="-30">602</text></a><g transform="translate(0,-50)"><g><a target="_top" xlink:href="dtp-slice0-step2628000-ofs19-col33-cat0.html"><rect style="display:none" class="hcell-act-col33-cat0" fill="#D9534F" stroke="#000" stroke-width="5" width="70" height="132" x="0" y="-137" rx="8" ry="8"/><rect class="hcell-col33-cat0" fill="#D9534F" stroke="#DDD" width="70" height="142" x="0" y="-142" rx="8" ry="8"/><text text-anchor="middle" fill="#FFF" x="35" y="-122">1710</text></a></g></g></g></g></g></g></g></g></g></g></g></g><rect fill="none" stroke="#DDD" width="70" height="30" rx="8" ry="8" x="1125" y="459"/><text text-anchor="middle" fill="#333" x="1160" y="479">15-04</text><g transform="translate(1125,499)"><g><a target="_top" xlink:href="dtp-slice0-step2628000-ofs19-col33-cat4.html"><rect style="display:none" class="hcell-act-col33-cat4" fill="#337AB7" stroke="#000" stroke-width="5" width="70" height="20" x="0" y="5" rx="8" ry="8"/><rect class="hcell-col33-cat4" fill="#337AB7" stroke="#DDD" width="70" height="30" x="0" y="0" rx="8" ry="8"/><text text-anchor="middle" fill="#FFF" x="35" y="20">-33</text></a></g></g></g><g><g transform="translate(1205,449)"></g><rect fill="none" stroke="#DDD" width="70" height="30" rx="8" ry="8" x="1205" y="459"/><text text-anchor="middle" fill="#333" x="1240" y="479">15-05</text><g transform="translate(1205,499)"></g></g></svg>