<svg xmlns="http://www.w3.org/2000/svg" xmlns:xlink="http://www.w3.org/1999/xlink" width="100%" height="100%" viewBox="0 0 1280 459"><g><g transform="translate(5,136)"></g><rect fill="none" stroke="#DDD" width="70" height="30" rx="8" ry="8" x="5" y="146"/><text text-anchor="middle" fill="#333" x="40" y="166">14-01</text><g transform="translate(5,186)"></g></g><g><g transform="translate(85,136)"></g><rect fill="none" stroke="#DDD" width="70" height="30" rx="8" ry="8" x="85" y="146"/><text text-anchor="middle" fill="#333" x="120" y="166">14-03</text><g transform="translate(85,186)"></g></g><g><g transform="translate(165,136)"></g><rect fill="none" stroke="#DDD" width="70" height="30" rx="8" ry="8" x="165" y="146"/><text text-anchor="middle" fill="#333" x="200" y="166">14-04</text><g transform="translate(165,186)"></g></g><g><g transform="translate(245,136)"></g><rect fill="none" stroke="#DDD" width="70" height="30" rx="8" ry="8" x="245" y="146"/><text text-anchor="middle" fill="#333" x="280" y="166">14-05</text><g transform="translate(245,186)"></g></g><g><g transform="translate(325,136)"></g><rect fill="none" stroke="#DDD" width="70" height="30" rx="8" ry="8" x="325" y="146"/><text text-anchor="middle" fill="#333" x="360" y="166">14-06</text><g transform="translate(325,186)"></g></g><g><g transform="translate(405,136)"></g><rect fill="none" stroke="#DDD" width="70" height="30" rx="8" ry="8" x="405" y="146"/><text text-anchor="middle" fill="#333" x="440" y="166">14-07</text><g transform="translate(405,186)"></g></g><g><g transform="translate(485,136)"></g><rect fill="none" stroke="#DDD" width="70" height="30" rx="8" ry="8" x="485" y="146"/><text text-anchor="middle" fill="#333" x="520" y="166">14-08</text><g transform="translate(485,186)"><g><a target="_top" xlink:href="dtp-sliceTagFood-step2628000-ofs19-col25-cat0.html"><rect style="display:none" class="hcell-act-col25-cat0" fill="#777" stroke="#000" stroke-width="5" width="70" height="130" x="0" y="5" rx="8" ry="8"/><rect class="hcell-col25-cat0" fill="#777" stroke="#DDD" width="70" height="140" x="0" y="0" rx="8" ry="8"/><text text-anchor="middle" fill="#FFF" x="35" y="20">-368</text></a></g></g></g><g><g transform="translate(565,136)"><g><a target="_top" xlink:href="dtp-sliceTagFood-step2628000-ofs19-col26-cat0.html"><rect style="display:none" class="hcell-act-col26-cat0" fill="#777" stroke="#000" stroke-width="5" width="70" height="20" x="0" y="-25" rx="8" ry="8"/><rect class="hcell-col26-cat0" fill="#777" stroke="#DDD" width="70" height="30" x="0" y="-30" rx="8" ry="8"/><text text-anchor="middle" fill="#FFF" x="35" y="-10">17</text></a></g></g><rect fill="none" stroke="#DDD" width="70" height="30" rx="8" ry="8" x="565" y="146"/><text text-anchor="middle" fill="#333" x="600" y="166">14-08</text><g transform="translate(565,186)"></g></g><g><g transform="translate(645,136)"><g><a target="_top" xlink:href="dtp-sliceTagFood-step2628000-ofs19-col27-cat0.html"><rect style="display:none" class="hcell-act-col27-cat0" fill="#777" stroke="#000" stroke-width="5" width="70" height="20" x="0" y="-25" rx="8" ry="8"/><rect class="hcell-col27-cat0" fill="#777" stroke="#DDD" width="70" height="30" x="0" y="-30" rx="8" ry="8"/><text text-anchor="middle" fill="#FFF" x="35" y="-10">3</text></a></g></g><rect fill="none" stroke="#DDD" width="70" height="30" rx="8" ry="8" x="645" y="146"/><text text-anchor="middle" fill="#333" x="680" y="166">14-10</text><g transform="translate(645,186)"></g></g><g><g transform="translate(725,136)"></g><rect fill="none" stroke="#DDD" width="70" height="30" rx="8" ry="8" x="725" y="146"/><text text-anchor="middle" fill="#333" x="760" y="166">14-10</text><g transform="translate(725,186)"><g><a target="_top" xlink:href="dtp-sliceTagFood-step2628000-ofs19-col28-cat0.html"><rect style="display:none" class="hcell-act-col28-cat0" fill="#777" stroke="#000" stroke-width="5" width="70" height="83" x="0" y="5" rx="8" ry="8"/><rect class="hcell-col28-cat0" fill="#777" stroke="#DDD" width="70" height="93" x="0" y="0" rx="8" ry="8"/><text text-anchor="middle" fill="#FFF" x="35" y="20">-244</text></a></g></g></g><g><g transform="translate(805,136)"></g><rect fill="none" stroke="#DDD" width="70" height="30" rx="8" ry="8" x="805" y="146"/><text text-anchor="middle" fill="#333" x="840" y="166">14-12</text><g transform="translate(805,186)"><g><a target="_top" xlink:href="dtp-sliceTagFood-step2628000-ofs19-col29-cat0.html"><rect style="display:none" class="hcell-act-col29-cat0" fill="#777" stroke="#000" stroke-width="5" width="70" height="22" x="0" y="5" rx="8" ry="8"/><rect class="hcell-col29-cat0" fill="#777" stroke="#DDD" width="70" height="32" x="0" y="0" rx="8" ry="8"/><text text-anchor="middle" fill="#FFF" x="35" y="20">-84</text></a></g></g></g><g><g transform="translate(885,136)"></g><rect fill="none" stroke="#DDD" width="70" height="30" rx="8" ry="8" x="885" y="146"/><text text-anchor="middle" fill="#333" x="920" y="166">14-12</text><g transform="translate(885,186)"><g><a target="_top" xlink:href="dtp-sliceTagFood-step2628000-ofs19-col30-cat0.html"><rect style="display:none" class="hcell-act-col30-cat0" fill="#777" stroke="#000" stroke-width="5" width="70" height="80" x="0" y="5" rx="8" ry="8"/><rect class="hcell-col30-cat0" fill="#777" stroke="#DDD" width="70" height="90" x="0" y="0" rx="8" ry="8"/><text text-anchor="middle" fill="#FFF" x="35" y="20">-237</text></a></g></g></g><g><g transform="translate(965,136)"><g><a target="_top" xlink:href="dtp-sliceTagFood-step2628000-ofs19-col31-cat0.html"><rect style="display:none" class="hcell-act-col31-cat0" fill="#777" stroke="#000" stroke-width="5" width="70" height="121" x="0" y="-126" rx="8" ry="8"/><rect class="hcell-col31-cat0" fill="#777" stroke="#DDD" width="70" height="131" x="0" y="-131" rx="8" ry="8"/><text text-anchor="middle" fill="#FFF" x="35" y="-111">344</text></a></g></g><rect fill="none" stroke="#DDD" width="70" height="30" rx="8" ry="8" x="965" y="146"/><text text-anchor="middle" fill="#333" x="1000" y="166">15-01</text><g transform="translate(965,186)"></g></g><g><g transform="translate(1045,136)"></g><rect fill="none" stroke="#DDD" width="70" height="30" rx="8" ry="8" x="1045" y="146"/><text text-anchor="middle" fill="#333" x="1080" y="166">15-03</text><g transform="translate(1045,186)"><g><a target="_top" xlink:href="dtp-sliceTagFood-step2628000-ofs19-col32-cat0.html"><rect style="display:none" class="hcell-act-col32-cat0" fill="#777" stroke="#000" stroke-width="5" width="70" height="81" x="0" y="5" rx="8" ry="8"/><rect class="hcell-col32-cat0" fill="#777" stroke="#DDD" width="70" height="91" x="0" y="0" rx="8" ry="8"/><text text-anchor="middle" fill="#FFF" x="35" y="20">-240</text></a></g></g></g><g><g transform="translate(1125,136)"></g><rect fill="none" stroke="#DDD" width="70" height="30" rx="8" ry="8" x="1125" y="146"/><text text-anchor="middle" fill="#333" x="1160" y="166">15-04</text><g transform="translate(1125,186)"><g><a target="_top" xlink:href="dtp-sliceTagFood-step2628000-ofs19-col33-cat0.html"><rect style="display:none" class="hcell-act-col33-cat0" fill="#777" stroke="#000" stroke-width="5" width="70" height="40" x="0" y="5" rx="8" ry="8"/><rect class="hcell-col33-cat0" fill="#777" stroke="#DDD" width="70" height="50" x="0" y="0" rx="8" ry="8"/><text text-anchor="middle" fill="#FFF" x="35" y="20">-132</text></a></g></g></g><g><g transform="translate(1205,136)"></g><rect fill="none" stroke="#DDD" width="70" height="30" rx="8" ry="8" x="1205" y="146"/><text text-anchor="middle" fill="#333" x="1240" y="166">15-05</text><g transform="translate(1205,186)"><g><a target="_top" xlink:href="dtp-sliceTagFood-step2628000-ofs19-col34-cat0.html"><rect style="display:none" class="hcell-act-col34-cat0" fill="#777" stroke="#000" stroke-width="5" width="70" height="258" x="0" y="5" rx="8" ry="8"/><rect class="hcell-col34-cat0" fill="#777" stroke="#DDD" width="70" height="268" x="0" y="0" rx="8" ry="8"/><text text-anchor="middle" fill="#FFF" x="35" y="20">-700</text></a></g></g></g></svg>