<svg xmlns="http://www.w3.org/2000/svg" xmlns:xlink="http://www.w3.org/1999/xlink" width="100%" height="100%" viewBox="0 0 1280 459"><g><g transform="translate(5,289)"></g><rect fill="none" stroke="#DDD" width="70" height="30" rx="8" ry="8" x="5" y="299"/><text text-anchor="middle" fill="#333" x="40" y="319">14-01</text><g transform="translate(5,339)"></g></g><g><g transform="translate(85,289)"></g><rect fill="none" stroke="#DDD" width="70" height="30" rx="8" ry="8" x="85" y="299"/><text text-anchor="middle" fill="#333" x="120" y="319">14-03</text><g transform="translate(85,339)"></g></g><g><g transform="translate(165,289)"></g><rect fill="none" stroke="#DDD" width="70" height="30" rx="8" ry="8" x="165" y="299"/><text text-anchor="middle" fill="#333" x="200" y="319">14-04</text><g transform="translate(165,339)"></g></g><g><g transform="translate(245,289)"></g><rect fill="none" stroke="#DDD" width="70" height="30" rx="8" ry="8" x="245" y="299"/><text text-anchor="middle" fill="#333" x="280" y="319">14-05</text><g transform="translate(245,339)"></g></g><g><g transform="translate(325,289)"></g><rect fill="none" stroke="#DDD" width="70" height="30" rx="8" ry="8" x="325" y="299"/><text text-anchor="middle" fill="#333" x="360" y="319">14-06</text><g transform="translate(325,339)"></g></g><g><g transform="translate(405,289)"></g><rect fill="none" stroke="#DDD" width="70" height="30" rx="8" ry="8" x="405" y="299"/><text text-anchor="middle" fill="#333" x="440" y="319">14-07</text><g transform="translate(405,339)"></g></g><g><g transform="translate(485,289)"></g><rect fill="none" stroke="#DDD" width="70" height="30" rx="8" ry="8" x="485" y="299"/><text text-anchor="middle" fill="#333" x="520" y="319">14-08</text><g transform="translate(485,339)"><g><a target="_top" xlink:href="dtp-sliceTagGames-step2628000-ofs19-col25-cat0.html"><rect style="display:none" class="hcell-act-col25-cat0" fill="#777" stroke="#000" stroke-width="5" width="70" height="29" x="0" y="5" rx="8" ry="8"/><rect class="hcell-col25-cat0" fill="#777" stroke="#DDD" width="70" height="39" x="0" y="0" rx="8" ry="8"/><text text-anchor="middle" fill="#FFF" x="35" y="20">-11</text></a></g></g></g><g><g transform="translate(565,289)"><g><a target="_top" xlink:href="dtp-sliceTagGames-step2628000-ofs19-col26-cat0.html"><rect style="display:none" class="hcell-act-col26-cat0" fill="#777" stroke="#000" stroke-width="5" width="70" height="59" x="0" y="-64" rx="8" ry="8"/><rect class="hcell-col26-cat0" fill="#777" stroke="#DDD" width="70" height="69" x="0" y="-69" rx="8" ry="8"/><text text-anchor="middle" fill="#FFF" x="35" y="-49">18</text></a></g></g><rect fill="none" stroke="#DDD" width="70" height="30" rx="8" ry="8" x="565" y="299"/><text text-anchor="middle" fill="#333" x="600" y="319">14-08</text><g transform="translate(565,339)"></g></g><g><g transform="translate(645,289)"></g><rect fill="none" stroke="#DDD" width="70" height="30" rx="8" ry="8" x="645" y="299"/><text text-anchor="middle" fill="#333" x="680" y="319">14-10</text><g transform="translate(645,339)"><g><a target="_top" xlink:href="dtp-sliceTagGames-step2628000-ofs19-col27-cat0.html"><rect style="display:none" class="hcell-act-col27-cat0" fill="#777" stroke="#000" stroke-width="5" width="70" height="20" x="0" y="5" rx="8" ry="8"/><rect class="hcell-col27-cat0" fill="#777" stroke="#DDD" width="70" height="30" x="0" y="0" rx="8" ry="8"/><text text-anchor="middle" fill="#FFF" x="35" y="20">-5</text></a></g></g></g><g><g transform="translate(725,289)"></g><rect fill="none" stroke="#DDD" width="70" height="30" rx="8" ry="8" x="725" y="299"/><text text-anchor="middle" fill="#333" x="760" y="319">14-10</text><g transform="translate(725,339)"><g><a target="_top" xlink:href="dtp-sliceTagGames-step2628000-ofs19-col28-cat0.html"><rect style="display:none" class="hcell-act-col28-cat0" fill="#777" stroke="#000" stroke-width="5" width="70" height="105" x="0" y="5" rx="8" ry="8"/><rect class="hcell-col28-cat0" fill="#777" stroke="#DDD" width="70" height="115" x="0" y="0" rx="8" ry="8"/><text text-anchor="middle" fill="#FFF" x="35" y="20">-30</text></a></g></g></g><g><g transform="translate(805,289)"></g><rect fill="none" stroke="#DDD" width="70" height="30" rx="8" ry="8" x="805" y="299"/><text text-anchor="middle" fill="#333" x="840" y="319">14-12</text><g transform="translate(805,339)"><g><a target="_top" xlink:href="dtp-sliceTagGames-step2628000-ofs19-col29-cat0.html"><rect style="display:none" class="hcell-act-col29-cat0" fill="#777" stroke="#000" stroke-width="5" width="70" height="22" x="0" y="5" rx="8" ry="8"/><rect class="hcell-col29-cat0" fill="#777" stroke="#DDD" width="70" height="32" x="0" y="0" rx="8" ry="8"/><text text-anchor="middle" fill="#FFF" x="35" y="20">-9</text></a></g></g></g><g><g transform="translate(885,289)"><g><a target="_top" xlink:href="dtp-sliceTagGames-step2628000-ofs19-col30-cat0.html"><rect style="display:none" class="hcell-act-col30-cat0" fill="#777" stroke="#000" stroke-width="5" width="70" height="20" x="0" y="-25" rx="8" ry="8"/><rect class="hcell-col30-cat0" fill="#777" stroke="#DDD" width="70" height="30" x="0" y="-30" rx="8" ry="8"/><text text-anchor="middle" fill="#FFF" x="35" y="-10">1</text></a></g></g><rect fill="none" stroke="#DDD" width="70" height="30" rx="8" ry="8" x="885" y="299"/><text text-anchor="middle" fill="#333" x="920" y="319">14-12</text><g transform="translate(885,339)"></g></g><g><g transform="translate(965,289)"><g><a target="_top" xlink:href="dtp-sliceTagGames-step2628000-ofs19-col31-cat0.html"><rect style="display:none" class="hcell-act-col31-cat0" fill="#777" stroke="#000" stroke-width="5" width="70" height="274" x="0" y="-279" rx="8" ry="8"/><rect class="hcell-col31-cat0" fill="#777" stroke="#DDD" width="70" height="284" x="0" y="-284" rx="8" ry="8"/><text text-anchor="middle" fill="#FFF" x="35" y="-264">74</text></a></g></g><rect fill="none" stroke="#DDD" width="70" height="30" rx="8" ry="8" x="965" y="299"/><text text-anchor="middle" fill="#333" x="1000" y="319">15-01</text><g transform="translate(965,339)"></g></g><g><g transform="translate(1045,289)"><g><a target="_top" xlink:href="dtp-sliceTagGames-step2628000-ofs19-col32-cat0.html"><rect style="display:none" class="hcell-act-col32-cat0" fill="#777" stroke="#000" stroke-width="5" width="70" height="97" x="0" y="-102" rx="8" ry="8"/><rect class="hcell-col32-cat0" fill="#777" stroke="#DDD" width="70" height="107" x="0" y="-107" rx="8" ry="8"/><text text-anchor="middle" fill="#FFF" x="35" y="-87">28</text></a></g></g><rect fill="none" stroke="#DDD" width="70" height="30" rx="8" ry="8" x="1045" y="299"/><text text-anchor="middle" fill="#333" x="1080" y="319">15-03</text><g transform="translate(1045,339)"></g></g><g><g transform="translate(1125,289)"><g><a target="_top" xlink:href="dtp-sliceTagGames-step2628000-ofs19-col33-cat0.html"><rect style="display:none" class="hcell-act-col33-cat0" fill="#777" stroke="#000" stroke-width="5" width="70" height="97" x="0" y="-102" rx="8" ry="8"/><rect class="hcell-col33-cat0" fill="#777" stroke="#DDD" width="70" height="107" x="0" y="-107" rx="8" ry="8"/><text text-anchor="middle" fill="#FFF" x="35" y="-87">28</text></a></g></g><rect fill="none" stroke="#DDD" width="70" height="30" rx="8" ry="8" x="1125" y="299"/><text text-anchor="middle" fill="#333" x="1160" y="319">15-04</text><g transform="translate(1125,339)"></g></g><g><g transform="translate(1205,289)"></g><rect fill="none" stroke="#DDD" width="70" height="30" rx="8" ry="8" x="1205" y="299"/><text text-anchor="middle" fill="#333" x="1240" y="319">15-05</text><g transform="translate(1205,339)"><g><a target="_top" xlink:href="dtp-sliceTagGames-step2628000-ofs19-col34-cat0.html"><rect style="display:none" class="hcell-act-col34-cat0" fill="#777" stroke="#000" stroke-width="5" width="70" height="105" x="0" y="5" rx="8" ry="8"/><rect class="hcell-col34-cat0" fill="#777" stroke="#DDD" width="70" height="115" x="0" y="0" rx="8" ry="8"/><text text-anchor="middle" fill="#FFF" x="35" y="20">-30</text></a></g></g></g></svg>