<svg xmlns="http://www.w3.org/2000/svg" xmlns:xlink="http://www.w3.org/1999/xlink" width="100%" height="100%" viewBox="0 0 1280 470"><g><g transform="translate(5,385)"></g><rect fill="none" stroke="#DDD" width="70" height="30" rx="8" ry="8" x="5" y="395"/><text text-anchor="middle" fill="#333" x="40" y="415">12-07</text><g transform="translate(5,435)"><g><a target="_top" xlink:href="dtp-sliceTagPayment-step5605201-ofs0-col0-cat0.html"><rect style="display:none" class="hcell-act-col0-cat0" fill="#777" stroke="#000" stroke-width="5" width="70" height="20" x="0" y="5" rx="8" ry="8"/><rect class="hcell-col0-cat0" fill="#777" stroke="#DDD" width="70" height="30" x="0" y="0" rx="8" ry="8"/><text text-anchor="middle" fill="#FFF" x="35" y="20">-21</text></a></g></g></g><g><g transform="translate(85,385)"></g><rect fill="none" stroke="#DDD" width="70" height="30" rx="8" ry="8" x="85" y="395"/><text text-anchor="middle" fill="#333" x="120" y="415">12-09</text><g transform="translate(85,435)"><g><a target="_top" xlink:href="dtp-sliceTagPayment-step5605201-ofs0-col1-cat0.html"><rect style="display:none" class="hcell-act-col1-cat0" fill="#777" stroke="#000" stroke-width="5" width="70" height="20" x="0" y="5" rx="8" ry="8"/><rect class="hcell-col1-cat0" fill="#777" stroke="#DDD" width="70" height="30" x="0" y="0" rx="8" ry="8"/><text text-anchor="middle" fill="#FFF" x="35" y="20">-166</text></a></g></g></g><g><g transform="translate(165,385)"><g><a target="_top" xlink:href="dtp-sliceTagPayment-step5605201-ofs0-col2-cat0.html"><rect style="display:none" class="hcell-act-col2-cat0" fill="#777" stroke="#000" stroke-width="5" width="70" height="20" x="0" y="-25" rx="8" ry="8"/><rect class="hcell-col2-cat0" fill="#777" stroke="#DDD" width="70" height="30" x="0" y="-30" rx="8" ry="8"/><text text-anchor="middle" fill="#FFF" x="35" y="-10">11</text></a></g></g><rect fill="none" stroke="#DDD" width="70" height="30" rx="8" ry="8" x="165" y="395"/><text text-anchor="middle" fill="#333" x="200" y="415">12-11</text><g transform="translate(165,435)"><g><a target="_top" xlink:href="dtp-sliceTagPayment-step5605201-ofs0-col2-cat0.html"><rect style="display:none" class="hcell-act-col2-cat0" fill="#777" stroke="#000" stroke-width="5" width="70" height="20" x="0" y="5" rx="8" ry="8"/><rect class="hcell-col2-cat0" fill="#777" stroke="#DDD" width="70" height="30" x="0" y="0" rx="8" ry="8"/><text text-anchor="middle" fill="#FFF" x="35" y="20">-132</text></a></g></g></g><g><g transform="translate(245,385)"></g><rect fill="none" stroke="#DDD" width="70" height="30" rx="8" ry="8" x="245" y="395"/><text text-anchor="middle" fill="#333" x="280" y="415">13-01</text><g transform="translate(245,435)"><g><a target="_top" xlink:href="dtp-sliceTagPayment-step5605201-ofs0-col3-cat0.html"><rect style="display:none" class="hcell-act-col3-cat0" fill="#777" stroke="#000" stroke-width="5" width="70" height="20" x="0" y="5" rx="8" ry="8"/><rect class="hcell-col3-cat0" fill="#777" stroke="#DDD" width="70" height="30" x="0" y="0" rx="8" ry="8"/><text text-anchor="middle" fill="#FFF" x="35" y="20">-120</text></a></g></g></g><g><g transform="translate(325,385)"><g><a target="_top" xlink:href="dtp-sliceTagPayment-step5605201-ofs0-col4-cat0.html"><rect style="display:none" class="hcell-act-col4-cat0" fill="#777" stroke="#000" stroke-width="5" width="70" height="313" x="0" y="-318" rx="8" ry="8"/><rect class="hcell-col4-cat0" fill="#777" stroke="#DDD" width="70" height="323" x="0" y="-323" rx="8" ry="8"/><text text-anchor="middle" fill="#FFF" x="35" y="-303">2758</text></a></g></g><rect fill="none" stroke="#DDD" width="70" height="30" rx="8" ry="8" x="325" y="395"/><text text-anchor="middle" fill="#333" x="360" y="415">13-03</text><g transform="translate(325,435)"><g><a target="_top" xlink:href="dtp-sliceTagPayment-step5605201-ofs0-col4-cat0.html"><rect style="display:none" class="hcell-act-col4-cat0" fill="#777" stroke="#000" stroke-width="5" width="70" height="20" x="0" y="5" rx="8" ry="8"/><rect class="hcell-col4-cat0" fill="#777" stroke="#DDD" width="70" height="30" x="0" y="0" rx="8" ry="8"/><text text-anchor="middle" fill="#FFF" x="35" y="20">-113</text></a></g></g></g><g><g transform="translate(405,385)"><g><a target="_top" xlink:href="dtp-sliceTagPayment-step5605201-ofs0-col5-cat0.html"><rect style="display:none" class="hcell-act-col5-cat0" fill="#777" stroke="#000" stroke-width="5" width="70" height="125" x="0" y="-130" rx="8" ry="8"/><rect class="hcell-col5-cat0" fill="#777" stroke="#DDD" width="70" height="135" x="0" y="-135" rx="8" ry="8"/><text text-anchor="middle" fill="#FFF" x="35" y="-115">1157</text></a></g></g><rect fill="none" stroke="#DDD" width="70" height="30" rx="8" ry="8" x="405" y="395"/><text text-anchor="middle" fill="#333" x="440" y="415">13-05</text><g transform="translate(405,435)"><g><a target="_top" xlink:href="dtp-sliceTagPayment-step5605201-ofs0-col5-cat0.html"><rect style="display:none" class="hcell-act-col5-cat0" fill="#777" stroke="#000" stroke-width="5" width="70" height="20" x="0" y="5" rx="8" ry="8"/><rect class="hcell-col5-cat0" fill="#777" stroke="#DDD" width="70" height="30" x="0" y="0" rx="8" ry="8"/><text text-anchor="middle" fill="#FFF" x="35" y="20">-140</text></a></g></g></g><g><g transform="translate(485,385)"></g><rect fill="none" stroke="#DDD" width="70" height="30" rx="8" ry="8" x="485" y="395"/><text text-anchor="middle" fill="#333" x="520" y="415">13-07</text><g transform="translate(485,435)"><g><a target="_top" xlink:href="dtp-sliceTagPayment-step5605201-ofs0-col6-cat0.html"><rect style="display:none" class="hcell-act-col6-cat0" fill="#777" stroke="#000" stroke-width="5" width="70" height="20" x="0" y="5" rx="8" ry="8"/><rect class="hcell-col6-cat0" fill="#777" stroke="#DDD" width="70" height="30" x="0" y="0" rx="8" ry="8"/><text text-anchor="middle" fill="#FFF" x="35" y="20">-109</text></a></g></g></g><g><g transform="translate(565,385)"><g><a target="_top" xlink:href="dtp-sliceTagPayment-step5605201-ofs0-col7-cat0.html"><rect style="display:none" class="hcell-act-col7-cat0" fill="#777" stroke="#000" stroke-width="5" width="70" height="203" x="0" y="-208" rx="8" ry="8"/><rect class="hcell-col7-cat0" fill="#777" stroke="#DDD" width="70" height="213" x="0" y="-213" rx="8" ry="8"/><text text-anchor="middle" fill="#FFF" x="35" y="-193">1824</text></a></g></g><rect fill="none" stroke="#DDD" width="70" height="30" rx="8" ry="8" x="565" y="395"/><text text-anchor="middle" fill="#333" x="600" y="415">13-09</text><g transform="translate(565,435)"></g></g><g><g transform="translate(645,385)"><g><a target="_top" xlink:href="dtp-sliceTagPayment-step5605201-ofs0-col8-cat0.html"><rect style="display:none" class="hcell-act-col8-cat0" fill="#777" stroke="#000" stroke-width="5" width="70" height="235" x="0" y="-240" rx="8" ry="8"/><rect class="hcell-col8-cat0" fill="#777" stroke="#DDD" width="70" height="245" x="0" y="-245" rx="8" ry="8"/><text text-anchor="middle" fill="#FFF" x="35" y="-225">2097</text></a></g></g><rect fill="none" stroke="#DDD" width="70" height="30" rx="8" ry="8" x="645" y="395"/><text text-anchor="middle" fill="#333" x="680" y="415">13-12</text><g transform="translate(645,435)"><g><a target="_top" xlink:href="dtp-sliceTagPayment-step5605201-ofs0-col8-cat0.html"><rect style="display:none" class="hcell-act-col8-cat0" fill="#777" stroke="#000" stroke-width="5" width="70" height="20" x="0" y="5" rx="8" ry="8"/><rect class="hcell-col8-cat0" fill="#777" stroke="#DDD" width="70" height="30" x="0" y="0" rx="8" ry="8"/><text text-anchor="middle" fill="#FFF" x="35" y="20">-65</text></a></g></g></g><g><g transform="translate(725,385)"><g><a target="_top" xlink:href="dtp-sliceTagPayment-step5605201-ofs0-col9-cat0.html"><rect style="display:none" class="hcell-act-col9-cat0" fill="#777" stroke="#000" stroke-width="5" width="70" height="370" x="0" y="-375" rx="8" ry="8"/><rect class="hcell-col9-cat0" fill="#777" stroke="#DDD" width="70" height="380" x="0" y="-380" rx="8" ry="8"/><text text-anchor="middle" fill="#FFF" x="35" y="-360">3249</text></a></g></g><rect fill="none" stroke="#DDD" width="70" height="30" rx="8" ry="8" x="725" y="395"/><text text-anchor="middle" fill="#333" x="760" y="415">14-02</text><g transform="translate(725,435)"><g><a target="_top" xlink:href="dtp-sliceTagPayment-step5605201-ofs0-col9-cat0.html"><rect style="display:none" class="hcell-act-col9-cat0" fill="#777" stroke="#000" stroke-width="5" width="70" height="20" x="0" y="5" rx="8" ry="8"/><rect class="hcell-col9-cat0" fill="#777" stroke="#DDD" width="70" height="30" x="0" y="0" rx="8" ry="8"/><text text-anchor="middle" fill="#FFF" x="35" y="20">-144</text></a></g></g></g><g><g transform="translate(805,385)"><g><a target="_top" xlink:href="dtp-sliceTagPayment-step5605201-ofs0-col10-cat0.html"><rect style="display:none" class="hcell-act-col10-cat0" fill="#777" stroke="#000" stroke-width="5" width="70" height="262" x="0" y="-267" rx="8" ry="8"/><rect class="hcell-col10-cat0" fill="#777" stroke="#DDD" width="70" height="272" x="0" y="-272" rx="8" ry="8"/><text text-anchor="middle" fill="#FFF" x="35" y="-252">2325</text></a></g></g><rect fill="none" stroke="#DDD" width="70" height="30" rx="8" ry="8" x="805" y="395"/><text text-anchor="middle" fill="#333" x="840" y="415">14-04</text><g transform="translate(805,435)"><g><a target="_top" xlink:href="dtp-sliceTagPayment-step5605201-ofs0-col10-cat0.html"><rect style="display:none" class="hcell-act-col10-cat0" fill="#777" stroke="#000" stroke-width="5" width="70" height="20" x="0" y="5" rx="8" ry="8"/><rect class="hcell-col10-cat0" fill="#777" stroke="#DDD" width="70" height="30" x="0" y="0" rx="8" ry="8"/><text text-anchor="middle" fill="#FFF" x="35" y="20">-142</text></a></g></g></g><g><g transform="translate(885,385)"><g><a target="_top" xlink:href="dtp-sliceTagPayment-step5605201-ofs0-col11-cat0.html"><rect style="display:none" class="hcell-act-col11-cat0" fill="#777" stroke="#000" stroke-width="5" width="70" height="20" x="0" y="-25" rx="8" ry="8"/><rect class="hcell-col11-cat0" fill="#777" stroke="#DDD" width="70" height="30" x="0" y="-30" rx="8" ry="8"/><text text-anchor="middle" fill="#FFF" x="35" y="-10">89</text></a></g></g><rect fill="none" stroke="#DDD" width="70" height="30" rx="8" ry="8" x="885" y="395"/><text text-anchor="middle" fill="#333" x="920" y="415">14-06</text><g transform="translate(885,435)"><g><a target="_top" xlink:href="dtp-sliceTagPayment-step5605201-ofs0-col11-cat0.html"><rect style="display:none" class="hcell-act-col11-cat0" fill="#777" stroke="#000" stroke-width="5" width="70" height="20" x="0" y="5" rx="8" ry="8"/><rect class="hcell-col11-cat0" fill="#777" stroke="#DDD" width="70" height="30" x="0" y="0" rx="8" ry="8"/><text text-anchor="middle" fill="#FFF" x="35" y="20">-74</text></a></g></g></g><g><g transform="translate(965,385)"></g><rect fill="none" stroke="#DDD" width="70" height="30" rx="8" ry="8" x="965" y="395"/><text text-anchor="middle" fill="#333" x="1000" y="415">14-08</text><g transform="translate(965,435)"></g></g><g><g transform="translate(1045,385)"></g><rect fill="none" stroke="#DDD" width="70" height="30" rx="8" ry="8" x="1045" y="395"/><text text-anchor="middle" fill="#333" x="1080" y="415">14-10</text><g transform="translate(1045,435)"></g></g><g><g transform="translate(1125,385)"></g><rect fill="none" stroke="#DDD" width="70" height="30" rx="8" ry="8" x="1125" y="395"/><text text-anchor="middle" fill="#333" x="1160" y="415">14-12</text><g transform="translate(1125,435)"></g></g><g><g transform="translate(1205,385)"></g><rect fill="none" stroke="#DDD" width="70" height="30" rx="8" ry="8" x="1205" y="395"/><text text-anchor="middle" fill="#333" x="1240" y="415">15-03</text><g transform="translate(1205,435)"></g></g></svg>