<svg xmlns="http://www.w3.org/2000/svg" xmlns:xlink="http://www.w3.org/1999/xlink" width="100%" height="100%" viewBox="0 0 1280 459"><g><g transform="translate(5,404)"></g><rect fill="none" stroke="#DDD" width="70" height="30" rx="8" ry="8" x="5" y="414"/><text text-anchor="middle" fill="#333" x="40" y="434">14-01</text><g transform="translate(5,454)"></g></g><g><g transform="translate(85,404)"></g><rect fill="none" stroke="#DDD" width="70" height="30" rx="8" ry="8" x="85" y="414"/><text text-anchor="middle" fill="#333" x="120" y="434">14-03</text><g transform="translate(85,454)"></g></g><g><g transform="translate(165,404)"></g><rect fill="none" stroke="#DDD" width="70" height="30" rx="8" ry="8" x="165" y="414"/><text text-anchor="middle" fill="#333" x="200" y="434">14-04</text><g transform="translate(165,454)"></g></g><g><g transform="translate(245,404)"></g><rect fill="none" stroke="#DDD" width="70" height="30" rx="8" ry="8" x="245" y="414"/><text text-anchor="middle" fill="#333" x="280" y="434">14-05</text><g transform="translate(245,454)"></g></g><g><g transform="translate(325,404)"></g><rect fill="none" stroke="#DDD" width="70" height="30" rx="8" ry="8" x="325" y="414"/><text text-anchor="middle" fill="#333" x="360" y="434">14-06</text><g transform="translate(325,454)"></g></g><g><g transform="translate(405,404)"></g><rect fill="none" stroke="#DDD" width="70" height="30" rx="8" ry="8" x="405" y="414"/><text text-anchor="middle" fill="#333" x="440" y="434">14-07</text><g transform="translate(405,454)"></g></g><g><g transform="translate(485,404)"><g><a target="_top" xlink:href="dtp-slice3-step2628000-ofs19-col25-cat2.html"><rect style="display:none" class="hcell-act-col25-cat2" fill="#337AB7" stroke="#000" stroke-width="5" width="70" height="167" x="0" y="-172" rx="8" ry="8"/><rect class="hcell-col25-cat2" fill="#337AB7" stroke="#DDD" width="70" height="177" x="0" y="-177" rx="8" ry="8"/><text text-anchor="middle" fill="#FFF" x="35" y="-157">66</text></a><g transform="translate(0,-177)"><g><a target="_top" xlink:href="dtp-slice3-step2628000-ofs19-col25-cat1.html"><rect style="display:none" class="hcell-act-col25-cat1" fill="#5BC0DE" stroke="#000" stroke-width="5" width="70" height="212" x="0" y="-217" rx="8" ry="8"/><rect class="hcell-col25-cat1" fill="#5BC0DE" stroke="#DDD" width="70" height="222" x="0" y="-222" rx="8" ry="8"/><text text-anchor="middle" fill="#FFF" x="35" y="-202">83</text></a></g></g></g></g><rect fill="none" stroke="#DDD" width="70" height="30" rx="8" ry="8" x="485" y="414"/><text text-anchor="middle" fill="#333" x="520" y="434">14-08</text><g transform="translate(485,454)"></g></g><g><g transform="translate(565,404)"></g><rect fill="none" stroke="#DDD" width="70" height="30" rx="8" ry="8" x="565" y="414"/><text text-anchor="middle" fill="#333" x="600" y="434">14-08</text><g transform="translate(565,454)"></g></g><g><g transform="translate(645,404)"></g><rect fill="none" stroke="#DDD" width="70" height="30" rx="8" ry="8" x="645" y="414"/><text text-anchor="middle" fill="#333" x="680" y="434">14-10</text><g transform="translate(645,454)"></g></g><g><g transform="translate(725,404)"></g><rect fill="none" stroke="#DDD" width="70" height="30" rx="8" ry="8" x="725" y="414"/><text text-anchor="middle" fill="#333" x="760" y="434">14-10</text><g transform="translate(725,454)"></g></g><g><g transform="translate(805,404)"></g><rect fill="none" stroke="#DDD" width="70" height="30" rx="8" ry="8" x="805" y="414"/><text text-anchor="middle" fill="#333" x="840" y="434">14-12</text><g transform="translate(805,454)"></g></g><g><g transform="translate(885,404)"></g><rect fill="none" stroke="#DDD" width="70" height="30" rx="8" ry="8" x="885" y="414"/><text text-anchor="middle" fill="#333" x="920" y="434">14-12</text><g transform="translate(885,454)"></g></g><g><g transform="translate(965,404)"></g><rect fill="none" stroke="#DDD" width="70" height="30" rx="8" ry="8" x="965" y="414"/><text text-anchor="middle" fill="#333" x="1000" y="434">15-01</text><g transform="translate(965,454)"></g></g><g><g transform="translate(1045,404)"></g><rect fill="none" stroke="#DDD" width="70" height="30" rx="8" ry="8" x="1045" y="414"/><text text-anchor="middle" fill="#333" x="1080" y="434">15-03</text><g transform="translate(1045,454)"></g></g><g><g transform="translate(1125,404)"></g><rect fill="none" stroke="#DDD" width="70" height="30" rx="8" ry="8" x="1125" y="414"/><text text-anchor="middle" fill="#333" x="1160" y="434">15-04</text><g transform="translate(1125,454)"></g></g><g><g transform="translate(1205,404)"></g><rect fill="none" stroke="#DDD" width="70" height="30" rx="8" ry="8" x="1205" y="414"/><text text-anchor="middle" fill="#333" x="1240" y="434">15-05</text><g transform="translate(1205,454)"></g></g></svg>