<svg xmlns="http://www.w3.org/2000/svg" xmlns:xlink="http://www.w3.org/1999/xlink" width="100%" height="100%" viewBox="0 0 1280 473"><g><g transform="translate(5,358)"></g><rect fill="none" stroke="#DDD" width="70" height="30" rx="8" ry="8" x="5" y="368"/><text text-anchor="middle" fill="#333" x="40" y="388">12-07</text><g transform="translate(5,408)"></g></g><g><g transform="translate(85,358)"></g><rect fill="none" stroke="#DDD" width="70" height="30" rx="8" ry="8" x="85" y="368"/><text text-anchor="middle" fill="#333" x="120" y="388">12-09</text><g transform="translate(85,408)"></g></g><g><g transform="translate(165,358)"></g><rect fill="none" stroke="#DDD" width="70" height="30" rx="8" ry="8" x="165" y="368"/><text text-anchor="middle" fill="#333" x="200" y="388">12-11</text><g transform="translate(165,408)"></g></g><g><g transform="translate(245,358)"></g><rect fill="none" stroke="#DDD" width="70" height="30" rx="8" ry="8" x="245" y="368"/><text text-anchor="middle" fill="#333" x="280" y="388">13-01</text><g transform="translate(245,408)"></g></g><g><g transform="translate(325,358)"></g><rect fill="none" stroke="#DDD" width="70" height="30" rx="8" ry="8" x="325" y="368"/><text text-anchor="middle" fill="#333" x="360" y="388">13-03</text><g transform="translate(325,408)"></g></g><g><g transform="translate(405,358)"></g><rect fill="none" stroke="#DDD" width="70" height="30" rx="8" ry="8" x="405" y="368"/><text text-anchor="middle" fill="#333" x="440" y="388">13-05</text><g transform="translate(405,408)"></g></g><g><g transform="translate(485,358)"></g><rect fill="none" stroke="#DDD" width="70" height="30" rx="8" ry="8" x="485" y="368"/><text text-anchor="middle" fill="#333" x="520" y="388">13-07</text><g transform="translate(485,408)"></g></g><g><g transform="translate(565,358)"></g><rect fill="none" stroke="#DDD" width="70" height="30" rx="8" ry="8" x="565" y="368"/><text text-anchor="middle" fill="#333" x="600" y="388">13-09</text><g transform="translate(565,408)"></g></g><g><g transform="translate(645,358)"></g><rect fill="none" stroke="#DDD" width="70" height="30" rx="8" ry="8" x="645" y="368"/><text text-anchor="middle" fill="#333" x="680" y="388">13-12</text><g transform="translate(645,408)"></g></g><g><g transform="translate(725,358)"></g><rect fill="none" stroke="#DDD" width="70" height="30" rx="8" ry="8" x="725" y="368"/><text text-anchor="middle" fill="#333" x="760" y="388">14-02</text><g transform="translate(725,408)"></g></g><g><g transform="translate(805,358)"></g><rect fill="none" stroke="#DDD" width="70" height="30" rx="8" ry="8" x="805" y="368"/><text text-anchor="middle" fill="#333" x="840" y="388">14-04</text><g transform="translate(805,408)"></g></g><g><g transform="translate(885,358)"></g><rect fill="none" stroke="#DDD" width="70" height="30" rx="8" ry="8" x="885" y="368"/><text text-anchor="middle" fill="#333" x="920" y="388">14-06</text><g transform="translate(885,408)"><g><a target="_top" xlink:href="dtp-slice4-step5605201-ofs0-col11-cat1.html"><rect style="display:none" class="hcell-act-col11-cat1" fill="#337AB7" stroke="#000" stroke-width="5" width="70" height="20" x="0" y="5" rx="8" ry="8"/><rect class="hcell-col11-cat1" fill="#337AB7" stroke="#DDD" width="70" height="30" x="0" y="0" rx="8" ry="8"/><text text-anchor="middle" fill="#FFF" x="35" y="20">-35</text></a><g transform="translate(0,30)"><g><a target="_top" xlink:href="dtp-slice4-step5605201-ofs0-col11-cat2.html"><rect style="display:none" class="hcell-act-col11-cat2" fill="#777" stroke="#000" stroke-width="5" width="70" height="20" x="0" y="5" rx="8" ry="8"/><rect class="hcell-col11-cat2" fill="#777" stroke="#DDD" width="70" height="30" x="0" y="0" rx="8" ry="8"/><text text-anchor="middle" fill="#FFF" x="35" y="20">-94</text></a></g></g></g></g></g><g><g transform="translate(965,358)"></g><rect fill="none" stroke="#DDD" width="70" height="30" rx="8" ry="8" x="965" y="368"/><text text-anchor="middle" fill="#333" x="1000" y="388">14-08</text><g transform="translate(965,408)"><g><a target="_top" xlink:href="dtp-slice4-step5605201-ofs0-col12-cat1.html"><rect style="display:none" class="hcell-act-col12-cat1" fill="#337AB7" stroke="#000" stroke-width="5" width="70" height="20" x="0" y="5" rx="8" ry="8"/><rect class="hcell-col12-cat1" fill="#337AB7" stroke="#DDD" width="70" height="30" x="0" y="0" rx="8" ry="8"/><text text-anchor="middle" fill="#FFF" x="35" y="20">-183</text></a></g></g></g><g><g transform="translate(1045,358)"></g><rect fill="none" stroke="#DDD" width="70" height="30" rx="8" ry="8" x="1045" y="368"/><text text-anchor="middle" fill="#333" x="1080" y="388">14-10</text><g transform="translate(1045,408)"><g><a target="_top" xlink:href="dtp-slice4-step5605201-ofs0-col13-cat2.html"><rect style="display:none" class="hcell-act-col13-cat2" fill="#777" stroke="#000" stroke-width="5" width="70" height="20" x="0" y="5" rx="8" ry="8"/><rect class="hcell-col13-cat2" fill="#777" stroke="#DDD" width="70" height="30" x="0" y="0" rx="8" ry="8"/><text text-anchor="middle" fill="#FFF" x="35" y="20">-152</text></a><g transform="translate(0,30)"><g><a target="_top" xlink:href="dtp-slice4-step5605201-ofs0-col13-cat1.html"><rect style="display:none" class="hcell-act-col13-cat1" fill="#337AB7" stroke="#000" stroke-width="5" width="70" height="20" x="0" y="5" rx="8" ry="8"/><rect class="hcell-col13-cat1" fill="#337AB7" stroke="#DDD" width="70" height="30" x="0" y="0" rx="8" ry="8"/><text text-anchor="middle" fill="#FFF" x="35" y="20">-192</text></a></g></g></g></g></g><g><g transform="translate(1125,358)"></g><rect fill="none" stroke="#DDD" width="70" height="30" rx="8" ry="8" x="1125" y="368"/><text text-anchor="middle" fill="#333" x="1160" y="388">14-12</text><g transform="translate(1125,408)"><g><a target="_top" xlink:href="dtp-slice4-step5605201-ofs0-col14-cat1.html"><rect style="display:none" class="hcell-act-col14-cat1" fill="#337AB7" stroke="#000" stroke-width="5" width="70" height="20" x="0" y="5" rx="8" ry="8"/><rect class="hcell-col14-cat1" fill="#337AB7" stroke="#DDD" width="70" height="30" x="0" y="0" rx="8" ry="8"/><text text-anchor="middle" fill="#FFF" x="35" y="20">-163</text></a></g></g></g><g><g transform="translate(1205,358)"><g><a target="_top" xlink:href="dtp-slice4-step5605201-ofs0-col15-cat0.html"><rect style="display:none" class="hcell-act-col15-cat0" fill="#5CB85C" stroke="#000" stroke-width="5" width="70" height="343" x="0" y="-348" rx="8" ry="8"/><rect class="hcell-col15-cat0" fill="#5CB85C" stroke="#DDD" width="70" height="353" x="0" y="-353" rx="8" ry="8"/><text text-anchor="middle" fill="#FFF" x="35" y="-333">2600</text></a></g></g><rect fill="none" stroke="#DDD" width="70" height="30" rx="8" ry="8" x="1205" y="368"/><text text-anchor="middle" fill="#333" x="1240" y="388">15-03</text><g transform="translate(1205,408)"><g><a target="_top" xlink:href="dtp-slice4-step5605201-ofs0-col15-cat1.html"><rect style="display:none" class="hcell-act-col15-cat1" fill="#337AB7" stroke="#000" stroke-width="5" width="70" height="20" x="0" y="5" rx="8" ry="8"/><rect class="hcell-col15-cat1" fill="#337AB7" stroke="#DDD" width="70" height="30" x="0" y="0" rx="8" ry="8"/><text text-anchor="middle" fill="#FFF" x="35" y="20">-146</text></a></g></g></g></svg>