<svg xmlns="http://www.w3.org/2000/svg" xmlns:xlink="http://www.w3.org/1999/xlink" width="100%" height="100%" viewBox="0 0 1280 459"><g><g transform="translate(5,148)"></g><rect fill="none" stroke="#DDD" width="70" height="30" rx="8" ry="8" x="5" y="158"/><text text-anchor="middle" fill="#333" x="40" y="178">12-07</text><g transform="translate(5,198)"></g></g><g><g transform="translate(85,148)"></g><rect fill="none" stroke="#DDD" width="70" height="30" rx="8" ry="8" x="85" y="158"/><text text-anchor="middle" fill="#333" x="120" y="178">12-09</text><g transform="translate(85,198)"></g></g><g><g transform="translate(165,148)"></g><rect fill="none" stroke="#DDD" width="70" height="30" rx="8" ry="8" x="165" y="158"/><text text-anchor="middle" fill="#333" x="200" y="178">12-11</text><g transform="translate(165,198)"></g></g><g><g transform="translate(245,148)"></g><rect fill="none" stroke="#DDD" width="70" height="30" rx="8" ry="8" x="245" y="158"/><text text-anchor="middle" fill="#333" x="280" y="178">13-01</text><g transform="translate(245,198)"></g></g><g><g transform="translate(325,148)"></g><rect fill="none" stroke="#DDD" width="70" height="30" rx="8" ry="8" x="325" y="158"/><text text-anchor="middle" fill="#333" x="360" y="178">13-03</text><g transform="translate(325,198)"></g></g><g><g transform="translate(405,148)"></g><rect fill="none" stroke="#DDD" width="70" height="30" rx="8" ry="8" x="405" y="158"/><text text-anchor="middle" fill="#333" x="440" y="178">13-05</text><g transform="translate(405,198)"></g></g><g><g transform="translate(485,148)"></g><rect fill="none" stroke="#DDD" width="70" height="30" rx="8" ry="8" x="485" y="158"/><text text-anchor="middle" fill="#333" x="520" y="178">13-07</text><g transform="translate(485,198)"></g></g><g><g transform="translate(565,148)"></g><rect fill="none" stroke="#DDD" width="70" height="30" rx="8" ry="8" x="565" y="158"/><text text-anchor="middle" fill="#333" x="600" y="178">13-09</text><g transform="translate(565,198)"></g></g><g><g transform="translate(645,148)"></g><rect fill="none" stroke="#DDD" width="70" height="30" rx="8" ry="8" x="645" y="158"/><text text-anchor="middle" fill="#333" x="680" y="178">13-12</text><g transform="translate(645,198)"></g></g><g><g transform="translate(725,148)"></g><rect fill="none" stroke="#DDD" width="70" height="30" rx="8" ry="8" x="725" y="158"/><text text-anchor="middle" fill="#333" x="760" y="178">14-02</text><g transform="translate(725,198)"></g></g><g><g transform="translate(805,148)"></g><rect fill="none" stroke="#DDD" width="70" height="30" rx="8" ry="8" x="805" y="158"/><text text-anchor="middle" fill="#333" x="840" y="178">14-04</text><g transform="translate(805,198)"></g></g><g><g transform="translate(885,148)"></g><rect fill="none" stroke="#DDD" width="70" height="30" rx="8" ry="8" x="885" y="158"/><text text-anchor="middle" fill="#333" x="920" y="178">14-06</text><g transform="translate(885,198)"><g><a target="_top" xlink:href="dtp-sliceTagVisa4933-step5605201-ofs0-col11-cat0.html"><rect style="display:none" class="hcell-act-col11-cat0" fill="#777" stroke="#000" stroke-width="5" width="70" height="27" x="0" y="5" rx="8" ry="8"/><rect class="hcell-col11-cat0" fill="#777" stroke="#DDD" width="70" height="37" x="0" y="0" rx="8" ry="8"/><text text-anchor="middle" fill="#FFF" x="35" y="20">-712</text></a></g></g></g><g><g transform="translate(965,148)"></g><rect fill="none" stroke="#DDD" width="70" height="30" rx="8" ry="8" x="965" y="158"/><text text-anchor="middle" fill="#333" x="1000" y="178">14-08</text><g transform="translate(965,198)"><g><a target="_top" xlink:href="dtp-sliceTagVisa4933-step5605201-ofs0-col12-cat0.html"><rect style="display:none" class="hcell-act-col12-cat0" fill="#777" stroke="#000" stroke-width="5" width="70" height="54" x="0" y="5" rx="8" ry="8"/><rect class="hcell-col12-cat0" fill="#777" stroke="#DDD" width="70" height="64" x="0" y="0" rx="8" ry="8"/><text text-anchor="middle" fill="#FFF" x="35" y="20">-1221</text></a></g></g></g><g><g transform="translate(1045,148)"><g><a target="_top" xlink:href="dtp-sliceTagVisa4933-step5605201-ofs0-col13-cat0.html"><rect style="display:none" class="hcell-act-col13-cat0" fill="#777" stroke="#000" stroke-width="5" width="70" height="133" x="0" y="-138" rx="8" ry="8"/><rect class="hcell-col13-cat0" fill="#777" stroke="#DDD" width="70" height="143" x="0" y="-143" rx="8" ry="8"/><text text-anchor="middle" fill="#FFF" x="35" y="-123">2719</text></a></g></g><rect fill="none" stroke="#DDD" width="70" height="30" rx="8" ry="8" x="1045" y="158"/><text text-anchor="middle" fill="#333" x="1080" y="178">14-10</text><g transform="translate(1045,198)"></g></g><g><g transform="translate(1125,148)"></g><rect fill="none" stroke="#DDD" width="70" height="30" rx="8" ry="8" x="1125" y="158"/><text text-anchor="middle" fill="#333" x="1160" y="178">14-12</text><g transform="translate(1125,198)"><g><a target="_top" xlink:href="dtp-sliceTagVisa4933-step5605201-ofs0-col14-cat0.html"><rect style="display:none" class="hcell-act-col14-cat0" fill="#777" stroke="#000" stroke-width="5" width="70" height="246" x="0" y="5" rx="8" ry="8"/><rect class="hcell-col14-cat0" fill="#777" stroke="#DDD" width="70" height="256" x="0" y="0" rx="8" ry="8"/><text text-anchor="middle" fill="#FFF" x="35" y="20">-4868</text></a></g></g></g><g><g transform="translate(1205,148)"></g><rect fill="none" stroke="#DDD" width="70" height="30" rx="8" ry="8" x="1205" y="158"/><text text-anchor="middle" fill="#333" x="1240" y="178">15-03</text><g transform="translate(1205,198)"><g><a target="_top" xlink:href="dtp-sliceTagVisa4933-step5605201-ofs0-col15-cat0.html"><rect style="display:none" class="hcell-act-col15-cat0" fill="#777" stroke="#000" stroke-width="5" width="70" height="140" x="0" y="5" rx="8" ry="8"/><rect class="hcell-col15-cat0" fill="#777" stroke="#DDD" width="70" height="150" x="0" y="0" rx="8" ry="8"/><text text-anchor="middle" fill="#FFF" x="35" y="20">-2851</text></a></g></g></g></svg>