<svg xmlns="http://www.w3.org/2000/svg" xmlns:xlink="http://www.w3.org/1999/xlink" width="100%" height="100%" viewBox="0 0 1280 482"><g><g transform="translate(5,427)"></g><rect fill="none" stroke="#DDD" width="70" height="30" rx="8" ry="8" x="5" y="437"/><text text-anchor="middle" fill="#333" x="40" y="457">14-01</text><g transform="translate(5,477)"></g></g><g><g transform="translate(85,427)"><g><a target="_top" xlink:href="dtp-slice2-step2628000-ofs19-col20-cat0.html"><rect style="display:none" class="hcell-act-col20-cat0" fill="#5CB85C" stroke="#000" stroke-width="5" width="70" height="20" x="0" y="-25" rx="8" ry="8"/><rect class="hcell-col20-cat0" fill="#5CB85C" stroke="#DDD" width="70" height="30" x="0" y="-30" rx="8" ry="8"/><text text-anchor="middle" fill="#FFF" x="35" y="-10">25</text></a></g></g><rect fill="none" stroke="#DDD" width="70" height="30" rx="8" ry="8" x="85" y="437"/><text text-anchor="middle" fill="#333" x="120" y="457">14-03</text><g transform="translate(85,477)"></g></g><g><g transform="translate(165,427)"><g><a target="_top" xlink:href="dtp-slice2-step2628000-ofs19-col21-cat0.html"><rect style="display:none" class="hcell-act-col21-cat0" fill="#5CB85C" stroke="#000" stroke-width="5" width="70" height="20" x="0" y="-25" rx="8" ry="8"/><rect class="hcell-col21-cat0" fill="#5CB85C" stroke="#DDD" width="70" height="30" x="0" y="-30" rx="8" ry="8"/><text text-anchor="middle" fill="#FFF" x="35" y="-10">27</text></a><g transform="translate(0,-30)"><g><a target="_top" xlink:href="dtp-slice2-step2628000-ofs19-col21-cat3.html"><rect style="display:none" class="hcell-act-col21-cat3" fill="#F0AD4E" stroke="#000" stroke-width="5" width="70" height="91" x="0" y="-96" rx="8" ry="8"/><rect class="hcell-col21-cat3" fill="#F0AD4E" stroke="#DDD" width="70" height="101" x="0" y="-101" rx="8" ry="8"/><text text-anchor="middle" fill="#FFF" x="35" y="-81">424</text></a><g transform="translate(0,-101)"><g><a target="_top" xlink:href="dtp-slice2-step2628000-ofs19-col21-cat1.html"><rect style="display:none" class="hcell-act-col21-cat1" fill="#5BC0DE" stroke="#000" stroke-width="5" width="70" height="157" x="0" y="-162" rx="8" ry="8"/><rect class="hcell-col21-cat1" fill="#5BC0DE" stroke="#DDD" width="70" height="167" x="0" y="-167" rx="8" ry="8"/><text text-anchor="middle" fill="#FFF" x="35" y="-147">697</text></a></g></g></g></g></g></g><rect fill="none" stroke="#DDD" width="70" height="30" rx="8" ry="8" x="165" y="437"/><text text-anchor="middle" fill="#333" x="200" y="457">14-04</text><g transform="translate(165,477)"></g></g><g><g transform="translate(245,427)"><g><a target="_top" xlink:href="dtp-slice2-step2628000-ofs19-col22-cat0.html"><rect style="display:none" class="hcell-act-col22-cat0" fill="#5CB85C" stroke="#000" stroke-width="5" width="70" height="20" x="0" y="-25" rx="8" ry="8"/><rect class="hcell-col22-cat0" fill="#5CB85C" stroke="#DDD" width="70" height="30" x="0" y="-30" rx="8" ry="8"/><text text-anchor="middle" fill="#FFF" x="35" y="-10">30</text></a></g></g><rect fill="none" stroke="#DDD" width="70" height="30" rx="8" ry="8" x="245" y="437"/><text text-anchor="middle" fill="#333" x="280" y="457">14-05</text><g transform="translate(245,477)"></g></g><g><g transform="translate(325,427)"><g><a target="_top" xlink:href="dtp-slice2-step2628000-ofs19-col23-cat1.html"><rect style="display:none" class="hcell-act-col23-cat1" fill="#5BC0DE" stroke="#000" stroke-width="5" width="70" height="20" x="0" y="-25" rx="8" ry="8"/><rect class="hcell-col23-cat1" fill="#5BC0DE" stroke="#DDD" width="70" height="30" x="0" y="-30" rx="8" ry="8"/><text text-anchor="middle" fill="#FFF" x="35" y="-10">25</text></a><g transform="translate(0,-30)"><g><a target="_top" xlink:href="dtp-slice2-step2628000-ofs19-col23-cat0.html"><rect style="display:none" class="hcell-act-col23-cat0" fill="#5CB85C" stroke="#000" stroke-width="5" width="70" height="20" x="0" y="-25" rx="8" ry="8"/><rect class="hcell-col23-cat0" fill="#5CB85C" stroke="#DDD" width="70" height="30" x="0" y="-30" rx="8" ry="8"/><text text-anchor="middle" fill="#FFF" x="35" y="-10">54</text></a></g></g></g></g><rect fill="none" stroke="#DDD" width="70" height="30" rx="8" ry="8" x="325" y="437"/><text text-anchor="middle" fill="#333" x="360" y="457">14-06</text><g transform="translate(325,477)"></g></g><g><g transform="translate(405,427)"><g><a target="_top" xlink:href="dtp-slice2-step2628000-ofs19-col24-cat2.html"><rect style="display:none" class="hcell-act-col24-cat2" fill="#337AB7" stroke="#000" stroke-width="5" width="70" height="20" x="0" y="-25" rx="8" ry="8"/><rect class="hcell-col24-cat2" fill="#337AB7" stroke="#DDD" width="70" height="30" x="0" y="-30" rx="8" ry="8"/><text text-anchor="middle" fill="#FFF" x="35" y="-10">10</text></a><g transform="translate(0,-30)"><g><a target="_top" xlink:href="dtp-slice2-step2628000-ofs19-col24-cat1.html"><rect style="display:none" class="hcell-act-col24-cat1" fill="#5BC0DE" stroke="#000" stroke-width="5" width="70" height="20" x="0" y="-25" rx="8" ry="8"/><rect class="hcell-col24-cat1" fill="#5BC0DE" stroke="#DDD" width="70" height="30" x="0" y="-30" rx="8" ry="8"/><text text-anchor="middle" fill="#FFF" x="35" y="-10">74</text></a></g></g></g></g><rect fill="none" stroke="#DDD" width="70" height="30" rx="8" ry="8" x="405" y="437"/><text text-anchor="middle" fill="#333" x="440" y="457">14-07</text><g transform="translate(405,477)"></g></g><g><g transform="translate(485,427)"><g><a target="_top" xlink:href="dtp-slice2-step2628000-ofs19-col25-cat0.html"><rect style="display:none" class="hcell-act-col25-cat0" fill="#5CB85C" stroke="#000" stroke-width="5" width="70" height="20" x="0" y="-25" rx="8" ry="8"/><rect class="hcell-col25-cat0" fill="#5CB85C" stroke="#DDD" width="70" height="30" x="0" y="-30" rx="8" ry="8"/><text text-anchor="middle" fill="#FFF" x="35" y="-10">31</text></a></g></g><rect fill="none" stroke="#DDD" width="70" height="30" rx="8" ry="8" x="485" y="437"/><text text-anchor="middle" fill="#333" x="520" y="457">14-08</text><g transform="translate(485,477)"></g></g><g><g transform="translate(565,427)"><g><a target="_top" xlink:href="dtp-slice2-step2628000-ofs19-col26-cat0.html"><rect style="display:none" class="hcell-act-col26-cat0" fill="#5CB85C" stroke="#000" stroke-width="5" width="70" height="20" x="0" y="-25" rx="8" ry="8"/><rect class="hcell-col26-cat0" fill="#5CB85C" stroke="#DDD" width="70" height="30" x="0" y="-30" rx="8" ry="8"/><text text-anchor="middle" fill="#FFF" x="35" y="-10">30</text></a><g transform="translate(0,-30)"><g><a target="_top" xlink:href="dtp-slice2-step2628000-ofs19-col26-cat3.html"><rect style="display:none" class="hcell-act-col26-cat3" fill="#F0AD4E" stroke="#000" stroke-width="5" width="70" height="382" x="0" y="-387" rx="8" ry="8"/><rect class="hcell-col26-cat3" fill="#F0AD4E" stroke="#DDD" width="70" height="392" x="0" y="-392" rx="8" ry="8"/><text text-anchor="middle" fill="#FFF" x="35" y="-372">1635</text></a></g></g></g></g><rect fill="none" stroke="#DDD" width="70" height="30" rx="8" ry="8" x="565" y="437"/><text text-anchor="middle" fill="#333" x="600" y="457">14-08</text><g transform="translate(565,477)"></g></g><g><g transform="translate(645,427)"><g><a target="_top" xlink:href="dtp-slice2-step2628000-ofs19-col27-cat0.html"><rect style="display:none" class="hcell-act-col27-cat0" fill="#5CB85C" stroke="#000" stroke-width="5" width="70" height="20" x="0" y="-25" rx="8" ry="8"/><rect class="hcell-col27-cat0" fill="#5CB85C" stroke="#DDD" width="70" height="30" x="0" y="-30" rx="8" ry="8"/><text text-anchor="middle" fill="#FFF" x="35" y="-10">31</text></a></g></g><rect fill="none" stroke="#DDD" width="70" height="30" rx="8" ry="8" x="645" y="437"/><text text-anchor="middle" fill="#333" x="680" y="457">14-10</text><g transform="translate(645,477)"></g></g><g><g transform="translate(725,427)"><g><a target="_top" xlink:href="dtp-slice2-step2628000-ofs19-col28-cat2.html"><rect style="display:none" class="hcell-act-col28-cat2" fill="#337AB7" stroke="#000" stroke-width="5" width="70" height="20" x="0" y="-25" rx="8" ry="8"/><rect class="hcell-col28-cat2" fill="#337AB7" stroke="#DDD" width="70" height="30" x="0" y="-30" rx="8" ry="8"/><text text-anchor="middle" fill="#FFF" x="35" y="-10">10</text></a><g transform="translate(0,-30)"><g><a target="_top" xlink:href="dtp-slice2-step2628000-ofs19-col28-cat3.html"><rect style="display:none" class="hcell-act-col28-cat3" fill="#F0AD4E" stroke="#000" stroke-width="5" width="70" height="199" x="0" y="-204" rx="8" ry="8"/><rect class="hcell-col28-cat3" fill="#F0AD4E" stroke="#DDD" width="70" height="209" x="0" y="-209" rx="8" ry="8"/><text text-anchor="middle" fill="#FFF" x="35" y="-189">873</text></a></g></g></g></g><rect fill="none" stroke="#DDD" width="70" height="30" rx="8" ry="8" x="725" y="437"/><text text-anchor="middle" fill="#333" x="760" y="457">14-10</text><g transform="translate(725,477)"></g></g><g><g transform="translate(805,427)"><g><a target="_top" xlink:href="dtp-slice2-step2628000-ofs19-col29-cat2.html"><rect style="display:none" class="hcell-act-col29-cat2" fill="#337AB7" stroke="#000" stroke-width="5" width="70" height="20" x="0" y="-25" rx="8" ry="8"/><rect class="hcell-col29-cat2" fill="#337AB7" stroke="#DDD" width="70" height="30" x="0" y="-30" rx="8" ry="8"/><text text-anchor="middle" fill="#FFF" x="35" y="-10">20</text></a><g transform="translate(0,-30)"><g><a target="_top" xlink:href="dtp-slice2-step2628000-ofs19-col29-cat1.html"><rect style="display:none" class="hcell-act-col29-cat1" fill="#5BC0DE" stroke="#000" stroke-width="5" width="70" height="20" x="0" y="-25" rx="8" ry="8"/><rect class="hcell-col29-cat1" fill="#5BC0DE" stroke="#DDD" width="70" height="30" x="0" y="-30" rx="8" ry="8"/><text text-anchor="middle" fill="#FFF" x="35" y="-10">44</text></a></g></g></g></g><rect fill="none" stroke="#DDD" width="70" height="30" rx="8" ry="8" x="805" y="437"/><text text-anchor="middle" fill="#333" x="840" y="457">14-12</text><g transform="translate(805,477)"></g></g><g><g transform="translate(885,427)"></g><rect fill="none" stroke="#DDD" width="70" height="30" rx="8" ry="8" x="885" y="437"/><text text-anchor="middle" fill="#333" x="920" y="457">14-12</text><g transform="translate(885,477)"></g></g><g><g transform="translate(965,427)"><g><a target="_top" xlink:href="dtp-slice2-step2628000-ofs19-col31-cat0.html"><rect style="display:none" class="hcell-act-col31-cat0" fill="#5CB85C" stroke="#000" stroke-width="5" width="70" height="20" x="0" y="-25" rx="8" ry="8"/><rect class="hcell-col31-cat0" fill="#5CB85C" stroke="#DDD" width="70" height="30" x="0" y="-30" rx="8" ry="8"/><text text-anchor="middle" fill="#FFF" x="35" y="-10">29</text></a><g transform="translate(0,-30)"><g><a target="_top" xlink:href="dtp-slice2-step2628000-ofs19-col31-cat1.html"><rect style="display:none" class="hcell-act-col31-cat1" fill="#5BC0DE" stroke="#000" stroke-width="5" width="70" height="20" x="0" y="-25" rx="8" ry="8"/><rect class="hcell-col31-cat1" fill="#5BC0DE" stroke="#DDD" width="70" height="30" x="0" y="-30" rx="8" ry="8"/><text text-anchor="middle" fill="#FFF" x="35" y="-10">69</text></a></g></g></g></g><rect fill="none" stroke="#DDD" width="70" height="30" rx="8" ry="8" x="965" y="437"/><text text-anchor="middle" fill="#333" x="1000" y="457">15-01</text><g transform="translate(965,477)"></g></g><g><g transform="translate(1045,427)"><g><a target="_top" xlink:href="dtp-slice2-step2628000-ofs19-col32-cat1.html"><rect style="display:none" class="hcell-act-col32-cat1" fill="#5BC0DE" stroke="#000" stroke-width="5" width="70" height="20" x="0" y="-25" rx="8" ry="8"/><rect class="hcell-col32-cat1" fill="#5BC0DE" stroke="#DDD" width="70" height="30" x="0" y="-30" rx="8" ry="8"/><text text-anchor="middle" fill="#FFF" x="35" y="-10">59</text></a><g transform="translate(0,-30)"><g><a target="_top" xlink:href="dtp-slice2-step2628000-ofs19-col32-cat0.html"><rect style="display:none" class="hcell-act-col32-cat0" fill="#5CB85C" stroke="#000" stroke-width="5" width="70" height="20" x="0" y="-25" rx="8" ry="8"/><rect class="hcell-col32-cat0" fill="#5CB85C" stroke="#DDD" width="70" height="30" x="0" y="-30" rx="8" ry="8"/><text text-anchor="middle" fill="#FFF" x="35" y="-10">65</text></a></g></g></g></g><rect fill="none" stroke="#DDD" width="70" height="30" rx="8" ry="8" x="1045" y="437"/><text text-anchor="middle" fill="#333" x="1080" y="457">15-03</text><g transform="translate(1045,477)"></g></g><g><g transform="translate(1125,427)"><g><a target="_top" xlink:href="dtp-slice2-step2628000-ofs19-col33-cat0.html"><rect style="display:none" class="hcell-act-col33-cat0" fill="#5CB85C" stroke="#000" stroke-width="5" width="70" height="20" x="0" y="-25" rx="8" ry="8"/><rect class="hcell-col33-cat0" fill="#5CB85C" stroke="#DDD" width="70" height="30" x="0" y="-30" rx="8" ry="8"/><text text-anchor="middle" fill="#FFF" x="35" y="-10">25</text></a><g transform="translate(0,-30)"><g><a target="_top" xlink:href="dtp-slice2-step2628000-ofs19-col33-cat1.html"><rect style="display:none" class="hcell-act-col33-cat1" fill="#5BC0DE" stroke="#000" stroke-width="5" width="70" height="92" x="0" y="-97" rx="8" ry="8"/><rect class="hcell-col33-cat1" fill="#5BC0DE" stroke="#DDD" width="70" height="102" x="0" y="-102" rx="8" ry="8"/><text text-anchor="middle" fill="#FFF" x="35" y="-82">427</text></a></g></g></g></g><rect fill="none" stroke="#DDD" width="70" height="30" rx="8" ry="8" x="1125" y="437"/><text text-anchor="middle" fill="#333" x="1160" y="457">15-04</text><g transform="translate(1125,477)"></g></g><g><g transform="translate(1205,427)"></g><rect fill="none" stroke="#DDD" width="70" height="30" rx="8" ry="8" x="1205" y="437"/><text text-anchor="middle" fill="#333" x="1240" y="457">15-05</text><g transform="translate(1205,477)"></g></g></svg>