<svg xmlns="http://www.w3.org/2000/svg" xmlns:xlink="http://www.w3.org/1999/xlink" width="100%" height="100%" viewBox="0 0 1280 459"><g><g transform="translate(5,374)"></g><rect fill="none" stroke="#DDD" width="70" height="30" rx="8" ry="8" x="5" y="384"/><text text-anchor="middle" fill="#333" x="40" y="404">14-01</text><g transform="translate(5,424)"></g></g><g><g transform="translate(85,374)"></g><rect fill="none" stroke="#DDD" width="70" height="30" rx="8" ry="8" x="85" y="384"/><text text-anchor="middle" fill="#333" x="120" y="404">14-03</text><g transform="translate(85,424)"></g></g><g><g transform="translate(165,374)"></g><rect fill="none" stroke="#DDD" width="70" height="30" rx="8" ry="8" x="165" y="384"/><text text-anchor="middle" fill="#333" x="200" y="404">14-04</text><g transform="translate(165,424)"></g></g><g><g transform="translate(245,374)"></g><rect fill="none" stroke="#DDD" width="70" height="30" rx="8" ry="8" x="245" y="384"/><text text-anchor="middle" fill="#333" x="280" y="404">14-05</text><g transform="translate(245,424)"></g></g><g><g transform="translate(325,374)"></g><rect fill="none" stroke="#DDD" width="70" height="30" rx="8" ry="8" x="325" y="384"/><text text-anchor="middle" fill="#333" x="360" y="404">14-06</text><g transform="translate(325,424)"></g></g><g><g transform="translate(405,374)"></g><rect fill="none" stroke="#DDD" width="70" height="30" rx="8" ry="8" x="405" y="384"/><text text-anchor="middle" fill="#333" x="440" y="404">14-07</text><g transform="translate(405,424)"></g></g><g><g transform="translate(485,374)"><g><a target="_top" xlink:href="dtp-sliceTagPayment-step2628000-ofs19-col25-cat0.html"><rect style="display:none" class="hcell-act-col25-cat0" fill="#777" stroke="#000" stroke-width="5" width="70" height="354" x="0" y="-359" rx="8" ry="8"/><rect class="hcell-col25-cat0" fill="#777" stroke="#DDD" width="70" height="364" x="0" y="-364" rx="8" ry="8"/><text text-anchor="middle" fill="#FFF" x="35" y="-344">1669</text></a></g></g><rect fill="none" stroke="#DDD" width="70" height="30" rx="8" ry="8" x="485" y="384"/><text text-anchor="middle" fill="#333" x="520" y="404">14-08</text><g transform="translate(485,424)"></g></g><g><g transform="translate(565,374)"><g><a target="_top" xlink:href="dtp-sliceTagPayment-step2628000-ofs19-col26-cat0.html"><rect style="display:none" class="hcell-act-col26-cat0" fill="#777" stroke="#000" stroke-width="5" width="70" height="351" x="0" y="-356" rx="8" ry="8"/><rect class="hcell-col26-cat0" fill="#777" stroke="#DDD" width="70" height="361" x="0" y="-361" rx="8" ry="8"/><text text-anchor="middle" fill="#FFF" x="35" y="-341">1654</text></a></g></g><rect fill="none" stroke="#DDD" width="70" height="30" rx="8" ry="8" x="565" y="384"/><text text-anchor="middle" fill="#333" x="600" y="404">14-08</text><g transform="translate(565,424)"></g></g><g><g transform="translate(645,374)"></g><rect fill="none" stroke="#DDD" width="70" height="30" rx="8" ry="8" x="645" y="384"/><text text-anchor="middle" fill="#333" x="680" y="404">14-10</text><g transform="translate(645,424)"><g><a target="_top" xlink:href="dtp-sliceTagPayment-step2628000-ofs19-col27-cat0.html"><rect style="display:none" class="hcell-act-col27-cat0" fill="#777" stroke="#000" stroke-width="5" width="70" height="20" x="0" y="5" rx="8" ry="8"/><rect class="hcell-col27-cat0" fill="#777" stroke="#DDD" width="70" height="30" x="0" y="0" rx="8" ry="8"/><text text-anchor="middle" fill="#FFF" x="35" y="20">-10</text></a></g></g></g><g><g transform="translate(725,374)"></g><rect fill="none" stroke="#DDD" width="70" height="30" rx="8" ry="8" x="725" y="384"/><text text-anchor="middle" fill="#333" x="760" y="404">14-10</text><g transform="translate(725,424)"><g><a target="_top" xlink:href="dtp-sliceTagPayment-step2628000-ofs19-col28-cat0.html"><rect style="display:none" class="hcell-act-col28-cat0" fill="#777" stroke="#000" stroke-width="5" width="70" height="20" x="0" y="5" rx="8" ry="8"/><rect class="hcell-col28-cat0" fill="#777" stroke="#DDD" width="70" height="30" x="0" y="0" rx="8" ry="8"/><text text-anchor="middle" fill="#FFF" x="35" y="20">-140</text></a></g></g></g><g><g transform="translate(805,374)"><g><a target="_top" xlink:href="dtp-sliceTagPayment-step2628000-ofs19-col29-cat0.html"><rect style="display:none" class="hcell-act-col29-cat0" fill="#777" stroke="#000" stroke-width="5" width="70" height="359" x="0" y="-364" rx="8" ry="8"/><rect class="hcell-col29-cat0" fill="#777" stroke="#DDD" width="70" height="369" x="0" y="-369" rx="8" ry="8"/><text text-anchor="middle" fill="#FFF" x="35" y="-349">1692</text></a></g></g><rect fill="none" stroke="#DDD" width="70" height="30" rx="8" ry="8" x="805" y="384"/><text text-anchor="middle" fill="#333" x="840" y="404">14-12</text><g transform="translate(805,424)"></g></g><g><g transform="translate(885,374)"><g><a target="_top" xlink:href="dtp-sliceTagPayment-step2628000-ofs19-col30-cat0.html"><rect style="display:none" class="hcell-act-col30-cat0" fill="#777" stroke="#000" stroke-width="5" width="70" height="124" x="0" y="-129" rx="8" ry="8"/><rect class="hcell-col30-cat0" fill="#777" stroke="#DDD" width="70" height="134" x="0" y="-134" rx="8" ry="8"/><text text-anchor="middle" fill="#FFF" x="35" y="-114">616</text></a></g></g><rect fill="none" stroke="#DDD" width="70" height="30" rx="8" ry="8" x="885" y="384"/><text text-anchor="middle" fill="#333" x="920" y="404">14-12</text><g transform="translate(885,424)"></g></g><g><g transform="translate(965,374)"><g><a target="_top" xlink:href="dtp-sliceTagPayment-step2628000-ofs19-col31-cat0.html"><rect style="display:none" class="hcell-act-col31-cat0" fill="#777" stroke="#000" stroke-width="5" width="70" height="325" x="0" y="-330" rx="8" ry="8"/><rect class="hcell-col31-cat0" fill="#777" stroke="#DDD" width="70" height="335" x="0" y="-335" rx="8" ry="8"/><text text-anchor="middle" fill="#FFF" x="35" y="-315">1534</text></a></g></g><rect fill="none" stroke="#DDD" width="70" height="30" rx="8" ry="8" x="965" y="384"/><text text-anchor="middle" fill="#333" x="1000" y="404">15-01</text><g transform="translate(965,424)"></g></g><g><g transform="translate(1045,374)"><g><a target="_top" xlink:href="dtp-sliceTagPayment-step2628000-ofs19-col32-cat0.html"><rect style="display:none" class="hcell-act-col32-cat0" fill="#777" stroke="#000" stroke-width="5" width="70" height="331" x="0" y="-336" rx="8" ry="8"/><rect class="hcell-col32-cat0" fill="#777" stroke="#DDD" width="70" height="341" x="0" y="-341" rx="8" ry="8"/><text text-anchor="middle" fill="#FFF" x="35" y="-321">1565</text></a></g></g><rect fill="none" stroke="#DDD" width="70" height="30" rx="8" ry="8" x="1045" y="384"/><text text-anchor="middle" fill="#333" x="1080" y="404">15-03</text><g transform="translate(1045,424)"></g></g><g><g transform="translate(1125,374)"><g><a target="_top" xlink:href="dtp-sliceTagPayment-step2628000-ofs19-col33-cat0.html"><rect style="display:none" class="hcell-act-col33-cat0" fill="#777" stroke="#000" stroke-width="5" width="70" height="357" x="0" y="-362" rx="8" ry="8"/><rect class="hcell-col33-cat0" fill="#777" stroke="#DDD" width="70" height="367" x="0" y="-367" rx="8" ry="8"/><text text-anchor="middle" fill="#FFF" x="35" y="-347">1683</text></a></g></g><rect fill="none" stroke="#DDD" width="70" height="30" rx="8" ry="8" x="1125" y="384"/><text text-anchor="middle" fill="#333" x="1160" y="404">15-04</text><g transform="translate(1125,424)"></g></g><g><g transform="translate(1205,374)"></g><rect fill="none" stroke="#DDD" width="70" height="30" rx="8" ry="8" x="1205" y="384"/><text text-anchor="middle" fill="#333" x="1240" y="404">15-05</text><g transform="translate(1205,424)"></g></g></svg>