<svg xmlns="http://www.w3.org/2000/svg" xmlns:xlink="http://www.w3.org/1999/xlink" width="100%" height="100%" viewBox="0 0 1280 535"><g><g transform="translate(5,214)"></g><rect fill="none" stroke="#DDD" width="70" height="30" rx="8" ry="8" x="5" y="224"/><text text-anchor="middle" fill="#333" x="40" y="244">12-07</text><g transform="translate(5,264)"></g></g><g><g transform="translate(85,214)"></g><rect fill="none" stroke="#DDD" width="70" height="30" rx="8" ry="8" x="85" y="224"/><text text-anchor="middle" fill="#333" x="120" y="244">12-09</text><g transform="translate(85,264)"></g></g><g><g transform="translate(165,214)"></g><rect fill="none" stroke="#DDD" width="70" height="30" rx="8" ry="8" x="165" y="224"/><text text-anchor="middle" fill="#333" x="200" y="244">12-11</text><g transform="translate(165,264)"></g></g><g><g transform="translate(245,214)"></g><rect fill="none" stroke="#DDD" width="70" height="30" rx="8" ry="8" x="245" y="224"/><text text-anchor="middle" fill="#333" x="280" y="244">13-01</text><g transform="translate(245,264)"></g></g><g><g transform="translate(325,214)"></g><rect fill="none" stroke="#DDD" width="70" height="30" rx="8" ry="8" x="325" y="224"/><text text-anchor="middle" fill="#333" x="360" y="244">13-03</text><g transform="translate(325,264)"></g></g><g><g transform="translate(405,214)"></g><rect fill="none" stroke="#DDD" width="70" height="30" rx="8" ry="8" x="405" y="224"/><text text-anchor="middle" fill="#333" x="440" y="244">13-05</text><g transform="translate(405,264)"></g></g><g><g transform="translate(485,214)"></g><rect fill="none" stroke="#DDD" width="70" height="30" rx="8" ry="8" x="485" y="224"/><text text-anchor="middle" fill="#333" x="520" y="244">13-07</text><g transform="translate(485,264)"></g></g><g><g transform="translate(565,214)"></g><rect fill="none" stroke="#DDD" width="70" height="30" rx="8" ry="8" x="565" y="224"/><text text-anchor="middle" fill="#333" x="600" y="244">13-09</text><g transform="translate(565,264)"></g></g><g><g transform="translate(645,214)"></g><rect fill="none" stroke="#DDD" width="70" height="30" rx="8" ry="8" x="645" y="224"/><text text-anchor="middle" fill="#333" x="680" y="244">13-12</text><g transform="translate(645,264)"></g></g><g><g transform="translate(725,214)"></g><rect fill="none" stroke="#DDD" width="70" height="30" rx="8" ry="8" x="725" y="224"/><text text-anchor="middle" fill="#333" x="760" y="244">14-02</text><g transform="translate(725,264)"></g></g><g><g transform="translate(805,214)"></g><rect fill="none" stroke="#DDD" width="70" height="30" rx="8" ry="8" x="805" y="224"/><text text-anchor="middle" fill="#333" x="840" y="244">14-04</text><g transform="translate(805,264)"></g></g><g><g transform="translate(885,214)"><g><a target="_top" xlink:href="dtp-slice5-step5605201-ofs0-col11-cat4.html"><rect style="display:none" class="hcell-act-col11-cat4" fill="#337AB7" stroke="#000" stroke-width="5" width="70" height="65" x="0" y="-70" rx="8" ry="8"/><rect class="hcell-col11-cat4" fill="#337AB7" stroke="#DDD" width="70" height="75" x="0" y="-75" rx="8" ry="8"/><text text-anchor="middle" fill="#FFF" x="35" y="-55">1450</text></a><g transform="translate(0,-75)"><g><a target="_top" xlink:href="dtp-slice5-step5605201-ofs0-col11-cat3.html"><rect style="display:none" class="hcell-act-col11-cat3" fill="#5BC0DE" stroke="#000" stroke-width="5" width="70" height="70" x="0" y="-75" rx="8" ry="8"/><rect class="hcell-col11-cat3" fill="#5BC0DE" stroke="#DDD" width="70" height="80" x="0" y="-80" rx="8" ry="8"/><text text-anchor="middle" fill="#FFF" x="35" y="-60">1560</text></a></g></g></g></g><rect fill="none" stroke="#DDD" width="70" height="30" rx="8" ry="8" x="885" y="224"/><text text-anchor="middle" fill="#333" x="920" y="244">14-06</text><g transform="translate(885,264)"><g><a target="_top" xlink:href="dtp-slice5-step5605201-ofs0-col11-cat1.html"><rect style="display:none" class="hcell-act-col11-cat1" fill="#F0AD4E" stroke="#000" stroke-width="5" width="70" height="20" x="0" y="5" rx="8" ry="8"/><rect class="hcell-col11-cat1" fill="#F0AD4E" stroke="#DDD" width="70" height="30" x="0" y="0" rx="8" ry="8"/><text text-anchor="middle" fill="#FFF" x="35" y="20">-28</text></a><g transform="translate(0,30)"><g><a target="_top" xlink:href="dtp-slice5-step5605201-ofs0-col11-cat2.html"><rect style="display:none" class="hcell-act-col11-cat2" fill="#5CB85C" stroke="#000" stroke-width="5" width="70" height="22" x="0" y="5" rx="8" ry="8"/><rect class="hcell-col11-cat2" fill="#5CB85C" stroke="#DDD" width="70" height="32" x="0" y="0" rx="8" ry="8"/><text text-anchor="middle" fill="#FFF" x="35" y="20">-622</text></a></g></g></g></g></g><g><g transform="translate(965,214)"><g><a target="_top" xlink:href="dtp-slice5-step5605201-ofs0-col12-cat4.html"><rect style="display:none" class="hcell-act-col12-cat4" fill="#337AB7" stroke="#000" stroke-width="5" width="70" height="20" x="0" y="-25" rx="8" ry="8"/><rect class="hcell-col12-cat4" fill="#337AB7" stroke="#DDD" width="70" height="30" x="0" y="-30" rx="8" ry="8"/><text text-anchor="middle" fill="#FFF" x="35" y="-10">139</text></a></g></g><rect fill="none" stroke="#DDD" width="70" height="30" rx="8" ry="8" x="965" y="224"/><text text-anchor="middle" fill="#333" x="1000" y="244">14-08</text><g transform="translate(965,264)"><g><a target="_top" xlink:href="dtp-slice5-step5605201-ofs0-col12-cat1.html"><rect style="display:none" class="hcell-act-col12-cat1" fill="#F0AD4E" stroke="#000" stroke-width="5" width="70" height="20" x="0" y="5" rx="8" ry="8"/><rect class="hcell-col12-cat1" fill="#F0AD4E" stroke="#DDD" width="70" height="30" x="0" y="0" rx="8" ry="8"/><text text-anchor="middle" fill="#FFF" x="35" y="20">-87</text></a><g transform="translate(0,30)"><g><a target="_top" xlink:href="dtp-slice5-step5605201-ofs0-col12-cat3.html"><rect style="display:none" class="hcell-act-col12-cat3" fill="#5BC0DE" stroke="#000" stroke-width="5" width="70" height="20" x="0" y="5" rx="8" ry="8"/><rect class="hcell-col12-cat3" fill="#5BC0DE" stroke="#DDD" width="70" height="30" x="0" y="0" rx="8" ry="8"/><text text-anchor="middle" fill="#FFF" x="35" y="20">-140</text></a><g transform="translate(0,30)"><g><a target="_top" xlink:href="dtp-slice5-step5605201-ofs0-col12-cat2.html"><rect style="display:none" class="hcell-act-col12-cat2" fill="#5CB85C" stroke="#000" stroke-width="5" width="70" height="20" x="0" y="5" rx="8" ry="8"/><rect class="hcell-col12-cat2" fill="#5CB85C" stroke="#DDD" width="70" height="30" x="0" y="0" rx="8" ry="8"/><text text-anchor="middle" fill="#FFF" x="35" y="20">-575</text></a><g transform="translate(0,30)"><g><a target="_top" xlink:href="dtp-slice5-step5605201-ofs0-col12-cat0.html"><rect style="display:none" class="hcell-act-col12-cat0" fill="#D9534F" stroke="#000" stroke-width="5" width="70" height="133" x="0" y="5" rx="8" ry="8"/><rect class="hcell-col12-cat0" fill="#D9534F" stroke="#DDD" width="70" height="143" x="0" y="0" rx="8" ry="8"/><text text-anchor="middle" fill="#FFF" x="35" y="20">-2760</text></a></g></g></g></g></g></g></g></g></g><g><g transform="translate(1045,214)"><g><a target="_top" xlink:href="dtp-slice5-step5605201-ofs0-col13-cat2.html"><rect style="display:none" class="hcell-act-col13-cat2" fill="#5CB85C" stroke="#000" stroke-width="5" width="70" height="169" x="0" y="-174" rx="8" ry="8"/><rect class="hcell-col13-cat2" fill="#5CB85C" stroke="#DDD" width="70" height="179" x="0" y="-179" rx="8" ry="8"/><text text-anchor="middle" fill="#FFF" x="35" y="-159">3468</text></a></g></g><rect fill="none" stroke="#DDD" width="70" height="30" rx="8" ry="8" x="1045" y="224"/><text text-anchor="middle" fill="#333" x="1080" y="244">14-10</text><g transform="translate(1045,264)"><g><a target="_top" xlink:href="dtp-slice5-step5605201-ofs0-col13-cat3.html"><rect style="display:none" class="hcell-act-col13-cat3" fill="#5BC0DE" stroke="#000" stroke-width="5" width="70" height="20" x="0" y="5" rx="8" ry="8"/><rect class="hcell-col13-cat3" fill="#5BC0DE" stroke="#DDD" width="70" height="30" x="0" y="0" rx="8" ry="8"/><text text-anchor="middle" fill="#FFF" x="35" y="20">-85</text></a><g transform="translate(0,30)"><g><a target="_top" xlink:href="dtp-slice5-step5605201-ofs0-col13-cat1.html"><rect style="display:none" class="hcell-act-col13-cat1" fill="#F0AD4E" stroke="#000" stroke-width="5" width="70" height="20" x="0" y="5" rx="8" ry="8"/><rect class="hcell-col13-cat1" fill="#F0AD4E" stroke="#DDD" width="70" height="30" x="0" y="0" rx="8" ry="8"/><text text-anchor="middle" fill="#FFF" x="35" y="20">-120</text></a><g transform="translate(0,30)"><g><a target="_top" xlink:href="dtp-slice5-step5605201-ofs0-col13-cat0.html"><rect style="display:none" class="hcell-act-col13-cat0" fill="#D9534F" stroke="#000" stroke-width="5" width="70" height="67" x="0" y="5" rx="8" ry="8"/><rect class="hcell-col13-cat0" fill="#D9534F" stroke="#DDD" width="70" height="77" x="0" y="0" rx="8" ry="8"/><text text-anchor="middle" fill="#FFF" x="35" y="20">-1490</text></a><g transform="translate(0,77)"><g><a target="_top" xlink:href="dtp-slice5-step5605201-ofs0-col13-cat4.html"><rect style="display:none" class="hcell-act-col13-cat4" fill="#337AB7" stroke="#000" stroke-width="5" width="70" height="119" x="0" y="5" rx="8" ry="8"/><rect class="hcell-col13-cat4" fill="#337AB7" stroke="#DDD" width="70" height="129" x="0" y="0" rx="8" ry="8"/><text text-anchor="middle" fill="#FFF" x="35" y="20">-2491</text></a></g></g></g></g></g></g></g></g></g><g><g transform="translate(1125,214)"><g><a target="_top" xlink:href="dtp-slice5-step5605201-ofs0-col14-cat1.html"><rect style="display:none" class="hcell-act-col14-cat1" fill="#F0AD4E" stroke="#000" stroke-width="5" width="70" height="20" x="0" y="-25" rx="8" ry="8"/><rect class="hcell-col14-cat1" fill="#F0AD4E" stroke="#DDD" width="70" height="30" x="0" y="-30" rx="8" ry="8"/><text text-anchor="middle" fill="#FFF" x="35" y="-10">42</text></a><g transform="translate(0,-30)"><g><a target="_top" xlink:href="dtp-slice5-step5605201-ofs0-col14-cat4.html"><rect style="display:none" class="hcell-act-col14-cat4" fill="#337AB7" stroke="#000" stroke-width="5" width="70" height="60" x="0" y="-65" rx="8" ry="8"/><rect class="hcell-col14-cat4" fill="#337AB7" stroke="#DDD" width="70" height="70" x="0" y="-70" rx="8" ry="8"/><text text-anchor="middle" fill="#FFF" x="35" y="-50">1364</text></a><g transform="translate(0,-70)"><g><a target="_top" xlink:href="dtp-slice5-step5605201-ofs0-col14-cat0.html"><rect style="display:none" class="hcell-act-col14-cat0" fill="#D9534F" stroke="#000" stroke-width="5" width="70" height="99" x="0" y="-104" rx="8" ry="8"/><rect class="hcell-col14-cat0" fill="#D9534F" stroke="#DDD" width="70" height="109" x="0" y="-109" rx="8" ry="8"/><text text-anchor="middle" fill="#FFF" x="35" y="-89">2120</text></a></g></g></g></g></g></g><rect fill="none" stroke="#DDD" width="70" height="30" rx="8" ry="8" x="1125" y="224"/><text text-anchor="middle" fill="#333" x="1160" y="244">14-12</text><g transform="translate(1125,264)"><g><a target="_top" xlink:href="dtp-slice5-step5605201-ofs0-col14-cat3.html"><rect style="display:none" class="hcell-act-col14-cat3" fill="#5BC0DE" stroke="#000" stroke-width="5" width="70" height="20" x="0" y="5" rx="8" ry="8"/><rect class="hcell-col14-cat3" fill="#5BC0DE" stroke="#DDD" width="70" height="30" x="0" y="0" rx="8" ry="8"/><text text-anchor="middle" fill="#FFF" x="35" y="20">-520</text></a><g transform="translate(0,30)"><g><a target="_top" xlink:href="dtp-slice5-step5605201-ofs0-col14-cat2.html"><rect style="display:none" class="hcell-act-col14-cat2" fill="#5CB85C" stroke="#000" stroke-width="5" width="70" height="169" x="0" y="5" rx="8" ry="8"/><rect class="hcell-col14-cat2" fill="#5CB85C" stroke="#DDD" width="70" height="179" x="0" y="0" rx="8" ry="8"/><text text-anchor="middle" fill="#FFF" x="35" y="20">-3453</text></a></g></g></g></g></g><g><g transform="translate(1205,214)"><g><a target="_top" xlink:href="dtp-slice5-step5605201-ofs0-col15-cat0.html"><rect style="display:none" class="hcell-act-col15-cat0" fill="#D9534F" stroke="#000" stroke-width="5" width="70" height="71" x="0" y="-76" rx="8" ry="8"/><rect class="hcell-col15-cat0" fill="#D9534F" stroke="#DDD" width="70" height="81" x="0" y="-81" rx="8" ry="8"/><text text-anchor="middle" fill="#FFF" x="35" y="-61">1580</text></a><g transform="translate(0,-81)"><g><a target="_top" xlink:href="dtp-slice5-step5605201-ofs0-col15-cat4.html"><rect style="display:none" class="hcell-act-col15-cat4" fill="#337AB7" stroke="#000" stroke-width="5" width="70" height="79" x="0" y="-84" rx="8" ry="8"/><rect class="hcell-col15-cat4" fill="#337AB7" stroke="#DDD" width="70" height="89" x="0" y="-89" rx="8" ry="8"/><text text-anchor="middle" fill="#FFF" x="35" y="-69">1731</text></a></g></g></g></g><rect fill="none" stroke="#DDD" width="70" height="30" rx="8" ry="8" x="1205" y="224"/><text text-anchor="middle" fill="#333" x="1240" y="244">15-03</text><g transform="translate(1205,264)"><g><a target="_top" xlink:href="dtp-slice5-step5605201-ofs0-col15-cat3.html"><rect style="display:none" class="hcell-act-col15-cat3" fill="#5BC0DE" stroke="#000" stroke-width="5" width="70" height="20" x="0" y="5" rx="8" ry="8"/><rect class="hcell-col15-cat3" fill="#5BC0DE" stroke="#DDD" width="70" height="30" x="0" y="0" rx="8" ry="8"/><text text-anchor="middle" fill="#FFF" x="35" y="20">-55</text></a><g transform="translate(0,30)"><g><a target="_top" xlink:href="dtp-slice5-step5605201-ofs0-col15-cat1.html"><rect style="display:none" class="hcell-act-col15-cat1" fill="#F0AD4E" stroke="#000" stroke-width="5" width="70" height="20" x="0" y="5" rx="8" ry="8"/><rect class="hcell-col15-cat1" fill="#F0AD4E" stroke="#DDD" width="70" height="30" x="0" y="0" rx="8" ry="8"/><text text-anchor="middle" fill="#FFF" x="35" y="20">-121</text></a><g transform="translate(0,30)"><g><a target="_top" xlink:href="dtp-slice5-step5605201-ofs0-col15-cat2.html"><rect style="display:none" class="hcell-act-col15-cat2" fill="#5CB85C" stroke="#000" stroke-width="5" width="70" height="148" x="0" y="5" rx="8" ry="8"/><rect class="hcell-col15-cat2" fill="#5CB85C" stroke="#DDD" width="70" height="158" x="0" y="0" rx="8" ry="8"/><text text-anchor="middle" fill="#FFF" x="35" y="20">-3054</text></a></g></g></g></g></g></g></g></svg>