<svg xmlns="http://www.w3.org/2000/svg" xmlns:xlink="http://www.w3.org/1999/xlink" width="100%" height="100%" viewBox="0 0 1280 459"><g><g transform="translate(5,184)"></g><rect fill="none" stroke="#DDD" width="70" height="30" rx="8" ry="8" x="5" y="194"/><text text-anchor="middle" fill="#333" x="40" y="214">14-01</text><g transform="translate(5,234)"></g></g><g><g transform="translate(85,184)"></g><rect fill="none" stroke="#DDD" width="70" height="30" rx="8" ry="8" x="85" y="194"/><text text-anchor="middle" fill="#333" x="120" y="214">14-03</text><g transform="translate(85,234)"></g></g><g><g transform="translate(165,184)"></g><rect fill="none" stroke="#DDD" width="70" height="30" rx="8" ry="8" x="165" y="194"/><text text-anchor="middle" fill="#333" x="200" y="214">14-04</text><g transform="translate(165,234)"></g></g><g><g transform="translate(245,184)"></g><rect fill="none" stroke="#DDD" width="70" height="30" rx="8" ry="8" x="245" y="194"/><text text-anchor="middle" fill="#333" x="280" y="214">14-05</text><g transform="translate(245,234)"></g></g><g><g transform="translate(325,184)"></g><rect fill="none" stroke="#DDD" width="70" height="30" rx="8" ry="8" x="325" y="194"/><text text-anchor="middle" fill="#333" x="360" y="214">14-06</text><g transform="translate(325,234)"></g></g><g><g transform="translate(405,184)"></g><rect fill="none" stroke="#DDD" width="70" height="30" rx="8" ry="8" x="405" y="194"/><text text-anchor="middle" fill="#333" x="440" y="214">14-07</text><g transform="translate(405,234)"></g></g><g><g transform="translate(485,184)"><g><a target="_top" xlink:href="dtp-sliceTagChecking1042-step2628000-ofs19-col25-cat0.html"><rect style="display:none" class="hcell-act-col25-cat0" fill="#777" stroke="#000" stroke-width="5" width="70" height="46" x="0" y="-51" rx="8" ry="8"/><rect class="hcell-col25-cat0" fill="#777" stroke="#DDD" width="70" height="56" x="0" y="-56" rx="8" ry="8"/><text text-anchor="middle" fill="#FFF" x="35" y="-36">820</text></a></g></g><rect fill="none" stroke="#DDD" width="70" height="30" rx="8" ry="8" x="485" y="194"/><text text-anchor="middle" fill="#333" x="520" y="214">14-08</text><g transform="translate(485,234)"></g></g><g><g transform="translate(565,184)"></g><rect fill="none" stroke="#DDD" width="70" height="30" rx="8" ry="8" x="565" y="194"/><text text-anchor="middle" fill="#333" x="600" y="214">14-08</text><g transform="translate(565,234)"><g><a target="_top" xlink:href="dtp-sliceTagChecking1042-step2628000-ofs19-col26-cat0.html"><rect style="display:none" class="hcell-act-col26-cat0" fill="#777" stroke="#000" stroke-width="5" width="70" height="210" x="0" y="5" rx="8" ry="8"/><rect class="hcell-col26-cat0" fill="#777" stroke="#DDD" width="70" height="220" x="0" y="0" rx="8" ry="8"/><text text-anchor="middle" fill="#FFF" x="35" y="20">-3211</text></a></g></g></g><g><g transform="translate(645,184)"><g><a target="_top" xlink:href="dtp-sliceTagChecking1042-step2628000-ofs19-col27-cat0.html"><rect style="display:none" class="hcell-act-col27-cat0" fill="#777" stroke="#000" stroke-width="5" width="70" height="169" x="0" y="-174" rx="8" ry="8"/><rect class="hcell-col27-cat0" fill="#777" stroke="#DDD" width="70" height="179" x="0" y="-179" rx="8" ry="8"/><text text-anchor="middle" fill="#FFF" x="35" y="-159">2626</text></a></g></g><rect fill="none" stroke="#DDD" width="70" height="30" rx="8" ry="8" x="645" y="194"/><text text-anchor="middle" fill="#333" x="680" y="214">14-10</text><g transform="translate(645,234)"></g></g><g><g transform="translate(725,184)"><g><a target="_top" xlink:href="dtp-sliceTagChecking1042-step2628000-ofs19-col28-cat0.html"><rect style="display:none" class="hcell-act-col28-cat0" fill="#777" stroke="#000" stroke-width="5" width="70" height="20" x="0" y="-25" rx="8" ry="8"/><rect class="hcell-col28-cat0" fill="#777" stroke="#DDD" width="70" height="30" x="0" y="-30" rx="8" ry="8"/><text text-anchor="middle" fill="#FFF" x="35" y="-10">186</text></a></g></g><rect fill="none" stroke="#DDD" width="70" height="30" rx="8" ry="8" x="725" y="194"/><text text-anchor="middle" fill="#333" x="760" y="214">14-10</text><g transform="translate(725,234)"></g></g><g><g transform="translate(805,184)"><g><a target="_top" xlink:href="dtp-sliceTagChecking1042-step2628000-ofs19-col29-cat0.html"><rect style="display:none" class="hcell-act-col29-cat0" fill="#777" stroke="#000" stroke-width="5" width="70" height="20" x="0" y="-25" rx="8" ry="8"/><rect class="hcell-col29-cat0" fill="#777" stroke="#DDD" width="70" height="30" x="0" y="-30" rx="8" ry="8"/><text text-anchor="middle" fill="#FFF" x="35" y="-10">145</text></a></g></g><rect fill="none" stroke="#DDD" width="70" height="30" rx="8" ry="8" x="805" y="194"/><text text-anchor="middle" fill="#333" x="840" y="214">14-12</text><g transform="translate(805,234)"></g></g><g><g transform="translate(885,184)"></g><rect fill="none" stroke="#DDD" width="70" height="30" rx="8" ry="8" x="885" y="194"/><text text-anchor="middle" fill="#333" x="920" y="214">14-12</text><g transform="translate(885,234)"><g><a target="_top" xlink:href="dtp-sliceTagChecking1042-step2628000-ofs19-col30-cat0.html"><rect style="display:none" class="hcell-act-col30-cat0" fill="#777" stroke="#000" stroke-width="5" width="70" height="27" x="0" y="5" rx="8" ry="8"/><rect class="hcell-col30-cat0" fill="#777" stroke="#DDD" width="70" height="37" x="0" y="0" rx="8" ry="8"/><text text-anchor="middle" fill="#FFF" x="35" y="20">-543</text></a></g></g></g><g><g transform="translate(965,184)"></g><rect fill="none" stroke="#DDD" width="70" height="30" rx="8" ry="8" x="965" y="194"/><text text-anchor="middle" fill="#333" x="1000" y="214">15-01</text><g transform="translate(965,234)"><g><a target="_top" xlink:href="dtp-sliceTagChecking1042-step2628000-ofs19-col31-cat0.html"><rect style="display:none" class="hcell-act-col31-cat0" fill="#777" stroke="#000" stroke-width="5" width="70" height="72" x="0" y="5" rx="8" ry="8"/><rect class="hcell-col31-cat0" fill="#777" stroke="#DDD" width="70" height="82" x="0" y="0" rx="8" ry="8"/><text text-anchor="middle" fill="#FFF" x="35" y="20">-1206</text></a></g></g></g><g><g transform="translate(1045,184)"></g><rect fill="none" stroke="#DDD" width="70" height="30" rx="8" ry="8" x="1045" y="194"/><text text-anchor="middle" fill="#333" x="1080" y="214">15-03</text><g transform="translate(1045,234)"><g><a target="_top" xlink:href="dtp-sliceTagChecking1042-step2628000-ofs19-col32-cat0.html"><rect style="display:none" class="hcell-act-col32-cat0" fill="#777" stroke="#000" stroke-width="5" width="70" height="20" x="0" y="5" rx="8" ry="8"/><rect class="hcell-col32-cat0" fill="#777" stroke="#DDD" width="70" height="30" x="0" y="0" rx="8" ry="8"/><text text-anchor="middle" fill="#FFF" x="35" y="20">-432</text></a></g></g></g><g><g transform="translate(1125,184)"></g><rect fill="none" stroke="#DDD" width="70" height="30" rx="8" ry="8" x="1125" y="194"/><text text-anchor="middle" fill="#333" x="1160" y="214">15-04</text><g transform="translate(1125,234)"><g><a target="_top" xlink:href="dtp-sliceTagChecking1042-step2628000-ofs19-col33-cat0.html"><rect style="display:none" class="hcell-act-col33-cat0" fill="#777" stroke="#000" stroke-width="5" width="70" height="114" x="0" y="5" rx="8" ry="8"/><rect class="hcell-col33-cat0" fill="#777" stroke="#DDD" width="70" height="124" x="0" y="0" rx="8" ry="8"/><text text-anchor="middle" fill="#FFF" x="35" y="20">-1812</text></a></g></g></g><g><g transform="translate(1205,184)"><g><a target="_top" xlink:href="dtp-sliceTagChecking1042-step2628000-ofs19-col34-cat0.html"><rect style="display:none" class="hcell-act-col34-cat0" fill="#777" stroke="#000" stroke-width="5" width="70" height="50" x="0" y="-55" rx="8" ry="8"/><rect class="hcell-col34-cat0" fill="#777" stroke="#DDD" width="70" height="60" x="0" y="-60" rx="8" ry="8"/><text text-anchor="middle" fill="#FFF" x="35" y="-40">890</text></a></g></g><rect fill="none" stroke="#DDD" width="70" height="30" rx="8" ry="8" x="1205" y="194"/><text text-anchor="middle" fill="#333" x="1240" y="214">15-05</text><g transform="translate(1205,234)"></g></g></svg>