<svg xmlns="http://www.w3.org/2000/svg" xmlns:xlink="http://www.w3.org/1999/xlink" width="100%" height="100%" viewBox="0 0 1280 459"><g><g transform="translate(5,127)"></g><rect fill="none" stroke="#DDD" width="70" height="30" rx="8" ry="8" x="5" y="137"/><text text-anchor="middle" fill="#333" x="40" y="157">12-07</text><g transform="translate(5,177)"></g></g><g><g transform="translate(85,127)"></g><rect fill="none" stroke="#DDD" width="70" height="30" rx="8" ry="8" x="85" y="137"/><text text-anchor="middle" fill="#333" x="120" y="157">12-09</text><g transform="translate(85,177)"></g></g><g><g transform="translate(165,127)"></g><rect fill="none" stroke="#DDD" width="70" height="30" rx="8" ry="8" x="165" y="137"/><text text-anchor="middle" fill="#333" x="200" y="157">12-11</text><g transform="translate(165,177)"></g></g><g><g transform="translate(245,127)"></g><rect fill="none" stroke="#DDD" width="70" height="30" rx="8" ry="8" x="245" y="137"/><text text-anchor="middle" fill="#333" x="280" y="157">13-01</text><g transform="translate(245,177)"></g></g><g><g transform="translate(325,127)"></g><rect fill="none" stroke="#DDD" width="70" height="30" rx="8" ry="8" x="325" y="137"/><text text-anchor="middle" fill="#333" x="360" y="157">13-03</text><g transform="translate(325,177)"></g></g><g><g transform="translate(405,127)"></g><rect fill="none" stroke="#DDD" width="70" height="30" rx="8" ry="8" x="405" y="137"/><text text-anchor="middle" fill="#333" x="440" y="157">13-05</text><g transform="translate(405,177)"></g></g><g><g transform="translate(485,127)"></g><rect fill="none" stroke="#DDD" width="70" height="30" rx="8" ry="8" x="485" y="137"/><text text-anchor="middle" fill="#333" x="520" y="157">13-07</text><g transform="translate(485,177)"></g></g><g><g transform="translate(565,127)"></g><rect fill="none" stroke="#DDD" width="70" height="30" rx="8" ry="8" x="565" y="137"/><text text-anchor="middle" fill="#333" x="600" y="157">13-09</text><g transform="translate(565,177)"></g></g><g><g transform="translate(645,127)"></g><rect fill="none" stroke="#DDD" width="70" height="30" rx="8" ry="8" x="645" y="137"/><text text-anchor="middle" fill="#333" x="680" y="157">13-12</text><g transform="translate(645,177)"></g></g><g><g transform="translate(725,127)"></g><rect fill="none" stroke="#DDD" width="70" height="30" rx="8" ry="8" x="725" y="137"/><text text-anchor="middle" fill="#333" x="760" y="157">14-02</text><g transform="translate(725,177)"></g></g><g><g transform="translate(805,127)"></g><rect fill="none" stroke="#DDD" width="70" height="30" rx="8" ry="8" x="805" y="137"/><text text-anchor="middle" fill="#333" x="840" y="157">14-04</text><g transform="translate(805,177)"></g></g><g><g transform="translate(885,127)"></g><rect fill="none" stroke="#DDD" width="70" height="30" rx="8" ry="8" x="885" y="137"/><text text-anchor="middle" fill="#333" x="920" y="157">14-06</text><g transform="translate(885,177)"><g><a target="_top" xlink:href="dtp-sliceTagEnergy-step5605201-ofs0-col11-cat0.html"><rect style="display:none" class="hcell-act-col11-cat0" fill="#777" stroke="#000" stroke-width="5" width="70" height="267" x="0" y="5" rx="8" ry="8"/><rect class="hcell-col11-cat0" fill="#777" stroke="#DDD" width="70" height="277" x="0" y="0" rx="8" ry="8"/><text text-anchor="middle" fill="#FFF" x="35" y="20">-50</text></a></g></g></g><g><g transform="translate(965,127)"><g><a target="_top" xlink:href="dtp-sliceTagEnergy-step5605201-ofs0-col12-cat0.html"><rect style="display:none" class="hcell-act-col12-cat0" fill="#777" stroke="#000" stroke-width="5" width="70" height="22" x="0" y="-27" rx="8" ry="8"/><rect class="hcell-col12-cat0" fill="#777" stroke="#DDD" width="70" height="32" x="0" y="-32" rx="8" ry="8"/><text text-anchor="middle" fill="#FFF" x="35" y="-12">5</text></a></g></g><rect fill="none" stroke="#DDD" width="70" height="30" rx="8" ry="8" x="965" y="137"/><text text-anchor="middle" fill="#333" x="1000" y="157">14-08</text><g transform="translate(965,177)"></g></g><g><g transform="translate(1045,127)"><g><a target="_top" xlink:href="dtp-sliceTagEnergy-step5605201-ofs0-col13-cat0.html"><rect style="display:none" class="hcell-act-col13-cat0" fill="#777" stroke="#000" stroke-width="5" width="70" height="112" x="0" y="-117" rx="8" ry="8"/><rect class="hcell-col13-cat0" fill="#777" stroke="#DDD" width="70" height="122" x="0" y="-122" rx="8" ry="8"/><text text-anchor="middle" fill="#FFF" x="35" y="-102">22</text></a></g></g><rect fill="none" stroke="#DDD" width="70" height="30" rx="8" ry="8" x="1045" y="137"/><text text-anchor="middle" fill="#333" x="1080" y="157">14-10</text><g transform="translate(1045,177)"></g></g><g><g transform="translate(1125,127)"><g><a target="_top" xlink:href="dtp-sliceTagEnergy-step5605201-ofs0-col14-cat0.html"><rect style="display:none" class="hcell-act-col14-cat0" fill="#777" stroke="#000" stroke-width="5" width="70" height="47" x="0" y="-52" rx="8" ry="8"/><rect class="hcell-col14-cat0" fill="#777" stroke="#DDD" width="70" height="57" x="0" y="-57" rx="8" ry="8"/><text text-anchor="middle" fill="#FFF" x="35" y="-37">10</text></a></g></g><rect fill="none" stroke="#DDD" width="70" height="30" rx="8" ry="8" x="1125" y="137"/><text text-anchor="middle" fill="#333" x="1160" y="157">14-12</text><g transform="translate(1125,177)"></g></g><g><g transform="translate(1205,127)"></g><rect fill="none" stroke="#DDD" width="70" height="30" rx="8" ry="8" x="1205" y="137"/><text text-anchor="middle" fill="#333" x="1240" y="157">15-03</text><g transform="translate(1205,177)"><g><a target="_top" xlink:href="dtp-sliceTagEnergy-step5605201-ofs0-col15-cat0.html"><rect style="display:none" class="hcell-act-col15-cat0" fill="#777" stroke="#000" stroke-width="5" width="70" height="142" x="0" y="5" rx="8" ry="8"/><rect class="hcell-col15-cat0" fill="#777" stroke="#DDD" width="70" height="152" x="0" y="0" rx="8" ry="8"/><text text-anchor="middle" fill="#FFF" x="35" y="20">-28</text></a></g></g></g></svg>