<svg xmlns="http://www.w3.org/2000/svg" xmlns:xlink="http://www.w3.org/1999/xlink" width="100%" height="100%" viewBox="0 0 1280 459"><g><g transform="translate(5,171)"></g><rect fill="none" stroke="#DDD" width="70" height="30" rx="8" ry="8" x="5" y="181"/><text text-anchor="middle" fill="#333" x="40" y="201">14-01</text><g transform="translate(5,221)"></g></g><g><g transform="translate(85,171)"></g><rect fill="none" stroke="#DDD" width="70" height="30" rx="8" ry="8" x="85" y="181"/><text text-anchor="middle" fill="#333" x="120" y="201">14-03</text><g transform="translate(85,221)"></g></g><g><g transform="translate(165,171)"></g><rect fill="none" stroke="#DDD" width="70" height="30" rx="8" ry="8" x="165" y="181"/><text text-anchor="middle" fill="#333" x="200" y="201">14-04</text><g transform="translate(165,221)"></g></g><g><g transform="translate(245,171)"><g><a target="_top" xlink:href="dtp-sliceTag6PM-step2628000-ofs19-col22-cat0.html"><rect style="display:none" class="hcell-act-col22-cat0" fill="#777" stroke="#000" stroke-width="5" width="70" height="156" x="0" y="-161" rx="8" ry="8"/><rect class="hcell-col22-cat0" fill="#777" stroke="#DDD" width="70" height="166" x="0" y="-166" rx="8" ry="8"/><text text-anchor="middle" fill="#FFF" x="35" y="-146">47</text></a></g></g><rect fill="none" stroke="#DDD" width="70" height="30" rx="8" ry="8" x="245" y="181"/><text text-anchor="middle" fill="#333" x="280" y="201">14-05</text><g transform="translate(245,221)"></g></g><g><g transform="translate(325,171)"></g><rect fill="none" stroke="#DDD" width="70" height="30" rx="8" ry="8" x="325" y="181"/><text text-anchor="middle" fill="#333" x="360" y="201">14-06</text><g transform="translate(325,221)"></g></g><g><g transform="translate(405,171)"></g><rect fill="none" stroke="#DDD" width="70" height="30" rx="8" ry="8" x="405" y="181"/><text text-anchor="middle" fill="#333" x="440" y="201">14-07</text><g transform="translate(405,221)"></g></g><g><g transform="translate(485,171)"></g><rect fill="none" stroke="#DDD" width="70" height="30" rx="8" ry="8" x="485" y="181"/><text text-anchor="middle" fill="#333" x="520" y="201">14-08</text><g transform="translate(485,221)"><g><a target="_top" xlink:href="dtp-sliceTag6PM-step2628000-ofs19-col25-cat0.html"><rect style="display:none" class="hcell-act-col25-cat0" fill="#777" stroke="#000" stroke-width="5" width="70" height="223" x="0" y="5" rx="8" ry="8"/><rect class="hcell-col25-cat0" fill="#777" stroke="#DDD" width="70" height="233" x="0" y="0" rx="8" ry="8"/><text text-anchor="middle" fill="#FFF" x="35" y="20">-67</text></a></g></g></g><g><g transform="translate(565,171)"></g><rect fill="none" stroke="#DDD" width="70" height="30" rx="8" ry="8" x="565" y="181"/><text text-anchor="middle" fill="#333" x="600" y="201">14-08</text><g transform="translate(565,221)"></g></g><g><g transform="translate(645,171)"></g><rect fill="none" stroke="#DDD" width="70" height="30" rx="8" ry="8" x="645" y="181"/><text text-anchor="middle" fill="#333" x="680" y="201">14-10</text><g transform="translate(645,221)"></g></g><g><g transform="translate(725,171)"></g><rect fill="none" stroke="#DDD" width="70" height="30" rx="8" ry="8" x="725" y="181"/><text text-anchor="middle" fill="#333" x="760" y="201">14-10</text><g transform="translate(725,221)"></g></g><g><g transform="translate(805,171)"><g><a target="_top" xlink:href="dtp-sliceTag6PM-step2628000-ofs19-col29-cat0.html"><rect style="display:none" class="hcell-act-col29-cat0" fill="#777" stroke="#000" stroke-width="5" width="70" height="96" x="0" y="-101" rx="8" ry="8"/><rect class="hcell-col29-cat0" fill="#777" stroke="#DDD" width="70" height="106" x="0" y="-106" rx="8" ry="8"/><text text-anchor="middle" fill="#FFF" x="35" y="-86">30</text></a></g></g><rect fill="none" stroke="#DDD" width="70" height="30" rx="8" ry="8" x="805" y="181"/><text text-anchor="middle" fill="#333" x="840" y="201">14-12</text><g transform="translate(805,221)"></g></g><g><g transform="translate(885,171)"></g><rect fill="none" stroke="#DDD" width="70" height="30" rx="8" ry="8" x="885" y="181"/><text text-anchor="middle" fill="#333" x="920" y="201">14-12</text><g transform="translate(885,221)"></g></g><g><g transform="translate(965,171)"></g><rect fill="none" stroke="#DDD" width="70" height="30" rx="8" ry="8" x="965" y="181"/><text text-anchor="middle" fill="#333" x="1000" y="201">15-01</text><g transform="translate(965,221)"></g></g><g><g transform="translate(1045,171)"></g><rect fill="none" stroke="#DDD" width="70" height="30" rx="8" ry="8" x="1045" y="181"/><text text-anchor="middle" fill="#333" x="1080" y="201">15-03</text><g transform="translate(1045,221)"></g></g><g><g transform="translate(1125,171)"></g><rect fill="none" stroke="#DDD" width="70" height="30" rx="8" ry="8" x="1125" y="181"/><text text-anchor="middle" fill="#333" x="1160" y="201">15-04</text><g transform="translate(1125,221)"></g></g><g><g transform="translate(1205,171)"></g><rect fill="none" stroke="#DDD" width="70" height="30" rx="8" ry="8" x="1205" y="181"/><text text-anchor="middle" fill="#333" x="1240" y="201">15-05</text><g transform="translate(1205,221)"></g></g></svg>