<svg xmlns="http://www.w3.org/2000/svg" xmlns:xlink="http://www.w3.org/1999/xlink" width="100%" height="100%" viewBox="0 0 1280 557"><g><g transform="translate(5,249)"><g><a target="_top" xlink:href="dtp-slice5-step5605201-ofs0-col0-cat1.html"><rect style="display:none" class="hcell-act-col0-cat1" fill="#F0AD4E" stroke="#000" stroke-width="5" width="70" height="20" x="0" y="-25" rx="8" ry="8"/><rect class="hcell-col0-cat1" fill="#F0AD4E" stroke="#DDD" width="70" height="30" x="0" y="-30" rx="8" ry="8"/><text text-anchor="middle" fill="#FFF" x="35" y="-10">500</text></a><g transform="translate(0,-30)"><g><a target="_top" xlink:href="dtp-slice5-step5605201-ofs0-col0-cat3.html"><rect style="display:none" class="hcell-act-col0-cat3" fill="#5BC0DE" stroke="#000" stroke-width="5" width="70" height="20" x="0" y="-25" rx="8" ry="8"/><rect class="hcell-col0-cat3" fill="#5BC0DE" stroke="#DDD" width="70" height="30" x="0" y="-30" rx="8" ry="8"/><text text-anchor="middle" fill="#FFF" x="35" y="-10">590</text></a><g transform="translate(0,-30)"><g><a target="_top" xlink:href="dtp-slice5-step5605201-ofs0-col0-cat0.html"><rect style="display:none" class="hcell-act-col0-cat0" fill="#D9534F" stroke="#000" stroke-width="5" width="70" height="28" x="0" y="-33" rx="8" ry="8"/><rect class="hcell-col0-cat0" fill="#D9534F" stroke="#DDD" width="70" height="38" x="0" y="-38" rx="8" ry="8"/><text text-anchor="middle" fill="#FFF" x="35" y="-18">2486</text></a><g transform="translate(0,-38)"><g><a target="_top" xlink:href="dtp-slice5-step5605201-ofs0-col0-cat2.html"><rect style="display:none" class="hcell-act-col0-cat2" fill="#5CB85C" stroke="#000" stroke-width="5" width="70" height="74" x="0" y="-79" rx="8" ry="8"/><rect class="hcell-col0-cat2" fill="#5CB85C" stroke="#DDD" width="70" height="84" x="0" y="-84" rx="8" ry="8"/><text text-anchor="middle" fill="#FFF" x="35" y="-64">5491</text></a></g></g></g></g></g></g></g></g><rect fill="none" stroke="#DDD" width="70" height="30" rx="8" ry="8" x="5" y="259"/><text text-anchor="middle" fill="#333" x="40" y="279">12-07</text><g transform="translate(5,299)"><g><a target="_top" xlink:href="dtp-slice5-step5605201-ofs0-col0-cat1.html"><rect style="display:none" class="hcell-act-col0-cat1" fill="#F0AD4E" stroke="#000" stroke-width="5" width="70" height="20" x="0" y="5" rx="8" ry="8"/><rect class="hcell-col0-cat1" fill="#F0AD4E" stroke="#DDD" width="70" height="30" x="0" y="0" rx="8" ry="8"/><text text-anchor="middle" fill="#FFF" x="35" y="20">-48</text></a><g transform="translate(0,30)"><g><a target="_top" xlink:href="dtp-slice5-step5605201-ofs0-col0-cat2.html"><rect style="display:none" class="hcell-act-col0-cat2" fill="#5CB85C" stroke="#000" stroke-width="5" width="70" height="63" x="0" y="5" rx="8" ry="8"/><rect class="hcell-col0-cat2" fill="#5CB85C" stroke="#DDD" width="70" height="73" x="0" y="0" rx="8" ry="8"/><text text-anchor="middle" fill="#FFF" x="35" y="20">-4777</text></a></g></g></g></g></g><g><g transform="translate(85,249)"><g><a target="_top" xlink:href="dtp-slice5-step5605201-ofs0-col1-cat3.html"><rect style="display:none" class="hcell-act-col1-cat3" fill="#5BC0DE" stroke="#000" stroke-width="5" width="70" height="20" x="0" y="-25" rx="8" ry="8"/><rect class="hcell-col1-cat3" fill="#5BC0DE" stroke="#DDD" width="70" height="30" x="0" y="-30" rx="8" ry="8"/><text text-anchor="middle" fill="#FFF" x="35" y="-10">202</text></a><g transform="translate(0,-30)"><g><a target="_top" xlink:href="dtp-slice5-step5605201-ofs0-col1-cat5.html"><rect style="display:none" class="hcell-act-col1-cat5" fill="#777" stroke="#000" stroke-width="5" width="70" height="20" x="0" y="-25" rx="8" ry="8"/><rect class="hcell-col1-cat5" fill="#777" stroke="#DDD" width="70" height="30" x="0" y="-30" rx="8" ry="8"/><text text-anchor="middle" fill="#FFF" x="35" y="-10">1000</text></a><g transform="translate(0,-30)"><g><a target="_top" xlink:href="dtp-slice5-step5605201-ofs0-col1-cat2.html"><rect style="display:none" class="hcell-act-col1-cat2" fill="#5CB85C" stroke="#000" stroke-width="5" width="70" height="71" x="0" y="-76" rx="8" ry="8"/><rect class="hcell-col1-cat2" fill="#5CB85C" stroke="#DDD" width="70" height="81" x="0" y="-81" rx="8" ry="8"/><text text-anchor="middle" fill="#FFF" x="35" y="-61">5300</text></a></g></g></g></g></g></g><rect fill="none" stroke="#DDD" width="70" height="30" rx="8" ry="8" x="85" y="259"/><text text-anchor="middle" fill="#333" x="120" y="279">12-09</text><g transform="translate(85,299)"><g><a target="_top" xlink:href="dtp-slice5-step5605201-ofs0-col1-cat1.html"><rect style="display:none" class="hcell-act-col1-cat1" fill="#F0AD4E" stroke="#000" stroke-width="5" width="70" height="20" x="0" y="5" rx="8" ry="8"/><rect class="hcell-col1-cat1" fill="#F0AD4E" stroke="#DDD" width="70" height="30" x="0" y="0" rx="8" ry="8"/><text text-anchor="middle" fill="#FFF" x="35" y="20">-18</text></a><g transform="translate(0,30)"><g><a target="_top" xlink:href="dtp-slice5-step5605201-ofs0-col1-cat2.html"><rect style="display:none" class="hcell-act-col1-cat2" fill="#5CB85C" stroke="#000" stroke-width="5" width="70" height="74" x="0" y="5" rx="8" ry="8"/><rect class="hcell-col1-cat2" fill="#5CB85C" stroke="#DDD" width="70" height="84" x="0" y="0" rx="8" ry="8"/><text text-anchor="middle" fill="#FFF" x="35" y="20">-5486</text></a></g></g></g></g></g><g><g transform="translate(165,249)"><g><a target="_top" xlink:href="dtp-slice5-step5605201-ofs0-col2-cat4.html"><rect style="display:none" class="hcell-act-col2-cat4" fill="#337AB7" stroke="#000" stroke-width="5" width="70" height="20" x="0" y="-25" rx="8" ry="8"/><rect class="hcell-col2-cat4" fill="#337AB7" stroke="#DDD" width="70" height="30" x="0" y="-30" rx="8" ry="8"/><text text-anchor="middle" fill="#FFF" x="35" y="-10">32</text></a><g transform="translate(0,-30)"><g><a target="_top" xlink:href="dtp-slice5-step5605201-ofs0-col2-cat3.html"><rect style="display:none" class="hcell-act-col2-cat3" fill="#5BC0DE" stroke="#000" stroke-width="5" width="70" height="20" x="0" y="-25" rx="8" ry="8"/><rect class="hcell-col2-cat3" fill="#5BC0DE" stroke="#DDD" width="70" height="30" x="0" y="-30" rx="8" ry="8"/><text text-anchor="middle" fill="#FFF" x="35" y="-10">2000</text></a><g transform="translate(0,-30)"><g><a target="_top" xlink:href="dtp-slice5-step5605201-ofs0-col2-cat2.html"><rect style="display:none" class="hcell-act-col2-cat2" fill="#5CB85C" stroke="#000" stroke-width="5" width="70" height="88" x="0" y="-93" rx="8" ry="8"/><rect class="hcell-col2-cat2" fill="#5CB85C" stroke="#DDD" width="70" height="98" x="0" y="-98" rx="8" ry="8"/><text text-anchor="middle" fill="#FFF" x="35" y="-78">6432</text></a></g></g></g></g></g></g><rect fill="none" stroke="#DDD" width="70" height="30" rx="8" ry="8" x="165" y="259"/><text text-anchor="middle" fill="#333" x="200" y="279">12-11</text><g transform="translate(165,299)"><g><a target="_top" xlink:href="dtp-slice5-step5605201-ofs0-col2-cat1.html"><rect style="display:none" class="hcell-act-col2-cat1" fill="#F0AD4E" stroke="#000" stroke-width="5" width="70" height="20" x="0" y="5" rx="8" ry="8"/><rect class="hcell-col2-cat1" fill="#F0AD4E" stroke="#DDD" width="70" height="30" x="0" y="0" rx="8" ry="8"/><text text-anchor="middle" fill="#FFF" x="35" y="20">-48</text></a><g transform="translate(0,30)"><g><a target="_top" xlink:href="dtp-slice5-step5605201-ofs0-col2-cat4.html"><rect style="display:none" class="hcell-act-col2-cat4" fill="#337AB7" stroke="#000" stroke-width="5" width="70" height="20" x="0" y="5" rx="8" ry="8"/><rect class="hcell-col2-cat4" fill="#337AB7" stroke="#DDD" width="70" height="30" x="0" y="0" rx="8" ry="8"/><text text-anchor="middle" fill="#FFF" x="35" y="20">-719</text></a><g transform="translate(0,30)"><g><a target="_top" xlink:href="dtp-slice5-step5605201-ofs0-col2-cat3.html"><rect style="display:none" class="hcell-act-col2-cat3" fill="#5BC0DE" stroke="#000" stroke-width="5" width="70" height="20" x="0" y="5" rx="8" ry="8"/><rect class="hcell-col2-cat3" fill="#5BC0DE" stroke="#DDD" width="70" height="30" x="0" y="0" rx="8" ry="8"/><text text-anchor="middle" fill="#FFF" x="35" y="20">-1099</text></a><g transform="translate(0,30)"><g><a target="_top" xlink:href="dtp-slice5-step5605201-ofs0-col2-cat2.html"><rect style="display:none" class="hcell-act-col2-cat2" fill="#5CB85C" stroke="#000" stroke-width="5" width="70" height="59" x="0" y="5" rx="8" ry="8"/><rect class="hcell-col2-cat2" fill="#5CB85C" stroke="#DDD" width="70" height="69" x="0" y="0" rx="8" ry="8"/><text text-anchor="middle" fill="#FFF" x="35" y="20">-4492</text></a></g></g></g></g></g></g></g></g></g><g><g transform="translate(245,249)"><g><a target="_top" xlink:href="dtp-slice5-step5605201-ofs0-col3-cat4.html"><rect style="display:none" class="hcell-act-col3-cat4" fill="#337AB7" stroke="#000" stroke-width="5" width="70" height="20" x="0" y="-25" rx="8" ry="8"/><rect class="hcell-col3-cat4" fill="#337AB7" stroke="#DDD" width="70" height="30" x="0" y="-30" rx="8" ry="8"/><text text-anchor="middle" fill="#FFF" x="35" y="-10">42</text></a><g transform="translate(0,-30)"><g><a target="_top" xlink:href="dtp-slice5-step5605201-ofs0-col3-cat3.html"><rect style="display:none" class="hcell-act-col3-cat3" fill="#5BC0DE" stroke="#000" stroke-width="5" width="70" height="20" x="0" y="-25" rx="8" ry="8"/><rect class="hcell-col3-cat3" fill="#5BC0DE" stroke="#DDD" width="70" height="30" x="0" y="-30" rx="8" ry="8"/><text text-anchor="middle" fill="#FFF" x="35" y="-10">222</text></a><g transform="translate(0,-30)"><g><a target="_top" xlink:href="dtp-slice5-step5605201-ofs0-col3-cat0.html"><rect style="display:none" class="hcell-act-col3-cat0" fill="#D9534F" stroke="#000" stroke-width="5" width="70" height="20" x="0" y="-25" rx="8" ry="8"/><rect class="hcell-col3-cat0" fill="#D9534F" stroke="#DDD" width="70" height="30" x="0" y="-30" rx="8" ry="8"/><text text-anchor="middle" fill="#FFF" x="35" y="-10">480</text></a><g transform="translate(0,-30)"><g><a target="_top" xlink:href="dtp-slice5-step5605201-ofs0-col3-cat2.html"><rect style="display:none" class="hcell-act-col3-cat2" fill="#5CB85C" stroke="#000" stroke-width="5" width="70" height="97" x="0" y="-102" rx="8" ry="8"/><rect class="hcell-col3-cat2" fill="#5CB85C" stroke="#DDD" width="70" height="107" x="0" y="-107" rx="8" ry="8"/><text text-anchor="middle" fill="#FFF" x="35" y="-87">6983</text></a></g></g></g></g></g></g></g></g><rect fill="none" stroke="#DDD" width="70" height="30" rx="8" ry="8" x="245" y="259"/><text text-anchor="middle" fill="#333" x="280" y="279">13-01</text><g transform="translate(245,299)"><g><a target="_top" xlink:href="dtp-slice5-step5605201-ofs0-col3-cat1.html"><rect style="display:none" class="hcell-act-col3-cat1" fill="#F0AD4E" stroke="#000" stroke-width="5" width="70" height="20" x="0" y="5" rx="8" ry="8"/><rect class="hcell-col3-cat1" fill="#F0AD4E" stroke="#DDD" width="70" height="30" x="0" y="0" rx="8" ry="8"/><text text-anchor="middle" fill="#FFF" x="35" y="20">-71</text></a><g transform="translate(0,30)"><g><a target="_top" xlink:href="dtp-slice5-step5605201-ofs0-col3-cat4.html"><rect style="display:none" class="hcell-act-col3-cat4" fill="#337AB7" stroke="#000" stroke-width="5" width="70" height="20" x="0" y="5" rx="8" ry="8"/><rect class="hcell-col3-cat4" fill="#337AB7" stroke="#DDD" width="70" height="30" x="0" y="0" rx="8" ry="8"/><text text-anchor="middle" fill="#FFF" x="35" y="20">-1269</text></a><g transform="translate(0,30)"><g><a target="_top" xlink:href="dtp-slice5-step5605201-ofs0-col3-cat0.html"><rect style="display:none" class="hcell-act-col3-cat0" fill="#D9534F" stroke="#000" stroke-width="5" width="70" height="23" x="0" y="5" rx="8" ry="8"/><rect class="hcell-col3-cat0" fill="#D9534F" stroke="#DDD" width="70" height="33" x="0" y="0" rx="8" ry="8"/><text text-anchor="middle" fill="#FFF" x="35" y="20">-2200</text></a><g transform="translate(0,33)"><g><a target="_top" xlink:href="dtp-slice5-step5605201-ofs0-col3-cat2.html"><rect style="display:none" class="hcell-act-col3-cat2" fill="#5CB85C" stroke="#000" stroke-width="5" width="70" height="44" x="0" y="5" rx="8" ry="8"/><rect class="hcell-col3-cat2" fill="#5CB85C" stroke="#DDD" width="70" height="54" x="0" y="0" rx="8" ry="8"/><text text-anchor="middle" fill="#FFF" x="35" y="20">-3525</text></a></g></g></g></g></g></g></g></g></g><g><g transform="translate(325,249)"><g><a target="_top" xlink:href="dtp-slice5-step5605201-ofs0-col4-cat4.html"><rect style="display:none" class="hcell-act-col4-cat4" fill="#337AB7" stroke="#000" stroke-width="5" width="70" height="32" x="0" y="-37" rx="8" ry="8"/><rect class="hcell-col4-cat4" fill="#337AB7" stroke="#DDD" width="70" height="42" x="0" y="-42" rx="8" ry="8"/><text text-anchor="middle" fill="#FFF" x="35" y="-22">2758</text></a><g transform="translate(0,-42)"><g><a target="_top" xlink:href="dtp-slice5-step5605201-ofs0-col4-cat2.html"><rect style="display:none" class="hcell-act-col4-cat2" fill="#5CB85C" stroke="#000" stroke-width="5" width="70" height="109" x="0" y="-114" rx="8" ry="8"/><rect class="hcell-col4-cat2" fill="#5CB85C" stroke="#DDD" width="70" height="119" x="0" y="-119" rx="8" ry="8"/><text text-anchor="middle" fill="#FFF" x="35" y="-99">7800</text></a></g></g></g></g><rect fill="none" stroke="#DDD" width="70" height="30" rx="8" ry="8" x="325" y="259"/><text text-anchor="middle" fill="#333" x="360" y="279">13-03</text><g transform="translate(325,299)"><g><a target="_top" xlink:href="dtp-slice5-step5605201-ofs0-col4-cat1.html"><rect style="display:none" class="hcell-act-col4-cat1" fill="#F0AD4E" stroke="#000" stroke-width="5" width="70" height="20" x="0" y="5" rx="8" ry="8"/><rect class="hcell-col4-cat1" fill="#F0AD4E" stroke="#DDD" width="70" height="30" x="0" y="0" rx="8" ry="8"/><text text-anchor="middle" fill="#FFF" x="35" y="20">-26</text></a><g transform="translate(0,30)"><g><a target="_top" xlink:href="dtp-slice5-step5605201-ofs0-col4-cat4.html"><rect style="display:none" class="hcell-act-col4-cat4" fill="#337AB7" stroke="#000" stroke-width="5" width="70" height="20" x="0" y="5" rx="8" ry="8"/><rect class="hcell-col4-cat4" fill="#337AB7" stroke="#DDD" width="70" height="30" x="0" y="0" rx="8" ry="8"/><text text-anchor="middle" fill="#FFF" x="35" y="20">-1114</text></a><g transform="translate(0,30)"><g><a target="_top" xlink:href="dtp-slice5-step5605201-ofs0-col4-cat2.html"><rect style="display:none" class="hcell-act-col4-cat2" fill="#5CB85C" stroke="#000" stroke-width="5" width="70" height="84" x="0" y="5" rx="8" ry="8"/><rect class="hcell-col4-cat2" fill="#5CB85C" stroke="#DDD" width="70" height="94" x="0" y="0" rx="8" ry="8"/><text text-anchor="middle" fill="#FFF" x="35" y="20">-6135</text></a></g></g></g></g></g></g></g><g><g transform="translate(405,249)"><g><a target="_top" xlink:href="dtp-slice5-step5605201-ofs0-col5-cat4.html"><rect style="display:none" class="hcell-act-col5-cat4" fill="#337AB7" stroke="#000" stroke-width="5" width="70" height="20" x="0" y="-25" rx="8" ry="8"/><rect class="hcell-col5-cat4" fill="#337AB7" stroke="#DDD" width="70" height="30" x="0" y="-30" rx="8" ry="8"/><text text-anchor="middle" fill="#FFF" x="35" y="-10">1150</text></a><g transform="translate(0,-30)"><g><a target="_top" xlink:href="dtp-slice5-step5605201-ofs0-col5-cat3.html"><rect style="display:none" class="hcell-act-col5-cat3" fill="#5BC0DE" stroke="#000" stroke-width="5" width="70" height="20" x="0" y="-25" rx="8" ry="8"/><rect class="hcell-col5-cat3" fill="#5BC0DE" stroke="#DDD" width="70" height="30" x="0" y="-30" rx="8" ry="8"/><text text-anchor="middle" fill="#FFF" x="35" y="-10">1290</text></a><g transform="translate(0,-30)"><g><a target="_top" xlink:href="dtp-slice5-step5605201-ofs0-col5-cat2.html"><rect style="display:none" class="hcell-act-col5-cat2" fill="#5CB85C" stroke="#000" stroke-width="5" width="70" height="72" x="0" y="-77" rx="8" ry="8"/><rect class="hcell-col5-cat2" fill="#5CB85C" stroke="#DDD" width="70" height="82" x="0" y="-82" rx="8" ry="8"/><text text-anchor="middle" fill="#FFF" x="35" y="-62">5339</text></a></g></g></g></g></g></g><rect fill="none" stroke="#DDD" width="70" height="30" rx="8" ry="8" x="405" y="259"/><text text-anchor="middle" fill="#333" x="440" y="279">13-05</text><g transform="translate(405,299)"><g><a target="_top" xlink:href="dtp-slice5-step5605201-ofs0-col5-cat1.html"><rect style="display:none" class="hcell-act-col5-cat1" fill="#F0AD4E" stroke="#000" stroke-width="5" width="70" height="20" x="0" y="5" rx="8" ry="8"/><rect class="hcell-col5-cat1" fill="#F0AD4E" stroke="#DDD" width="70" height="30" x="0" y="0" rx="8" ry="8"/><text text-anchor="middle" fill="#FFF" x="35" y="20">-8</text></a><g transform="translate(0,30)"><g><a target="_top" xlink:href="dtp-slice5-step5605201-ofs0-col5-cat4.html"><rect style="display:none" class="hcell-act-col5-cat4" fill="#337AB7" stroke="#000" stroke-width="5" width="70" height="20" x="0" y="5" rx="8" ry="8"/><rect class="hcell-col5-cat4" fill="#337AB7" stroke="#DDD" width="70" height="30" x="0" y="0" rx="8" ry="8"/><text text-anchor="middle" fill="#FFF" x="35" y="20">-1028</text></a><g transform="translate(0,30)"><g><a target="_top" xlink:href="dtp-slice5-step5605201-ofs0-col5-cat0.html"><rect style="display:none" class="hcell-act-col5-cat0" fill="#D9534F" stroke="#000" stroke-width="5" width="70" height="20" x="0" y="5" rx="8" ry="8"/><rect class="hcell-col5-cat0" fill="#D9534F" stroke="#DDD" width="70" height="30" x="0" y="0" rx="8" ry="8"/><text text-anchor="middle" fill="#FFF" x="35" y="20">-1560</text></a><g transform="translate(0,30)"><g><a target="_top" xlink:href="dtp-slice5-step5605201-ofs0-col5-cat2.html"><rect style="display:none" class="hcell-act-col5-cat2" fill="#5CB85C" stroke="#000" stroke-width="5" width="70" height="146" x="0" y="5" rx="8" ry="8"/><rect class="hcell-col5-cat2" fill="#5CB85C" stroke="#DDD" width="70" height="156" x="0" y="0" rx="8" ry="8"/><text text-anchor="middle" fill="#FFF" x="35" y="20">-10178</text></a></g></g></g></g></g></g></g></g></g><g><g transform="translate(485,249)"><g><a target="_top" xlink:href="dtp-slice5-step5605201-ofs0-col6-cat0.html"><rect style="display:none" class="hcell-act-col6-cat0" fill="#D9534F" stroke="#000" stroke-width="5" width="70" height="20" x="0" y="-25" rx="8" ry="8"/><rect class="hcell-col6-cat0" fill="#D9534F" stroke="#DDD" width="70" height="30" x="0" y="-30" rx="8" ry="8"/><text text-anchor="middle" fill="#FFF" x="35" y="-10">1900</text></a><g transform="translate(0,-30)"><g><a target="_top" xlink:href="dtp-slice5-step5605201-ofs0-col6-cat2.html"><rect style="display:none" class="hcell-act-col6-cat2" fill="#5CB85C" stroke="#000" stroke-width="5" width="70" height="70" x="0" y="-75" rx="8" ry="8"/><rect class="hcell-col6-cat2" fill="#5CB85C" stroke="#DDD" width="70" height="80" x="0" y="-80" rx="8" ry="8"/><text text-anchor="middle" fill="#FFF" x="35" y="-60">5224</text></a></g></g></g></g><rect fill="none" stroke="#DDD" width="70" height="30" rx="8" ry="8" x="485" y="259"/><text text-anchor="middle" fill="#333" x="520" y="279">13-07</text><g transform="translate(485,299)"><g><a target="_top" xlink:href="dtp-slice5-step5605201-ofs0-col6-cat1.html"><rect style="display:none" class="hcell-act-col6-cat1" fill="#F0AD4E" stroke="#000" stroke-width="5" width="70" height="20" x="0" y="5" rx="8" ry="8"/><rect class="hcell-col6-cat1" fill="#F0AD4E" stroke="#DDD" width="70" height="30" x="0" y="0" rx="8" ry="8"/><text text-anchor="middle" fill="#FFF" x="35" y="20">-75</text></a><g transform="translate(0,30)"><g><a target="_top" xlink:href="dtp-slice5-step5605201-ofs0-col6-cat4.html"><rect style="display:none" class="hcell-act-col6-cat4" fill="#337AB7" stroke="#000" stroke-width="5" width="70" height="20" x="0" y="5" rx="8" ry="8"/><rect class="hcell-col6-cat4" fill="#337AB7" stroke="#DDD" width="70" height="30" x="0" y="0" rx="8" ry="8"/><text text-anchor="middle" fill="#FFF" x="35" y="20">-915</text></a><g transform="translate(0,30)"><g><a target="_top" xlink:href="dtp-slice5-step5605201-ofs0-col6-cat2.html"><rect style="display:none" class="hcell-act-col6-cat2" fill="#5CB85C" stroke="#000" stroke-width="5" width="70" height="42" x="0" y="5" rx="8" ry="8"/><rect class="hcell-col6-cat2" fill="#5CB85C" stroke="#DDD" width="70" height="52" x="0" y="0" rx="8" ry="8"/><text text-anchor="middle" fill="#FFF" x="35" y="20">-3391</text></a></g></g></g></g></g></g></g><g><g transform="translate(565,249)"><g><a target="_top" xlink:href="dtp-slice5-step5605201-ofs0-col7-cat4.html"><rect style="display:none" class="hcell-act-col7-cat4" fill="#337AB7" stroke="#000" stroke-width="5" width="70" height="20" x="0" y="-25" rx="8" ry="8"/><rect class="hcell-col7-cat4" fill="#337AB7" stroke="#DDD" width="70" height="30" x="0" y="-30" rx="8" ry="8"/><text text-anchor="middle" fill="#FFF" x="35" y="-10">1849</text></a><g transform="translate(0,-30)"><g><a target="_top" xlink:href="dtp-slice5-step5605201-ofs0-col7-cat2.html"><rect style="display:none" class="hcell-act-col7-cat2" fill="#5CB85C" stroke="#000" stroke-width="5" width="70" height="77" x="0" y="-82" rx="8" ry="8"/><rect class="hcell-col7-cat2" fill="#5CB85C" stroke="#DDD" width="70" height="87" x="0" y="-87" rx="8" ry="8"/><text text-anchor="middle" fill="#FFF" x="35" y="-67">5682</text></a></g></g></g></g><rect fill="none" stroke="#DDD" width="70" height="30" rx="8" ry="8" x="565" y="259"/><text text-anchor="middle" fill="#333" x="600" y="279">13-09</text><g transform="translate(565,299)"><g><a target="_top" xlink:href="dtp-slice5-step5605201-ofs0-col7-cat0.html"><rect style="display:none" class="hcell-act-col7-cat0" fill="#D9534F" stroke="#000" stroke-width="5" width="70" height="20" x="0" y="5" rx="8" ry="8"/><rect class="hcell-col7-cat0" fill="#D9534F" stroke="#DDD" width="70" height="30" x="0" y="0" rx="8" ry="8"/><text text-anchor="middle" fill="#FFF" x="35" y="20">-10</text></a><g transform="translate(0,30)"><g><a target="_top" xlink:href="dtp-slice5-step5605201-ofs0-col7-cat1.html"><rect style="display:none" class="hcell-act-col7-cat1" fill="#F0AD4E" stroke="#000" stroke-width="5" width="70" height="20" x="0" y="5" rx="8" ry="8"/><rect class="hcell-col7-cat1" fill="#F0AD4E" stroke="#DDD" width="70" height="30" x="0" y="0" rx="8" ry="8"/><text text-anchor="middle" fill="#FFF" x="35" y="20">-64</text></a><g transform="translate(0,30)"><g><a target="_top" xlink:href="dtp-slice5-step5605201-ofs0-col7-cat3.html"><rect style="display:none" class="hcell-act-col7-cat3" fill="#5BC0DE" stroke="#000" stroke-width="5" width="70" height="20" x="0" y="5" rx="8" ry="8"/><rect class="hcell-col7-cat3" fill="#5BC0DE" stroke="#DDD" width="70" height="30" x="0" y="0" rx="8" ry="8"/><text text-anchor="middle" fill="#FFF" x="35" y="20">-371</text></a><g transform="translate(0,30)"><g><a target="_top" xlink:href="dtp-slice5-step5605201-ofs0-col7-cat4.html"><rect style="display:none" class="hcell-act-col7-cat4" fill="#337AB7" stroke="#000" stroke-width="5" width="70" height="20" x="0" y="5" rx="8" ry="8"/><rect class="hcell-col7-cat4" fill="#337AB7" stroke="#DDD" width="70" height="30" x="0" y="0" rx="8" ry="8"/><text text-anchor="middle" fill="#FFF" x="35" y="20">-1501</text></a><g transform="translate(0,30)"><g><a target="_top" xlink:href="dtp-slice5-step5605201-ofs0-col7-cat2.html"><rect style="display:none" class="hcell-act-col7-cat2" fill="#5CB85C" stroke="#000" stroke-width="5" width="70" height="64" x="0" y="5" rx="8" ry="8"/><rect class="hcell-col7-cat2" fill="#5CB85C" stroke="#DDD" width="70" height="74" x="0" y="0" rx="8" ry="8"/><text text-anchor="middle" fill="#FFF" x="35" y="20">-4866</text></a></g></g></g></g></g></g></g></g></g></g></g><g><g transform="translate(645,249)"><g><a target="_top" xlink:href="dtp-slice5-step5605201-ofs0-col8-cat3.html"><rect style="display:none" class="hcell-act-col8-cat3" fill="#5BC0DE" stroke="#000" stroke-width="5" width="70" height="20" x="0" y="-25" rx="8" ry="8"/><rect class="hcell-col8-cat3" fill="#5BC0DE" stroke="#DDD" width="70" height="30" x="0" y="-30" rx="8" ry="8"/><text text-anchor="middle" fill="#FFF" x="35" y="-10">640</text></a><g transform="translate(0,-30)"><g><a target="_top" xlink:href="dtp-slice5-step5605201-ofs0-col8-cat4.html"><rect style="display:none" class="hcell-act-col8-cat4" fill="#337AB7" stroke="#000" stroke-width="5" width="70" height="22" x="0" y="-27" rx="8" ry="8"/><rect class="hcell-col8-cat4" fill="#337AB7" stroke="#DDD" width="70" height="32" x="0" y="-32" rx="8" ry="8"/><text text-anchor="middle" fill="#FFF" x="35" y="-12">2097</text></a><g transform="translate(0,-32)"><g><a target="_top" xlink:href="dtp-slice5-step5605201-ofs0-col8-cat2.html"><rect style="display:none" class="hcell-act-col8-cat2" fill="#5CB85C" stroke="#000" stroke-width="5" width="70" height="70" x="0" y="-75" rx="8" ry="8"/><rect class="hcell-col8-cat2" fill="#5CB85C" stroke="#DDD" width="70" height="80" x="0" y="-80" rx="8" ry="8"/><text text-anchor="middle" fill="#FFF" x="35" y="-60">5260</text></a></g></g></g></g></g></g><rect fill="none" stroke="#DDD" width="70" height="30" rx="8" ry="8" x="645" y="259"/><text text-anchor="middle" fill="#333" x="680" y="279">13-12</text><g transform="translate(645,299)"><g><a target="_top" xlink:href="dtp-slice5-step5605201-ofs0-col8-cat1.html"><rect style="display:none" class="hcell-act-col8-cat1" fill="#F0AD4E" stroke="#000" stroke-width="5" width="70" height="20" x="0" y="5" rx="8" ry="8"/><rect class="hcell-col8-cat1" fill="#F0AD4E" stroke="#DDD" width="70" height="30" x="0" y="0" rx="8" ry="8"/><text text-anchor="middle" fill="#FFF" x="35" y="20">-1</text></a><g transform="translate(0,30)"><g><a target="_top" xlink:href="dtp-slice5-step5605201-ofs0-col8-cat4.html"><rect style="display:none" class="hcell-act-col8-cat4" fill="#337AB7" stroke="#000" stroke-width="5" width="70" height="20" x="0" y="5" rx="8" ry="8"/><rect class="hcell-col8-cat4" fill="#337AB7" stroke="#DDD" width="70" height="30" x="0" y="0" rx="8" ry="8"/><text text-anchor="middle" fill="#FFF" x="35" y="20">-1597</text></a><g transform="translate(0,30)"><g><a target="_top" xlink:href="dtp-slice5-step5605201-ofs0-col8-cat3.html"><rect style="display:none" class="hcell-act-col8-cat3" fill="#5BC0DE" stroke="#000" stroke-width="5" width="70" height="20" x="0" y="5" rx="8" ry="8"/><rect class="hcell-col8-cat3" fill="#5BC0DE" stroke="#DDD" width="70" height="30" x="0" y="0" rx="8" ry="8"/><text text-anchor="middle" fill="#FFF" x="35" y="20">-1680</text></a><g transform="translate(0,30)"><g><a target="_top" xlink:href="dtp-slice5-step5605201-ofs0-col8-cat2.html"><rect style="display:none" class="hcell-act-col8-cat2" fill="#5CB85C" stroke="#000" stroke-width="5" width="70" height="77" x="0" y="5" rx="8" ry="8"/><rect class="hcell-col8-cat2" fill="#5CB85C" stroke="#DDD" width="70" height="87" x="0" y="0" rx="8" ry="8"/><text text-anchor="middle" fill="#FFF" x="35" y="20">-5687</text></a></g></g></g></g></g></g></g></g></g><g><g transform="translate(725,249)"><g><a target="_top" xlink:href="dtp-slice5-step5605201-ofs0-col9-cat1.html"><rect style="display:none" class="hcell-act-col9-cat1" fill="#F0AD4E" stroke="#000" stroke-width="5" width="70" height="20" x="0" y="-25" rx="8" ry="8"/><rect class="hcell-col9-cat1" fill="#F0AD4E" stroke="#DDD" width="70" height="30" x="0" y="-30" rx="8" ry="8"/><text text-anchor="middle" fill="#FFF" x="35" y="-10">29</text></a><g transform="translate(0,-30)"><g><a target="_top" xlink:href="dtp-slice5-step5605201-ofs0-col9-cat0.html"><rect style="display:none" class="hcell-act-col9-cat0" fill="#D9534F" stroke="#000" stroke-width="5" width="70" height="20" x="0" y="-25" rx="8" ry="8"/><rect class="hcell-col9-cat0" fill="#D9534F" stroke="#DDD" width="70" height="30" x="0" y="-30" rx="8" ry="8"/><text text-anchor="middle" fill="#FFF" x="35" y="-10">1680</text></a><g transform="translate(0,-30)"><g><a target="_top" xlink:href="dtp-slice5-step5605201-ofs0-col9-cat4.html"><rect style="display:none" class="hcell-act-col9-cat4" fill="#337AB7" stroke="#000" stroke-width="5" width="70" height="39" x="0" y="-44" rx="8" ry="8"/><rect class="hcell-col9-cat4" fill="#337AB7" stroke="#DDD" width="70" height="49" x="0" y="-49" rx="8" ry="8"/><text text-anchor="middle" fill="#FFF" x="35" y="-29">3220</text></a><g transform="translate(0,-49)"><g><a target="_top" xlink:href="dtp-slice5-step5605201-ofs0-col9-cat2.html"><rect style="display:none" class="hcell-act-col9-cat2" fill="#5CB85C" stroke="#000" stroke-width="5" width="70" height="93" x="0" y="-98" rx="8" ry="8"/><rect class="hcell-col9-cat2" fill="#5CB85C" stroke="#DDD" width="70" height="103" x="0" y="-103" rx="8" ry="8"/><text text-anchor="middle" fill="#FFF" x="35" y="-83">6726</text></a></g></g></g></g></g></g></g></g><rect fill="none" stroke="#DDD" width="70" height="30" rx="8" ry="8" x="725" y="259"/><text text-anchor="middle" fill="#333" x="760" y="279">14-02</text><g transform="translate(725,299)"><g><a target="_top" xlink:href="dtp-slice5-step5605201-ofs0-col9-cat1.html"><rect style="display:none" class="hcell-act-col9-cat1" fill="#F0AD4E" stroke="#000" stroke-width="5" width="70" height="20" x="0" y="5" rx="8" ry="8"/><rect class="hcell-col9-cat1" fill="#F0AD4E" stroke="#DDD" width="70" height="30" x="0" y="0" rx="8" ry="8"/><text text-anchor="middle" fill="#FFF" x="35" y="20">-79</text></a><g transform="translate(0,30)"><g><a target="_top" xlink:href="dtp-slice5-step5605201-ofs0-col9-cat0.html"><rect style="display:none" class="hcell-act-col9-cat0" fill="#D9534F" stroke="#000" stroke-width="5" width="70" height="20" x="0" y="5" rx="8" ry="8"/><rect class="hcell-col9-cat0" fill="#D9534F" stroke="#DDD" width="70" height="30" x="0" y="0" rx="8" ry="8"/><text text-anchor="middle" fill="#FFF" x="35" y="20">-640</text></a><g transform="translate(0,30)"><g><a target="_top" xlink:href="dtp-slice5-step5605201-ofs0-col9-cat4.html"><rect style="display:none" class="hcell-act-col9-cat4" fill="#337AB7" stroke="#000" stroke-width="5" width="70" height="30" x="0" y="5" rx="8" ry="8"/><rect class="hcell-col9-cat4" fill="#337AB7" stroke="#DDD" width="70" height="40" x="0" y="0" rx="8" ry="8"/><text text-anchor="middle" fill="#FFF" x="35" y="20">-2637</text></a><g transform="translate(0,40)"><g><a target="_top" xlink:href="dtp-slice5-step5605201-ofs0-col9-cat3.html"><rect style="display:none" class="hcell-act-col9-cat3" fill="#5BC0DE" stroke="#000" stroke-width="5" width="70" height="36" x="0" y="5" rx="8" ry="8"/><rect class="hcell-col9-cat3" fill="#5BC0DE" stroke="#DDD" width="70" height="46" x="0" y="0" rx="8" ry="8"/><text text-anchor="middle" fill="#FFF" x="35" y="20">-3000</text></a><g transform="translate(0,46)"><g><a target="_top" xlink:href="dtp-slice5-step5605201-ofs0-col9-cat2.html"><rect style="display:none" class="hcell-act-col9-cat2" fill="#5CB85C" stroke="#000" stroke-width="5" width="70" height="97" x="0" y="5" rx="8" ry="8"/><rect class="hcell-col9-cat2" fill="#5CB85C" stroke="#DDD" width="70" height="107" x="0" y="0" rx="8" ry="8"/><text text-anchor="middle" fill="#FFF" x="35" y="20">-6962</text></a></g></g></g></g></g></g></g></g></g></g></g><g><g transform="translate(805,249)"><g><a target="_top" xlink:href="dtp-slice5-step5605201-ofs0-col10-cat1.html"><rect style="display:none" class="hcell-act-col10-cat1" fill="#F0AD4E" stroke="#000" stroke-width="5" width="70" height="20" x="0" y="-25" rx="8" ry="8"/><rect class="hcell-col10-cat1" fill="#F0AD4E" stroke="#DDD" width="70" height="30" x="0" y="-30" rx="8" ry="8"/><text text-anchor="middle" fill="#FFF" x="35" y="-10">120</text></a><g transform="translate(0,-30)"><g><a target="_top" xlink:href="dtp-slice5-step5605201-ofs0-col10-cat3.html"><rect style="display:none" class="hcell-act-col10-cat3" fill="#5BC0DE" stroke="#000" stroke-width="5" width="70" height="20" x="0" y="-25" rx="8" ry="8"/><rect class="hcell-col10-cat3" fill="#5BC0DE" stroke="#DDD" width="70" height="30" x="0" y="-30" rx="8" ry="8"/><text text-anchor="middle" fill="#FFF" x="35" y="-10">940</text></a><g transform="translate(0,-30)"><g><a target="_top" xlink:href="dtp-slice5-step5605201-ofs0-col10-cat0.html"><rect style="display:none" class="hcell-act-col10-cat0" fill="#D9534F" stroke="#000" stroke-width="5" width="70" height="20" x="0" y="-25" rx="8" ry="8"/><rect class="hcell-col10-cat0" fill="#D9534F" stroke="#DDD" width="70" height="30" x="0" y="-30" rx="8" ry="8"/><text text-anchor="middle" fill="#FFF" x="35" y="-10">1500</text></a><g transform="translate(0,-30)"><g><a target="_top" xlink:href="dtp-slice5-step5605201-ofs0-col10-cat4.html"><rect style="display:none" class="hcell-act-col10-cat4" fill="#337AB7" stroke="#000" stroke-width="5" width="70" height="23" x="0" y="-28" rx="8" ry="8"/><rect class="hcell-col10-cat4" fill="#337AB7" stroke="#DDD" width="70" height="33" x="0" y="-33" rx="8" ry="8"/><text text-anchor="middle" fill="#FFF" x="35" y="-13">2205</text></a><g transform="translate(0,-33)"><g><a target="_top" xlink:href="dtp-slice5-step5605201-ofs0-col10-cat2.html"><rect style="display:none" class="hcell-act-col10-cat2" fill="#5CB85C" stroke="#000" stroke-width="5" width="70" height="111" x="0" y="-116" rx="8" ry="8"/><rect class="hcell-col10-cat2" fill="#5CB85C" stroke="#DDD" width="70" height="121" x="0" y="-121" rx="8" ry="8"/><text text-anchor="middle" fill="#FFF" x="35" y="-101">7919</text></a></g></g></g></g></g></g></g></g></g></g><rect fill="none" stroke="#DDD" width="70" height="30" rx="8" ry="8" x="805" y="259"/><text text-anchor="middle" fill="#333" x="840" y="279">14-04</text><g transform="translate(805,299)"><g><a target="_top" xlink:href="dtp-slice5-step5605201-ofs0-col10-cat1.html"><rect style="display:none" class="hcell-act-col10-cat1" fill="#F0AD4E" stroke="#000" stroke-width="5" width="70" height="20" x="0" y="5" rx="8" ry="8"/><rect class="hcell-col10-cat1" fill="#F0AD4E" stroke="#DDD" width="70" height="30" x="0" y="0" rx="8" ry="8"/><text text-anchor="middle" fill="#FFF" x="35" y="20">-205</text></a><g transform="translate(0,30)"><g><a target="_top" xlink:href="dtp-slice5-step5605201-ofs0-col10-cat0.html"><rect style="display:none" class="hcell-act-col10-cat0" fill="#D9534F" stroke="#000" stroke-width="5" width="70" height="20" x="0" y="5" rx="8" ry="8"/><rect class="hcell-col10-cat0" fill="#D9534F" stroke="#DDD" width="70" height="30" x="0" y="0" rx="8" ry="8"/><text text-anchor="middle" fill="#FFF" x="35" y="20">-940</text></a><g transform="translate(0,30)"><g><a target="_top" xlink:href="dtp-slice5-step5605201-ofs0-col10-cat4.html"><rect style="display:none" class="hcell-act-col10-cat4" fill="#337AB7" stroke="#000" stroke-width="5" width="70" height="65" x="0" y="5" rx="8" ry="8"/><rect class="hcell-col10-cat4" fill="#337AB7" stroke="#DDD" width="70" height="75" x="0" y="0" rx="8" ry="8"/><text text-anchor="middle" fill="#FFF" x="35" y="20">-4886</text></a><g transform="translate(0,75)"><g><a target="_top" xlink:href="dtp-slice5-step5605201-ofs0-col10-cat2.html"><rect style="display:none" class="hcell-act-col10-cat2" fill="#5CB85C" stroke="#000" stroke-width="5" width="70" height="74" x="0" y="5" rx="8" ry="8"/><rect class="hcell-col10-cat2" fill="#5CB85C" stroke="#DDD" width="70" height="84" x="0" y="0" rx="8" ry="8"/><text text-anchor="middle" fill="#FFF" x="35" y="20">-5509</text></a></g></g></g></g></g></g></g></g></g><g><g transform="translate(885,249)"><g><a target="_top" xlink:href="dtp-slice5-step5605201-ofs0-col11-cat4.html"><rect style="display:none" class="hcell-act-col11-cat4" fill="#337AB7" stroke="#000" stroke-width="5" width="70" height="20" x="0" y="-25" rx="8" ry="8"/><rect class="hcell-col11-cat4" fill="#337AB7" stroke="#DDD" width="70" height="30" x="0" y="-30" rx="8" ry="8"/><text text-anchor="middle" fill="#FFF" x="35" y="-10">12</text></a><g transform="translate(0,-30)"><g><a target="_top" xlink:href="dtp-slice5-step5605201-ofs0-col11-cat1.html"><rect style="display:none" class="hcell-act-col11-cat1" fill="#F0AD4E" stroke="#000" stroke-width="5" width="70" height="20" x="0" y="-25" rx="8" ry="8"/><rect class="hcell-col11-cat1" fill="#F0AD4E" stroke="#DDD" width="70" height="30" x="0" y="-30" rx="8" ry="8"/><text text-anchor="middle" fill="#FFF" x="35" y="-10">89</text></a><g transform="translate(0,-30)"><g><a target="_top" xlink:href="dtp-slice5-step5605201-ofs0-col11-cat3.html"><rect style="display:none" class="hcell-act-col11-cat3" fill="#5BC0DE" stroke="#000" stroke-width="5" width="70" height="20" x="0" y="-25" rx="8" ry="8"/><rect class="hcell-col11-cat3" fill="#5BC0DE" stroke="#DDD" width="70" height="30" x="0" y="-30" rx="8" ry="8"/><text text-anchor="middle" fill="#FFF" x="35" y="-10">1020</text></a><g transform="translate(0,-30)"><g><a target="_top" xlink:href="dtp-slice5-step5605201-ofs0-col11-cat2.html"><rect style="display:none" class="hcell-act-col11-cat2" fill="#5CB85C" stroke="#000" stroke-width="5" width="70" height="69" x="0" y="-74" rx="8" ry="8"/><rect class="hcell-col11-cat2" fill="#5CB85C" stroke="#DDD" width="70" height="79" x="0" y="-79" rx="8" ry="8"/><text text-anchor="middle" fill="#FFF" x="35" y="-59">5200</text></a></g></g></g></g></g></g></g></g><rect fill="none" stroke="#DDD" width="70" height="30" rx="8" ry="8" x="885" y="259"/><text text-anchor="middle" fill="#333" x="920" y="279">14-06</text><g transform="translate(885,299)"><g><a target="_top" xlink:href="dtp-slice5-step5605201-ofs0-col11-cat1.html"><rect style="display:none" class="hcell-act-col11-cat1" fill="#F0AD4E" stroke="#000" stroke-width="5" width="70" height="20" x="0" y="5" rx="8" ry="8"/><rect class="hcell-col11-cat1" fill="#F0AD4E" stroke="#DDD" width="70" height="30" x="0" y="0" rx="8" ry="8"/><text text-anchor="middle" fill="#FFF" x="35" y="20">-325</text></a><g transform="translate(0,30)"><g><a target="_top" xlink:href="dtp-slice5-step5605201-ofs0-col11-cat0.html"><rect style="display:none" class="hcell-act-col11-cat0" fill="#D9534F" stroke="#000" stroke-width="5" width="70" height="20" x="0" y="5" rx="8" ry="8"/><rect class="hcell-col11-cat0" fill="#D9534F" stroke="#DDD" width="70" height="30" x="0" y="0" rx="8" ry="8"/><text text-anchor="middle" fill="#FFF" x="35" y="20">-1030</text></a><g transform="translate(0,30)"><g><a target="_top" xlink:href="dtp-slice5-step5605201-ofs0-col11-cat4.html"><rect style="display:none" class="hcell-act-col11-cat4" fill="#337AB7" stroke="#000" stroke-width="5" width="70" height="20" x="0" y="5" rx="8" ry="8"/><rect class="hcell-col11-cat4" fill="#337AB7" stroke="#DDD" width="70" height="30" x="0" y="0" rx="8" ry="8"/><text text-anchor="middle" fill="#FFF" x="35" y="20">-1739</text></a><g transform="translate(0,30)"><g><a target="_top" xlink:href="dtp-slice5-step5605201-ofs0-col11-cat2.html"><rect style="display:none" class="hcell-act-col11-cat2" fill="#5CB85C" stroke="#000" stroke-width="5" width="70" height="59" x="0" y="5" rx="8" ry="8"/><rect class="hcell-col11-cat2" fill="#5CB85C" stroke="#DDD" width="70" height="69" x="0" y="0" rx="8" ry="8"/><text text-anchor="middle" fill="#FFF" x="35" y="20">-4537</text></a></g></g></g></g></g></g></g></g></g><g><g transform="translate(965,249)"><g><a target="_top" xlink:href="dtp-slice5-step5605201-ofs0-col12-cat2.html"><rect style="display:none" class="hcell-act-col12-cat2" fill="#5CB85C" stroke="#000" stroke-width="5" width="70" height="69" x="0" y="-74" rx="8" ry="8"/><rect class="hcell-col12-cat2" fill="#5CB85C" stroke="#DDD" width="70" height="79" x="0" y="-79" rx="8" ry="8"/><text text-anchor="middle" fill="#FFF" x="35" y="-59">5200</text></a></g></g><rect fill="none" stroke="#DDD" width="70" height="30" rx="8" ry="8" x="965" y="259"/><text text-anchor="middle" fill="#333" x="1000" y="279">14-08</text><g transform="translate(965,299)"><g><a target="_top" xlink:href="dtp-slice5-step5605201-ofs0-col12-cat2.html"><rect style="display:none" class="hcell-act-col12-cat2" fill="#5CB85C" stroke="#000" stroke-width="5" width="70" height="79" x="0" y="5" rx="8" ry="8"/><rect class="hcell-col12-cat2" fill="#5CB85C" stroke="#DDD" width="70" height="89" x="0" y="0" rx="8" ry="8"/><text text-anchor="middle" fill="#FFF" x="35" y="20">-5847</text></a></g></g></g><g><g transform="translate(1045,249)"><g><a target="_top" xlink:href="dtp-slice5-step5605201-ofs0-col13-cat2.html"><rect style="display:none" class="hcell-act-col13-cat2" fill="#5CB85C" stroke="#000" stroke-width="5" width="70" height="69" x="0" y="-74" rx="8" ry="8"/><rect class="hcell-col13-cat2" fill="#5CB85C" stroke="#DDD" width="70" height="79" x="0" y="-79" rx="8" ry="8"/><text text-anchor="middle" fill="#FFF" x="35" y="-59">5200</text></a></g></g><rect fill="none" stroke="#DDD" width="70" height="30" rx="8" ry="8" x="1045" y="259"/><text text-anchor="middle" fill="#333" x="1080" y="279">14-10</text><g transform="translate(1045,299)"><g><a target="_top" xlink:href="dtp-slice5-step5605201-ofs0-col13-cat2.html"><rect style="display:none" class="hcell-act-col13-cat2" fill="#5CB85C" stroke="#000" stroke-width="5" width="70" height="81" x="0" y="5" rx="8" ry="8"/><rect class="hcell-col13-cat2" fill="#5CB85C" stroke="#DDD" width="70" height="91" x="0" y="0" rx="8" ry="8"/><text text-anchor="middle" fill="#FFF" x="35" y="20">-5950</text></a></g></g></g><g><g transform="translate(1125,249)"><g><a target="_top" xlink:href="dtp-slice5-step5605201-ofs0-col14-cat2.html"><rect style="display:none" class="hcell-act-col14-cat2" fill="#5CB85C" stroke="#000" stroke-width="5" width="70" height="69" x="0" y="-74" rx="8" ry="8"/><rect class="hcell-col14-cat2" fill="#5CB85C" stroke="#DDD" width="70" height="79" x="0" y="-79" rx="8" ry="8"/><text text-anchor="middle" fill="#FFF" x="35" y="-59">5200</text></a></g></g><rect fill="none" stroke="#DDD" width="70" height="30" rx="8" ry="8" x="1125" y="259"/><text text-anchor="middle" fill="#333" x="1160" y="279">14-12</text><g transform="translate(1125,299)"><g><a target="_top" xlink:href="dtp-slice5-step5605201-ofs0-col14-cat2.html"><rect style="display:none" class="hcell-act-col14-cat2" fill="#5CB85C" stroke="#000" stroke-width="5" width="70" height="91" x="0" y="5" rx="8" ry="8"/><rect class="hcell-col14-cat2" fill="#5CB85C" stroke="#DDD" width="70" height="101" x="0" y="0" rx="8" ry="8"/><text text-anchor="middle" fill="#FFF" x="35" y="20">-6616</text></a></g></g></g><g><g transform="translate(1205,249)"><g><a target="_top" xlink:href="dtp-slice5-step5605201-ofs0-col15-cat2.html"><rect style="display:none" class="hcell-act-col15-cat2" fill="#5CB85C" stroke="#000" stroke-width="5" width="70" height="109" x="0" y="-114" rx="8" ry="8"/><rect class="hcell-col15-cat2" fill="#5CB85C" stroke="#DDD" width="70" height="119" x="0" y="-119" rx="8" ry="8"/><text text-anchor="middle" fill="#FFF" x="35" y="-99">7800</text></a></g></g><rect fill="none" stroke="#DDD" width="70" height="30" rx="8" ry="8" x="1205" y="259"/><text text-anchor="middle" fill="#333" x="1240" y="279">15-03</text><g transform="translate(1205,299)"><g><a target="_top" xlink:href="dtp-slice5-step5605201-ofs0-col15-cat2.html"><rect style="display:none" class="hcell-act-col15-cat2" fill="#5CB85C" stroke="#000" stroke-width="5" width="70" height="106" x="0" y="5" rx="8" ry="8"/><rect class="hcell-col15-cat2" fill="#5CB85C" stroke="#DDD" width="70" height="116" x="0" y="0" rx="8" ry="8"/><text text-anchor="middle" fill="#FFF" x="35" y="20">-7598</text></a></g></g></g></svg>