<svg xmlns="http://www.w3.org/2000/svg" xmlns:xlink="http://www.w3.org/1999/xlink" width="100%" height="100%" viewBox="0 0 1280 525"><g><g transform="translate(5,272)"></g><rect fill="none" stroke="#DDD" width="70" height="30" rx="8" ry="8" x="5" y="282"/><text text-anchor="middle" fill="#333" x="40" y="302">12-07</text><g transform="translate(5,322)"></g></g><g><g transform="translate(85,272)"></g><rect fill="none" stroke="#DDD" width="70" height="30" rx="8" ry="8" x="85" y="282"/><text text-anchor="middle" fill="#333" x="120" y="302">12-09</text><g transform="translate(85,322)"></g></g><g><g transform="translate(165,272)"></g><rect fill="none" stroke="#DDD" width="70" height="30" rx="8" ry="8" x="165" y="282"/><text text-anchor="middle" fill="#333" x="200" y="302">12-11</text><g transform="translate(165,322)"></g></g><g><g transform="translate(245,272)"></g><rect fill="none" stroke="#DDD" width="70" height="30" rx="8" ry="8" x="245" y="282"/><text text-anchor="middle" fill="#333" x="280" y="302">13-01</text><g transform="translate(245,322)"></g></g><g><g transform="translate(325,272)"></g><rect fill="none" stroke="#DDD" width="70" height="30" rx="8" ry="8" x="325" y="282"/><text text-anchor="middle" fill="#333" x="360" y="302">13-03</text><g transform="translate(325,322)"></g></g><g><g transform="translate(405,272)"></g><rect fill="none" stroke="#DDD" width="70" height="30" rx="8" ry="8" x="405" y="282"/><text text-anchor="middle" fill="#333" x="440" y="302">13-05</text><g transform="translate(405,322)"></g></g><g><g transform="translate(485,272)"></g><rect fill="none" stroke="#DDD" width="70" height="30" rx="8" ry="8" x="485" y="282"/><text text-anchor="middle" fill="#333" x="520" y="302">13-07</text><g transform="translate(485,322)"></g></g><g><g transform="translate(565,272)"></g><rect fill="none" stroke="#DDD" width="70" height="30" rx="8" ry="8" x="565" y="282"/><text text-anchor="middle" fill="#333" x="600" y="302">13-09</text><g transform="translate(565,322)"></g></g><g><g transform="translate(645,272)"></g><rect fill="none" stroke="#DDD" width="70" height="30" rx="8" ry="8" x="645" y="282"/><text text-anchor="middle" fill="#333" x="680" y="302">13-12</text><g transform="translate(645,322)"></g></g><g><g transform="translate(725,272)"></g><rect fill="none" stroke="#DDD" width="70" height="30" rx="8" ry="8" x="725" y="282"/><text text-anchor="middle" fill="#333" x="760" y="302">14-02</text><g transform="translate(725,322)"></g></g><g><g transform="translate(805,272)"></g><rect fill="none" stroke="#DDD" width="70" height="30" rx="8" ry="8" x="805" y="282"/><text text-anchor="middle" fill="#333" x="840" y="302">14-04</text><g transform="translate(805,322)"></g></g><g><g transform="translate(885,272)"><g><a target="_top" xlink:href="dtp-slice1-step5605201-ofs0-col11-cat3.html"><rect style="display:none" class="hcell-act-col11-cat3" fill="#F0AD4E" stroke="#000" stroke-width="5" width="70" height="20" x="0" y="-25" rx="8" ry="8"/><rect class="hcell-col11-cat3" fill="#F0AD4E" stroke="#DDD" width="70" height="30" x="0" y="-30" rx="8" ry="8"/><text text-anchor="middle" fill="#FFF" x="35" y="-10">5</text></a></g></g><rect fill="none" stroke="#DDD" width="70" height="30" rx="8" ry="8" x="885" y="282"/><text text-anchor="middle" fill="#333" x="920" y="302">14-06</text><g transform="translate(885,322)"><g><a target="_top" xlink:href="dtp-slice1-step5605201-ofs0-col11-cat2.html"><rect style="display:none" class="hcell-act-col11-cat2" fill="#337AB7" stroke="#000" stroke-width="5" width="70" height="20" x="0" y="5" rx="8" ry="8"/><rect class="hcell-col11-cat2" fill="#337AB7" stroke="#DDD" width="70" height="30" x="0" y="0" rx="8" ry="8"/><text text-anchor="middle" fill="#FFF" x="35" y="20">-6</text></a><g transform="translate(0,30)"><g><a target="_top" xlink:href="dtp-slice1-step5605201-ofs0-col11-cat0.html"><rect style="display:none" class="hcell-act-col11-cat0" fill="#5CB85C" stroke="#000" stroke-width="5" width="70" height="21" x="0" y="5" rx="8" ry="8"/><rect class="hcell-col11-cat0" fill="#5CB85C" stroke="#DDD" width="70" height="31" x="0" y="0" rx="8" ry="8"/><text text-anchor="middle" fill="#FFF" x="35" y="20">-36</text></a><g transform="translate(0,31)"><g><a target="_top" xlink:href="dtp-slice1-step5605201-ofs0-col11-cat1.html"><rect style="display:none" class="hcell-act-col11-cat1" fill="#5BC0DE" stroke="#000" stroke-width="5" width="70" height="34" x="0" y="5" rx="8" ry="8"/><rect class="hcell-col11-cat1" fill="#5BC0DE" stroke="#DDD" width="70" height="44" x="0" y="0" rx="8" ry="8"/><text text-anchor="middle" fill="#FFF" x="35" y="20">-50</text></a></g></g></g></g></g></g></g><g><g transform="translate(965,272)"><g><a target="_top" xlink:href="dtp-slice1-step5605201-ofs0-col12-cat4.html"><rect style="display:none" class="hcell-act-col12-cat4" fill="#D9534F" stroke="#000" stroke-width="5" width="70" height="20" x="0" y="-25" rx="8" ry="8"/><rect class="hcell-col12-cat4" fill="#D9534F" stroke="#DDD" width="70" height="30" x="0" y="-30" rx="8" ry="8"/><text text-anchor="middle" fill="#FFF" x="35" y="-10">4</text></a><g transform="translate(0,-30)"><g><a target="_top" xlink:href="dtp-slice1-step5605201-ofs0-col12-cat3.html"><rect style="display:none" class="hcell-act-col12-cat3" fill="#F0AD4E" stroke="#000" stroke-width="5" width="70" height="55" x="0" y="-60" rx="8" ry="8"/><rect class="hcell-col12-cat3" fill="#F0AD4E" stroke="#DDD" width="70" height="65" x="0" y="-65" rx="8" ry="8"/><text text-anchor="middle" fill="#FFF" x="35" y="-45">74</text></a><g transform="translate(0,-65)"><g><a target="_top" xlink:href="dtp-slice1-step5605201-ofs0-col12-cat0.html"><rect style="display:none" class="hcell-act-col12-cat0" fill="#5CB85C" stroke="#000" stroke-width="5" width="70" height="162" x="0" y="-167" rx="8" ry="8"/><rect class="hcell-col12-cat0" fill="#5CB85C" stroke="#DDD" width="70" height="172" x="0" y="-172" rx="8" ry="8"/><text text-anchor="middle" fill="#FFF" x="35" y="-152">194</text></a></g></g></g></g></g></g><rect fill="none" stroke="#DDD" width="70" height="30" rx="8" ry="8" x="965" y="282"/><text text-anchor="middle" fill="#333" x="1000" y="302">14-08</text><g transform="translate(965,322)"><g><a target="_top" xlink:href="dtp-slice1-step5605201-ofs0-col12-cat2.html"><rect style="display:none" class="hcell-act-col12-cat2" fill="#337AB7" stroke="#000" stroke-width="5" width="70" height="20" x="0" y="5" rx="8" ry="8"/><rect class="hcell-col12-cat2" fill="#337AB7" stroke="#DDD" width="70" height="30" x="0" y="0" rx="8" ry="8"/><text text-anchor="middle" fill="#FFF" x="35" y="20">-5</text></a><g transform="translate(0,30)"><g><a target="_top" xlink:href="dtp-slice1-step5605201-ofs0-col12-cat1.html"><rect style="display:none" class="hcell-act-col12-cat1" fill="#5BC0DE" stroke="#000" stroke-width="5" width="70" height="27" x="0" y="5" rx="8" ry="8"/><rect class="hcell-col12-cat1" fill="#5BC0DE" stroke="#DDD" width="70" height="37" x="0" y="0" rx="8" ry="8"/><text text-anchor="middle" fill="#FFF" x="35" y="20">-43</text></a></g></g></g></g></g><g><g transform="translate(1045,272)"><g><a target="_top" xlink:href="dtp-slice1-step5605201-ofs0-col13-cat3.html"><rect style="display:none" class="hcell-act-col13-cat3" fill="#F0AD4E" stroke="#000" stroke-width="5" width="70" height="20" x="0" y="-25" rx="8" ry="8"/><rect class="hcell-col13-cat3" fill="#F0AD4E" stroke="#DDD" width="70" height="30" x="0" y="-30" rx="8" ry="8"/><text text-anchor="middle" fill="#FFF" x="35" y="-10">11</text></a><g transform="translate(0,-30)"><g><a target="_top" xlink:href="dtp-slice1-step5605201-ofs0-col13-cat2.html"><rect style="display:none" class="hcell-act-col13-cat2" fill="#337AB7" stroke="#000" stroke-width="5" width="70" height="20" x="0" y="-25" rx="8" ry="8"/><rect class="hcell-col13-cat2" fill="#337AB7" stroke="#DDD" width="70" height="30" x="0" y="-30" rx="8" ry="8"/><text text-anchor="middle" fill="#FFF" x="35" y="-10">14</text></a><g transform="translate(0,-30)"><g><a target="_top" xlink:href="dtp-slice1-step5605201-ofs0-col13-cat4.html"><rect style="display:none" class="hcell-act-col13-cat4" fill="#D9534F" stroke="#000" stroke-width="5" width="70" height="55" x="0" y="-60" rx="8" ry="8"/><rect class="hcell-col13-cat4" fill="#D9534F" stroke="#DDD" width="70" height="65" x="0" y="-65" rx="8" ry="8"/><text text-anchor="middle" fill="#FFF" x="35" y="-45">73</text></a><g transform="translate(0,-65)"><g><a target="_top" xlink:href="dtp-slice1-step5605201-ofs0-col13-cat0.html"><rect style="display:none" class="hcell-act-col13-cat0" fill="#5CB85C" stroke="#000" stroke-width="5" width="70" height="95" x="0" y="-100" rx="8" ry="8"/><rect class="hcell-col13-cat0" fill="#5CB85C" stroke="#DDD" width="70" height="105" x="0" y="-105" rx="8" ry="8"/><text text-anchor="middle" fill="#FFF" x="35" y="-85">119</text></a></g></g></g></g></g></g></g></g><rect fill="none" stroke="#DDD" width="70" height="30" rx="8" ry="8" x="1045" y="282"/><text text-anchor="middle" fill="#333" x="1080" y="302">14-10</text><g transform="translate(1045,322)"><g><a target="_top" xlink:href="dtp-slice1-step5605201-ofs0-col13-cat1.html"><rect style="display:none" class="hcell-act-col13-cat1" fill="#5BC0DE" stroke="#000" stroke-width="5" width="70" height="20" x="0" y="5" rx="8" ry="8"/><rect class="hcell-col13-cat1" fill="#5BC0DE" stroke="#DDD" width="70" height="30" x="0" y="0" rx="8" ry="8"/><text text-anchor="middle" fill="#FFF" x="35" y="20">-30</text></a></g></g></g><g><g transform="translate(1125,272)"><g><a target="_top" xlink:href="dtp-slice1-step5605201-ofs0-col14-cat4.html"><rect style="display:none" class="hcell-act-col14-cat4" fill="#D9534F" stroke="#000" stroke-width="5" width="70" height="20" x="0" y="-25" rx="8" ry="8"/><rect class="hcell-col14-cat4" fill="#D9534F" stroke="#DDD" width="70" height="30" x="0" y="-30" rx="8" ry="8"/><text text-anchor="middle" fill="#FFF" x="35" y="-10">15</text></a><g transform="translate(0,-30)"><g><a target="_top" xlink:href="dtp-slice1-step5605201-ofs0-col14-cat1.html"><rect style="display:none" class="hcell-act-col14-cat1" fill="#5BC0DE" stroke="#000" stroke-width="5" width="70" height="20" x="0" y="-25" rx="8" ry="8"/><rect class="hcell-col14-cat1" fill="#5BC0DE" stroke="#DDD" width="70" height="30" x="0" y="-30" rx="8" ry="8"/><text text-anchor="middle" fill="#FFF" x="35" y="-10">17</text></a><g transform="translate(0,-30)"><g><a target="_top" xlink:href="dtp-slice1-step5605201-ofs0-col14-cat0.html"><rect style="display:none" class="hcell-act-col14-cat0" fill="#5CB85C" stroke="#000" stroke-width="5" width="70" height="58" x="0" y="-63" rx="8" ry="8"/><rect class="hcell-col14-cat0" fill="#5CB85C" stroke="#DDD" width="70" height="68" x="0" y="-68" rx="8" ry="8"/><text text-anchor="middle" fill="#FFF" x="35" y="-48">77</text></a></g></g></g></g></g></g><rect fill="none" stroke="#DDD" width="70" height="30" rx="8" ry="8" x="1125" y="282"/><text text-anchor="middle" fill="#333" x="1160" y="302">14-12</text><g transform="translate(1125,322)"><g><a target="_top" xlink:href="dtp-slice1-step5605201-ofs0-col14-cat2.html"><rect style="display:none" class="hcell-act-col14-cat2" fill="#337AB7" stroke="#000" stroke-width="5" width="70" height="21" x="0" y="5" rx="8" ry="8"/><rect class="hcell-col14-cat2" fill="#337AB7" stroke="#DDD" width="70" height="31" x="0" y="0" rx="8" ry="8"/><text text-anchor="middle" fill="#FFF" x="35" y="20">-37</text></a><g transform="translate(0,31)"><g><a target="_top" xlink:href="dtp-slice1-step5605201-ofs0-col14-cat3.html"><rect style="display:none" class="hcell-act-col14-cat3" fill="#F0AD4E" stroke="#000" stroke-width="5" width="70" height="43" x="0" y="5" rx="8" ry="8"/><rect class="hcell-col14-cat3" fill="#F0AD4E" stroke="#DDD" width="70" height="53" x="0" y="0" rx="8" ry="8"/><text text-anchor="middle" fill="#FFF" x="35" y="20">-60</text></a></g></g></g></g></g><g><g transform="translate(1205,272)"><g><a target="_top" xlink:href="dtp-slice1-step5605201-ofs0-col15-cat4.html"><rect style="display:none" class="hcell-act-col15-cat4" fill="#D9534F" stroke="#000" stroke-width="5" width="70" height="37" x="0" y="-42" rx="8" ry="8"/><rect class="hcell-col15-cat4" fill="#D9534F" stroke="#DDD" width="70" height="47" x="0" y="-47" rx="8" ry="8"/><text text-anchor="middle" fill="#FFF" x="35" y="-27">54</text></a></g></g><rect fill="none" stroke="#DDD" width="70" height="30" rx="8" ry="8" x="1205" y="282"/><text text-anchor="middle" fill="#333" x="1240" y="302">15-03</text><g transform="translate(1205,322)"><g><a target="_top" xlink:href="dtp-slice1-step5605201-ofs0-col15-cat3.html"><rect style="display:none" class="hcell-act-col15-cat3" fill="#F0AD4E" stroke="#000" stroke-width="5" width="70" height="20" x="0" y="5" rx="8" ry="8"/><rect class="hcell-col15-cat3" fill="#F0AD4E" stroke="#DDD" width="70" height="30" x="0" y="0" rx="8" ry="8"/><text text-anchor="middle" fill="#FFF" x="35" y="20">-7</text></a><g transform="translate(0,30)"><g><a target="_top" xlink:href="dtp-slice1-step5605201-ofs0-col15-cat2.html"><rect style="display:none" class="hcell-act-col15-cat2" fill="#337AB7" stroke="#000" stroke-width="5" width="70" height="20" x="0" y="5" rx="8" ry="8"/><rect class="hcell-col15-cat2" fill="#337AB7" stroke="#DDD" width="70" height="30" x="0" y="0" rx="8" ry="8"/><text text-anchor="middle" fill="#FFF" x="35" y="20">-15</text></a><g transform="translate(0,30)"><g><a target="_top" xlink:href="dtp-slice1-step5605201-ofs0-col15-cat1.html"><rect style="display:none" class="hcell-act-col15-cat1" fill="#5BC0DE" stroke="#000" stroke-width="5" width="70" height="28" x="0" y="5" rx="8" ry="8"/><rect class="hcell-col15-cat1" fill="#5BC0DE" stroke="#DDD" width="70" height="38" x="0" y="0" rx="8" ry="8"/><text text-anchor="middle" fill="#FFF" x="35" y="20">-44</text></a><g transform="translate(0,38)"><g><a target="_top" xlink:href="dtp-slice1-step5605201-ofs0-col15-cat0.html"><rect style="display:none" class="hcell-act-col15-cat0" fill="#5CB85C" stroke="#000" stroke-width="5" width="70" height="90" x="0" y="5" rx="8" ry="8"/><rect class="hcell-col15-cat0" fill="#5CB85C" stroke="#DDD" width="70" height="100" x="0" y="0" rx="8" ry="8"/><text text-anchor="middle" fill="#FFF" x="35" y="20">-114</text></a></g></g></g></g></g></g></g></g></g></svg>