<svg xmlns="http://www.w3.org/2000/svg" xmlns:xlink="http://www.w3.org/1999/xlink" width="100%" height="100%" viewBox="0 0 1280 459"><g><g transform="translate(5,335)"></g><rect fill="none" stroke="#DDD" width="70" height="30" rx="8" ry="8" x="5" y="345"/><text text-anchor="middle" fill="#333" x="40" y="365">12-10</text><g transform="translate(5,385)"></g></g><g><g transform="translate(85,335)"></g><rect fill="none" stroke="#DDD" width="70" height="30" rx="8" ry="8" x="85" y="345"/><text text-anchor="middle" fill="#333" x="120" y="365">12-10</text><g transform="translate(85,385)"></g></g><g><g transform="translate(165,335)"></g><rect fill="none" stroke="#DDD" width="70" height="30" rx="8" ry="8" x="165" y="345"/><text text-anchor="middle" fill="#333" x="200" y="365">12-12</text><g transform="translate(165,385)"></g></g><g><g transform="translate(245,335)"></g><rect fill="none" stroke="#DDD" width="70" height="30" rx="8" ry="8" x="245" y="345"/><text text-anchor="middle" fill="#333" x="280" y="365">12-12</text><g transform="translate(245,385)"></g></g><g><g transform="translate(325,335)"></g><rect fill="none" stroke="#DDD" width="70" height="30" rx="8" ry="8" x="325" y="345"/><text text-anchor="middle" fill="#333" x="360" y="365">13-01</text><g transform="translate(325,385)"></g></g><g><g transform="translate(405,335)"></g><rect fill="none" stroke="#DDD" width="70" height="30" rx="8" ry="8" x="405" y="345"/><text text-anchor="middle" fill="#333" x="440" y="365">13-03</text><g transform="translate(405,385)"></g></g><g><g transform="translate(485,335)"></g><rect fill="none" stroke="#DDD" width="70" height="30" rx="8" ry="8" x="485" y="345"/><text text-anchor="middle" fill="#333" x="520" y="365">13-04</text><g transform="translate(485,385)"></g></g><g><g transform="translate(565,335)"></g><rect fill="none" stroke="#DDD" width="70" height="30" rx="8" ry="8" x="565" y="345"/><text text-anchor="middle" fill="#333" x="600" y="365">13-05</text><g transform="translate(565,385)"></g></g><g><g transform="translate(645,335)"></g><rect fill="none" stroke="#DDD" width="70" height="30" rx="8" ry="8" x="645" y="345"/><text text-anchor="middle" fill="#333" x="680" y="365">13-06</text><g transform="translate(645,385)"></g></g><g><g transform="translate(725,335)"></g><rect fill="none" stroke="#DDD" width="70" height="30" rx="8" ry="8" x="725" y="345"/><text text-anchor="middle" fill="#333" x="760" y="365">13-07</text><g transform="translate(725,385)"></g></g><g><g transform="translate(805,335)"></g><rect fill="none" stroke="#DDD" width="70" height="30" rx="8" ry="8" x="805" y="345"/><text text-anchor="middle" fill="#333" x="840" y="365">13-08</text><g transform="translate(805,385)"></g></g><g><g transform="translate(885,335)"></g><rect fill="none" stroke="#DDD" width="70" height="30" rx="8" ry="8" x="885" y="345"/><text text-anchor="middle" fill="#333" x="920" y="365">13-08</text><g transform="translate(885,385)"></g></g><g><g transform="translate(965,335)"></g><rect fill="none" stroke="#DDD" width="70" height="30" rx="8" ry="8" x="965" y="345"/><text text-anchor="middle" fill="#333" x="1000" y="365">13-10</text><g transform="translate(965,385)"></g></g><g><g transform="translate(1045,335)"></g><rect fill="none" stroke="#DDD" width="70" height="30" rx="8" ry="8" x="1045" y="345"/><text text-anchor="middle" fill="#333" x="1080" y="365">13-10</text><g transform="translate(1045,385)"></g></g><g><g transform="translate(1125,335)"><g><a target="_top" xlink:href="dtp-sliceTagCrispyBills-step2628000-ofs3-col17-cat0.html"><rect style="display:none" class="hcell-act-col17-cat0" fill="#777" stroke="#000" stroke-width="5" width="70" height="146" x="0" y="-151" rx="8" ry="8"/><rect class="hcell-col17-cat0" fill="#777" stroke="#DDD" width="70" height="156" x="0" y="-156" rx="8" ry="8"/><text text-anchor="middle" fill="#FFF" x="35" y="-136">562</text></a></g></g><rect fill="none" stroke="#DDD" width="70" height="30" rx="8" ry="8" x="1125" y="345"/><text text-anchor="middle" fill="#333" x="1160" y="365">13-12</text><g transform="translate(1125,385)"><g><a target="_top" xlink:href="dtp-sliceTagCrispyBills-step2628000-ofs3-col17-cat0.html"><rect style="display:none" class="hcell-act-col17-cat0" fill="#777" stroke="#000" stroke-width="5" width="70" height="59" x="0" y="5" rx="8" ry="8"/><rect class="hcell-col17-cat0" fill="#777" stroke="#DDD" width="70" height="69" x="0" y="0" rx="8" ry="8"/><text text-anchor="middle" fill="#FFF" x="35" y="20">-251</text></a></g></g></g><g><g transform="translate(1205,335)"><g><a target="_top" xlink:href="dtp-sliceTagCrispyBills-step2628000-ofs3-col18-cat0.html"><rect style="display:none" class="hcell-act-col18-cat0" fill="#777" stroke="#000" stroke-width="5" width="70" height="320" x="0" y="-325" rx="8" ry="8"/><rect class="hcell-col18-cat0" fill="#777" stroke="#DDD" width="70" height="330" x="0" y="-330" rx="8" ry="8"/><text text-anchor="middle" fill="#FFF" x="35" y="-310">1183</text></a></g></g><rect fill="none" stroke="#DDD" width="70" height="30" rx="8" ry="8" x="1205" y="345"/><text text-anchor="middle" fill="#333" x="1240" y="365">13-12</text><g transform="translate(1205,385)"><g><a target="_top" xlink:href="dtp-sliceTagCrispyBills-step2628000-ofs3-col18-cat0.html"><rect style="display:none" class="hcell-act-col18-cat0" fill="#777" stroke="#000" stroke-width="5" width="70" height="58" x="0" y="5" rx="8" ry="8"/><rect class="hcell-col18-cat0" fill="#777" stroke="#DDD" width="70" height="68" x="0" y="0" rx="8" ry="8"/><text text-anchor="middle" fill="#FFF" x="35" y="20">-245</text></a></g></g></g></svg>