<svg xmlns="http://www.w3.org/2000/svg" xmlns:xlink="http://www.w3.org/1999/xlink" width="100%" height="100%" viewBox="0 0 1280 459"><g><g transform="translate(5,173)"></g><rect fill="none" stroke="#DDD" width="70" height="30" rx="8" ry="8" x="5" y="183"/><text text-anchor="middle" fill="#333" x="40" y="203">12-07</text><g transform="translate(5,223)"></g></g><g><g transform="translate(85,173)"></g><rect fill="none" stroke="#DDD" width="70" height="30" rx="8" ry="8" x="85" y="183"/><text text-anchor="middle" fill="#333" x="120" y="203">12-09</text><g transform="translate(85,223)"></g></g><g><g transform="translate(165,173)"></g><rect fill="none" stroke="#DDD" width="70" height="30" rx="8" ry="8" x="165" y="183"/><text text-anchor="middle" fill="#333" x="200" y="203">12-11</text><g transform="translate(165,223)"></g></g><g><g transform="translate(245,173)"></g><rect fill="none" stroke="#DDD" width="70" height="30" rx="8" ry="8" x="245" y="183"/><text text-anchor="middle" fill="#333" x="280" y="203">13-01</text><g transform="translate(245,223)"></g></g><g><g transform="translate(325,173)"></g><rect fill="none" stroke="#DDD" width="70" height="30" rx="8" ry="8" x="325" y="183"/><text text-anchor="middle" fill="#333" x="360" y="203">13-03</text><g transform="translate(325,223)"></g></g><g><g transform="translate(405,173)"></g><rect fill="none" stroke="#DDD" width="70" height="30" rx="8" ry="8" x="405" y="183"/><text text-anchor="middle" fill="#333" x="440" y="203">13-05</text><g transform="translate(405,223)"></g></g><g><g transform="translate(485,173)"></g><rect fill="none" stroke="#DDD" width="70" height="30" rx="8" ry="8" x="485" y="183"/><text text-anchor="middle" fill="#333" x="520" y="203">13-07</text><g transform="translate(485,223)"></g></g><g><g transform="translate(565,173)"></g><rect fill="none" stroke="#DDD" width="70" height="30" rx="8" ry="8" x="565" y="183"/><text text-anchor="middle" fill="#333" x="600" y="203">13-09</text><g transform="translate(565,223)"></g></g><g><g transform="translate(645,173)"></g><rect fill="none" stroke="#DDD" width="70" height="30" rx="8" ry="8" x="645" y="183"/><text text-anchor="middle" fill="#333" x="680" y="203">13-12</text><g transform="translate(645,223)"></g></g><g><g transform="translate(725,173)"></g><rect fill="none" stroke="#DDD" width="70" height="30" rx="8" ry="8" x="725" y="183"/><text text-anchor="middle" fill="#333" x="760" y="203">14-02</text><g transform="translate(725,223)"><g><a target="_top" xlink:href="dtp-sliceTagAwesomeCard-step5605201-ofs0-col9-cat0.html"><rect style="display:none" class="hcell-act-col9-cat0" fill="#777" stroke="#000" stroke-width="5" width="70" height="20" x="0" y="5" rx="8" ry="8"/><rect class="hcell-col9-cat0" fill="#777" stroke="#DDD" width="70" height="30" x="0" y="0" rx="8" ry="8"/><text text-anchor="middle" fill="#FFF" x="35" y="20">-25</text></a></g></g></g><g><g transform="translate(805,173)"><g><a target="_top" xlink:href="dtp-sliceTagAwesomeCard-step5605201-ofs0-col10-cat0.html"><rect style="display:none" class="hcell-act-col10-cat0" fill="#777" stroke="#000" stroke-width="5" width="70" height="74" x="0" y="-79" rx="8" ry="8"/><rect class="hcell-col10-cat0" fill="#777" stroke="#DDD" width="70" height="84" x="0" y="-84" rx="8" ry="8"/><text text-anchor="middle" fill="#FFF" x="35" y="-64">83</text></a></g></g><rect fill="none" stroke="#DDD" width="70" height="30" rx="8" ry="8" x="805" y="183"/><text text-anchor="middle" fill="#333" x="840" y="203">14-04</text><g transform="translate(805,223)"><g><a target="_top" xlink:href="dtp-sliceTagAwesomeCard-step5605201-ofs0-col10-cat0.html"><rect style="display:none" class="hcell-act-col10-cat0" fill="#777" stroke="#000" stroke-width="5" width="70" height="183" x="0" y="5" rx="8" ry="8"/><rect class="hcell-col10-cat0" fill="#777" stroke="#DDD" width="70" height="193" x="0" y="0" rx="8" ry="8"/><text text-anchor="middle" fill="#FFF" x="35" y="20">-192</text></a></g></g></g><g><g transform="translate(885,173)"><g><a target="_top" xlink:href="dtp-sliceTagAwesomeCard-step5605201-ofs0-col11-cat0.html"><rect style="display:none" class="hcell-act-col11-cat0" fill="#777" stroke="#000" stroke-width="5" width="70" height="65" x="0" y="-70" rx="8" ry="8"/><rect class="hcell-col11-cat0" fill="#777" stroke="#DDD" width="70" height="75" x="0" y="-75" rx="8" ry="8"/><text text-anchor="middle" fill="#FFF" x="35" y="-55">74</text></a></g></g><rect fill="none" stroke="#DDD" width="70" height="30" rx="8" ry="8" x="885" y="183"/><text text-anchor="middle" fill="#333" x="920" y="203">14-06</text><g transform="translate(885,223)"><g><a target="_top" xlink:href="dtp-sliceTagAwesomeCard-step5605201-ofs0-col11-cat0.html"><rect style="display:none" class="hcell-act-col11-cat0" fill="#777" stroke="#000" stroke-width="5" width="70" height="221" x="0" y="5" rx="8" ry="8"/><rect class="hcell-col11-cat0" fill="#777" stroke="#DDD" width="70" height="231" x="0" y="0" rx="8" ry="8"/><text text-anchor="middle" fill="#FFF" x="35" y="20">-229</text></a></g></g></g><g><g transform="translate(965,173)"><g><a target="_top" xlink:href="dtp-sliceTagAwesomeCard-step5605201-ofs0-col12-cat0.html"><rect style="display:none" class="hcell-act-col12-cat0" fill="#777" stroke="#000" stroke-width="5" width="70" height="87" x="0" y="-92" rx="8" ry="8"/><rect class="hcell-col12-cat0" fill="#777" stroke="#DDD" width="70" height="97" x="0" y="-97" rx="8" ry="8"/><text text-anchor="middle" fill="#FFF" x="35" y="-77">96</text></a></g></g><rect fill="none" stroke="#DDD" width="70" height="30" rx="8" ry="8" x="965" y="183"/><text text-anchor="middle" fill="#333" x="1000" y="203">14-08</text><g transform="translate(965,223)"><g><a target="_top" xlink:href="dtp-sliceTagAwesomeCard-step5605201-ofs0-col12-cat0.html"><rect style="display:none" class="hcell-act-col12-cat0" fill="#777" stroke="#000" stroke-width="5" width="70" height="170" x="0" y="5" rx="8" ry="8"/><rect class="hcell-col12-cat0" fill="#777" stroke="#DDD" width="70" height="180" x="0" y="0" rx="8" ry="8"/><text text-anchor="middle" fill="#FFF" x="35" y="20">-178</text></a></g></g></g><g><g transform="translate(1045,173)"><g><a target="_top" xlink:href="dtp-sliceTagAwesomeCard-step5605201-ofs0-col13-cat0.html"><rect style="display:none" class="hcell-act-col13-cat0" fill="#777" stroke="#000" stroke-width="5" width="70" height="69" x="0" y="-74" rx="8" ry="8"/><rect class="hcell-col13-cat0" fill="#777" stroke="#DDD" width="70" height="79" x="0" y="-79" rx="8" ry="8"/><text text-anchor="middle" fill="#FFF" x="35" y="-59">78</text></a></g></g><rect fill="none" stroke="#DDD" width="70" height="30" rx="8" ry="8" x="1045" y="183"/><text text-anchor="middle" fill="#333" x="1080" y="203">14-10</text><g transform="translate(1045,223)"><g><a target="_top" xlink:href="dtp-sliceTagAwesomeCard-step5605201-ofs0-col13-cat0.html"><rect style="display:none" class="hcell-act-col13-cat0" fill="#777" stroke="#000" stroke-width="5" width="70" height="198" x="0" y="5" rx="8" ry="8"/><rect class="hcell-col13-cat0" fill="#777" stroke="#DDD" width="70" height="208" x="0" y="0" rx="8" ry="8"/><text text-anchor="middle" fill="#FFF" x="35" y="20">-206</text></a></g></g></g><g><g transform="translate(1125,173)"><g><a target="_top" xlink:href="dtp-sliceTagAwesomeCard-step5605201-ofs0-col14-cat0.html"><rect style="display:none" class="hcell-act-col14-cat0" fill="#777" stroke="#000" stroke-width="5" width="70" height="158" x="0" y="-163" rx="8" ry="8"/><rect class="hcell-col14-cat0" fill="#777" stroke="#DDD" width="70" height="168" x="0" y="-168" rx="8" ry="8"/><text text-anchor="middle" fill="#FFF" x="35" y="-148">166</text></a></g></g><rect fill="none" stroke="#DDD" width="70" height="30" rx="8" ry="8" x="1125" y="183"/><text text-anchor="middle" fill="#333" x="1160" y="203">14-12</text><g transform="translate(1125,223)"><g><a target="_top" xlink:href="dtp-sliceTagAwesomeCard-step5605201-ofs0-col14-cat0.html"><rect style="display:none" class="hcell-act-col14-cat0" fill="#777" stroke="#000" stroke-width="5" width="70" height="125" x="0" y="5" rx="8" ry="8"/><rect class="hcell-col14-cat0" fill="#777" stroke="#DDD" width="70" height="135" x="0" y="0" rx="8" ry="8"/><text text-anchor="middle" fill="#FFF" x="35" y="20">-134</text></a></g></g></g><g><g transform="translate(1205,173)"><g><a target="_top" xlink:href="dtp-sliceTagAwesomeCard-step5605201-ofs0-col15-cat0.html"><rect style="display:none" class="hcell-act-col15-cat0" fill="#777" stroke="#000" stroke-width="5" width="70" height="65" x="0" y="-70" rx="8" ry="8"/><rect class="hcell-col15-cat0" fill="#777" stroke="#DDD" width="70" height="75" x="0" y="-75" rx="8" ry="8"/><text text-anchor="middle" fill="#FFF" x="35" y="-55">74</text></a></g></g><rect fill="none" stroke="#DDD" width="70" height="30" rx="8" ry="8" x="1205" y="183"/><text text-anchor="middle" fill="#333" x="1240" y="203">15-03</text><g transform="translate(1205,223)"><g><a target="_top" xlink:href="dtp-sliceTagAwesomeCard-step5605201-ofs0-col15-cat0.html"><rect style="display:none" class="hcell-act-col15-cat0" fill="#777" stroke="#000" stroke-width="5" width="70" height="126" x="0" y="5" rx="8" ry="8"/><rect class="hcell-col15-cat0" fill="#777" stroke="#DDD" width="70" height="136" x="0" y="0" rx="8" ry="8"/><text text-anchor="middle" fill="#FFF" x="35" y="20">-136</text></a></g></g></g></svg>