<svg xmlns="http://www.w3.org/2000/svg" xmlns:xlink="http://www.w3.org/1999/xlink" width="100%" height="100%" viewBox="0 0 1280 482"><g><g transform="translate(5,397)"><g><a target="_top" xlink:href="dtp-sliceTagExpense-step5605201-ofs0-col0-cat0.html"><rect style="display:none" class="hcell-act-col0-cat0" fill="#777" stroke="#000" stroke-width="5" width="70" height="207" x="0" y="-212" rx="8" ry="8"/><rect class="hcell-col0-cat0" fill="#777" stroke="#DDD" width="70" height="217" x="0" y="-217" rx="8" ry="8"/><text text-anchor="middle" fill="#FFF" x="35" y="-197">4706</text></a></g></g><rect fill="none" stroke="#DDD" width="70" height="30" rx="8" ry="8" x="5" y="407"/><text text-anchor="middle" fill="#333" x="40" y="427">12-07</text><g transform="translate(5,447)"><g><a target="_top" xlink:href="dtp-sliceTagExpense-step5605201-ofs0-col0-cat0.html"><rect style="display:none" class="hcell-act-col0-cat0" fill="#777" stroke="#000" stroke-width="5" width="70" height="20" x="0" y="5" rx="8" ry="8"/><rect class="hcell-col0-cat0" fill="#777" stroke="#DDD" width="70" height="30" x="0" y="0" rx="8" ry="8"/><text text-anchor="middle" fill="#FFF" x="35" y="20">-157</text></a></g></g></g><g><g transform="translate(85,397)"><g><a target="_top" xlink:href="dtp-sliceTagExpense-step5605201-ofs0-col1-cat0.html"><rect style="display:none" class="hcell-act-col1-cat0" fill="#777" stroke="#000" stroke-width="5" width="70" height="207" x="0" y="-212" rx="8" ry="8"/><rect class="hcell-col1-cat0" fill="#777" stroke="#DDD" width="70" height="217" x="0" y="-217" rx="8" ry="8"/><text text-anchor="middle" fill="#FFF" x="35" y="-197">4694</text></a></g></g><rect fill="none" stroke="#DDD" width="70" height="30" rx="8" ry="8" x="85" y="407"/><text text-anchor="middle" fill="#333" x="120" y="427">12-09</text><g transform="translate(85,447)"><g><a target="_top" xlink:href="dtp-sliceTagExpense-step5605201-ofs0-col1-cat0.html"><rect style="display:none" class="hcell-act-col1-cat0" fill="#777" stroke="#000" stroke-width="5" width="70" height="20" x="0" y="5" rx="8" ry="8"/><rect class="hcell-col1-cat0" fill="#777" stroke="#DDD" width="70" height="30" x="0" y="0" rx="8" ry="8"/><text text-anchor="middle" fill="#FFF" x="35" y="20">-101</text></a></g></g></g><g><g transform="translate(165,397)"><g><a target="_top" xlink:href="dtp-sliceTagExpense-step5605201-ofs0-col2-cat0.html"><rect style="display:none" class="hcell-act-col2-cat0" fill="#777" stroke="#000" stroke-width="5" width="70" height="236" x="0" y="-241" rx="8" ry="8"/><rect class="hcell-col2-cat0" fill="#777" stroke="#DDD" width="70" height="246" x="0" y="-246" rx="8" ry="8"/><text text-anchor="middle" fill="#FFF" x="35" y="-226">5328</text></a></g></g><rect fill="none" stroke="#DDD" width="70" height="30" rx="8" ry="8" x="165" y="407"/><text text-anchor="middle" fill="#333" x="200" y="427">12-11</text><g transform="translate(165,447)"><g><a target="_top" xlink:href="dtp-sliceTagExpense-step5605201-ofs0-col2-cat0.html"><rect style="display:none" class="hcell-act-col2-cat0" fill="#777" stroke="#000" stroke-width="5" width="70" height="20" x="0" y="5" rx="8" ry="8"/><rect class="hcell-col2-cat0" fill="#777" stroke="#DDD" width="70" height="30" x="0" y="0" rx="8" ry="8"/><text text-anchor="middle" fill="#FFF" x="35" y="20">-44</text></a></g></g></g><g><g transform="translate(245,397)"><g><a target="_top" xlink:href="dtp-sliceTagExpense-step5605201-ofs0-col3-cat0.html"><rect style="display:none" class="hcell-act-col3-cat0" fill="#777" stroke="#000" stroke-width="5" width="70" height="229" x="0" y="-234" rx="8" ry="8"/><rect class="hcell-col3-cat0" fill="#777" stroke="#DDD" width="70" height="239" x="0" y="-239" rx="8" ry="8"/><text text-anchor="middle" fill="#FFF" x="35" y="-219">5172</text></a></g></g><rect fill="none" stroke="#DDD" width="70" height="30" rx="8" ry="8" x="245" y="407"/><text text-anchor="middle" fill="#333" x="280" y="427">13-01</text><g transform="translate(245,447)"><g><a target="_top" xlink:href="dtp-sliceTagExpense-step5605201-ofs0-col3-cat0.html"><rect style="display:none" class="hcell-act-col3-cat0" fill="#777" stroke="#000" stroke-width="5" width="70" height="20" x="0" y="5" rx="8" ry="8"/><rect class="hcell-col3-cat0" fill="#777" stroke="#DDD" width="70" height="30" x="0" y="0" rx="8" ry="8"/><text text-anchor="middle" fill="#FFF" x="35" y="20">-43</text></a></g></g></g><g><g transform="translate(325,397)"><g><a target="_top" xlink:href="dtp-sliceTagExpense-step5605201-ofs0-col4-cat0.html"><rect style="display:none" class="hcell-act-col4-cat0" fill="#777" stroke="#000" stroke-width="5" width="70" height="207" x="0" y="-212" rx="8" ry="8"/><rect class="hcell-col4-cat0" fill="#777" stroke="#DDD" width="70" height="217" x="0" y="-217" rx="8" ry="8"/><text text-anchor="middle" fill="#FFF" x="35" y="-197">4710</text></a></g></g><rect fill="none" stroke="#DDD" width="70" height="30" rx="8" ry="8" x="325" y="407"/><text text-anchor="middle" fill="#333" x="360" y="427">13-03</text><g transform="translate(325,447)"></g></g><g><g transform="translate(405,397)"><g><a target="_top" xlink:href="dtp-sliceTagExpense-step5605201-ofs0-col5-cat0.html"><rect style="display:none" class="hcell-act-col5-cat0" fill="#777" stroke="#000" stroke-width="5" width="70" height="323" x="0" y="-328" rx="8" ry="8"/><rect class="hcell-col5-cat0" fill="#777" stroke="#DDD" width="70" height="333" x="0" y="-333" rx="8" ry="8"/><text text-anchor="middle" fill="#FFF" x="35" y="-313">7212</text></a></g></g><rect fill="none" stroke="#DDD" width="70" height="30" rx="8" ry="8" x="405" y="407"/><text text-anchor="middle" fill="#333" x="440" y="427">13-05</text><g transform="translate(405,447)"><g><a target="_top" xlink:href="dtp-sliceTagExpense-step5605201-ofs0-col5-cat0.html"><rect style="display:none" class="hcell-act-col5-cat0" fill="#777" stroke="#000" stroke-width="5" width="70" height="20" x="0" y="5" rx="8" ry="8"/><rect class="hcell-col5-cat0" fill="#777" stroke="#DDD" width="70" height="30" x="0" y="0" rx="8" ry="8"/><text text-anchor="middle" fill="#FFF" x="35" y="20">-164</text></a></g></g></g><g><g transform="translate(485,397)"><g><a target="_top" xlink:href="dtp-sliceTagExpense-step5605201-ofs0-col6-cat0.html"><rect style="display:none" class="hcell-act-col6-cat0" fill="#777" stroke="#000" stroke-width="5" width="70" height="200" x="0" y="-205" rx="8" ry="8"/><rect class="hcell-col6-cat0" fill="#777" stroke="#DDD" width="70" height="210" x="0" y="-210" rx="8" ry="8"/><text text-anchor="middle" fill="#FFF" x="35" y="-190">4553</text></a></g></g><rect fill="none" stroke="#DDD" width="70" height="30" rx="8" ry="8" x="485" y="407"/><text text-anchor="middle" fill="#333" x="520" y="427">13-07</text><g transform="translate(485,447)"><g><a target="_top" xlink:href="dtp-sliceTagExpense-step5605201-ofs0-col6-cat0.html"><rect style="display:none" class="hcell-act-col6-cat0" fill="#777" stroke="#000" stroke-width="5" width="70" height="20" x="0" y="5" rx="8" ry="8"/><rect class="hcell-col6-cat0" fill="#777" stroke="#DDD" width="70" height="30" x="0" y="0" rx="8" ry="8"/><text text-anchor="middle" fill="#FFF" x="35" y="20">-25</text></a></g></g></g><g><g transform="translate(565,397)"><g><a target="_top" xlink:href="dtp-sliceTagExpense-step5605201-ofs0-col7-cat0.html"><rect style="display:none" class="hcell-act-col7-cat0" fill="#777" stroke="#000" stroke-width="5" width="70" height="214" x="0" y="-219" rx="8" ry="8"/><rect class="hcell-col7-cat0" fill="#777" stroke="#DDD" width="70" height="224" x="0" y="-224" rx="8" ry="8"/><text text-anchor="middle" fill="#FFF" x="35" y="-204">4862</text></a></g></g><rect fill="none" stroke="#DDD" width="70" height="30" rx="8" ry="8" x="565" y="407"/><text text-anchor="middle" fill="#333" x="600" y="427">13-09</text><g transform="translate(565,447)"><g><a target="_top" xlink:href="dtp-sliceTagExpense-step5605201-ofs0-col7-cat0.html"><rect style="display:none" class="hcell-act-col7-cat0" fill="#777" stroke="#000" stroke-width="5" width="70" height="20" x="0" y="5" rx="8" ry="8"/><rect class="hcell-col7-cat0" fill="#777" stroke="#DDD" width="70" height="30" x="0" y="0" rx="8" ry="8"/><text text-anchor="middle" fill="#FFF" x="35" y="20">-26</text></a></g></g></g><g><g transform="translate(645,397)"><g><a target="_top" xlink:href="dtp-sliceTagExpense-step5605201-ofs0-col8-cat0.html"><rect style="display:none" class="hcell-act-col8-cat0" fill="#777" stroke="#000" stroke-width="5" width="70" height="240" x="0" y="-245" rx="8" ry="8"/><rect class="hcell-col8-cat0" fill="#777" stroke="#DDD" width="70" height="250" x="0" y="-250" rx="8" ry="8"/><text text-anchor="middle" fill="#FFF" x="35" y="-230">5414</text></a></g></g><rect fill="none" stroke="#DDD" width="70" height="30" rx="8" ry="8" x="645" y="407"/><text text-anchor="middle" fill="#333" x="680" y="427">13-12</text><g transform="translate(645,447)"><g><a target="_top" xlink:href="dtp-sliceTagExpense-step5605201-ofs0-col8-cat0.html"><rect style="display:none" class="hcell-act-col8-cat0" fill="#777" stroke="#000" stroke-width="5" width="70" height="20" x="0" y="5" rx="8" ry="8"/><rect class="hcell-col8-cat0" fill="#777" stroke="#DDD" width="70" height="30" x="0" y="0" rx="8" ry="8"/><text text-anchor="middle" fill="#FFF" x="35" y="20">-81</text></a></g></g></g><g><g transform="translate(725,397)"><g><a target="_top" xlink:href="dtp-sliceTagExpense-step5605201-ofs0-col9-cat0.html"><rect style="display:none" class="hcell-act-col9-cat0" fill="#777" stroke="#000" stroke-width="5" width="70" height="299" x="0" y="-304" rx="8" ry="8"/><rect class="hcell-col9-cat0" fill="#777" stroke="#DDD" width="70" height="309" x="0" y="-309" rx="8" ry="8"/><text text-anchor="middle" fill="#FFF" x="35" y="-289">6680</text></a></g></g><rect fill="none" stroke="#DDD" width="70" height="30" rx="8" ry="8" x="725" y="407"/><text text-anchor="middle" fill="#333" x="760" y="427">14-02</text><g transform="translate(725,447)"><g><a target="_top" xlink:href="dtp-sliceTagExpense-step5605201-ofs0-col9-cat0.html"><rect style="display:none" class="hcell-act-col9-cat0" fill="#777" stroke="#000" stroke-width="5" width="70" height="20" x="0" y="5" rx="8" ry="8"/><rect class="hcell-col9-cat0" fill="#777" stroke="#DDD" width="70" height="30" x="0" y="0" rx="8" ry="8"/><text text-anchor="middle" fill="#FFF" x="35" y="20">-27</text></a></g></g></g><g><g transform="translate(805,397)"><g><a target="_top" xlink:href="dtp-sliceTagExpense-step5605201-ofs0-col10-cat0.html"><rect style="display:none" class="hcell-act-col10-cat0" fill="#777" stroke="#000" stroke-width="5" width="70" height="382" x="0" y="-387" rx="8" ry="8"/><rect class="hcell-col10-cat0" fill="#777" stroke="#DDD" width="70" height="392" x="0" y="-392" rx="8" ry="8"/><text text-anchor="middle" fill="#FFF" x="35" y="-372">8481</text></a></g></g><rect fill="none" stroke="#DDD" width="70" height="30" rx="8" ry="8" x="805" y="407"/><text text-anchor="middle" fill="#333" x="840" y="427">14-04</text><g transform="translate(805,447)"><g><a target="_top" xlink:href="dtp-sliceTagExpense-step5605201-ofs0-col10-cat0.html"><rect style="display:none" class="hcell-act-col10-cat0" fill="#777" stroke="#000" stroke-width="5" width="70" height="20" x="0" y="5" rx="8" ry="8"/><rect class="hcell-col10-cat0" fill="#777" stroke="#DDD" width="70" height="30" x="0" y="0" rx="8" ry="8"/><text text-anchor="middle" fill="#FFF" x="35" y="20">-120</text></a></g></g></g><g><g transform="translate(885,397)"><g><a target="_top" xlink:href="dtp-sliceTagExpense-step5605201-ofs0-col11-cat0.html"><rect style="display:none" class="hcell-act-col11-cat0" fill="#777" stroke="#000" stroke-width="5" width="70" height="269" x="0" y="-274" rx="8" ry="8"/><rect class="hcell-col11-cat0" fill="#777" stroke="#DDD" width="70" height="279" x="0" y="-279" rx="8" ry="8"/><text text-anchor="middle" fill="#FFF" x="35" y="-259">6044</text></a></g></g><rect fill="none" stroke="#DDD" width="70" height="30" rx="8" ry="8" x="885" y="407"/><text text-anchor="middle" fill="#333" x="920" y="427">14-06</text><g transform="translate(885,447)"><g><a target="_top" xlink:href="dtp-sliceTagExpense-step5605201-ofs0-col11-cat0.html"><rect style="display:none" class="hcell-act-col11-cat0" fill="#777" stroke="#000" stroke-width="5" width="70" height="20" x="0" y="5" rx="8" ry="8"/><rect class="hcell-col11-cat0" fill="#777" stroke="#DDD" width="70" height="30" x="0" y="0" rx="8" ry="8"/><text text-anchor="middle" fill="#FFF" x="35" y="20">-13</text></a></g></g></g><g><g transform="translate(965,397)"><g><a target="_top" xlink:href="dtp-sliceTagExpense-step5605201-ofs0-col12-cat0.html"><rect style="display:none" class="hcell-act-col12-cat0" fill="#777" stroke="#000" stroke-width="5" width="70" height="356" x="0" y="-361" rx="8" ry="8"/><rect class="hcell-col12-cat0" fill="#777" stroke="#DDD" width="70" height="366" x="0" y="-366" rx="8" ry="8"/><text text-anchor="middle" fill="#FFF" x="35" y="-346">7911</text></a></g></g><rect fill="none" stroke="#DDD" width="70" height="30" rx="8" ry="8" x="965" y="407"/><text text-anchor="middle" fill="#333" x="1000" y="427">14-08</text><g transform="translate(965,447)"><g><a target="_top" xlink:href="dtp-sliceTagExpense-step5605201-ofs0-col12-cat0.html"><rect style="display:none" class="hcell-act-col12-cat0" fill="#777" stroke="#000" stroke-width="5" width="70" height="20" x="0" y="5" rx="8" ry="8"/><rect class="hcell-col12-cat0" fill="#777" stroke="#DDD" width="70" height="30" x="0" y="0" rx="8" ry="8"/><text text-anchor="middle" fill="#FFF" x="35" y="20">-22</text></a></g></g></g><g><g transform="translate(1045,397)"><g><a target="_top" xlink:href="dtp-sliceTagExpense-step5605201-ofs0-col13-cat0.html"><rect style="display:none" class="hcell-act-col13-cat0" fill="#777" stroke="#000" stroke-width="5" width="70" height="315" x="0" y="-320" rx="8" ry="8"/><rect class="hcell-col13-cat0" fill="#777" stroke="#DDD" width="70" height="325" x="0" y="-325" rx="8" ry="8"/><text text-anchor="middle" fill="#FFF" x="35" y="-305">7039</text></a></g></g><rect fill="none" stroke="#DDD" width="70" height="30" rx="8" ry="8" x="1045" y="407"/><text text-anchor="middle" fill="#333" x="1080" y="427">14-10</text><g transform="translate(1045,447)"><g><a target="_top" xlink:href="dtp-sliceTagExpense-step5605201-ofs0-col13-cat0.html"><rect style="display:none" class="hcell-act-col13-cat0" fill="#777" stroke="#000" stroke-width="5" width="70" height="20" x="0" y="5" rx="8" ry="8"/><rect class="hcell-col13-cat0" fill="#777" stroke="#DDD" width="70" height="30" x="0" y="0" rx="8" ry="8"/><text text-anchor="middle" fill="#FFF" x="35" y="20">-31</text></a></g></g></g><g><g transform="translate(1125,397)"><g><a target="_top" xlink:href="dtp-sliceTagExpense-step5605201-ofs0-col14-cat0.html"><rect style="display:none" class="hcell-act-col14-cat0" fill="#777" stroke="#000" stroke-width="5" width="70" height="328" x="0" y="-333" rx="8" ry="8"/><rect class="hcell-col14-cat0" fill="#777" stroke="#DDD" width="70" height="338" x="0" y="-338" rx="8" ry="8"/><text text-anchor="middle" fill="#FFF" x="35" y="-318">7326</text></a></g></g><rect fill="none" stroke="#DDD" width="70" height="30" rx="8" ry="8" x="1125" y="407"/><text text-anchor="middle" fill="#333" x="1160" y="427">14-12</text><g transform="translate(1125,447)"><g><a target="_top" xlink:href="dtp-sliceTagExpense-step5605201-ofs0-col14-cat0.html"><rect style="display:none" class="hcell-act-col14-cat0" fill="#777" stroke="#000" stroke-width="5" width="70" height="20" x="0" y="5" rx="8" ry="8"/><rect class="hcell-col14-cat0" fill="#777" stroke="#DDD" width="70" height="30" x="0" y="0" rx="8" ry="8"/><text text-anchor="middle" fill="#FFF" x="35" y="20">-104</text></a></g></g></g><g><g transform="translate(1205,397)"><g><a target="_top" xlink:href="dtp-sliceTagExpense-step5605201-ofs0-col15-cat0.html"><rect style="display:none" class="hcell-act-col15-cat0" fill="#777" stroke="#000" stroke-width="5" width="70" height="225" x="0" y="-230" rx="8" ry="8"/><rect class="hcell-col15-cat0" fill="#777" stroke="#DDD" width="70" height="235" x="0" y="-235" rx="8" ry="8"/><text text-anchor="middle" fill="#FFF" x="35" y="-215">5092</text></a></g></g><rect fill="none" stroke="#DDD" width="70" height="30" rx="8" ry="8" x="1205" y="407"/><text text-anchor="middle" fill="#333" x="1240" y="427">15-03</text><g transform="translate(1205,447)"><g><a target="_top" xlink:href="dtp-sliceTagExpense-step5605201-ofs0-col15-cat0.html"><rect style="display:none" class="hcell-act-col15-cat0" fill="#777" stroke="#000" stroke-width="5" width="70" height="20" x="0" y="5" rx="8" ry="8"/><rect class="hcell-col15-cat0" fill="#777" stroke="#DDD" width="70" height="30" x="0" y="0" rx="8" ry="8"/><text text-anchor="middle" fill="#FFF" x="35" y="20">-33</text></a></g></g></g></svg>