<svg xmlns="http://www.w3.org/2000/svg" xmlns:xlink="http://www.w3.org/1999/xlink" width="100%" height="100%" viewBox="0 0 1280 459"><g><g transform="translate(5,141)"></g><rect fill="none" stroke="#DDD" width="70" height="30" rx="8" ry="8" x="5" y="151"/><text text-anchor="middle" fill="#333" x="40" y="171">14-01</text><g transform="translate(5,191)"></g></g><g><g transform="translate(85,141)"></g><rect fill="none" stroke="#DDD" width="70" height="30" rx="8" ry="8" x="85" y="151"/><text text-anchor="middle" fill="#333" x="120" y="171">14-03</text><g transform="translate(85,191)"></g></g><g><g transform="translate(165,141)"></g><rect fill="none" stroke="#DDD" width="70" height="30" rx="8" ry="8" x="165" y="151"/><text text-anchor="middle" fill="#333" x="200" y="171">14-04</text><g transform="translate(165,191)"><g><a target="_top" xlink:href="dtp-sliceTagAwesomeCard-step2628000-ofs19-col21-cat0.html"><rect style="display:none" class="hcell-act-col21-cat0" fill="#777" stroke="#000" stroke-width="5" width="70" height="127" x="0" y="5" rx="8" ry="8"/><rect class="hcell-col21-cat0" fill="#777" stroke="#DDD" width="70" height="137" x="0" y="0" rx="8" ry="8"/><text text-anchor="middle" fill="#FFF" x="35" y="20">-84</text></a></g></g></g><g><g transform="translate(245,141)"><g><a target="_top" xlink:href="dtp-sliceTagAwesomeCard-step2628000-ofs19-col22-cat0.html"><rect style="display:none" class="hcell-act-col22-cat0" fill="#777" stroke="#000" stroke-width="5" width="70" height="126" x="0" y="-131" rx="8" ry="8"/><rect class="hcell-col22-cat0" fill="#777" stroke="#DDD" width="70" height="136" x="0" y="-136" rx="8" ry="8"/><text text-anchor="middle" fill="#FFF" x="35" y="-116">83</text></a></g></g><rect fill="none" stroke="#DDD" width="70" height="30" rx="8" ry="8" x="245" y="151"/><text text-anchor="middle" fill="#333" x="280" y="171">14-05</text><g transform="translate(245,191)"><g><a target="_top" xlink:href="dtp-sliceTagAwesomeCard-step2628000-ofs19-col22-cat0.html"><rect style="display:none" class="hcell-act-col22-cat0" fill="#777" stroke="#000" stroke-width="5" width="70" height="193" x="0" y="5" rx="8" ry="8"/><rect class="hcell-col22-cat0" fill="#777" stroke="#DDD" width="70" height="203" x="0" y="0" rx="8" ry="8"/><text text-anchor="middle" fill="#FFF" x="35" y="20">-124</text></a></g></g></g><g><g transform="translate(325,141)"></g><rect fill="none" stroke="#DDD" width="70" height="30" rx="8" ry="8" x="325" y="151"/><text text-anchor="middle" fill="#333" x="360" y="171">14-06</text><g transform="translate(325,191)"><g><a target="_top" xlink:href="dtp-sliceTagAwesomeCard-step2628000-ofs19-col23-cat0.html"><rect style="display:none" class="hcell-act-col23-cat0" fill="#777" stroke="#000" stroke-width="5" width="70" height="74" x="0" y="5" rx="8" ry="8"/><rect class="hcell-col23-cat0" fill="#777" stroke="#DDD" width="70" height="84" x="0" y="0" rx="8" ry="8"/><text text-anchor="middle" fill="#FFF" x="35" y="20">-52</text></a></g></g></g><g><g transform="translate(405,141)"><g><a target="_top" xlink:href="dtp-sliceTagAwesomeCard-step2628000-ofs19-col24-cat0.html"><rect style="display:none" class="hcell-act-col24-cat0" fill="#777" stroke="#000" stroke-width="5" width="70" height="112" x="0" y="-117" rx="8" ry="8"/><rect class="hcell-col24-cat0" fill="#777" stroke="#DDD" width="70" height="122" x="0" y="-122" rx="8" ry="8"/><text text-anchor="middle" fill="#FFF" x="35" y="-102">74</text></a></g></g><rect fill="none" stroke="#DDD" width="70" height="30" rx="8" ry="8" x="405" y="151"/><text text-anchor="middle" fill="#333" x="440" y="171">14-07</text><g transform="translate(405,191)"><g><a target="_top" xlink:href="dtp-sliceTagAwesomeCard-step2628000-ofs19-col24-cat0.html"><rect style="display:none" class="hcell-act-col24-cat0" fill="#777" stroke="#000" stroke-width="5" width="70" height="253" x="0" y="5" rx="8" ry="8"/><rect class="hcell-col24-cat0" fill="#777" stroke="#DDD" width="70" height="263" x="0" y="0" rx="8" ry="8"/><text text-anchor="middle" fill="#FFF" x="35" y="20">-160</text></a></g></g></g><g><g transform="translate(485,141)"></g><rect fill="none" stroke="#DDD" width="70" height="30" rx="8" ry="8" x="485" y="151"/><text text-anchor="middle" fill="#333" x="520" y="171">14-08</text><g transform="translate(485,191)"></g></g><g><g transform="translate(565,141)"></g><rect fill="none" stroke="#DDD" width="70" height="30" rx="8" ry="8" x="565" y="151"/><text text-anchor="middle" fill="#333" x="600" y="171">14-08</text><g transform="translate(565,191)"></g></g><g><g transform="translate(645,141)"></g><rect fill="none" stroke="#DDD" width="70" height="30" rx="8" ry="8" x="645" y="151"/><text text-anchor="middle" fill="#333" x="680" y="171">14-10</text><g transform="translate(645,191)"></g></g><g><g transform="translate(725,141)"></g><rect fill="none" stroke="#DDD" width="70" height="30" rx="8" ry="8" x="725" y="151"/><text text-anchor="middle" fill="#333" x="760" y="171">14-10</text><g transform="translate(725,191)"></g></g><g><g transform="translate(805,141)"></g><rect fill="none" stroke="#DDD" width="70" height="30" rx="8" ry="8" x="805" y="151"/><text text-anchor="middle" fill="#333" x="840" y="171">14-12</text><g transform="translate(805,191)"></g></g><g><g transform="translate(885,141)"></g><rect fill="none" stroke="#DDD" width="70" height="30" rx="8" ry="8" x="885" y="151"/><text text-anchor="middle" fill="#333" x="920" y="171">14-12</text><g transform="translate(885,191)"></g></g><g><g transform="translate(965,141)"></g><rect fill="none" stroke="#DDD" width="70" height="30" rx="8" ry="8" x="965" y="151"/><text text-anchor="middle" fill="#333" x="1000" y="171">15-01</text><g transform="translate(965,191)"></g></g><g><g transform="translate(1045,141)"></g><rect fill="none" stroke="#DDD" width="70" height="30" rx="8" ry="8" x="1045" y="151"/><text text-anchor="middle" fill="#333" x="1080" y="171">15-03</text><g transform="translate(1045,191)"></g></g><g><g transform="translate(1125,141)"></g><rect fill="none" stroke="#DDD" width="70" height="30" rx="8" ry="8" x="1125" y="151"/><text text-anchor="middle" fill="#333" x="1160" y="171">15-04</text><g transform="translate(1125,191)"></g></g><g><g transform="translate(1205,141)"></g><rect fill="none" stroke="#DDD" width="70" height="30" rx="8" ry="8" x="1205" y="151"/><text text-anchor="middle" fill="#333" x="1240" y="171">15-05</text><g transform="translate(1205,191)"></g></g></svg>