<svg xmlns="http://www.w3.org/2000/svg" xmlns:xlink="http://www.w3.org/1999/xlink" width="100%" height="100%" viewBox="0 0 1280 459"><g><g transform="translate(5,195)"><g><a target="_top" xlink:href="dtp-sliceTagWindyVault-step2628000-ofs19-col19-cat0.html"><rect style="display:none" class="hcell-act-col19-cat0" fill="#777" stroke="#000" stroke-width="5" width="70" height="112" x="0" y="-117" rx="8" ry="8"/><rect class="hcell-col19-cat0" fill="#777" stroke="#DDD" width="70" height="122" x="0" y="-122" rx="8" ry="8"/><text text-anchor="middle" fill="#FFF" x="35" y="-102">3127</text></a></g></g><rect fill="none" stroke="#DDD" width="70" height="30" rx="8" ry="8" x="5" y="205"/><text text-anchor="middle" fill="#333" x="40" y="225">14-01</text><g transform="translate(5,245)"><g><a target="_top" xlink:href="dtp-sliceTagWindyVault-step2628000-ofs19-col19-cat0.html"><rect style="display:none" class="hcell-act-col19-cat0" fill="#777" stroke="#000" stroke-width="5" width="70" height="149" x="0" y="5" rx="8" ry="8"/><rect class="hcell-col19-cat0" fill="#777" stroke="#DDD" width="70" height="159" x="0" y="0" rx="8" ry="8"/><text text-anchor="middle" fill="#FFF" x="35" y="20">-4092</text></a></g></g></g><g><g transform="translate(85,195)"><g><a target="_top" xlink:href="dtp-sliceTagWindyVault-step2628000-ofs19-col20-cat0.html"><rect style="display:none" class="hcell-act-col20-cat0" fill="#777" stroke="#000" stroke-width="5" width="70" height="131" x="0" y="-136" rx="8" ry="8"/><rect class="hcell-col20-cat0" fill="#777" stroke="#DDD" width="70" height="141" x="0" y="-141" rx="8" ry="8"/><text text-anchor="middle" fill="#FFF" x="35" y="-121">3626</text></a></g></g><rect fill="none" stroke="#DDD" width="70" height="30" rx="8" ry="8" x="85" y="205"/><text text-anchor="middle" fill="#333" x="120" y="225">14-03</text><g transform="translate(85,245)"><g><a target="_top" xlink:href="dtp-sliceTagWindyVault-step2628000-ofs19-col20-cat0.html"><rect style="display:none" class="hcell-act-col20-cat0" fill="#777" stroke="#000" stroke-width="5" width="70" height="175" x="0" y="5" rx="8" ry="8"/><rect class="hcell-col20-cat0" fill="#777" stroke="#DDD" width="70" height="185" x="0" y="0" rx="8" ry="8"/><text text-anchor="middle" fill="#FFF" x="35" y="20">-4749</text></a></g></g></g><g><g transform="translate(165,195)"><g><a target="_top" xlink:href="dtp-sliceTagWindyVault-step2628000-ofs19-col21-cat0.html"><rect style="display:none" class="hcell-act-col21-cat0" fill="#777" stroke="#000" stroke-width="5" width="70" height="128" x="0" y="-133" rx="8" ry="8"/><rect class="hcell-col21-cat0" fill="#777" stroke="#DDD" width="70" height="138" x="0" y="-138" rx="8" ry="8"/><text text-anchor="middle" fill="#FFF" x="35" y="-118">3538</text></a></g></g><rect fill="none" stroke="#DDD" width="70" height="30" rx="8" ry="8" x="165" y="205"/><text text-anchor="middle" fill="#333" x="200" y="225">14-04</text><g transform="translate(165,245)"><g><a target="_top" xlink:href="dtp-sliceTagWindyVault-step2628000-ofs19-col21-cat0.html"><rect style="display:none" class="hcell-act-col21-cat0" fill="#777" stroke="#000" stroke-width="5" width="70" height="199" x="0" y="5" rx="8" ry="8"/><rect class="hcell-col21-cat0" fill="#777" stroke="#DDD" width="70" height="209" x="0" y="0" rx="8" ry="8"/><text text-anchor="middle" fill="#FFF" x="35" y="20">-5354</text></a></g></g></g><g><g transform="translate(245,195)"><g><a target="_top" xlink:href="dtp-sliceTagWindyVault-step2628000-ofs19-col22-cat0.html"><rect style="display:none" class="hcell-act-col22-cat0" fill="#777" stroke="#000" stroke-width="5" width="70" height="132" x="0" y="-137" rx="8" ry="8"/><rect class="hcell-col22-cat0" fill="#777" stroke="#DDD" width="70" height="142" x="0" y="-142" rx="8" ry="8"/><text text-anchor="middle" fill="#FFF" x="35" y="-122">3659</text></a></g></g><rect fill="none" stroke="#DDD" width="70" height="30" rx="8" ry="8" x="245" y="205"/><text text-anchor="middle" fill="#333" x="280" y="225">14-05</text><g transform="translate(245,245)"><g><a target="_top" xlink:href="dtp-sliceTagWindyVault-step2628000-ofs19-col22-cat0.html"><rect style="display:none" class="hcell-act-col22-cat0" fill="#777" stroke="#000" stroke-width="5" width="70" height="128" x="0" y="5" rx="8" ry="8"/><rect class="hcell-col22-cat0" fill="#777" stroke="#DDD" width="70" height="138" x="0" y="0" rx="8" ry="8"/><text text-anchor="middle" fill="#FFF" x="35" y="20">-3553</text></a></g></g></g><g><g transform="translate(325,195)"><g><a target="_top" xlink:href="dtp-sliceTagWindyVault-step2628000-ofs19-col23-cat0.html"><rect style="display:none" class="hcell-act-col23-cat0" fill="#777" stroke="#000" stroke-width="5" width="70" height="180" x="0" y="-185" rx="8" ry="8"/><rect class="hcell-col23-cat0" fill="#777" stroke="#DDD" width="70" height="190" x="0" y="-190" rx="8" ry="8"/><text text-anchor="middle" fill="#FFF" x="35" y="-170">4887</text></a></g></g><rect fill="none" stroke="#DDD" width="70" height="30" rx="8" ry="8" x="325" y="205"/><text text-anchor="middle" fill="#333" x="360" y="225">14-06</text><g transform="translate(325,245)"><g><a target="_top" xlink:href="dtp-sliceTagWindyVault-step2628000-ofs19-col23-cat0.html"><rect style="display:none" class="hcell-act-col23-cat0" fill="#777" stroke="#000" stroke-width="5" width="70" height="119" x="0" y="5" rx="8" ry="8"/><rect class="hcell-col23-cat0" fill="#777" stroke="#DDD" width="70" height="129" x="0" y="0" rx="8" ry="8"/><text text-anchor="middle" fill="#FFF" x="35" y="20">-3317</text></a></g></g></g><g><g transform="translate(405,195)"><g><a target="_top" xlink:href="dtp-sliceTagWindyVault-step2628000-ofs19-col24-cat0.html"><rect style="display:none" class="hcell-act-col24-cat0" fill="#777" stroke="#000" stroke-width="5" width="70" height="91" x="0" y="-96" rx="8" ry="8"/><rect class="hcell-col24-cat0" fill="#777" stroke="#DDD" width="70" height="101" x="0" y="-101" rx="8" ry="8"/><text text-anchor="middle" fill="#FFF" x="35" y="-81">2600</text></a></g></g><rect fill="none" stroke="#DDD" width="70" height="30" rx="8" ry="8" x="405" y="205"/><text text-anchor="middle" fill="#333" x="440" y="225">14-07</text><g transform="translate(405,245)"><g><a target="_top" xlink:href="dtp-sliceTagWindyVault-step2628000-ofs19-col24-cat0.html"><rect style="display:none" class="hcell-act-col24-cat0" fill="#777" stroke="#000" stroke-width="5" width="70" height="63" x="0" y="5" rx="8" ry="8"/><rect class="hcell-col24-cat0" fill="#777" stroke="#DDD" width="70" height="73" x="0" y="0" rx="8" ry="8"/><text text-anchor="middle" fill="#FFF" x="35" y="20">-1875</text></a></g></g></g><g><g transform="translate(485,195)"></g><rect fill="none" stroke="#DDD" width="70" height="30" rx="8" ry="8" x="485" y="205"/><text text-anchor="middle" fill="#333" x="520" y="225">14-08</text><g transform="translate(485,245)"></g></g><g><g transform="translate(565,195)"></g><rect fill="none" stroke="#DDD" width="70" height="30" rx="8" ry="8" x="565" y="205"/><text text-anchor="middle" fill="#333" x="600" y="225">14-08</text><g transform="translate(565,245)"></g></g><g><g transform="translate(645,195)"></g><rect fill="none" stroke="#DDD" width="70" height="30" rx="8" ry="8" x="645" y="205"/><text text-anchor="middle" fill="#333" x="680" y="225">14-10</text><g transform="translate(645,245)"></g></g><g><g transform="translate(725,195)"></g><rect fill="none" stroke="#DDD" width="70" height="30" rx="8" ry="8" x="725" y="205"/><text text-anchor="middle" fill="#333" x="760" y="225">14-10</text><g transform="translate(725,245)"></g></g><g><g transform="translate(805,195)"></g><rect fill="none" stroke="#DDD" width="70" height="30" rx="8" ry="8" x="805" y="205"/><text text-anchor="middle" fill="#333" x="840" y="225">14-12</text><g transform="translate(805,245)"></g></g><g><g transform="translate(885,195)"></g><rect fill="none" stroke="#DDD" width="70" height="30" rx="8" ry="8" x="885" y="205"/><text text-anchor="middle" fill="#333" x="920" y="225">14-12</text><g transform="translate(885,245)"></g></g><g><g transform="translate(965,195)"></g><rect fill="none" stroke="#DDD" width="70" height="30" rx="8" ry="8" x="965" y="205"/><text text-anchor="middle" fill="#333" x="1000" y="225">15-01</text><g transform="translate(965,245)"></g></g><g><g transform="translate(1045,195)"></g><rect fill="none" stroke="#DDD" width="70" height="30" rx="8" ry="8" x="1045" y="205"/><text text-anchor="middle" fill="#333" x="1080" y="225">15-03</text><g transform="translate(1045,245)"></g></g><g><g transform="translate(1125,195)"></g><rect fill="none" stroke="#DDD" width="70" height="30" rx="8" ry="8" x="1125" y="205"/><text text-anchor="middle" fill="#333" x="1160" y="225">15-04</text><g transform="translate(1125,245)"></g></g><g><g transform="translate(1205,195)"></g><rect fill="none" stroke="#DDD" width="70" height="30" rx="8" ry="8" x="1205" y="205"/><text text-anchor="middle" fill="#333" x="1240" y="225">15-05</text><g transform="translate(1205,245)"></g></g></svg>