<svg xmlns="http://www.w3.org/2000/svg" xmlns:xlink="http://www.w3.org/1999/xlink" width="100%" height="100%" viewBox="0 0 1280 459"><g><g transform="translate(5,101)"></g><rect fill="none" stroke="#DDD" width="70" height="30" rx="8" ry="8" x="5" y="111"/><text text-anchor="middle" fill="#333" x="40" y="131">12-07</text><g transform="translate(5,151)"></g></g><g><g transform="translate(85,101)"></g><rect fill="none" stroke="#DDD" width="70" height="30" rx="8" ry="8" x="85" y="111"/><text text-anchor="middle" fill="#333" x="120" y="131">12-09</text><g transform="translate(85,151)"></g></g><g><g transform="translate(165,101)"></g><rect fill="none" stroke="#DDD" width="70" height="30" rx="8" ry="8" x="165" y="111"/><text text-anchor="middle" fill="#333" x="200" y="131">12-11</text><g transform="translate(165,151)"></g></g><g><g transform="translate(245,101)"></g><rect fill="none" stroke="#DDD" width="70" height="30" rx="8" ry="8" x="245" y="111"/><text text-anchor="middle" fill="#333" x="280" y="131">13-01</text><g transform="translate(245,151)"></g></g><g><g transform="translate(325,101)"></g><rect fill="none" stroke="#DDD" width="70" height="30" rx="8" ry="8" x="325" y="111"/><text text-anchor="middle" fill="#333" x="360" y="131">13-03</text><g transform="translate(325,151)"></g></g><g><g transform="translate(405,101)"></g><rect fill="none" stroke="#DDD" width="70" height="30" rx="8" ry="8" x="405" y="111"/><text text-anchor="middle" fill="#333" x="440" y="131">13-05</text><g transform="translate(405,151)"></g></g><g><g transform="translate(485,101)"></g><rect fill="none" stroke="#DDD" width="70" height="30" rx="8" ry="8" x="485" y="111"/><text text-anchor="middle" fill="#333" x="520" y="131">13-07</text><g transform="translate(485,151)"></g></g><g><g transform="translate(565,101)"></g><rect fill="none" stroke="#DDD" width="70" height="30" rx="8" ry="8" x="565" y="111"/><text text-anchor="middle" fill="#333" x="600" y="131">13-09</text><g transform="translate(565,151)"></g></g><g><g transform="translate(645,101)"></g><rect fill="none" stroke="#DDD" width="70" height="30" rx="8" ry="8" x="645" y="111"/><text text-anchor="middle" fill="#333" x="680" y="131">13-12</text><g transform="translate(645,151)"></g></g><g><g transform="translate(725,101)"></g><rect fill="none" stroke="#DDD" width="70" height="30" rx="8" ry="8" x="725" y="111"/><text text-anchor="middle" fill="#333" x="760" y="131">14-02</text><g transform="translate(725,151)"></g></g><g><g transform="translate(805,101)"></g><rect fill="none" stroke="#DDD" width="70" height="30" rx="8" ry="8" x="805" y="111"/><text text-anchor="middle" fill="#333" x="840" y="131">14-04</text><g transform="translate(805,151)"></g></g><g><g transform="translate(885,101)"></g><rect fill="none" stroke="#DDD" width="70" height="30" rx="8" ry="8" x="885" y="111"/><text text-anchor="middle" fill="#333" x="920" y="131">14-06</text><g transform="translate(885,151)"></g></g><g><g transform="translate(965,101)"><g><a target="_top" xlink:href="dtp-sliceTagVioGorCard-step5605201-ofs0-col12-cat0.html"><rect style="display:none" class="hcell-act-col12-cat0" fill="#777" stroke="#000" stroke-width="5" width="70" height="86" x="0" y="-91" rx="8" ry="8"/><rect class="hcell-col12-cat0" fill="#777" stroke="#DDD" width="70" height="96" x="0" y="-96" rx="8" ry="8"/><text text-anchor="middle" fill="#FFF" x="35" y="-76">18</text></a></g></g><rect fill="none" stroke="#DDD" width="70" height="30" rx="8" ry="8" x="965" y="111"/><text text-anchor="middle" fill="#333" x="1000" y="131">14-08</text><g transform="translate(965,151)"></g></g><g><g transform="translate(1045,101)"><g><a target="_top" xlink:href="dtp-sliceTagVioGorCard-step5605201-ofs0-col13-cat0.html"><rect style="display:none" class="hcell-act-col13-cat0" fill="#777" stroke="#000" stroke-width="5" width="70" height="54" x="0" y="-59" rx="8" ry="8"/><rect class="hcell-col13-cat0" fill="#777" stroke="#DDD" width="70" height="64" x="0" y="-64" rx="8" ry="8"/><text text-anchor="middle" fill="#FFF" x="35" y="-44">12</text></a></g></g><rect fill="none" stroke="#DDD" width="70" height="30" rx="8" ry="8" x="1045" y="111"/><text text-anchor="middle" fill="#333" x="1080" y="131">14-10</text><g transform="translate(1045,151)"></g></g><g><g transform="translate(1125,101)"><g><a target="_top" xlink:href="dtp-sliceTagVioGorCard-step5605201-ofs0-col14-cat0.html"><rect style="display:none" class="hcell-act-col14-cat0" fill="#777" stroke="#000" stroke-width="5" width="70" height="41" x="0" y="-46" rx="8" ry="8"/><rect class="hcell-col14-cat0" fill="#777" stroke="#DDD" width="70" height="51" x="0" y="-51" rx="8" ry="8"/><text text-anchor="middle" fill="#FFF" x="35" y="-31">9</text></a></g></g><rect fill="none" stroke="#DDD" width="70" height="30" rx="8" ry="8" x="1125" y="111"/><text text-anchor="middle" fill="#333" x="1160" y="131">14-12</text><g transform="translate(1125,151)"></g></g><g><g transform="translate(1205,101)"></g><rect fill="none" stroke="#DDD" width="70" height="30" rx="8" ry="8" x="1205" y="111"/><text text-anchor="middle" fill="#333" x="1240" y="131">15-03</text><g transform="translate(1205,151)"><g><a target="_top" xlink:href="dtp-sliceTagVioGorCard-step5605201-ofs0-col15-cat0.html"><rect style="display:none" class="hcell-act-col15-cat0" fill="#777" stroke="#000" stroke-width="5" width="70" height="293" x="0" y="5" rx="8" ry="8"/><rect class="hcell-col15-cat0" fill="#777" stroke="#DDD" width="70" height="303" x="0" y="0" rx="8" ry="8"/><text text-anchor="middle" fill="#FFF" x="35" y="20">-59</text></a></g></g></g></svg>