<svg xmlns="http://www.w3.org/2000/svg" xmlns:xlink="http://www.w3.org/1999/xlink" width="100%" height="100%" viewBox="0 0 1280 459"><g><g transform="translate(5,112)"></g><rect fill="none" stroke="#DDD" width="70" height="30" rx="8" ry="8" x="5" y="122"/><text text-anchor="middle" fill="#333" x="40" y="142">14-01</text><g transform="translate(5,162)"></g></g><g><g transform="translate(85,112)"></g><rect fill="none" stroke="#DDD" width="70" height="30" rx="8" ry="8" x="85" y="122"/><text text-anchor="middle" fill="#333" x="120" y="142">14-03</text><g transform="translate(85,162)"></g></g><g><g transform="translate(165,112)"></g><rect fill="none" stroke="#DDD" width="70" height="30" rx="8" ry="8" x="165" y="122"/><text text-anchor="middle" fill="#333" x="200" y="142">14-04</text><g transform="translate(165,162)"></g></g><g><g transform="translate(245,112)"></g><rect fill="none" stroke="#DDD" width="70" height="30" rx="8" ry="8" x="245" y="122"/><text text-anchor="middle" fill="#333" x="280" y="142">14-05</text><g transform="translate(245,162)"></g></g><g><g transform="translate(325,112)"></g><rect fill="none" stroke="#DDD" width="70" height="30" rx="8" ry="8" x="325" y="122"/><text text-anchor="middle" fill="#333" x="360" y="142">14-06</text><g transform="translate(325,162)"></g></g><g><g transform="translate(405,112)"></g><rect fill="none" stroke="#DDD" width="70" height="30" rx="8" ry="8" x="405" y="122"/><text text-anchor="middle" fill="#333" x="440" y="142">14-07</text><g transform="translate(405,162)"></g></g><g><g transform="translate(485,112)"><g><a target="_top" xlink:href="dtp-sliceTagHousehold-step2628000-ofs19-col25-cat0.html"><rect style="display:none" class="hcell-act-col25-cat0" fill="#777" stroke="#000" stroke-width="5" width="70" height="22" x="0" y="-27" rx="8" ry="8"/><rect class="hcell-col25-cat0" fill="#777" stroke="#DDD" width="70" height="32" x="0" y="-32" rx="8" ry="8"/><text text-anchor="middle" fill="#FFF" x="35" y="-12">5</text></a></g></g><rect fill="none" stroke="#DDD" width="70" height="30" rx="8" ry="8" x="485" y="122"/><text text-anchor="middle" fill="#333" x="520" y="142">14-08</text><g transform="translate(485,162)"></g></g><g><g transform="translate(565,112)"><g><a target="_top" xlink:href="dtp-sliceTagHousehold-step2628000-ofs19-col26-cat0.html"><rect style="display:none" class="hcell-act-col26-cat0" fill="#777" stroke="#000" stroke-width="5" width="70" height="20" x="0" y="-25" rx="8" ry="8"/><rect class="hcell-col26-cat0" fill="#777" stroke="#DDD" width="70" height="30" x="0" y="-30" rx="8" ry="8"/><text text-anchor="middle" fill="#FFF" x="35" y="-10">5</text></a></g></g><rect fill="none" stroke="#DDD" width="70" height="30" rx="8" ry="8" x="565" y="122"/><text text-anchor="middle" fill="#333" x="600" y="142">14-08</text><g transform="translate(565,162)"></g></g><g><g transform="translate(645,112)"></g><rect fill="none" stroke="#DDD" width="70" height="30" rx="8" ry="8" x="645" y="122"/><text text-anchor="middle" fill="#333" x="680" y="142">14-10</text><g transform="translate(645,162)"><g><a target="_top" xlink:href="dtp-sliceTagHousehold-step2628000-ofs19-col27-cat0.html"><rect style="display:none" class="hcell-act-col27-cat0" fill="#777" stroke="#000" stroke-width="5" width="70" height="282" x="0" y="5" rx="8" ry="8"/><rect class="hcell-col27-cat0" fill="#777" stroke="#DDD" width="70" height="292" x="0" y="0" rx="8" ry="8"/><text text-anchor="middle" fill="#FFF" x="35" y="20">-50</text></a></g></g></g><g><g transform="translate(725,112)"><g><a target="_top" xlink:href="dtp-sliceTagHousehold-step2628000-ofs19-col28-cat0.html"><rect style="display:none" class="hcell-act-col28-cat0" fill="#777" stroke="#000" stroke-width="5" width="70" height="97" x="0" y="-102" rx="8" ry="8"/><rect class="hcell-col28-cat0" fill="#777" stroke="#DDD" width="70" height="107" x="0" y="-107" rx="8" ry="8"/><text text-anchor="middle" fill="#FFF" x="35" y="-87">18</text></a></g></g><rect fill="none" stroke="#DDD" width="70" height="30" rx="8" ry="8" x="725" y="122"/><text text-anchor="middle" fill="#333" x="760" y="142">14-10</text><g transform="translate(725,162)"></g></g><g><g transform="translate(805,112)"><g><a target="_top" xlink:href="dtp-sliceTagHousehold-step2628000-ofs19-col29-cat0.html"><rect style="display:none" class="hcell-act-col29-cat0" fill="#777" stroke="#000" stroke-width="5" width="70" height="20" x="0" y="-25" rx="8" ry="8"/><rect class="hcell-col29-cat0" fill="#777" stroke="#DDD" width="70" height="30" x="0" y="-30" rx="8" ry="8"/><text text-anchor="middle" fill="#FFF" x="35" y="-10">2</text></a></g></g><rect fill="none" stroke="#DDD" width="70" height="30" rx="8" ry="8" x="805" y="122"/><text text-anchor="middle" fill="#333" x="840" y="142">14-12</text><g transform="translate(805,162)"></g></g><g><g transform="translate(885,112)"><g><a target="_top" xlink:href="dtp-sliceTagHousehold-step2628000-ofs19-col30-cat0.html"><rect style="display:none" class="hcell-act-col30-cat0" fill="#777" stroke="#000" stroke-width="5" width="70" height="20" x="0" y="-25" rx="8" ry="8"/><rect class="hcell-col30-cat0" fill="#777" stroke="#DDD" width="70" height="30" x="0" y="-30" rx="8" ry="8"/><text text-anchor="middle" fill="#FFF" x="35" y="-10">4</text></a></g></g><rect fill="none" stroke="#DDD" width="70" height="30" rx="8" ry="8" x="885" y="122"/><text text-anchor="middle" fill="#333" x="920" y="142">14-12</text><g transform="translate(885,162)"></g></g><g><g transform="translate(965,112)"><g><a target="_top" xlink:href="dtp-sliceTagHousehold-step2628000-ofs19-col31-cat0.html"><rect style="display:none" class="hcell-act-col31-cat0" fill="#777" stroke="#000" stroke-width="5" width="70" height="27" x="0" y="-32" rx="8" ry="8"/><rect class="hcell-col31-cat0" fill="#777" stroke="#DDD" width="70" height="37" x="0" y="-37" rx="8" ry="8"/><text text-anchor="middle" fill="#FFF" x="35" y="-17">6</text></a></g></g><rect fill="none" stroke="#DDD" width="70" height="30" rx="8" ry="8" x="965" y="122"/><text text-anchor="middle" fill="#333" x="1000" y="142">15-01</text><g transform="translate(965,162)"></g></g><g><g transform="translate(1045,112)"></g><rect fill="none" stroke="#DDD" width="70" height="30" rx="8" ry="8" x="1045" y="122"/><text text-anchor="middle" fill="#333" x="1080" y="142">15-03</text><g transform="translate(1045,162)"><g><a target="_top" xlink:href="dtp-sliceTagHousehold-step2628000-ofs19-col32-cat0.html"><rect style="display:none" class="hcell-act-col32-cat0" fill="#777" stroke="#000" stroke-width="5" width="70" height="282" x="0" y="5" rx="8" ry="8"/><rect class="hcell-col32-cat0" fill="#777" stroke="#DDD" width="70" height="292" x="0" y="0" rx="8" ry="8"/><text text-anchor="middle" fill="#FFF" x="35" y="20">-50</text></a></g></g></g><g><g transform="translate(1125,112)"></g><rect fill="none" stroke="#DDD" width="70" height="30" rx="8" ry="8" x="1125" y="122"/><text text-anchor="middle" fill="#333" x="1160" y="142">15-04</text><g transform="translate(1125,162)"><g><a target="_top" xlink:href="dtp-sliceTagHousehold-step2628000-ofs19-col33-cat0.html"><rect style="display:none" class="hcell-act-col33-cat0" fill="#777" stroke="#000" stroke-width="5" width="70" height="68" x="0" y="5" rx="8" ry="8"/><rect class="hcell-col33-cat0" fill="#777" stroke="#DDD" width="70" height="78" x="0" y="0" rx="8" ry="8"/><text text-anchor="middle" fill="#FFF" x="35" y="20">-14</text></a></g></g></g><g><g transform="translate(1205,112)"></g><rect fill="none" stroke="#DDD" width="70" height="30" rx="8" ry="8" x="1205" y="122"/><text text-anchor="middle" fill="#333" x="1240" y="142">15-05</text><g transform="translate(1205,162)"><g><a target="_top" xlink:href="dtp-sliceTagHousehold-step2628000-ofs19-col34-cat0.html"><rect style="display:none" class="hcell-act-col34-cat0" fill="#777" stroke="#000" stroke-width="5" width="70" height="282" x="0" y="5" rx="8" ry="8"/><rect class="hcell-col34-cat0" fill="#777" stroke="#DDD" width="70" height="292" x="0" y="0" rx="8" ry="8"/><text text-anchor="middle" fill="#FFF" x="35" y="20">-50</text></a></g></g></g></svg>