<svg xmlns="http://www.w3.org/2000/svg" xmlns:xlink="http://www.w3.org/1999/xlink" width="100%" height="100%" viewBox="0 0 1280 481"><g><g transform="translate(5,426)"></g><rect fill="none" stroke="#DDD" width="70" height="30" rx="8" ry="8" x="5" y="436"/><text text-anchor="middle" fill="#333" x="40" y="456">12-10</text><g transform="translate(5,476)"></g></g><g><g transform="translate(85,426)"></g><rect fill="none" stroke="#DDD" width="70" height="30" rx="8" ry="8" x="85" y="436"/><text text-anchor="middle" fill="#333" x="120" y="456">12-10</text><g transform="translate(85,476)"></g></g><g><g transform="translate(165,426)"></g><rect fill="none" stroke="#DDD" width="70" height="30" rx="8" ry="8" x="165" y="436"/><text text-anchor="middle" fill="#333" x="200" y="456">12-12</text><g transform="translate(165,476)"></g></g><g><g transform="translate(245,426)"></g><rect fill="none" stroke="#DDD" width="70" height="30" rx="8" ry="8" x="245" y="436"/><text text-anchor="middle" fill="#333" x="280" y="456">12-12</text><g transform="translate(245,476)"></g></g><g><g transform="translate(325,426)"></g><rect fill="none" stroke="#DDD" width="70" height="30" rx="8" ry="8" x="325" y="436"/><text text-anchor="middle" fill="#333" x="360" y="456">13-01</text><g transform="translate(325,476)"></g></g><g><g transform="translate(405,426)"></g><rect fill="none" stroke="#DDD" width="70" height="30" rx="8" ry="8" x="405" y="436"/><text text-anchor="middle" fill="#333" x="440" y="456">13-03</text><g transform="translate(405,476)"></g></g><g><g transform="translate(485,426)"><g><a target="_top" xlink:href="dtp-slice2-step2628000-ofs3-col9-cat0.html"><rect style="display:none" class="hcell-act-col9-cat0" fill="#5CB85C" stroke="#000" stroke-width="5" width="70" height="20" x="0" y="-25" rx="8" ry="8"/><rect class="hcell-col9-cat0" fill="#5CB85C" stroke="#DDD" width="70" height="30" x="0" y="-30" rx="8" ry="8"/><text text-anchor="middle" fill="#FFF" x="35" y="-10">29</text></a></g></g><rect fill="none" stroke="#DDD" width="70" height="30" rx="8" ry="8" x="485" y="436"/><text text-anchor="middle" fill="#333" x="520" y="456">13-04</text><g transform="translate(485,476)"></g></g><g><g transform="translate(565,426)"><g><a target="_top" xlink:href="dtp-slice2-step2628000-ofs3-col10-cat0.html"><rect style="display:none" class="hcell-act-col10-cat0" fill="#5CB85C" stroke="#000" stroke-width="5" width="70" height="20" x="0" y="-25" rx="8" ry="8"/><rect class="hcell-col10-cat0" fill="#5CB85C" stroke="#DDD" width="70" height="30" x="0" y="-30" rx="8" ry="8"/><text text-anchor="middle" fill="#FFF" x="35" y="-10">33</text></a></g></g><rect fill="none" stroke="#DDD" width="70" height="30" rx="8" ry="8" x="565" y="436"/><text text-anchor="middle" fill="#333" x="600" y="456">13-05</text><g transform="translate(565,476)"></g></g><g><g transform="translate(645,426)"></g><rect fill="none" stroke="#DDD" width="70" height="30" rx="8" ry="8" x="645" y="436"/><text text-anchor="middle" fill="#333" x="680" y="456">13-06</text><g transform="translate(645,476)"></g></g><g><g transform="translate(725,426)"><g><a target="_top" xlink:href="dtp-slice2-step2628000-ofs3-col12-cat0.html"><rect style="display:none" class="hcell-act-col12-cat0" fill="#5CB85C" stroke="#000" stroke-width="5" width="70" height="20" x="0" y="-25" rx="8" ry="8"/><rect class="hcell-col12-cat0" fill="#5CB85C" stroke="#DDD" width="70" height="30" x="0" y="-30" rx="8" ry="8"/><text text-anchor="middle" fill="#FFF" x="35" y="-10">34</text></a><g transform="translate(0,-30)"><g><a target="_top" xlink:href="dtp-slice2-step2628000-ofs3-col12-cat3.html"><rect style="display:none" class="hcell-act-col12-cat3" fill="#F0AD4E" stroke="#000" stroke-width="5" width="70" height="381" x="0" y="-386" rx="8" ry="8"/><rect class="hcell-col12-cat3" fill="#F0AD4E" stroke="#DDD" width="70" height="391" x="0" y="-391" rx="8" ry="8"/><text text-anchor="middle" fill="#FFF" x="35" y="-371">1530</text></a></g></g></g></g><rect fill="none" stroke="#DDD" width="70" height="30" rx="8" ry="8" x="725" y="436"/><text text-anchor="middle" fill="#333" x="760" y="456">13-07</text><g transform="translate(725,476)"></g></g><g><g transform="translate(805,426)"><g><a target="_top" xlink:href="dtp-slice2-step2628000-ofs3-col13-cat0.html"><rect style="display:none" class="hcell-act-col13-cat0" fill="#5CB85C" stroke="#000" stroke-width="5" width="70" height="20" x="0" y="-25" rx="8" ry="8"/><rect class="hcell-col13-cat0" fill="#5CB85C" stroke="#DDD" width="70" height="30" x="0" y="-30" rx="8" ry="8"/><text text-anchor="middle" fill="#FFF" x="35" y="-10">46</text></a></g></g><rect fill="none" stroke="#DDD" width="70" height="30" rx="8" ry="8" x="805" y="436"/><text text-anchor="middle" fill="#333" x="840" y="456">13-08</text><g transform="translate(805,476)"></g></g><g><g transform="translate(885,426)"></g><rect fill="none" stroke="#DDD" width="70" height="30" rx="8" ry="8" x="885" y="436"/><text text-anchor="middle" fill="#333" x="920" y="456">13-08</text><g transform="translate(885,476)"></g></g><g><g transform="translate(965,426)"><g><a target="_top" xlink:href="dtp-slice2-step2628000-ofs3-col15-cat2.html"><rect style="display:none" class="hcell-act-col15-cat2" fill="#337AB7" stroke="#000" stroke-width="5" width="70" height="20" x="0" y="-25" rx="8" ry="8"/><rect class="hcell-col15-cat2" fill="#337AB7" stroke="#DDD" width="70" height="30" x="0" y="-30" rx="8" ry="8"/><text text-anchor="middle" fill="#FFF" x="35" y="-10">10</text></a><g transform="translate(0,-30)"><g><a target="_top" xlink:href="dtp-slice2-step2628000-ofs3-col15-cat3.html"><rect style="display:none" class="hcell-act-col15-cat3" fill="#F0AD4E" stroke="#000" stroke-width="5" width="70" height="80" x="0" y="-85" rx="8" ry="8"/><rect class="hcell-col15-cat3" fill="#F0AD4E" stroke="#DDD" width="70" height="90" x="0" y="-90" rx="8" ry="8"/><text text-anchor="middle" fill="#FFF" x="35" y="-70">354</text></a></g></g></g></g><rect fill="none" stroke="#DDD" width="70" height="30" rx="8" ry="8" x="965" y="436"/><text text-anchor="middle" fill="#333" x="1000" y="456">13-10</text><g transform="translate(965,476)"></g></g><g><g transform="translate(1045,426)"><g><a target="_top" xlink:href="dtp-slice2-step2628000-ofs3-col16-cat0.html"><rect style="display:none" class="hcell-act-col16-cat0" fill="#5CB85C" stroke="#000" stroke-width="5" width="70" height="20" x="0" y="-25" rx="8" ry="8"/><rect class="hcell-col16-cat0" fill="#5CB85C" stroke="#DDD" width="70" height="30" x="0" y="-30" rx="8" ry="8"/><text text-anchor="middle" fill="#FFF" x="35" y="-10">38</text></a><g transform="translate(0,-30)"><g><a target="_top" xlink:href="dtp-slice2-step2628000-ofs3-col16-cat1.html"><rect style="display:none" class="hcell-act-col16-cat1" fill="#5BC0DE" stroke="#000" stroke-width="5" width="70" height="83" x="0" y="-88" rx="8" ry="8"/><rect class="hcell-col16-cat1" fill="#5BC0DE" stroke="#DDD" width="70" height="93" x="0" y="-93" rx="8" ry="8"/><text text-anchor="middle" fill="#FFF" x="35" y="-73">364</text></a></g></g></g></g><rect fill="none" stroke="#DDD" width="70" height="30" rx="8" ry="8" x="1045" y="436"/><text text-anchor="middle" fill="#333" x="1080" y="456">13-10</text><g transform="translate(1045,476)"></g></g><g><g transform="translate(1125,426)"><g><a target="_top" xlink:href="dtp-slice2-step2628000-ofs3-col17-cat0.html"><rect style="display:none" class="hcell-act-col17-cat0" fill="#5CB85C" stroke="#000" stroke-width="5" width="70" height="20" x="0" y="-25" rx="8" ry="8"/><rect class="hcell-col17-cat0" fill="#5CB85C" stroke="#DDD" width="70" height="30" x="0" y="-30" rx="8" ry="8"/><text text-anchor="middle" fill="#FFF" x="35" y="-10">37</text></a></g></g><rect fill="none" stroke="#DDD" width="70" height="30" rx="8" ry="8" x="1125" y="436"/><text text-anchor="middle" fill="#333" x="1160" y="456">13-12</text><g transform="translate(1125,476)"></g></g><g><g transform="translate(1205,426)"><g><a target="_top" xlink:href="dtp-slice2-step2628000-ofs3-col18-cat0.html"><rect style="display:none" class="hcell-act-col18-cat0" fill="#5CB85C" stroke="#000" stroke-width="5" width="70" height="20" x="0" y="-25" rx="8" ry="8"/><rect class="hcell-col18-cat0" fill="#5CB85C" stroke="#DDD" width="70" height="30" x="0" y="-30" rx="8" ry="8"/><text text-anchor="middle" fill="#FFF" x="35" y="-10">34</text></a></g></g><rect fill="none" stroke="#DDD" width="70" height="30" rx="8" ry="8" x="1205" y="436"/><text text-anchor="middle" fill="#333" x="1240" y="456">13-12</text><g transform="translate(1205,476)"></g></g></svg>