<svg xmlns="http://www.w3.org/2000/svg" xmlns:xlink="http://www.w3.org/1999/xlink" width="100%" height="100%" viewBox="0 0 1280 460"><g><g transform="translate(5,205)"></g><rect fill="none" stroke="#DDD" width="70" height="30" rx="8" ry="8" x="5" y="215"/><text text-anchor="middle" fill="#333" x="40" y="235">14-01</text><g transform="translate(5,255)"></g></g><g><g transform="translate(85,205)"></g><rect fill="none" stroke="#DDD" width="70" height="30" rx="8" ry="8" x="85" y="215"/><text text-anchor="middle" fill="#333" x="120" y="235">14-03</text><g transform="translate(85,255)"></g></g><g><g transform="translate(165,205)"></g><rect fill="none" stroke="#DDD" width="70" height="30" rx="8" ry="8" x="165" y="215"/><text text-anchor="middle" fill="#333" x="200" y="235">14-04</text><g transform="translate(165,255)"></g></g><g><g transform="translate(245,205)"></g><rect fill="none" stroke="#DDD" width="70" height="30" rx="8" ry="8" x="245" y="215"/><text text-anchor="middle" fill="#333" x="280" y="235">14-05</text><g transform="translate(245,255)"></g></g><g><g transform="translate(325,205)"></g><rect fill="none" stroke="#DDD" width="70" height="30" rx="8" ry="8" x="325" y="215"/><text text-anchor="middle" fill="#333" x="360" y="235">14-06</text><g transform="translate(325,255)"></g></g><g><g transform="translate(405,205)"><g><a target="_top" xlink:href="dtp-sliceTagParking-step2628000-ofs19-col24-cat0.html"><rect style="display:none" class="hcell-act-col24-cat0" fill="#777" stroke="#000" stroke-width="5" width="70" height="90" x="0" y="-95" rx="8" ry="8"/><rect class="hcell-col24-cat0" fill="#777" stroke="#DDD" width="70" height="100" x="0" y="-100" rx="8" ry="8"/><text text-anchor="middle" fill="#FFF" x="35" y="-80">10</text></a></g></g><rect fill="none" stroke="#DDD" width="70" height="30" rx="8" ry="8" x="405" y="215"/><text text-anchor="middle" fill="#333" x="440" y="235">14-07</text><g transform="translate(405,255)"><g><a target="_top" xlink:href="dtp-sliceTagParking-step2628000-ofs19-col24-cat0.html"><rect style="display:none" class="hcell-act-col24-cat0" fill="#777" stroke="#000" stroke-width="5" width="70" height="90" x="0" y="5" rx="8" ry="8"/><rect class="hcell-col24-cat0" fill="#777" stroke="#DDD" width="70" height="100" x="0" y="0" rx="8" ry="8"/><text text-anchor="middle" fill="#FFF" x="35" y="20">-10</text></a></g></g></g><g><g transform="translate(485,205)"></g><rect fill="none" stroke="#DDD" width="70" height="30" rx="8" ry="8" x="485" y="215"/><text text-anchor="middle" fill="#333" x="520" y="235">14-08</text><g transform="translate(485,255)"></g></g><g><g transform="translate(565,205)"></g><rect fill="none" stroke="#DDD" width="70" height="30" rx="8" ry="8" x="565" y="215"/><text text-anchor="middle" fill="#333" x="600" y="235">14-08</text><g transform="translate(565,255)"></g></g><g><g transform="translate(645,205)"></g><rect fill="none" stroke="#DDD" width="70" height="30" rx="8" ry="8" x="645" y="215"/><text text-anchor="middle" fill="#333" x="680" y="235">14-10</text><g transform="translate(645,255)"></g></g><g><g transform="translate(725,205)"><g><a target="_top" xlink:href="dtp-sliceTagParking-step2628000-ofs19-col28-cat0.html"><rect style="display:none" class="hcell-act-col28-cat0" fill="#777" stroke="#000" stroke-width="5" width="70" height="90" x="0" y="-95" rx="8" ry="8"/><rect class="hcell-col28-cat0" fill="#777" stroke="#DDD" width="70" height="100" x="0" y="-100" rx="8" ry="8"/><text text-anchor="middle" fill="#FFF" x="35" y="-80">10</text></a></g></g><rect fill="none" stroke="#DDD" width="70" height="30" rx="8" ry="8" x="725" y="215"/><text text-anchor="middle" fill="#333" x="760" y="235">14-10</text><g transform="translate(725,255)"><g><a target="_top" xlink:href="dtp-sliceTagParking-step2628000-ofs19-col28-cat0.html"><rect style="display:none" class="hcell-act-col28-cat0" fill="#777" stroke="#000" stroke-width="5" width="70" height="90" x="0" y="5" rx="8" ry="8"/><rect class="hcell-col28-cat0" fill="#777" stroke="#DDD" width="70" height="100" x="0" y="0" rx="8" ry="8"/><text text-anchor="middle" fill="#FFF" x="35" y="20">-10</text></a></g></g></g><g><g transform="translate(805,205)"><g><a target="_top" xlink:href="dtp-sliceTagParking-step2628000-ofs19-col29-cat0.html"><rect style="display:none" class="hcell-act-col29-cat0" fill="#777" stroke="#000" stroke-width="5" width="70" height="190" x="0" y="-195" rx="8" ry="8"/><rect class="hcell-col29-cat0" fill="#777" stroke="#DDD" width="70" height="200" x="0" y="-200" rx="8" ry="8"/><text text-anchor="middle" fill="#FFF" x="35" y="-180">20</text></a></g></g><rect fill="none" stroke="#DDD" width="70" height="30" rx="8" ry="8" x="805" y="215"/><text text-anchor="middle" fill="#333" x="840" y="235">14-12</text><g transform="translate(805,255)"><g><a target="_top" xlink:href="dtp-sliceTagParking-step2628000-ofs19-col29-cat0.html"><rect style="display:none" class="hcell-act-col29-cat0" fill="#777" stroke="#000" stroke-width="5" width="70" height="190" x="0" y="5" rx="8" ry="8"/><rect class="hcell-col29-cat0" fill="#777" stroke="#DDD" width="70" height="200" x="0" y="0" rx="8" ry="8"/><text text-anchor="middle" fill="#FFF" x="35" y="20">-20</text></a></g></g></g><g><g transform="translate(885,205)"></g><rect fill="none" stroke="#DDD" width="70" height="30" rx="8" ry="8" x="885" y="215"/><text text-anchor="middle" fill="#333" x="920" y="235">14-12</text><g transform="translate(885,255)"></g></g><g><g transform="translate(965,205)"></g><rect fill="none" stroke="#DDD" width="70" height="30" rx="8" ry="8" x="965" y="215"/><text text-anchor="middle" fill="#333" x="1000" y="235">15-01</text><g transform="translate(965,255)"></g></g><g><g transform="translate(1045,205)"></g><rect fill="none" stroke="#DDD" width="70" height="30" rx="8" ry="8" x="1045" y="215"/><text text-anchor="middle" fill="#333" x="1080" y="235">15-03</text><g transform="translate(1045,255)"></g></g><g><g transform="translate(1125,205)"></g><rect fill="none" stroke="#DDD" width="70" height="30" rx="8" ry="8" x="1125" y="215"/><text text-anchor="middle" fill="#333" x="1160" y="235">15-04</text><g transform="translate(1125,255)"></g></g><g><g transform="translate(1205,205)"></g><rect fill="none" stroke="#DDD" width="70" height="30" rx="8" ry="8" x="1205" y="215"/><text text-anchor="middle" fill="#333" x="1240" y="235">15-05</text><g transform="translate(1205,255)"></g></g></svg>