<svg xmlns="http://www.w3.org/2000/svg" xmlns:xlink="http://www.w3.org/1999/xlink" width="100%" height="100%" viewBox="0 0 1280 459"><g><g transform="translate(5,171)"><g><a target="_top" xlink:href="dtp-sliceTagChecking1042-step2628000-ofs0-col0-cat0.html"><rect style="display:none" class="hcell-act-col0-cat0" fill="#777" stroke="#000" stroke-width="5" width="70" height="92" x="0" y="-97" rx="8" ry="8"/><rect class="hcell-col0-cat0" fill="#777" stroke="#DDD" width="70" height="102" x="0" y="-102" rx="8" ry="8"/><text text-anchor="middle" fill="#FFF" x="35" y="-82">2700</text></a></g></g><rect fill="none" stroke="#DDD" width="70" height="30" rx="8" ry="8" x="5" y="181"/><text text-anchor="middle" fill="#333" x="40" y="201">12-07</text><g transform="translate(5,221)"><g><a target="_top" xlink:href="dtp-sliceTagChecking1042-step2628000-ofs0-col0-cat0.html"><rect style="display:none" class="hcell-act-col0-cat0" fill="#777" stroke="#000" stroke-width="5" width="70" height="73" x="0" y="5" rx="8" ry="8"/><rect class="hcell-col0-cat0" fill="#777" stroke="#DDD" width="70" height="83" x="0" y="0" rx="8" ry="8"/><text text-anchor="middle" fill="#FFF" x="35" y="20">-2199</text></a></g></g></g><g><g transform="translate(85,171)"><g><a target="_top" xlink:href="dtp-sliceTagChecking1042-step2628000-ofs0-col1-cat0.html"><rect style="display:none" class="hcell-act-col1-cat0" fill="#777" stroke="#000" stroke-width="5" width="70" height="94" x="0" y="-99" rx="8" ry="8"/><rect class="hcell-col1-cat0" fill="#777" stroke="#DDD" width="70" height="104" x="0" y="-104" rx="8" ry="8"/><text text-anchor="middle" fill="#FFF" x="35" y="-84">2756</text></a></g></g><rect fill="none" stroke="#DDD" width="70" height="30" rx="8" ry="8" x="85" y="181"/><text text-anchor="middle" fill="#333" x="120" y="201">12-08</text><g transform="translate(85,221)"><g><a target="_top" xlink:href="dtp-sliceTagChecking1042-step2628000-ofs0-col1-cat0.html"><rect style="display:none" class="hcell-act-col1-cat0" fill="#777" stroke="#000" stroke-width="5" width="70" height="73" x="0" y="5" rx="8" ry="8"/><rect class="hcell-col1-cat0" fill="#777" stroke="#DDD" width="70" height="83" x="0" y="0" rx="8" ry="8"/><text text-anchor="middle" fill="#FFF" x="35" y="20">-2201</text></a></g></g></g><g><g transform="translate(165,171)"><g><a target="_top" xlink:href="dtp-sliceTagChecking1042-step2628000-ofs0-col2-cat0.html"><rect style="display:none" class="hcell-act-col2-cat0" fill="#777" stroke="#000" stroke-width="5" width="70" height="91" x="0" y="-96" rx="8" ry="8"/><rect class="hcell-col2-cat0" fill="#777" stroke="#DDD" width="70" height="101" x="0" y="-101" rx="8" ry="8"/><text text-anchor="middle" fill="#FFF" x="35" y="-81">2674</text></a></g></g><rect fill="none" stroke="#DDD" width="70" height="30" rx="8" ry="8" x="165" y="181"/><text text-anchor="middle" fill="#333" x="200" y="201">12-08</text><g transform="translate(165,221)"><g><a target="_top" xlink:href="dtp-sliceTagChecking1042-step2628000-ofs0-col2-cat0.html"><rect style="display:none" class="hcell-act-col2-cat0" fill="#777" stroke="#000" stroke-width="5" width="70" height="89" x="0" y="5" rx="8" ry="8"/><rect class="hcell-col2-cat0" fill="#777" stroke="#DDD" width="70" height="99" x="0" y="0" rx="8" ry="8"/><text text-anchor="middle" fill="#FFF" x="35" y="20">-2606</text></a></g></g></g><g><g transform="translate(245,171)"><g><a target="_top" xlink:href="dtp-sliceTagChecking1042-step2628000-ofs0-col3-cat0.html"><rect style="display:none" class="hcell-act-col3-cat0" fill="#777" stroke="#000" stroke-width="5" width="70" height="89" x="0" y="-94" rx="8" ry="8"/><rect class="hcell-col3-cat0" fill="#777" stroke="#DDD" width="70" height="99" x="0" y="-99" rx="8" ry="8"/><text text-anchor="middle" fill="#FFF" x="35" y="-79">2626</text></a></g></g><rect fill="none" stroke="#DDD" width="70" height="30" rx="8" ry="8" x="245" y="181"/><text text-anchor="middle" fill="#333" x="280" y="201">12-10</text><g transform="translate(245,221)"><g><a target="_top" xlink:href="dtp-sliceTagChecking1042-step2628000-ofs0-col3-cat0.html"><rect style="display:none" class="hcell-act-col3-cat0" fill="#777" stroke="#000" stroke-width="5" width="70" height="75" x="0" y="5" rx="8" ry="8"/><rect class="hcell-col3-cat0" fill="#777" stroke="#DDD" width="70" height="85" x="0" y="0" rx="8" ry="8"/><text text-anchor="middle" fill="#FFF" x="35" y="20">-2238</text></a></g></g></g><g><g transform="translate(325,171)"><g><a target="_top" xlink:href="dtp-sliceTagChecking1042-step2628000-ofs0-col4-cat0.html"><rect style="display:none" class="hcell-act-col4-cat0" fill="#777" stroke="#000" stroke-width="5" width="70" height="122" x="0" y="-127" rx="8" ry="8"/><rect class="hcell-col4-cat0" fill="#777" stroke="#DDD" width="70" height="132" x="0" y="-132" rx="8" ry="8"/><text text-anchor="middle" fill="#FFF" x="35" y="-112">3479</text></a></g></g><rect fill="none" stroke="#DDD" width="70" height="30" rx="8" ry="8" x="325" y="181"/><text text-anchor="middle" fill="#333" x="360" y="201">12-10</text><g transform="translate(325,221)"><g><a target="_top" xlink:href="dtp-sliceTagChecking1042-step2628000-ofs0-col4-cat0.html"><rect style="display:none" class="hcell-act-col4-cat0" fill="#777" stroke="#000" stroke-width="5" width="70" height="75" x="0" y="5" rx="8" ry="8"/><rect class="hcell-col4-cat0" fill="#777" stroke="#DDD" width="70" height="85" x="0" y="0" rx="8" ry="8"/><text text-anchor="middle" fill="#FFF" x="35" y="20">-2260</text></a></g></g></g><g><g transform="translate(405,171)"><g><a target="_top" xlink:href="dtp-sliceTagChecking1042-step2628000-ofs0-col5-cat0.html"><rect style="display:none" class="hcell-act-col5-cat0" fill="#777" stroke="#000" stroke-width="5" width="70" height="96" x="0" y="-101" rx="8" ry="8"/><rect class="hcell-col5-cat0" fill="#777" stroke="#DDD" width="70" height="106" x="0" y="-106" rx="8" ry="8"/><text text-anchor="middle" fill="#FFF" x="35" y="-86">2800</text></a></g></g><rect fill="none" stroke="#DDD" width="70" height="30" rx="8" ry="8" x="405" y="181"/><text text-anchor="middle" fill="#333" x="440" y="201">12-12</text><g transform="translate(405,221)"><g><a target="_top" xlink:href="dtp-sliceTagChecking1042-step2628000-ofs0-col5-cat0.html"><rect style="display:none" class="hcell-act-col5-cat0" fill="#777" stroke="#000" stroke-width="5" width="70" height="68" x="0" y="5" rx="8" ry="8"/><rect class="hcell-col5-cat0" fill="#777" stroke="#DDD" width="70" height="78" x="0" y="0" rx="8" ry="8"/><text text-anchor="middle" fill="#FFF" x="35" y="20">-2052</text></a></g></g></g><g><g transform="translate(485,171)"><g><a target="_top" xlink:href="dtp-sliceTagChecking1042-step2628000-ofs0-col6-cat0.html"><rect style="display:none" class="hcell-act-col6-cat0" fill="#777" stroke="#000" stroke-width="5" width="70" height="94" x="0" y="-99" rx="8" ry="8"/><rect class="hcell-col6-cat0" fill="#777" stroke="#DDD" width="70" height="104" x="0" y="-104" rx="8" ry="8"/><text text-anchor="middle" fill="#FFF" x="35" y="-84">2753</text></a></g></g><rect fill="none" stroke="#DDD" width="70" height="30" rx="8" ry="8" x="485" y="181"/><text text-anchor="middle" fill="#333" x="520" y="201">12-12</text><g transform="translate(485,221)"><g><a target="_top" xlink:href="dtp-sliceTagChecking1042-step2628000-ofs0-col6-cat0.html"><rect style="display:none" class="hcell-act-col6-cat0" fill="#777" stroke="#000" stroke-width="5" width="70" height="62" x="0" y="5" rx="8" ry="8"/><rect class="hcell-col6-cat0" fill="#777" stroke="#DDD" width="70" height="72" x="0" y="0" rx="8" ry="8"/><text text-anchor="middle" fill="#FFF" x="35" y="20">-1904</text></a></g></g></g><g><g transform="translate(565,171)"><g><a target="_top" xlink:href="dtp-sliceTagChecking1042-step2628000-ofs0-col7-cat0.html"><rect style="display:none" class="hcell-act-col7-cat0" fill="#777" stroke="#000" stroke-width="5" width="70" height="88" x="0" y="-93" rx="8" ry="8"/><rect class="hcell-col7-cat0" fill="#777" stroke="#DDD" width="70" height="98" x="0" y="-98" rx="8" ry="8"/><text text-anchor="middle" fill="#FFF" x="35" y="-78">2600</text></a></g></g><rect fill="none" stroke="#DDD" width="70" height="30" rx="8" ry="8" x="565" y="181"/><text text-anchor="middle" fill="#333" x="600" y="201">13-01</text><g transform="translate(565,221)"><g><a target="_top" xlink:href="dtp-sliceTagChecking1042-step2628000-ofs0-col7-cat0.html"><rect style="display:none" class="hcell-act-col7-cat0" fill="#777" stroke="#000" stroke-width="5" width="70" height="43" x="0" y="5" rx="8" ry="8"/><rect class="hcell-col7-cat0" fill="#777" stroke="#DDD" width="70" height="53" x="0" y="0" rx="8" ry="8"/><text text-anchor="middle" fill="#FFF" x="35" y="20">-1420</text></a></g></g></g><g><g transform="translate(645,171)"><g><a target="_top" xlink:href="dtp-sliceTagChecking1042-step2628000-ofs0-col8-cat0.html"><rect style="display:none" class="hcell-act-col8-cat0" fill="#777" stroke="#000" stroke-width="5" width="70" height="156" x="0" y="-161" rx="8" ry="8"/><rect class="hcell-col8-cat0" fill="#777" stroke="#DDD" width="70" height="166" x="0" y="-166" rx="8" ry="8"/><text text-anchor="middle" fill="#FFF" x="35" y="-146">4383</text></a></g></g><rect fill="none" stroke="#DDD" width="70" height="30" rx="8" ry="8" x="645" y="181"/><text text-anchor="middle" fill="#333" x="680" y="201">13-03</text><g transform="translate(645,221)"><g><a target="_top" xlink:href="dtp-sliceTagChecking1042-step2628000-ofs0-col8-cat0.html"><rect style="display:none" class="hcell-act-col8-cat0" fill="#777" stroke="#000" stroke-width="5" width="70" height="109" x="0" y="5" rx="8" ry="8"/><rect class="hcell-col8-cat0" fill="#777" stroke="#DDD" width="70" height="119" x="0" y="0" rx="8" ry="8"/><text text-anchor="middle" fill="#FFF" x="35" y="20">-3147</text></a></g></g></g><g><g transform="translate(725,171)"><g><a target="_top" xlink:href="dtp-sliceTagChecking1042-step2628000-ofs0-col9-cat0.html"><rect style="display:none" class="hcell-act-col9-cat0" fill="#777" stroke="#000" stroke-width="5" width="70" height="88" x="0" y="-93" rx="8" ry="8"/><rect class="hcell-col9-cat0" fill="#777" stroke="#DDD" width="70" height="98" x="0" y="-98" rx="8" ry="8"/><text text-anchor="middle" fill="#FFF" x="35" y="-78">2600</text></a></g></g><rect fill="none" stroke="#DDD" width="70" height="30" rx="8" ry="8" x="725" y="181"/><text text-anchor="middle" fill="#333" x="760" y="201">13-04</text><g transform="translate(725,221)"><g><a target="_top" xlink:href="dtp-sliceTagChecking1042-step2628000-ofs0-col9-cat0.html"><rect style="display:none" class="hcell-act-col9-cat0" fill="#777" stroke="#000" stroke-width="5" width="70" height="106" x="0" y="5" rx="8" ry="8"/><rect class="hcell-col9-cat0" fill="#777" stroke="#DDD" width="70" height="116" x="0" y="0" rx="8" ry="8"/><text text-anchor="middle" fill="#FFF" x="35" y="20">-3054</text></a></g></g></g><g><g transform="translate(805,171)"><g><a target="_top" xlink:href="dtp-sliceTagChecking1042-step2628000-ofs0-col10-cat0.html"><rect style="display:none" class="hcell-act-col10-cat0" fill="#777" stroke="#000" stroke-width="5" width="70" height="90" x="0" y="-95" rx="8" ry="8"/><rect class="hcell-col10-cat0" fill="#777" stroke="#DDD" width="70" height="100" x="0" y="-100" rx="8" ry="8"/><text text-anchor="middle" fill="#FFF" x="35" y="-80">2631</text></a></g></g><rect fill="none" stroke="#DDD" width="70" height="30" rx="8" ry="8" x="805" y="181"/><text text-anchor="middle" fill="#333" x="840" y="201">13-05</text><g transform="translate(805,221)"><g><a target="_top" xlink:href="dtp-sliceTagChecking1042-step2628000-ofs0-col10-cat0.html"><rect style="display:none" class="hcell-act-col10-cat0" fill="#777" stroke="#000" stroke-width="5" width="70" height="93" x="0" y="5" rx="8" ry="8"/><rect class="hcell-col10-cat0" fill="#777" stroke="#DDD" width="70" height="103" x="0" y="0" rx="8" ry="8"/><text text-anchor="middle" fill="#FFF" x="35" y="20">-2720</text></a></g></g></g><g><g transform="translate(885,171)"><g><a target="_top" xlink:href="dtp-sliceTagChecking1042-step2628000-ofs0-col11-cat0.html"><rect style="display:none" class="hcell-act-col11-cat0" fill="#777" stroke="#000" stroke-width="5" width="70" height="93" x="0" y="-98" rx="8" ry="8"/><rect class="hcell-col11-cat0" fill="#777" stroke="#DDD" width="70" height="103" x="0" y="-103" rx="8" ry="8"/><text text-anchor="middle" fill="#FFF" x="35" y="-83">2708</text></a></g></g><rect fill="none" stroke="#DDD" width="70" height="30" rx="8" ry="8" x="885" y="181"/><text text-anchor="middle" fill="#333" x="920" y="201">13-06</text><g transform="translate(885,221)"><g><a target="_top" xlink:href="dtp-sliceTagChecking1042-step2628000-ofs0-col11-cat0.html"><rect style="display:none" class="hcell-act-col11-cat0" fill="#777" stroke="#000" stroke-width="5" width="70" height="96" x="0" y="5" rx="8" ry="8"/><rect class="hcell-col11-cat0" fill="#777" stroke="#DDD" width="70" height="106" x="0" y="0" rx="8" ry="8"/><text text-anchor="middle" fill="#FFF" x="35" y="20">-2796</text></a></g></g></g><g><g transform="translate(965,171)"><g><a target="_top" xlink:href="dtp-sliceTagChecking1042-step2628000-ofs0-col12-cat0.html"><rect style="display:none" class="hcell-act-col12-cat0" fill="#777" stroke="#000" stroke-width="5" width="70" height="88" x="0" y="-93" rx="8" ry="8"/><rect class="hcell-col12-cat0" fill="#777" stroke="#DDD" width="70" height="98" x="0" y="-98" rx="8" ry="8"/><text text-anchor="middle" fill="#FFF" x="35" y="-78">2600</text></a></g></g><rect fill="none" stroke="#DDD" width="70" height="30" rx="8" ry="8" x="965" y="181"/><text text-anchor="middle" fill="#333" x="1000" y="201">13-07</text><g transform="translate(965,221)"><g><a target="_top" xlink:href="dtp-sliceTagChecking1042-step2628000-ofs0-col12-cat0.html"><rect style="display:none" class="hcell-act-col12-cat0" fill="#777" stroke="#000" stroke-width="5" width="70" height="223" x="0" y="5" rx="8" ry="8"/><rect class="hcell-col12-cat0" fill="#777" stroke="#DDD" width="70" height="233" x="0" y="0" rx="8" ry="8"/><text text-anchor="middle" fill="#FFF" x="35" y="20">-6135</text></a></g></g></g><g><g transform="translate(1045,171)"><g><a target="_top" xlink:href="dtp-sliceTagChecking1042-step2628000-ofs0-col13-cat0.html"><rect style="display:none" class="hcell-act-col13-cat0" fill="#777" stroke="#000" stroke-width="5" width="70" height="89" x="0" y="-94" rx="8" ry="8"/><rect class="hcell-col13-cat0" fill="#777" stroke="#DDD" width="70" height="99" x="0" y="-99" rx="8" ry="8"/><text text-anchor="middle" fill="#FFF" x="35" y="-79">2624</text></a></g></g><rect fill="none" stroke="#DDD" width="70" height="30" rx="8" ry="8" x="1045" y="181"/><text text-anchor="middle" fill="#333" x="1080" y="201">13-08</text><g transform="translate(1045,221)"><g><a target="_top" xlink:href="dtp-sliceTagChecking1042-step2628000-ofs0-col13-cat0.html"><rect style="display:none" class="hcell-act-col13-cat0" fill="#777" stroke="#000" stroke-width="5" width="70" height="51" x="0" y="5" rx="8" ry="8"/><rect class="hcell-col13-cat0" fill="#777" stroke="#DDD" width="70" height="61" x="0" y="0" rx="8" ry="8"/><text text-anchor="middle" fill="#FFF" x="35" y="20">-1620</text></a></g></g></g><g><g transform="translate(1125,171)"><g><a target="_top" xlink:href="dtp-sliceTagChecking1042-step2628000-ofs0-col14-cat0.html"><rect style="display:none" class="hcell-act-col14-cat0" fill="#777" stroke="#000" stroke-width="5" width="70" height="88" x="0" y="-93" rx="8" ry="8"/><rect class="hcell-col14-cat0" fill="#777" stroke="#DDD" width="70" height="98" x="0" y="-98" rx="8" ry="8"/><text text-anchor="middle" fill="#FFF" x="35" y="-78">2600</text></a></g></g><rect fill="none" stroke="#DDD" width="70" height="30" rx="8" ry="8" x="1125" y="181"/><text text-anchor="middle" fill="#333" x="1160" y="201">13-08</text><g transform="translate(1125,221)"><g><a target="_top" xlink:href="dtp-sliceTagChecking1042-step2628000-ofs0-col14-cat0.html"><rect style="display:none" class="hcell-act-col14-cat0" fill="#777" stroke="#000" stroke-width="5" width="70" height="50" x="0" y="5" rx="8" ry="8"/><rect class="hcell-col14-cat0" fill="#777" stroke="#DDD" width="70" height="60" x="0" y="0" rx="8" ry="8"/><text text-anchor="middle" fill="#FFF" x="35" y="20">-1601</text></a></g></g></g><g><g transform="translate(1205,171)"><g><a target="_top" xlink:href="dtp-sliceTagChecking1042-step2628000-ofs0-col15-cat0.html"><rect style="display:none" class="hcell-act-col15-cat0" fill="#777" stroke="#000" stroke-width="5" width="70" height="93" x="0" y="-98" rx="8" ry="8"/><rect class="hcell-col15-cat0" fill="#777" stroke="#DDD" width="70" height="103" x="0" y="-103" rx="8" ry="8"/><text text-anchor="middle" fill="#FFF" x="35" y="-83">2711</text></a></g></g><rect fill="none" stroke="#DDD" width="70" height="30" rx="8" ry="8" x="1205" y="181"/><text text-anchor="middle" fill="#333" x="1240" y="201">13-10</text><g transform="translate(1205,221)"><g><a target="_top" xlink:href="dtp-sliceTagChecking1042-step2628000-ofs0-col15-cat0.html"><rect style="display:none" class="hcell-act-col15-cat0" fill="#777" stroke="#000" stroke-width="5" width="70" height="51" x="0" y="5" rx="8" ry="8"/><rect class="hcell-col15-cat0" fill="#777" stroke="#DDD" width="70" height="61" x="0" y="0" rx="8" ry="8"/><text text-anchor="middle" fill="#FFF" x="35" y="20">-1610</text></a></g></g></g></svg>