<svg xmlns="http://www.w3.org/2000/svg" xmlns:xlink="http://www.w3.org/1999/xlink" width="100%" height="100%" viewBox="0 0 1280 482"><g><g transform="translate(5,427)"></g><rect fill="none" stroke="#DDD" width="70" height="30" rx="8" ry="8" x="5" y="437"/><text text-anchor="middle" fill="#333" x="40" y="457">12-07</text><g transform="translate(5,477)"></g></g><g><g transform="translate(85,427)"></g><rect fill="none" stroke="#DDD" width="70" height="30" rx="8" ry="8" x="85" y="437"/><text text-anchor="middle" fill="#333" x="120" y="457">12-09</text><g transform="translate(85,477)"></g></g><g><g transform="translate(165,427)"></g><rect fill="none" stroke="#DDD" width="70" height="30" rx="8" ry="8" x="165" y="437"/><text text-anchor="middle" fill="#333" x="200" y="457">12-11</text><g transform="translate(165,477)"></g></g><g><g transform="translate(245,427)"></g><rect fill="none" stroke="#DDD" width="70" height="30" rx="8" ry="8" x="245" y="437"/><text text-anchor="middle" fill="#333" x="280" y="457">13-01</text><g transform="translate(245,477)"></g></g><g><g transform="translate(325,427)"><g><a target="_top" xlink:href="dtp-slice2-step5605201-ofs0-col4-cat0.html"><rect style="display:none" class="hcell-act-col4-cat0" fill="#5CB85C" stroke="#000" stroke-width="5" width="70" height="20" x="0" y="-25" rx="8" ry="8"/><rect class="hcell-col4-cat0" fill="#5CB85C" stroke="#DDD" width="70" height="30" x="0" y="-30" rx="8" ry="8"/><text text-anchor="middle" fill="#FFF" x="35" y="-10">63</text></a></g></g><rect fill="none" stroke="#DDD" width="70" height="30" rx="8" ry="8" x="325" y="437"/><text text-anchor="middle" fill="#333" x="360" y="457">13-03</text><g transform="translate(325,477)"></g></g><g><g transform="translate(405,427)"><g><a target="_top" xlink:href="dtp-slice2-step5605201-ofs0-col5-cat3.html"><rect style="display:none" class="hcell-act-col5-cat3" fill="#F0AD4E" stroke="#000" stroke-width="5" width="70" height="357" x="0" y="-362" rx="8" ry="8"/><rect class="hcell-col5-cat3" fill="#F0AD4E" stroke="#DDD" width="70" height="367" x="0" y="-367" rx="8" ry="8"/><text text-anchor="middle" fill="#FFF" x="35" y="-347">1530</text></a></g></g><rect fill="none" stroke="#DDD" width="70" height="30" rx="8" ry="8" x="405" y="437"/><text text-anchor="middle" fill="#333" x="440" y="457">13-05</text><g transform="translate(405,477)"></g></g><g><g transform="translate(485,427)"><g><a target="_top" xlink:href="dtp-slice2-step5605201-ofs0-col6-cat0.html"><rect style="display:none" class="hcell-act-col6-cat0" fill="#5CB85C" stroke="#000" stroke-width="5" width="70" height="20" x="0" y="-25" rx="8" ry="8"/><rect class="hcell-col6-cat0" fill="#5CB85C" stroke="#DDD" width="70" height="30" x="0" y="-30" rx="8" ry="8"/><text text-anchor="middle" fill="#FFF" x="35" y="-10">81</text></a></g></g><rect fill="none" stroke="#DDD" width="70" height="30" rx="8" ry="8" x="485" y="437"/><text text-anchor="middle" fill="#333" x="520" y="457">13-07</text><g transform="translate(485,477)"></g></g><g><g transform="translate(565,427)"><g><a target="_top" xlink:href="dtp-slice2-step5605201-ofs0-col7-cat2.html"><rect style="display:none" class="hcell-act-col7-cat2" fill="#337AB7" stroke="#000" stroke-width="5" width="70" height="20" x="0" y="-25" rx="8" ry="8"/><rect class="hcell-col7-cat2" fill="#337AB7" stroke="#DDD" width="70" height="30" x="0" y="-30" rx="8" ry="8"/><text text-anchor="middle" fill="#FFF" x="35" y="-10">10</text></a><g transform="translate(0,-30)"><g><a target="_top" xlink:href="dtp-slice2-step5605201-ofs0-col7-cat0.html"><rect style="display:none" class="hcell-act-col7-cat0" fill="#5CB85C" stroke="#000" stroke-width="5" width="70" height="20" x="0" y="-25" rx="8" ry="8"/><rect class="hcell-col7-cat0" fill="#5CB85C" stroke="#DDD" width="70" height="30" x="0" y="-30" rx="8" ry="8"/><text text-anchor="middle" fill="#FFF" x="35" y="-10">38</text></a><g transform="translate(0,-30)"><g><a target="_top" xlink:href="dtp-slice2-step5605201-ofs0-col7-cat3.html"><rect style="display:none" class="hcell-act-col7-cat3" fill="#F0AD4E" stroke="#000" stroke-width="5" width="70" height="75" x="0" y="-80" rx="8" ry="8"/><rect class="hcell-col7-cat3" fill="#F0AD4E" stroke="#DDD" width="70" height="85" x="0" y="-85" rx="8" ry="8"/><text text-anchor="middle" fill="#FFF" x="35" y="-65">354</text></a><g transform="translate(0,-85)"><g><a target="_top" xlink:href="dtp-slice2-step5605201-ofs0-col7-cat1.html"><rect style="display:none" class="hcell-act-col7-cat1" fill="#5BC0DE" stroke="#000" stroke-width="5" width="70" height="77" x="0" y="-82" rx="8" ry="8"/><rect class="hcell-col7-cat1" fill="#5BC0DE" stroke="#DDD" width="70" height="87" x="0" y="-87" rx="8" ry="8"/><text text-anchor="middle" fill="#FFF" x="35" y="-67">364</text></a></g></g></g></g></g></g></g></g><rect fill="none" stroke="#DDD" width="70" height="30" rx="8" ry="8" x="565" y="437"/><text text-anchor="middle" fill="#333" x="600" y="457">13-09</text><g transform="translate(565,477)"></g></g><g><g transform="translate(645,427)"><g><a target="_top" xlink:href="dtp-slice2-step5605201-ofs0-col8-cat0.html"><rect style="display:none" class="hcell-act-col8-cat0" fill="#5CB85C" stroke="#000" stroke-width="5" width="70" height="20" x="0" y="-25" rx="8" ry="8"/><rect class="hcell-col8-cat0" fill="#5CB85C" stroke="#DDD" width="70" height="30" x="0" y="-30" rx="8" ry="8"/><text text-anchor="middle" fill="#FFF" x="35" y="-10">72</text></a></g></g><rect fill="none" stroke="#DDD" width="70" height="30" rx="8" ry="8" x="645" y="437"/><text text-anchor="middle" fill="#333" x="680" y="457">13-12</text><g transform="translate(645,477)"></g></g><g><g transform="translate(725,427)"><g><a target="_top" xlink:href="dtp-slice2-step5605201-ofs0-col9-cat0.html"><rect style="display:none" class="hcell-act-col9-cat0" fill="#5CB85C" stroke="#000" stroke-width="5" width="70" height="20" x="0" y="-25" rx="8" ry="8"/><rect class="hcell-col9-cat0" fill="#5CB85C" stroke="#DDD" width="70" height="30" x="0" y="-30" rx="8" ry="8"/><text text-anchor="middle" fill="#FFF" x="35" y="-10">25</text></a><g transform="translate(0,-30)"><g><a target="_top" xlink:href="dtp-slice2-step5605201-ofs0-col9-cat1.html"><rect style="display:none" class="hcell-act-col9-cat1" fill="#5BC0DE" stroke="#000" stroke-width="5" width="70" height="157" x="0" y="-162" rx="8" ry="8"/><rect class="hcell-col9-cat1" fill="#5BC0DE" stroke="#DDD" width="70" height="167" x="0" y="-167" rx="8" ry="8"/><text text-anchor="middle" fill="#FFF" x="35" y="-147">697</text></a></g></g></g></g><rect fill="none" stroke="#DDD" width="70" height="30" rx="8" ry="8" x="725" y="437"/><text text-anchor="middle" fill="#333" x="760" y="457">14-02</text><g transform="translate(725,477)"></g></g><g><g transform="translate(805,427)"><g><a target="_top" xlink:href="dtp-slice2-step5605201-ofs0-col10-cat1.html"><rect style="display:none" class="hcell-act-col10-cat1" fill="#5BC0DE" stroke="#000" stroke-width="5" width="70" height="20" x="0" y="-25" rx="8" ry="8"/><rect class="hcell-col10-cat1" fill="#5BC0DE" stroke="#DDD" width="70" height="30" x="0" y="-30" rx="8" ry="8"/><text text-anchor="middle" fill="#FFF" x="35" y="-10">25</text></a><g transform="translate(0,-30)"><g><a target="_top" xlink:href="dtp-slice2-step5605201-ofs0-col10-cat0.html"><rect style="display:none" class="hcell-act-col10-cat0" fill="#5CB85C" stroke="#000" stroke-width="5" width="70" height="20" x="0" y="-25" rx="8" ry="8"/><rect class="hcell-col10-cat0" fill="#5CB85C" stroke="#DDD" width="70" height="30" x="0" y="-30" rx="8" ry="8"/><text text-anchor="middle" fill="#FFF" x="35" y="-10">81</text></a><g transform="translate(0,-30)"><g><a target="_top" xlink:href="dtp-slice2-step5605201-ofs0-col10-cat3.html"><rect style="display:none" class="hcell-act-col10-cat3" fill="#F0AD4E" stroke="#000" stroke-width="5" width="70" height="91" x="0" y="-96" rx="8" ry="8"/><rect class="hcell-col10-cat3" fill="#F0AD4E" stroke="#DDD" width="70" height="101" x="0" y="-101" rx="8" ry="8"/><text text-anchor="middle" fill="#FFF" x="35" y="-81">424</text></a></g></g></g></g></g></g><rect fill="none" stroke="#DDD" width="70" height="30" rx="8" ry="8" x="805" y="437"/><text text-anchor="middle" fill="#333" x="840" y="457">14-04</text><g transform="translate(805,477)"></g></g><g><g transform="translate(885,427)"><g><a target="_top" xlink:href="dtp-slice2-step5605201-ofs0-col11-cat2.html"><rect style="display:none" class="hcell-act-col11-cat2" fill="#337AB7" stroke="#000" stroke-width="5" width="70" height="20" x="0" y="-25" rx="8" ry="8"/><rect class="hcell-col11-cat2" fill="#337AB7" stroke="#DDD" width="70" height="30" x="0" y="-30" rx="8" ry="8"/><text text-anchor="middle" fill="#FFF" x="35" y="-10">10</text></a><g transform="translate(0,-30)"><g><a target="_top" xlink:href="dtp-slice2-step5605201-ofs0-col11-cat0.html"><rect style="display:none" class="hcell-act-col11-cat0" fill="#5CB85C" stroke="#000" stroke-width="5" width="70" height="20" x="0" y="-25" rx="8" ry="8"/><rect class="hcell-col11-cat0" fill="#5CB85C" stroke="#DDD" width="70" height="30" x="0" y="-30" rx="8" ry="8"/><text text-anchor="middle" fill="#FFF" x="35" y="-10">62</text></a><g transform="translate(0,-30)"><g><a target="_top" xlink:href="dtp-slice2-step5605201-ofs0-col11-cat1.html"><rect style="display:none" class="hcell-act-col11-cat1" fill="#5BC0DE" stroke="#000" stroke-width="5" width="70" height="20" x="0" y="-25" rx="8" ry="8"/><rect class="hcell-col11-cat1" fill="#5BC0DE" stroke="#DDD" width="70" height="30" x="0" y="-30" rx="8" ry="8"/><text text-anchor="middle" fill="#FFF" x="35" y="-10">74</text></a></g></g></g></g></g></g><rect fill="none" stroke="#DDD" width="70" height="30" rx="8" ry="8" x="885" y="437"/><text text-anchor="middle" fill="#333" x="920" y="457">14-06</text><g transform="translate(885,477)"></g></g><g><g transform="translate(965,427)"><g><a target="_top" xlink:href="dtp-slice2-step5605201-ofs0-col12-cat0.html"><rect style="display:none" class="hcell-act-col12-cat0" fill="#5CB85C" stroke="#000" stroke-width="5" width="70" height="20" x="0" y="-25" rx="8" ry="8"/><rect class="hcell-col12-cat0" fill="#5CB85C" stroke="#DDD" width="70" height="30" x="0" y="-30" rx="8" ry="8"/><text text-anchor="middle" fill="#FFF" x="35" y="-10">30</text></a><g transform="translate(0,-30)"><g><a target="_top" xlink:href="dtp-slice2-step5605201-ofs0-col12-cat3.html"><rect style="display:none" class="hcell-act-col12-cat3" fill="#F0AD4E" stroke="#000" stroke-width="5" width="70" height="382" x="0" y="-387" rx="8" ry="8"/><rect class="hcell-col12-cat3" fill="#F0AD4E" stroke="#DDD" width="70" height="392" x="0" y="-392" rx="8" ry="8"/><text text-anchor="middle" fill="#FFF" x="35" y="-372">1635</text></a></g></g></g></g><rect fill="none" stroke="#DDD" width="70" height="30" rx="8" ry="8" x="965" y="437"/><text text-anchor="middle" fill="#333" x="1000" y="457">14-08</text><g transform="translate(965,477)"></g></g><g><g transform="translate(1045,427)"><g><a target="_top" xlink:href="dtp-slice2-step5605201-ofs0-col13-cat2.html"><rect style="display:none" class="hcell-act-col13-cat2" fill="#337AB7" stroke="#000" stroke-width="5" width="70" height="20" x="0" y="-25" rx="8" ry="8"/><rect class="hcell-col13-cat2" fill="#337AB7" stroke="#DDD" width="70" height="30" x="0" y="-30" rx="8" ry="8"/><text text-anchor="middle" fill="#FFF" x="35" y="-10">30</text></a><g transform="translate(0,-30)"><g><a target="_top" xlink:href="dtp-slice2-step5605201-ofs0-col13-cat0.html"><rect style="display:none" class="hcell-act-col13-cat0" fill="#5CB85C" stroke="#000" stroke-width="5" width="70" height="20" x="0" y="-25" rx="8" ry="8"/><rect class="hcell-col13-cat0" fill="#5CB85C" stroke="#DDD" width="70" height="30" x="0" y="-30" rx="8" ry="8"/><text text-anchor="middle" fill="#FFF" x="35" y="-10">31</text></a><g transform="translate(0,-30)"><g><a target="_top" xlink:href="dtp-slice2-step5605201-ofs0-col13-cat1.html"><rect style="display:none" class="hcell-act-col13-cat1" fill="#5BC0DE" stroke="#000" stroke-width="5" width="70" height="20" x="0" y="-25" rx="8" ry="8"/><rect class="hcell-col13-cat1" fill="#5BC0DE" stroke="#DDD" width="70" height="30" x="0" y="-30" rx="8" ry="8"/><text text-anchor="middle" fill="#FFF" x="35" y="-10">44</text></a><g transform="translate(0,-30)"><g><a target="_top" xlink:href="dtp-slice2-step5605201-ofs0-col13-cat3.html"><rect style="display:none" class="hcell-act-col13-cat3" fill="#F0AD4E" stroke="#000" stroke-width="5" width="70" height="199" x="0" y="-204" rx="8" ry="8"/><rect class="hcell-col13-cat3" fill="#F0AD4E" stroke="#DDD" width="70" height="209" x="0" y="-209" rx="8" ry="8"/><text text-anchor="middle" fill="#FFF" x="35" y="-189">873</text></a></g></g></g></g></g></g></g></g><rect fill="none" stroke="#DDD" width="70" height="30" rx="8" ry="8" x="1045" y="437"/><text text-anchor="middle" fill="#333" x="1080" y="457">14-10</text><g transform="translate(1045,477)"></g></g><g><g transform="translate(1125,427)"><g><a target="_top" xlink:href="dtp-slice2-step5605201-ofs0-col14-cat0.html"><rect style="display:none" class="hcell-act-col14-cat0" fill="#5CB85C" stroke="#000" stroke-width="5" width="70" height="20" x="0" y="-25" rx="8" ry="8"/><rect class="hcell-col14-cat0" fill="#5CB85C" stroke="#DDD" width="70" height="30" x="0" y="-30" rx="8" ry="8"/><text text-anchor="middle" fill="#FFF" x="35" y="-10">29</text></a><g transform="translate(0,-30)"><g><a target="_top" xlink:href="dtp-slice2-step5605201-ofs0-col14-cat1.html"><rect style="display:none" class="hcell-act-col14-cat1" fill="#5BC0DE" stroke="#000" stroke-width="5" width="70" height="20" x="0" y="-25" rx="8" ry="8"/><rect class="hcell-col14-cat1" fill="#5BC0DE" stroke="#DDD" width="70" height="30" x="0" y="-30" rx="8" ry="8"/><text text-anchor="middle" fill="#FFF" x="35" y="-10">69</text></a></g></g></g></g><rect fill="none" stroke="#DDD" width="70" height="30" rx="8" ry="8" x="1125" y="437"/><text text-anchor="middle" fill="#333" x="1160" y="457">14-12</text><g transform="translate(1125,477)"></g></g><g><g transform="translate(1205,427)"><g><a target="_top" xlink:href="dtp-slice2-step5605201-ofs0-col15-cat0.html"><rect style="display:none" class="hcell-act-col15-cat0" fill="#5CB85C" stroke="#000" stroke-width="5" width="70" height="20" x="0" y="-25" rx="8" ry="8"/><rect class="hcell-col15-cat0" fill="#5CB85C" stroke="#DDD" width="70" height="30" x="0" y="-30" rx="8" ry="8"/><text text-anchor="middle" fill="#FFF" x="35" y="-10">91</text></a><g transform="translate(0,-30)"><g><a target="_top" xlink:href="dtp-slice2-step5605201-ofs0-col15-cat1.html"><rect style="display:none" class="hcell-act-col15-cat1" fill="#5BC0DE" stroke="#000" stroke-width="5" width="70" height="106" x="0" y="-111" rx="8" ry="8"/><rect class="hcell-col15-cat1" fill="#5BC0DE" stroke="#DDD" width="70" height="116" x="0" y="-116" rx="8" ry="8"/><text text-anchor="middle" fill="#FFF" x="35" y="-96">486</text></a></g></g></g></g><rect fill="none" stroke="#DDD" width="70" height="30" rx="8" ry="8" x="1205" y="437"/><text text-anchor="middle" fill="#333" x="1240" y="457">15-03</text><g transform="translate(1205,477)"></g></g></svg>