<svg xmlns="http://www.w3.org/2000/svg" xmlns:xlink="http://www.w3.org/1999/xlink" width="100%" height="100%" viewBox="0 0 1280 459"><g><g transform="translate(5,180)"><g><a target="_top" xlink:href="dtp-sliceTagChecking1042-step2628000-ofs19-col19-cat0.html"><rect style="display:none" class="hcell-act-col19-cat0" fill="#777" stroke="#000" stroke-width="5" width="70" height="108" x="0" y="-113" rx="8" ry="8"/><rect class="hcell-col19-cat0" fill="#777" stroke="#DDD" width="70" height="118" x="0" y="-118" rx="8" ry="8"/><text text-anchor="middle" fill="#FFF" x="35" y="-98">3127</text></a></g></g><rect fill="none" stroke="#DDD" width="70" height="30" rx="8" ry="8" x="5" y="190"/><text text-anchor="middle" fill="#333" x="40" y="210">14-01</text><g transform="translate(5,230)"><g><a target="_top" xlink:href="dtp-sliceTagChecking1042-step2628000-ofs19-col19-cat0.html"><rect style="display:none" class="hcell-act-col19-cat0" fill="#777" stroke="#000" stroke-width="5" width="70" height="113" x="0" y="5" rx="8" ry="8"/><rect class="hcell-col19-cat0" fill="#777" stroke="#DDD" width="70" height="123" x="0" y="0" rx="8" ry="8"/><text text-anchor="middle" fill="#FFF" x="35" y="20">-3244</text></a></g></g></g><g><g transform="translate(85,180)"><g><a target="_top" xlink:href="dtp-sliceTagChecking1042-step2628000-ofs19-col20-cat0.html"><rect style="display:none" class="hcell-act-col20-cat0" fill="#777" stroke="#000" stroke-width="5" width="70" height="127" x="0" y="-132" rx="8" ry="8"/><rect class="hcell-col20-cat0" fill="#777" stroke="#DDD" width="70" height="137" x="0" y="-137" rx="8" ry="8"/><text text-anchor="middle" fill="#FFF" x="35" y="-117">3626</text></a></g></g><rect fill="none" stroke="#DDD" width="70" height="30" rx="8" ry="8" x="85" y="190"/><text text-anchor="middle" fill="#333" x="120" y="210">14-03</text><g transform="translate(85,230)"><g><a target="_top" xlink:href="dtp-sliceTagChecking1042-step2628000-ofs19-col20-cat0.html"><rect style="display:none" class="hcell-act-col20-cat0" fill="#777" stroke="#000" stroke-width="5" width="70" height="115" x="0" y="5" rx="8" ry="8"/><rect class="hcell-col20-cat0" fill="#777" stroke="#DDD" width="70" height="125" x="0" y="0" rx="8" ry="8"/><text text-anchor="middle" fill="#FFF" x="35" y="20">-3304</text></a></g></g></g><g><g transform="translate(165,180)"><g><a target="_top" xlink:href="dtp-sliceTagChecking1042-step2628000-ofs19-col21-cat0.html"><rect style="display:none" class="hcell-act-col21-cat0" fill="#777" stroke="#000" stroke-width="5" width="70" height="88" x="0" y="-93" rx="8" ry="8"/><rect class="hcell-col21-cat0" fill="#777" stroke="#DDD" width="70" height="98" x="0" y="-98" rx="8" ry="8"/><text text-anchor="middle" fill="#FFF" x="35" y="-78">2600</text></a></g></g><rect fill="none" stroke="#DDD" width="70" height="30" rx="8" ry="8" x="165" y="190"/><text text-anchor="middle" fill="#333" x="200" y="210">14-04</text><g transform="translate(165,230)"><g><a target="_top" xlink:href="dtp-sliceTagChecking1042-step2628000-ofs19-col21-cat0.html"><rect style="display:none" class="hcell-act-col21-cat0" fill="#777" stroke="#000" stroke-width="5" width="70" height="117" x="0" y="5" rx="8" ry="8"/><rect class="hcell-col21-cat0" fill="#777" stroke="#DDD" width="70" height="127" x="0" y="0" rx="8" ry="8"/><text text-anchor="middle" fill="#FFF" x="35" y="20">-3360</text></a></g></g></g><g><g transform="translate(245,180)"><g><a target="_top" xlink:href="dtp-sliceTagChecking1042-step2628000-ofs19-col22-cat0.html"><rect style="display:none" class="hcell-act-col22-cat0" fill="#777" stroke="#000" stroke-width="5" width="70" height="93" x="0" y="-98" rx="8" ry="8"/><rect class="hcell-col22-cat0" fill="#777" stroke="#DDD" width="70" height="103" x="0" y="-103" rx="8" ry="8"/><text text-anchor="middle" fill="#FFF" x="35" y="-83">2719</text></a></g></g><rect fill="none" stroke="#DDD" width="70" height="30" rx="8" ry="8" x="245" y="190"/><text text-anchor="middle" fill="#333" x="280" y="210">14-05</text><g transform="translate(245,230)"><g><a target="_top" xlink:href="dtp-sliceTagChecking1042-step2628000-ofs19-col22-cat0.html"><rect style="display:none" class="hcell-act-col22-cat0" fill="#777" stroke="#000" stroke-width="5" width="70" height="51" x="0" y="5" rx="8" ry="8"/><rect class="hcell-col22-cat0" fill="#777" stroke="#DDD" width="70" height="61" x="0" y="0" rx="8" ry="8"/><text text-anchor="middle" fill="#FFF" x="35" y="20">-1622</text></a></g></g></g><g><g transform="translate(325,180)"><g><a target="_top" xlink:href="dtp-sliceTagChecking1042-step2628000-ofs19-col23-cat0.html"><rect style="display:none" class="hcell-act-col23-cat0" fill="#777" stroke="#000" stroke-width="5" width="70" height="88" x="0" y="-93" rx="8" ry="8"/><rect class="hcell-col23-cat0" fill="#777" stroke="#DDD" width="70" height="98" x="0" y="-98" rx="8" ry="8"/><text text-anchor="middle" fill="#FFF" x="35" y="-78">2600</text></a></g></g><rect fill="none" stroke="#DDD" width="70" height="30" rx="8" ry="8" x="325" y="190"/><text text-anchor="middle" fill="#333" x="360" y="210">14-06</text><g transform="translate(325,230)"><g><a target="_top" xlink:href="dtp-sliceTagChecking1042-step2628000-ofs19-col23-cat0.html"><rect style="display:none" class="hcell-act-col23-cat0" fill="#777" stroke="#000" stroke-width="5" width="70" height="87" x="0" y="5" rx="8" ry="8"/><rect class="hcell-col23-cat0" fill="#777" stroke="#DDD" width="70" height="97" x="0" y="0" rx="8" ry="8"/><text text-anchor="middle" fill="#FFF" x="35" y="20">-2563</text></a></g></g></g><g><g transform="translate(405,180)"><g><a target="_top" xlink:href="dtp-sliceTagChecking1042-step2628000-ofs19-col24-cat0.html"><rect style="display:none" class="hcell-act-col24-cat0" fill="#777" stroke="#000" stroke-width="5" width="70" height="88" x="0" y="-93" rx="8" ry="8"/><rect class="hcell-col24-cat0" fill="#777" stroke="#DDD" width="70" height="98" x="0" y="-98" rx="8" ry="8"/><text text-anchor="middle" fill="#FFF" x="35" y="-78">2600</text></a></g></g><rect fill="none" stroke="#DDD" width="70" height="30" rx="8" ry="8" x="405" y="190"/><text text-anchor="middle" fill="#333" x="440" y="210">14-07</text><g transform="translate(405,230)"><g><a target="_top" xlink:href="dtp-sliceTagChecking1042-step2628000-ofs19-col24-cat0.html"><rect style="display:none" class="hcell-act-col24-cat0" fill="#777" stroke="#000" stroke-width="5" width="70" height="49" x="0" y="5" rx="8" ry="8"/><rect class="hcell-col24-cat0" fill="#777" stroke="#DDD" width="70" height="59" x="0" y="0" rx="8" ry="8"/><text text-anchor="middle" fill="#FFF" x="35" y="20">-1576</text></a></g></g></g><g><g transform="translate(485,180)"><g><a target="_top" xlink:href="dtp-sliceTagChecking1042-step2628000-ofs19-col25-cat0.html"><rect style="display:none" class="hcell-act-col25-cat0" fill="#777" stroke="#000" stroke-width="5" width="70" height="165" x="0" y="-170" rx="8" ry="8"/><rect class="hcell-col25-cat0" fill="#777" stroke="#DDD" width="70" height="175" x="0" y="-175" rx="8" ry="8"/><text text-anchor="middle" fill="#FFF" x="35" y="-155">4634</text></a></g></g><rect fill="none" stroke="#DDD" width="70" height="30" rx="8" ry="8" x="485" y="190"/><text text-anchor="middle" fill="#333" x="520" y="210">14-08</text><g transform="translate(485,230)"><g><a target="_top" xlink:href="dtp-sliceTagChecking1042-step2628000-ofs19-col25-cat0.html"><rect style="display:none" class="hcell-act-col25-cat0" fill="#777" stroke="#000" stroke-width="5" width="70" height="155" x="0" y="5" rx="8" ry="8"/><rect class="hcell-col25-cat0" fill="#777" stroke="#DDD" width="70" height="165" x="0" y="0" rx="8" ry="8"/><text text-anchor="middle" fill="#FFF" x="35" y="20">-4371</text></a></g></g></g><g><g transform="translate(565,180)"><g><a target="_top" xlink:href="dtp-sliceTagChecking1042-step2628000-ofs19-col26-cat0.html"><rect style="display:none" class="hcell-act-col26-cat0" fill="#777" stroke="#000" stroke-width="5" width="70" height="88" x="0" y="-93" rx="8" ry="8"/><rect class="hcell-col26-cat0" fill="#777" stroke="#DDD" width="70" height="98" x="0" y="-98" rx="8" ry="8"/><text text-anchor="middle" fill="#FFF" x="35" y="-78">2600</text></a></g></g><rect fill="none" stroke="#DDD" width="70" height="30" rx="8" ry="8" x="565" y="190"/><text text-anchor="middle" fill="#333" x="600" y="210">14-08</text><g transform="translate(565,230)"><g><a target="_top" xlink:href="dtp-sliceTagChecking1042-step2628000-ofs19-col26-cat0.html"><rect style="display:none" class="hcell-act-col26-cat0" fill="#777" stroke="#000" stroke-width="5" width="70" height="214" x="0" y="5" rx="8" ry="8"/><rect class="hcell-col26-cat0" fill="#777" stroke="#DDD" width="70" height="224" x="0" y="0" rx="8" ry="8"/><text text-anchor="middle" fill="#FFF" x="35" y="20">-5901</text></a></g></g></g><g><g transform="translate(645,180)"><g><a target="_top" xlink:href="dtp-sliceTagChecking1042-step2628000-ofs19-col27-cat0.html"><rect style="display:none" class="hcell-act-col27-cat0" fill="#777" stroke="#000" stroke-width="5" width="70" height="147" x="0" y="-152" rx="8" ry="8"/><rect class="hcell-col27-cat0" fill="#777" stroke="#DDD" width="70" height="157" x="0" y="-157" rx="8" ry="8"/><text text-anchor="middle" fill="#FFF" x="35" y="-137">4145</text></a></g></g><rect fill="none" stroke="#DDD" width="70" height="30" rx="8" ry="8" x="645" y="190"/><text text-anchor="middle" fill="#333" x="680" y="210">14-10</text><g transform="translate(645,230)"><g><a target="_top" xlink:href="dtp-sliceTagChecking1042-step2628000-ofs19-col27-cat0.html"><rect style="display:none" class="hcell-act-col27-cat0" fill="#777" stroke="#000" stroke-width="5" width="70" height="51" x="0" y="5" rx="8" ry="8"/><rect class="hcell-col27-cat0" fill="#777" stroke="#DDD" width="70" height="61" x="0" y="0" rx="8" ry="8"/><text text-anchor="middle" fill="#FFF" x="35" y="20">-1609</text></a></g></g></g><g><g transform="translate(725,180)"><g><a target="_top" xlink:href="dtp-sliceTagChecking1042-step2628000-ofs19-col28-cat0.html"><rect style="display:none" class="hcell-act-col28-cat0" fill="#777" stroke="#000" stroke-width="5" width="70" height="88" x="0" y="-93" rx="8" ry="8"/><rect class="hcell-col28-cat0" fill="#777" stroke="#DDD" width="70" height="98" x="0" y="-98" rx="8" ry="8"/><text text-anchor="middle" fill="#FFF" x="35" y="-78">2600</text></a></g></g><rect fill="none" stroke="#DDD" width="70" height="30" rx="8" ry="8" x="725" y="190"/><text text-anchor="middle" fill="#333" x="760" y="210">14-10</text><g transform="translate(725,230)"><g><a target="_top" xlink:href="dtp-sliceTagChecking1042-step2628000-ofs19-col28-cat0.html"><rect style="display:none" class="hcell-act-col28-cat0" fill="#777" stroke="#000" stroke-width="5" width="70" height="89" x="0" y="5" rx="8" ry="8"/><rect class="hcell-col28-cat0" fill="#777" stroke="#DDD" width="70" height="99" x="0" y="0" rx="8" ry="8"/><text text-anchor="middle" fill="#FFF" x="35" y="20">-2624</text></a></g></g></g><g><g transform="translate(805,180)"><g><a target="_top" xlink:href="dtp-sliceTagChecking1042-step2628000-ofs19-col29-cat0.html"><rect style="display:none" class="hcell-act-col29-cat0" fill="#777" stroke="#000" stroke-width="5" width="70" height="95" x="0" y="-100" rx="8" ry="8"/><rect class="hcell-col29-cat0" fill="#777" stroke="#DDD" width="70" height="105" x="0" y="-105" rx="8" ry="8"/><text text-anchor="middle" fill="#FFF" x="35" y="-85">2782</text></a></g></g><rect fill="none" stroke="#DDD" width="70" height="30" rx="8" ry="8" x="805" y="190"/><text text-anchor="middle" fill="#333" x="840" y="210">14-12</text><g transform="translate(805,230)"><g><a target="_top" xlink:href="dtp-sliceTagChecking1042-step2628000-ofs19-col29-cat0.html"><rect style="display:none" class="hcell-act-col29-cat0" fill="#777" stroke="#000" stroke-width="5" width="70" height="110" x="0" y="5" rx="8" ry="8"/><rect class="hcell-col29-cat0" fill="#777" stroke="#DDD" width="70" height="120" x="0" y="0" rx="8" ry="8"/><text text-anchor="middle" fill="#FFF" x="35" y="20">-3176</text></a></g></g></g><g><g transform="translate(885,180)"><g><a target="_top" xlink:href="dtp-sliceTagChecking1042-step2628000-ofs19-col30-cat0.html"><rect style="display:none" class="hcell-act-col30-cat0" fill="#777" stroke="#000" stroke-width="5" width="70" height="91" x="0" y="-96" rx="8" ry="8"/><rect class="hcell-col30-cat0" fill="#777" stroke="#DDD" width="70" height="101" x="0" y="-101" rx="8" ry="8"/><text text-anchor="middle" fill="#FFF" x="35" y="-81">2677</text></a></g></g><rect fill="none" stroke="#DDD" width="70" height="30" rx="8" ry="8" x="885" y="190"/><text text-anchor="middle" fill="#333" x="920" y="210">14-12</text><g transform="translate(885,230)"><g><a target="_top" xlink:href="dtp-sliceTagChecking1042-step2628000-ofs19-col30-cat0.html"><rect style="display:none" class="hcell-act-col30-cat0" fill="#777" stroke="#000" stroke-width="5" width="70" height="128" x="0" y="5" rx="8" ry="8"/><rect class="hcell-col30-cat0" fill="#777" stroke="#DDD" width="70" height="138" x="0" y="0" rx="8" ry="8"/><text text-anchor="middle" fill="#FFF" x="35" y="20">-3646</text></a></g></g></g><g><g transform="translate(965,180)"><g><a target="_top" xlink:href="dtp-sliceTagChecking1042-step2628000-ofs19-col31-cat0.html"><rect style="display:none" class="hcell-act-col31-cat0" fill="#777" stroke="#000" stroke-width="5" width="70" height="88" x="0" y="-93" rx="8" ry="8"/><rect class="hcell-col31-cat0" fill="#777" stroke="#DDD" width="70" height="98" x="0" y="-98" rx="8" ry="8"/><text text-anchor="middle" fill="#FFF" x="35" y="-78">2600</text></a></g></g><rect fill="none" stroke="#DDD" width="70" height="30" rx="8" ry="8" x="965" y="190"/><text text-anchor="middle" fill="#333" x="1000" y="210">15-01</text><g transform="translate(965,230)"><g><a target="_top" xlink:href="dtp-sliceTagChecking1042-step2628000-ofs19-col31-cat0.html"><rect style="display:none" class="hcell-act-col31-cat0" fill="#777" stroke="#000" stroke-width="5" width="70" height="172" x="0" y="5" rx="8" ry="8"/><rect class="hcell-col31-cat0" fill="#777" stroke="#DDD" width="70" height="182" x="0" y="0" rx="8" ry="8"/><text text-anchor="middle" fill="#FFF" x="35" y="20">-4796</text></a></g></g></g><g><g transform="translate(1045,180)"><g><a target="_top" xlink:href="dtp-sliceTagChecking1042-step2628000-ofs19-col32-cat0.html"><rect style="display:none" class="hcell-act-col32-cat0" fill="#777" stroke="#000" stroke-width="5" width="70" height="118" x="0" y="-123" rx="8" ry="8"/><rect class="hcell-col32-cat0" fill="#777" stroke="#DDD" width="70" height="128" x="0" y="-128" rx="8" ry="8"/><text text-anchor="middle" fill="#FFF" x="35" y="-108">3375</text></a></g></g><rect fill="none" stroke="#DDD" width="70" height="30" rx="8" ry="8" x="1045" y="190"/><text text-anchor="middle" fill="#333" x="1080" y="210">15-03</text><g transform="translate(1045,230)"><g><a target="_top" xlink:href="dtp-sliceTagChecking1042-step2628000-ofs19-col32-cat0.html"><rect style="display:none" class="hcell-act-col32-cat0" fill="#777" stroke="#000" stroke-width="5" width="70" height="137" x="0" y="5" rx="8" ry="8"/><rect class="hcell-col32-cat0" fill="#777" stroke="#DDD" width="70" height="147" x="0" y="0" rx="8" ry="8"/><text text-anchor="middle" fill="#FFF" x="35" y="20">-3897</text></a></g></g></g><g><g transform="translate(1125,180)"><g><a target="_top" xlink:href="dtp-sliceTagChecking1042-step2628000-ofs19-col33-cat0.html"><rect style="display:none" class="hcell-act-col33-cat0" fill="#777" stroke="#000" stroke-width="5" width="70" height="89" x="0" y="-94" rx="8" ry="8"/><rect class="hcell-col33-cat0" fill="#777" stroke="#DDD" width="70" height="99" x="0" y="-99" rx="8" ry="8"/><text text-anchor="middle" fill="#FFF" x="35" y="-79">2632</text></a></g></g><rect fill="none" stroke="#DDD" width="70" height="30" rx="8" ry="8" x="1125" y="190"/><text text-anchor="middle" fill="#333" x="1160" y="210">15-04</text><g transform="translate(1125,230)"><g><a target="_top" xlink:href="dtp-sliceTagChecking1042-step2628000-ofs19-col33-cat0.html"><rect style="display:none" class="hcell-act-col33-cat0" fill="#777" stroke="#000" stroke-width="5" width="70" height="178" x="0" y="5" rx="8" ry="8"/><rect class="hcell-col33-cat0" fill="#777" stroke="#DDD" width="70" height="188" x="0" y="0" rx="8" ry="8"/><text text-anchor="middle" fill="#FFF" x="35" y="20">-4963</text></a></g></g></g><g><g transform="translate(1205,180)"></g><rect fill="none" stroke="#DDD" width="70" height="30" rx="8" ry="8" x="1205" y="190"/><text text-anchor="middle" fill="#333" x="1240" y="210">15-05</text><g transform="translate(1205,230)"></g></g></svg>