<svg xmlns="http://www.w3.org/2000/svg" xmlns:xlink="http://www.w3.org/1999/xlink" width="100%" height="100%" viewBox="0 0 1280 460"><g><g transform="translate(5,205)"><g><a target="_top" xlink:href="dtp-sliceTagItchyBack-step5605201-ofs0-col0-cat0.html"><rect style="display:none" class="hcell-act-col0-cat0" fill="#777" stroke="#000" stroke-width="5" width="70" height="20" x="0" y="-25" rx="8" ry="8"/><rect class="hcell-col0-cat0" fill="#777" stroke="#DDD" width="70" height="30" x="0" y="-30" rx="8" ry="8"/><text text-anchor="middle" fill="#FFF" x="35" y="-10">21</text></a></g></g><rect fill="none" stroke="#DDD" width="70" height="30" rx="8" ry="8" x="5" y="215"/><text text-anchor="middle" fill="#333" x="40" y="235">12-07</text><g transform="translate(5,255)"><g><a target="_top" xlink:href="dtp-sliceTagItchyBack-step5605201-ofs0-col0-cat0.html"><rect style="display:none" class="hcell-act-col0-cat0" fill="#777" stroke="#000" stroke-width="5" width="70" height="20" x="0" y="5" rx="8" ry="8"/><rect class="hcell-col0-cat0" fill="#777" stroke="#DDD" width="70" height="30" x="0" y="0" rx="8" ry="8"/><text text-anchor="middle" fill="#FFF" x="35" y="20">-22</text></a></g></g></g><g><g transform="translate(85,205)"><g><a target="_top" xlink:href="dtp-sliceTagItchyBack-step5605201-ofs0-col1-cat0.html"><rect style="display:none" class="hcell-act-col1-cat0" fill="#777" stroke="#000" stroke-width="5" width="70" height="185" x="0" y="-190" rx="8" ry="8"/><rect class="hcell-col1-cat0" fill="#777" stroke="#DDD" width="70" height="195" x="0" y="-195" rx="8" ry="8"/><text text-anchor="middle" fill="#FFF" x="35" y="-175">211</text></a></g></g><rect fill="none" stroke="#DDD" width="70" height="30" rx="8" ry="8" x="85" y="215"/><text text-anchor="middle" fill="#333" x="120" y="235">12-09</text><g transform="translate(85,255)"><g><a target="_top" xlink:href="dtp-sliceTagItchyBack-step5605201-ofs0-col1-cat0.html"><rect style="display:none" class="hcell-act-col1-cat0" fill="#777" stroke="#000" stroke-width="5" width="70" height="185" x="0" y="5" rx="8" ry="8"/><rect class="hcell-col1-cat0" fill="#777" stroke="#DDD" width="70" height="195" x="0" y="0" rx="8" ry="8"/><text text-anchor="middle" fill="#FFF" x="35" y="20">-212</text></a></g></g></g><g><g transform="translate(165,205)"><g><a target="_top" xlink:href="dtp-sliceTagItchyBack-step5605201-ofs0-col2-cat0.html"><rect style="display:none" class="hcell-act-col2-cat0" fill="#777" stroke="#000" stroke-width="5" width="70" height="170" x="0" y="-175" rx="8" ry="8"/><rect class="hcell-col2-cat0" fill="#777" stroke="#DDD" width="70" height="180" x="0" y="-180" rx="8" ry="8"/><text text-anchor="middle" fill="#FFF" x="35" y="-160">195</text></a></g></g><rect fill="none" stroke="#DDD" width="70" height="30" rx="8" ry="8" x="165" y="215"/><text text-anchor="middle" fill="#333" x="200" y="235">12-11</text><g transform="translate(165,255)"><g><a target="_top" xlink:href="dtp-sliceTagItchyBack-step5605201-ofs0-col2-cat0.html"><rect style="display:none" class="hcell-act-col2-cat0" fill="#777" stroke="#000" stroke-width="5" width="70" height="170" x="0" y="5" rx="8" ry="8"/><rect class="hcell-col2-cat0" fill="#777" stroke="#DDD" width="70" height="180" x="0" y="0" rx="8" ry="8"/><text text-anchor="middle" fill="#FFF" x="35" y="20">-196</text></a></g></g></g><g><g transform="translate(245,205)"><g><a target="_top" xlink:href="dtp-sliceTagItchyBack-step5605201-ofs0-col3-cat0.html"><rect style="display:none" class="hcell-act-col3-cat0" fill="#777" stroke="#000" stroke-width="5" width="70" height="130" x="0" y="-135" rx="8" ry="8"/><rect class="hcell-col3-cat0" fill="#777" stroke="#DDD" width="70" height="140" x="0" y="-140" rx="8" ry="8"/><text text-anchor="middle" fill="#FFF" x="35" y="-120">152</text></a></g></g><rect fill="none" stroke="#DDD" width="70" height="30" rx="8" ry="8" x="245" y="215"/><text text-anchor="middle" fill="#333" x="280" y="235">13-01</text><g transform="translate(245,255)"><g><a target="_top" xlink:href="dtp-sliceTagItchyBack-step5605201-ofs0-col3-cat0.html"><rect style="display:none" class="hcell-act-col3-cat0" fill="#777" stroke="#000" stroke-width="5" width="70" height="130" x="0" y="5" rx="8" ry="8"/><rect class="hcell-col3-cat0" fill="#777" stroke="#DDD" width="70" height="140" x="0" y="0" rx="8" ry="8"/><text text-anchor="middle" fill="#FFF" x="35" y="20">-153</text></a></g></g></g><g><g transform="translate(325,205)"><g><a target="_top" xlink:href="dtp-sliceTagItchyBack-step5605201-ofs0-col4-cat0.html"><rect style="display:none" class="hcell-act-col4-cat0" fill="#777" stroke="#000" stroke-width="5" width="70" height="109" x="0" y="-114" rx="8" ry="8"/><rect class="hcell-col4-cat0" fill="#777" stroke="#DDD" width="70" height="119" x="0" y="-119" rx="8" ry="8"/><text text-anchor="middle" fill="#FFF" x="35" y="-99">129</text></a></g></g><rect fill="none" stroke="#DDD" width="70" height="30" rx="8" ry="8" x="325" y="215"/><text text-anchor="middle" fill="#333" x="360" y="235">13-03</text><g transform="translate(325,255)"><g><a target="_top" xlink:href="dtp-sliceTagItchyBack-step5605201-ofs0-col4-cat0.html"><rect style="display:none" class="hcell-act-col4-cat0" fill="#777" stroke="#000" stroke-width="5" width="70" height="109" x="0" y="5" rx="8" ry="8"/><rect class="hcell-col4-cat0" fill="#777" stroke="#DDD" width="70" height="119" x="0" y="0" rx="8" ry="8"/><text text-anchor="middle" fill="#FFF" x="35" y="20">-130</text></a></g></g></g><g><g transform="translate(405,205)"><g><a target="_top" xlink:href="dtp-sliceTagItchyBack-step5605201-ofs0-col5-cat0.html"><rect style="display:none" class="hcell-act-col5-cat0" fill="#777" stroke="#000" stroke-width="5" width="70" height="190" x="0" y="-195" rx="8" ry="8"/><rect class="hcell-col5-cat0" fill="#777" stroke="#DDD" width="70" height="200" x="0" y="-200" rx="8" ry="8"/><text text-anchor="middle" fill="#FFF" x="35" y="-180">216</text></a></g></g><rect fill="none" stroke="#DDD" width="70" height="30" rx="8" ry="8" x="405" y="215"/><text text-anchor="middle" fill="#333" x="440" y="235">13-05</text><g transform="translate(405,255)"><g><a target="_top" xlink:href="dtp-sliceTagItchyBack-step5605201-ofs0-col5-cat0.html"><rect style="display:none" class="hcell-act-col5-cat0" fill="#777" stroke="#000" stroke-width="5" width="70" height="190" x="0" y="5" rx="8" ry="8"/><rect class="hcell-col5-cat0" fill="#777" stroke="#DDD" width="70" height="200" x="0" y="0" rx="8" ry="8"/><text text-anchor="middle" fill="#FFF" x="35" y="20">-217</text></a></g></g></g><g><g transform="translate(485,205)"><g><a target="_top" xlink:href="dtp-sliceTagItchyBack-step5605201-ofs0-col6-cat0.html"><rect style="display:none" class="hcell-act-col6-cat0" fill="#777" stroke="#000" stroke-width="5" width="70" height="111" x="0" y="-116" rx="8" ry="8"/><rect class="hcell-col6-cat0" fill="#777" stroke="#DDD" width="70" height="121" x="0" y="-121" rx="8" ry="8"/><text text-anchor="middle" fill="#FFF" x="35" y="-101">131</text></a></g></g><rect fill="none" stroke="#DDD" width="70" height="30" rx="8" ry="8" x="485" y="215"/><text text-anchor="middle" fill="#333" x="520" y="235">13-07</text><g transform="translate(485,255)"><g><a target="_top" xlink:href="dtp-sliceTagItchyBack-step5605201-ofs0-col6-cat0.html"><rect style="display:none" class="hcell-act-col6-cat0" fill="#777" stroke="#000" stroke-width="5" width="70" height="111" x="0" y="5" rx="8" ry="8"/><rect class="hcell-col6-cat0" fill="#777" stroke="#DDD" width="70" height="121" x="0" y="0" rx="8" ry="8"/><text text-anchor="middle" fill="#FFF" x="35" y="20">-132</text></a></g></g></g><g><g transform="translate(565,205)"></g><rect fill="none" stroke="#DDD" width="70" height="30" rx="8" ry="8" x="565" y="215"/><text text-anchor="middle" fill="#333" x="600" y="235">13-09</text><g transform="translate(565,255)"></g></g><g><g transform="translate(645,205)"><g><a target="_top" xlink:href="dtp-sliceTagItchyBack-step5605201-ofs0-col8-cat0.html"><rect style="display:none" class="hcell-act-col8-cat0" fill="#777" stroke="#000" stroke-width="5" width="70" height="88" x="0" y="-93" rx="8" ry="8"/><rect class="hcell-col8-cat0" fill="#777" stroke="#DDD" width="70" height="98" x="0" y="-98" rx="8" ry="8"/><text text-anchor="middle" fill="#FFF" x="35" y="-78">106</text></a></g></g><rect fill="none" stroke="#DDD" width="70" height="30" rx="8" ry="8" x="645" y="215"/><text text-anchor="middle" fill="#333" x="680" y="235">13-12</text><g transform="translate(645,255)"><g><a target="_top" xlink:href="dtp-sliceTagItchyBack-step5605201-ofs0-col8-cat0.html"><rect style="display:none" class="hcell-act-col8-cat0" fill="#777" stroke="#000" stroke-width="5" width="70" height="88" x="0" y="5" rx="8" ry="8"/><rect class="hcell-col8-cat0" fill="#777" stroke="#DDD" width="70" height="98" x="0" y="0" rx="8" ry="8"/><text text-anchor="middle" fill="#FFF" x="35" y="20">-107</text></a></g></g></g><g><g transform="translate(725,205)"><g><a target="_top" xlink:href="dtp-sliceTagItchyBack-step5605201-ofs0-col9-cat0.html"><rect style="display:none" class="hcell-act-col9-cat0" fill="#777" stroke="#000" stroke-width="5" width="70" height="161" x="0" y="-166" rx="8" ry="8"/><rect class="hcell-col9-cat0" fill="#777" stroke="#DDD" width="70" height="171" x="0" y="-171" rx="8" ry="8"/><text text-anchor="middle" fill="#FFF" x="35" y="-151">185</text></a></g></g><rect fill="none" stroke="#DDD" width="70" height="30" rx="8" ry="8" x="725" y="215"/><text text-anchor="middle" fill="#333" x="760" y="235">14-02</text><g transform="translate(725,255)"><g><a target="_top" xlink:href="dtp-sliceTagItchyBack-step5605201-ofs0-col9-cat0.html"><rect style="display:none" class="hcell-act-col9-cat0" fill="#777" stroke="#000" stroke-width="5" width="70" height="161" x="0" y="5" rx="8" ry="8"/><rect class="hcell-col9-cat0" fill="#777" stroke="#DDD" width="70" height="171" x="0" y="0" rx="8" ry="8"/><text text-anchor="middle" fill="#FFF" x="35" y="20">-186</text></a></g></g></g><g><g transform="translate(805,205)"><g><a target="_top" xlink:href="dtp-sliceTagItchyBack-step5605201-ofs0-col10-cat0.html"><rect style="display:none" class="hcell-act-col10-cat0" fill="#777" stroke="#000" stroke-width="5" width="70" height="57" x="0" y="-62" rx="8" ry="8"/><rect class="hcell-col10-cat0" fill="#777" stroke="#DDD" width="70" height="67" x="0" y="-67" rx="8" ry="8"/><text text-anchor="middle" fill="#FFF" x="35" y="-47">73</text></a></g></g><rect fill="none" stroke="#DDD" width="70" height="30" rx="8" ry="8" x="805" y="215"/><text text-anchor="middle" fill="#333" x="840" y="235">14-04</text><g transform="translate(805,255)"><g><a target="_top" xlink:href="dtp-sliceTagItchyBack-step5605201-ofs0-col10-cat0.html"><rect style="display:none" class="hcell-act-col10-cat0" fill="#777" stroke="#000" stroke-width="5" width="70" height="57" x="0" y="5" rx="8" ry="8"/><rect class="hcell-col10-cat0" fill="#777" stroke="#DDD" width="70" height="67" x="0" y="0" rx="8" ry="8"/><text text-anchor="middle" fill="#FFF" x="35" y="20">-74</text></a></g></g></g><g><g transform="translate(885,205)"><g><a target="_top" xlink:href="dtp-sliceTagItchyBack-step5605201-ofs0-col11-cat0.html"><rect style="display:none" class="hcell-act-col11-cat0" fill="#777" stroke="#000" stroke-width="5" width="70" height="72" x="0" y="-77" rx="8" ry="8"/><rect class="hcell-col11-cat0" fill="#777" stroke="#DDD" width="70" height="82" x="0" y="-82" rx="8" ry="8"/><text text-anchor="middle" fill="#FFF" x="35" y="-62">89</text></a></g></g><rect fill="none" stroke="#DDD" width="70" height="30" rx="8" ry="8" x="885" y="215"/><text text-anchor="middle" fill="#333" x="920" y="235">14-06</text><g transform="translate(885,255)"><g><a target="_top" xlink:href="dtp-sliceTagItchyBack-step5605201-ofs0-col11-cat0.html"><rect style="display:none" class="hcell-act-col11-cat0" fill="#777" stroke="#000" stroke-width="5" width="70" height="72" x="0" y="5" rx="8" ry="8"/><rect class="hcell-col11-cat0" fill="#777" stroke="#DDD" width="70" height="82" x="0" y="0" rx="8" ry="8"/><text text-anchor="middle" fill="#FFF" x="35" y="20">-90</text></a></g></g></g><g><g transform="translate(965,205)"></g><rect fill="none" stroke="#DDD" width="70" height="30" rx="8" ry="8" x="965" y="215"/><text text-anchor="middle" fill="#333" x="1000" y="235">14-08</text><g transform="translate(965,255)"></g></g><g><g transform="translate(1045,205)"></g><rect fill="none" stroke="#DDD" width="70" height="30" rx="8" ry="8" x="1045" y="215"/><text text-anchor="middle" fill="#333" x="1080" y="235">14-10</text><g transform="translate(1045,255)"></g></g><g><g transform="translate(1125,205)"></g><rect fill="none" stroke="#DDD" width="70" height="30" rx="8" ry="8" x="1125" y="215"/><text text-anchor="middle" fill="#333" x="1160" y="235">14-12</text><g transform="translate(1125,255)"></g></g><g><g transform="translate(1205,205)"></g><rect fill="none" stroke="#DDD" width="70" height="30" rx="8" ry="8" x="1205" y="215"/><text text-anchor="middle" fill="#333" x="1240" y="235">15-03</text><g transform="translate(1205,255)"></g></g></svg>