<svg xmlns="http://www.w3.org/2000/svg" xmlns:xlink="http://www.w3.org/1999/xlink" width="100%" height="100%" viewBox="0 0 1280 459"><g><g transform="translate(5,260)"></g><rect fill="none" stroke="#DDD" width="70" height="30" rx="8" ry="8" x="5" y="270"/><text text-anchor="middle" fill="#333" x="40" y="290">14-01</text><g transform="translate(5,310)"></g></g><g><g transform="translate(85,260)"></g><rect fill="none" stroke="#DDD" width="70" height="30" rx="8" ry="8" x="85" y="270"/><text text-anchor="middle" fill="#333" x="120" y="290">14-03</text><g transform="translate(85,310)"></g></g><g><g transform="translate(165,260)"></g><rect fill="none" stroke="#DDD" width="70" height="30" rx="8" ry="8" x="165" y="270"/><text text-anchor="middle" fill="#333" x="200" y="290">14-04</text><g transform="translate(165,310)"></g></g><g><g transform="translate(245,260)"></g><rect fill="none" stroke="#DDD" width="70" height="30" rx="8" ry="8" x="245" y="270"/><text text-anchor="middle" fill="#333" x="280" y="290">14-05</text><g transform="translate(245,310)"></g></g><g><g transform="translate(325,260)"></g><rect fill="none" stroke="#DDD" width="70" height="30" rx="8" ry="8" x="325" y="270"/><text text-anchor="middle" fill="#333" x="360" y="290">14-06</text><g transform="translate(325,310)"></g></g><g><g transform="translate(405,260)"></g><rect fill="none" stroke="#DDD" width="70" height="30" rx="8" ry="8" x="405" y="270"/><text text-anchor="middle" fill="#333" x="440" y="290">14-07</text><g transform="translate(405,310)"></g></g><g><g transform="translate(485,260)"></g><rect fill="none" stroke="#DDD" width="70" height="30" rx="8" ry="8" x="485" y="270"/><text text-anchor="middle" fill="#333" x="520" y="290">14-08</text><g transform="translate(485,310)"><g><a target="_top" xlink:href="dtp-sliceTagMaster8385-step2628000-ofs19-col25-cat0.html"><rect style="display:none" class="hcell-act-col25-cat0" fill="#777" stroke="#000" stroke-width="5" width="70" height="71" x="0" y="5" rx="8" ry="8"/><rect class="hcell-col25-cat0" fill="#777" stroke="#DDD" width="70" height="81" x="0" y="0" rx="8" ry="8"/><text text-anchor="middle" fill="#FFF" x="35" y="20">-360</text></a></g></g></g><g><g transform="translate(565,260)"><g><a target="_top" xlink:href="dtp-sliceTagMaster8385-step2628000-ofs19-col26-cat0.html"><rect style="display:none" class="hcell-act-col26-cat0" fill="#777" stroke="#000" stroke-width="5" width="70" height="245" x="0" y="-250" rx="8" ry="8"/><rect class="hcell-col26-cat0" fill="#777" stroke="#DDD" width="70" height="255" x="0" y="-255" rx="8" ry="8"/><text text-anchor="middle" fill="#FFF" x="35" y="-235">1123</text></a></g></g><rect fill="none" stroke="#DDD" width="70" height="30" rx="8" ry="8" x="565" y="270"/><text text-anchor="middle" fill="#333" x="600" y="290">14-08</text><g transform="translate(565,310)"></g></g><g><g transform="translate(645,260)"></g><rect fill="none" stroke="#DDD" width="70" height="30" rx="8" ry="8" x="645" y="270"/><text text-anchor="middle" fill="#333" x="680" y="290">14-10</text><g transform="translate(645,310)"><g><a target="_top" xlink:href="dtp-sliceTagMaster8385-step2628000-ofs19-col27-cat0.html"><rect style="display:none" class="hcell-act-col27-cat0" fill="#777" stroke="#000" stroke-width="5" width="70" height="96" x="0" y="5" rx="8" ry="8"/><rect class="hcell-col27-cat0" fill="#777" stroke="#DDD" width="70" height="106" x="0" y="0" rx="8" ry="8"/><text text-anchor="middle" fill="#FFF" x="35" y="20">-469</text></a></g></g></g><g><g transform="translate(725,260)"></g><rect fill="none" stroke="#DDD" width="70" height="30" rx="8" ry="8" x="725" y="270"/><text text-anchor="middle" fill="#333" x="760" y="290">14-10</text><g transform="translate(725,310)"><g><a target="_top" xlink:href="dtp-sliceTagMaster8385-step2628000-ofs19-col28-cat0.html"><rect style="display:none" class="hcell-act-col28-cat0" fill="#777" stroke="#000" stroke-width="5" width="70" height="77" x="0" y="5" rx="8" ry="8"/><rect class="hcell-col28-cat0" fill="#777" stroke="#DDD" width="70" height="87" x="0" y="0" rx="8" ry="8"/><text text-anchor="middle" fill="#FFF" x="35" y="20">-384</text></a></g></g></g><g><g transform="translate(805,260)"></g><rect fill="none" stroke="#DDD" width="70" height="30" rx="8" ry="8" x="805" y="270"/><text text-anchor="middle" fill="#333" x="840" y="290">14-12</text><g transform="translate(805,310)"><g><a target="_top" xlink:href="dtp-sliceTagMaster8385-step2628000-ofs19-col29-cat0.html"><rect style="display:none" class="hcell-act-col29-cat0" fill="#777" stroke="#000" stroke-width="5" width="70" height="134" x="0" y="5" rx="8" ry="8"/><rect class="hcell-col29-cat0" fill="#777" stroke="#DDD" width="70" height="144" x="0" y="0" rx="8" ry="8"/><text text-anchor="middle" fill="#FFF" x="35" y="20">-637</text></a></g></g></g><g><g transform="translate(885,260)"></g><rect fill="none" stroke="#DDD" width="70" height="30" rx="8" ry="8" x="885" y="270"/><text text-anchor="middle" fill="#333" x="920" y="290">14-12</text><g transform="translate(885,310)"><g><a target="_top" xlink:href="dtp-sliceTagMaster8385-step2628000-ofs19-col30-cat0.html"><rect style="display:none" class="hcell-act-col30-cat0" fill="#777" stroke="#000" stroke-width="5" width="70" height="20" x="0" y="5" rx="8" ry="8"/><rect class="hcell-col30-cat0" fill="#777" stroke="#DDD" width="70" height="30" x="0" y="0" rx="8" ry="8"/><text text-anchor="middle" fill="#FFF" x="35" y="20">-108</text></a></g></g></g><g><g transform="translate(965,260)"></g><rect fill="none" stroke="#DDD" width="70" height="30" rx="8" ry="8" x="965" y="270"/><text text-anchor="middle" fill="#333" x="1000" y="290">15-01</text><g transform="translate(965,310)"><g><a target="_top" xlink:href="dtp-sliceTagMaster8385-step2628000-ofs19-col31-cat0.html"><rect style="display:none" class="hcell-act-col31-cat0" fill="#777" stroke="#000" stroke-width="5" width="70" height="123" x="0" y="5" rx="8" ry="8"/><rect class="hcell-col31-cat0" fill="#777" stroke="#DDD" width="70" height="133" x="0" y="0" rx="8" ry="8"/><text text-anchor="middle" fill="#FFF" x="35" y="20">-588</text></a></g></g></g><g><g transform="translate(1045,260)"><g><a target="_top" xlink:href="dtp-sliceTagMaster8385-step2628000-ofs19-col32-cat0.html"><rect style="display:none" class="hcell-act-col32-cat0" fill="#777" stroke="#000" stroke-width="5" width="70" height="232" x="0" y="-237" rx="8" ry="8"/><rect class="hcell-col32-cat0" fill="#777" stroke="#DDD" width="70" height="242" x="0" y="-242" rx="8" ry="8"/><text text-anchor="middle" fill="#FFF" x="35" y="-222">1065</text></a></g></g><rect fill="none" stroke="#DDD" width="70" height="30" rx="8" ry="8" x="1045" y="270"/><text text-anchor="middle" fill="#333" x="1080" y="290">15-03</text><g transform="translate(1045,310)"></g></g><g><g transform="translate(1125,260)"></g><rect fill="none" stroke="#DDD" width="70" height="30" rx="8" ry="8" x="1125" y="270"/><text text-anchor="middle" fill="#333" x="1160" y="290">15-04</text><g transform="translate(1125,310)"><g><a target="_top" xlink:href="dtp-sliceTagMaster8385-step2628000-ofs19-col33-cat0.html"><rect style="display:none" class="hcell-act-col33-cat0" fill="#777" stroke="#000" stroke-width="5" width="70" height="25" x="0" y="5" rx="8" ry="8"/><rect class="hcell-col33-cat0" fill="#777" stroke="#DDD" width="70" height="35" x="0" y="0" rx="8" ry="8"/><text text-anchor="middle" fill="#FFF" x="35" y="20">-158</text></a></g></g></g><g><g transform="translate(1205,260)"></g><rect fill="none" stroke="#DDD" width="70" height="30" rx="8" ry="8" x="1205" y="270"/><text text-anchor="middle" fill="#333" x="1240" y="290">15-05</text><g transform="translate(1205,310)"></g></g></svg>