<svg xmlns="http://www.w3.org/2000/svg" xmlns:xlink="http://www.w3.org/1999/xlink" width="100%" height="100%" viewBox="0 0 1280 459"><g><g transform="translate(5,223)"></g><rect fill="none" stroke="#DDD" width="70" height="30" rx="8" ry="8" x="5" y="233"/><text text-anchor="middle" fill="#333" x="40" y="253">12-07</text><g transform="translate(5,273)"></g></g><g><g transform="translate(85,223)"></g><rect fill="none" stroke="#DDD" width="70" height="30" rx="8" ry="8" x="85" y="233"/><text text-anchor="middle" fill="#333" x="120" y="253">12-09</text><g transform="translate(85,273)"></g></g><g><g transform="translate(165,223)"></g><rect fill="none" stroke="#DDD" width="70" height="30" rx="8" ry="8" x="165" y="233"/><text text-anchor="middle" fill="#333" x="200" y="253">12-11</text><g transform="translate(165,273)"></g></g><g><g transform="translate(245,223)"></g><rect fill="none" stroke="#DDD" width="70" height="30" rx="8" ry="8" x="245" y="233"/><text text-anchor="middle" fill="#333" x="280" y="253">13-01</text><g transform="translate(245,273)"></g></g><g><g transform="translate(325,223)"></g><rect fill="none" stroke="#DDD" width="70" height="30" rx="8" ry="8" x="325" y="233"/><text text-anchor="middle" fill="#333" x="360" y="253">13-03</text><g transform="translate(325,273)"></g></g><g><g transform="translate(405,223)"></g><rect fill="none" stroke="#DDD" width="70" height="30" rx="8" ry="8" x="405" y="233"/><text text-anchor="middle" fill="#333" x="440" y="253">13-05</text><g transform="translate(405,273)"></g></g><g><g transform="translate(485,223)"></g><rect fill="none" stroke="#DDD" width="70" height="30" rx="8" ry="8" x="485" y="233"/><text text-anchor="middle" fill="#333" x="520" y="253">13-07</text><g transform="translate(485,273)"></g></g><g><g transform="translate(565,223)"></g><rect fill="none" stroke="#DDD" width="70" height="30" rx="8" ry="8" x="565" y="233"/><text text-anchor="middle" fill="#333" x="600" y="253">13-09</text><g transform="translate(565,273)"></g></g><g><g transform="translate(645,223)"></g><rect fill="none" stroke="#DDD" width="70" height="30" rx="8" ry="8" x="645" y="233"/><text text-anchor="middle" fill="#333" x="680" y="253">13-12</text><g transform="translate(645,273)"></g></g><g><g transform="translate(725,223)"></g><rect fill="none" stroke="#DDD" width="70" height="30" rx="8" ry="8" x="725" y="233"/><text text-anchor="middle" fill="#333" x="760" y="253">14-02</text><g transform="translate(725,273)"></g></g><g><g transform="translate(805,223)"></g><rect fill="none" stroke="#DDD" width="70" height="30" rx="8" ry="8" x="805" y="233"/><text text-anchor="middle" fill="#333" x="840" y="253">14-04</text><g transform="translate(805,273)"></g></g><g><g transform="translate(885,223)"><g><a target="_top" xlink:href="dtp-sliceTagPhone-step5605201-ofs0-col11-cat0.html"><rect style="display:none" class="hcell-act-col11-cat0" fill="#777" stroke="#000" stroke-width="5" width="70" height="39" x="0" y="-44" rx="8" ry="8"/><rect class="hcell-col11-cat0" fill="#777" stroke="#DDD" width="70" height="49" x="0" y="-49" rx="8" ry="8"/><text text-anchor="middle" fill="#FFF" x="35" y="-29">27</text></a></g></g><rect fill="none" stroke="#DDD" width="70" height="30" rx="8" ry="8" x="885" y="233"/><text text-anchor="middle" fill="#333" x="920" y="253">14-06</text><g transform="translate(885,273)"></g></g><g><g transform="translate(965,223)"><g><a target="_top" xlink:href="dtp-sliceTagPhone-step5605201-ofs0-col12-cat0.html"><rect style="display:none" class="hcell-act-col12-cat0" fill="#777" stroke="#000" stroke-width="5" width="70" height="208" x="0" y="-213" rx="8" ry="8"/><rect class="hcell-col12-cat0" fill="#777" stroke="#DDD" width="70" height="218" x="0" y="-218" rx="8" ry="8"/><text text-anchor="middle" fill="#FFF" x="35" y="-198">119</text></a></g></g><rect fill="none" stroke="#DDD" width="70" height="30" rx="8" ry="8" x="965" y="233"/><text text-anchor="middle" fill="#333" x="1000" y="253">14-08</text><g transform="translate(965,273)"></g></g><g><g transform="translate(1045,223)"></g><rect fill="none" stroke="#DDD" width="70" height="30" rx="8" ry="8" x="1045" y="233"/><text text-anchor="middle" fill="#333" x="1080" y="253">14-10</text><g transform="translate(1045,273)"><g><a target="_top" xlink:href="dtp-sliceTagPhone-step5605201-ofs0-col13-cat0.html"><rect style="display:none" class="hcell-act-col13-cat0" fill="#777" stroke="#000" stroke-width="5" width="70" height="171" x="0" y="5" rx="8" ry="8"/><rect class="hcell-col13-cat0" fill="#777" stroke="#DDD" width="70" height="181" x="0" y="0" rx="8" ry="8"/><text text-anchor="middle" fill="#FFF" x="35" y="20">-99</text></a></g></g></g><g><g transform="translate(1125,223)"><g><a target="_top" xlink:href="dtp-sliceTagPhone-step5605201-ofs0-col14-cat0.html"><rect style="display:none" class="hcell-act-col14-cat0" fill="#777" stroke="#000" stroke-width="5" width="70" height="41" x="0" y="-46" rx="8" ry="8"/><rect class="hcell-col14-cat0" fill="#777" stroke="#DDD" width="70" height="51" x="0" y="-51" rx="8" ry="8"/><text text-anchor="middle" fill="#FFF" x="35" y="-31">28</text></a></g></g><rect fill="none" stroke="#DDD" width="70" height="30" rx="8" ry="8" x="1125" y="233"/><text text-anchor="middle" fill="#333" x="1160" y="253">14-12</text><g transform="translate(1125,273)"></g></g><g><g transform="translate(1205,223)"></g><rect fill="none" stroke="#DDD" width="70" height="30" rx="8" ry="8" x="1205" y="233"/><text text-anchor="middle" fill="#333" x="1240" y="253">15-03</text><g transform="translate(1205,273)"><g><a target="_top" xlink:href="dtp-sliceTagPhone-step5605201-ofs0-col15-cat0.html"><rect style="display:none" class="hcell-act-col15-cat0" fill="#777" stroke="#000" stroke-width="5" width="70" height="20" x="0" y="5" rx="8" ry="8"/><rect class="hcell-col15-cat0" fill="#777" stroke="#DDD" width="70" height="30" x="0" y="0" rx="8" ry="8"/><text text-anchor="middle" fill="#FFF" x="35" y="20">-16</text></a></g></g></g></svg>