<svg xmlns="http://www.w3.org/2000/svg" xmlns:xlink="http://www.w3.org/1999/xlink" width="100%" height="100%" viewBox="0 0 1280 460"><g><g transform="translate(5,5)"></g><rect fill="none" stroke="#DDD" width="70" height="30" rx="8" ry="8" x="5" y="15"/><text text-anchor="middle" fill="#333" x="40" y="35">12-07</text><g transform="translate(5,55)"><g><a target="_top" xlink:href="dtp-sliceTagReliant-step5605201-ofs0-col0-cat0.html"><rect style="display:none" class="hcell-act-col0-cat0" fill="#777" stroke="#000" stroke-width="5" width="70" height="184" x="0" y="5" rx="8" ry="8"/><rect class="hcell-col0-cat0" fill="#777" stroke="#DDD" width="70" height="194" x="0" y="0" rx="8" ry="8"/><text text-anchor="middle" fill="#FFF" x="35" y="20">-87</text></a></g></g></g><g><g transform="translate(85,5)"></g><rect fill="none" stroke="#DDD" width="70" height="30" rx="8" ry="8" x="85" y="15"/><text text-anchor="middle" fill="#333" x="120" y="35">12-09</text><g transform="translate(85,55)"><g><a target="_top" xlink:href="dtp-sliceTagReliant-step5605201-ofs0-col1-cat0.html"><rect style="display:none" class="hcell-act-col1-cat0" fill="#777" stroke="#000" stroke-width="5" width="70" height="217" x="0" y="5" rx="8" ry="8"/><rect class="hcell-col1-cat0" fill="#777" stroke="#DDD" width="70" height="227" x="0" y="0" rx="8" ry="8"/><text text-anchor="middle" fill="#FFF" x="35" y="20">-102</text></a></g></g></g><g><g transform="translate(165,5)"></g><rect fill="none" stroke="#DDD" width="70" height="30" rx="8" ry="8" x="165" y="15"/><text text-anchor="middle" fill="#333" x="200" y="35">12-11</text><g transform="translate(165,55)"><g><a target="_top" xlink:href="dtp-sliceTagReliant-step5605201-ofs0-col2-cat0.html"><rect style="display:none" class="hcell-act-col2-cat0" fill="#777" stroke="#000" stroke-width="5" width="70" height="390" x="0" y="5" rx="8" ry="8"/><rect class="hcell-col2-cat0" fill="#777" stroke="#DDD" width="70" height="400" x="0" y="0" rx="8" ry="8"/><text text-anchor="middle" fill="#FFF" x="35" y="20">-179</text></a></g></g></g><g><g transform="translate(245,5)"></g><rect fill="none" stroke="#DDD" width="70" height="30" rx="8" ry="8" x="245" y="15"/><text text-anchor="middle" fill="#333" x="280" y="35">13-01</text><g transform="translate(245,55)"><g><a target="_top" xlink:href="dtp-sliceTagReliant-step5605201-ofs0-col3-cat0.html"><rect style="display:none" class="hcell-act-col3-cat0" fill="#777" stroke="#000" stroke-width="5" width="70" height="216" x="0" y="5" rx="8" ry="8"/><rect class="hcell-col3-cat0" fill="#777" stroke="#DDD" width="70" height="226" x="0" y="0" rx="8" ry="8"/><text text-anchor="middle" fill="#FFF" x="35" y="20">-102</text></a></g></g></g><g><g transform="translate(325,5)"></g><rect fill="none" stroke="#DDD" width="70" height="30" rx="8" ry="8" x="325" y="15"/><text text-anchor="middle" fill="#333" x="360" y="35">13-03</text><g transform="translate(325,55)"><g><a target="_top" xlink:href="dtp-sliceTagReliant-step5605201-ofs0-col4-cat0.html"><rect style="display:none" class="hcell-act-col4-cat0" fill="#777" stroke="#000" stroke-width="5" width="70" height="228" x="0" y="5" rx="8" ry="8"/><rect class="hcell-col4-cat0" fill="#777" stroke="#DDD" width="70" height="238" x="0" y="0" rx="8" ry="8"/><text text-anchor="middle" fill="#FFF" x="35" y="20">-107</text></a></g></g></g><g><g transform="translate(405,5)"></g><rect fill="none" stroke="#DDD" width="70" height="30" rx="8" ry="8" x="405" y="15"/><text text-anchor="middle" fill="#333" x="440" y="35">13-05</text><g transform="translate(405,55)"><g><a target="_top" xlink:href="dtp-sliceTagReliant-step5605201-ofs0-col5-cat0.html"><rect style="display:none" class="hcell-act-col5-cat0" fill="#777" stroke="#000" stroke-width="5" width="70" height="174" x="0" y="5" rx="8" ry="8"/><rect class="hcell-col5-cat0" fill="#777" stroke="#DDD" width="70" height="184" x="0" y="0" rx="8" ry="8"/><text text-anchor="middle" fill="#FFF" x="35" y="20">-83</text></a></g></g></g><g><g transform="translate(485,5)"></g><rect fill="none" stroke="#DDD" width="70" height="30" rx="8" ry="8" x="485" y="15"/><text text-anchor="middle" fill="#333" x="520" y="35">13-07</text><g transform="translate(485,55)"><g><a target="_top" xlink:href="dtp-sliceTagReliant-step5605201-ofs0-col6-cat0.html"><rect style="display:none" class="hcell-act-col6-cat0" fill="#777" stroke="#000" stroke-width="5" width="70" height="253" x="0" y="5" rx="8" ry="8"/><rect class="hcell-col6-cat0" fill="#777" stroke="#DDD" width="70" height="263" x="0" y="0" rx="8" ry="8"/><text text-anchor="middle" fill="#FFF" x="35" y="20">-118</text></a></g></g></g><g><g transform="translate(565,5)"></g><rect fill="none" stroke="#DDD" width="70" height="30" rx="8" ry="8" x="565" y="15"/><text text-anchor="middle" fill="#333" x="600" y="35">13-09</text><g transform="translate(565,55)"><g><a target="_top" xlink:href="dtp-sliceTagReliant-step5605201-ofs0-col7-cat0.html"><rect style="display:none" class="hcell-act-col7-cat0" fill="#777" stroke="#000" stroke-width="5" width="70" height="200" x="0" y="5" rx="8" ry="8"/><rect class="hcell-col7-cat0" fill="#777" stroke="#DDD" width="70" height="210" x="0" y="0" rx="8" ry="8"/><text text-anchor="middle" fill="#FFF" x="35" y="20">-94</text></a></g></g></g><g><g transform="translate(645,5)"></g><rect fill="none" stroke="#DDD" width="70" height="30" rx="8" ry="8" x="645" y="15"/><text text-anchor="middle" fill="#333" x="680" y="35">13-12</text><g transform="translate(645,55)"><g><a target="_top" xlink:href="dtp-sliceTagReliant-step5605201-ofs0-col8-cat0.html"><rect style="display:none" class="hcell-act-col8-cat0" fill="#777" stroke="#000" stroke-width="5" width="70" height="382" x="0" y="5" rx="8" ry="8"/><rect class="hcell-col8-cat0" fill="#777" stroke="#DDD" width="70" height="392" x="0" y="0" rx="8" ry="8"/><text text-anchor="middle" fill="#FFF" x="35" y="20">-175</text></a></g></g></g><g><g transform="translate(725,5)"></g><rect fill="none" stroke="#DDD" width="70" height="30" rx="8" ry="8" x="725" y="15"/><text text-anchor="middle" fill="#333" x="760" y="35">14-02</text><g transform="translate(725,55)"><g><a target="_top" xlink:href="dtp-sliceTagReliant-step5605201-ofs0-col9-cat0.html"><rect style="display:none" class="hcell-act-col9-cat0" fill="#777" stroke="#000" stroke-width="5" width="70" height="281" x="0" y="5" rx="8" ry="8"/><rect class="hcell-col9-cat0" fill="#777" stroke="#DDD" width="70" height="291" x="0" y="0" rx="8" ry="8"/><text text-anchor="middle" fill="#FFF" x="35" y="20">-131</text></a></g></g></g><g><g transform="translate(805,5)"></g><rect fill="none" stroke="#DDD" width="70" height="30" rx="8" ry="8" x="805" y="15"/><text text-anchor="middle" fill="#333" x="840" y="35">14-04</text><g transform="translate(805,55)"><g><a target="_top" xlink:href="dtp-sliceTagReliant-step5605201-ofs0-col10-cat0.html"><rect style="display:none" class="hcell-act-col10-cat0" fill="#777" stroke="#000" stroke-width="5" width="70" height="246" x="0" y="5" rx="8" ry="8"/><rect class="hcell-col10-cat0" fill="#777" stroke="#DDD" width="70" height="256" x="0" y="0" rx="8" ry="8"/><text text-anchor="middle" fill="#FFF" x="35" y="20">-115</text></a></g></g></g><g><g transform="translate(885,5)"></g><rect fill="none" stroke="#DDD" width="70" height="30" rx="8" ry="8" x="885" y="15"/><text text-anchor="middle" fill="#333" x="920" y="35">14-06</text><g transform="translate(885,55)"><g><a target="_top" xlink:href="dtp-sliceTagReliant-step5605201-ofs0-col11-cat0.html"><rect style="display:none" class="hcell-act-col11-cat0" fill="#777" stroke="#000" stroke-width="5" width="70" height="136" x="0" y="5" rx="8" ry="8"/><rect class="hcell-col11-cat0" fill="#777" stroke="#DDD" width="70" height="146" x="0" y="0" rx="8" ry="8"/><text text-anchor="middle" fill="#FFF" x="35" y="20">-66</text></a></g></g></g><g><g transform="translate(965,5)"></g><rect fill="none" stroke="#DDD" width="70" height="30" rx="8" ry="8" x="965" y="15"/><text text-anchor="middle" fill="#333" x="1000" y="35">14-08</text><g transform="translate(965,55)"><g><a target="_top" xlink:href="dtp-sliceTagReliant-step5605201-ofs0-col12-cat0.html"><rect style="display:none" class="hcell-act-col12-cat0" fill="#777" stroke="#000" stroke-width="5" width="70" height="227" x="0" y="5" rx="8" ry="8"/><rect class="hcell-col12-cat0" fill="#777" stroke="#DDD" width="70" height="237" x="0" y="0" rx="8" ry="8"/><text text-anchor="middle" fill="#FFF" x="35" y="20">-106</text></a></g></g></g><g><g transform="translate(1045,5)"></g><rect fill="none" stroke="#DDD" width="70" height="30" rx="8" ry="8" x="1045" y="15"/><text text-anchor="middle" fill="#333" x="1080" y="35">14-10</text><g transform="translate(1045,55)"><g><a target="_top" xlink:href="dtp-sliceTagReliant-step5605201-ofs0-col13-cat0.html"><rect style="display:none" class="hcell-act-col13-cat0" fill="#777" stroke="#000" stroke-width="5" width="70" height="263" x="0" y="5" rx="8" ry="8"/><rect class="hcell-col13-cat0" fill="#777" stroke="#DDD" width="70" height="273" x="0" y="0" rx="8" ry="8"/><text text-anchor="middle" fill="#FFF" x="35" y="20">-123</text></a></g></g></g><g><g transform="translate(1125,5)"></g><rect fill="none" stroke="#DDD" width="70" height="30" rx="8" ry="8" x="1125" y="15"/><text text-anchor="middle" fill="#333" x="1160" y="35">14-12</text><g transform="translate(1125,55)"><g><a target="_top" xlink:href="dtp-sliceTagReliant-step5605201-ofs0-col14-cat0.html"><rect style="display:none" class="hcell-act-col14-cat0" fill="#777" stroke="#000" stroke-width="5" width="70" height="237" x="0" y="5" rx="8" ry="8"/><rect class="hcell-col14-cat0" fill="#777" stroke="#DDD" width="70" height="247" x="0" y="0" rx="8" ry="8"/><text text-anchor="middle" fill="#FFF" x="35" y="20">-111</text></a></g></g></g><g><g transform="translate(1205,5)"></g><rect fill="none" stroke="#DDD" width="70" height="30" rx="8" ry="8" x="1205" y="15"/><text text-anchor="middle" fill="#333" x="1240" y="35">15-03</text><g transform="translate(1205,55)"><g><a target="_top" xlink:href="dtp-sliceTagReliant-step5605201-ofs0-col15-cat0.html"><rect style="display:none" class="hcell-act-col15-cat0" fill="#777" stroke="#000" stroke-width="5" width="70" height="264" x="0" y="5" rx="8" ry="8"/><rect class="hcell-col15-cat0" fill="#777" stroke="#DDD" width="70" height="274" x="0" y="0" rx="8" ry="8"/><text text-anchor="middle" fill="#FFF" x="35" y="20">-123</text></a></g></g></g></svg>