<svg xmlns="http://www.w3.org/2000/svg" xmlns:xlink="http://www.w3.org/1999/xlink" width="100%" height="100%" viewBox="0 0 1280 460"><g><g transform="translate(5,205)"><g><a target="_top" xlink:href="dtp-sliceTagAwesome-step2628000-ofs3-col3-cat0.html"><rect style="display:none" class="hcell-act-col3-cat0" fill="#777" stroke="#000" stroke-width="5" width="70" height="103" x="0" y="-108" rx="8" ry="8"/><rect class="hcell-col3-cat0" fill="#777" stroke="#DDD" width="70" height="113" x="0" y="-113" rx="8" ry="8"/><text text-anchor="middle" fill="#FFF" x="35" y="-93">346</text></a></g></g><rect fill="none" stroke="#DDD" width="70" height="30" rx="8" ry="8" x="5" y="215"/><text text-anchor="middle" fill="#333" x="40" y="235">12-10</text><g transform="translate(5,255)"><g><a target="_top" xlink:href="dtp-sliceTagAwesome-step2628000-ofs3-col3-cat0.html"><rect style="display:none" class="hcell-act-col3-cat0" fill="#777" stroke="#000" stroke-width="5" width="70" height="103" x="0" y="5" rx="8" ry="8"/><rect class="hcell-col3-cat0" fill="#777" stroke="#DDD" width="70" height="113" x="0" y="0" rx="8" ry="8"/><text text-anchor="middle" fill="#FFF" x="35" y="20">-347</text></a></g></g></g><g><g transform="translate(85,205)"><g><a target="_top" xlink:href="dtp-sliceTagAwesome-step2628000-ofs3-col4-cat0.html"><rect style="display:none" class="hcell-act-col4-cat0" fill="#777" stroke="#000" stroke-width="5" width="70" height="102" x="0" y="-107" rx="8" ry="8"/><rect class="hcell-col4-cat0" fill="#777" stroke="#DDD" width="70" height="112" x="0" y="-112" rx="8" ry="8"/><text text-anchor="middle" fill="#FFF" x="35" y="-92">343</text></a></g></g><rect fill="none" stroke="#DDD" width="70" height="30" rx="8" ry="8" x="85" y="215"/><text text-anchor="middle" fill="#333" x="120" y="235">12-10</text><g transform="translate(85,255)"><g><a target="_top" xlink:href="dtp-sliceTagAwesome-step2628000-ofs3-col4-cat0.html"><rect style="display:none" class="hcell-act-col4-cat0" fill="#777" stroke="#000" stroke-width="5" width="70" height="102" x="0" y="5" rx="8" ry="8"/><rect class="hcell-col4-cat0" fill="#777" stroke="#DDD" width="70" height="112" x="0" y="0" rx="8" ry="8"/><text text-anchor="middle" fill="#FFF" x="35" y="20">-344</text></a></g></g></g><g><g transform="translate(165,205)"><g><a target="_top" xlink:href="dtp-sliceTagAwesome-step2628000-ofs3-col5-cat0.html"><rect style="display:none" class="hcell-act-col5-cat0" fill="#777" stroke="#000" stroke-width="5" width="70" height="109" x="0" y="-114" rx="8" ry="8"/><rect class="hcell-col5-cat0" fill="#777" stroke="#DDD" width="70" height="119" x="0" y="-119" rx="8" ry="8"/><text text-anchor="middle" fill="#FFF" x="35" y="-99">364</text></a></g></g><rect fill="none" stroke="#DDD" width="70" height="30" rx="8" ry="8" x="165" y="215"/><text text-anchor="middle" fill="#333" x="200" y="235">12-12</text><g transform="translate(165,255)"><g><a target="_top" xlink:href="dtp-sliceTagAwesome-step2628000-ofs3-col5-cat0.html"><rect style="display:none" class="hcell-act-col5-cat0" fill="#777" stroke="#000" stroke-width="5" width="70" height="109" x="0" y="5" rx="8" ry="8"/><rect class="hcell-col5-cat0" fill="#777" stroke="#DDD" width="70" height="119" x="0" y="0" rx="8" ry="8"/><text text-anchor="middle" fill="#FFF" x="35" y="20">-365</text></a></g></g></g><g><g transform="translate(245,205)"><g><a target="_top" xlink:href="dtp-sliceTagAwesome-step2628000-ofs3-col6-cat0.html"><rect style="display:none" class="hcell-act-col6-cat0" fill="#777" stroke="#000" stroke-width="5" width="70" height="119" x="0" y="-124" rx="8" ry="8"/><rect class="hcell-col6-cat0" fill="#777" stroke="#DDD" width="70" height="129" x="0" y="-129" rx="8" ry="8"/><text text-anchor="middle" fill="#FFF" x="35" y="-109">394</text></a></g></g><rect fill="none" stroke="#DDD" width="70" height="30" rx="8" ry="8" x="245" y="215"/><text text-anchor="middle" fill="#333" x="280" y="235">12-12</text><g transform="translate(245,255)"><g><a target="_top" xlink:href="dtp-sliceTagAwesome-step2628000-ofs3-col6-cat0.html"><rect style="display:none" class="hcell-act-col6-cat0" fill="#777" stroke="#000" stroke-width="5" width="70" height="119" x="0" y="5" rx="8" ry="8"/><rect class="hcell-col6-cat0" fill="#777" stroke="#DDD" width="70" height="129" x="0" y="0" rx="8" ry="8"/><text text-anchor="middle" fill="#FFF" x="35" y="20">-395</text></a></g></g></g><g><g transform="translate(325,205)"><g><a target="_top" xlink:href="dtp-sliceTagAwesome-step2628000-ofs3-col7-cat0.html"><rect style="display:none" class="hcell-act-col7-cat0" fill="#777" stroke="#000" stroke-width="5" width="70" height="113" x="0" y="-118" rx="8" ry="8"/><rect class="hcell-col7-cat0" fill="#777" stroke="#DDD" width="70" height="123" x="0" y="-123" rx="8" ry="8"/><text text-anchor="middle" fill="#FFF" x="35" y="-103">375</text></a></g></g><rect fill="none" stroke="#DDD" width="70" height="30" rx="8" ry="8" x="325" y="215"/><text text-anchor="middle" fill="#333" x="360" y="235">13-01</text><g transform="translate(325,255)"><g><a target="_top" xlink:href="dtp-sliceTagAwesome-step2628000-ofs3-col7-cat0.html"><rect style="display:none" class="hcell-act-col7-cat0" fill="#777" stroke="#000" stroke-width="5" width="70" height="113" x="0" y="5" rx="8" ry="8"/><rect class="hcell-col7-cat0" fill="#777" stroke="#DDD" width="70" height="123" x="0" y="0" rx="8" ry="8"/><text text-anchor="middle" fill="#FFF" x="35" y="20">-376</text></a></g></g></g><g><g transform="translate(405,205)"><g><a target="_top" xlink:href="dtp-sliceTagAwesome-step2628000-ofs3-col8-cat0.html"><rect style="display:none" class="hcell-act-col8-cat0" fill="#777" stroke="#000" stroke-width="5" width="70" height="179" x="0" y="-184" rx="8" ry="8"/><rect class="hcell-col8-cat0" fill="#777" stroke="#DDD" width="70" height="189" x="0" y="-189" rx="8" ry="8"/><text text-anchor="middle" fill="#FFF" x="35" y="-169">575</text></a></g></g><rect fill="none" stroke="#DDD" width="70" height="30" rx="8" ry="8" x="405" y="215"/><text text-anchor="middle" fill="#333" x="440" y="235">13-03</text><g transform="translate(405,255)"><g><a target="_top" xlink:href="dtp-sliceTagAwesome-step2628000-ofs3-col8-cat0.html"><rect style="display:none" class="hcell-act-col8-cat0" fill="#777" stroke="#000" stroke-width="5" width="70" height="179" x="0" y="5" rx="8" ry="8"/><rect class="hcell-col8-cat0" fill="#777" stroke="#DDD" width="70" height="189" x="0" y="0" rx="8" ry="8"/><text text-anchor="middle" fill="#FFF" x="35" y="20">-576</text></a></g></g></g><g><g transform="translate(485,205)"><g><a target="_top" xlink:href="dtp-sliceTagAwesome-step2628000-ofs3-col9-cat0.html"><rect style="display:none" class="hcell-act-col9-cat0" fill="#777" stroke="#000" stroke-width="5" width="70" height="94" x="0" y="-99" rx="8" ry="8"/><rect class="hcell-col9-cat0" fill="#777" stroke="#DDD" width="70" height="104" x="0" y="-104" rx="8" ry="8"/><text text-anchor="middle" fill="#FFF" x="35" y="-84">319</text></a></g></g><rect fill="none" stroke="#DDD" width="70" height="30" rx="8" ry="8" x="485" y="215"/><text text-anchor="middle" fill="#333" x="520" y="235">13-04</text><g transform="translate(485,255)"><g><a target="_top" xlink:href="dtp-sliceTagAwesome-step2628000-ofs3-col9-cat0.html"><rect style="display:none" class="hcell-act-col9-cat0" fill="#777" stroke="#000" stroke-width="5" width="70" height="94" x="0" y="5" rx="8" ry="8"/><rect class="hcell-col9-cat0" fill="#777" stroke="#DDD" width="70" height="104" x="0" y="0" rx="8" ry="8"/><text text-anchor="middle" fill="#FFF" x="35" y="20">-320</text></a></g></g></g><g><g transform="translate(565,205)"><g><a target="_top" xlink:href="dtp-sliceTagAwesome-step2628000-ofs3-col10-cat0.html"><rect style="display:none" class="hcell-act-col10-cat0" fill="#777" stroke="#000" stroke-width="5" width="70" height="122" x="0" y="-127" rx="8" ry="8"/><rect class="hcell-col10-cat0" fill="#777" stroke="#DDD" width="70" height="132" x="0" y="-132" rx="8" ry="8"/><text text-anchor="middle" fill="#FFF" x="35" y="-112">403</text></a></g></g><rect fill="none" stroke="#DDD" width="70" height="30" rx="8" ry="8" x="565" y="215"/><text text-anchor="middle" fill="#333" x="600" y="235">13-05</text><g transform="translate(565,255)"><g><a target="_top" xlink:href="dtp-sliceTagAwesome-step2628000-ofs3-col10-cat0.html"><rect style="display:none" class="hcell-act-col10-cat0" fill="#777" stroke="#000" stroke-width="5" width="70" height="122" x="0" y="5" rx="8" ry="8"/><rect class="hcell-col10-cat0" fill="#777" stroke="#DDD" width="70" height="132" x="0" y="0" rx="8" ry="8"/><text text-anchor="middle" fill="#FFF" x="35" y="20">-404</text></a></g></g></g><g><g transform="translate(645,205)"><g><a target="_top" xlink:href="dtp-sliceTagAwesome-step2628000-ofs3-col11-cat0.html"><rect style="display:none" class="hcell-act-col11-cat0" fill="#777" stroke="#000" stroke-width="5" width="70" height="85" x="0" y="-90" rx="8" ry="8"/><rect class="hcell-col11-cat0" fill="#777" stroke="#DDD" width="70" height="95" x="0" y="-95" rx="8" ry="8"/><text text-anchor="middle" fill="#FFF" x="35" y="-75">291</text></a></g></g><rect fill="none" stroke="#DDD" width="70" height="30" rx="8" ry="8" x="645" y="215"/><text text-anchor="middle" fill="#333" x="680" y="235">13-06</text><g transform="translate(645,255)"><g><a target="_top" xlink:href="dtp-sliceTagAwesome-step2628000-ofs3-col11-cat0.html"><rect style="display:none" class="hcell-act-col11-cat0" fill="#777" stroke="#000" stroke-width="5" width="70" height="85" x="0" y="5" rx="8" ry="8"/><rect class="hcell-col11-cat0" fill="#777" stroke="#DDD" width="70" height="95" x="0" y="0" rx="8" ry="8"/><text text-anchor="middle" fill="#FFF" x="35" y="20">-292</text></a></g></g></g><g><g transform="translate(725,205)"><g><a target="_top" xlink:href="dtp-sliceTagAwesome-step2628000-ofs3-col12-cat0.html"><rect style="display:none" class="hcell-act-col12-cat0" fill="#777" stroke="#000" stroke-width="5" width="70" height="190" x="0" y="-195" rx="8" ry="8"/><rect class="hcell-col12-cat0" fill="#777" stroke="#DDD" width="70" height="200" x="0" y="-200" rx="8" ry="8"/><text text-anchor="middle" fill="#FFF" x="35" y="-180">609</text></a></g></g><rect fill="none" stroke="#DDD" width="70" height="30" rx="8" ry="8" x="725" y="215"/><text text-anchor="middle" fill="#333" x="760" y="235">13-07</text><g transform="translate(725,255)"><g><a target="_top" xlink:href="dtp-sliceTagAwesome-step2628000-ofs3-col12-cat0.html"><rect style="display:none" class="hcell-act-col12-cat0" fill="#777" stroke="#000" stroke-width="5" width="70" height="190" x="0" y="5" rx="8" ry="8"/><rect class="hcell-col12-cat0" fill="#777" stroke="#DDD" width="70" height="200" x="0" y="0" rx="8" ry="8"/><text text-anchor="middle" fill="#FFF" x="35" y="20">-610</text></a></g></g></g><g><g transform="translate(805,205)"><g><a target="_top" xlink:href="dtp-sliceTagAwesome-step2628000-ofs3-col13-cat0.html"><rect style="display:none" class="hcell-act-col13-cat0" fill="#777" stroke="#000" stroke-width="5" width="70" height="171" x="0" y="-176" rx="8" ry="8"/><rect class="hcell-col13-cat0" fill="#777" stroke="#DDD" width="70" height="181" x="0" y="-181" rx="8" ry="8"/><text text-anchor="middle" fill="#FFF" x="35" y="-161">553</text></a></g></g><rect fill="none" stroke="#DDD" width="70" height="30" rx="8" ry="8" x="805" y="215"/><text text-anchor="middle" fill="#333" x="840" y="235">13-08</text><g transform="translate(805,255)"><g><a target="_top" xlink:href="dtp-sliceTagAwesome-step2628000-ofs3-col13-cat0.html"><rect style="display:none" class="hcell-act-col13-cat0" fill="#777" stroke="#000" stroke-width="5" width="70" height="171" x="0" y="5" rx="8" ry="8"/><rect class="hcell-col13-cat0" fill="#777" stroke="#DDD" width="70" height="181" x="0" y="0" rx="8" ry="8"/><text text-anchor="middle" fill="#FFF" x="35" y="20">-554</text></a></g></g></g><g><g transform="translate(885,205)"><g><a target="_top" xlink:href="dtp-sliceTagAwesome-step2628000-ofs3-col14-cat0.html"><rect style="display:none" class="hcell-act-col14-cat0" fill="#777" stroke="#000" stroke-width="5" width="70" height="51" x="0" y="-56" rx="8" ry="8"/><rect class="hcell-col14-cat0" fill="#777" stroke="#DDD" width="70" height="61" x="0" y="-61" rx="8" ry="8"/><text text-anchor="middle" fill="#FFF" x="35" y="-41">187</text></a></g></g><rect fill="none" stroke="#DDD" width="70" height="30" rx="8" ry="8" x="885" y="215"/><text text-anchor="middle" fill="#333" x="920" y="235">13-08</text><g transform="translate(885,255)"><g><a target="_top" xlink:href="dtp-sliceTagAwesome-step2628000-ofs3-col14-cat0.html"><rect style="display:none" class="hcell-act-col14-cat0" fill="#777" stroke="#000" stroke-width="5" width="70" height="51" x="0" y="5" rx="8" ry="8"/><rect class="hcell-col14-cat0" fill="#777" stroke="#DDD" width="70" height="61" x="0" y="0" rx="8" ry="8"/><text text-anchor="middle" fill="#FFF" x="35" y="20">-188</text></a></g></g></g><g><g transform="translate(965,205)"><g><a target="_top" xlink:href="dtp-sliceTagAwesome-step2628000-ofs3-col15-cat0.html"><rect style="display:none" class="hcell-act-col15-cat0" fill="#777" stroke="#000" stroke-width="5" width="70" height="150" x="0" y="-155" rx="8" ry="8"/><rect class="hcell-col15-cat0" fill="#777" stroke="#DDD" width="70" height="160" x="0" y="-160" rx="8" ry="8"/><text text-anchor="middle" fill="#FFF" x="35" y="-140">487</text></a></g></g><rect fill="none" stroke="#DDD" width="70" height="30" rx="8" ry="8" x="965" y="215"/><text text-anchor="middle" fill="#333" x="1000" y="235">13-10</text><g transform="translate(965,255)"><g><a target="_top" xlink:href="dtp-sliceTagAwesome-step2628000-ofs3-col15-cat0.html"><rect style="display:none" class="hcell-act-col15-cat0" fill="#777" stroke="#000" stroke-width="5" width="70" height="150" x="0" y="5" rx="8" ry="8"/><rect class="hcell-col15-cat0" fill="#777" stroke="#DDD" width="70" height="160" x="0" y="0" rx="8" ry="8"/><text text-anchor="middle" fill="#FFF" x="35" y="20">-488</text></a></g></g></g><g><g transform="translate(1045,205)"><g><a target="_top" xlink:href="dtp-sliceTagAwesome-step2628000-ofs3-col16-cat0.html"><rect style="display:none" class="hcell-act-col16-cat0" fill="#777" stroke="#000" stroke-width="5" width="70" height="98" x="0" y="-103" rx="8" ry="8"/><rect class="hcell-col16-cat0" fill="#777" stroke="#DDD" width="70" height="108" x="0" y="-108" rx="8" ry="8"/><text text-anchor="middle" fill="#FFF" x="35" y="-88">330</text></a></g></g><rect fill="none" stroke="#DDD" width="70" height="30" rx="8" ry="8" x="1045" y="215"/><text text-anchor="middle" fill="#333" x="1080" y="235">13-10</text><g transform="translate(1045,255)"><g><a target="_top" xlink:href="dtp-sliceTagAwesome-step2628000-ofs3-col16-cat0.html"><rect style="display:none" class="hcell-act-col16-cat0" fill="#777" stroke="#000" stroke-width="5" width="70" height="98" x="0" y="5" rx="8" ry="8"/><rect class="hcell-col16-cat0" fill="#777" stroke="#DDD" width="70" height="108" x="0" y="0" rx="8" ry="8"/><text text-anchor="middle" fill="#FFF" x="35" y="20">-331</text></a></g></g></g><g><g transform="translate(1125,205)"><g><a target="_top" xlink:href="dtp-sliceTagAwesome-step2628000-ofs3-col17-cat0.html"><rect style="display:none" class="hcell-act-col17-cat0" fill="#777" stroke="#000" stroke-width="5" width="70" height="152" x="0" y="-157" rx="8" ry="8"/><rect class="hcell-col17-cat0" fill="#777" stroke="#DDD" width="70" height="162" x="0" y="-162" rx="8" ry="8"/><text text-anchor="middle" fill="#FFF" x="35" y="-142">494</text></a></g></g><rect fill="none" stroke="#DDD" width="70" height="30" rx="8" ry="8" x="1125" y="215"/><text text-anchor="middle" fill="#333" x="1160" y="235">13-12</text><g transform="translate(1125,255)"><g><a target="_top" xlink:href="dtp-sliceTagAwesome-step2628000-ofs3-col17-cat0.html"><rect style="display:none" class="hcell-act-col17-cat0" fill="#777" stroke="#000" stroke-width="5" width="70" height="152" x="0" y="5" rx="8" ry="8"/><rect class="hcell-col17-cat0" fill="#777" stroke="#DDD" width="70" height="162" x="0" y="0" rx="8" ry="8"/><text text-anchor="middle" fill="#FFF" x="35" y="20">-495</text></a></g></g></g><g><g transform="translate(1205,205)"><g><a target="_top" xlink:href="dtp-sliceTagAwesome-step2628000-ofs3-col18-cat0.html"><rect style="display:none" class="hcell-act-col18-cat0" fill="#777" stroke="#000" stroke-width="5" width="70" height="46" x="0" y="-51" rx="8" ry="8"/><rect class="hcell-col18-cat0" fill="#777" stroke="#DDD" width="70" height="56" x="0" y="-56" rx="8" ry="8"/><text text-anchor="middle" fill="#FFF" x="35" y="-36">172</text></a></g></g><rect fill="none" stroke="#DDD" width="70" height="30" rx="8" ry="8" x="1205" y="215"/><text text-anchor="middle" fill="#333" x="1240" y="235">13-12</text><g transform="translate(1205,255)"><g><a target="_top" xlink:href="dtp-sliceTagAwesome-step2628000-ofs3-col18-cat0.html"><rect style="display:none" class="hcell-act-col18-cat0" fill="#777" stroke="#000" stroke-width="5" width="70" height="46" x="0" y="5" rx="8" ry="8"/><rect class="hcell-col18-cat0" fill="#777" stroke="#DDD" width="70" height="56" x="0" y="0" rx="8" ry="8"/><text text-anchor="middle" fill="#FFF" x="35" y="20">-173</text></a></g></g></g></svg>