<svg xmlns="http://www.w3.org/2000/svg" xmlns:xlink="http://www.w3.org/1999/xlink" width="100%" height="100%" viewBox="0 0 1280 459"><g><g transform="translate(5,180)"><g><a target="_top" xlink:href="dtp-sliceTagVisa4933-step5605201-ofs0-col0-cat0.html"><rect style="display:none" class="hcell-act-col0-cat0" fill="#777" stroke="#000" stroke-width="5" width="70" height="110" x="0" y="-115" rx="8" ry="8"/><rect class="hcell-col0-cat0" fill="#777" stroke="#DDD" width="70" height="120" x="0" y="-120" rx="8" ry="8"/><text text-anchor="middle" fill="#FFF" x="35" y="-100">5456</text></a></g></g><rect fill="none" stroke="#DDD" width="70" height="30" rx="8" ry="8" x="5" y="190"/><text text-anchor="middle" fill="#333" x="40" y="210">12-07</text><g transform="translate(5,230)"><g><a target="_top" xlink:href="dtp-sliceTagVisa4933-step5605201-ofs0-col0-cat0.html"><rect style="display:none" class="hcell-act-col0-cat0" fill="#777" stroke="#000" stroke-width="5" width="70" height="95" x="0" y="5" rx="8" ry="8"/><rect class="hcell-col0-cat0" fill="#777" stroke="#DDD" width="70" height="105" x="0" y="0" rx="8" ry="8"/><text text-anchor="middle" fill="#FFF" x="35" y="20">-4758</text></a></g></g></g><g><g transform="translate(85,180)"><g><a target="_top" xlink:href="dtp-sliceTagVisa4933-step5605201-ofs0-col1-cat0.html"><rect style="display:none" class="hcell-act-col1-cat0" fill="#777" stroke="#000" stroke-width="5" width="70" height="107" x="0" y="-112" rx="8" ry="8"/><rect class="hcell-col1-cat0" fill="#777" stroke="#DDD" width="70" height="117" x="0" y="-117" rx="8" ry="8"/><text text-anchor="middle" fill="#FFF" x="35" y="-97">5300</text></a></g></g><rect fill="none" stroke="#DDD" width="70" height="30" rx="8" ry="8" x="85" y="190"/><text text-anchor="middle" fill="#333" x="120" y="210">12-09</text><g transform="translate(85,230)"><g><a target="_top" xlink:href="dtp-sliceTagVisa4933-step5605201-ofs0-col1-cat0.html"><rect style="display:none" class="hcell-act-col1-cat0" fill="#777" stroke="#000" stroke-width="5" width="70" height="111" x="0" y="5" rx="8" ry="8"/><rect class="hcell-col1-cat0" fill="#777" stroke="#DDD" width="70" height="121" x="0" y="0" rx="8" ry="8"/><text text-anchor="middle" fill="#FFF" x="35" y="20">-5486</text></a></g></g></g><g><g transform="translate(165,180)"><g><a target="_top" xlink:href="dtp-sliceTagVisa4933-step5605201-ofs0-col2-cat0.html"><rect style="display:none" class="hcell-act-col2-cat0" fill="#777" stroke="#000" stroke-width="5" width="70" height="132" x="0" y="-137" rx="8" ry="8"/><rect class="hcell-col2-cat0" fill="#777" stroke="#DDD" width="70" height="142" x="0" y="-142" rx="8" ry="8"/><text text-anchor="middle" fill="#FFF" x="35" y="-122">6432</text></a></g></g><rect fill="none" stroke="#DDD" width="70" height="30" rx="8" ry="8" x="165" y="190"/><text text-anchor="middle" fill="#333" x="200" y="210">12-11</text><g transform="translate(165,230)"><g><a target="_top" xlink:href="dtp-sliceTagVisa4933-step5605201-ofs0-col2-cat0.html"><rect style="display:none" class="hcell-act-col2-cat0" fill="#777" stroke="#000" stroke-width="5" width="70" height="88" x="0" y="5" rx="8" ry="8"/><rect class="hcell-col2-cat0" fill="#777" stroke="#DDD" width="70" height="98" x="0" y="0" rx="8" ry="8"/><text text-anchor="middle" fill="#FFF" x="35" y="20">-4477</text></a></g></g></g><g><g transform="translate(245,180)"><g><a target="_top" xlink:href="dtp-sliceTagVisa4933-step5605201-ofs0-col3-cat0.html"><rect style="display:none" class="hcell-act-col3-cat0" fill="#777" stroke="#000" stroke-width="5" width="70" height="144" x="0" y="-149" rx="8" ry="8"/><rect class="hcell-col3-cat0" fill="#777" stroke="#DDD" width="70" height="154" x="0" y="-154" rx="8" ry="8"/><text text-anchor="middle" fill="#FFF" x="35" y="-134">6983</text></a></g></g><rect fill="none" stroke="#DDD" width="70" height="30" rx="8" ry="8" x="245" y="190"/><text text-anchor="middle" fill="#333" x="280" y="210">13-01</text><g transform="translate(245,230)"><g><a target="_top" xlink:href="dtp-sliceTagVisa4933-step5605201-ofs0-col3-cat0.html"><rect style="display:none" class="hcell-act-col3-cat0" fill="#777" stroke="#000" stroke-width="5" width="70" height="67" x="0" y="5" rx="8" ry="8"/><rect class="hcell-col3-cat0" fill="#777" stroke="#DDD" width="70" height="77" x="0" y="0" rx="8" ry="8"/><text text-anchor="middle" fill="#FFF" x="35" y="20">-3525</text></a></g></g></g><g><g transform="translate(325,180)"><g><a target="_top" xlink:href="dtp-sliceTagVisa4933-step5605201-ofs0-col4-cat0.html"><rect style="display:none" class="hcell-act-col4-cat0" fill="#777" stroke="#000" stroke-width="5" width="70" height="162" x="0" y="-167" rx="8" ry="8"/><rect class="hcell-col4-cat0" fill="#777" stroke="#DDD" width="70" height="172" x="0" y="-172" rx="8" ry="8"/><text text-anchor="middle" fill="#FFF" x="35" y="-152">7800</text></a></g></g><rect fill="none" stroke="#DDD" width="70" height="30" rx="8" ry="8" x="325" y="190"/><text text-anchor="middle" fill="#333" x="360" y="210">13-03</text><g transform="translate(325,230)"><g><a target="_top" xlink:href="dtp-sliceTagVisa4933-step5605201-ofs0-col4-cat0.html"><rect style="display:none" class="hcell-act-col4-cat0" fill="#777" stroke="#000" stroke-width="5" width="70" height="125" x="0" y="5" rx="8" ry="8"/><rect class="hcell-col4-cat0" fill="#777" stroke="#DDD" width="70" height="135" x="0" y="0" rx="8" ry="8"/><text text-anchor="middle" fill="#FFF" x="35" y="20">-6135</text></a></g></g></g><g><g transform="translate(405,180)"><g><a target="_top" xlink:href="dtp-sliceTagVisa4933-step5605201-ofs0-col5-cat0.html"><rect style="display:none" class="hcell-act-col5-cat0" fill="#777" stroke="#000" stroke-width="5" width="70" height="108" x="0" y="-113" rx="8" ry="8"/><rect class="hcell-col5-cat0" fill="#777" stroke="#DDD" width="70" height="118" x="0" y="-118" rx="8" ry="8"/><text text-anchor="middle" fill="#FFF" x="35" y="-98">5339</text></a></g></g><rect fill="none" stroke="#DDD" width="70" height="30" rx="8" ry="8" x="405" y="190"/><text text-anchor="middle" fill="#333" x="440" y="210">13-05</text><g transform="translate(405,230)"><g><a target="_top" xlink:href="dtp-sliceTagVisa4933-step5605201-ofs0-col5-cat0.html"><rect style="display:none" class="hcell-act-col5-cat0" fill="#777" stroke="#000" stroke-width="5" width="70" height="214" x="0" y="5" rx="8" ry="8"/><rect class="hcell-col5-cat0" fill="#777" stroke="#DDD" width="70" height="224" x="0" y="0" rx="8" ry="8"/><text text-anchor="middle" fill="#FFF" x="35" y="20">-10178</text></a></g></g></g><g><g transform="translate(485,180)"><g><a target="_top" xlink:href="dtp-sliceTagVisa4933-step5605201-ofs0-col6-cat0.html"><rect style="display:none" class="hcell-act-col6-cat0" fill="#777" stroke="#000" stroke-width="5" width="70" height="105" x="0" y="-110" rx="8" ry="8"/><rect class="hcell-col6-cat0" fill="#777" stroke="#DDD" width="70" height="115" x="0" y="-115" rx="8" ry="8"/><text text-anchor="middle" fill="#FFF" x="35" y="-95">5224</text></a></g></g><rect fill="none" stroke="#DDD" width="70" height="30" rx="8" ry="8" x="485" y="190"/><text text-anchor="middle" fill="#333" x="520" y="210">13-07</text><g transform="translate(485,230)"><g><a target="_top" xlink:href="dtp-sliceTagVisa4933-step5605201-ofs0-col6-cat0.html"><rect style="display:none" class="hcell-act-col6-cat0" fill="#777" stroke="#000" stroke-width="5" width="70" height="64" x="0" y="5" rx="8" ry="8"/><rect class="hcell-col6-cat0" fill="#777" stroke="#DDD" width="70" height="74" x="0" y="0" rx="8" ry="8"/><text text-anchor="middle" fill="#FFF" x="35" y="20">-3391</text></a></g></g></g><g><g transform="translate(565,180)"><g><a target="_top" xlink:href="dtp-sliceTagVisa4933-step5605201-ofs0-col7-cat0.html"><rect style="display:none" class="hcell-act-col7-cat0" fill="#777" stroke="#000" stroke-width="5" width="70" height="115" x="0" y="-120" rx="8" ry="8"/><rect class="hcell-col7-cat0" fill="#777" stroke="#DDD" width="70" height="125" x="0" y="-125" rx="8" ry="8"/><text text-anchor="middle" fill="#FFF" x="35" y="-105">5682</text></a></g></g><rect fill="none" stroke="#DDD" width="70" height="30" rx="8" ry="8" x="565" y="190"/><text text-anchor="middle" fill="#333" x="600" y="210">13-09</text><g transform="translate(565,230)"><g><a target="_top" xlink:href="dtp-sliceTagVisa4933-step5605201-ofs0-col7-cat0.html"><rect style="display:none" class="hcell-act-col7-cat0" fill="#777" stroke="#000" stroke-width="5" width="70" height="97" x="0" y="5" rx="8" ry="8"/><rect class="hcell-col7-cat0" fill="#777" stroke="#DDD" width="70" height="107" x="0" y="0" rx="8" ry="8"/><text text-anchor="middle" fill="#FFF" x="35" y="20">-4866</text></a></g></g></g><g><g transform="translate(645,180)"><g><a target="_top" xlink:href="dtp-sliceTagVisa4933-step5605201-ofs0-col8-cat0.html"><rect style="display:none" class="hcell-act-col8-cat0" fill="#777" stroke="#000" stroke-width="5" width="70" height="106" x="0" y="-111" rx="8" ry="8"/><rect class="hcell-col8-cat0" fill="#777" stroke="#DDD" width="70" height="116" x="0" y="-116" rx="8" ry="8"/><text text-anchor="middle" fill="#FFF" x="35" y="-96">5260</text></a></g></g><rect fill="none" stroke="#DDD" width="70" height="30" rx="8" ry="8" x="645" y="190"/><text text-anchor="middle" fill="#333" x="680" y="210">13-12</text><g transform="translate(645,230)"><g><a target="_top" xlink:href="dtp-sliceTagVisa4933-step5605201-ofs0-col8-cat0.html"><rect style="display:none" class="hcell-act-col8-cat0" fill="#777" stroke="#000" stroke-width="5" width="70" height="115" x="0" y="5" rx="8" ry="8"/><rect class="hcell-col8-cat0" fill="#777" stroke="#DDD" width="70" height="125" x="0" y="0" rx="8" ry="8"/><text text-anchor="middle" fill="#FFF" x="35" y="20">-5687</text></a></g></g></g><g><g transform="translate(725,180)"><g><a target="_top" xlink:href="dtp-sliceTagVisa4933-step5605201-ofs0-col9-cat0.html"><rect style="display:none" class="hcell-act-col9-cat0" fill="#777" stroke="#000" stroke-width="5" width="70" height="138" x="0" y="-143" rx="8" ry="8"/><rect class="hcell-col9-cat0" fill="#777" stroke="#DDD" width="70" height="148" x="0" y="-148" rx="8" ry="8"/><text text-anchor="middle" fill="#FFF" x="35" y="-128">6726</text></a></g></g><rect fill="none" stroke="#DDD" width="70" height="30" rx="8" ry="8" x="725" y="190"/><text text-anchor="middle" fill="#333" x="760" y="210">14-02</text><g transform="translate(725,230)"><g><a target="_top" xlink:href="dtp-sliceTagVisa4933-step5605201-ofs0-col9-cat0.html"><rect style="display:none" class="hcell-act-col9-cat0" fill="#777" stroke="#000" stroke-width="5" width="70" height="143" x="0" y="5" rx="8" ry="8"/><rect class="hcell-col9-cat0" fill="#777" stroke="#DDD" width="70" height="153" x="0" y="0" rx="8" ry="8"/><text text-anchor="middle" fill="#FFF" x="35" y="20">-6962</text></a></g></g></g><g><g transform="translate(805,180)"><g><a target="_top" xlink:href="dtp-sliceTagVisa4933-step5605201-ofs0-col10-cat0.html"><rect style="display:none" class="hcell-act-col10-cat0" fill="#777" stroke="#000" stroke-width="5" width="70" height="165" x="0" y="-170" rx="8" ry="8"/><rect class="hcell-col10-cat0" fill="#777" stroke="#DDD" width="70" height="175" x="0" y="-175" rx="8" ry="8"/><text text-anchor="middle" fill="#FFF" x="35" y="-155">7919</text></a></g></g><rect fill="none" stroke="#DDD" width="70" height="30" rx="8" ry="8" x="805" y="190"/><text text-anchor="middle" fill="#333" x="840" y="210">14-04</text><g transform="translate(805,230)"><g><a target="_top" xlink:href="dtp-sliceTagVisa4933-step5605201-ofs0-col10-cat0.html"><rect style="display:none" class="hcell-act-col10-cat0" fill="#777" stroke="#000" stroke-width="5" width="70" height="111" x="0" y="5" rx="8" ry="8"/><rect class="hcell-col10-cat0" fill="#777" stroke="#DDD" width="70" height="121" x="0" y="0" rx="8" ry="8"/><text text-anchor="middle" fill="#FFF" x="35" y="20">-5509</text></a></g></g></g><g><g transform="translate(885,180)"><g><a target="_top" xlink:href="dtp-sliceTagVisa4933-step5605201-ofs0-col11-cat0.html"><rect style="display:none" class="hcell-act-col11-cat0" fill="#777" stroke="#000" stroke-width="5" width="70" height="107" x="0" y="-112" rx="8" ry="8"/><rect class="hcell-col11-cat0" fill="#777" stroke="#DDD" width="70" height="117" x="0" y="-117" rx="8" ry="8"/><text text-anchor="middle" fill="#FFF" x="35" y="-97">5294</text></a></g></g><rect fill="none" stroke="#DDD" width="70" height="30" rx="8" ry="8" x="885" y="190"/><text text-anchor="middle" fill="#333" x="920" y="210">14-06</text><g transform="translate(885,230)"><g><a target="_top" xlink:href="dtp-sliceTagVisa4933-step5605201-ofs0-col11-cat0.html"><rect style="display:none" class="hcell-act-col11-cat0" fill="#777" stroke="#000" stroke-width="5" width="70" height="106" x="0" y="5" rx="8" ry="8"/><rect class="hcell-col11-cat0" fill="#777" stroke="#DDD" width="70" height="116" x="0" y="0" rx="8" ry="8"/><text text-anchor="middle" fill="#FFF" x="35" y="20">-5252</text></a></g></g></g><g><g transform="translate(965,180)"><g><a target="_top" xlink:href="dtp-sliceTagVisa4933-step5605201-ofs0-col12-cat0.html"><rect style="display:none" class="hcell-act-col12-cat0" fill="#777" stroke="#000" stroke-width="5" width="70" height="147" x="0" y="-152" rx="8" ry="8"/><rect class="hcell-col12-cat0" fill="#777" stroke="#DDD" width="70" height="157" x="0" y="-157" rx="8" ry="8"/><text text-anchor="middle" fill="#FFF" x="35" y="-137">7140</text></a></g></g><rect fill="none" stroke="#DDD" width="70" height="30" rx="8" ry="8" x="965" y="190"/><text text-anchor="middle" fill="#333" x="1000" y="210">14-08</text><g transform="translate(965,230)"><g><a target="_top" xlink:href="dtp-sliceTagVisa4933-step5605201-ofs0-col12-cat0.html"><rect style="display:none" class="hcell-act-col12-cat0" fill="#777" stroke="#000" stroke-width="5" width="70" height="174" x="0" y="5" rx="8" ry="8"/><rect class="hcell-col12-cat0" fill="#777" stroke="#DDD" width="70" height="184" x="0" y="0" rx="8" ry="8"/><text text-anchor="middle" fill="#FFF" x="35" y="20">-8361</text></a></g></g></g><g><g transform="translate(1045,180)"><g><a target="_top" xlink:href="dtp-sliceTagVisa4933-step5605201-ofs0-col13-cat0.html"><rect style="display:none" class="hcell-act-col13-cat0" fill="#777" stroke="#000" stroke-width="5" width="70" height="143" x="0" y="-148" rx="8" ry="8"/><rect class="hcell-col13-cat0" fill="#777" stroke="#DDD" width="70" height="153" x="0" y="-153" rx="8" ry="8"/><text text-anchor="middle" fill="#FFF" x="35" y="-133">6927</text></a></g></g><rect fill="none" stroke="#DDD" width="70" height="30" rx="8" ry="8" x="1045" y="190"/><text text-anchor="middle" fill="#333" x="1080" y="210">14-10</text><g transform="translate(1045,230)"><g><a target="_top" xlink:href="dtp-sliceTagVisa4933-step5605201-ofs0-col13-cat0.html"><rect style="display:none" class="hcell-act-col13-cat0" fill="#777" stroke="#000" stroke-width="5" width="70" height="83" x="0" y="5" rx="8" ry="8"/><rect class="hcell-col13-cat0" fill="#777" stroke="#DDD" width="70" height="93" x="0" y="0" rx="8" ry="8"/><text text-anchor="middle" fill="#FFF" x="35" y="20">-4209</text></a></g></g></g><g><g transform="translate(1125,180)"><g><a target="_top" xlink:href="dtp-sliceTagVisa4933-step5605201-ofs0-col14-cat0.html"><rect style="display:none" class="hcell-act-col14-cat0" fill="#777" stroke="#000" stroke-width="5" width="70" height="106" x="0" y="-111" rx="8" ry="8"/><rect class="hcell-col14-cat0" fill="#777" stroke="#DDD" width="70" height="116" x="0" y="-116" rx="8" ry="8"/><text text-anchor="middle" fill="#FFF" x="35" y="-96">5277</text></a></g></g><rect fill="none" stroke="#DDD" width="70" height="30" rx="8" ry="8" x="1125" y="190"/><text text-anchor="middle" fill="#333" x="1160" y="210">14-12</text><g transform="translate(1125,230)"><g><a target="_top" xlink:href="dtp-sliceTagVisa4933-step5605201-ofs0-col14-cat0.html"><rect style="display:none" class="hcell-act-col14-cat0" fill="#777" stroke="#000" stroke-width="5" width="70" height="214" x="0" y="5" rx="8" ry="8"/><rect class="hcell-col14-cat0" fill="#777" stroke="#DDD" width="70" height="224" x="0" y="0" rx="8" ry="8"/><text text-anchor="middle" fill="#FFF" x="35" y="20">-10146</text></a></g></g></g><g><g transform="translate(1205,180)"><g><a target="_top" xlink:href="dtp-sliceTagVisa4933-step5605201-ofs0-col15-cat0.html"><rect style="display:none" class="hcell-act-col15-cat0" fill="#777" stroke="#000" stroke-width="5" width="70" height="122" x="0" y="-127" rx="8" ry="8"/><rect class="hcell-col15-cat0" fill="#777" stroke="#DDD" width="70" height="132" x="0" y="-132" rx="8" ry="8"/><text text-anchor="middle" fill="#FFF" x="35" y="-112">6007</text></a></g></g><rect fill="none" stroke="#DDD" width="70" height="30" rx="8" ry="8" x="1205" y="190"/><text text-anchor="middle" fill="#333" x="1240" y="210">15-03</text><g transform="translate(1205,230)"><g><a target="_top" xlink:href="dtp-sliceTagVisa4933-step5605201-ofs0-col15-cat0.html"><rect style="display:none" class="hcell-act-col15-cat0" fill="#777" stroke="#000" stroke-width="5" width="70" height="185" x="0" y="5" rx="8" ry="8"/><rect class="hcell-col15-cat0" fill="#777" stroke="#DDD" width="70" height="195" x="0" y="0" rx="8" ry="8"/><text text-anchor="middle" fill="#FFF" x="35" y="20">-8859</text></a></g></g></g></svg>