<svg xmlns="http://www.w3.org/2000/svg" xmlns:xlink="http://www.w3.org/1999/xlink" width="100%" height="100%" viewBox="0 0 1280 588"><g><g transform="translate(5,215)"></g><rect fill="none" stroke="#DDD" width="70" height="30" rx="8" ry="8" x="5" y="225"/><text text-anchor="middle" fill="#333" x="40" y="245">14-01</text><g transform="translate(5,265)"></g></g><g><g transform="translate(85,215)"></g><rect fill="none" stroke="#DDD" width="70" height="30" rx="8" ry="8" x="85" y="225"/><text text-anchor="middle" fill="#333" x="120" y="245">14-03</text><g transform="translate(85,265)"></g></g><g><g transform="translate(165,215)"></g><rect fill="none" stroke="#DDD" width="70" height="30" rx="8" ry="8" x="165" y="225"/><text text-anchor="middle" fill="#333" x="200" y="245">14-04</text><g transform="translate(165,265)"></g></g><g><g transform="translate(245,215)"></g><rect fill="none" stroke="#DDD" width="70" height="30" rx="8" ry="8" x="245" y="225"/><text text-anchor="middle" fill="#333" x="280" y="245">14-05</text><g transform="translate(245,265)"></g></g><g><g transform="translate(325,215)"></g><rect fill="none" stroke="#DDD" width="70" height="30" rx="8" ry="8" x="325" y="225"/><text text-anchor="middle" fill="#333" x="360" y="245">14-06</text><g transform="translate(325,265)"></g></g><g><g transform="translate(405,215)"></g><rect fill="none" stroke="#DDD" width="70" height="30" rx="8" ry="8" x="405" y="225"/><text text-anchor="middle" fill="#333" x="440" y="245">14-07</text><g transform="translate(405,265)"></g></g><g><g transform="translate(485,215)"><g><a target="_top" xlink:href="dtp-slice0-step2628000-ofs19-col25-cat3.html"><rect style="display:none" class="hcell-act-col25-cat3" fill="#5BC0DE" stroke="#000" stroke-width="5" width="70" height="20" x="0" y="-25" rx="8" ry="8"/><rect class="hcell-col25-cat3" fill="#5BC0DE" stroke="#DDD" width="70" height="30" x="0" y="-30" rx="8" ry="8"/><text text-anchor="middle" fill="#FFF" x="35" y="-10">27</text></a><g transform="translate(0,-30)"><g><a target="_top" xlink:href="dtp-slice0-step2628000-ofs19-col25-cat0.html"><rect style="display:none" class="hcell-act-col25-cat0" fill="#D9534F" stroke="#000" stroke-width="5" width="70" height="20" x="0" y="-25" rx="8" ry="8"/><rect class="hcell-col25-cat0" fill="#D9534F" stroke="#DDD" width="70" height="30" x="0" y="-30" rx="8" ry="8"/><text text-anchor="middle" fill="#FFF" x="35" y="-10">59</text></a><g transform="translate(0,-30)"><g><a target="_top" xlink:href="dtp-slice0-step2628000-ofs19-col25-cat4.html"><rect style="display:none" class="hcell-act-col25-cat4" fill="#337AB7" stroke="#000" stroke-width="5" width="70" height="20" x="0" y="-25" rx="8" ry="8"/><rect class="hcell-col25-cat4" fill="#337AB7" stroke="#DDD" width="70" height="30" x="0" y="-30" rx="8" ry="8"/><text text-anchor="middle" fill="#FFF" x="35" y="-10">71</text></a><g transform="translate(0,-30)"><g><a target="_top" xlink:href="dtp-slice0-step2628000-ofs19-col25-cat2.html"><rect style="display:none" class="hcell-act-col25-cat2" fill="#5CB85C" stroke="#000" stroke-width="5" width="70" height="25" x="0" y="-30" rx="8" ry="8"/><rect class="hcell-col25-cat2" fill="#5CB85C" stroke="#DDD" width="70" height="35" x="0" y="-35" rx="8" ry="8"/><text text-anchor="middle" fill="#FFF" x="35" y="-15">491</text></a></g></g></g></g></g></g></g></g><rect fill="none" stroke="#DDD" width="70" height="30" rx="8" ry="8" x="485" y="225"/><text text-anchor="middle" fill="#333" x="520" y="245">14-08</text><g transform="translate(485,265)"><g><a target="_top" xlink:href="dtp-slice0-step2628000-ofs19-col25-cat5.html"><rect style="display:none" class="hcell-act-col25-cat5" fill="#777" stroke="#000" stroke-width="5" width="70" height="20" x="0" y="5" rx="8" ry="8"/><rect class="hcell-col25-cat5" fill="#777" stroke="#DDD" width="70" height="30" x="0" y="0" rx="8" ry="8"/><text text-anchor="middle" fill="#FFF" x="35" y="20">-13</text></a><g transform="translate(0,30)"><g><a target="_top" xlink:href="dtp-slice0-step2628000-ofs19-col25-cat1.html"><rect style="display:none" class="hcell-act-col25-cat1" fill="#F0AD4E" stroke="#000" stroke-width="5" width="70" height="20" x="0" y="5" rx="8" ry="8"/><rect class="hcell-col25-cat1" fill="#F0AD4E" stroke="#DDD" width="70" height="30" x="0" y="0" rx="8" ry="8"/><text text-anchor="middle" fill="#FFF" x="35" y="20">-236</text></a></g></g></g></g></g><g><g transform="translate(565,215)"><g><a target="_top" xlink:href="dtp-slice0-step2628000-ofs19-col26-cat3.html"><rect style="display:none" class="hcell-act-col26-cat3" fill="#5BC0DE" stroke="#000" stroke-width="5" width="70" height="20" x="0" y="-25" rx="8" ry="8"/><rect class="hcell-col26-cat3" fill="#5BC0DE" stroke="#DDD" width="70" height="30" x="0" y="-30" rx="8" ry="8"/><text text-anchor="middle" fill="#FFF" x="35" y="-10">51</text></a><g transform="translate(0,-30)"><g><a target="_top" xlink:href="dtp-slice0-step2628000-ofs19-col26-cat1.html"><rect style="display:none" class="hcell-act-col26-cat1" fill="#F0AD4E" stroke="#000" stroke-width="5" width="70" height="20" x="0" y="-25" rx="8" ry="8"/><rect class="hcell-col26-cat1" fill="#F0AD4E" stroke="#DDD" width="70" height="30" x="0" y="-30" rx="8" ry="8"/><text text-anchor="middle" fill="#FFF" x="35" y="-10">111</text></a><g transform="translate(0,-30)"><g><a target="_top" xlink:href="dtp-slice0-step2628000-ofs19-col26-cat4.html"><rect style="display:none" class="hcell-act-col26-cat4" fill="#337AB7" stroke="#000" stroke-width="5" width="70" height="20" x="0" y="-25" rx="8" ry="8"/><rect class="hcell-col26-cat4" fill="#337AB7" stroke="#DDD" width="70" height="30" x="0" y="-30" rx="8" ry="8"/><text text-anchor="middle" fill="#FFF" x="35" y="-10">220</text></a><g transform="translate(0,-30)"><g><a target="_top" xlink:href="dtp-slice0-step2628000-ofs19-col26-cat0.html"><rect style="display:none" class="hcell-act-col26-cat0" fill="#D9534F" stroke="#000" stroke-width="5" width="70" height="110" x="0" y="-115" rx="8" ry="8"/><rect class="hcell-col26-cat0" fill="#D9534F" stroke="#DDD" width="70" height="120" x="0" y="-120" rx="8" ry="8"/><text text-anchor="middle" fill="#FFF" x="35" y="-100">1669</text></a></g></g></g></g></g></g></g></g><rect fill="none" stroke="#DDD" width="70" height="30" rx="8" ry="8" x="565" y="225"/><text text-anchor="middle" fill="#333" x="600" y="245">14-08</text><g transform="translate(565,265)"><g><a target="_top" xlink:href="dtp-slice0-step2628000-ofs19-col26-cat5.html"><rect style="display:none" class="hcell-act-col26-cat5" fill="#777" stroke="#000" stroke-width="5" width="70" height="20" x="0" y="5" rx="8" ry="8"/><rect class="hcell-col26-cat5" fill="#777" stroke="#DDD" width="70" height="30" x="0" y="0" rx="8" ry="8"/><text text-anchor="middle" fill="#FFF" x="35" y="20">-14</text></a><g transform="translate(0,30)"><g><a target="_top" xlink:href="dtp-slice0-step2628000-ofs19-col26-cat2.html"><rect style="display:none" class="hcell-act-col26-cat2" fill="#5CB85C" stroke="#000" stroke-width="5" width="70" height="20" x="0" y="5" rx="8" ry="8"/><rect class="hcell-col26-cat2" fill="#5CB85C" stroke="#DDD" width="70" height="30" x="0" y="0" rx="8" ry="8"/><text text-anchor="middle" fill="#FFF" x="35" y="20">-200</text></a></g></g></g></g></g><g><g transform="translate(645,215)"><g><a target="_top" xlink:href="dtp-slice0-step2628000-ofs19-col27-cat5.html"><rect style="display:none" class="hcell-act-col27-cat5" fill="#777" stroke="#000" stroke-width="5" width="70" height="20" x="0" y="-25" rx="8" ry="8"/><rect class="hcell-col27-cat5" fill="#777" stroke="#DDD" width="70" height="30" x="0" y="-30" rx="8" ry="8"/><text text-anchor="middle" fill="#FFF" x="35" y="-10">5</text></a><g transform="translate(0,-30)"><g><a target="_top" xlink:href="dtp-slice0-step2628000-ofs19-col27-cat1.html"><rect style="display:none" class="hcell-act-col27-cat1" fill="#F0AD4E" stroke="#000" stroke-width="5" width="70" height="20" x="0" y="-25" rx="8" ry="8"/><rect class="hcell-col27-cat1" fill="#F0AD4E" stroke="#DDD" width="70" height="30" x="0" y="-30" rx="8" ry="8"/><text text-anchor="middle" fill="#FFF" x="35" y="-10">63</text></a><g transform="translate(0,-30)"><g><a target="_top" xlink:href="dtp-slice0-step2628000-ofs19-col27-cat4.html"><rect style="display:none" class="hcell-act-col27-cat4" fill="#337AB7" stroke="#000" stroke-width="5" width="70" height="20" x="0" y="-25" rx="8" ry="8"/><rect class="hcell-col27-cat4" fill="#337AB7" stroke="#DDD" width="70" height="30" x="0" y="-30" rx="8" ry="8"/><text text-anchor="middle" fill="#FFF" x="35" y="-10">158</text></a></g></g></g></g></g></g><rect fill="none" stroke="#DDD" width="70" height="30" rx="8" ry="8" x="645" y="225"/><text text-anchor="middle" fill="#333" x="680" y="245">14-10</text><g transform="translate(645,265)"><g><a target="_top" xlink:href="dtp-slice0-step2628000-ofs19-col27-cat3.html"><rect style="display:none" class="hcell-act-col27-cat3" fill="#5BC0DE" stroke="#000" stroke-width="5" width="70" height="20" x="0" y="5" rx="8" ry="8"/><rect class="hcell-col27-cat3" fill="#5BC0DE" stroke="#DDD" width="70" height="30" x="0" y="0" rx="8" ry="8"/><text text-anchor="middle" fill="#FFF" x="35" y="20">-11</text></a><g transform="translate(0,30)"><g><a target="_top" xlink:href="dtp-slice0-step2628000-ofs19-col27-cat0.html"><rect style="display:none" class="hcell-act-col27-cat0" fill="#D9534F" stroke="#000" stroke-width="5" width="70" height="20" x="0" y="5" rx="8" ry="8"/><rect class="hcell-col27-cat0" fill="#D9534F" stroke="#DDD" width="70" height="30" x="0" y="0" rx="8" ry="8"/><text text-anchor="middle" fill="#FFF" x="35" y="20">-154</text></a><g transform="translate(0,30)"><g><a target="_top" xlink:href="dtp-slice0-step2628000-ofs19-col27-cat2.html"><rect style="display:none" class="hcell-act-col27-cat2" fill="#5CB85C" stroke="#000" stroke-width="5" width="70" height="20" x="0" y="5" rx="8" ry="8"/><rect class="hcell-col27-cat2" fill="#5CB85C" stroke="#DDD" width="70" height="30" x="0" y="0" rx="8" ry="8"/><text text-anchor="middle" fill="#FFF" x="35" y="20">-311</text></a></g></g></g></g></g></g></g><g><g transform="translate(725,215)"><g><a target="_top" xlink:href="dtp-slice0-step2628000-ofs19-col28-cat5.html"><rect style="display:none" class="hcell-act-col28-cat5" fill="#777" stroke="#000" stroke-width="5" width="70" height="20" x="0" y="-25" rx="8" ry="8"/><rect class="hcell-col28-cat5" fill="#777" stroke="#DDD" width="70" height="30" x="0" y="-30" rx="8" ry="8"/><text text-anchor="middle" fill="#FFF" x="35" y="-10">10</text></a><g transform="translate(0,-30)"><g><a target="_top" xlink:href="dtp-slice0-step2628000-ofs19-col28-cat3.html"><rect style="display:none" class="hcell-act-col28-cat3" fill="#5BC0DE" stroke="#000" stroke-width="5" width="70" height="20" x="0" y="-25" rx="8" ry="8"/><rect class="hcell-col28-cat3" fill="#5BC0DE" stroke="#DDD" width="70" height="30" x="0" y="-30" rx="8" ry="8"/><text text-anchor="middle" fill="#FFF" x="35" y="-10">43</text></a><g transform="translate(0,-30)"><g><a target="_top" xlink:href="dtp-slice0-step2628000-ofs19-col28-cat4.html"><rect style="display:none" class="hcell-act-col28-cat4" fill="#337AB7" stroke="#000" stroke-width="5" width="70" height="20" x="0" y="-25" rx="8" ry="8"/><rect class="hcell-col28-cat4" fill="#337AB7" stroke="#DDD" width="70" height="30" x="0" y="-30" rx="8" ry="8"/><text text-anchor="middle" fill="#FFF" x="35" y="-10">152</text></a><g transform="translate(0,-30)"><g><a target="_top" xlink:href="dtp-slice0-step2628000-ofs19-col28-cat0.html"><rect style="display:none" class="hcell-act-col28-cat0" fill="#D9534F" stroke="#000" stroke-width="5" width="70" height="45" x="0" y="-50" rx="8" ry="8"/><rect class="hcell-col28-cat0" fill="#D9534F" stroke="#DDD" width="70" height="55" x="0" y="-55" rx="8" ry="8"/><text text-anchor="middle" fill="#FFF" x="35" y="-35">764</text></a></g></g></g></g></g></g></g></g><rect fill="none" stroke="#DDD" width="70" height="30" rx="8" ry="8" x="725" y="225"/><text text-anchor="middle" fill="#333" x="760" y="245">14-10</text><g transform="translate(725,265)"><g><a target="_top" xlink:href="dtp-slice0-step2628000-ofs19-col28-cat2.html"><rect style="display:none" class="hcell-act-col28-cat2" fill="#5CB85C" stroke="#000" stroke-width="5" width="70" height="20" x="0" y="5" rx="8" ry="8"/><rect class="hcell-col28-cat2" fill="#5CB85C" stroke="#DDD" width="70" height="30" x="0" y="0" rx="8" ry="8"/><text text-anchor="middle" fill="#FFF" x="35" y="20">-89</text></a><g transform="translate(0,30)"><g><a target="_top" xlink:href="dtp-slice0-step2628000-ofs19-col28-cat1.html"><rect style="display:none" class="hcell-act-col28-cat1" fill="#F0AD4E" stroke="#000" stroke-width="5" width="70" height="20" x="0" y="5" rx="8" ry="8"/><rect class="hcell-col28-cat1" fill="#F0AD4E" stroke="#DDD" width="70" height="30" x="0" y="0" rx="8" ry="8"/><text text-anchor="middle" fill="#FFF" x="35" y="20">-244</text></a></g></g></g></g></g><g><g transform="translate(805,215)"><g><a target="_top" xlink:href="dtp-slice0-step2628000-ofs19-col29-cat3.html"><rect style="display:none" class="hcell-act-col29-cat3" fill="#5BC0DE" stroke="#000" stroke-width="5" width="70" height="20" x="0" y="-25" rx="8" ry="8"/><rect class="hcell-col29-cat3" fill="#5BC0DE" stroke="#DDD" width="70" height="30" x="0" y="-30" rx="8" ry="8"/><text text-anchor="middle" fill="#FFF" x="35" y="-10">1</text></a><g transform="translate(0,-30)"><g><a target="_top" xlink:href="dtp-slice0-step2628000-ofs19-col29-cat4.html"><rect style="display:none" class="hcell-act-col29-cat4" fill="#337AB7" stroke="#000" stroke-width="5" width="70" height="20" x="0" y="-25" rx="8" ry="8"/><rect class="hcell-col29-cat4" fill="#337AB7" stroke="#DDD" width="70" height="30" x="0" y="-30" rx="8" ry="8"/><text text-anchor="middle" fill="#FFF" x="35" y="-10">18</text></a><g transform="translate(0,-30)"><g><a target="_top" xlink:href="dtp-slice0-step2628000-ofs19-col29-cat2.html"><rect style="display:none" class="hcell-act-col29-cat2" fill="#5CB85C" stroke="#000" stroke-width="5" width="70" height="20" x="0" y="-25" rx="8" ry="8"/><rect class="hcell-col29-cat2" fill="#5CB85C" stroke="#DDD" width="70" height="30" x="0" y="-30" rx="8" ry="8"/><text text-anchor="middle" fill="#FFF" x="35" y="-10">163</text></a></g></g></g></g></g></g><rect fill="none" stroke="#DDD" width="70" height="30" rx="8" ry="8" x="805" y="225"/><text text-anchor="middle" fill="#333" x="840" y="245">14-12</text><g transform="translate(805,265)"><g><a target="_top" xlink:href="dtp-slice0-step2628000-ofs19-col29-cat5.html"><rect style="display:none" class="hcell-act-col29-cat5" fill="#777" stroke="#000" stroke-width="5" width="70" height="20" x="0" y="5" rx="8" ry="8"/><rect class="hcell-col29-cat5" fill="#777" stroke="#DDD" width="70" height="30" x="0" y="0" rx="8" ry="8"/><text text-anchor="middle" fill="#FFF" x="35" y="20">-46</text></a><g transform="translate(0,30)"><g><a target="_top" xlink:href="dtp-slice0-step2628000-ofs19-col29-cat1.html"><rect style="display:none" class="hcell-act-col29-cat1" fill="#F0AD4E" stroke="#000" stroke-width="5" width="70" height="20" x="0" y="5" rx="8" ry="8"/><rect class="hcell-col29-cat1" fill="#F0AD4E" stroke="#DDD" width="70" height="30" x="0" y="0" rx="8" ry="8"/><text text-anchor="middle" fill="#FFF" x="35" y="20">-84</text></a><g transform="translate(0,30)"><g><a target="_top" xlink:href="dtp-slice0-step2628000-ofs19-col29-cat0.html"><rect style="display:none" class="hcell-act-col29-cat0" fill="#D9534F" stroke="#000" stroke-width="5" width="70" height="20" x="0" y="5" rx="8" ry="8"/><rect class="hcell-col29-cat0" fill="#D9534F" stroke="#DDD" width="70" height="30" x="0" y="0" rx="8" ry="8"/><text text-anchor="middle" fill="#FFF" x="35" y="20">-106</text></a></g></g></g></g></g></g></g><g><g transform="translate(885,215)"><g><a target="_top" xlink:href="dtp-slice0-step2628000-ofs19-col30-cat2.html"><rect style="display:none" class="hcell-act-col30-cat2" fill="#5CB85C" stroke="#000" stroke-width="5" width="70" height="27" x="0" y="-32" rx="8" ry="8"/><rect class="hcell-col30-cat2" fill="#5CB85C" stroke="#DDD" width="70" height="37" x="0" y="-37" rx="8" ry="8"/><text text-anchor="middle" fill="#FFF" x="35" y="-17">525</text></a></g></g><rect fill="none" stroke="#DDD" width="70" height="30" rx="8" ry="8" x="885" y="225"/><text text-anchor="middle" fill="#333" x="920" y="245">14-12</text><g transform="translate(885,265)"><g><a target="_top" xlink:href="dtp-slice0-step2628000-ofs19-col30-cat3.html"><rect style="display:none" class="hcell-act-col30-cat3" fill="#5BC0DE" stroke="#000" stroke-width="5" width="70" height="20" x="0" y="5" rx="8" ry="8"/><rect class="hcell-col30-cat3" fill="#5BC0DE" stroke="#DDD" width="70" height="30" x="0" y="0" rx="8" ry="8"/><text text-anchor="middle" fill="#FFF" x="35" y="20">-7</text></a><g transform="translate(0,30)"><g><a target="_top" xlink:href="dtp-slice0-step2628000-ofs19-col30-cat5.html"><rect style="display:none" class="hcell-act-col30-cat5" fill="#777" stroke="#000" stroke-width="5" width="70" height="20" x="0" y="5" rx="8" ry="8"/><rect class="hcell-col30-cat5" fill="#777" stroke="#DDD" width="70" height="30" x="0" y="0" rx="8" ry="8"/><text text-anchor="middle" fill="#FFF" x="35" y="20">-12</text></a><g transform="translate(0,30)"><g><a target="_top" xlink:href="dtp-slice0-step2628000-ofs19-col30-cat4.html"><rect style="display:none" class="hcell-act-col30-cat4" fill="#337AB7" stroke="#000" stroke-width="5" width="70" height="20" x="0" y="5" rx="8" ry="8"/><rect class="hcell-col30-cat4" fill="#337AB7" stroke="#DDD" width="70" height="30" x="0" y="0" rx="8" ry="8"/><text text-anchor="middle" fill="#FFF" x="35" y="20">-149</text></a><g transform="translate(0,30)"><g><a target="_top" xlink:href="dtp-slice0-step2628000-ofs19-col30-cat0.html"><rect style="display:none" class="hcell-act-col30-cat0" fill="#D9534F" stroke="#000" stroke-width="5" width="70" height="20" x="0" y="5" rx="8" ry="8"/><rect class="hcell-col30-cat0" fill="#D9534F" stroke="#DDD" width="70" height="30" x="0" y="0" rx="8" ry="8"/><text text-anchor="middle" fill="#FFF" x="35" y="20">-201</text></a><g transform="translate(0,30)"><g><a target="_top" xlink:href="dtp-slice0-step2628000-ofs19-col30-cat1.html"><rect style="display:none" class="hcell-act-col30-cat1" fill="#F0AD4E" stroke="#000" stroke-width="5" width="70" height="20" x="0" y="5" rx="8" ry="8"/><rect class="hcell-col30-cat1" fill="#F0AD4E" stroke="#DDD" width="70" height="30" x="0" y="0" rx="8" ry="8"/><text text-anchor="middle" fill="#FFF" x="35" y="20">-204</text></a></g></g></g></g></g></g></g></g></g></g></g><g><g transform="translate(965,215)"><g><a target="_top" xlink:href="dtp-slice0-step2628000-ofs19-col31-cat0.html"><rect style="display:none" class="hcell-act-col31-cat0" fill="#D9534F" stroke="#000" stroke-width="5" width="70" height="20" x="0" y="-25" rx="8" ry="8"/><rect class="hcell-col31-cat0" fill="#D9534F" stroke="#DDD" width="70" height="30" x="0" y="-30" rx="8" ry="8"/><text text-anchor="middle" fill="#FFF" x="35" y="-10">16</text></a><g transform="translate(0,-30)"><g><a target="_top" xlink:href="dtp-slice0-step2628000-ofs19-col31-cat3.html"><rect style="display:none" class="hcell-act-col31-cat3" fill="#5BC0DE" stroke="#000" stroke-width="5" width="70" height="20" x="0" y="-25" rx="8" ry="8"/><rect class="hcell-col31-cat3" fill="#5BC0DE" stroke="#DDD" width="70" height="30" x="0" y="-30" rx="8" ry="8"/><text text-anchor="middle" fill="#FFF" x="35" y="-10">104</text></a><g transform="translate(0,-30)"><g><a target="_top" xlink:href="dtp-slice0-step2628000-ofs19-col31-cat4.html"><rect style="display:none" class="hcell-act-col31-cat4" fill="#337AB7" stroke="#000" stroke-width="5" width="70" height="20" x="0" y="-25" rx="8" ry="8"/><rect class="hcell-col31-cat4" fill="#337AB7" stroke="#DDD" width="70" height="30" x="0" y="-30" rx="8" ry="8"/><text text-anchor="middle" fill="#FFF" x="35" y="-10">209</text></a><g transform="translate(0,-30)"><g><a target="_top" xlink:href="dtp-slice0-step2628000-ofs19-col31-cat1.html"><rect style="display:none" class="hcell-act-col31-cat1" fill="#F0AD4E" stroke="#000" stroke-width="5" width="70" height="20" x="0" y="-25" rx="8" ry="8"/><rect class="hcell-col31-cat1" fill="#F0AD4E" stroke="#DDD" width="70" height="30" x="0" y="-30" rx="8" ry="8"/><text text-anchor="middle" fill="#FFF" x="35" y="-10">403</text></a></g></g></g></g></g></g></g></g><rect fill="none" stroke="#DDD" width="70" height="30" rx="8" ry="8" x="965" y="225"/><text text-anchor="middle" fill="#333" x="1000" y="245">15-01</text><g transform="translate(965,265)"><g><a target="_top" xlink:href="dtp-slice0-step2628000-ofs19-col31-cat5.html"><rect style="display:none" class="hcell-act-col31-cat5" fill="#777" stroke="#000" stroke-width="5" width="70" height="20" x="0" y="5" rx="8" ry="8"/><rect class="hcell-col31-cat5" fill="#777" stroke="#DDD" width="70" height="30" x="0" y="0" rx="8" ry="8"/><text text-anchor="middle" fill="#FFF" x="35" y="20">-20</text></a><g transform="translate(0,30)"><g><a target="_top" xlink:href="dtp-slice0-step2628000-ofs19-col31-cat2.html"><rect style="display:none" class="hcell-act-col31-cat2" fill="#5CB85C" stroke="#000" stroke-width="5" width="70" height="20" x="0" y="5" rx="8" ry="8"/><rect class="hcell-col31-cat2" fill="#5CB85C" stroke="#DDD" width="70" height="30" x="0" y="0" rx="8" ry="8"/><text text-anchor="middle" fill="#FFF" x="35" y="20">-213</text></a></g></g></g></g></g><g><g transform="translate(1045,215)"><g><a target="_top" xlink:href="dtp-slice0-step2628000-ofs19-col32-cat5.html"><rect style="display:none" class="hcell-act-col32-cat5" fill="#777" stroke="#000" stroke-width="5" width="70" height="20" x="0" y="-25" rx="8" ry="8"/><rect class="hcell-col32-cat5" fill="#777" stroke="#DDD" width="70" height="30" x="0" y="-30" rx="8" ry="8"/><text text-anchor="middle" fill="#FFF" x="35" y="-10">22</text></a></g></g><rect fill="none" stroke="#DDD" width="70" height="30" rx="8" ry="8" x="1045" y="225"/><text text-anchor="middle" fill="#333" x="1080" y="245">15-03</text><g transform="translate(1045,265)"><g><a target="_top" xlink:href="dtp-slice0-step2628000-ofs19-col32-cat0.html"><rect style="display:none" class="hcell-act-col32-cat0" fill="#D9534F" stroke="#000" stroke-width="5" width="70" height="20" x="0" y="5" rx="8" ry="8"/><rect class="hcell-col32-cat0" fill="#D9534F" stroke="#DDD" width="70" height="30" x="0" y="0" rx="8" ry="8"/><text text-anchor="middle" fill="#FFF" x="35" y="20">-11</text></a><g transform="translate(0,30)"><g><a target="_top" xlink:href="dtp-slice0-step2628000-ofs19-col32-cat4.html"><rect style="display:none" class="hcell-act-col32-cat4" fill="#337AB7" stroke="#000" stroke-width="5" width="70" height="20" x="0" y="5" rx="8" ry="8"/><rect class="hcell-col32-cat4" fill="#337AB7" stroke="#DDD" width="70" height="30" x="0" y="0" rx="8" ry="8"/><text text-anchor="middle" fill="#FFF" x="35" y="20">-32</text></a><g transform="translate(0,30)"><g><a target="_top" xlink:href="dtp-slice0-step2628000-ofs19-col32-cat3.html"><rect style="display:none" class="hcell-act-col32-cat3" fill="#5BC0DE" stroke="#000" stroke-width="5" width="70" height="20" x="0" y="5" rx="8" ry="8"/><rect class="hcell-col32-cat3" fill="#5BC0DE" stroke="#DDD" width="70" height="30" x="0" y="0" rx="8" ry="8"/><text text-anchor="middle" fill="#FFF" x="35" y="20">-67</text></a><g transform="translate(0,30)"><g><a target="_top" xlink:href="dtp-slice0-step2628000-ofs19-col32-cat1.html"><rect style="display:none" class="hcell-act-col32-cat1" fill="#F0AD4E" stroke="#000" stroke-width="5" width="70" height="20" x="0" y="5" rx="8" ry="8"/><rect class="hcell-col32-cat1" fill="#F0AD4E" stroke="#DDD" width="70" height="30" x="0" y="0" rx="8" ry="8"/><text text-anchor="middle" fill="#FFF" x="35" y="20">-222</text></a><g transform="translate(0,30)"><g><a target="_top" xlink:href="dtp-slice0-step2628000-ofs19-col32-cat2.html"><rect style="display:none" class="hcell-act-col32-cat2" fill="#5CB85C" stroke="#000" stroke-width="5" width="70" height="20" x="0" y="5" rx="8" ry="8"/><rect class="hcell-col32-cat2" fill="#5CB85C" stroke="#DDD" width="70" height="30" x="0" y="0" rx="8" ry="8"/><text text-anchor="middle" fill="#FFF" x="35" y="20">-286</text></a></g></g></g></g></g></g></g></g></g></g></g><g><g transform="translate(1125,215)"><g><a target="_top" xlink:href="dtp-slice0-step2628000-ofs19-col33-cat3.html"><rect style="display:none" class="hcell-act-col33-cat3" fill="#5BC0DE" stroke="#000" stroke-width="5" width="70" height="20" x="0" y="-25" rx="8" ry="8"/><rect class="hcell-col33-cat3" fill="#5BC0DE" stroke="#DDD" width="70" height="30" x="0" y="-30" rx="8" ry="8"/><text text-anchor="middle" fill="#FFF" x="35" y="-10">4</text></a><g transform="translate(0,-30)"><g><a target="_top" xlink:href="dtp-slice0-step2628000-ofs19-col33-cat0.html"><rect style="display:none" class="hcell-act-col33-cat0" fill="#D9534F" stroke="#000" stroke-width="5" width="70" height="20" x="0" y="-25" rx="8" ry="8"/><rect class="hcell-col33-cat0" fill="#D9534F" stroke="#DDD" width="70" height="30" x="0" y="-30" rx="8" ry="8"/><text text-anchor="middle" fill="#FFF" x="35" y="-10">22</text></a><g transform="translate(0,-30)"><g><a target="_top" xlink:href="dtp-slice0-step2628000-ofs19-col33-cat5.html"><rect style="display:none" class="hcell-act-col33-cat5" fill="#777" stroke="#000" stroke-width="5" width="70" height="20" x="0" y="-25" rx="8" ry="8"/><rect class="hcell-col33-cat5" fill="#777" stroke="#DDD" width="70" height="30" x="0" y="-30" rx="8" ry="8"/><text text-anchor="middle" fill="#FFF" x="35" y="-10">25</text></a></g></g></g></g></g></g><rect fill="none" stroke="#DDD" width="70" height="30" rx="8" ry="8" x="1125" y="225"/><text text-anchor="middle" fill="#333" x="1160" y="245">15-04</text><g transform="translate(1125,265)"><g><a target="_top" xlink:href="dtp-slice0-step2628000-ofs19-col33-cat4.html"><rect style="display:none" class="hcell-act-col33-cat4" fill="#337AB7" stroke="#000" stroke-width="5" width="70" height="20" x="0" y="5" rx="8" ry="8"/><rect class="hcell-col33-cat4" fill="#337AB7" stroke="#DDD" width="70" height="30" x="0" y="0" rx="8" ry="8"/><text text-anchor="middle" fill="#FFF" x="35" y="20">-26</text></a><g transform="translate(0,30)"><g><a target="_top" xlink:href="dtp-slice0-step2628000-ofs19-col33-cat2.html"><rect style="display:none" class="hcell-act-col33-cat2" fill="#5CB85C" stroke="#000" stroke-width="5" width="70" height="20" x="0" y="5" rx="8" ry="8"/><rect class="hcell-col33-cat2" fill="#5CB85C" stroke="#DDD" width="70" height="30" x="0" y="0" rx="8" ry="8"/><text text-anchor="middle" fill="#FFF" x="35" y="20">-85</text></a><g transform="translate(0,30)"><g><a target="_top" xlink:href="dtp-slice0-step2628000-ofs19-col33-cat1.html"><rect style="display:none" class="hcell-act-col33-cat1" fill="#F0AD4E" stroke="#000" stroke-width="5" width="70" height="20" x="0" y="5" rx="8" ry="8"/><rect class="hcell-col33-cat1" fill="#F0AD4E" stroke="#DDD" width="70" height="30" x="0" y="0" rx="8" ry="8"/><text text-anchor="middle" fill="#FFF" x="35" y="20">-98</text></a></g></g></g></g></g></g></g><g><g transform="translate(1205,215)"></g><rect fill="none" stroke="#DDD" width="70" height="30" rx="8" ry="8" x="1205" y="225"/><text text-anchor="middle" fill="#333" x="1240" y="245">15-05</text><g transform="translate(1205,265)"><g><a target="_top" xlink:href="dtp-slice0-step2628000-ofs19-col34-cat5.html"><rect style="display:none" class="hcell-act-col34-cat5" fill="#777" stroke="#000" stroke-width="5" width="70" height="20" x="0" y="5" rx="8" ry="8"/><rect class="hcell-col34-cat5" fill="#777" stroke="#DDD" width="70" height="30" x="0" y="0" rx="8" ry="8"/><text text-anchor="middle" fill="#FFF" x="35" y="20">-20</text></a><g transform="translate(0,30)"><g><a target="_top" xlink:href="dtp-slice0-step2628000-ofs19-col34-cat3.html"><rect style="display:none" class="hcell-act-col34-cat3" fill="#5BC0DE" stroke="#000" stroke-width="5" width="70" height="20" x="0" y="5" rx="8" ry="8"/><rect class="hcell-col34-cat3" fill="#5BC0DE" stroke="#DDD" width="70" height="30" x="0" y="0" rx="8" ry="8"/><text text-anchor="middle" fill="#FFF" x="35" y="20">-80</text></a><g transform="translate(0,30)"><g><a target="_top" xlink:href="dtp-slice0-step2628000-ofs19-col34-cat4.html"><rect style="display:none" class="hcell-act-col34-cat4" fill="#337AB7" stroke="#000" stroke-width="5" width="70" height="20" x="0" y="5" rx="8" ry="8"/><rect class="hcell-col34-cat4" fill="#337AB7" stroke="#DDD" width="70" height="30" x="0" y="0" rx="8" ry="8"/><text text-anchor="middle" fill="#FFF" x="35" y="20">-310</text></a><g transform="translate(0,30)"><g><a target="_top" xlink:href="dtp-slice0-step2628000-ofs19-col34-cat2.html"><rect style="display:none" class="hcell-act-col34-cat2" fill="#5CB85C" stroke="#000" stroke-width="5" width="70" height="20" x="0" y="5" rx="8" ry="8"/><rect class="hcell-col34-cat2" fill="#5CB85C" stroke="#DDD" width="70" height="30" x="0" y="0" rx="8" ry="8"/><text text-anchor="middle" fill="#FFF" x="35" y="20">-320</text></a><g transform="translate(0,30)"><g><a target="_top" xlink:href="dtp-slice0-step2628000-ofs19-col34-cat1.html"><rect style="display:none" class="hcell-act-col34-cat1" fill="#F0AD4E" stroke="#000" stroke-width="5" width="70" height="40" x="0" y="5" rx="8" ry="8"/><rect class="hcell-col34-cat1" fill="#F0AD4E" stroke="#DDD" width="70" height="50" x="0" y="0" rx="8" ry="8"/><text text-anchor="middle" fill="#FFF" x="35" y="20">-700</text></a><g transform="translate(0,50)"><g><a target="_top" xlink:href="dtp-slice0-step2628000-ofs19-col34-cat0.html"><rect style="display:none" class="hcell-act-col34-cat0" fill="#D9534F" stroke="#000" stroke-width="5" width="70" height="138" x="0" y="5" rx="8" ry="8"/><rect class="hcell-col34-cat0" fill="#D9534F" stroke="#DDD" width="70" height="148" x="0" y="0" rx="8" ry="8"/><text text-anchor="middle" fill="#FFF" x="35" y="20">-2060</text></a></g></g></g></g></g></g></g></g></g></g></g></g></g></svg>