<svg xmlns="http://www.w3.org/2000/svg" xmlns:xlink="http://www.w3.org/1999/xlink" width="100%" height="100%" viewBox="0 0 1280 459"><g><g transform="translate(5,263)"><g><a target="_top" xlink:href="dtp-sliceTagSavings2453-step2628000-ofs0-col0-cat0.html"><rect style="display:none" class="hcell-act-col0-cat0" fill="#777" stroke="#000" stroke-width="5" width="70" height="20" x="0" y="-25" rx="8" ry="8"/><rect class="hcell-col0-cat0" fill="#777" stroke="#DDD" width="70" height="30" x="0" y="-30" rx="8" ry="8"/><text text-anchor="middle" fill="#FFF" x="35" y="-10">100</text></a></g></g><rect fill="none" stroke="#DDD" width="70" height="30" rx="8" ry="8" x="5" y="273"/><text text-anchor="middle" fill="#333" x="40" y="293">12-07</text><g transform="translate(5,313)"></g></g><g><g transform="translate(85,263)"><g><a target="_top" xlink:href="dtp-sliceTagSavings2453-step2628000-ofs0-col1-cat0.html"><rect style="display:none" class="hcell-act-col1-cat0" fill="#777" stroke="#000" stroke-width="5" width="70" height="20" x="0" y="-25" rx="8" ry="8"/><rect class="hcell-col1-cat0" fill="#777" stroke="#DDD" width="70" height="30" x="0" y="-30" rx="8" ry="8"/><text text-anchor="middle" fill="#FFF" x="35" y="-10">190</text></a></g></g><rect fill="none" stroke="#DDD" width="70" height="30" rx="8" ry="8" x="85" y="273"/><text text-anchor="middle" fill="#333" x="120" y="293">12-08</text><g transform="translate(85,313)"></g></g><g><g transform="translate(165,263)"><g><a target="_top" xlink:href="dtp-sliceTagSavings2453-step2628000-ofs0-col2-cat0.html"><rect style="display:none" class="hcell-act-col2-cat0" fill="#777" stroke="#000" stroke-width="5" width="70" height="54" x="0" y="-59" rx="8" ry="8"/><rect class="hcell-col2-cat0" fill="#777" stroke="#DDD" width="70" height="64" x="0" y="-64" rx="8" ry="8"/><text text-anchor="middle" fill="#FFF" x="35" y="-44">502</text></a></g></g><rect fill="none" stroke="#DDD" width="70" height="30" rx="8" ry="8" x="165" y="273"/><text text-anchor="middle" fill="#333" x="200" y="293">12-08</text><g transform="translate(165,313)"></g></g><g><g transform="translate(245,263)"></g><rect fill="none" stroke="#DDD" width="70" height="30" rx="8" ry="8" x="245" y="273"/><text text-anchor="middle" fill="#333" x="280" y="293">12-10</text><g transform="translate(245,313)"></g></g><g><g transform="translate(325,263)"><g><a target="_top" xlink:href="dtp-sliceTagSavings2453-step2628000-ofs0-col4-cat0.html"><rect style="display:none" class="hcell-act-col4-cat0" fill="#777" stroke="#000" stroke-width="5" width="70" height="248" x="0" y="-253" rx="8" ry="8"/><rect class="hcell-col4-cat0" fill="#777" stroke="#DDD" width="70" height="258" x="0" y="-258" rx="8" ry="8"/><text text-anchor="middle" fill="#FFF" x="35" y="-238">2000</text></a></g></g><rect fill="none" stroke="#DDD" width="70" height="30" rx="8" ry="8" x="325" y="273"/><text text-anchor="middle" fill="#333" x="360" y="293">12-10</text><g transform="translate(325,313)"><g><a target="_top" xlink:href="dtp-sliceTagSavings2453-step2628000-ofs0-col4-cat0.html"><rect style="display:none" class="hcell-act-col4-cat0" fill="#777" stroke="#000" stroke-width="5" width="70" height="131" x="0" y="5" rx="8" ry="8"/><rect class="hcell-col4-cat0" fill="#777" stroke="#DDD" width="70" height="141" x="0" y="0" rx="8" ry="8"/><text text-anchor="middle" fill="#FFF" x="35" y="20">-1099</text></a></g></g></g><g><g transform="translate(405,263)"></g><rect fill="none" stroke="#DDD" width="70" height="30" rx="8" ry="8" x="405" y="273"/><text text-anchor="middle" fill="#333" x="440" y="293">12-12</text><g transform="translate(405,313)"></g></g><g><g transform="translate(485,263)"></g><rect fill="none" stroke="#DDD" width="70" height="30" rx="8" ry="8" x="485" y="273"/><text text-anchor="middle" fill="#333" x="520" y="293">12-12</text><g transform="translate(485,313)"></g></g><g><g transform="translate(565,263)"><g><a target="_top" xlink:href="dtp-sliceTagSavings2453-step2628000-ofs0-col7-cat0.html"><rect style="display:none" class="hcell-act-col7-cat0" fill="#777" stroke="#000" stroke-width="5" width="70" height="20" x="0" y="-25" rx="8" ry="8"/><rect class="hcell-col7-cat0" fill="#777" stroke="#DDD" width="70" height="30" x="0" y="-30" rx="8" ry="8"/><text text-anchor="middle" fill="#FFF" x="35" y="-10">222</text></a></g></g><rect fill="none" stroke="#DDD" width="70" height="30" rx="8" ry="8" x="565" y="273"/><text text-anchor="middle" fill="#333" x="600" y="293">13-01</text><g transform="translate(565,313)"></g></g><g><g transform="translate(645,263)"></g><rect fill="none" stroke="#DDD" width="70" height="30" rx="8" ry="8" x="645" y="273"/><text text-anchor="middle" fill="#333" x="680" y="293">13-03</text><g transform="translate(645,313)"></g></g><g><g transform="translate(725,263)"></g><rect fill="none" stroke="#DDD" width="70" height="30" rx="8" ry="8" x="725" y="273"/><text text-anchor="middle" fill="#333" x="760" y="293">13-04</text><g transform="translate(725,313)"></g></g><g><g transform="translate(805,263)"></g><rect fill="none" stroke="#DDD" width="70" height="30" rx="8" ry="8" x="805" y="273"/><text text-anchor="middle" fill="#333" x="840" y="293">13-05</text><g transform="translate(805,313)"></g></g><g><g transform="translate(885,263)"><g><a target="_top" xlink:href="dtp-sliceTagSavings2453-step2628000-ofs0-col11-cat0.html"><rect style="display:none" class="hcell-act-col11-cat0" fill="#777" stroke="#000" stroke-width="5" width="70" height="93" x="0" y="-98" rx="8" ry="8"/><rect class="hcell-col11-cat0" fill="#777" stroke="#DDD" width="70" height="103" x="0" y="-103" rx="8" ry="8"/><text text-anchor="middle" fill="#FFF" x="35" y="-83">800</text></a></g></g><rect fill="none" stroke="#DDD" width="70" height="30" rx="8" ry="8" x="885" y="273"/><text text-anchor="middle" fill="#333" x="920" y="293">13-06</text><g transform="translate(885,313)"></g></g><g><g transform="translate(965,263)"><g><a target="_top" xlink:href="dtp-sliceTagSavings2453-step2628000-ofs0-col12-cat0.html"><rect style="display:none" class="hcell-act-col12-cat0" fill="#777" stroke="#000" stroke-width="5" width="70" height="53" x="0" y="-58" rx="8" ry="8"/><rect class="hcell-col12-cat0" fill="#777" stroke="#DDD" width="70" height="63" x="0" y="-63" rx="8" ry="8"/><text text-anchor="middle" fill="#FFF" x="35" y="-43">490</text></a></g></g><rect fill="none" stroke="#DDD" width="70" height="30" rx="8" ry="8" x="965" y="273"/><text text-anchor="middle" fill="#333" x="1000" y="293">13-07</text><g transform="translate(965,313)"></g></g><g><g transform="translate(1045,263)"></g><rect fill="none" stroke="#DDD" width="70" height="30" rx="8" ry="8" x="1045" y="273"/><text text-anchor="middle" fill="#333" x="1080" y="293">13-08</text><g transform="translate(1045,313)"></g></g><g><g transform="translate(1125,263)"></g><rect fill="none" stroke="#DDD" width="70" height="30" rx="8" ry="8" x="1125" y="273"/><text text-anchor="middle" fill="#333" x="1160" y="293">13-08</text><g transform="translate(1125,313)"></g></g><g><g transform="translate(1205,263)"></g><rect fill="none" stroke="#DDD" width="70" height="30" rx="8" ry="8" x="1205" y="273"/><text text-anchor="middle" fill="#333" x="1240" y="293">13-10</text><g transform="translate(1205,313)"></g></g></svg>