<svg xmlns="http://www.w3.org/2000/svg" xmlns:xlink="http://www.w3.org/1999/xlink" width="100%" height="100%" viewBox="0 0 1280 459"><g><g transform="translate(5,41)"></g><rect fill="none" stroke="#DDD" width="70" height="30" rx="8" ry="8" x="5" y="51"/><text text-anchor="middle" fill="#333" x="40" y="71">12-07</text><g transform="translate(5,91)"></g></g><g><g transform="translate(85,41)"></g><rect fill="none" stroke="#DDD" width="70" height="30" rx="8" ry="8" x="85" y="51"/><text text-anchor="middle" fill="#333" x="120" y="71">12-09</text><g transform="translate(85,91)"></g></g><g><g transform="translate(165,41)"></g><rect fill="none" stroke="#DDD" width="70" height="30" rx="8" ry="8" x="165" y="51"/><text text-anchor="middle" fill="#333" x="200" y="71">12-11</text><g transform="translate(165,91)"></g></g><g><g transform="translate(245,41)"></g><rect fill="none" stroke="#DDD" width="70" height="30" rx="8" ry="8" x="245" y="51"/><text text-anchor="middle" fill="#333" x="280" y="71">13-01</text><g transform="translate(245,91)"></g></g><g><g transform="translate(325,41)"></g><rect fill="none" stroke="#DDD" width="70" height="30" rx="8" ry="8" x="325" y="51"/><text text-anchor="middle" fill="#333" x="360" y="71">13-03</text><g transform="translate(325,91)"></g></g><g><g transform="translate(405,41)"></g><rect fill="none" stroke="#DDD" width="70" height="30" rx="8" ry="8" x="405" y="51"/><text text-anchor="middle" fill="#333" x="440" y="71">13-05</text><g transform="translate(405,91)"></g></g><g><g transform="translate(485,41)"></g><rect fill="none" stroke="#DDD" width="70" height="30" rx="8" ry="8" x="485" y="51"/><text text-anchor="middle" fill="#333" x="520" y="71">13-07</text><g transform="translate(485,91)"></g></g><g><g transform="translate(565,41)"></g><rect fill="none" stroke="#DDD" width="70" height="30" rx="8" ry="8" x="565" y="51"/><text text-anchor="middle" fill="#333" x="600" y="71">13-09</text><g transform="translate(565,91)"></g></g><g><g transform="translate(645,41)"></g><rect fill="none" stroke="#DDD" width="70" height="30" rx="8" ry="8" x="645" y="51"/><text text-anchor="middle" fill="#333" x="680" y="71">13-12</text><g transform="translate(645,91)"></g></g><g><g transform="translate(725,41)"></g><rect fill="none" stroke="#DDD" width="70" height="30" rx="8" ry="8" x="725" y="51"/><text text-anchor="middle" fill="#333" x="760" y="71">14-02</text><g transform="translate(725,91)"></g></g><g><g transform="translate(805,41)"></g><rect fill="none" stroke="#DDD" width="70" height="30" rx="8" ry="8" x="805" y="51"/><text text-anchor="middle" fill="#333" x="840" y="71">14-04</text><g transform="translate(805,91)"></g></g><g><g transform="translate(885,41)"></g><rect fill="none" stroke="#DDD" width="70" height="30" rx="8" ry="8" x="885" y="51"/><text text-anchor="middle" fill="#333" x="920" y="71">14-06</text><g transform="translate(885,91)"><g><a target="_top" xlink:href="dtp-sliceTagFood-step5605201-ofs0-col11-cat0.html"><rect style="display:none" class="hcell-act-col11-cat0" fill="#777" stroke="#000" stroke-width="5" width="70" height="185" x="0" y="5" rx="8" ry="8"/><rect class="hcell-col11-cat0" fill="#777" stroke="#DDD" width="70" height="195" x="0" y="0" rx="8" ry="8"/><text text-anchor="middle" fill="#FFF" x="35" y="20">-578</text></a></g></g></g><g><g transform="translate(965,41)"></g><rect fill="none" stroke="#DDD" width="70" height="30" rx="8" ry="8" x="965" y="51"/><text text-anchor="middle" fill="#333" x="1000" y="71">14-08</text><g transform="translate(965,91)"><g><a target="_top" xlink:href="dtp-sliceTagFood-step5605201-ofs0-col12-cat0.html"><rect style="display:none" class="hcell-act-col12-cat0" fill="#777" stroke="#000" stroke-width="5" width="70" height="20" x="0" y="5" rx="8" ry="8"/><rect class="hcell-col12-cat0" fill="#777" stroke="#DDD" width="70" height="30" x="0" y="0" rx="8" ry="8"/><text text-anchor="middle" fill="#FFF" x="35" y="20">-42</text></a></g></g></g><g><g transform="translate(1045,41)"></g><rect fill="none" stroke="#DDD" width="70" height="30" rx="8" ry="8" x="1045" y="51"/><text text-anchor="middle" fill="#333" x="1080" y="71">14-10</text><g transform="translate(1045,91)"><g><a target="_top" xlink:href="dtp-sliceTagFood-step5605201-ofs0-col13-cat0.html"><rect style="display:none" class="hcell-act-col13-cat0" fill="#777" stroke="#000" stroke-width="5" width="70" height="20" x="0" y="5" rx="8" ry="8"/><rect class="hcell-col13-cat0" fill="#777" stroke="#DDD" width="70" height="30" x="0" y="0" rx="8" ry="8"/><text text-anchor="middle" fill="#FFF" x="35" y="20">-56</text></a></g></g></g><g><g transform="translate(1125,41)"><g><a target="_top" xlink:href="dtp-sliceTagFood-step5605201-ofs0-col14-cat0.html"><rect style="display:none" class="hcell-act-col14-cat0" fill="#777" stroke="#000" stroke-width="5" width="70" height="26" x="0" y="-31" rx="8" ry="8"/><rect class="hcell-col14-cat0" fill="#777" stroke="#DDD" width="70" height="36" x="0" y="-36" rx="8" ry="8"/><text text-anchor="middle" fill="#FFF" x="35" y="-16">107</text></a></g></g><rect fill="none" stroke="#DDD" width="70" height="30" rx="8" ry="8" x="1125" y="51"/><text text-anchor="middle" fill="#333" x="1160" y="71">14-12</text><g transform="translate(1125,91)"></g></g><g><g transform="translate(1205,41)"></g><rect fill="none" stroke="#DDD" width="70" height="30" rx="8" ry="8" x="1205" y="51"/><text text-anchor="middle" fill="#333" x="1240" y="71">15-03</text><g transform="translate(1205,91)"><g><a target="_top" xlink:href="dtp-sliceTagFood-step5605201-ofs0-col15-cat0.html"><rect style="display:none" class="hcell-act-col15-cat0" fill="#777" stroke="#000" stroke-width="5" width="70" height="353" x="0" y="5" rx="8" ry="8"/><rect class="hcell-col15-cat0" fill="#777" stroke="#DDD" width="70" height="363" x="0" y="0" rx="8" ry="8"/><text text-anchor="middle" fill="#FFF" x="35" y="20">-1072</text></a></g></g></g></svg>