<svg xmlns="http://www.w3.org/2000/svg" xmlns:xlink="http://www.w3.org/1999/xlink" width="100%" height="100%" viewBox="0 0 1280 459"><g><g transform="translate(5,297)"><g><a target="_top" xlink:href="dtp-sliceTagClothes-step2628000-ofs3-col3-cat0.html"><rect style="display:none" class="hcell-act-col3-cat0" fill="#777" stroke="#000" stroke-width="5" width="70" height="274" x="0" y="-279" rx="8" ry="8"/><rect class="hcell-col3-cat0" fill="#777" stroke="#DDD" width="70" height="284" x="0" y="-284" rx="8" ry="8"/><text text-anchor="middle" fill="#FFF" x="35" y="-264">153</text></a></g></g><rect fill="none" stroke="#DDD" width="70" height="30" rx="8" ry="8" x="5" y="307"/><text text-anchor="middle" fill="#333" x="40" y="327">12-10</text><g transform="translate(5,347)"></g></g><g><g transform="translate(85,297)"><g><a target="_top" xlink:href="dtp-sliceTagClothes-step2628000-ofs3-col4-cat0.html"><rect style="display:none" class="hcell-act-col4-cat0" fill="#777" stroke="#000" stroke-width="5" width="70" height="58" x="0" y="-63" rx="8" ry="8"/><rect class="hcell-col4-cat0" fill="#777" stroke="#DDD" width="70" height="68" x="0" y="-68" rx="8" ry="8"/><text text-anchor="middle" fill="#FFF" x="35" y="-48">37</text></a></g></g><rect fill="none" stroke="#DDD" width="70" height="30" rx="8" ry="8" x="85" y="307"/><text text-anchor="middle" fill="#333" x="120" y="327">12-10</text><g transform="translate(85,347)"></g></g><g><g transform="translate(165,297)"><g><a target="_top" xlink:href="dtp-sliceTagClothes-step2628000-ofs3-col5-cat0.html"><rect style="display:none" class="hcell-act-col5-cat0" fill="#777" stroke="#000" stroke-width="5" width="70" height="210" x="0" y="-215" rx="8" ry="8"/><rect class="hcell-col5-cat0" fill="#777" stroke="#DDD" width="70" height="220" x="0" y="-220" rx="8" ry="8"/><text text-anchor="middle" fill="#FFF" x="35" y="-200">119</text></a></g></g><rect fill="none" stroke="#DDD" width="70" height="30" rx="8" ry="8" x="165" y="307"/><text text-anchor="middle" fill="#333" x="200" y="327">12-12</text><g transform="translate(165,347)"></g></g><g><g transform="translate(245,297)"><g><a target="_top" xlink:href="dtp-sliceTagClothes-step2628000-ofs3-col6-cat0.html"><rect style="display:none" class="hcell-act-col6-cat0" fill="#777" stroke="#000" stroke-width="5" width="70" height="83" x="0" y="-88" rx="8" ry="8"/><rect class="hcell-col6-cat0" fill="#777" stroke="#DDD" width="70" height="93" x="0" y="-93" rx="8" ry="8"/><text text-anchor="middle" fill="#FFF" x="35" y="-73">50</text></a></g></g><rect fill="none" stroke="#DDD" width="70" height="30" rx="8" ry="8" x="245" y="307"/><text text-anchor="middle" fill="#333" x="280" y="327">12-12</text><g transform="translate(245,347)"></g></g><g><g transform="translate(325,297)"><g><a target="_top" xlink:href="dtp-sliceTagClothes-step2628000-ofs3-col7-cat0.html"><rect style="display:none" class="hcell-act-col7-cat0" fill="#777" stroke="#000" stroke-width="5" width="70" height="140" x="0" y="-145" rx="8" ry="8"/><rect class="hcell-col7-cat0" fill="#777" stroke="#DDD" width="70" height="150" x="0" y="-150" rx="8" ry="8"/><text text-anchor="middle" fill="#FFF" x="35" y="-130">81</text></a></g></g><rect fill="none" stroke="#DDD" width="70" height="30" rx="8" ry="8" x="325" y="307"/><text text-anchor="middle" fill="#333" x="360" y="327">13-01</text><g transform="translate(325,347)"></g></g><g><g transform="translate(405,297)"><g><a target="_top" xlink:href="dtp-sliceTagClothes-step2628000-ofs3-col8-cat0.html"><rect style="display:none" class="hcell-act-col8-cat0" fill="#777" stroke="#000" stroke-width="5" width="70" height="282" x="0" y="-287" rx="8" ry="8"/><rect class="hcell-col8-cat0" fill="#777" stroke="#DDD" width="70" height="292" x="0" y="-292" rx="8" ry="8"/><text text-anchor="middle" fill="#FFF" x="35" y="-272">158</text></a></g></g><rect fill="none" stroke="#DDD" width="70" height="30" rx="8" ry="8" x="405" y="307"/><text text-anchor="middle" fill="#333" x="440" y="327">13-03</text><g transform="translate(405,347)"></g></g><g><g transform="translate(485,297)"><g><a target="_top" xlink:href="dtp-sliceTagClothes-step2628000-ofs3-col9-cat0.html"><rect style="display:none" class="hcell-act-col9-cat0" fill="#777" stroke="#000" stroke-width="5" width="70" height="193" x="0" y="-198" rx="8" ry="8"/><rect class="hcell-col9-cat0" fill="#777" stroke="#DDD" width="70" height="203" x="0" y="-203" rx="8" ry="8"/><text text-anchor="middle" fill="#FFF" x="35" y="-183">110</text></a></g></g><rect fill="none" stroke="#DDD" width="70" height="30" rx="8" ry="8" x="485" y="307"/><text text-anchor="middle" fill="#333" x="520" y="327">13-04</text><g transform="translate(485,347)"></g></g><g><g transform="translate(565,297)"><g><a target="_top" xlink:href="dtp-sliceTagClothes-step2628000-ofs3-col10-cat0.html"><rect style="display:none" class="hcell-act-col10-cat0" fill="#777" stroke="#000" stroke-width="5" width="70" height="217" x="0" y="-222" rx="8" ry="8"/><rect class="hcell-col10-cat0" fill="#777" stroke="#DDD" width="70" height="227" x="0" y="-227" rx="8" ry="8"/><text text-anchor="middle" fill="#FFF" x="35" y="-207">123</text></a></g></g><rect fill="none" stroke="#DDD" width="70" height="30" rx="8" ry="8" x="565" y="307"/><text text-anchor="middle" fill="#333" x="600" y="327">13-05</text><g transform="translate(565,347)"></g></g><g><g transform="translate(645,297)"><g><a target="_top" xlink:href="dtp-sliceTagClothes-step2628000-ofs3-col11-cat0.html"><rect style="display:none" class="hcell-act-col11-cat0" fill="#777" stroke="#000" stroke-width="5" width="70" height="158" x="0" y="-163" rx="8" ry="8"/><rect class="hcell-col11-cat0" fill="#777" stroke="#DDD" width="70" height="168" x="0" y="-168" rx="8" ry="8"/><text text-anchor="middle" fill="#FFF" x="35" y="-148">91</text></a></g></g><rect fill="none" stroke="#DDD" width="70" height="30" rx="8" ry="8" x="645" y="307"/><text text-anchor="middle" fill="#333" x="680" y="327">13-06</text><g transform="translate(645,347)"><g><a target="_top" xlink:href="dtp-sliceTagClothes-step2628000-ofs3-col11-cat0.html"><rect style="display:none" class="hcell-act-col11-cat0" fill="#777" stroke="#000" stroke-width="5" width="70" height="97" x="0" y="5" rx="8" ry="8"/><rect class="hcell-col11-cat0" fill="#777" stroke="#DDD" width="70" height="107" x="0" y="0" rx="8" ry="8"/><text text-anchor="middle" fill="#FFF" x="35" y="20">-59</text></a></g></g></g><g><g transform="translate(725,297)"><g><a target="_top" xlink:href="dtp-sliceTagClothes-step2628000-ofs3-col12-cat0.html"><rect style="display:none" class="hcell-act-col12-cat0" fill="#777" stroke="#000" stroke-width="5" width="70" height="121" x="0" y="-126" rx="8" ry="8"/><rect class="hcell-col12-cat0" fill="#777" stroke="#DDD" width="70" height="131" x="0" y="-131" rx="8" ry="8"/><text text-anchor="middle" fill="#FFF" x="35" y="-111">71</text></a></g></g><rect fill="none" stroke="#DDD" width="70" height="30" rx="8" ry="8" x="725" y="307"/><text text-anchor="middle" fill="#333" x="760" y="327">13-07</text><g transform="translate(725,347)"></g></g><g><g transform="translate(805,297)"><g><a target="_top" xlink:href="dtp-sliceTagClothes-step2628000-ofs3-col13-cat0.html"><rect style="display:none" class="hcell-act-col13-cat0" fill="#777" stroke="#000" stroke-width="5" width="70" height="147" x="0" y="-152" rx="8" ry="8"/><rect class="hcell-col13-cat0" fill="#777" stroke="#DDD" width="70" height="157" x="0" y="-157" rx="8" ry="8"/><text text-anchor="middle" fill="#FFF" x="35" y="-137">85</text></a></g></g><rect fill="none" stroke="#DDD" width="70" height="30" rx="8" ry="8" x="805" y="307"/><text text-anchor="middle" fill="#333" x="840" y="327">13-08</text><g transform="translate(805,347)"></g></g><g><g transform="translate(885,297)"><g><a target="_top" xlink:href="dtp-sliceTagClothes-step2628000-ofs3-col14-cat0.html"><rect style="display:none" class="hcell-act-col14-cat0" fill="#777" stroke="#000" stroke-width="5" width="70" height="125" x="0" y="-130" rx="8" ry="8"/><rect class="hcell-col14-cat0" fill="#777" stroke="#DDD" width="70" height="135" x="0" y="-135" rx="8" ry="8"/><text text-anchor="middle" fill="#FFF" x="35" y="-115">73</text></a></g></g><rect fill="none" stroke="#DDD" width="70" height="30" rx="8" ry="8" x="885" y="307"/><text text-anchor="middle" fill="#333" x="920" y="327">13-08</text><g transform="translate(885,347)"></g></g><g><g transform="translate(965,297)"><g><a target="_top" xlink:href="dtp-sliceTagClothes-step2628000-ofs3-col15-cat0.html"><rect style="display:none" class="hcell-act-col15-cat0" fill="#777" stroke="#000" stroke-width="5" width="70" height="67" x="0" y="-72" rx="8" ry="8"/><rect class="hcell-col15-cat0" fill="#777" stroke="#DDD" width="70" height="77" x="0" y="-77" rx="8" ry="8"/><text text-anchor="middle" fill="#FFF" x="35" y="-57">41</text></a></g></g><rect fill="none" stroke="#DDD" width="70" height="30" rx="8" ry="8" x="965" y="307"/><text text-anchor="middle" fill="#333" x="1000" y="327">13-10</text><g transform="translate(965,347)"></g></g><g><g transform="translate(1045,297)"><g><a target="_top" xlink:href="dtp-sliceTagClothes-step2628000-ofs3-col16-cat0.html"><rect style="display:none" class="hcell-act-col16-cat0" fill="#777" stroke="#000" stroke-width="5" width="70" height="151" x="0" y="-156" rx="8" ry="8"/><rect class="hcell-col16-cat0" fill="#777" stroke="#DDD" width="70" height="161" x="0" y="-161" rx="8" ry="8"/><text text-anchor="middle" fill="#FFF" x="35" y="-141">87</text></a></g></g><rect fill="none" stroke="#DDD" width="70" height="30" rx="8" ry="8" x="1045" y="307"/><text text-anchor="middle" fill="#333" x="1080" y="327">13-10</text><g transform="translate(1045,347)"></g></g><g><g transform="translate(1125,297)"><g><a target="_top" xlink:href="dtp-sliceTagClothes-step2628000-ofs3-col17-cat0.html"><rect style="display:none" class="hcell-act-col17-cat0" fill="#777" stroke="#000" stroke-width="5" width="70" height="54" x="0" y="-59" rx="8" ry="8"/><rect class="hcell-col17-cat0" fill="#777" stroke="#DDD" width="70" height="64" x="0" y="-64" rx="8" ry="8"/><text text-anchor="middle" fill="#FFF" x="35" y="-44">35</text></a></g></g><rect fill="none" stroke="#DDD" width="70" height="30" rx="8" ry="8" x="1125" y="307"/><text text-anchor="middle" fill="#333" x="1160" y="327">13-12</text><g transform="translate(1125,347)"></g></g><g><g transform="translate(1205,297)"><g><a target="_top" xlink:href="dtp-sliceTagClothes-step2628000-ofs3-col18-cat0.html"><rect style="display:none" class="hcell-act-col18-cat0" fill="#777" stroke="#000" stroke-width="5" width="70" height="25" x="0" y="-30" rx="8" ry="8"/><rect class="hcell-col18-cat0" fill="#777" stroke="#DDD" width="70" height="35" x="0" y="-35" rx="8" ry="8"/><text text-anchor="middle" fill="#FFF" x="35" y="-15">18</text></a></g></g><rect fill="none" stroke="#DDD" width="70" height="30" rx="8" ry="8" x="1205" y="307"/><text text-anchor="middle" fill="#333" x="1240" y="327">13-12</text><g transform="translate(1205,347)"><g><a target="_top" xlink:href="dtp-sliceTagClothes-step2628000-ofs3-col18-cat0.html"><rect style="display:none" class="hcell-act-col18-cat0" fill="#777" stroke="#000" stroke-width="5" width="70" height="52" x="0" y="5" rx="8" ry="8"/><rect class="hcell-col18-cat0" fill="#777" stroke="#DDD" width="70" height="62" x="0" y="0" rx="8" ry="8"/><text text-anchor="middle" fill="#FFF" x="35" y="20">-34</text></a></g></g></g></svg>