<svg xmlns="http://www.w3.org/2000/svg" xmlns:xlink="http://www.w3.org/1999/xlink" width="100%" height="100%" viewBox="0 0 1280 478"><g><g transform="translate(5,393)"></g><rect fill="none" stroke="#DDD" width="70" height="30" rx="8" ry="8" x="5" y="403"/><text text-anchor="middle" fill="#333" x="40" y="423">12-07</text><g transform="translate(5,443)"></g></g><g><g transform="translate(85,393)"></g><rect fill="none" stroke="#DDD" width="70" height="30" rx="8" ry="8" x="85" y="403"/><text text-anchor="middle" fill="#333" x="120" y="423">12-09</text><g transform="translate(85,443)"></g></g><g><g transform="translate(165,393)"></g><rect fill="none" stroke="#DDD" width="70" height="30" rx="8" ry="8" x="165" y="403"/><text text-anchor="middle" fill="#333" x="200" y="423">12-11</text><g transform="translate(165,443)"></g></g><g><g transform="translate(245,393)"></g><rect fill="none" stroke="#DDD" width="70" height="30" rx="8" ry="8" x="245" y="403"/><text text-anchor="middle" fill="#333" x="280" y="423">13-01</text><g transform="translate(245,443)"></g></g><g><g transform="translate(325,393)"></g><rect fill="none" stroke="#DDD" width="70" height="30" rx="8" ry="8" x="325" y="403"/><text text-anchor="middle" fill="#333" x="360" y="423">13-03</text><g transform="translate(325,443)"></g></g><g><g transform="translate(405,393)"></g><rect fill="none" stroke="#DDD" width="70" height="30" rx="8" ry="8" x="405" y="403"/><text text-anchor="middle" fill="#333" x="440" y="423">13-05</text><g transform="translate(405,443)"></g></g><g><g transform="translate(485,393)"></g><rect fill="none" stroke="#DDD" width="70" height="30" rx="8" ry="8" x="485" y="403"/><text text-anchor="middle" fill="#333" x="520" y="423">13-07</text><g transform="translate(485,443)"></g></g><g><g transform="translate(565,393)"></g><rect fill="none" stroke="#DDD" width="70" height="30" rx="8" ry="8" x="565" y="403"/><text text-anchor="middle" fill="#333" x="600" y="423">13-09</text><g transform="translate(565,443)"></g></g><g><g transform="translate(645,393)"></g><rect fill="none" stroke="#DDD" width="70" height="30" rx="8" ry="8" x="645" y="403"/><text text-anchor="middle" fill="#333" x="680" y="423">13-12</text><g transform="translate(645,443)"></g></g><g><g transform="translate(725,393)"></g><rect fill="none" stroke="#DDD" width="70" height="30" rx="8" ry="8" x="725" y="403"/><text text-anchor="middle" fill="#333" x="760" y="423">14-02</text><g transform="translate(725,443)"></g></g><g><g transform="translate(805,393)"></g><rect fill="none" stroke="#DDD" width="70" height="30" rx="8" ry="8" x="805" y="403"/><text text-anchor="middle" fill="#333" x="840" y="423">14-04</text><g transform="translate(805,443)"></g></g><g><g transform="translate(885,393)"><g><a target="_top" xlink:href="dtp-sliceTagPayment-step5605201-ofs0-col11-cat0.html"><rect style="display:none" class="hcell-act-col11-cat0" fill="#777" stroke="#000" stroke-width="5" width="70" height="163" x="0" y="-168" rx="8" ry="8"/><rect class="hcell-col11-cat0" fill="#777" stroke="#DDD" width="70" height="173" x="0" y="-173" rx="8" ry="8"/><text text-anchor="middle" fill="#FFF" x="35" y="-153">1704</text></a></g></g><rect fill="none" stroke="#DDD" width="70" height="30" rx="8" ry="8" x="885" y="403"/><text text-anchor="middle" fill="#333" x="920" y="423">14-06</text><g transform="translate(885,443)"></g></g><g><g transform="translate(965,393)"><g><a target="_top" xlink:href="dtp-sliceTagPayment-step5605201-ofs0-col12-cat0.html"><rect style="display:none" class="hcell-act-col12-cat0" fill="#777" stroke="#000" stroke-width="5" width="70" height="154" x="0" y="-159" rx="8" ry="8"/><rect class="hcell-col12-cat0" fill="#777" stroke="#DDD" width="70" height="164" x="0" y="-164" rx="8" ry="8"/><text text-anchor="middle" fill="#FFF" x="35" y="-144">1610</text></a></g></g><rect fill="none" stroke="#DDD" width="70" height="30" rx="8" ry="8" x="965" y="403"/><text text-anchor="middle" fill="#333" x="1000" y="423">14-08</text><g transform="translate(965,443)"></g></g><g><g transform="translate(1045,393)"></g><rect fill="none" stroke="#DDD" width="70" height="30" rx="8" ry="8" x="1045" y="403"/><text text-anchor="middle" fill="#333" x="1080" y="423">14-10</text><g transform="translate(1045,443)"><g><a target="_top" xlink:href="dtp-sliceTagPayment-step5605201-ofs0-col13-cat0.html"><rect style="display:none" class="hcell-act-col13-cat0" fill="#777" stroke="#000" stroke-width="5" width="70" height="20" x="0" y="5" rx="8" ry="8"/><rect class="hcell-col13-cat0" fill="#777" stroke="#DDD" width="70" height="30" x="0" y="0" rx="8" ry="8"/><text text-anchor="middle" fill="#FFF" x="35" y="20">-111</text></a></g></g></g><g><g transform="translate(1125,393)"><g><a target="_top" xlink:href="dtp-sliceTagPayment-step5605201-ofs0-col14-cat0.html"><rect style="display:none" class="hcell-act-col14-cat0" fill="#777" stroke="#000" stroke-width="5" width="70" height="378" x="0" y="-383" rx="8" ry="8"/><rect class="hcell-col14-cat0" fill="#777" stroke="#DDD" width="70" height="388" x="0" y="-388" rx="8" ry="8"/><text text-anchor="middle" fill="#FFF" x="35" y="-368">3815</text></a></g></g><rect fill="none" stroke="#DDD" width="70" height="30" rx="8" ry="8" x="1125" y="403"/><text text-anchor="middle" fill="#333" x="1160" y="423">14-12</text><g transform="translate(1125,443)"></g></g><g><g transform="translate(1205,393)"><g><a target="_top" xlink:href="dtp-sliceTagPayment-step5605201-ofs0-col15-cat0.html"><rect style="display:none" class="hcell-act-col15-cat0" fill="#777" stroke="#000" stroke-width="5" width="70" height="321" x="0" y="-326" rx="8" ry="8"/><rect class="hcell-col15-cat0" fill="#777" stroke="#DDD" width="70" height="331" x="0" y="-331" rx="8" ry="8"/><text text-anchor="middle" fill="#FFF" x="35" y="-311">3248</text></a></g></g><rect fill="none" stroke="#DDD" width="70" height="30" rx="8" ry="8" x="1205" y="403"/><text text-anchor="middle" fill="#333" x="1240" y="423">15-03</text><g transform="translate(1205,443)"></g></g></svg>