<svg xmlns="http://www.w3.org/2000/svg" xmlns:xlink="http://www.w3.org/1999/xlink" width="100%" height="100%" viewBox="0 0 1280 552"><g><g transform="translate(5,437)"><g><a target="_top" xlink:href="dtp-slice0-step2628000-ofs0-col0-cat2.html"><rect style="display:none" class="hcell-act-col0-cat2" fill="#5CB85C" stroke="#000" stroke-width="5" width="70" height="20" x="0" y="-25" rx="8" ry="8"/><rect class="hcell-col0-cat2" fill="#5CB85C" stroke="#DDD" width="70" height="30" x="0" y="-30" rx="8" ry="8"/><text text-anchor="middle" fill="#FFF" x="35" y="-10">60</text></a><g transform="translate(0,-30)"><g><a target="_top" xlink:href="dtp-slice0-step2628000-ofs0-col0-cat3.html"><rect style="display:none" class="hcell-act-col0-cat3" fill="#5BC0DE" stroke="#000" stroke-width="5" width="70" height="20" x="0" y="-25" rx="8" ry="8"/><rect class="hcell-col0-cat3" fill="#5BC0DE" stroke="#DDD" width="70" height="30" x="0" y="-30" rx="8" ry="8"/><text text-anchor="middle" fill="#FFF" x="35" y="-10">155</text></a><g transform="translate(0,-30)"><g><a target="_top" xlink:href="dtp-slice0-step2628000-ofs0-col0-cat4.html"><rect style="display:none" class="hcell-act-col0-cat4" fill="#337AB7" stroke="#000" stroke-width="5" width="70" height="20" x="0" y="-25" rx="8" ry="8"/><rect class="hcell-col0-cat4" fill="#337AB7" stroke="#DDD" width="70" height="30" x="0" y="-30" rx="8" ry="8"/><text text-anchor="middle" fill="#FFF" x="35" y="-10">175</text></a><g transform="translate(0,-30)"><g><a target="_top" xlink:href="dtp-slice0-step2628000-ofs0-col0-cat1.html"><rect style="display:none" class="hcell-act-col0-cat1" fill="#F0AD4E" stroke="#000" stroke-width="5" width="70" height="63" x="0" y="-68" rx="8" ry="8"/><rect class="hcell-col0-cat1" fill="#F0AD4E" stroke="#DDD" width="70" height="73" x="0" y="-73" rx="8" ry="8"/><text text-anchor="middle" fill="#FFF" x="35" y="-53">863</text></a><g transform="translate(0,-73)"><g><a target="_top" xlink:href="dtp-slice0-step2628000-ofs0-col0-cat0.html"><rect style="display:none" class="hcell-act-col0-cat0" fill="#D9534F" stroke="#000" stroke-width="5" width="70" height="82" x="0" y="-87" rx="8" ry="8"/><rect class="hcell-col0-cat0" fill="#D9534F" stroke="#DDD" width="70" height="92" x="0" y="-92" rx="8" ry="8"/><text text-anchor="middle" fill="#FFF" x="35" y="-72">1087</text></a></g></g></g></g></g></g></g></g></g></g><rect fill="none" stroke="#DDD" width="70" height="30" rx="8" ry="8" x="5" y="447"/><text text-anchor="middle" fill="#333" x="40" y="467">12-07</text><g transform="translate(5,487)"></g></g><g><g transform="translate(85,437)"><g><a target="_top" xlink:href="dtp-slice0-step2628000-ofs0-col1-cat3.html"><rect style="display:none" class="hcell-act-col1-cat3" fill="#5BC0DE" stroke="#000" stroke-width="5" width="70" height="20" x="0" y="-25" rx="8" ry="8"/><rect class="hcell-col1-cat3" fill="#5BC0DE" stroke="#DDD" width="70" height="30" x="0" y="-30" rx="8" ry="8"/><text text-anchor="middle" fill="#FFF" x="35" y="-10">94</text></a><g transform="translate(0,-30)"><g><a target="_top" xlink:href="dtp-slice0-step2628000-ofs0-col1-cat2.html"><rect style="display:none" class="hcell-act-col1-cat2" fill="#5CB85C" stroke="#000" stroke-width="5" width="70" height="20" x="0" y="-25" rx="8" ry="8"/><rect class="hcell-col1-cat2" fill="#5CB85C" stroke="#DDD" width="70" height="30" x="0" y="-30" rx="8" ry="8"/><text text-anchor="middle" fill="#FFF" x="35" y="-10">114</text></a><g transform="translate(0,-30)"><g><a target="_top" xlink:href="dtp-slice0-step2628000-ofs0-col1-cat4.html"><rect style="display:none" class="hcell-act-col1-cat4" fill="#337AB7" stroke="#000" stroke-width="5" width="70" height="20" x="0" y="-25" rx="8" ry="8"/><rect class="hcell-col1-cat4" fill="#337AB7" stroke="#DDD" width="70" height="30" x="0" y="-30" rx="8" ry="8"/><text text-anchor="middle" fill="#FFF" x="35" y="-10">166</text></a><g transform="translate(0,-30)"><g><a target="_top" xlink:href="dtp-slice0-step2628000-ofs0-col1-cat1.html"><rect style="display:none" class="hcell-act-col1-cat1" fill="#F0AD4E" stroke="#000" stroke-width="5" width="70" height="49" x="0" y="-54" rx="8" ry="8"/><rect class="hcell-col1-cat1" fill="#F0AD4E" stroke="#DDD" width="70" height="59" x="0" y="-59" rx="8" ry="8"/><text text-anchor="middle" fill="#FFF" x="35" y="-39">694</text></a><g transform="translate(0,-59)"><g><a target="_top" xlink:href="dtp-slice0-step2628000-ofs0-col1-cat0.html"><rect style="display:none" class="hcell-act-col1-cat0" fill="#D9534F" stroke="#000" stroke-width="5" width="70" height="93" x="0" y="-98" rx="8" ry="8"/><rect class="hcell-col1-cat0" fill="#D9534F" stroke="#DDD" width="70" height="103" x="0" y="-103" rx="8" ry="8"/><text text-anchor="middle" fill="#FFF" x="35" y="-83">1217</text></a></g></g></g></g></g></g></g></g></g></g><rect fill="none" stroke="#DDD" width="70" height="30" rx="8" ry="8" x="85" y="447"/><text text-anchor="middle" fill="#333" x="120" y="467">12-08</text><g transform="translate(85,487)"><g><a target="_top" xlink:href="dtp-slice0-step2628000-ofs0-col1-cat4.html"><rect style="display:none" class="hcell-act-col1-cat4" fill="#337AB7" stroke="#000" stroke-width="5" width="70" height="20" x="0" y="5" rx="8" ry="8"/><rect class="hcell-col1-cat4" fill="#337AB7" stroke="#DDD" width="70" height="30" x="0" y="0" rx="8" ry="8"/><text text-anchor="middle" fill="#FFF" x="35" y="20">-157</text></a></g></g></g><g><g transform="translate(165,437)"><g><a target="_top" xlink:href="dtp-slice0-step2628000-ofs0-col2-cat2.html"><rect style="display:none" class="hcell-act-col2-cat2" fill="#5CB85C" stroke="#000" stroke-width="5" width="70" height="20" x="0" y="-25" rx="8" ry="8"/><rect class="hcell-col2-cat2" fill="#5CB85C" stroke="#DDD" width="70" height="30" x="0" y="-30" rx="8" ry="8"/><text text-anchor="middle" fill="#FFF" x="35" y="-10">33</text></a><g transform="translate(0,-30)"><g><a target="_top" xlink:href="dtp-slice0-step2628000-ofs0-col2-cat3.html"><rect style="display:none" class="hcell-act-col2-cat3" fill="#5BC0DE" stroke="#000" stroke-width="5" width="70" height="20" x="0" y="-25" rx="8" ry="8"/><rect class="hcell-col2-cat3" fill="#5BC0DE" stroke="#DDD" width="70" height="30" x="0" y="-30" rx="8" ry="8"/><text text-anchor="middle" fill="#FFF" x="35" y="-10">139</text></a><g transform="translate(0,-30)"><g><a target="_top" xlink:href="dtp-slice0-step2628000-ofs0-col2-cat4.html"><rect style="display:none" class="hcell-act-col2-cat4" fill="#337AB7" stroke="#000" stroke-width="5" width="70" height="20" x="0" y="-25" rx="8" ry="8"/><rect class="hcell-col2-cat4" fill="#337AB7" stroke="#DDD" width="70" height="30" x="0" y="-30" rx="8" ry="8"/><text text-anchor="middle" fill="#FFF" x="35" y="-10">328</text></a><g transform="translate(0,-30)"><g><a target="_top" xlink:href="dtp-slice0-step2628000-ofs0-col2-cat1.html"><rect style="display:none" class="hcell-act-col2-cat1" fill="#F0AD4E" stroke="#000" stroke-width="5" width="70" height="54" x="0" y="-59" rx="8" ry="8"/><rect class="hcell-col2-cat1" fill="#F0AD4E" stroke="#DDD" width="70" height="64" x="0" y="-64" rx="8" ry="8"/><text text-anchor="middle" fill="#FFF" x="35" y="-44">751</text></a><g transform="translate(0,-64)"><g><a target="_top" xlink:href="dtp-slice0-step2628000-ofs0-col2-cat0.html"><rect style="display:none" class="hcell-act-col2-cat0" fill="#D9534F" stroke="#000" stroke-width="5" width="70" height="88" x="0" y="-93" rx="8" ry="8"/><rect class="hcell-col2-cat0" fill="#D9534F" stroke="#DDD" width="70" height="98" x="0" y="-98" rx="8" ry="8"/><text text-anchor="middle" fill="#FFF" x="35" y="-78">1155</text></a></g></g></g></g></g></g></g></g></g></g><rect fill="none" stroke="#DDD" width="70" height="30" rx="8" ry="8" x="165" y="447"/><text text-anchor="middle" fill="#333" x="200" y="467">12-08</text><g transform="translate(165,487)"><g><a target="_top" xlink:href="dtp-slice0-step2628000-ofs0-col2-cat4.html"><rect style="display:none" class="hcell-act-col2-cat4" fill="#337AB7" stroke="#000" stroke-width="5" width="70" height="20" x="0" y="5" rx="8" ry="8"/><rect class="hcell-col2-cat4" fill="#337AB7" stroke="#DDD" width="70" height="30" x="0" y="0" rx="8" ry="8"/><text text-anchor="middle" fill="#FFF" x="35" y="20">-75</text></a></g></g></g><g><g transform="translate(245,437)"><g><a target="_top" xlink:href="dtp-slice0-step2628000-ofs0-col3-cat5.html"><rect style="display:none" class="hcell-act-col3-cat5" fill="#777" stroke="#000" stroke-width="5" width="70" height="20" x="0" y="-25" rx="8" ry="8"/><rect class="hcell-col3-cat5" fill="#777" stroke="#DDD" width="70" height="30" x="0" y="-30" rx="8" ry="8"/><text text-anchor="middle" fill="#FFF" x="35" y="-10">37</text></a><g transform="translate(0,-30)"><g><a target="_top" xlink:href="dtp-slice0-step2628000-ofs0-col3-cat2.html"><rect style="display:none" class="hcell-act-col3-cat2" fill="#5CB85C" stroke="#000" stroke-width="5" width="70" height="20" x="0" y="-25" rx="8" ry="8"/><rect class="hcell-col3-cat2" fill="#5CB85C" stroke="#DDD" width="70" height="30" x="0" y="-30" rx="8" ry="8"/><text text-anchor="middle" fill="#FFF" x="35" y="-10">140</text></a><g transform="translate(0,-30)"><g><a target="_top" xlink:href="dtp-slice0-step2628000-ofs0-col3-cat3.html"><rect style="display:none" class="hcell-act-col3-cat3" fill="#5BC0DE" stroke="#000" stroke-width="5" width="70" height="20" x="0" y="-25" rx="8" ry="8"/><rect class="hcell-col3-cat3" fill="#5BC0DE" stroke="#DDD" width="70" height="30" x="0" y="-30" rx="8" ry="8"/><text text-anchor="middle" fill="#FFF" x="35" y="-10">171</text></a><g transform="translate(0,-30)"><g><a target="_top" xlink:href="dtp-slice0-step2628000-ofs0-col3-cat4.html"><rect style="display:none" class="hcell-act-col3-cat4" fill="#337AB7" stroke="#000" stroke-width="5" width="70" height="20" x="0" y="-25" rx="8" ry="8"/><rect class="hcell-col3-cat4" fill="#337AB7" stroke="#DDD" width="70" height="30" x="0" y="-30" rx="8" ry="8"/><text text-anchor="middle" fill="#FFF" x="35" y="-10">255</text></a><g transform="translate(0,-30)"><g><a target="_top" xlink:href="dtp-slice0-step2628000-ofs0-col3-cat1.html"><rect style="display:none" class="hcell-act-col3-cat1" fill="#F0AD4E" stroke="#000" stroke-width="5" width="70" height="36" x="0" y="-41" rx="8" ry="8"/><rect class="hcell-col3-cat1" fill="#F0AD4E" stroke="#DDD" width="70" height="46" x="0" y="-46" rx="8" ry="8"/><text text-anchor="middle" fill="#FFF" x="35" y="-26">548</text></a><g transform="translate(0,-46)"><g><a target="_top" xlink:href="dtp-slice0-step2628000-ofs0-col3-cat0.html"><rect style="display:none" class="hcell-act-col3-cat0" fill="#D9534F" stroke="#000" stroke-width="5" width="70" height="93" x="0" y="-98" rx="8" ry="8"/><rect class="hcell-col3-cat0" fill="#D9534F" stroke="#DDD" width="70" height="103" x="0" y="-103" rx="8" ry="8"/><text text-anchor="middle" fill="#FFF" x="35" y="-83">1209</text></a></g></g></g></g></g></g></g></g></g></g></g></g><rect fill="none" stroke="#DDD" width="70" height="30" rx="8" ry="8" x="245" y="447"/><text text-anchor="middle" fill="#333" x="280" y="467">12-10</text><g transform="translate(245,487)"><g><a target="_top" xlink:href="dtp-slice0-step2628000-ofs0-col3-cat5.html"><rect style="display:none" class="hcell-act-col3-cat5" fill="#777" stroke="#000" stroke-width="5" width="70" height="20" x="0" y="5" rx="8" ry="8"/><rect class="hcell-col3-cat5" fill="#777" stroke="#DDD" width="70" height="30" x="0" y="0" rx="8" ry="8"/><text text-anchor="middle" fill="#FFF" x="35" y="20">-27</text></a></g></g></g><g><g transform="translate(325,437)"><g><a target="_top" xlink:href="dtp-slice0-step2628000-ofs0-col4-cat2.html"><rect style="display:none" class="hcell-act-col4-cat2" fill="#5CB85C" stroke="#000" stroke-width="5" width="70" height="20" x="0" y="-25" rx="8" ry="8"/><rect class="hcell-col4-cat2" fill="#5CB85C" stroke="#DDD" width="70" height="30" x="0" y="-30" rx="8" ry="8"/><text text-anchor="middle" fill="#FFF" x="35" y="-10">66</text></a><g transform="translate(0,-30)"><g><a target="_top" xlink:href="dtp-slice0-step2628000-ofs0-col4-cat1.html"><rect style="display:none" class="hcell-act-col4-cat1" fill="#F0AD4E" stroke="#000" stroke-width="5" width="70" height="20" x="0" y="-25" rx="8" ry="8"/><rect class="hcell-col4-cat1" fill="#F0AD4E" stroke="#DDD" width="70" height="30" x="0" y="-30" rx="8" ry="8"/><text text-anchor="middle" fill="#FFF" x="35" y="-10">74</text></a><g transform="translate(0,-30)"><g><a target="_top" xlink:href="dtp-slice0-step2628000-ofs0-col4-cat5.html"><rect style="display:none" class="hcell-act-col4-cat5" fill="#777" stroke="#000" stroke-width="5" width="70" height="20" x="0" y="-25" rx="8" ry="8"/><rect class="hcell-col4-cat5" fill="#777" stroke="#DDD" width="70" height="30" x="0" y="-30" rx="8" ry="8"/><text text-anchor="middle" fill="#FFF" x="35" y="-10">82</text></a><g transform="translate(0,-30)"><g><a target="_top" xlink:href="dtp-slice0-step2628000-ofs0-col4-cat3.html"><rect style="display:none" class="hcell-act-col4-cat3" fill="#5BC0DE" stroke="#000" stroke-width="5" width="70" height="20" x="0" y="-25" rx="8" ry="8"/><rect class="hcell-col4-cat3" fill="#5BC0DE" stroke="#DDD" width="70" height="30" x="0" y="-30" rx="8" ry="8"/><text text-anchor="middle" fill="#FFF" x="35" y="-10">90</text></a><g transform="translate(0,-30)"><g><a target="_top" xlink:href="dtp-slice0-step2628000-ofs0-col4-cat4.html"><rect style="display:none" class="hcell-act-col4-cat4" fill="#337AB7" stroke="#000" stroke-width="5" width="70" height="20" x="0" y="-25" rx="8" ry="8"/><rect class="hcell-col4-cat4" fill="#337AB7" stroke="#DDD" width="70" height="30" x="0" y="-30" rx="8" ry="8"/><text text-anchor="middle" fill="#FFF" x="35" y="-10">166</text></a><g transform="translate(0,-30)"><g><a target="_top" xlink:href="dtp-slice0-step2628000-ofs0-col4-cat0.html"><rect style="display:none" class="hcell-act-col4-cat0" fill="#D9534F" stroke="#000" stroke-width="5" width="70" height="88" x="0" y="-93" rx="8" ry="8"/><rect class="hcell-col4-cat0" fill="#D9534F" stroke="#DDD" width="70" height="98" x="0" y="-98" rx="8" ry="8"/><text text-anchor="middle" fill="#FFF" x="35" y="-78">1150</text></a></g></g></g></g></g></g></g></g></g></g></g></g><rect fill="none" stroke="#DDD" width="70" height="30" rx="8" ry="8" x="325" y="447"/><text text-anchor="middle" fill="#333" x="360" y="467">12-10</text><g transform="translate(325,487)"><g><a target="_top" xlink:href="dtp-slice0-step2628000-ofs0-col4-cat5.html"><rect style="display:none" class="hcell-act-col4-cat5" fill="#777" stroke="#000" stroke-width="5" width="70" height="20" x="0" y="5" rx="8" ry="8"/><rect class="hcell-col4-cat5" fill="#777" stroke="#DDD" width="70" height="30" x="0" y="0" rx="8" ry="8"/><text text-anchor="middle" fill="#FFF" x="35" y="20">-21</text></a></g></g></g><g><g transform="translate(405,437)"><g><a target="_top" xlink:href="dtp-slice0-step2628000-ofs0-col5-cat5.html"><rect style="display:none" class="hcell-act-col5-cat5" fill="#777" stroke="#000" stroke-width="5" width="70" height="20" x="0" y="-25" rx="8" ry="8"/><rect class="hcell-col5-cat5" fill="#777" stroke="#DDD" width="70" height="30" x="0" y="-30" rx="8" ry="8"/><text text-anchor="middle" fill="#FFF" x="35" y="-10">40</text></a><g transform="translate(0,-30)"><g><a target="_top" xlink:href="dtp-slice0-step2628000-ofs0-col5-cat3.html"><rect style="display:none" class="hcell-act-col5-cat3" fill="#5BC0DE" stroke="#000" stroke-width="5" width="70" height="20" x="0" y="-25" rx="8" ry="8"/><rect class="hcell-col5-cat3" fill="#5BC0DE" stroke="#DDD" width="70" height="30" x="0" y="-30" rx="8" ry="8"/><text text-anchor="middle" fill="#FFF" x="35" y="-10">98</text></a><g transform="translate(0,-30)"><g><a target="_top" xlink:href="dtp-slice0-step2628000-ofs0-col5-cat2.html"><rect style="display:none" class="hcell-act-col5-cat2" fill="#5CB85C" stroke="#000" stroke-width="5" width="70" height="20" x="0" y="-25" rx="8" ry="8"/><rect class="hcell-col5-cat2" fill="#5CB85C" stroke="#DDD" width="70" height="30" x="0" y="-30" rx="8" ry="8"/><text text-anchor="middle" fill="#FFF" x="35" y="-10">100</text></a><g transform="translate(0,-30)"><g><a target="_top" xlink:href="dtp-slice0-step2628000-ofs0-col5-cat4.html"><rect style="display:none" class="hcell-act-col5-cat4" fill="#337AB7" stroke="#000" stroke-width="5" width="70" height="20" x="0" y="-25" rx="8" ry="8"/><rect class="hcell-col5-cat4" fill="#337AB7" stroke="#DDD" width="70" height="30" x="0" y="-30" rx="8" ry="8"/><text text-anchor="middle" fill="#FFF" x="35" y="-10">241</text></a><g transform="translate(0,-30)"><g><a target="_top" xlink:href="dtp-slice0-step2628000-ofs0-col5-cat1.html"><rect style="display:none" class="hcell-act-col5-cat1" fill="#F0AD4E" stroke="#000" stroke-width="5" width="70" height="47" x="0" y="-52" rx="8" ry="8"/><rect class="hcell-col5-cat1" fill="#F0AD4E" stroke="#DDD" width="70" height="57" x="0" y="-57" rx="8" ry="8"/><text text-anchor="middle" fill="#FFF" x="35" y="-37">670</text></a><g transform="translate(0,-57)"><g><a target="_top" xlink:href="dtp-slice0-step2628000-ofs0-col5-cat0.html"><rect style="display:none" class="hcell-act-col5-cat0" fill="#D9534F" stroke="#000" stroke-width="5" width="70" height="95" x="0" y="-100" rx="8" ry="8"/><rect class="hcell-col5-cat0" fill="#D9534F" stroke="#DDD" width="70" height="105" x="0" y="-105" rx="8" ry="8"/><text text-anchor="middle" fill="#FFF" x="35" y="-85">1234</text></a></g></g></g></g></g></g></g></g></g></g></g></g><rect fill="none" stroke="#DDD" width="70" height="30" rx="8" ry="8" x="405" y="447"/><text text-anchor="middle" fill="#333" x="440" y="467">12-12</text><g transform="translate(405,487)"><g><a target="_top" xlink:href="dtp-slice0-step2628000-ofs0-col5-cat5.html"><rect style="display:none" class="hcell-act-col5-cat5" fill="#777" stroke="#000" stroke-width="5" width="70" height="20" x="0" y="5" rx="8" ry="8"/><rect class="hcell-col5-cat5" fill="#777" stroke="#DDD" width="70" height="30" x="0" y="0" rx="8" ry="8"/><text text-anchor="middle" fill="#FFF" x="35" y="20">-12</text></a></g></g></g><g><g transform="translate(485,437)"><g><a target="_top" xlink:href="dtp-slice0-step2628000-ofs0-col6-cat5.html"><rect style="display:none" class="hcell-act-col6-cat5" fill="#777" stroke="#000" stroke-width="5" width="70" height="20" x="0" y="-25" rx="8" ry="8"/><rect class="hcell-col6-cat5" fill="#777" stroke="#DDD" width="70" height="30" x="0" y="-30" rx="8" ry="8"/><text text-anchor="middle" fill="#FFF" x="35" y="-10">36</text></a><g transform="translate(0,-30)"><g><a target="_top" xlink:href="dtp-slice0-step2628000-ofs0-col6-cat4.html"><rect style="display:none" class="hcell-act-col6-cat4" fill="#337AB7" stroke="#000" stroke-width="5" width="70" height="20" x="0" y="-25" rx="8" ry="8"/><rect class="hcell-col6-cat4" fill="#337AB7" stroke="#DDD" width="70" height="30" x="0" y="-30" rx="8" ry="8"/><text text-anchor="middle" fill="#FFF" x="35" y="-10">135</text></a><g transform="translate(0,-30)"><g><a target="_top" xlink:href="dtp-slice0-step2628000-ofs0-col6-cat3.html"><rect style="display:none" class="hcell-act-col6-cat3" fill="#5BC0DE" stroke="#000" stroke-width="5" width="70" height="20" x="0" y="-25" rx="8" ry="8"/><rect class="hcell-col6-cat3" fill="#5BC0DE" stroke="#DDD" width="70" height="30" x="0" y="-30" rx="8" ry="8"/><text text-anchor="middle" fill="#FFF" x="35" y="-10">140</text></a><g transform="translate(0,-30)"><g><a target="_top" xlink:href="dtp-slice0-step2628000-ofs0-col6-cat2.html"><rect style="display:none" class="hcell-act-col6-cat2" fill="#5CB85C" stroke="#000" stroke-width="5" width="70" height="20" x="0" y="-25" rx="8" ry="8"/><rect class="hcell-col6-cat2" fill="#5CB85C" stroke="#DDD" width="70" height="30" x="0" y="-30" rx="8" ry="8"/><text text-anchor="middle" fill="#FFF" x="35" y="-10">166</text></a><g transform="translate(0,-30)"><g><a target="_top" xlink:href="dtp-slice0-step2628000-ofs0-col6-cat1.html"><rect style="display:none" class="hcell-act-col6-cat1" fill="#F0AD4E" stroke="#000" stroke-width="5" width="70" height="20" x="0" y="-25" rx="8" ry="8"/><rect class="hcell-col6-cat1" fill="#F0AD4E" stroke="#DDD" width="70" height="30" x="0" y="-30" rx="8" ry="8"/><text text-anchor="middle" fill="#FFF" x="35" y="-10">296</text></a><g transform="translate(0,-30)"><g><a target="_top" xlink:href="dtp-slice0-step2628000-ofs0-col6-cat0.html"><rect style="display:none" class="hcell-act-col6-cat0" fill="#D9534F" stroke="#000" stroke-width="5" width="70" height="139" x="0" y="-144" rx="8" ry="8"/><rect class="hcell-col6-cat0" fill="#D9534F" stroke="#DDD" width="70" height="149" x="0" y="-149" rx="8" ry="8"/><text text-anchor="middle" fill="#FFF" x="35" y="-129">1758</text></a></g></g></g></g></g></g></g></g></g></g></g></g><rect fill="none" stroke="#DDD" width="70" height="30" rx="8" ry="8" x="485" y="447"/><text text-anchor="middle" fill="#333" x="520" y="467">12-12</text><g transform="translate(485,487)"><g><a target="_top" xlink:href="dtp-slice0-step2628000-ofs0-col6-cat5.html"><rect style="display:none" class="hcell-act-col6-cat5" fill="#777" stroke="#000" stroke-width="5" width="70" height="20" x="0" y="5" rx="8" ry="8"/><rect class="hcell-col6-cat5" fill="#777" stroke="#DDD" width="70" height="30" x="0" y="0" rx="8" ry="8"/><text text-anchor="middle" fill="#FFF" x="35" y="20">-12</text></a></g></g></g><g><g transform="translate(565,437)"><g><a target="_top" xlink:href="dtp-slice0-step2628000-ofs0-col7-cat5.html"><rect style="display:none" class="hcell-act-col7-cat5" fill="#777" stroke="#000" stroke-width="5" width="70" height="20" x="0" y="-25" rx="8" ry="8"/><rect class="hcell-col7-cat5" fill="#777" stroke="#DDD" width="70" height="30" x="0" y="-30" rx="8" ry="8"/><text text-anchor="middle" fill="#FFF" x="35" y="-10">30</text></a><g transform="translate(0,-30)"><g><a target="_top" xlink:href="dtp-slice0-step2628000-ofs0-col7-cat2.html"><rect style="display:none" class="hcell-act-col7-cat2" fill="#5CB85C" stroke="#000" stroke-width="5" width="70" height="20" x="0" y="-25" rx="8" ry="8"/><rect class="hcell-col7-cat2" fill="#5CB85C" stroke="#DDD" width="70" height="30" x="0" y="-30" rx="8" ry="8"/><text text-anchor="middle" fill="#FFF" x="35" y="-10">74</text></a><g transform="translate(0,-30)"><g><a target="_top" xlink:href="dtp-slice0-step2628000-ofs0-col7-cat3.html"><rect style="display:none" class="hcell-act-col7-cat3" fill="#5BC0DE" stroke="#000" stroke-width="5" width="70" height="20" x="0" y="-25" rx="8" ry="8"/><rect class="hcell-col7-cat3" fill="#5BC0DE" stroke="#DDD" width="70" height="30" x="0" y="-30" rx="8" ry="8"/><text text-anchor="middle" fill="#FFF" x="35" y="-10">113</text></a><g transform="translate(0,-30)"><g><a target="_top" xlink:href="dtp-slice0-step2628000-ofs0-col7-cat4.html"><rect style="display:none" class="hcell-act-col7-cat4" fill="#337AB7" stroke="#000" stroke-width="5" width="70" height="20" x="0" y="-25" rx="8" ry="8"/><rect class="hcell-col7-cat4" fill="#337AB7" stroke="#DDD" width="70" height="30" x="0" y="-30" rx="8" ry="8"/><text text-anchor="middle" fill="#FFF" x="35" y="-10">201</text></a><g transform="translate(0,-30)"><g><a target="_top" xlink:href="dtp-slice0-step2628000-ofs0-col7-cat1.html"><rect style="display:none" class="hcell-act-col7-cat1" fill="#F0AD4E" stroke="#000" stroke-width="5" width="70" height="33" x="0" y="-38" rx="8" ry="8"/><rect class="hcell-col7-cat1" fill="#F0AD4E" stroke="#DDD" width="70" height="43" x="0" y="-43" rx="8" ry="8"/><text text-anchor="middle" fill="#FFF" x="35" y="-23">505</text></a><g transform="translate(0,-43)"><g><a target="_top" xlink:href="dtp-slice0-step2628000-ofs0-col7-cat0.html"><rect style="display:none" class="hcell-act-col7-cat0" fill="#D9534F" stroke="#000" stroke-width="5" width="70" height="91" x="0" y="-96" rx="8" ry="8"/><rect class="hcell-col7-cat0" fill="#D9534F" stroke="#DDD" width="70" height="101" x="0" y="-101" rx="8" ry="8"/><text text-anchor="middle" fill="#FFF" x="35" y="-81">1193</text></a></g></g></g></g></g></g></g></g></g></g></g></g><rect fill="none" stroke="#DDD" width="70" height="30" rx="8" ry="8" x="565" y="447"/><text text-anchor="middle" fill="#333" x="600" y="467">13-01</text><g transform="translate(565,487)"><g><a target="_top" xlink:href="dtp-slice0-step2628000-ofs0-col7-cat5.html"><rect style="display:none" class="hcell-act-col7-cat5" fill="#777" stroke="#000" stroke-width="5" width="70" height="20" x="0" y="5" rx="8" ry="8"/><rect class="hcell-col7-cat5" fill="#777" stroke="#DDD" width="70" height="30" x="0" y="0" rx="8" ry="8"/><text text-anchor="middle" fill="#FFF" x="35" y="20">-27</text></a></g></g></g><g><g transform="translate(645,437)"><g><a target="_top" xlink:href="dtp-slice0-step2628000-ofs0-col8-cat5.html"><rect style="display:none" class="hcell-act-col8-cat5" fill="#777" stroke="#000" stroke-width="5" width="70" height="20" x="0" y="-25" rx="8" ry="8"/><rect class="hcell-col8-cat5" fill="#777" stroke="#DDD" width="70" height="30" x="0" y="-30" rx="8" ry="8"/><text text-anchor="middle" fill="#FFF" x="35" y="-10">11</text></a><g transform="translate(0,-30)"><g><a target="_top" xlink:href="dtp-slice0-step2628000-ofs0-col8-cat2.html"><rect style="display:none" class="hcell-act-col8-cat2" fill="#5CB85C" stroke="#000" stroke-width="5" width="70" height="20" x="0" y="-25" rx="8" ry="8"/><rect class="hcell-col8-cat2" fill="#5CB85C" stroke="#DDD" width="70" height="30" x="0" y="-30" rx="8" ry="8"/><text text-anchor="middle" fill="#FFF" x="35" y="-10">96</text></a><g transform="translate(0,-30)"><g><a target="_top" xlink:href="dtp-slice0-step2628000-ofs0-col8-cat3.html"><rect style="display:none" class="hcell-act-col8-cat3" fill="#5BC0DE" stroke="#000" stroke-width="5" width="70" height="20" x="0" y="-25" rx="8" ry="8"/><rect class="hcell-col8-cat3" fill="#5BC0DE" stroke="#DDD" width="70" height="30" x="0" y="-30" rx="8" ry="8"/><text text-anchor="middle" fill="#FFF" x="35" y="-10">143</text></a><g transform="translate(0,-30)"><g><a target="_top" xlink:href="dtp-slice0-step2628000-ofs0-col8-cat4.html"><rect style="display:none" class="hcell-act-col8-cat4" fill="#337AB7" stroke="#000" stroke-width="5" width="70" height="20" x="0" y="-25" rx="8" ry="8"/><rect class="hcell-col8-cat4" fill="#337AB7" stroke="#DDD" width="70" height="30" x="0" y="-30" rx="8" ry="8"/><text text-anchor="middle" fill="#FFF" x="35" y="-10">318</text></a><g transform="translate(0,-30)"><g><a target="_top" xlink:href="dtp-slice0-step2628000-ofs0-col8-cat1.html"><rect style="display:none" class="hcell-act-col8-cat1" fill="#F0AD4E" stroke="#000" stroke-width="5" width="70" height="50" x="0" y="-55" rx="8" ry="8"/><rect class="hcell-col8-cat1" fill="#F0AD4E" stroke="#DDD" width="70" height="60" x="0" y="-60" rx="8" ry="8"/><text text-anchor="middle" fill="#FFF" x="35" y="-40">711</text></a><g transform="translate(0,-60)"><g><a target="_top" xlink:href="dtp-slice0-step2628000-ofs0-col8-cat0.html"><rect style="display:none" class="hcell-act-col8-cat0" fill="#D9534F" stroke="#000" stroke-width="5" width="70" height="90" x="0" y="-95" rx="8" ry="8"/><rect class="hcell-col8-cat0" fill="#D9534F" stroke="#DDD" width="70" height="100" x="0" y="-100" rx="8" ry="8"/><text text-anchor="middle" fill="#FFF" x="35" y="-80">1181</text></a></g></g></g></g></g></g></g></g></g></g></g></g><rect fill="none" stroke="#DDD" width="70" height="30" rx="8" ry="8" x="645" y="447"/><text text-anchor="middle" fill="#333" x="680" y="467">13-03</text><g transform="translate(645,487)"><g><a target="_top" xlink:href="dtp-slice0-step2628000-ofs0-col8-cat5.html"><rect style="display:none" class="hcell-act-col8-cat5" fill="#777" stroke="#000" stroke-width="5" width="70" height="20" x="0" y="5" rx="8" ry="8"/><rect class="hcell-col8-cat5" fill="#777" stroke="#DDD" width="70" height="30" x="0" y="0" rx="8" ry="8"/><text text-anchor="middle" fill="#FFF" x="35" y="20">-16</text></a></g></g></g><g><g transform="translate(725,437)"><g><a target="_top" xlink:href="dtp-slice0-step2628000-ofs0-col9-cat5.html"><rect style="display:none" class="hcell-act-col9-cat5" fill="#777" stroke="#000" stroke-width="5" width="70" height="20" x="0" y="-25" rx="8" ry="8"/><rect class="hcell-col9-cat5" fill="#777" stroke="#DDD" width="70" height="30" x="0" y="-30" rx="8" ry="8"/><text text-anchor="middle" fill="#FFF" x="35" y="-10">4</text></a><g transform="translate(0,-30)"><g><a target="_top" xlink:href="dtp-slice0-step2628000-ofs0-col9-cat3.html"><rect style="display:none" class="hcell-act-col9-cat3" fill="#5BC0DE" stroke="#000" stroke-width="5" width="70" height="20" x="0" y="-25" rx="8" ry="8"/><rect class="hcell-col9-cat3" fill="#5BC0DE" stroke="#DDD" width="70" height="30" x="0" y="-30" rx="8" ry="8"/><text text-anchor="middle" fill="#FFF" x="35" y="-10">62</text></a><g transform="translate(0,-30)"><g><a target="_top" xlink:href="dtp-slice0-step2628000-ofs0-col9-cat2.html"><rect style="display:none" class="hcell-act-col9-cat2" fill="#5CB85C" stroke="#000" stroke-width="5" width="70" height="20" x="0" y="-25" rx="8" ry="8"/><rect class="hcell-col9-cat2" fill="#5CB85C" stroke="#DDD" width="70" height="30" x="0" y="-30" rx="8" ry="8"/><text text-anchor="middle" fill="#FFF" x="35" y="-10">68</text></a><g transform="translate(0,-30)"><g><a target="_top" xlink:href="dtp-slice0-step2628000-ofs0-col9-cat4.html"><rect style="display:none" class="hcell-act-col9-cat4" fill="#337AB7" stroke="#000" stroke-width="5" width="70" height="20" x="0" y="-25" rx="8" ry="8"/><rect class="hcell-col9-cat4" fill="#337AB7" stroke="#DDD" width="70" height="30" x="0" y="-30" rx="8" ry="8"/><text text-anchor="middle" fill="#FFF" x="35" y="-10">316</text></a><g transform="translate(0,-30)"><g><a target="_top" xlink:href="dtp-slice0-step2628000-ofs0-col9-cat1.html"><rect style="display:none" class="hcell-act-col9-cat1" fill="#F0AD4E" stroke="#000" stroke-width="5" width="70" height="22" x="0" y="-27" rx="8" ry="8"/><rect class="hcell-col9-cat1" fill="#F0AD4E" stroke="#DDD" width="70" height="32" x="0" y="-32" rx="8" ry="8"/><text text-anchor="middle" fill="#FFF" x="35" y="-12">384</text></a><g transform="translate(0,-32)"><g><a target="_top" xlink:href="dtp-slice0-step2628000-ofs0-col9-cat0.html"><rect style="display:none" class="hcell-act-col9-cat0" fill="#D9534F" stroke="#000" stroke-width="5" width="70" height="113" x="0" y="-118" rx="8" ry="8"/><rect class="hcell-col9-cat0" fill="#D9534F" stroke="#DDD" width="70" height="123" x="0" y="-123" rx="8" ry="8"/><text text-anchor="middle" fill="#FFF" x="35" y="-103">1450</text></a></g></g></g></g></g></g></g></g></g></g></g></g><rect fill="none" stroke="#DDD" width="70" height="30" rx="8" ry="8" x="725" y="447"/><text text-anchor="middle" fill="#333" x="760" y="467">13-04</text><g transform="translate(725,487)"></g></g><g><g transform="translate(805,437)"><g><a target="_top" xlink:href="dtp-slice0-step2628000-ofs0-col10-cat5.html"><rect style="display:none" class="hcell-act-col10-cat5" fill="#777" stroke="#000" stroke-width="5" width="70" height="20" x="0" y="-25" rx="8" ry="8"/><rect class="hcell-col10-cat5" fill="#777" stroke="#DDD" width="70" height="30" x="0" y="-30" rx="8" ry="8"/><text text-anchor="middle" fill="#FFF" x="35" y="-10">11</text></a><g transform="translate(0,-30)"><g><a target="_top" xlink:href="dtp-slice0-step2628000-ofs0-col10-cat3.html"><rect style="display:none" class="hcell-act-col10-cat3" fill="#5BC0DE" stroke="#000" stroke-width="5" width="70" height="20" x="0" y="-25" rx="8" ry="8"/><rect class="hcell-col10-cat3" fill="#5BC0DE" stroke="#DDD" width="70" height="30" x="0" y="-30" rx="8" ry="8"/><text text-anchor="middle" fill="#FFF" x="35" y="-10">84</text></a><g transform="translate(0,-30)"><g><a target="_top" xlink:href="dtp-slice0-step2628000-ofs0-col10-cat2.html"><rect style="display:none" class="hcell-act-col10-cat2" fill="#5CB85C" stroke="#000" stroke-width="5" width="70" height="20" x="0" y="-25" rx="8" ry="8"/><rect class="hcell-col10-cat2" fill="#5CB85C" stroke="#DDD" width="70" height="30" x="0" y="-30" rx="8" ry="8"/><text text-anchor="middle" fill="#FFF" x="35" y="-10">162</text></a><g transform="translate(0,-30)"><g><a target="_top" xlink:href="dtp-slice0-step2628000-ofs0-col10-cat4.html"><rect style="display:none" class="hcell-act-col10-cat4" fill="#337AB7" stroke="#000" stroke-width="5" width="70" height="20" x="0" y="-25" rx="8" ry="8"/><rect class="hcell-col10-cat4" fill="#337AB7" stroke="#DDD" width="70" height="30" x="0" y="-30" rx="8" ry="8"/><text text-anchor="middle" fill="#FFF" x="35" y="-10">290</text></a><g transform="translate(0,-30)"><g><a target="_top" xlink:href="dtp-slice0-step2628000-ofs0-col10-cat1.html"><rect style="display:none" class="hcell-act-col10-cat1" fill="#F0AD4E" stroke="#000" stroke-width="5" width="70" height="31" x="0" y="-36" rx="8" ry="8"/><rect class="hcell-col10-cat1" fill="#F0AD4E" stroke="#DDD" width="70" height="41" x="0" y="-41" rx="8" ry="8"/><text text-anchor="middle" fill="#FFF" x="35" y="-21">490</text></a><g transform="translate(0,-41)"><g><a target="_top" xlink:href="dtp-slice0-step2628000-ofs0-col10-cat0.html"><rect style="display:none" class="hcell-act-col10-cat0" fill="#D9534F" stroke="#000" stroke-width="5" width="70" height="99" x="0" y="-104" rx="8" ry="8"/><rect class="hcell-col10-cat0" fill="#D9534F" stroke="#DDD" width="70" height="109" x="0" y="-109" rx="8" ry="8"/><text text-anchor="middle" fill="#FFF" x="35" y="-89">1287</text></a></g></g></g></g></g></g></g></g></g></g></g></g><rect fill="none" stroke="#DDD" width="70" height="30" rx="8" ry="8" x="805" y="447"/><text text-anchor="middle" fill="#333" x="840" y="467">13-05</text><g transform="translate(805,487)"><g><a target="_top" xlink:href="dtp-slice0-step2628000-ofs0-col10-cat5.html"><rect style="display:none" class="hcell-act-col10-cat5" fill="#777" stroke="#000" stroke-width="5" width="70" height="20" x="0" y="5" rx="8" ry="8"/><rect class="hcell-col10-cat5" fill="#777" stroke="#DDD" width="70" height="30" x="0" y="0" rx="8" ry="8"/><text text-anchor="middle" fill="#FFF" x="35" y="20">-32</text></a></g></g></g><g><g transform="translate(885,437)"><g><a target="_top" xlink:href="dtp-slice0-step2628000-ofs0-col11-cat5.html"><rect style="display:none" class="hcell-act-col11-cat5" fill="#777" stroke="#000" stroke-width="5" width="70" height="20" x="0" y="-25" rx="8" ry="8"/><rect class="hcell-col11-cat5" fill="#777" stroke="#DDD" width="70" height="30" x="0" y="-30" rx="8" ry="8"/><text text-anchor="middle" fill="#FFF" x="35" y="-10">1</text></a><g transform="translate(0,-30)"><g><a target="_top" xlink:href="dtp-slice0-step2628000-ofs0-col11-cat3.html"><rect style="display:none" class="hcell-act-col11-cat3" fill="#5BC0DE" stroke="#000" stroke-width="5" width="70" height="20" x="0" y="-25" rx="8" ry="8"/><rect class="hcell-col11-cat3" fill="#5BC0DE" stroke="#DDD" width="70" height="30" x="0" y="-30" rx="8" ry="8"/><text text-anchor="middle" fill="#FFF" x="35" y="-10">67</text></a><g transform="translate(0,-30)"><g><a target="_top" xlink:href="dtp-slice0-step2628000-ofs0-col11-cat2.html"><rect style="display:none" class="hcell-act-col11-cat2" fill="#5CB85C" stroke="#000" stroke-width="5" width="70" height="20" x="0" y="-25" rx="8" ry="8"/><rect class="hcell-col11-cat2" fill="#5CB85C" stroke="#DDD" width="70" height="30" x="0" y="-30" rx="8" ry="8"/><text text-anchor="middle" fill="#FFF" x="35" y="-10">152</text></a><g transform="translate(0,-30)"><g><a target="_top" xlink:href="dtp-slice0-step2628000-ofs0-col11-cat4.html"><rect style="display:none" class="hcell-act-col11-cat4" fill="#337AB7" stroke="#000" stroke-width="5" width="70" height="20" x="0" y="-25" rx="8" ry="8"/><rect class="hcell-col11-cat4" fill="#337AB7" stroke="#DDD" width="70" height="30" x="0" y="-30" rx="8" ry="8"/><text text-anchor="middle" fill="#FFF" x="35" y="-10">191</text></a><g transform="translate(0,-30)"><g><a target="_top" xlink:href="dtp-slice0-step2628000-ofs0-col11-cat1.html"><rect style="display:none" class="hcell-act-col11-cat1" fill="#F0AD4E" stroke="#000" stroke-width="5" width="70" height="44" x="0" y="-49" rx="8" ry="8"/><rect class="hcell-col11-cat1" fill="#F0AD4E" stroke="#DDD" width="70" height="54" x="0" y="-54" rx="8" ry="8"/><text text-anchor="middle" fill="#FFF" x="35" y="-34">634</text></a><g transform="translate(0,-54)"><g><a target="_top" xlink:href="dtp-slice0-step2628000-ofs0-col11-cat0.html"><rect style="display:none" class="hcell-act-col11-cat0" fill="#D9534F" stroke="#000" stroke-width="5" width="70" height="103" x="0" y="-108" rx="8" ry="8"/><rect class="hcell-col11-cat0" fill="#D9534F" stroke="#DDD" width="70" height="113" x="0" y="-113" rx="8" ry="8"/><text text-anchor="middle" fill="#FFF" x="35" y="-93">1331</text></a></g></g></g></g></g></g></g></g></g></g></g></g><rect fill="none" stroke="#DDD" width="70" height="30" rx="8" ry="8" x="885" y="447"/><text text-anchor="middle" fill="#333" x="920" y="467">13-06</text><g transform="translate(885,487)"><g><a target="_top" xlink:href="dtp-slice0-step2628000-ofs0-col11-cat4.html"><rect style="display:none" class="hcell-act-col11-cat4" fill="#337AB7" stroke="#000" stroke-width="5" width="70" height="20" x="0" y="5" rx="8" ry="8"/><rect class="hcell-col11-cat4" fill="#337AB7" stroke="#DDD" width="70" height="30" x="0" y="0" rx="8" ry="8"/><text text-anchor="middle" fill="#FFF" x="35" y="20">-59</text></a><g transform="translate(0,30)"><g><a target="_top" xlink:href="dtp-slice0-step2628000-ofs0-col11-cat5.html"><rect style="display:none" class="hcell-act-col11-cat5" fill="#777" stroke="#000" stroke-width="5" width="70" height="20" x="0" y="5" rx="8" ry="8"/><rect class="hcell-col11-cat5" fill="#777" stroke="#DDD" width="70" height="30" x="0" y="0" rx="8" ry="8"/><text text-anchor="middle" fill="#FFF" x="35" y="20">-75</text></a></g></g></g></g></g><g><g transform="translate(965,437)"><g><a target="_top" xlink:href="dtp-slice0-step2628000-ofs0-col12-cat5.html"><rect style="display:none" class="hcell-act-col12-cat5" fill="#777" stroke="#000" stroke-width="5" width="70" height="20" x="0" y="-25" rx="8" ry="8"/><rect class="hcell-col12-cat5" fill="#777" stroke="#DDD" width="70" height="30" x="0" y="-30" rx="8" ry="8"/><text text-anchor="middle" fill="#FFF" x="35" y="-10">36</text></a><g transform="translate(0,-30)"><g><a target="_top" xlink:href="dtp-slice0-step2628000-ofs0-col12-cat3.html"><rect style="display:none" class="hcell-act-col12-cat3" fill="#5BC0DE" stroke="#000" stroke-width="5" width="70" height="20" x="0" y="-25" rx="8" ry="8"/><rect class="hcell-col12-cat3" fill="#5BC0DE" stroke="#DDD" width="70" height="30" x="0" y="-30" rx="8" ry="8"/><text text-anchor="middle" fill="#FFF" x="35" y="-10">139</text></a><g transform="translate(0,-30)"><g><a target="_top" xlink:href="dtp-slice0-step2628000-ofs0-col12-cat2.html"><rect style="display:none" class="hcell-act-col12-cat2" fill="#5CB85C" stroke="#000" stroke-width="5" width="70" height="20" x="0" y="-25" rx="8" ry="8"/><rect class="hcell-col12-cat2" fill="#5CB85C" stroke="#DDD" width="70" height="30" x="0" y="-30" rx="8" ry="8"/><text text-anchor="middle" fill="#FFF" x="35" y="-10">334</text></a><g transform="translate(0,-30)"><g><a target="_top" xlink:href="dtp-slice0-step2628000-ofs0-col12-cat1.html"><rect style="display:none" class="hcell-act-col12-cat1" fill="#F0AD4E" stroke="#000" stroke-width="5" width="70" height="32" x="0" y="-37" rx="8" ry="8"/><rect class="hcell-col12-cat1" fill="#F0AD4E" stroke="#DDD" width="70" height="42" x="0" y="-42" rx="8" ry="8"/><text text-anchor="middle" fill="#FFF" x="35" y="-22">497</text></a><g transform="translate(0,-42)"><g><a target="_top" xlink:href="dtp-slice0-step2628000-ofs0-col12-cat4.html"><rect style="display:none" class="hcell-act-col12-cat4" fill="#337AB7" stroke="#000" stroke-width="5" width="70" height="43" x="0" y="-48" rx="8" ry="8"/><rect class="hcell-col12-cat4" fill="#337AB7" stroke="#DDD" width="70" height="53" x="0" y="-53" rx="8" ry="8"/><text text-anchor="middle" fill="#FFF" x="35" y="-33">625</text></a><g transform="translate(0,-53)"><g><a target="_top" xlink:href="dtp-slice0-step2628000-ofs0-col12-cat0.html"><rect style="display:none" class="hcell-act-col12-cat0" fill="#D9534F" stroke="#000" stroke-width="5" width="70" height="237" x="0" y="-242" rx="8" ry="8"/><rect class="hcell-col12-cat0" fill="#D9534F" stroke="#DDD" width="70" height="247" x="0" y="-247" rx="8" ry="8"/><text text-anchor="middle" fill="#FFF" x="35" y="-227">2898</text></a></g></g></g></g></g></g></g></g></g></g></g></g><rect fill="none" stroke="#DDD" width="70" height="30" rx="8" ry="8" x="965" y="447"/><text text-anchor="middle" fill="#333" x="1000" y="467">13-07</text><g transform="translate(965,487)"></g></g><g><g transform="translate(1045,437)"><g><a target="_top" xlink:href="dtp-slice0-step2628000-ofs0-col13-cat3.html"><rect style="display:none" class="hcell-act-col13-cat3" fill="#5BC0DE" stroke="#000" stroke-width="5" width="70" height="20" x="0" y="-25" rx="8" ry="8"/><rect class="hcell-col13-cat3" fill="#5BC0DE" stroke="#DDD" width="70" height="30" x="0" y="-30" rx="8" ry="8"/><text text-anchor="middle" fill="#FFF" x="35" y="-10">61</text></a><g transform="translate(0,-30)"><g><a target="_top" xlink:href="dtp-slice0-step2628000-ofs0-col13-cat2.html"><rect style="display:none" class="hcell-act-col13-cat2" fill="#5CB85C" stroke="#000" stroke-width="5" width="70" height="20" x="0" y="-25" rx="8" ry="8"/><rect class="hcell-col13-cat2" fill="#5CB85C" stroke="#DDD" width="70" height="30" x="0" y="-30" rx="8" ry="8"/><text text-anchor="middle" fill="#FFF" x="35" y="-10">93</text></a><g transform="translate(0,-30)"><g><a target="_top" xlink:href="dtp-slice0-step2628000-ofs0-col13-cat4.html"><rect style="display:none" class="hcell-act-col13-cat4" fill="#337AB7" stroke="#000" stroke-width="5" width="70" height="20" x="0" y="-25" rx="8" ry="8"/><rect class="hcell-col13-cat4" fill="#337AB7" stroke="#DDD" width="70" height="30" x="0" y="-30" rx="8" ry="8"/><text text-anchor="middle" fill="#FFF" x="35" y="-10">325</text></a><g transform="translate(0,-30)"><g><a target="_top" xlink:href="dtp-slice0-step2628000-ofs0-col13-cat1.html"><rect style="display:none" class="hcell-act-col13-cat1" fill="#F0AD4E" stroke="#000" stroke-width="5" width="70" height="44" x="0" y="-49" rx="8" ry="8"/><rect class="hcell-col13-cat1" fill="#F0AD4E" stroke="#DDD" width="70" height="54" x="0" y="-54" rx="8" ry="8"/><text text-anchor="middle" fill="#FFF" x="35" y="-34">642</text></a><g transform="translate(0,-54)"><g><a target="_top" xlink:href="dtp-slice0-step2628000-ofs0-col13-cat0.html"><rect style="display:none" class="hcell-act-col13-cat0" fill="#D9534F" stroke="#000" stroke-width="5" width="70" height="97" x="0" y="-102" rx="8" ry="8"/><rect class="hcell-col13-cat0" fill="#D9534F" stroke="#DDD" width="70" height="107" x="0" y="-107" rx="8" ry="8"/><text text-anchor="middle" fill="#FFF" x="35" y="-87">1258</text></a></g></g></g></g></g></g></g></g></g></g><rect fill="none" stroke="#DDD" width="70" height="30" rx="8" ry="8" x="1045" y="447"/><text text-anchor="middle" fill="#333" x="1080" y="467">13-08</text><g transform="translate(1045,487)"><g><a target="_top" xlink:href="dtp-slice0-step2628000-ofs0-col13-cat5.html"><rect style="display:none" class="hcell-act-col13-cat5" fill="#777" stroke="#000" stroke-width="5" width="70" height="20" x="0" y="5" rx="8" ry="8"/><rect class="hcell-col13-cat5" fill="#777" stroke="#DDD" width="70" height="30" x="0" y="0" rx="8" ry="8"/><text text-anchor="middle" fill="#FFF" x="35" y="20">-25</text></a></g></g></g><g><g transform="translate(1125,437)"><g><a target="_top" xlink:href="dtp-slice0-step2628000-ofs0-col14-cat3.html"><rect style="display:none" class="hcell-act-col14-cat3" fill="#5BC0DE" stroke="#000" stroke-width="5" width="70" height="20" x="0" y="-25" rx="8" ry="8"/><rect class="hcell-col14-cat3" fill="#5BC0DE" stroke="#DDD" width="70" height="30" x="0" y="-30" rx="8" ry="8"/><text text-anchor="middle" fill="#FFF" x="35" y="-10">8</text></a><g transform="translate(0,-30)"><g><a target="_top" xlink:href="dtp-slice0-step2628000-ofs0-col14-cat5.html"><rect style="display:none" class="hcell-act-col14-cat5" fill="#777" stroke="#000" stroke-width="5" width="70" height="20" x="0" y="-25" rx="8" ry="8"/><rect class="hcell-col14-cat5" fill="#777" stroke="#DDD" width="70" height="30" x="0" y="-30" rx="8" ry="8"/><text text-anchor="middle" fill="#FFF" x="35" y="-10">20</text></a><g transform="translate(0,-30)"><g><a target="_top" xlink:href="dtp-slice0-step2628000-ofs0-col14-cat2.html"><rect style="display:none" class="hcell-act-col14-cat2" fill="#5CB85C" stroke="#000" stroke-width="5" width="70" height="20" x="0" y="-25" rx="8" ry="8"/><rect class="hcell-col14-cat2" fill="#5CB85C" stroke="#DDD" width="70" height="30" x="0" y="-30" rx="8" ry="8"/><text text-anchor="middle" fill="#FFF" x="35" y="-10">146</text></a><g transform="translate(0,-30)"><g><a target="_top" xlink:href="dtp-slice0-step2628000-ofs0-col14-cat1.html"><rect style="display:none" class="hcell-act-col14-cat1" fill="#F0AD4E" stroke="#000" stroke-width="5" width="70" height="20" x="0" y="-25" rx="8" ry="8"/><rect class="hcell-col14-cat1" fill="#F0AD4E" stroke="#DDD" width="70" height="30" x="0" y="-30" rx="8" ry="8"/><text text-anchor="middle" fill="#FFF" x="35" y="-10">342</text></a><g transform="translate(0,-30)"><g><a target="_top" xlink:href="dtp-slice0-step2628000-ofs0-col14-cat4.html"><rect style="display:none" class="hcell-act-col14-cat4" fill="#337AB7" stroke="#000" stroke-width="5" width="70" height="24" x="0" y="-29" rx="8" ry="8"/><rect class="hcell-col14-cat4" fill="#337AB7" stroke="#DDD" width="70" height="34" x="0" y="-34" rx="8" ry="8"/><text text-anchor="middle" fill="#FFF" x="35" y="-14">402</text></a><g transform="translate(0,-34)"><g><a target="_top" xlink:href="dtp-slice0-step2628000-ofs0-col14-cat0.html"><rect style="display:none" class="hcell-act-col14-cat0" fill="#D9534F" stroke="#000" stroke-width="5" width="70" height="77" x="0" y="-82" rx="8" ry="8"/><rect class="hcell-col14-cat0" fill="#D9534F" stroke="#DDD" width="70" height="87" x="0" y="-87" rx="8" ry="8"/><text text-anchor="middle" fill="#FFF" x="35" y="-67">1028</text></a></g></g></g></g></g></g></g></g></g></g></g></g><rect fill="none" stroke="#DDD" width="70" height="30" rx="8" ry="8" x="1125" y="447"/><text text-anchor="middle" fill="#333" x="1160" y="467">13-08</text><g transform="translate(1125,487)"></g></g><g><g transform="translate(1205,437)"><g><a target="_top" xlink:href="dtp-slice0-step2628000-ofs0-col15-cat5.html"><rect style="display:none" class="hcell-act-col15-cat5" fill="#777" stroke="#000" stroke-width="5" width="70" height="20" x="0" y="-25" rx="8" ry="8"/><rect class="hcell-col15-cat5" fill="#777" stroke="#DDD" width="70" height="30" x="0" y="-30" rx="8" ry="8"/><text text-anchor="middle" fill="#FFF" x="35" y="-10">15</text></a><g transform="translate(0,-30)"><g><a target="_top" xlink:href="dtp-slice0-step2628000-ofs0-col15-cat2.html"><rect style="display:none" class="hcell-act-col15-cat2" fill="#5CB85C" stroke="#000" stroke-width="5" width="70" height="20" x="0" y="-25" rx="8" ry="8"/><rect class="hcell-col15-cat2" fill="#5CB85C" stroke="#DDD" width="70" height="30" x="0" y="-30" rx="8" ry="8"/><text text-anchor="middle" fill="#FFF" x="35" y="-10">101</text></a><g transform="translate(0,-30)"><g><a target="_top" xlink:href="dtp-slice0-step2628000-ofs0-col15-cat3.html"><rect style="display:none" class="hcell-act-col15-cat3" fill="#5BC0DE" stroke="#000" stroke-width="5" width="70" height="20" x="0" y="-25" rx="8" ry="8"/><rect class="hcell-col15-cat3" fill="#5BC0DE" stroke="#DDD" width="70" height="30" x="0" y="-30" rx="8" ry="8"/><text text-anchor="middle" fill="#FFF" x="35" y="-10">109</text></a><g transform="translate(0,-30)"><g><a target="_top" xlink:href="dtp-slice0-step2628000-ofs0-col15-cat1.html"><rect style="display:none" class="hcell-act-col15-cat1" fill="#F0AD4E" stroke="#000" stroke-width="5" width="70" height="20" x="0" y="-25" rx="8" ry="8"/><rect class="hcell-col15-cat1" fill="#F0AD4E" stroke="#DDD" width="70" height="30" x="0" y="-30" rx="8" ry="8"/><text text-anchor="middle" fill="#FFF" x="35" y="-10">282</text></a><g transform="translate(0,-30)"><g><a target="_top" xlink:href="dtp-slice0-step2628000-ofs0-col15-cat4.html"><rect style="display:none" class="hcell-act-col15-cat4" fill="#337AB7" stroke="#000" stroke-width="5" width="70" height="20" x="0" y="-25" rx="8" ry="8"/><rect class="hcell-col15-cat4" fill="#337AB7" stroke="#DDD" width="70" height="30" x="0" y="-30" rx="8" ry="8"/><text text-anchor="middle" fill="#FFF" x="35" y="-10">309</text></a><g transform="translate(0,-30)"><g><a target="_top" xlink:href="dtp-slice0-step2628000-ofs0-col15-cat0.html"><rect style="display:none" class="hcell-act-col15-cat0" fill="#D9534F" stroke="#000" stroke-width="5" width="70" height="115" x="0" y="-120" rx="8" ry="8"/><rect class="hcell-col15-cat0" fill="#D9534F" stroke="#DDD" width="70" height="125" x="0" y="-125" rx="8" ry="8"/><text text-anchor="middle" fill="#FFF" x="35" y="-105">1467</text></a></g></g></g></g></g></g></g></g></g></g></g></g><rect fill="none" stroke="#DDD" width="70" height="30" rx="8" ry="8" x="1205" y="447"/><text text-anchor="middle" fill="#333" x="1240" y="467">13-10</text><g transform="translate(1205,487)"></g></g></svg>