<svg xmlns="http://www.w3.org/2000/svg" xmlns:xlink="http://www.w3.org/1999/xlink" width="100%" height="100%" viewBox="0 0 1280 460"><g><g transform="translate(5,405)"></g><rect fill="none" stroke="#DDD" width="70" height="30" rx="8" ry="8" x="5" y="415"/><text text-anchor="middle" fill="#333" x="40" y="435">12-07</text><g transform="translate(5,455)"></g></g><g><g transform="translate(85,405)"></g><rect fill="none" stroke="#DDD" width="70" height="30" rx="8" ry="8" x="85" y="415"/><text text-anchor="middle" fill="#333" x="120" y="435">12-09</text><g transform="translate(85,455)"></g></g><g><g transform="translate(165,405)"></g><rect fill="none" stroke="#DDD" width="70" height="30" rx="8" ry="8" x="165" y="415"/><text text-anchor="middle" fill="#333" x="200" y="435">12-11</text><g transform="translate(165,455)"></g></g><g><g transform="translate(245,405)"></g><rect fill="none" stroke="#DDD" width="70" height="30" rx="8" ry="8" x="245" y="415"/><text text-anchor="middle" fill="#333" x="280" y="435">13-01</text><g transform="translate(245,455)"></g></g><g><g transform="translate(325,405)"><g><a target="_top" xlink:href="dtp-slice2-step5605201-ofs0-col4-cat0.html"><rect style="display:none" class="hcell-act-col4-cat0" fill="#5CB85C" stroke="#000" stroke-width="5" width="70" height="20" x="0" y="-25" rx="8" ry="8"/><rect class="hcell-col4-cat0" fill="#5CB85C" stroke="#DDD" width="70" height="30" x="0" y="-30" rx="8" ry="8"/><text text-anchor="middle" fill="#FFF" x="35" y="-10">63</text></a></g></g><rect fill="none" stroke="#DDD" width="70" height="30" rx="8" ry="8" x="325" y="415"/><text text-anchor="middle" fill="#333" x="360" y="435">13-03</text><g transform="translate(325,455)"></g></g><g><g transform="translate(405,405)"><g><a target="_top" xlink:href="dtp-slice2-step5605201-ofs0-col5-cat3.html"><rect style="display:none" class="hcell-act-col5-cat3" fill="#F0AD4E" stroke="#000" stroke-width="5" width="70" height="390" x="0" y="-395" rx="8" ry="8"/><rect class="hcell-col5-cat3" fill="#F0AD4E" stroke="#DDD" width="70" height="400" x="0" y="-400" rx="8" ry="8"/><text text-anchor="middle" fill="#FFF" x="35" y="-380">1530</text></a></g></g><rect fill="none" stroke="#DDD" width="70" height="30" rx="8" ry="8" x="405" y="415"/><text text-anchor="middle" fill="#333" x="440" y="435">13-05</text><g transform="translate(405,455)"></g></g><g><g transform="translate(485,405)"><g><a target="_top" xlink:href="dtp-slice2-step5605201-ofs0-col6-cat0.html"><rect style="display:none" class="hcell-act-col6-cat0" fill="#5CB85C" stroke="#000" stroke-width="5" width="70" height="20" x="0" y="-25" rx="8" ry="8"/><rect class="hcell-col6-cat0" fill="#5CB85C" stroke="#DDD" width="70" height="30" x="0" y="-30" rx="8" ry="8"/><text text-anchor="middle" fill="#FFF" x="35" y="-10">81</text></a></g></g><rect fill="none" stroke="#DDD" width="70" height="30" rx="8" ry="8" x="485" y="415"/><text text-anchor="middle" fill="#333" x="520" y="435">13-07</text><g transform="translate(485,455)"></g></g><g><g transform="translate(565,405)"><g><a target="_top" xlink:href="dtp-slice2-step5605201-ofs0-col7-cat2.html"><rect style="display:none" class="hcell-act-col7-cat2" fill="#337AB7" stroke="#000" stroke-width="5" width="70" height="20" x="0" y="-25" rx="8" ry="8"/><rect class="hcell-col7-cat2" fill="#337AB7" stroke="#DDD" width="70" height="30" x="0" y="-30" rx="8" ry="8"/><text text-anchor="middle" fill="#FFF" x="35" y="-10">10</text></a><g transform="translate(0,-30)"><g><a target="_top" xlink:href="dtp-slice2-step5605201-ofs0-col7-cat0.html"><rect style="display:none" class="hcell-act-col7-cat0" fill="#5CB85C" stroke="#000" stroke-width="5" width="70" height="20" x="0" y="-25" rx="8" ry="8"/><rect class="hcell-col7-cat0" fill="#5CB85C" stroke="#DDD" width="70" height="30" x="0" y="-30" rx="8" ry="8"/><text text-anchor="middle" fill="#FFF" x="35" y="-10">38</text></a><g transform="translate(0,-30)"><g><a target="_top" xlink:href="dtp-slice2-step5605201-ofs0-col7-cat3.html"><rect style="display:none" class="hcell-act-col7-cat3" fill="#F0AD4E" stroke="#000" stroke-width="5" width="70" height="82" x="0" y="-87" rx="8" ry="8"/><rect class="hcell-col7-cat3" fill="#F0AD4E" stroke="#DDD" width="70" height="92" x="0" y="-92" rx="8" ry="8"/><text text-anchor="middle" fill="#FFF" x="35" y="-72">354</text></a><g transform="translate(0,-92)"><g><a target="_top" xlink:href="dtp-slice2-step5605201-ofs0-col7-cat1.html"><rect style="display:none" class="hcell-act-col7-cat1" fill="#5BC0DE" stroke="#000" stroke-width="5" width="70" height="85" x="0" y="-90" rx="8" ry="8"/><rect class="hcell-col7-cat1" fill="#5BC0DE" stroke="#DDD" width="70" height="95" x="0" y="-95" rx="8" ry="8"/><text text-anchor="middle" fill="#FFF" x="35" y="-75">364</text></a></g></g></g></g></g></g></g></g><rect fill="none" stroke="#DDD" width="70" height="30" rx="8" ry="8" x="565" y="415"/><text text-anchor="middle" fill="#333" x="600" y="435">13-09</text><g transform="translate(565,455)"></g></g><g><g transform="translate(645,405)"><g><a target="_top" xlink:href="dtp-slice2-step5605201-ofs0-col8-cat0.html"><rect style="display:none" class="hcell-act-col8-cat0" fill="#5CB85C" stroke="#000" stroke-width="5" width="70" height="20" x="0" y="-25" rx="8" ry="8"/><rect class="hcell-col8-cat0" fill="#5CB85C" stroke="#DDD" width="70" height="30" x="0" y="-30" rx="8" ry="8"/><text text-anchor="middle" fill="#FFF" x="35" y="-10">72</text></a></g></g><rect fill="none" stroke="#DDD" width="70" height="30" rx="8" ry="8" x="645" y="415"/><text text-anchor="middle" fill="#333" x="680" y="435">13-12</text><g transform="translate(645,455)"></g></g><g><g transform="translate(725,405)"><g><a target="_top" xlink:href="dtp-slice2-step5605201-ofs0-col9-cat0.html"><rect style="display:none" class="hcell-act-col9-cat0" fill="#5CB85C" stroke="#000" stroke-width="5" width="70" height="20" x="0" y="-25" rx="8" ry="8"/><rect class="hcell-col9-cat0" fill="#5CB85C" stroke="#DDD" width="70" height="30" x="0" y="-30" rx="8" ry="8"/><text text-anchor="middle" fill="#FFF" x="35" y="-10">25</text></a><g transform="translate(0,-30)"><g><a target="_top" xlink:href="dtp-slice2-step5605201-ofs0-col9-cat1.html"><rect style="display:none" class="hcell-act-col9-cat1" fill="#5BC0DE" stroke="#000" stroke-width="5" width="70" height="172" x="0" y="-177" rx="8" ry="8"/><rect class="hcell-col9-cat1" fill="#5BC0DE" stroke="#DDD" width="70" height="182" x="0" y="-182" rx="8" ry="8"/><text text-anchor="middle" fill="#FFF" x="35" y="-162">697</text></a></g></g></g></g><rect fill="none" stroke="#DDD" width="70" height="30" rx="8" ry="8" x="725" y="415"/><text text-anchor="middle" fill="#333" x="760" y="435">14-02</text><g transform="translate(725,455)"></g></g><g><g transform="translate(805,405)"><g><a target="_top" xlink:href="dtp-slice2-step5605201-ofs0-col10-cat1.html"><rect style="display:none" class="hcell-act-col10-cat1" fill="#5BC0DE" stroke="#000" stroke-width="5" width="70" height="20" x="0" y="-25" rx="8" ry="8"/><rect class="hcell-col10-cat1" fill="#5BC0DE" stroke="#DDD" width="70" height="30" x="0" y="-30" rx="8" ry="8"/><text text-anchor="middle" fill="#FFF" x="35" y="-10">25</text></a><g transform="translate(0,-30)"><g><a target="_top" xlink:href="dtp-slice2-step5605201-ofs0-col10-cat0.html"><rect style="display:none" class="hcell-act-col10-cat0" fill="#5CB85C" stroke="#000" stroke-width="5" width="70" height="20" x="0" y="-25" rx="8" ry="8"/><rect class="hcell-col10-cat0" fill="#5CB85C" stroke="#DDD" width="70" height="30" x="0" y="-30" rx="8" ry="8"/><text text-anchor="middle" fill="#FFF" x="35" y="-10">81</text></a><g transform="translate(0,-30)"><g><a target="_top" xlink:href="dtp-slice2-step5605201-ofs0-col10-cat3.html"><rect style="display:none" class="hcell-act-col10-cat3" fill="#F0AD4E" stroke="#000" stroke-width="5" width="70" height="100" x="0" y="-105" rx="8" ry="8"/><rect class="hcell-col10-cat3" fill="#F0AD4E" stroke="#DDD" width="70" height="110" x="0" y="-110" rx="8" ry="8"/><text text-anchor="middle" fill="#FFF" x="35" y="-90">424</text></a></g></g></g></g></g></g><rect fill="none" stroke="#DDD" width="70" height="30" rx="8" ry="8" x="805" y="415"/><text text-anchor="middle" fill="#333" x="840" y="435">14-04</text><g transform="translate(805,455)"></g></g><g><g transform="translate(885,405)"><g><a target="_top" xlink:href="dtp-slice2-step5605201-ofs0-col11-cat2.html"><rect style="display:none" class="hcell-act-col11-cat2" fill="#337AB7" stroke="#000" stroke-width="5" width="70" height="20" x="0" y="-25" rx="8" ry="8"/><rect class="hcell-col11-cat2" fill="#337AB7" stroke="#DDD" width="70" height="30" x="0" y="-30" rx="8" ry="8"/><text text-anchor="middle" fill="#FFF" x="35" y="-10">10</text></a><g transform="translate(0,-30)"><g><a target="_top" xlink:href="dtp-slice2-step5605201-ofs0-col11-cat0.html"><rect style="display:none" class="hcell-act-col11-cat0" fill="#5CB85C" stroke="#000" stroke-width="5" width="70" height="20" x="0" y="-25" rx="8" ry="8"/><rect class="hcell-col11-cat0" fill="#5CB85C" stroke="#DDD" width="70" height="30" x="0" y="-30" rx="8" ry="8"/><text text-anchor="middle" fill="#FFF" x="35" y="-10">50</text></a><g transform="translate(0,-30)"><g><a target="_top" xlink:href="dtp-slice2-step5605201-ofs0-col11-cat1.html"><rect style="display:none" class="hcell-act-col11-cat1" fill="#5BC0DE" stroke="#000" stroke-width="5" width="70" height="20" x="0" y="-25" rx="8" ry="8"/><rect class="hcell-col11-cat1" fill="#5BC0DE" stroke="#DDD" width="70" height="30" x="0" y="-30" rx="8" ry="8"/><text text-anchor="middle" fill="#FFF" x="35" y="-10">94</text></a><g transform="translate(0,-30)"><g><a target="_top" xlink:href="dtp-slice2-step5605201-ofs0-col11-cat3.html"><rect style="display:none" class="hcell-act-col11-cat3" fill="#F0AD4E" stroke="#000" stroke-width="5" width="70" height="42" x="0" y="-47" rx="8" ry="8"/><rect class="hcell-col11-cat3" fill="#F0AD4E" stroke="#DDD" width="70" height="52" x="0" y="-52" rx="8" ry="8"/><text text-anchor="middle" fill="#FFF" x="35" y="-32">200</text></a></g></g></g></g></g></g></g></g><rect fill="none" stroke="#DDD" width="70" height="30" rx="8" ry="8" x="885" y="415"/><text text-anchor="middle" fill="#333" x="920" y="435">14-06</text><g transform="translate(885,455)"></g></g><g><g transform="translate(965,405)"><g><a target="_top" xlink:href="dtp-slice2-step5605201-ofs0-col12-cat0.html"><rect style="display:none" class="hcell-act-col12-cat0" fill="#5CB85C" stroke="#000" stroke-width="5" width="70" height="20" x="0" y="-25" rx="8" ry="8"/><rect class="hcell-col12-cat0" fill="#5CB85C" stroke="#DDD" width="70" height="30" x="0" y="-30" rx="8" ry="8"/><text text-anchor="middle" fill="#FFF" x="35" y="-10">40</text></a><g transform="translate(0,-30)"><g><a target="_top" xlink:href="dtp-slice2-step5605201-ofs0-col12-cat1.html"><rect style="display:none" class="hcell-act-col12-cat1" fill="#5BC0DE" stroke="#000" stroke-width="5" width="70" height="20" x="0" y="-25" rx="8" ry="8"/><rect class="hcell-col12-cat1" fill="#5BC0DE" stroke="#DDD" width="70" height="30" x="0" y="-30" rx="8" ry="8"/><text text-anchor="middle" fill="#FFF" x="35" y="-10">40</text></a><g transform="translate(0,-30)"><g><a target="_top" xlink:href="dtp-slice2-step5605201-ofs0-col12-cat3.html"><rect style="display:none" class="hcell-act-col12-cat3" fill="#F0AD4E" stroke="#000" stroke-width="5" width="70" height="94" x="0" y="-99" rx="8" ry="8"/><rect class="hcell-col12-cat3" fill="#F0AD4E" stroke="#DDD" width="70" height="104" x="0" y="-104" rx="8" ry="8"/><text text-anchor="middle" fill="#FFF" x="35" y="-84">400</text></a></g></g></g></g></g></g><rect fill="none" stroke="#DDD" width="70" height="30" rx="8" ry="8" x="965" y="415"/><text text-anchor="middle" fill="#333" x="1000" y="435">14-08</text><g transform="translate(965,455)"></g></g><g><g transform="translate(1045,405)"><g><a target="_top" xlink:href="dtp-slice2-step5605201-ofs0-col13-cat0.html"><rect style="display:none" class="hcell-act-col13-cat0" fill="#5CB85C" stroke="#000" stroke-width="5" width="70" height="20" x="0" y="-25" rx="8" ry="8"/><rect class="hcell-col13-cat0" fill="#5CB85C" stroke="#DDD" width="70" height="30" x="0" y="-30" rx="8" ry="8"/><text text-anchor="middle" fill="#FFF" x="35" y="-10">40</text></a><g transform="translate(0,-30)"><g><a target="_top" xlink:href="dtp-slice2-step5605201-ofs0-col13-cat1.html"><rect style="display:none" class="hcell-act-col13-cat1" fill="#5BC0DE" stroke="#000" stroke-width="5" width="70" height="20" x="0" y="-25" rx="8" ry="8"/><rect class="hcell-col13-cat1" fill="#5BC0DE" stroke="#DDD" width="70" height="30" x="0" y="-30" rx="8" ry="8"/><text text-anchor="middle" fill="#FFF" x="35" y="-10">40</text></a><g transform="translate(0,-30)"><g><a target="_top" xlink:href="dtp-slice2-step5605201-ofs0-col13-cat3.html"><rect style="display:none" class="hcell-act-col13-cat3" fill="#F0AD4E" stroke="#000" stroke-width="5" width="70" height="94" x="0" y="-99" rx="8" ry="8"/><rect class="hcell-col13-cat3" fill="#F0AD4E" stroke="#DDD" width="70" height="104" x="0" y="-104" rx="8" ry="8"/><text text-anchor="middle" fill="#FFF" x="35" y="-84">400</text></a></g></g></g></g></g></g><rect fill="none" stroke="#DDD" width="70" height="30" rx="8" ry="8" x="1045" y="415"/><text text-anchor="middle" fill="#333" x="1080" y="435">14-10</text><g transform="translate(1045,455)"></g></g><g><g transform="translate(1125,405)"><g><a target="_top" xlink:href="dtp-slice2-step5605201-ofs0-col14-cat0.html"><rect style="display:none" class="hcell-act-col14-cat0" fill="#5CB85C" stroke="#000" stroke-width="5" width="70" height="20" x="0" y="-25" rx="8" ry="8"/><rect class="hcell-col14-cat0" fill="#5CB85C" stroke="#DDD" width="70" height="30" x="0" y="-30" rx="8" ry="8"/><text text-anchor="middle" fill="#FFF" x="35" y="-10">40</text></a><g transform="translate(0,-30)"><g><a target="_top" xlink:href="dtp-slice2-step5605201-ofs0-col14-cat1.html"><rect style="display:none" class="hcell-act-col14-cat1" fill="#5BC0DE" stroke="#000" stroke-width="5" width="70" height="20" x="0" y="-25" rx="8" ry="8"/><rect class="hcell-col14-cat1" fill="#5BC0DE" stroke="#DDD" width="70" height="30" x="0" y="-30" rx="8" ry="8"/><text text-anchor="middle" fill="#FFF" x="35" y="-10">40</text></a><g transform="translate(0,-30)"><g><a target="_top" xlink:href="dtp-slice2-step5605201-ofs0-col14-cat3.html"><rect style="display:none" class="hcell-act-col14-cat3" fill="#F0AD4E" stroke="#000" stroke-width="5" width="70" height="94" x="0" y="-99" rx="8" ry="8"/><rect class="hcell-col14-cat3" fill="#F0AD4E" stroke="#DDD" width="70" height="104" x="0" y="-104" rx="8" ry="8"/><text text-anchor="middle" fill="#FFF" x="35" y="-84">400</text></a></g></g></g></g></g></g><rect fill="none" stroke="#DDD" width="70" height="30" rx="8" ry="8" x="1125" y="415"/><text text-anchor="middle" fill="#333" x="1160" y="435">14-12</text><g transform="translate(1125,455)"></g></g><g><g transform="translate(1205,405)"><g><a target="_top" xlink:href="dtp-slice2-step5605201-ofs0-col15-cat0.html"><rect style="display:none" class="hcell-act-col15-cat0" fill="#5CB85C" stroke="#000" stroke-width="5" width="70" height="20" x="0" y="-25" rx="8" ry="8"/><rect class="hcell-col15-cat0" fill="#5CB85C" stroke="#DDD" width="70" height="30" x="0" y="-30" rx="8" ry="8"/><text text-anchor="middle" fill="#FFF" x="35" y="-10">60</text></a><g transform="translate(0,-30)"><g><a target="_top" xlink:href="dtp-slice2-step5605201-ofs0-col15-cat1.html"><rect style="display:none" class="hcell-act-col15-cat1" fill="#5BC0DE" stroke="#000" stroke-width="5" width="70" height="117" x="0" y="-122" rx="8" ry="8"/><rect class="hcell-col15-cat1" fill="#5BC0DE" stroke="#DDD" width="70" height="127" x="0" y="-127" rx="8" ry="8"/><text text-anchor="middle" fill="#FFF" x="35" y="-107">487</text></a><g transform="translate(0,-127)"><g><a target="_top" xlink:href="dtp-slice2-step5605201-ofs0-col15-cat3.html"><rect style="display:none" class="hcell-act-col15-cat3" fill="#F0AD4E" stroke="#000" stroke-width="5" width="70" height="146" x="0" y="-151" rx="8" ry="8"/><rect class="hcell-col15-cat3" fill="#F0AD4E" stroke="#DDD" width="70" height="156" x="0" y="-156" rx="8" ry="8"/><text text-anchor="middle" fill="#FFF" x="35" y="-136">600</text></a></g></g></g></g></g></g><rect fill="none" stroke="#DDD" width="70" height="30" rx="8" ry="8" x="1205" y="415"/><text text-anchor="middle" fill="#333" x="1240" y="435">15-03</text><g transform="translate(1205,455)"></g></g></svg>