<svg xmlns="http://www.w3.org/2000/svg" xmlns:xlink="http://www.w3.org/1999/xlink" width="100%" height="100%" viewBox="0 0 1280 460"><g><g transform="translate(5,205)"><g><a target="_top" xlink:href="dtp-sliceTagAwesome-step5605201-ofs0-col0-cat0.html"><rect style="display:none" class="hcell-act-col0-cat0" fill="#777" stroke="#000" stroke-width="5" width="70" height="132" x="0" y="-137" rx="8" ry="8"/><rect class="hcell-col0-cat0" fill="#777" stroke="#DDD" width="70" height="142" x="0" y="-142" rx="8" ry="8"/><text text-anchor="middle" fill="#FFF" x="35" y="-122">741</text></a></g></g><rect fill="none" stroke="#DDD" width="70" height="30" rx="8" ry="8" x="5" y="215"/><text text-anchor="middle" fill="#333" x="40" y="235">12-07</text><g transform="translate(5,255)"><g><a target="_top" xlink:href="dtp-sliceTagAwesome-step5605201-ofs0-col0-cat0.html"><rect style="display:none" class="hcell-act-col0-cat0" fill="#777" stroke="#000" stroke-width="5" width="70" height="132" x="0" y="5" rx="8" ry="8"/><rect class="hcell-col0-cat0" fill="#777" stroke="#DDD" width="70" height="142" x="0" y="0" rx="8" ry="8"/><text text-anchor="middle" fill="#FFF" x="35" y="20">-742</text></a></g></g></g><g><g transform="translate(85,205)"><g><a target="_top" xlink:href="dtp-sliceTagAwesome-step5605201-ofs0-col1-cat0.html"><rect style="display:none" class="hcell-act-col1-cat0" fill="#777" stroke="#000" stroke-width="5" width="70" height="129" x="0" y="-134" rx="8" ry="8"/><rect class="hcell-col1-cat0" fill="#777" stroke="#DDD" width="70" height="139" x="0" y="-139" rx="8" ry="8"/><text text-anchor="middle" fill="#FFF" x="35" y="-119">726</text></a></g></g><rect fill="none" stroke="#DDD" width="70" height="30" rx="8" ry="8" x="85" y="215"/><text text-anchor="middle" fill="#333" x="120" y="235">12-09</text><g transform="translate(85,255)"><g><a target="_top" xlink:href="dtp-sliceTagAwesome-step5605201-ofs0-col1-cat0.html"><rect style="display:none" class="hcell-act-col1-cat0" fill="#777" stroke="#000" stroke-width="5" width="70" height="129" x="0" y="5" rx="8" ry="8"/><rect class="hcell-col1-cat0" fill="#777" stroke="#DDD" width="70" height="139" x="0" y="0" rx="8" ry="8"/><text text-anchor="middle" fill="#FFF" x="35" y="20">-727</text></a></g></g></g><g><g transform="translate(165,205)"><g><a target="_top" xlink:href="dtp-sliceTagAwesome-step5605201-ofs0-col2-cat0.html"><rect style="display:none" class="hcell-act-col2-cat0" fill="#777" stroke="#000" stroke-width="5" width="70" height="161" x="0" y="-166" rx="8" ry="8"/><rect class="hcell-col2-cat0" fill="#777" stroke="#DDD" width="70" height="171" x="0" y="-171" rx="8" ry="8"/><text text-anchor="middle" fill="#FFF" x="35" y="-151">892</text></a></g></g><rect fill="none" stroke="#DDD" width="70" height="30" rx="8" ry="8" x="165" y="215"/><text text-anchor="middle" fill="#333" x="200" y="235">12-11</text><g transform="translate(165,255)"><g><a target="_top" xlink:href="dtp-sliceTagAwesome-step5605201-ofs0-col2-cat0.html"><rect style="display:none" class="hcell-act-col2-cat0" fill="#777" stroke="#000" stroke-width="5" width="70" height="161" x="0" y="5" rx="8" ry="8"/><rect class="hcell-col2-cat0" fill="#777" stroke="#DDD" width="70" height="171" x="0" y="0" rx="8" ry="8"/><text text-anchor="middle" fill="#FFF" x="35" y="20">-893</text></a></g></g></g><g><g transform="translate(245,205)"><g><a target="_top" xlink:href="dtp-sliceTagAwesome-step5605201-ofs0-col3-cat0.html"><rect style="display:none" class="hcell-act-col3-cat0" fill="#777" stroke="#000" stroke-width="5" width="70" height="179" x="0" y="-184" rx="8" ry="8"/><rect class="hcell-col3-cat0" fill="#777" stroke="#DDD" width="70" height="189" x="0" y="-189" rx="8" ry="8"/><text text-anchor="middle" fill="#FFF" x="35" y="-169">985</text></a></g></g><rect fill="none" stroke="#DDD" width="70" height="30" rx="8" ry="8" x="245" y="215"/><text text-anchor="middle" fill="#333" x="280" y="235">13-01</text><g transform="translate(245,255)"><g><a target="_top" xlink:href="dtp-sliceTagAwesome-step5605201-ofs0-col3-cat0.html"><rect style="display:none" class="hcell-act-col3-cat0" fill="#777" stroke="#000" stroke-width="5" width="70" height="179" x="0" y="5" rx="8" ry="8"/><rect class="hcell-col3-cat0" fill="#777" stroke="#DDD" width="70" height="189" x="0" y="0" rx="8" ry="8"/><text text-anchor="middle" fill="#FFF" x="35" y="20">-986</text></a></g></g></g><g><g transform="translate(325,205)"><g><a target="_top" xlink:href="dtp-sliceTagAwesome-step5605201-ofs0-col4-cat0.html"><rect style="display:none" class="hcell-act-col4-cat0" fill="#777" stroke="#000" stroke-width="5" width="70" height="128" x="0" y="-133" rx="8" ry="8"/><rect class="hcell-col4-cat0" fill="#777" stroke="#DDD" width="70" height="138" x="0" y="-138" rx="8" ry="8"/><text text-anchor="middle" fill="#FFF" x="35" y="-118">721</text></a></g></g><rect fill="none" stroke="#DDD" width="70" height="30" rx="8" ry="8" x="325" y="215"/><text text-anchor="middle" fill="#333" x="360" y="235">13-03</text><g transform="translate(325,255)"><g><a target="_top" xlink:href="dtp-sliceTagAwesome-step5605201-ofs0-col4-cat0.html"><rect style="display:none" class="hcell-act-col4-cat0" fill="#777" stroke="#000" stroke-width="5" width="70" height="128" x="0" y="5" rx="8" ry="8"/><rect class="hcell-col4-cat0" fill="#777" stroke="#DDD" width="70" height="138" x="0" y="0" rx="8" ry="8"/><text text-anchor="middle" fill="#FFF" x="35" y="20">-722</text></a></g></g></g><g><g transform="translate(405,205)"><g><a target="_top" xlink:href="dtp-sliceTagAwesome-step5605201-ofs0-col5-cat0.html"><rect style="display:none" class="hcell-act-col5-cat0" fill="#777" stroke="#000" stroke-width="5" width="70" height="190" x="0" y="-195" rx="8" ry="8"/><rect class="hcell-col5-cat0" fill="#777" stroke="#DDD" width="70" height="200" x="0" y="-200" rx="8" ry="8"/><text text-anchor="middle" fill="#FFF" x="35" y="-180">1041</text></a></g></g><rect fill="none" stroke="#DDD" width="70" height="30" rx="8" ry="8" x="405" y="215"/><text text-anchor="middle" fill="#333" x="440" y="235">13-05</text><g transform="translate(405,255)"><g><a target="_top" xlink:href="dtp-sliceTagAwesome-step5605201-ofs0-col5-cat0.html"><rect style="display:none" class="hcell-act-col5-cat0" fill="#777" stroke="#000" stroke-width="5" width="70" height="190" x="0" y="5" rx="8" ry="8"/><rect class="hcell-col5-cat0" fill="#777" stroke="#DDD" width="70" height="200" x="0" y="0" rx="8" ry="8"/><text text-anchor="middle" fill="#FFF" x="35" y="20">-1042</text></a></g></g></g><g><g transform="translate(485,205)"><g><a target="_top" xlink:href="dtp-sliceTagAwesome-step5605201-ofs0-col6-cat0.html"><rect style="display:none" class="hcell-act-col6-cat0" fill="#777" stroke="#000" stroke-width="5" width="70" height="139" x="0" y="-144" rx="8" ry="8"/><rect class="hcell-col6-cat0" fill="#777" stroke="#DDD" width="70" height="149" x="0" y="-149" rx="8" ry="8"/><text text-anchor="middle" fill="#FFF" x="35" y="-129">775</text></a></g></g><rect fill="none" stroke="#DDD" width="70" height="30" rx="8" ry="8" x="485" y="215"/><text text-anchor="middle" fill="#333" x="520" y="235">13-07</text><g transform="translate(485,255)"><g><a target="_top" xlink:href="dtp-sliceTagAwesome-step5605201-ofs0-col6-cat0.html"><rect style="display:none" class="hcell-act-col6-cat0" fill="#777" stroke="#000" stroke-width="5" width="70" height="139" x="0" y="5" rx="8" ry="8"/><rect class="hcell-col6-cat0" fill="#777" stroke="#DDD" width="70" height="149" x="0" y="0" rx="8" ry="8"/><text text-anchor="middle" fill="#FFF" x="35" y="20">-776</text></a></g></g></g><g><g transform="translate(565,205)"><g><a target="_top" xlink:href="dtp-sliceTagAwesome-step5605201-ofs0-col7-cat0.html"><rect style="display:none" class="hcell-act-col7-cat0" fill="#777" stroke="#000" stroke-width="5" width="70" height="173" x="0" y="-178" rx="8" ry="8"/><rect class="hcell-col7-cat0" fill="#777" stroke="#DDD" width="70" height="183" x="0" y="-183" rx="8" ry="8"/><text text-anchor="middle" fill="#FFF" x="35" y="-163">956</text></a></g></g><rect fill="none" stroke="#DDD" width="70" height="30" rx="8" ry="8" x="565" y="215"/><text text-anchor="middle" fill="#333" x="600" y="235">13-09</text><g transform="translate(565,255)"><g><a target="_top" xlink:href="dtp-sliceTagAwesome-step5605201-ofs0-col7-cat0.html"><rect style="display:none" class="hcell-act-col7-cat0" fill="#777" stroke="#000" stroke-width="5" width="70" height="173" x="0" y="5" rx="8" ry="8"/><rect class="hcell-col7-cat0" fill="#777" stroke="#DDD" width="70" height="183" x="0" y="0" rx="8" ry="8"/><text text-anchor="middle" fill="#FFF" x="35" y="20">-957</text></a></g></g></g><g><g transform="translate(645,205)"><g><a target="_top" xlink:href="dtp-sliceTagAwesome-step5605201-ofs0-col8-cat0.html"><rect style="display:none" class="hcell-act-col8-cat0" fill="#777" stroke="#000" stroke-width="5" width="70" height="101" x="0" y="-106" rx="8" ry="8"/><rect class="hcell-col8-cat0" fill="#777" stroke="#DDD" width="70" height="111" x="0" y="-111" rx="8" ry="8"/><text text-anchor="middle" fill="#FFF" x="35" y="-91">577</text></a></g></g><rect fill="none" stroke="#DDD" width="70" height="30" rx="8" ry="8" x="645" y="215"/><text text-anchor="middle" fill="#333" x="680" y="235">13-12</text><g transform="translate(645,255)"><g><a target="_top" xlink:href="dtp-sliceTagAwesome-step5605201-ofs0-col8-cat0.html"><rect style="display:none" class="hcell-act-col8-cat0" fill="#777" stroke="#000" stroke-width="5" width="70" height="101" x="0" y="5" rx="8" ry="8"/><rect class="hcell-col8-cat0" fill="#777" stroke="#DDD" width="70" height="111" x="0" y="0" rx="8" ry="8"/><text text-anchor="middle" fill="#FFF" x="35" y="20">-578</text></a></g></g></g><g><g transform="translate(725,205)"><g><a target="_top" xlink:href="dtp-sliceTagAwesome-step5605201-ofs0-col9-cat0.html"><rect style="display:none" class="hcell-act-col9-cat0" fill="#777" stroke="#000" stroke-width="5" width="70" height="89" x="0" y="-94" rx="8" ry="8"/><rect class="hcell-col9-cat0" fill="#777" stroke="#DDD" width="70" height="99" x="0" y="-99" rx="8" ry="8"/><text text-anchor="middle" fill="#FFF" x="35" y="-79">519</text></a></g></g><rect fill="none" stroke="#DDD" width="70" height="30" rx="8" ry="8" x="725" y="215"/><text text-anchor="middle" fill="#333" x="760" y="235">14-02</text><g transform="translate(725,255)"><g><a target="_top" xlink:href="dtp-sliceTagAwesome-step5605201-ofs0-col9-cat0.html"><rect style="display:none" class="hcell-act-col9-cat0" fill="#777" stroke="#000" stroke-width="5" width="70" height="89" x="0" y="5" rx="8" ry="8"/><rect class="hcell-col9-cat0" fill="#777" stroke="#DDD" width="70" height="99" x="0" y="0" rx="8" ry="8"/><text text-anchor="middle" fill="#FFF" x="35" y="20">-520</text></a></g></g></g><g><g transform="translate(805,205)"><g><a target="_top" xlink:href="dtp-sliceTagAwesome-step5605201-ofs0-col10-cat0.html"><rect style="display:none" class="hcell-act-col10-cat0" fill="#777" stroke="#000" stroke-width="5" width="70" height="140" x="0" y="-145" rx="8" ry="8"/><rect class="hcell-col10-cat0" fill="#777" stroke="#DDD" width="70" height="150" x="0" y="-150" rx="8" ry="8"/><text text-anchor="middle" fill="#FFF" x="35" y="-130">784</text></a></g></g><rect fill="none" stroke="#DDD" width="70" height="30" rx="8" ry="8" x="805" y="215"/><text text-anchor="middle" fill="#333" x="840" y="235">14-04</text><g transform="translate(805,255)"><g><a target="_top" xlink:href="dtp-sliceTagAwesome-step5605201-ofs0-col10-cat0.html"><rect style="display:none" class="hcell-act-col10-cat0" fill="#777" stroke="#000" stroke-width="5" width="70" height="140" x="0" y="5" rx="8" ry="8"/><rect class="hcell-col10-cat0" fill="#777" stroke="#DDD" width="70" height="150" x="0" y="0" rx="8" ry="8"/><text text-anchor="middle" fill="#FFF" x="35" y="20">-785</text></a></g></g></g><g><g transform="translate(885,205)"><g><a target="_top" xlink:href="dtp-sliceTagAwesome-step5605201-ofs0-col11-cat0.html"><rect style="display:none" class="hcell-act-col11-cat0" fill="#777" stroke="#000" stroke-width="5" width="70" height="120" x="0" y="-125" rx="8" ry="8"/><rect class="hcell-col11-cat0" fill="#777" stroke="#DDD" width="70" height="130" x="0" y="-130" rx="8" ry="8"/><text text-anchor="middle" fill="#FFF" x="35" y="-110">681</text></a></g></g><rect fill="none" stroke="#DDD" width="70" height="30" rx="8" ry="8" x="885" y="215"/><text text-anchor="middle" fill="#333" x="920" y="235">14-06</text><g transform="translate(885,255)"><g><a target="_top" xlink:href="dtp-sliceTagAwesome-step5605201-ofs0-col11-cat0.html"><rect style="display:none" class="hcell-act-col11-cat0" fill="#777" stroke="#000" stroke-width="5" width="70" height="120" x="0" y="5" rx="8" ry="8"/><rect class="hcell-col11-cat0" fill="#777" stroke="#DDD" width="70" height="130" x="0" y="0" rx="8" ry="8"/><text text-anchor="middle" fill="#FFF" x="35" y="20">-682</text></a></g></g></g><g><g transform="translate(965,205)"></g><rect fill="none" stroke="#DDD" width="70" height="30" rx="8" ry="8" x="965" y="215"/><text text-anchor="middle" fill="#333" x="1000" y="235">14-08</text><g transform="translate(965,255)"></g></g><g><g transform="translate(1045,205)"></g><rect fill="none" stroke="#DDD" width="70" height="30" rx="8" ry="8" x="1045" y="215"/><text text-anchor="middle" fill="#333" x="1080" y="235">14-10</text><g transform="translate(1045,255)"></g></g><g><g transform="translate(1125,205)"></g><rect fill="none" stroke="#DDD" width="70" height="30" rx="8" ry="8" x="1125" y="215"/><text text-anchor="middle" fill="#333" x="1160" y="235">14-12</text><g transform="translate(1125,255)"></g></g><g><g transform="translate(1205,205)"></g><rect fill="none" stroke="#DDD" width="70" height="30" rx="8" ry="8" x="1205" y="215"/><text text-anchor="middle" fill="#333" x="1240" y="235">15-03</text><g transform="translate(1205,255)"></g></g></svg>