<svg xmlns="http://www.w3.org/2000/svg" xmlns:xlink="http://www.w3.org/1999/xlink" width="100%" height="100%" viewBox="0 0 1280 459"><g><g transform="translate(5,261)"><g><a target="_top" xlink:href="dtp-sliceTagVisa3950-step5605201-ofs0-col0-cat0.html"><rect style="display:none" class="hcell-act-col0-cat0" fill="#777" stroke="#000" stroke-width="5" width="70" height="246" x="0" y="-251" rx="8" ry="8"/><rect class="hcell-col0-cat0" fill="#777" stroke="#DDD" width="70" height="256" x="0" y="-256" rx="8" ry="8"/><text text-anchor="middle" fill="#FFF" x="35" y="-236">35</text></a></g></g><rect fill="none" stroke="#DDD" width="70" height="30" rx="8" ry="8" x="5" y="271"/><text text-anchor="middle" fill="#333" x="40" y="291">12-07</text><g transform="translate(5,311)"><g><a target="_top" xlink:href="dtp-sliceTagVisa3950-step5605201-ofs0-col0-cat0.html"><rect style="display:none" class="hcell-act-col0-cat0" fill="#777" stroke="#000" stroke-width="5" width="70" height="133" x="0" y="5" rx="8" ry="8"/><rect class="hcell-col0-cat0" fill="#777" stroke="#DDD" width="70" height="143" x="0" y="0" rx="8" ry="8"/><text text-anchor="middle" fill="#FFF" x="35" y="20">-20</text></a></g></g></g><g><g transform="translate(85,261)"></g><rect fill="none" stroke="#DDD" width="70" height="30" rx="8" ry="8" x="85" y="271"/><text text-anchor="middle" fill="#333" x="120" y="291">12-09</text><g transform="translate(85,311)"></g></g><g><g transform="translate(165,261)"></g><rect fill="none" stroke="#DDD" width="70" height="30" rx="8" ry="8" x="165" y="271"/><text text-anchor="middle" fill="#333" x="200" y="291">12-11</text><g transform="translate(165,311)"><g><a target="_top" xlink:href="dtp-sliceTagVisa3950-step5605201-ofs0-col2-cat0.html"><rect style="display:none" class="hcell-act-col2-cat0" fill="#777" stroke="#000" stroke-width="5" width="70" height="102" x="0" y="5" rx="8" ry="8"/><rect class="hcell-col2-cat0" fill="#777" stroke="#DDD" width="70" height="112" x="0" y="0" rx="8" ry="8"/><text text-anchor="middle" fill="#FFF" x="35" y="20">-16</text></a></g></g></g><g><g transform="translate(245,261)"></g><rect fill="none" stroke="#DDD" width="70" height="30" rx="8" ry="8" x="245" y="271"/><text text-anchor="middle" fill="#333" x="280" y="291">13-01</text><g transform="translate(245,311)"></g></g><g><g transform="translate(325,261)"></g><rect fill="none" stroke="#DDD" width="70" height="30" rx="8" ry="8" x="325" y="271"/><text text-anchor="middle" fill="#333" x="360" y="291">13-03</text><g transform="translate(325,311)"></g></g><g><g transform="translate(405,261)"></g><rect fill="none" stroke="#DDD" width="70" height="30" rx="8" ry="8" x="405" y="271"/><text text-anchor="middle" fill="#333" x="440" y="291">13-05</text><g transform="translate(405,311)"></g></g><g><g transform="translate(485,261)"></g><rect fill="none" stroke="#DDD" width="70" height="30" rx="8" ry="8" x="485" y="271"/><text text-anchor="middle" fill="#333" x="520" y="291">13-07</text><g transform="translate(485,311)"></g></g><g><g transform="translate(565,261)"></g><rect fill="none" stroke="#DDD" width="70" height="30" rx="8" ry="8" x="565" y="271"/><text text-anchor="middle" fill="#333" x="600" y="291">13-09</text><g transform="translate(565,311)"></g></g><g><g transform="translate(645,261)"></g><rect fill="none" stroke="#DDD" width="70" height="30" rx="8" ry="8" x="645" y="271"/><text text-anchor="middle" fill="#333" x="680" y="291">13-12</text><g transform="translate(645,311)"></g></g><g><g transform="translate(725,261)"></g><rect fill="none" stroke="#DDD" width="70" height="30" rx="8" ry="8" x="725" y="271"/><text text-anchor="middle" fill="#333" x="760" y="291">14-02</text><g transform="translate(725,311)"></g></g><g><g transform="translate(805,261)"></g><rect fill="none" stroke="#DDD" width="70" height="30" rx="8" ry="8" x="805" y="271"/><text text-anchor="middle" fill="#333" x="840" y="291">14-04</text><g transform="translate(805,311)"></g></g><g><g transform="translate(885,261)"></g><rect fill="none" stroke="#DDD" width="70" height="30" rx="8" ry="8" x="885" y="271"/><text text-anchor="middle" fill="#333" x="920" y="291">14-06</text><g transform="translate(885,311)"></g></g><g><g transform="translate(965,261)"></g><rect fill="none" stroke="#DDD" width="70" height="30" rx="8" ry="8" x="965" y="271"/><text text-anchor="middle" fill="#333" x="1000" y="291">14-08</text><g transform="translate(965,311)"></g></g><g><g transform="translate(1045,261)"></g><rect fill="none" stroke="#DDD" width="70" height="30" rx="8" ry="8" x="1045" y="271"/><text text-anchor="middle" fill="#333" x="1080" y="291">14-10</text><g transform="translate(1045,311)"></g></g><g><g transform="translate(1125,261)"></g><rect fill="none" stroke="#DDD" width="70" height="30" rx="8" ry="8" x="1125" y="271"/><text text-anchor="middle" fill="#333" x="1160" y="291">14-12</text><g transform="translate(1125,311)"></g></g><g><g transform="translate(1205,261)"></g><rect fill="none" stroke="#DDD" width="70" height="30" rx="8" ry="8" x="1205" y="271"/><text text-anchor="middle" fill="#333" x="1240" y="291">15-03</text><g transform="translate(1205,311)"></g></g></svg>