<svg xmlns="http://www.w3.org/2000/svg" xmlns:xlink="http://www.w3.org/1999/xlink" width="100%" height="100%" viewBox="0 0 1280 480"><g><g transform="translate(5,395)"><g><a target="_top" xlink:href="dtp-sliceTagExpense-step2628000-ofs19-col19-cat0.html"><rect style="display:none" class="hcell-act-col19-cat0" fill="#777" stroke="#000" stroke-width="5" width="70" height="171" x="0" y="-176" rx="8" ry="8"/><rect class="hcell-col19-cat0" fill="#777" stroke="#DDD" width="70" height="181" x="0" y="-181" rx="8" ry="8"/><text text-anchor="middle" fill="#FFF" x="35" y="-161">2183</text></a></g></g><rect fill="none" stroke="#DDD" width="70" height="30" rx="8" ry="8" x="5" y="405"/><text text-anchor="middle" fill="#333" x="40" y="425">14-01</text><g transform="translate(5,445)"><g><a target="_top" xlink:href="dtp-sliceTagExpense-step2628000-ofs19-col19-cat0.html"><rect style="display:none" class="hcell-act-col19-cat0" fill="#777" stroke="#000" stroke-width="5" width="70" height="20" x="0" y="5" rx="8" ry="8"/><rect class="hcell-col19-cat0" fill="#777" stroke="#DDD" width="70" height="30" x="0" y="0" rx="8" ry="8"/><text text-anchor="middle" fill="#FFF" x="35" y="20">-47</text></a></g></g></g><g><g transform="translate(85,395)"><g><a target="_top" xlink:href="dtp-sliceTagExpense-step2628000-ofs19-col20-cat0.html"><rect style="display:none" class="hcell-act-col20-cat0" fill="#777" stroke="#000" stroke-width="5" width="70" height="224" x="0" y="-229" rx="8" ry="8"/><rect class="hcell-col20-cat0" fill="#777" stroke="#DDD" width="70" height="234" x="0" y="-234" rx="8" ry="8"/><text text-anchor="middle" fill="#FFF" x="35" y="-214">2815</text></a></g></g><rect fill="none" stroke="#DDD" width="70" height="30" rx="8" ry="8" x="85" y="405"/><text text-anchor="middle" fill="#333" x="120" y="425">14-03</text><g transform="translate(85,445)"><g><a target="_top" xlink:href="dtp-sliceTagExpense-step2628000-ofs19-col20-cat0.html"><rect style="display:none" class="hcell-act-col20-cat0" fill="#777" stroke="#000" stroke-width="5" width="70" height="20" x="0" y="5" rx="8" ry="8"/><rect class="hcell-col20-cat0" fill="#777" stroke="#DDD" width="70" height="30" x="0" y="0" rx="8" ry="8"/><text text-anchor="middle" fill="#FFF" x="35" y="20">-27</text></a></g></g></g><g><g transform="translate(165,395)"><g><a target="_top" xlink:href="dtp-sliceTagExpense-step2628000-ofs19-col21-cat0.html"><rect style="display:none" class="hcell-act-col21-cat0" fill="#777" stroke="#000" stroke-width="5" width="70" height="345" x="0" y="-350" rx="8" ry="8"/><rect class="hcell-col21-cat0" fill="#777" stroke="#DDD" width="70" height="355" x="0" y="-355" rx="8" ry="8"/><text text-anchor="middle" fill="#FFF" x="35" y="-335">4263</text></a></g></g><rect fill="none" stroke="#DDD" width="70" height="30" rx="8" ry="8" x="165" y="405"/><text text-anchor="middle" fill="#333" x="200" y="425">14-04</text><g transform="translate(165,445)"></g></g><g><g transform="translate(245,395)"><g><a target="_top" xlink:href="dtp-sliceTagExpense-step2628000-ofs19-col22-cat0.html"><rect style="display:none" class="hcell-act-col22-cat0" fill="#777" stroke="#000" stroke-width="5" width="70" height="380" x="0" y="-385" rx="8" ry="8"/><rect class="hcell-col22-cat0" fill="#777" stroke="#DDD" width="70" height="390" x="0" y="-390" rx="8" ry="8"/><text text-anchor="middle" fill="#FFF" x="35" y="-370">4683</text></a></g></g><rect fill="none" stroke="#DDD" width="70" height="30" rx="8" ry="8" x="245" y="405"/><text text-anchor="middle" fill="#333" x="280" y="425">14-05</text><g transform="translate(245,445)"><g><a target="_top" xlink:href="dtp-sliceTagExpense-step2628000-ofs19-col22-cat0.html"><rect style="display:none" class="hcell-act-col22-cat0" fill="#777" stroke="#000" stroke-width="5" width="70" height="20" x="0" y="5" rx="8" ry="8"/><rect class="hcell-col22-cat0" fill="#777" stroke="#DDD" width="70" height="30" x="0" y="0" rx="8" ry="8"/><text text-anchor="middle" fill="#FFF" x="35" y="20">-120</text></a></g></g></g><g><g transform="translate(325,395)"><g><a target="_top" xlink:href="dtp-sliceTagExpense-step2628000-ofs19-col23-cat0.html"><rect style="display:none" class="hcell-act-col23-cat0" fill="#777" stroke="#000" stroke-width="5" width="70" height="280" x="0" y="-285" rx="8" ry="8"/><rect class="hcell-col23-cat0" fill="#777" stroke="#DDD" width="70" height="290" x="0" y="-290" rx="8" ry="8"/><text text-anchor="middle" fill="#FFF" x="35" y="-270">3484</text></a></g></g><rect fill="none" stroke="#DDD" width="70" height="30" rx="8" ry="8" x="325" y="405"/><text text-anchor="middle" fill="#333" x="360" y="425">14-06</text><g transform="translate(325,445)"></g></g><g><g transform="translate(405,395)"><g><a target="_top" xlink:href="dtp-sliceTagExpense-step2628000-ofs19-col24-cat0.html"><rect style="display:none" class="hcell-act-col24-cat0" fill="#777" stroke="#000" stroke-width="5" width="70" height="231" x="0" y="-236" rx="8" ry="8"/><rect class="hcell-col24-cat0" fill="#777" stroke="#DDD" width="70" height="241" x="0" y="-241" rx="8" ry="8"/><text text-anchor="middle" fill="#FFF" x="35" y="-221">2896</text></a></g></g><rect fill="none" stroke="#DDD" width="70" height="30" rx="8" ry="8" x="405" y="405"/><text text-anchor="middle" fill="#333" x="440" y="425">14-07</text><g transform="translate(405,445)"><g><a target="_top" xlink:href="dtp-sliceTagExpense-step2628000-ofs19-col24-cat0.html"><rect style="display:none" class="hcell-act-col24-cat0" fill="#777" stroke="#000" stroke-width="5" width="70" height="20" x="0" y="5" rx="8" ry="8"/><rect class="hcell-col24-cat0" fill="#777" stroke="#DDD" width="70" height="30" x="0" y="0" rx="8" ry="8"/><text text-anchor="middle" fill="#FFF" x="35" y="20">-13</text></a></g></g></g><g><g transform="translate(485,395)"><g><a target="_top" xlink:href="dtp-sliceTagExpense-step2628000-ofs19-col25-cat0.html"><rect style="display:none" class="hcell-act-col25-cat0" fill="#777" stroke="#000" stroke-width="5" width="70" height="286" x="0" y="-291" rx="8" ry="8"/><rect class="hcell-col25-cat0" fill="#777" stroke="#DDD" width="70" height="296" x="0" y="-296" rx="8" ry="8"/><text text-anchor="middle" fill="#FFF" x="35" y="-276">3558</text></a></g></g><rect fill="none" stroke="#DDD" width="70" height="30" rx="8" ry="8" x="485" y="405"/><text text-anchor="middle" fill="#333" x="520" y="425">14-08</text><g transform="translate(485,445)"></g></g><g><g transform="translate(565,395)"><g><a target="_top" xlink:href="dtp-sliceTagExpense-step2628000-ofs19-col26-cat0.html"><rect style="display:none" class="hcell-act-col26-cat0" fill="#777" stroke="#000" stroke-width="5" width="70" height="368" x="0" y="-373" rx="8" ry="8"/><rect class="hcell-col26-cat0" fill="#777" stroke="#DDD" width="70" height="378" x="0" y="-378" rx="8" ry="8"/><text text-anchor="middle" fill="#FFF" x="35" y="-358">4549</text></a></g></g><rect fill="none" stroke="#DDD" width="70" height="30" rx="8" ry="8" x="565" y="405"/><text text-anchor="middle" fill="#333" x="600" y="425">14-08</text><g transform="translate(565,445)"><g><a target="_top" xlink:href="dtp-sliceTagExpense-step2628000-ofs19-col26-cat0.html"><rect style="display:none" class="hcell-act-col26-cat0" fill="#777" stroke="#000" stroke-width="5" width="70" height="20" x="0" y="5" rx="8" ry="8"/><rect class="hcell-col26-cat0" fill="#777" stroke="#DDD" width="70" height="30" x="0" y="0" rx="8" ry="8"/><text text-anchor="middle" fill="#FFF" x="35" y="20">-22</text></a></g></g></g><g><g transform="translate(645,395)"><g><a target="_top" xlink:href="dtp-sliceTagExpense-step2628000-ofs19-col27-cat0.html"><rect style="display:none" class="hcell-act-col27-cat0" fill="#777" stroke="#000" stroke-width="5" width="70" height="193" x="0" y="-198" rx="8" ry="8"/><rect class="hcell-col27-cat0" fill="#777" stroke="#DDD" width="70" height="203" x="0" y="-203" rx="8" ry="8"/><text text-anchor="middle" fill="#FFF" x="35" y="-183">2442</text></a></g></g><rect fill="none" stroke="#DDD" width="70" height="30" rx="8" ry="8" x="645" y="405"/><text text-anchor="middle" fill="#333" x="680" y="425">14-10</text><g transform="translate(645,445)"></g></g><g><g transform="translate(725,395)"><g><a target="_top" xlink:href="dtp-sliceTagExpense-step2628000-ofs19-col28-cat0.html"><rect style="display:none" class="hcell-act-col28-cat0" fill="#777" stroke="#000" stroke-width="5" width="70" height="277" x="0" y="-282" rx="8" ry="8"/><rect class="hcell-col28-cat0" fill="#777" stroke="#DDD" width="70" height="287" x="0" y="-287" rx="8" ry="8"/><text text-anchor="middle" fill="#FFF" x="35" y="-267">3447</text></a></g></g><rect fill="none" stroke="#DDD" width="70" height="30" rx="8" ry="8" x="725" y="405"/><text text-anchor="middle" fill="#333" x="760" y="425">14-10</text><g transform="translate(725,445)"></g></g><g><g transform="translate(805,395)"><g><a target="_top" xlink:href="dtp-sliceTagExpense-step2628000-ofs19-col29-cat0.html"><rect style="display:none" class="hcell-act-col29-cat0" fill="#777" stroke="#000" stroke-width="5" width="70" height="251" x="0" y="-256" rx="8" ry="8"/><rect class="hcell-col29-cat0" fill="#777" stroke="#DDD" width="70" height="261" x="0" y="-261" rx="8" ry="8"/><text text-anchor="middle" fill="#FFF" x="35" y="-241">3144</text></a></g></g><rect fill="none" stroke="#DDD" width="70" height="30" rx="8" ry="8" x="805" y="405"/><text text-anchor="middle" fill="#333" x="840" y="425">14-12</text><g transform="translate(805,445)"><g><a target="_top" xlink:href="dtp-sliceTagExpense-step2628000-ofs19-col29-cat0.html"><rect style="display:none" class="hcell-act-col29-cat0" fill="#777" stroke="#000" stroke-width="5" width="70" height="20" x="0" y="5" rx="8" ry="8"/><rect class="hcell-col29-cat0" fill="#777" stroke="#DDD" width="70" height="30" x="0" y="0" rx="8" ry="8"/><text text-anchor="middle" fill="#FFF" x="35" y="20">-56</text></a></g></g></g><g><g transform="translate(885,395)"><g><a target="_top" xlink:href="dtp-sliceTagExpense-step2628000-ofs19-col30-cat0.html"><rect style="display:none" class="hcell-act-col30-cat0" fill="#777" stroke="#000" stroke-width="5" width="70" height="244" x="0" y="-249" rx="8" ry="8"/><rect class="hcell-col30-cat0" fill="#777" stroke="#DDD" width="70" height="254" x="0" y="-254" rx="8" ry="8"/><text text-anchor="middle" fill="#FFF" x="35" y="-234">3059</text></a></g></g><rect fill="none" stroke="#DDD" width="70" height="30" rx="8" ry="8" x="885" y="405"/><text text-anchor="middle" fill="#333" x="920" y="425">14-12</text><g transform="translate(885,445)"><g><a target="_top" xlink:href="dtp-sliceTagExpense-step2628000-ofs19-col30-cat0.html"><rect style="display:none" class="hcell-act-col30-cat0" fill="#777" stroke="#000" stroke-width="5" width="70" height="20" x="0" y="5" rx="8" ry="8"/><rect class="hcell-col30-cat0" fill="#777" stroke="#DDD" width="70" height="30" x="0" y="0" rx="8" ry="8"/><text text-anchor="middle" fill="#FFF" x="35" y="20">-78</text></a></g></g></g><g><g transform="translate(965,395)"><g><a target="_top" xlink:href="dtp-sliceTagExpense-step2628000-ofs19-col31-cat0.html"><rect style="display:none" class="hcell-act-col31-cat0" fill="#777" stroke="#000" stroke-width="5" width="70" height="330" x="0" y="-335" rx="8" ry="8"/><rect class="hcell-col31-cat0" fill="#777" stroke="#DDD" width="70" height="340" x="0" y="-340" rx="8" ry="8"/><text text-anchor="middle" fill="#FFF" x="35" y="-320">4091</text></a></g></g><rect fill="none" stroke="#DDD" width="70" height="30" rx="8" ry="8" x="965" y="405"/><text text-anchor="middle" fill="#333" x="1000" y="425">15-01</text><g transform="translate(965,445)"></g></g><g><g transform="translate(1045,395)"><g><a target="_top" xlink:href="dtp-sliceTagExpense-step2628000-ofs19-col32-cat0.html"><rect style="display:none" class="hcell-act-col32-cat0" fill="#777" stroke="#000" stroke-width="5" width="70" height="164" x="0" y="-169" rx="8" ry="8"/><rect class="hcell-col32-cat0" fill="#777" stroke="#DDD" width="70" height="174" x="0" y="-174" rx="8" ry="8"/><text text-anchor="middle" fill="#FFF" x="35" y="-154">2096</text></a></g></g><rect fill="none" stroke="#DDD" width="70" height="30" rx="8" ry="8" x="1045" y="405"/><text text-anchor="middle" fill="#333" x="1080" y="425">15-03</text><g transform="translate(1045,445)"></g></g><g><g transform="translate(1125,395)"><g><a target="_top" xlink:href="dtp-sliceTagExpense-step2628000-ofs19-col33-cat0.html"><rect style="display:none" class="hcell-act-col33-cat0" fill="#777" stroke="#000" stroke-width="5" width="70" height="239" x="0" y="-244" rx="8" ry="8"/><rect class="hcell-col33-cat0" fill="#777" stroke="#DDD" width="70" height="249" x="0" y="-249" rx="8" ry="8"/><text text-anchor="middle" fill="#FFF" x="35" y="-229">2995</text></a></g></g><rect fill="none" stroke="#DDD" width="70" height="30" rx="8" ry="8" x="1125" y="405"/><text text-anchor="middle" fill="#333" x="1160" y="425">15-04</text><g transform="translate(1125,445)"><g><a target="_top" xlink:href="dtp-sliceTagExpense-step2628000-ofs19-col33-cat0.html"><rect style="display:none" class="hcell-act-col33-cat0" fill="#777" stroke="#000" stroke-width="5" width="70" height="20" x="0" y="5" rx="8" ry="8"/><rect class="hcell-col33-cat0" fill="#777" stroke="#DDD" width="70" height="30" x="0" y="0" rx="8" ry="8"/><text text-anchor="middle" fill="#FFF" x="35" y="20">-33</text></a></g></g></g><g><g transform="translate(1205,395)"></g><rect fill="none" stroke="#DDD" width="70" height="30" rx="8" ry="8" x="1205" y="405"/><text text-anchor="middle" fill="#333" x="1240" y="425">15-05</text><g transform="translate(1205,445)"></g></g></svg>