<svg xmlns="http://www.w3.org/2000/svg" xmlns:xlink="http://www.w3.org/1999/xlink" width="100%" height="100%" viewBox="0 0 1280 459"><g><g transform="translate(5,367)"></g><rect fill="none" stroke="#DDD" width="70" height="30" rx="8" ry="8" x="5" y="377"/><text text-anchor="middle" fill="#333" x="40" y="397">12-07</text><g transform="translate(5,417)"><g><a target="_top" xlink:href="dtp-sliceTagPayment-step2628000-ofs0-col0-cat0.html"><rect style="display:none" class="hcell-act-col0-cat0" fill="#777" stroke="#000" stroke-width="5" width="70" height="20" x="0" y="5" rx="8" ry="8"/><rect class="hcell-col0-cat0" fill="#777" stroke="#DDD" width="70" height="30" x="0" y="0" rx="8" ry="8"/><text text-anchor="middle" fill="#FFF" x="35" y="20">-21</text></a></g></g></g><g><g transform="translate(85,367)"></g><rect fill="none" stroke="#DDD" width="70" height="30" rx="8" ry="8" x="85" y="377"/><text text-anchor="middle" fill="#333" x="120" y="397">12-08</text><g transform="translate(85,417)"></g></g><g><g transform="translate(165,367)"></g><rect fill="none" stroke="#DDD" width="70" height="30" rx="8" ry="8" x="165" y="377"/><text text-anchor="middle" fill="#333" x="200" y="397">12-08</text><g transform="translate(165,417)"><g><a target="_top" xlink:href="dtp-sliceTagPayment-step2628000-ofs0-col2-cat0.html"><rect style="display:none" class="hcell-act-col2-cat0" fill="#777" stroke="#000" stroke-width="5" width="70" height="20" x="0" y="5" rx="8" ry="8"/><rect class="hcell-col2-cat0" fill="#777" stroke="#DDD" width="70" height="30" x="0" y="0" rx="8" ry="8"/><text text-anchor="middle" fill="#FFF" x="35" y="20">-23</text></a></g></g></g><g><g transform="translate(245,367)"></g><rect fill="none" stroke="#DDD" width="70" height="30" rx="8" ry="8" x="245" y="377"/><text text-anchor="middle" fill="#333" x="280" y="397">12-10</text><g transform="translate(245,417)"><g><a target="_top" xlink:href="dtp-sliceTagPayment-step2628000-ofs0-col3-cat0.html"><rect style="display:none" class="hcell-act-col3-cat0" fill="#777" stroke="#000" stroke-width="5" width="70" height="27" x="0" y="5" rx="8" ry="8"/><rect class="hcell-col3-cat0" fill="#777" stroke="#DDD" width="70" height="37" x="0" y="0" rx="8" ry="8"/><text text-anchor="middle" fill="#FFF" x="35" y="20">-144</text></a></g></g></g><g><g transform="translate(325,367)"></g><rect fill="none" stroke="#DDD" width="70" height="30" rx="8" ry="8" x="325" y="377"/><text text-anchor="middle" fill="#333" x="360" y="397">12-10</text><g transform="translate(325,417)"><g><a target="_top" xlink:href="dtp-sliceTagPayment-step2628000-ofs0-col4-cat0.html"><rect style="display:none" class="hcell-act-col4-cat0" fill="#777" stroke="#000" stroke-width="5" width="70" height="20" x="0" y="5" rx="8" ry="8"/><rect class="hcell-col4-cat0" fill="#777" stroke="#DDD" width="70" height="30" x="0" y="0" rx="8" ry="8"/><text text-anchor="middle" fill="#FFF" x="35" y="20">-44</text></a></g></g></g><g><g transform="translate(405,367)"></g><rect fill="none" stroke="#DDD" width="70" height="30" rx="8" ry="8" x="405" y="377"/><text text-anchor="middle" fill="#333" x="440" y="397">12-12</text><g transform="translate(405,417)"><g><a target="_top" xlink:href="dtp-sliceTagPayment-step2628000-ofs0-col5-cat0.html"><rect style="display:none" class="hcell-act-col5-cat0" fill="#777" stroke="#000" stroke-width="5" width="70" height="20" x="0" y="5" rx="8" ry="8"/><rect class="hcell-col5-cat0" fill="#777" stroke="#DDD" width="70" height="30" x="0" y="0" rx="8" ry="8"/><text text-anchor="middle" fill="#FFF" x="35" y="20">-42</text></a></g></g></g><g><g transform="translate(485,367)"><g><a target="_top" xlink:href="dtp-sliceTagPayment-step2628000-ofs0-col6-cat0.html"><rect style="display:none" class="hcell-act-col6-cat0" fill="#777" stroke="#000" stroke-width="5" width="70" height="20" x="0" y="-25" rx="8" ry="8"/><rect class="hcell-col6-cat0" fill="#777" stroke="#DDD" width="70" height="30" x="0" y="-30" rx="8" ry="8"/><text text-anchor="middle" fill="#FFF" x="35" y="-10">11</text></a></g></g><rect fill="none" stroke="#DDD" width="70" height="30" rx="8" ry="8" x="485" y="377"/><text text-anchor="middle" fill="#333" x="520" y="397">12-12</text><g transform="translate(485,417)"><g><a target="_top" xlink:href="dtp-sliceTagPayment-step2628000-ofs0-col6-cat0.html"><rect style="display:none" class="hcell-act-col6-cat0" fill="#777" stroke="#000" stroke-width="5" width="70" height="20" x="0" y="5" rx="8" ry="8"/><rect class="hcell-col6-cat0" fill="#777" stroke="#DDD" width="70" height="30" x="0" y="0" rx="8" ry="8"/><text text-anchor="middle" fill="#FFF" x="35" y="20">-100</text></a></g></g></g><g><g transform="translate(565,367)"></g><rect fill="none" stroke="#DDD" width="70" height="30" rx="8" ry="8" x="565" y="377"/><text text-anchor="middle" fill="#333" x="600" y="397">13-01</text><g transform="translate(565,417)"><g><a target="_top" xlink:href="dtp-sliceTagPayment-step2628000-ofs0-col7-cat0.html"><rect style="display:none" class="hcell-act-col7-cat0" fill="#777" stroke="#000" stroke-width="5" width="70" height="20" x="0" y="5" rx="8" ry="8"/><rect class="hcell-col7-cat0" fill="#777" stroke="#DDD" width="70" height="30" x="0" y="0" rx="8" ry="8"/><text text-anchor="middle" fill="#FFF" x="35" y="20">-67</text></a></g></g></g><g><g transform="translate(645,367)"><g><a target="_top" xlink:href="dtp-sliceTagPayment-step2628000-ofs0-col8-cat0.html"><rect style="display:none" class="hcell-act-col8-cat0" fill="#777" stroke="#000" stroke-width="5" width="70" height="352" x="0" y="-357" rx="8" ry="8"/><rect class="hcell-col8-cat0" fill="#777" stroke="#DDD" width="70" height="362" x="0" y="-362" rx="8" ry="8"/><text text-anchor="middle" fill="#FFF" x="35" y="-342">1388</text></a></g></g><rect fill="none" stroke="#DDD" width="70" height="30" rx="8" ry="8" x="645" y="377"/><text text-anchor="middle" fill="#333" x="680" y="397">13-03</text><g transform="translate(645,417)"></g></g><g><g transform="translate(725,367)"><g><a target="_top" xlink:href="dtp-sliceTagPayment-step2628000-ofs0-col9-cat0.html"><rect style="display:none" class="hcell-act-col9-cat0" fill="#777" stroke="#000" stroke-width="5" width="70" height="347" x="0" y="-352" rx="8" ry="8"/><rect class="hcell-col9-cat0" fill="#777" stroke="#DDD" width="70" height="357" x="0" y="-357" rx="8" ry="8"/><text text-anchor="middle" fill="#FFF" x="35" y="-337">1370</text></a></g></g><rect fill="none" stroke="#DDD" width="70" height="30" rx="8" ry="8" x="725" y="377"/><text text-anchor="middle" fill="#333" x="760" y="397">13-04</text><g transform="translate(725,417)"><g><a target="_top" xlink:href="dtp-sliceTagPayment-step2628000-ofs0-col9-cat0.html"><rect style="display:none" class="hcell-act-col9-cat0" fill="#777" stroke="#000" stroke-width="5" width="70" height="20" x="0" y="5" rx="8" ry="8"/><rect class="hcell-col9-cat0" fill="#777" stroke="#DDD" width="70" height="30" x="0" y="0" rx="8" ry="8"/><text text-anchor="middle" fill="#FFF" x="35" y="20">-113</text></a></g></g></g><g><g transform="translate(805,367)"><g><a target="_top" xlink:href="dtp-sliceTagPayment-step2628000-ofs0-col10-cat0.html"><rect style="display:none" class="hcell-act-col10-cat0" fill="#777" stroke="#000" stroke-width="5" width="70" height="288" x="0" y="-293" rx="8" ry="8"/><rect class="hcell-col10-cat0" fill="#777" stroke="#DDD" width="70" height="298" x="0" y="-298" rx="8" ry="8"/><text text-anchor="middle" fill="#FFF" x="35" y="-278">1141</text></a></g></g><rect fill="none" stroke="#DDD" width="70" height="30" rx="8" ry="8" x="805" y="377"/><text text-anchor="middle" fill="#333" x="840" y="397">13-05</text><g transform="translate(805,417)"><g><a target="_top" xlink:href="dtp-sliceTagPayment-step2628000-ofs0-col10-cat0.html"><rect style="display:none" class="hcell-act-col10-cat0" fill="#777" stroke="#000" stroke-width="5" width="70" height="20" x="0" y="5" rx="8" ry="8"/><rect class="hcell-col10-cat0" fill="#777" stroke="#DDD" width="70" height="30" x="0" y="0" rx="8" ry="8"/><text text-anchor="middle" fill="#FFF" x="35" y="20">-32</text></a></g></g></g><g><g transform="translate(885,367)"><g><a target="_top" xlink:href="dtp-sliceTagPayment-step2628000-ofs0-col11-cat0.html"><rect style="display:none" class="hcell-act-col11-cat0" fill="#777" stroke="#000" stroke-width="5" width="70" height="20" x="0" y="-25" rx="8" ry="8"/><rect class="hcell-col11-cat0" fill="#777" stroke="#DDD" width="70" height="30" x="0" y="-30" rx="8" ry="8"/><text text-anchor="middle" fill="#FFF" x="35" y="-10">16</text></a></g></g><rect fill="none" stroke="#DDD" width="70" height="30" rx="8" ry="8" x="885" y="377"/><text text-anchor="middle" fill="#333" x="920" y="397">13-06</text><g transform="translate(885,417)"><g><a target="_top" xlink:href="dtp-sliceTagPayment-step2628000-ofs0-col11-cat0.html"><rect style="display:none" class="hcell-act-col11-cat0" fill="#777" stroke="#000" stroke-width="5" width="70" height="20" x="0" y="5" rx="8" ry="8"/><rect class="hcell-col11-cat0" fill="#777" stroke="#DDD" width="70" height="30" x="0" y="0" rx="8" ry="8"/><text text-anchor="middle" fill="#FFF" x="35" y="20">-55</text></a></g></g></g><g><g transform="translate(965,367)"></g><rect fill="none" stroke="#DDD" width="70" height="30" rx="8" ry="8" x="965" y="377"/><text text-anchor="middle" fill="#333" x="1000" y="397">13-07</text><g transform="translate(965,417)"><g><a target="_top" xlink:href="dtp-sliceTagPayment-step2628000-ofs0-col12-cat0.html"><rect style="display:none" class="hcell-act-col12-cat0" fill="#777" stroke="#000" stroke-width="5" width="70" height="20" x="0" y="5" rx="8" ry="8"/><rect class="hcell-col12-cat0" fill="#777" stroke="#DDD" width="70" height="30" x="0" y="0" rx="8" ry="8"/><text text-anchor="middle" fill="#FFF" x="35" y="20">-76</text></a></g></g></g><g><g transform="translate(1045,367)"></g><rect fill="none" stroke="#DDD" width="70" height="30" rx="8" ry="8" x="1045" y="377"/><text text-anchor="middle" fill="#333" x="1080" y="397">13-08</text><g transform="translate(1045,417)"><g><a target="_top" xlink:href="dtp-sliceTagPayment-step2628000-ofs0-col13-cat0.html"><rect style="display:none" class="hcell-act-col13-cat0" fill="#777" stroke="#000" stroke-width="5" width="70" height="20" x="0" y="5" rx="8" ry="8"/><rect class="hcell-col13-cat0" fill="#777" stroke="#DDD" width="70" height="30" x="0" y="0" rx="8" ry="8"/><text text-anchor="middle" fill="#FFF" x="35" y="20">-68</text></a></g></g></g><g><g transform="translate(1125,367)"></g><rect fill="none" stroke="#DDD" width="70" height="30" rx="8" ry="8" x="1125" y="377"/><text text-anchor="middle" fill="#333" x="1160" y="397">13-08</text><g transform="translate(1125,417)"><g><a target="_top" xlink:href="dtp-sliceTagPayment-step2628000-ofs0-col14-cat0.html"><rect style="display:none" class="hcell-act-col14-cat0" fill="#777" stroke="#000" stroke-width="5" width="70" height="20" x="0" y="5" rx="8" ry="8"/><rect class="hcell-col14-cat0" fill="#777" stroke="#DDD" width="70" height="30" x="0" y="0" rx="8" ry="8"/><text text-anchor="middle" fill="#FFF" x="35" y="20">-20</text></a></g></g></g><g><g transform="translate(1205,367)"></g><rect fill="none" stroke="#DDD" width="70" height="30" rx="8" ry="8" x="1205" y="377"/><text text-anchor="middle" fill="#333" x="1240" y="397">13-10</text><g transform="translate(1205,417)"></g></g></svg>