<svg xmlns="http://www.w3.org/2000/svg" xmlns:xlink="http://www.w3.org/1999/xlink" width="100%" height="100%" viewBox="0 0 1280 459"><g><g transform="translate(5,139)"></g><rect fill="none" stroke="#DDD" width="70" height="30" rx="8" ry="8" x="5" y="149"/><text text-anchor="middle" fill="#333" x="40" y="169">12-07</text><g transform="translate(5,189)"></g></g><g><g transform="translate(85,139)"></g><rect fill="none" stroke="#DDD" width="70" height="30" rx="8" ry="8" x="85" y="149"/><text text-anchor="middle" fill="#333" x="120" y="169">12-09</text><g transform="translate(85,189)"></g></g><g><g transform="translate(165,139)"></g><rect fill="none" stroke="#DDD" width="70" height="30" rx="8" ry="8" x="165" y="149"/><text text-anchor="middle" fill="#333" x="200" y="169">12-11</text><g transform="translate(165,189)"></g></g><g><g transform="translate(245,139)"></g><rect fill="none" stroke="#DDD" width="70" height="30" rx="8" ry="8" x="245" y="149"/><text text-anchor="middle" fill="#333" x="280" y="169">13-01</text><g transform="translate(245,189)"></g></g><g><g transform="translate(325,139)"></g><rect fill="none" stroke="#DDD" width="70" height="30" rx="8" ry="8" x="325" y="149"/><text text-anchor="middle" fill="#333" x="360" y="169">13-03</text><g transform="translate(325,189)"></g></g><g><g transform="translate(405,139)"></g><rect fill="none" stroke="#DDD" width="70" height="30" rx="8" ry="8" x="405" y="149"/><text text-anchor="middle" fill="#333" x="440" y="169">13-05</text><g transform="translate(405,189)"></g></g><g><g transform="translate(485,139)"></g><rect fill="none" stroke="#DDD" width="70" height="30" rx="8" ry="8" x="485" y="149"/><text text-anchor="middle" fill="#333" x="520" y="169">13-07</text><g transform="translate(485,189)"></g></g><g><g transform="translate(565,139)"></g><rect fill="none" stroke="#DDD" width="70" height="30" rx="8" ry="8" x="565" y="149"/><text text-anchor="middle" fill="#333" x="600" y="169">13-09</text><g transform="translate(565,189)"></g></g><g><g transform="translate(645,139)"></g><rect fill="none" stroke="#DDD" width="70" height="30" rx="8" ry="8" x="645" y="149"/><text text-anchor="middle" fill="#333" x="680" y="169">13-12</text><g transform="translate(645,189)"></g></g><g><g transform="translate(725,139)"></g><rect fill="none" stroke="#DDD" width="70" height="30" rx="8" ry="8" x="725" y="149"/><text text-anchor="middle" fill="#333" x="760" y="169">14-02</text><g transform="translate(725,189)"></g></g><g><g transform="translate(805,139)"></g><rect fill="none" stroke="#DDD" width="70" height="30" rx="8" ry="8" x="805" y="149"/><text text-anchor="middle" fill="#333" x="840" y="169">14-04</text><g transform="translate(805,189)"></g></g><g><g transform="translate(885,139)"></g><rect fill="none" stroke="#DDD" width="70" height="30" rx="8" ry="8" x="885" y="149"/><text text-anchor="middle" fill="#333" x="920" y="169">14-06</text><g transform="translate(885,189)"><g><a target="_top" xlink:href="dtp-sliceTagHygiene-step5605201-ofs0-col11-cat0.html"><rect style="display:none" class="hcell-act-col11-cat0" fill="#777" stroke="#000" stroke-width="5" width="70" height="55" x="0" y="5" rx="8" ry="8"/><rect class="hcell-col11-cat0" fill="#777" stroke="#DDD" width="70" height="65" x="0" y="0" rx="8" ry="8"/><text text-anchor="middle" fill="#FFF" x="35" y="20">-43</text></a></g></g></g><g><g transform="translate(965,139)"></g><rect fill="none" stroke="#DDD" width="70" height="30" rx="8" ry="8" x="965" y="149"/><text text-anchor="middle" fill="#333" x="1000" y="169">14-08</text><g transform="translate(965,189)"><g><a target="_top" xlink:href="dtp-sliceTagHygiene-step5605201-ofs0-col12-cat0.html"><rect style="display:none" class="hcell-act-col12-cat0" fill="#777" stroke="#000" stroke-width="5" width="70" height="148" x="0" y="5" rx="8" ry="8"/><rect class="hcell-col12-cat0" fill="#777" stroke="#DDD" width="70" height="158" x="0" y="0" rx="8" ry="8"/><text text-anchor="middle" fill="#FFF" x="35" y="20">-103</text></a></g></g></g><g><g transform="translate(1045,139)"><g><a target="_top" xlink:href="dtp-sliceTagHygiene-step5605201-ofs0-col13-cat0.html"><rect style="display:none" class="hcell-act-col13-cat0" fill="#777" stroke="#000" stroke-width="5" width="70" height="124" x="0" y="-129" rx="8" ry="8"/><rect class="hcell-col13-cat0" fill="#777" stroke="#DDD" width="70" height="134" x="0" y="-134" rx="8" ry="8"/><text text-anchor="middle" fill="#FFF" x="35" y="-114">86</text></a></g></g><rect fill="none" stroke="#DDD" width="70" height="30" rx="8" ry="8" x="1045" y="149"/><text text-anchor="middle" fill="#333" x="1080" y="169">14-10</text><g transform="translate(1045,189)"></g></g><g><g transform="translate(1125,139)"></g><rect fill="none" stroke="#DDD" width="70" height="30" rx="8" ry="8" x="1125" y="149"/><text text-anchor="middle" fill="#333" x="1160" y="169">14-12</text><g transform="translate(1125,189)"><g><a target="_top" xlink:href="dtp-sliceTagHygiene-step5605201-ofs0-col14-cat0.html"><rect style="display:none" class="hcell-act-col14-cat0" fill="#777" stroke="#000" stroke-width="5" width="70" height="23" x="0" y="5" rx="8" ry="8"/><rect class="hcell-col14-cat0" fill="#777" stroke="#DDD" width="70" height="33" x="0" y="0" rx="8" ry="8"/><text text-anchor="middle" fill="#FFF" x="35" y="20">-22</text></a></g></g></g><g><g transform="translate(1205,139)"></g><rect fill="none" stroke="#DDD" width="70" height="30" rx="8" ry="8" x="1205" y="149"/><text text-anchor="middle" fill="#333" x="1240" y="169">15-03</text><g transform="translate(1205,189)"><g><a target="_top" xlink:href="dtp-sliceTagHygiene-step5605201-ofs0-col15-cat0.html"><rect style="display:none" class="hcell-act-col15-cat0" fill="#777" stroke="#000" stroke-width="5" width="70" height="255" x="0" y="5" rx="8" ry="8"/><rect class="hcell-col15-cat0" fill="#777" stroke="#DDD" width="70" height="265" x="0" y="0" rx="8" ry="8"/><text text-anchor="middle" fill="#FFF" x="35" y="20">-173</text></a></g></g></g></svg>