<svg xmlns="http://www.w3.org/2000/svg" xmlns:xlink="http://www.w3.org/1999/xlink" width="100%" height="100%" viewBox="0 0 1280 459"><g><g transform="translate(5,210)"></g><rect fill="none" stroke="#DDD" width="70" height="30" rx="8" ry="8" x="5" y="220"/><text text-anchor="middle" fill="#333" x="40" y="240">14-01</text><g transform="translate(5,260)"></g></g><g><g transform="translate(85,210)"></g><rect fill="none" stroke="#DDD" width="70" height="30" rx="8" ry="8" x="85" y="220"/><text text-anchor="middle" fill="#333" x="120" y="240">14-03</text><g transform="translate(85,260)"></g></g><g><g transform="translate(165,210)"></g><rect fill="none" stroke="#DDD" width="70" height="30" rx="8" ry="8" x="165" y="220"/><text text-anchor="middle" fill="#333" x="200" y="240">14-04</text><g transform="translate(165,260)"></g></g><g><g transform="translate(245,210)"></g><rect fill="none" stroke="#DDD" width="70" height="30" rx="8" ry="8" x="245" y="220"/><text text-anchor="middle" fill="#333" x="280" y="240">14-05</text><g transform="translate(245,260)"></g></g><g><g transform="translate(325,210)"></g><rect fill="none" stroke="#DDD" width="70" height="30" rx="8" ry="8" x="325" y="220"/><text text-anchor="middle" fill="#333" x="360" y="240">14-06</text><g transform="translate(325,260)"></g></g><g><g transform="translate(405,210)"></g><rect fill="none" stroke="#DDD" width="70" height="30" rx="8" ry="8" x="405" y="220"/><text text-anchor="middle" fill="#333" x="440" y="240">14-07</text><g transform="translate(405,260)"></g></g><g><g transform="translate(485,210)"></g><rect fill="none" stroke="#DDD" width="70" height="30" rx="8" ry="8" x="485" y="220"/><text text-anchor="middle" fill="#333" x="520" y="240">14-08</text><g transform="translate(485,260)"><g><a target="_top" xlink:href="dtp-sliceTagAwesome1875-step2628000-ofs19-col25-cat0.html"><rect style="display:none" class="hcell-act-col25-cat0" fill="#777" stroke="#000" stroke-width="5" width="70" height="114" x="0" y="5" rx="8" ry="8"/><rect class="hcell-col25-cat0" fill="#777" stroke="#DDD" width="70" height="124" x="0" y="0" rx="8" ry="8"/><text text-anchor="middle" fill="#FFF" x="35" y="20">-82</text></a></g></g></g><g><g transform="translate(565,210)"></g><rect fill="none" stroke="#DDD" width="70" height="30" rx="8" ry="8" x="565" y="220"/><text text-anchor="middle" fill="#333" x="600" y="240">14-08</text><g transform="translate(565,260)"><g><a target="_top" xlink:href="dtp-sliceTagAwesome1875-step2628000-ofs19-col26-cat0.html"><rect style="display:none" class="hcell-act-col26-cat0" fill="#777" stroke="#000" stroke-width="5" width="70" height="20" x="0" y="5" rx="8" ry="8"/><rect class="hcell-col26-cat0" fill="#777" stroke="#DDD" width="70" height="30" x="0" y="0" rx="8" ry="8"/><text text-anchor="middle" fill="#FFF" x="35" y="20">-20</text></a></g></g></g><g><g transform="translate(645,210)"></g><rect fill="none" stroke="#DDD" width="70" height="30" rx="8" ry="8" x="645" y="220"/><text text-anchor="middle" fill="#333" x="680" y="240">14-10</text><g transform="translate(645,260)"><g><a target="_top" xlink:href="dtp-sliceTagAwesome1875-step2628000-ofs19-col27-cat0.html"><rect style="display:none" class="hcell-act-col27-cat0" fill="#777" stroke="#000" stroke-width="5" width="70" height="88" x="0" y="5" rx="8" ry="8"/><rect class="hcell-col27-cat0" fill="#777" stroke="#DDD" width="70" height="98" x="0" y="0" rx="8" ry="8"/><text text-anchor="middle" fill="#FFF" x="35" y="20">-65</text></a></g></g></g><g><g transform="translate(725,210)"></g><rect fill="none" stroke="#DDD" width="70" height="30" rx="8" ry="8" x="725" y="220"/><text text-anchor="middle" fill="#333" x="760" y="240">14-10</text><g transform="translate(725,260)"><g><a target="_top" xlink:href="dtp-sliceTagAwesome1875-step2628000-ofs19-col28-cat0.html"><rect style="display:none" class="hcell-act-col28-cat0" fill="#777" stroke="#000" stroke-width="5" width="70" height="184" x="0" y="5" rx="8" ry="8"/><rect class="hcell-col28-cat0" fill="#777" stroke="#DDD" width="70" height="194" x="0" y="0" rx="8" ry="8"/><text text-anchor="middle" fill="#FFF" x="35" y="20">-127</text></a></g></g></g><g><g transform="translate(805,210)"><g><a target="_top" xlink:href="dtp-sliceTagAwesome1875-step2628000-ofs19-col29-cat0.html"><rect style="display:none" class="hcell-act-col29-cat0" fill="#777" stroke="#000" stroke-width="5" width="70" height="56" x="0" y="-61" rx="8" ry="8"/><rect class="hcell-col29-cat0" fill="#777" stroke="#DDD" width="70" height="66" x="0" y="-66" rx="8" ry="8"/><text text-anchor="middle" fill="#FFF" x="35" y="-46">43</text></a></g></g><rect fill="none" stroke="#DDD" width="70" height="30" rx="8" ry="8" x="805" y="220"/><text text-anchor="middle" fill="#333" x="840" y="240">14-12</text><g transform="translate(805,260)"></g></g><g><g transform="translate(885,210)"><g><a target="_top" xlink:href="dtp-sliceTagAwesome1875-step2628000-ofs19-col30-cat0.html"><rect style="display:none" class="hcell-act-col30-cat0" fill="#777" stroke="#000" stroke-width="5" width="70" height="195" x="0" y="-200" rx="8" ry="8"/><rect class="hcell-col30-cat0" fill="#777" stroke="#DDD" width="70" height="205" x="0" y="-205" rx="8" ry="8"/><text text-anchor="middle" fill="#FFF" x="35" y="-185">133</text></a></g></g><rect fill="none" stroke="#DDD" width="70" height="30" rx="8" ry="8" x="885" y="220"/><text text-anchor="middle" fill="#333" x="920" y="240">14-12</text><g transform="translate(885,260)"></g></g><g><g transform="translate(965,210)"></g><rect fill="none" stroke="#DDD" width="70" height="30" rx="8" ry="8" x="965" y="220"/><text text-anchor="middle" fill="#333" x="1000" y="240">15-01</text><g transform="translate(965,260)"><g><a target="_top" xlink:href="dtp-sliceTagAwesome1875-step2628000-ofs19-col31-cat0.html"><rect style="display:none" class="hcell-act-col31-cat0" fill="#777" stroke="#000" stroke-width="5" width="70" height="126" x="0" y="5" rx="8" ry="8"/><rect class="hcell-col31-cat0" fill="#777" stroke="#DDD" width="70" height="136" x="0" y="0" rx="8" ry="8"/><text text-anchor="middle" fill="#FFF" x="35" y="20">-89</text></a></g></g></g><g><g transform="translate(1045,210)"></g><rect fill="none" stroke="#DDD" width="70" height="30" rx="8" ry="8" x="1045" y="220"/><text text-anchor="middle" fill="#333" x="1080" y="240">15-03</text><g transform="translate(1045,260)"><g><a target="_top" xlink:href="dtp-sliceTagAwesome1875-step2628000-ofs19-col32-cat0.html"><rect style="display:none" class="hcell-act-col32-cat0" fill="#777" stroke="#000" stroke-width="5" width="70" height="31" x="0" y="5" rx="8" ry="8"/><rect class="hcell-col32-cat0" fill="#777" stroke="#DDD" width="70" height="41" x="0" y="0" rx="8" ry="8"/><text text-anchor="middle" fill="#FFF" x="35" y="20">-28</text></a></g></g></g><g><g transform="translate(1125,210)"></g><rect fill="none" stroke="#DDD" width="70" height="30" rx="8" ry="8" x="1125" y="220"/><text text-anchor="middle" fill="#333" x="1160" y="240">15-04</text><g transform="translate(1125,260)"><g><a target="_top" xlink:href="dtp-sliceTagAwesome1875-step2628000-ofs19-col33-cat0.html"><rect style="display:none" class="hcell-act-col33-cat0" fill="#777" stroke="#000" stroke-width="5" width="70" height="42" x="0" y="5" rx="8" ry="8"/><rect class="hcell-col33-cat0" fill="#777" stroke="#DDD" width="70" height="52" x="0" y="0" rx="8" ry="8"/><text text-anchor="middle" fill="#FFF" x="35" y="20">-35</text></a></g></g></g><g><g transform="translate(1205,210)"></g><rect fill="none" stroke="#DDD" width="70" height="30" rx="8" ry="8" x="1205" y="220"/><text text-anchor="middle" fill="#333" x="1240" y="240">15-05</text><g transform="translate(1205,260)"></g></g></svg>