<svg xmlns="http://www.w3.org/2000/svg" xmlns:xlink="http://www.w3.org/1999/xlink" width="100%" height="100%" viewBox="0 0 1280 459"><g><g transform="translate(5,192)"><g><a target="_top" xlink:href="dtp-sliceTagAsset-step5605201-ofs0-col0-cat0.html"><rect style="display:none" class="hcell-act-col0-cat0" fill="#777" stroke="#000" stroke-width="5" width="70" height="123" x="0" y="-128" rx="8" ry="8"/><rect class="hcell-col0-cat0" fill="#777" stroke="#DDD" width="70" height="133" x="0" y="-133" rx="8" ry="8"/><text text-anchor="middle" fill="#FFF" x="35" y="-113">9067</text></a></g></g><rect fill="none" stroke="#DDD" width="70" height="30" rx="8" ry="8" x="5" y="202"/><text text-anchor="middle" fill="#333" x="40" y="222">12-07</text><g transform="translate(5,242)"><g><a target="_top" xlink:href="dtp-sliceTagAsset-step5605201-ofs0-col0-cat0.html"><rect style="display:none" class="hcell-act-col0-cat0" fill="#777" stroke="#000" stroke-width="5" width="70" height="61" x="0" y="5" rx="8" ry="8"/><rect class="hcell-col0-cat0" fill="#777" stroke="#DDD" width="70" height="71" x="0" y="0" rx="8" ry="8"/><text text-anchor="middle" fill="#FFF" x="35" y="20">-4825</text></a></g></g></g><g><g transform="translate(85,192)"><g><a target="_top" xlink:href="dtp-sliceTagAsset-step5605201-ofs0-col1-cat0.html"><rect style="display:none" class="hcell-act-col1-cat0" fill="#777" stroke="#000" stroke-width="5" width="70" height="86" x="0" y="-91" rx="8" ry="8"/><rect class="hcell-col1-cat0" fill="#777" stroke="#DDD" width="70" height="96" x="0" y="-96" rx="8" ry="8"/><text text-anchor="middle" fill="#FFF" x="35" y="-76">6502</text></a></g></g><rect fill="none" stroke="#DDD" width="70" height="30" rx="8" ry="8" x="85" y="202"/><text text-anchor="middle" fill="#333" x="120" y="222">12-09</text><g transform="translate(85,242)"><g><a target="_top" xlink:href="dtp-sliceTagAsset-step5605201-ofs0-col1-cat0.html"><rect style="display:none" class="hcell-act-col1-cat0" fill="#777" stroke="#000" stroke-width="5" width="70" height="71" x="0" y="5" rx="8" ry="8"/><rect class="hcell-col1-cat0" fill="#777" stroke="#DDD" width="70" height="81" x="0" y="0" rx="8" ry="8"/><text text-anchor="middle" fill="#FFF" x="35" y="20">-5503</text></a></g></g></g><g><g transform="translate(165,192)"><g><a target="_top" xlink:href="dtp-sliceTagAsset-step5605201-ofs0-col2-cat0.html"><rect style="display:none" class="hcell-act-col2-cat0" fill="#777" stroke="#000" stroke-width="5" width="70" height="115" x="0" y="-120" rx="8" ry="8"/><rect class="hcell-col2-cat0" fill="#777" stroke="#DDD" width="70" height="125" x="0" y="-125" rx="8" ry="8"/><text text-anchor="middle" fill="#FFF" x="35" y="-105">8464</text></a></g></g><rect fill="none" stroke="#DDD" width="70" height="30" rx="8" ry="8" x="165" y="202"/><text text-anchor="middle" fill="#333" x="200" y="222">12-11</text><g transform="translate(165,242)"><g><a target="_top" xlink:href="dtp-sliceTagAsset-step5605201-ofs0-col2-cat0.html"><rect style="display:none" class="hcell-act-col2-cat0" fill="#777" stroke="#000" stroke-width="5" width="70" height="83" x="0" y="5" rx="8" ry="8"/><rect class="hcell-col2-cat0" fill="#777" stroke="#DDD" width="70" height="93" x="0" y="0" rx="8" ry="8"/><text text-anchor="middle" fill="#FFF" x="35" y="20">-6357</text></a></g></g></g><g><g transform="translate(245,192)"><g><a target="_top" xlink:href="dtp-sliceTagAsset-step5605201-ofs0-col3-cat0.html"><rect style="display:none" class="hcell-act-col3-cat0" fill="#777" stroke="#000" stroke-width="5" width="70" height="104" x="0" y="-109" rx="8" ry="8"/><rect class="hcell-col3-cat0" fill="#777" stroke="#DDD" width="70" height="114" x="0" y="-114" rx="8" ry="8"/><text text-anchor="middle" fill="#FFF" x="35" y="-94">7727</text></a></g></g><rect fill="none" stroke="#DDD" width="70" height="30" rx="8" ry="8" x="245" y="202"/><text text-anchor="middle" fill="#333" x="280" y="222">13-01</text><g transform="translate(245,242)"><g><a target="_top" xlink:href="dtp-sliceTagAsset-step5605201-ofs0-col3-cat0.html"><rect style="display:none" class="hcell-act-col3-cat0" fill="#777" stroke="#000" stroke-width="5" width="70" height="94" x="0" y="5" rx="8" ry="8"/><rect class="hcell-col3-cat0" fill="#777" stroke="#DDD" width="70" height="104" x="0" y="0" rx="8" ry="8"/><text text-anchor="middle" fill="#FFF" x="35" y="20">-7064</text></a></g></g></g><g><g transform="translate(325,192)"><g><a target="_top" xlink:href="dtp-sliceTagAsset-step5605201-ofs0-col4-cat0.html"><rect style="display:none" class="hcell-act-col4-cat0" fill="#777" stroke="#000" stroke-width="5" width="70" height="145" x="0" y="-150" rx="8" ry="8"/><rect class="hcell-col4-cat0" fill="#777" stroke="#DDD" width="70" height="155" x="0" y="-155" rx="8" ry="8"/><text text-anchor="middle" fill="#FFF" x="35" y="-135">10558</text></a></g></g><rect fill="none" stroke="#DDD" width="70" height="30" rx="8" ry="8" x="325" y="202"/><text text-anchor="middle" fill="#333" x="360" y="222">13-03</text><g transform="translate(325,242)"><g><a target="_top" xlink:href="dtp-sliceTagAsset-step5605201-ofs0-col4-cat0.html"><rect style="display:none" class="hcell-act-col4-cat0" fill="#777" stroke="#000" stroke-width="5" width="70" height="97" x="0" y="5" rx="8" ry="8"/><rect class="hcell-col4-cat0" fill="#777" stroke="#DDD" width="70" height="107" x="0" y="0" rx="8" ry="8"/><text text-anchor="middle" fill="#FFF" x="35" y="20">-7274</text></a></g></g></g><g><g transform="translate(405,192)"><g><a target="_top" xlink:href="dtp-sliceTagAsset-step5605201-ofs0-col5-cat0.html"><rect style="display:none" class="hcell-act-col5-cat0" fill="#777" stroke="#000" stroke-width="5" width="70" height="104" x="0" y="-109" rx="8" ry="8"/><rect class="hcell-col5-cat0" fill="#777" stroke="#DDD" width="70" height="114" x="0" y="-114" rx="8" ry="8"/><text text-anchor="middle" fill="#FFF" x="35" y="-94">7779</text></a></g></g><rect fill="none" stroke="#DDD" width="70" height="30" rx="8" ry="8" x="405" y="202"/><text text-anchor="middle" fill="#333" x="440" y="222">13-05</text><g transform="translate(405,242)"><g><a target="_top" xlink:href="dtp-sliceTagAsset-step5605201-ofs0-col5-cat0.html"><rect style="display:none" class="hcell-act-col5-cat0" fill="#777" stroke="#000" stroke-width="5" width="70" height="178" x="0" y="5" rx="8" ry="8"/><rect class="hcell-col5-cat0" fill="#777" stroke="#DDD" width="70" height="188" x="0" y="0" rx="8" ry="8"/><text text-anchor="middle" fill="#FFF" x="35" y="20">-12773</text></a></g></g></g><g><g transform="translate(485,192)"><g><a target="_top" xlink:href="dtp-sliceTagAsset-step5605201-ofs0-col6-cat0.html"><rect style="display:none" class="hcell-act-col6-cat0" fill="#777" stroke="#000" stroke-width="5" width="70" height="95" x="0" y="-100" rx="8" ry="8"/><rect class="hcell-col6-cat0" fill="#777" stroke="#DDD" width="70" height="105" x="0" y="-105" rx="8" ry="8"/><text text-anchor="middle" fill="#FFF" x="35" y="-85">7124</text></a></g></g><rect fill="none" stroke="#DDD" width="70" height="30" rx="8" ry="8" x="485" y="202"/><text text-anchor="middle" fill="#333" x="520" y="222">13-07</text><g transform="translate(485,242)"><g><a target="_top" xlink:href="dtp-sliceTagAsset-step5605201-ofs0-col6-cat0.html"><rect style="display:none" class="hcell-act-col6-cat0" fill="#777" stroke="#000" stroke-width="5" width="70" height="54" x="0" y="5" rx="8" ry="8"/><rect class="hcell-col6-cat0" fill="#777" stroke="#DDD" width="70" height="64" x="0" y="0" rx="8" ry="8"/><text text-anchor="middle" fill="#FFF" x="35" y="20">-4379</text></a></g></g></g><g><g transform="translate(565,192)"><g><a target="_top" xlink:href="dtp-sliceTagAsset-step5605201-ofs0-col7-cat0.html"><rect style="display:none" class="hcell-act-col7-cat0" fill="#777" stroke="#000" stroke-width="5" width="70" height="101" x="0" y="-106" rx="8" ry="8"/><rect class="hcell-col7-cat0" fill="#777" stroke="#DDD" width="70" height="111" x="0" y="-111" rx="8" ry="8"/><text text-anchor="middle" fill="#FFF" x="35" y="-91">7531</text></a></g></g><rect fill="none" stroke="#DDD" width="70" height="30" rx="8" ry="8" x="565" y="202"/><text text-anchor="middle" fill="#333" x="600" y="222">13-09</text><g transform="translate(565,242)"><g><a target="_top" xlink:href="dtp-sliceTagAsset-step5605201-ofs0-col7-cat0.html"><rect style="display:none" class="hcell-act-col7-cat0" fill="#777" stroke="#000" stroke-width="5" width="70" height="90" x="0" y="5" rx="8" ry="8"/><rect class="hcell-col7-cat0" fill="#777" stroke="#DDD" width="70" height="100" x="0" y="0" rx="8" ry="8"/><text text-anchor="middle" fill="#FFF" x="35" y="20">-6812</text></a></g></g></g><g><g transform="translate(645,192)"><g><a target="_top" xlink:href="dtp-sliceTagAsset-step5605201-ofs0-col8-cat0.html"><rect style="display:none" class="hcell-act-col8-cat0" fill="#777" stroke="#000" stroke-width="5" width="70" height="108" x="0" y="-113" rx="8" ry="8"/><rect class="hcell-col8-cat0" fill="#777" stroke="#DDD" width="70" height="118" x="0" y="-118" rx="8" ry="8"/><text text-anchor="middle" fill="#FFF" x="35" y="-98">7998</text></a></g></g><rect fill="none" stroke="#DDD" width="70" height="30" rx="8" ry="8" x="645" y="202"/><text text-anchor="middle" fill="#333" x="680" y="222">13-12</text><g transform="translate(645,242)"><g><a target="_top" xlink:href="dtp-sliceTagAsset-step5605201-ofs0-col8-cat0.html"><rect style="display:none" class="hcell-act-col8-cat0" fill="#777" stroke="#000" stroke-width="5" width="70" height="122" x="0" y="5" rx="8" ry="8"/><rect class="hcell-col8-cat0" fill="#777" stroke="#DDD" width="70" height="132" x="0" y="0" rx="8" ry="8"/><text text-anchor="middle" fill="#FFF" x="35" y="20">-8963</text></a></g></g></g><g><g transform="translate(725,192)"><g><a target="_top" xlink:href="dtp-sliceTagAsset-step5605201-ofs0-col9-cat0.html"><rect style="display:none" class="hcell-act-col9-cat0" fill="#777" stroke="#000" stroke-width="5" width="70" height="162" x="0" y="-167" rx="8" ry="8"/><rect class="hcell-col9-cat0" fill="#777" stroke="#DDD" width="70" height="172" x="0" y="-172" rx="8" ry="8"/><text text-anchor="middle" fill="#FFF" x="35" y="-152">11655</text></a></g></g><rect fill="none" stroke="#DDD" width="70" height="30" rx="8" ry="8" x="725" y="202"/><text text-anchor="middle" fill="#333" x="760" y="222">14-02</text><g transform="translate(725,242)"><g><a target="_top" xlink:href="dtp-sliceTagAsset-step5605201-ofs0-col9-cat0.html"><rect style="display:none" class="hcell-act-col9-cat0" fill="#777" stroke="#000" stroke-width="5" width="70" height="186" x="0" y="5" rx="8" ry="8"/><rect class="hcell-col9-cat0" fill="#777" stroke="#DDD" width="70" height="196" x="0" y="0" rx="8" ry="8"/><text text-anchor="middle" fill="#FFF" x="35" y="20">-13317</text></a></g></g></g><g><g transform="translate(805,192)"><g><a target="_top" xlink:href="dtp-sliceTagAsset-step5605201-ofs0-col10-cat0.html"><rect style="display:none" class="hcell-act-col10-cat0" fill="#777" stroke="#000" stroke-width="5" width="70" height="177" x="0" y="-182" rx="8" ry="8"/><rect class="hcell-col10-cat0" fill="#777" stroke="#DDD" width="70" height="187" x="0" y="-187" rx="8" ry="8"/><text text-anchor="middle" fill="#FFF" x="35" y="-167">12684</text></a></g></g><rect fill="none" stroke="#DDD" width="70" height="30" rx="8" ry="8" x="805" y="202"/><text text-anchor="middle" fill="#333" x="840" y="222">14-04</text><g transform="translate(805,242)"><g><a target="_top" xlink:href="dtp-sliceTagAsset-step5605201-ofs0-col10-cat0.html"><rect style="display:none" class="hcell-act-col10-cat0" fill="#777" stroke="#000" stroke-width="5" width="70" height="160" x="0" y="5" rx="8" ry="8"/><rect class="hcell-col10-cat0" fill="#777" stroke="#DDD" width="70" height="170" x="0" y="0" rx="8" ry="8"/><text text-anchor="middle" fill="#FFF" x="35" y="20">-11538</text></a></g></g></g><g><g transform="translate(885,192)"><g><a target="_top" xlink:href="dtp-sliceTagAsset-step5605201-ofs0-col11-cat0.html"><rect style="display:none" class="hcell-act-col11-cat0" fill="#777" stroke="#000" stroke-width="5" width="70" height="133" x="0" y="-138" rx="8" ry="8"/><rect class="hcell-col11-cat0" fill="#777" stroke="#DDD" width="70" height="143" x="0" y="-143" rx="8" ry="8"/><text text-anchor="middle" fill="#FFF" x="35" y="-123">9720</text></a></g></g><rect fill="none" stroke="#DDD" width="70" height="30" rx="8" ry="8" x="885" y="202"/><text text-anchor="middle" fill="#333" x="920" y="222">14-06</text><g transform="translate(885,242)"><g><a target="_top" xlink:href="dtp-sliceTagAsset-step5605201-ofs0-col11-cat0.html"><rect style="display:none" class="hcell-act-col11-cat0" fill="#777" stroke="#000" stroke-width="5" width="70" height="118" x="0" y="5" rx="8" ry="8"/><rect class="hcell-col11-cat0" fill="#777" stroke="#DDD" width="70" height="128" x="0" y="0" rx="8" ry="8"/><text text-anchor="middle" fill="#FFF" x="35" y="20">-8667</text></a></g></g></g><g><g transform="translate(965,192)"><g><a target="_top" xlink:href="dtp-sliceTagAsset-step5605201-ofs0-col12-cat0.html"><rect style="display:none" class="hcell-act-col12-cat0" fill="#777" stroke="#000" stroke-width="5" width="70" height="142" x="0" y="-147" rx="8" ry="8"/><rect class="hcell-col12-cat0" fill="#777" stroke="#DDD" width="70" height="152" x="0" y="-152" rx="8" ry="8"/><text text-anchor="middle" fill="#FFF" x="35" y="-132">10326</text></a></g></g><rect fill="none" stroke="#DDD" width="70" height="30" rx="8" ry="8" x="965" y="202"/><text text-anchor="middle" fill="#333" x="1000" y="222">14-08</text><g transform="translate(965,242)"><g><a target="_top" xlink:href="dtp-sliceTagAsset-step5605201-ofs0-col12-cat0.html"><rect style="display:none" class="hcell-act-col12-cat0" fill="#777" stroke="#000" stroke-width="5" width="70" height="202" x="0" y="5" rx="8" ry="8"/><rect class="hcell-col12-cat0" fill="#777" stroke="#DDD" width="70" height="212" x="0" y="0" rx="8" ry="8"/><text text-anchor="middle" fill="#FFF" x="35" y="20">-14394</text></a></g></g></g><g><g transform="translate(1045,192)"><g><a target="_top" xlink:href="dtp-sliceTagAsset-step5605201-ofs0-col13-cat0.html"><rect style="display:none" class="hcell-act-col13-cat0" fill="#777" stroke="#000" stroke-width="5" width="70" height="94" x="0" y="-99" rx="8" ry="8"/><rect class="hcell-col13-cat0" fill="#777" stroke="#DDD" width="70" height="104" x="0" y="-104" rx="8" ry="8"/><text text-anchor="middle" fill="#FFF" x="35" y="-84">7060</text></a></g></g><rect fill="none" stroke="#DDD" width="70" height="30" rx="8" ry="8" x="1045" y="202"/><text text-anchor="middle" fill="#333" x="1080" y="222">14-10</text><g transform="translate(1045,242)"><g><a target="_top" xlink:href="dtp-sliceTagAsset-step5605201-ofs0-col13-cat0.html"><rect style="display:none" class="hcell-act-col13-cat0" fill="#777" stroke="#000" stroke-width="5" width="70" height="115" x="0" y="5" rx="8" ry="8"/><rect class="hcell-col13-cat0" fill="#777" stroke="#DDD" width="70" height="125" x="0" y="0" rx="8" ry="8"/><text text-anchor="middle" fill="#FFF" x="35" y="20">-8527</text></a></g></g></g><g><g transform="translate(1125,192)"><g><a target="_top" xlink:href="dtp-sliceTagAsset-step5605201-ofs0-col14-cat0.html"><rect style="display:none" class="hcell-act-col14-cat0" fill="#777" stroke="#000" stroke-width="5" width="70" height="167" x="0" y="-172" rx="8" ry="8"/><rect class="hcell-col14-cat0" fill="#777" stroke="#DDD" width="70" height="177" x="0" y="-177" rx="8" ry="8"/><text text-anchor="middle" fill="#FFF" x="35" y="-157">12016</text></a></g></g><rect fill="none" stroke="#DDD" width="70" height="30" rx="8" ry="8" x="1125" y="202"/><text text-anchor="middle" fill="#333" x="1160" y="222">14-12</text><g transform="translate(1125,242)"><g><a target="_top" xlink:href="dtp-sliceTagAsset-step5605201-ofs0-col14-cat0.html"><rect style="display:none" class="hcell-act-col14-cat0" fill="#777" stroke="#000" stroke-width="5" width="70" height="194" x="0" y="5" rx="8" ry="8"/><rect class="hcell-col14-cat0" fill="#777" stroke="#DDD" width="70" height="204" x="0" y="0" rx="8" ry="8"/><text text-anchor="middle" fill="#FFF" x="35" y="20">-13877</text></a></g></g></g><g><g transform="translate(1205,192)"><g><a target="_top" xlink:href="dtp-sliceTagAsset-step5605201-ofs0-col15-cat0.html"><rect style="display:none" class="hcell-act-col15-cat0" fill="#777" stroke="#000" stroke-width="5" width="70" height="163" x="0" y="-168" rx="8" ry="8"/><rect class="hcell-col15-cat0" fill="#777" stroke="#DDD" width="70" height="173" x="0" y="-173" rx="8" ry="8"/><text text-anchor="middle" fill="#FFF" x="35" y="-153">11747</text></a></g></g><rect fill="none" stroke="#DDD" width="70" height="30" rx="8" ry="8" x="1205" y="202"/><text text-anchor="middle" fill="#333" x="1240" y="222">15-03</text><g transform="translate(1205,242)"><g><a target="_top" xlink:href="dtp-sliceTagAsset-step5605201-ofs0-col15-cat0.html"><rect style="display:none" class="hcell-act-col15-cat0" fill="#777" stroke="#000" stroke-width="5" width="70" height="159" x="0" y="5" rx="8" ry="8"/><rect class="hcell-col15-cat0" fill="#777" stroke="#DDD" width="70" height="169" x="0" y="0" rx="8" ry="8"/><text text-anchor="middle" fill="#FFF" x="35" y="20">-11462</text></a></g></g></g></svg>