<svg xmlns="http://www.w3.org/2000/svg" xmlns:xlink="http://www.w3.org/1999/xlink" width="100%" height="100%" viewBox="0 0 1280 459"><g><g transform="translate(5,370)"><g><a target="_top" xlink:href="dtp-sliceTagAwsGiftAcc-step2628000-ofs0-col0-cat0.html"><rect style="display:none" class="hcell-act-col0-cat0" fill="#777" stroke="#000" stroke-width="5" width="70" height="355" x="0" y="-360" rx="8" ry="8"/><rect class="hcell-col0-cat0" fill="#777" stroke="#DDD" width="70" height="365" x="0" y="-365" rx="8" ry="8"/><text text-anchor="middle" fill="#FFF" x="35" y="-345">500</text></a></g></g><rect fill="none" stroke="#DDD" width="70" height="30" rx="8" ry="8" x="5" y="380"/><text text-anchor="middle" fill="#333" x="40" y="400">12-07</text><g transform="translate(5,420)"><g><a target="_top" xlink:href="dtp-sliceTagAwsGiftAcc-step2628000-ofs0-col0-cat0.html"><rect style="display:none" class="hcell-act-col0-cat0" fill="#777" stroke="#000" stroke-width="5" width="70" height="20" x="0" y="5" rx="8" ry="8"/><rect class="hcell-col0-cat0" fill="#777" stroke="#DDD" width="70" height="30" x="0" y="0" rx="8" ry="8"/><text text-anchor="middle" fill="#FFF" x="35" y="20">-39</text></a></g></g></g><g><g transform="translate(85,370)"></g><rect fill="none" stroke="#DDD" width="70" height="30" rx="8" ry="8" x="85" y="380"/><text text-anchor="middle" fill="#333" x="120" y="400">12-08</text><g transform="translate(85,420)"><g><a target="_top" xlink:href="dtp-sliceTagAwsGiftAcc-step2628000-ofs0-col1-cat0.html"><rect style="display:none" class="hcell-act-col1-cat0" fill="#777" stroke="#000" stroke-width="5" width="70" height="20" x="0" y="5" rx="8" ry="8"/><rect class="hcell-col1-cat0" fill="#777" stroke="#DDD" width="70" height="30" x="0" y="0" rx="8" ry="8"/><text text-anchor="middle" fill="#FFF" x="35" y="20">-10</text></a></g></g></g><g><g transform="translate(165,370)"></g><rect fill="none" stroke="#DDD" width="70" height="30" rx="8" ry="8" x="165" y="380"/><text text-anchor="middle" fill="#333" x="200" y="400">12-08</text><g transform="translate(165,420)"></g></g><g><g transform="translate(245,370)"></g><rect fill="none" stroke="#DDD" width="70" height="30" rx="8" ry="8" x="245" y="380"/><text text-anchor="middle" fill="#333" x="280" y="400">12-10</text><g transform="translate(245,420)"><g><a target="_top" xlink:href="dtp-sliceTagAwsGiftAcc-step2628000-ofs0-col3-cat0.html"><rect style="display:none" class="hcell-act-col3-cat0" fill="#777" stroke="#000" stroke-width="5" width="70" height="20" x="0" y="5" rx="8" ry="8"/><rect class="hcell-col3-cat0" fill="#777" stroke="#DDD" width="70" height="30" x="0" y="0" rx="8" ry="8"/><text text-anchor="middle" fill="#FFF" x="35" y="20">-18</text></a></g></g></g><g><g transform="translate(325,370)"></g><rect fill="none" stroke="#DDD" width="70" height="30" rx="8" ry="8" x="325" y="380"/><text text-anchor="middle" fill="#333" x="360" y="400">12-10</text><g transform="translate(325,420)"><g><a target="_top" xlink:href="dtp-sliceTagAwsGiftAcc-step2628000-ofs0-col4-cat0.html"><rect style="display:none" class="hcell-act-col4-cat0" fill="#777" stroke="#000" stroke-width="5" width="70" height="20" x="0" y="5" rx="8" ry="8"/><rect class="hcell-col4-cat0" fill="#777" stroke="#DDD" width="70" height="30" x="0" y="0" rx="8" ry="8"/><text text-anchor="middle" fill="#FFF" x="35" y="20">-10</text></a></g></g></g><g><g transform="translate(405,370)"></g><rect fill="none" stroke="#DDD" width="70" height="30" rx="8" ry="8" x="405" y="380"/><text text-anchor="middle" fill="#333" x="440" y="400">12-12</text><g transform="translate(405,420)"><g><a target="_top" xlink:href="dtp-sliceTagAwsGiftAcc-step2628000-ofs0-col5-cat0.html"><rect style="display:none" class="hcell-act-col5-cat0" fill="#777" stroke="#000" stroke-width="5" width="70" height="20" x="0" y="5" rx="8" ry="8"/><rect class="hcell-col5-cat0" fill="#777" stroke="#DDD" width="70" height="30" x="0" y="0" rx="8" ry="8"/><text text-anchor="middle" fill="#FFF" x="35" y="20">-6</text></a></g></g></g><g><g transform="translate(485,370)"></g><rect fill="none" stroke="#DDD" width="70" height="30" rx="8" ry="8" x="485" y="380"/><text text-anchor="middle" fill="#333" x="520" y="400">12-12</text><g transform="translate(485,420)"><g><a target="_top" xlink:href="dtp-sliceTagAwsGiftAcc-step2628000-ofs0-col6-cat0.html"><rect style="display:none" class="hcell-act-col6-cat0" fill="#777" stroke="#000" stroke-width="5" width="70" height="22" x="0" y="5" rx="8" ry="8"/><rect class="hcell-col6-cat0" fill="#777" stroke="#DDD" width="70" height="32" x="0" y="0" rx="8" ry="8"/><text text-anchor="middle" fill="#FFF" x="35" y="20">-45</text></a></g></g></g><g><g transform="translate(565,370)"></g><rect fill="none" stroke="#DDD" width="70" height="30" rx="8" ry="8" x="565" y="380"/><text text-anchor="middle" fill="#333" x="600" y="400">13-01</text><g transform="translate(565,420)"><g><a target="_top" xlink:href="dtp-sliceTagAwsGiftAcc-step2628000-ofs0-col7-cat0.html"><rect style="display:none" class="hcell-act-col7-cat0" fill="#777" stroke="#000" stroke-width="5" width="70" height="20" x="0" y="5" rx="8" ry="8"/><rect class="hcell-col7-cat0" fill="#777" stroke="#DDD" width="70" height="30" x="0" y="0" rx="8" ry="8"/><text text-anchor="middle" fill="#FFF" x="35" y="20">-30</text></a></g></g></g><g><g transform="translate(645,370)"></g><rect fill="none" stroke="#DDD" width="70" height="30" rx="8" ry="8" x="645" y="380"/><text text-anchor="middle" fill="#333" x="680" y="400">13-03</text><g transform="translate(645,420)"><g><a target="_top" xlink:href="dtp-sliceTagAwsGiftAcc-step2628000-ofs0-col8-cat0.html"><rect style="display:none" class="hcell-act-col8-cat0" fill="#777" stroke="#000" stroke-width="5" width="70" height="20" x="0" y="5" rx="8" ry="8"/><rect class="hcell-col8-cat0" fill="#777" stroke="#DDD" width="70" height="30" x="0" y="0" rx="8" ry="8"/><text text-anchor="middle" fill="#FFF" x="35" y="20">-29</text></a></g></g></g><g><g transform="translate(725,370)"></g><rect fill="none" stroke="#DDD" width="70" height="30" rx="8" ry="8" x="725" y="380"/><text text-anchor="middle" fill="#333" x="760" y="400">13-04</text><g transform="translate(725,420)"><g><a target="_top" xlink:href="dtp-sliceTagAwsGiftAcc-step2628000-ofs0-col9-cat0.html"><rect style="display:none" class="hcell-act-col9-cat0" fill="#777" stroke="#000" stroke-width="5" width="70" height="20" x="0" y="5" rx="8" ry="8"/><rect class="hcell-col9-cat0" fill="#777" stroke="#DDD" width="70" height="30" x="0" y="0" rx="8" ry="8"/><text text-anchor="middle" fill="#FFF" x="35" y="20">-20</text></a></g></g></g><g><g transform="translate(805,370)"></g><rect fill="none" stroke="#DDD" width="70" height="30" rx="8" ry="8" x="805" y="380"/><text text-anchor="middle" fill="#333" x="840" y="400">13-05</text><g transform="translate(805,420)"><g><a target="_top" xlink:href="dtp-sliceTagAwsGiftAcc-step2628000-ofs0-col10-cat0.html"><rect style="display:none" class="hcell-act-col10-cat0" fill="#777" stroke="#000" stroke-width="5" width="70" height="20" x="0" y="5" rx="8" ry="8"/><rect class="hcell-col10-cat0" fill="#777" stroke="#DDD" width="70" height="30" x="0" y="0" rx="8" ry="8"/><text text-anchor="middle" fill="#FFF" x="35" y="20">-7</text></a></g></g></g><g><g transform="translate(885,370)"></g><rect fill="none" stroke="#DDD" width="70" height="30" rx="8" ry="8" x="885" y="380"/><text text-anchor="middle" fill="#333" x="920" y="400">13-06</text><g transform="translate(885,420)"></g></g><g><g transform="translate(965,370)"></g><rect fill="none" stroke="#DDD" width="70" height="30" rx="8" ry="8" x="965" y="380"/><text text-anchor="middle" fill="#333" x="1000" y="400">13-07</text><g transform="translate(965,420)"><g><a target="_top" xlink:href="dtp-sliceTagAwsGiftAcc-step2628000-ofs0-col12-cat0.html"><rect style="display:none" class="hcell-act-col12-cat0" fill="#777" stroke="#000" stroke-width="5" width="70" height="20" x="0" y="5" rx="8" ry="8"/><rect class="hcell-col12-cat0" fill="#777" stroke="#DDD" width="70" height="30" x="0" y="0" rx="8" ry="8"/><text text-anchor="middle" fill="#FFF" x="35" y="20">-8</text></a></g></g></g><g><g transform="translate(1045,370)"></g><rect fill="none" stroke="#DDD" width="70" height="30" rx="8" ry="8" x="1045" y="380"/><text text-anchor="middle" fill="#333" x="1080" y="400">13-08</text><g transform="translate(1045,420)"><g><a target="_top" xlink:href="dtp-sliceTagAwsGiftAcc-step2628000-ofs0-col13-cat0.html"><rect style="display:none" class="hcell-act-col13-cat0" fill="#777" stroke="#000" stroke-width="5" width="70" height="20" x="0" y="5" rx="8" ry="8"/><rect class="hcell-col13-cat0" fill="#777" stroke="#DDD" width="70" height="30" x="0" y="0" rx="8" ry="8"/><text text-anchor="middle" fill="#FFF" x="35" y="20">-27</text></a></g></g></g><g><g transform="translate(1125,370)"></g><rect fill="none" stroke="#DDD" width="70" height="30" rx="8" ry="8" x="1125" y="380"/><text text-anchor="middle" fill="#333" x="1160" y="400">13-08</text><g transform="translate(1125,420)"><g><a target="_top" xlink:href="dtp-sliceTagAwsGiftAcc-step2628000-ofs0-col14-cat0.html"><rect style="display:none" class="hcell-act-col14-cat0" fill="#777" stroke="#000" stroke-width="5" width="70" height="24" x="0" y="5" rx="8" ry="8"/><rect class="hcell-col14-cat0" fill="#777" stroke="#DDD" width="70" height="34" x="0" y="0" rx="8" ry="8"/><text text-anchor="middle" fill="#FFF" x="35" y="20">-48</text></a></g></g></g><g><g transform="translate(1205,370)"></g><rect fill="none" stroke="#DDD" width="70" height="30" rx="8" ry="8" x="1205" y="380"/><text text-anchor="middle" fill="#333" x="1240" y="400">13-10</text><g transform="translate(1205,420)"><g><a target="_top" xlink:href="dtp-sliceTagAwsGiftAcc-step2628000-ofs0-col15-cat0.html"><rect style="display:none" class="hcell-act-col15-cat0" fill="#777" stroke="#000" stroke-width="5" width="70" height="20" x="0" y="5" rx="8" ry="8"/><rect class="hcell-col15-cat0" fill="#777" stroke="#DDD" width="70" height="30" x="0" y="0" rx="8" ry="8"/><text text-anchor="middle" fill="#FFF" x="35" y="20">-18</text></a></g></g></g></svg>