<svg xmlns="http://www.w3.org/2000/svg" xmlns:xlink="http://www.w3.org/1999/xlink" width="100%" height="100%" viewBox="0 0 1280 459"><g><g transform="translate(5,163)"></g><rect fill="none" stroke="#DDD" width="70" height="30" rx="8" ry="8" x="5" y="173"/><text text-anchor="middle" fill="#333" x="40" y="193">14-01</text><g transform="translate(5,213)"><g><a target="_top" xlink:href="dtp-sliceTagVisa8394-step2628000-ofs19-col19-cat0.html"><rect style="display:none" class="hcell-act-col19-cat0" fill="#777" stroke="#000" stroke-width="5" width="70" height="33" x="0" y="5" rx="8" ry="8"/><rect class="hcell-col19-cat0" fill="#777" stroke="#DDD" width="70" height="43" x="0" y="0" rx="8" ry="8"/><text text-anchor="middle" fill="#FFF" x="35" y="20">-349</text></a></g></g></g><g><g transform="translate(85,163)"></g><rect fill="none" stroke="#DDD" width="70" height="30" rx="8" ry="8" x="85" y="173"/><text text-anchor="middle" fill="#333" x="120" y="193">14-03</text><g transform="translate(85,213)"><g><a target="_top" xlink:href="dtp-sliceTagVisa8394-step2628000-ofs19-col20-cat0.html"><rect style="display:none" class="hcell-act-col20-cat0" fill="#777" stroke="#000" stroke-width="5" width="70" height="45" x="0" y="5" rx="8" ry="8"/><rect class="hcell-col20-cat0" fill="#777" stroke="#DDD" width="70" height="55" x="0" y="0" rx="8" ry="8"/><text text-anchor="middle" fill="#FFF" x="35" y="20">-446</text></a></g></g></g><g><g transform="translate(165,163)"><g><a target="_top" xlink:href="dtp-sliceTagVisa8394-step2628000-ofs19-col21-cat0.html"><rect style="display:none" class="hcell-act-col21-cat0" fill="#777" stroke="#000" stroke-width="5" width="70" height="107" x="0" y="-112" rx="8" ry="8"/><rect class="hcell-col21-cat0" fill="#777" stroke="#DDD" width="70" height="117" x="0" y="-117" rx="8" ry="8"/><text text-anchor="middle" fill="#FFF" x="35" y="-97">938</text></a></g></g><rect fill="none" stroke="#DDD" width="70" height="30" rx="8" ry="8" x="165" y="173"/><text text-anchor="middle" fill="#333" x="200" y="193">14-04</text><g transform="translate(165,213)"><g><a target="_top" xlink:href="dtp-sliceTagVisa8394-step2628000-ofs19-col21-cat0.html"><rect style="display:none" class="hcell-act-col21-cat0" fill="#777" stroke="#000" stroke-width="5" width="70" height="51" x="0" y="5" rx="8" ry="8"/><rect class="hcell-col21-cat0" fill="#777" stroke="#DDD" width="70" height="61" x="0" y="0" rx="8" ry="8"/><text text-anchor="middle" fill="#FFF" x="35" y="20">-495</text></a></g></g></g><g><g transform="translate(245,163)"></g><rect fill="none" stroke="#DDD" width="70" height="30" rx="8" ry="8" x="245" y="173"/><text text-anchor="middle" fill="#333" x="280" y="193">14-05</text><g transform="translate(245,213)"><g><a target="_top" xlink:href="dtp-sliceTagVisa8394-step2628000-ofs19-col22-cat0.html"><rect style="display:none" class="hcell-act-col22-cat0" fill="#777" stroke="#000" stroke-width="5" width="70" height="231" x="0" y="5" rx="8" ry="8"/><rect class="hcell-col22-cat0" fill="#777" stroke="#DDD" width="70" height="241" x="0" y="0" rx="8" ry="8"/><text text-anchor="middle" fill="#FFF" x="35" y="20">-1932</text></a></g></g></g><g><g transform="translate(325,163)"><g><a target="_top" xlink:href="dtp-sliceTagVisa8394-step2628000-ofs19-col23-cat0.html"><rect style="display:none" class="hcell-act-col23-cat0" fill="#777" stroke="#000" stroke-width="5" width="70" height="148" x="0" y="-153" rx="8" ry="8"/><rect class="hcell-col23-cat0" fill="#777" stroke="#DDD" width="70" height="158" x="0" y="-158" rx="8" ry="8"/><text text-anchor="middle" fill="#FFF" x="35" y="-138">1267</text></a></g></g><rect fill="none" stroke="#DDD" width="70" height="30" rx="8" ry="8" x="325" y="173"/><text text-anchor="middle" fill="#333" x="360" y="193">14-06</text><g transform="translate(325,213)"><g><a target="_top" xlink:href="dtp-sliceTagVisa8394-step2628000-ofs19-col23-cat0.html"><rect style="display:none" class="hcell-act-col23-cat0" fill="#777" stroke="#000" stroke-width="5" width="70" height="84" x="0" y="5" rx="8" ry="8"/><rect class="hcell-col23-cat0" fill="#777" stroke="#DDD" width="70" height="94" x="0" y="0" rx="8" ry="8"/><text text-anchor="middle" fill="#FFF" x="35" y="20">-755</text></a></g></g></g><g><g transform="translate(405,163)"></g><rect fill="none" stroke="#DDD" width="70" height="30" rx="8" ry="8" x="405" y="173"/><text text-anchor="middle" fill="#333" x="440" y="193">14-07</text><g transform="translate(405,213)"><g><a target="_top" xlink:href="dtp-sliceTagVisa8394-step2628000-ofs19-col24-cat0.html"><rect style="display:none" class="hcell-act-col24-cat0" fill="#777" stroke="#000" stroke-width="5" width="70" height="27" x="0" y="5" rx="8" ry="8"/><rect class="hcell-col24-cat0" fill="#777" stroke="#DDD" width="70" height="37" x="0" y="0" rx="8" ry="8"/><text text-anchor="middle" fill="#FFF" x="35" y="20">-300</text></a></g></g></g><g><g transform="translate(485,163)"></g><rect fill="none" stroke="#DDD" width="70" height="30" rx="8" ry="8" x="485" y="173"/><text text-anchor="middle" fill="#333" x="520" y="193">14-08</text><g transform="translate(485,213)"></g></g><g><g transform="translate(565,163)"></g><rect fill="none" stroke="#DDD" width="70" height="30" rx="8" ry="8" x="565" y="173"/><text text-anchor="middle" fill="#333" x="600" y="193">14-08</text><g transform="translate(565,213)"></g></g><g><g transform="translate(645,163)"></g><rect fill="none" stroke="#DDD" width="70" height="30" rx="8" ry="8" x="645" y="173"/><text text-anchor="middle" fill="#333" x="680" y="193">14-10</text><g transform="translate(645,213)"></g></g><g><g transform="translate(725,163)"></g><rect fill="none" stroke="#DDD" width="70" height="30" rx="8" ry="8" x="725" y="173"/><text text-anchor="middle" fill="#333" x="760" y="193">14-10</text><g transform="translate(725,213)"></g></g><g><g transform="translate(805,163)"></g><rect fill="none" stroke="#DDD" width="70" height="30" rx="8" ry="8" x="805" y="173"/><text text-anchor="middle" fill="#333" x="840" y="193">14-12</text><g transform="translate(805,213)"></g></g><g><g transform="translate(885,163)"></g><rect fill="none" stroke="#DDD" width="70" height="30" rx="8" ry="8" x="885" y="173"/><text text-anchor="middle" fill="#333" x="920" y="193">14-12</text><g transform="translate(885,213)"></g></g><g><g transform="translate(965,163)"></g><rect fill="none" stroke="#DDD" width="70" height="30" rx="8" ry="8" x="965" y="173"/><text text-anchor="middle" fill="#333" x="1000" y="193">15-01</text><g transform="translate(965,213)"></g></g><g><g transform="translate(1045,163)"></g><rect fill="none" stroke="#DDD" width="70" height="30" rx="8" ry="8" x="1045" y="173"/><text text-anchor="middle" fill="#333" x="1080" y="193">15-03</text><g transform="translate(1045,213)"></g></g><g><g transform="translate(1125,163)"></g><rect fill="none" stroke="#DDD" width="70" height="30" rx="8" ry="8" x="1125" y="173"/><text text-anchor="middle" fill="#333" x="1160" y="193">15-04</text><g transform="translate(1125,213)"></g></g><g><g transform="translate(1205,163)"></g><rect fill="none" stroke="#DDD" width="70" height="30" rx="8" ry="8" x="1205" y="173"/><text text-anchor="middle" fill="#333" x="1240" y="193">15-05</text><g transform="translate(1205,213)"></g></g></svg>