<svg xmlns="http://www.w3.org/2000/svg" xmlns:xlink="http://www.w3.org/1999/xlink" width="100%" height="100%" viewBox="0 0 1280 459"><g><g transform="translate(5,50)"></g><rect fill="none" stroke="#DDD" width="70" height="30" rx="8" ry="8" x="5" y="60"/><text text-anchor="middle" fill="#333" x="40" y="80">14-01</text><g transform="translate(5,100)"></g></g><g><g transform="translate(85,50)"></g><rect fill="none" stroke="#DDD" width="70" height="30" rx="8" ry="8" x="85" y="60"/><text text-anchor="middle" fill="#333" x="120" y="80">14-03</text><g transform="translate(85,100)"></g></g><g><g transform="translate(165,50)"></g><rect fill="none" stroke="#DDD" width="70" height="30" rx="8" ry="8" x="165" y="60"/><text text-anchor="middle" fill="#333" x="200" y="80">14-04</text><g transform="translate(165,100)"></g></g><g><g transform="translate(245,50)"></g><rect fill="none" stroke="#DDD" width="70" height="30" rx="8" ry="8" x="245" y="60"/><text text-anchor="middle" fill="#333" x="280" y="80">14-05</text><g transform="translate(245,100)"></g></g><g><g transform="translate(325,50)"></g><rect fill="none" stroke="#DDD" width="70" height="30" rx="8" ry="8" x="325" y="60"/><text text-anchor="middle" fill="#333" x="360" y="80">14-06</text><g transform="translate(325,100)"></g></g><g><g transform="translate(405,50)"></g><rect fill="none" stroke="#DDD" width="70" height="30" rx="8" ry="8" x="405" y="60"/><text text-anchor="middle" fill="#333" x="440" y="80">14-07</text><g transform="translate(405,100)"></g></g><g><g transform="translate(485,50)"></g><rect fill="none" stroke="#DDD" width="70" height="30" rx="8" ry="8" x="485" y="60"/><text text-anchor="middle" fill="#333" x="520" y="80">14-08</text><g transform="translate(485,100)"><g><a target="_top" xlink:href="dtp-sliceTagOther-step2628000-ofs19-col25-cat0.html"><rect style="display:none" class="hcell-act-col25-cat0" fill="#777" stroke="#000" stroke-width="5" width="70" height="181" x="0" y="5" rx="8" ry="8"/><rect class="hcell-col25-cat0" fill="#777" stroke="#DDD" width="70" height="191" x="0" y="0" rx="8" ry="8"/><text text-anchor="middle" fill="#FFF" x="35" y="20">-107</text></a></g></g></g><g><g transform="translate(565,50)"></g><rect fill="none" stroke="#DDD" width="70" height="30" rx="8" ry="8" x="565" y="60"/><text text-anchor="middle" fill="#333" x="600" y="80">14-08</text><g transform="translate(565,100)"><g><a target="_top" xlink:href="dtp-sliceTagOther-step2628000-ofs19-col26-cat0.html"><rect style="display:none" class="hcell-act-col26-cat0" fill="#777" stroke="#000" stroke-width="5" width="70" height="20" x="0" y="5" rx="8" ry="8"/><rect class="hcell-col26-cat0" fill="#777" stroke="#DDD" width="70" height="30" x="0" y="0" rx="8" ry="8"/><text text-anchor="middle" fill="#FFF" x="35" y="20">-14</text></a></g></g></g><g><g transform="translate(645,50)"><g><a target="_top" xlink:href="dtp-sliceTagOther-step2628000-ofs19-col27-cat0.html"><rect style="display:none" class="hcell-act-col27-cat0" fill="#777" stroke="#000" stroke-width="5" width="70" height="20" x="0" y="-25" rx="8" ry="8"/><rect class="hcell-col27-cat0" fill="#777" stroke="#DDD" width="70" height="30" x="0" y="-30" rx="8" ry="8"/><text text-anchor="middle" fill="#FFF" x="35" y="-10">5</text></a></g></g><rect fill="none" stroke="#DDD" width="70" height="30" rx="8" ry="8" x="645" y="60"/><text text-anchor="middle" fill="#333" x="680" y="80">14-10</text><g transform="translate(645,100)"></g></g><g><g transform="translate(725,50)"><g><a target="_top" xlink:href="dtp-sliceTagOther-step2628000-ofs19-col28-cat0.html"><rect style="display:none" class="hcell-act-col28-cat0" fill="#777" stroke="#000" stroke-width="5" width="70" height="20" x="0" y="-25" rx="8" ry="8"/><rect class="hcell-col28-cat0" fill="#777" stroke="#DDD" width="70" height="30" x="0" y="-30" rx="8" ry="8"/><text text-anchor="middle" fill="#FFF" x="35" y="-10">10</text></a></g></g><rect fill="none" stroke="#DDD" width="70" height="30" rx="8" ry="8" x="725" y="60"/><text text-anchor="middle" fill="#333" x="760" y="80">14-10</text><g transform="translate(725,100)"></g></g><g><g transform="translate(805,50)"></g><rect fill="none" stroke="#DDD" width="70" height="30" rx="8" ry="8" x="805" y="60"/><text text-anchor="middle" fill="#333" x="840" y="80">14-12</text><g transform="translate(805,100)"><g><a target="_top" xlink:href="dtp-sliceTagOther-step2628000-ofs19-col29-cat0.html"><rect style="display:none" class="hcell-act-col29-cat0" fill="#777" stroke="#000" stroke-width="5" width="70" height="344" x="0" y="5" rx="8" ry="8"/><rect class="hcell-col29-cat0" fill="#777" stroke="#DDD" width="70" height="354" x="0" y="0" rx="8" ry="8"/><text text-anchor="middle" fill="#FFF" x="35" y="20">-198</text></a></g></g></g><g><g transform="translate(885,50)"></g><rect fill="none" stroke="#DDD" width="70" height="30" rx="8" ry="8" x="885" y="60"/><text text-anchor="middle" fill="#333" x="920" y="80">14-12</text><g transform="translate(885,100)"><g><a target="_top" xlink:href="dtp-sliceTagOther-step2628000-ofs19-col30-cat0.html"><rect style="display:none" class="hcell-act-col30-cat0" fill="#777" stroke="#000" stroke-width="5" width="70" height="20" x="0" y="5" rx="8" ry="8"/><rect class="hcell-col30-cat0" fill="#777" stroke="#DDD" width="70" height="30" x="0" y="0" rx="8" ry="8"/><text text-anchor="middle" fill="#FFF" x="35" y="20">-12</text></a></g></g></g><g><g transform="translate(965,50)"></g><rect fill="none" stroke="#DDD" width="70" height="30" rx="8" ry="8" x="965" y="60"/><text text-anchor="middle" fill="#333" x="1000" y="80">15-01</text><g transform="translate(965,100)"><g><a target="_top" xlink:href="dtp-sliceTagOther-step2628000-ofs19-col31-cat0.html"><rect style="display:none" class="hcell-act-col31-cat0" fill="#777" stroke="#000" stroke-width="5" width="70" height="25" x="0" y="5" rx="8" ry="8"/><rect class="hcell-col31-cat0" fill="#777" stroke="#DDD" width="70" height="35" x="0" y="0" rx="8" ry="8"/><text text-anchor="middle" fill="#FFF" x="35" y="20">-20</text></a></g></g></g><g><g transform="translate(1045,50)"><g><a target="_top" xlink:href="dtp-sliceTagOther-step2628000-ofs19-col32-cat0.html"><rect style="display:none" class="hcell-act-col32-cat0" fill="#777" stroke="#000" stroke-width="5" width="70" height="29" x="0" y="-34" rx="8" ry="8"/><rect class="hcell-col32-cat0" fill="#777" stroke="#DDD" width="70" height="39" x="0" y="-39" rx="8" ry="8"/><text text-anchor="middle" fill="#FFF" x="35" y="-19">22</text></a></g></g><rect fill="none" stroke="#DDD" width="70" height="30" rx="8" ry="8" x="1045" y="60"/><text text-anchor="middle" fill="#333" x="1080" y="80">15-03</text><g transform="translate(1045,100)"></g></g><g><g transform="translate(1125,50)"><g><a target="_top" xlink:href="dtp-sliceTagOther-step2628000-ofs19-col33-cat0.html"><rect style="display:none" class="hcell-act-col33-cat0" fill="#777" stroke="#000" stroke-width="5" width="70" height="35" x="0" y="-40" rx="8" ry="8"/><rect class="hcell-col33-cat0" fill="#777" stroke="#DDD" width="70" height="45" x="0" y="-45" rx="8" ry="8"/><text text-anchor="middle" fill="#FFF" x="35" y="-25">25</text></a></g></g><rect fill="none" stroke="#DDD" width="70" height="30" rx="8" ry="8" x="1125" y="60"/><text text-anchor="middle" fill="#333" x="1160" y="80">15-04</text><g transform="translate(1125,100)"></g></g><g><g transform="translate(1205,50)"></g><rect fill="none" stroke="#DDD" width="70" height="30" rx="8" ry="8" x="1205" y="60"/><text text-anchor="middle" fill="#333" x="1240" y="80">15-05</text><g transform="translate(1205,100)"><g><a target="_top" xlink:href="dtp-sliceTagOther-step2628000-ofs19-col34-cat0.html"><rect style="display:none" class="hcell-act-col34-cat0" fill="#777" stroke="#000" stroke-width="5" width="70" height="25" x="0" y="5" rx="8" ry="8"/><rect class="hcell-col34-cat0" fill="#777" stroke="#DDD" width="70" height="35" x="0" y="0" rx="8" ry="8"/><text text-anchor="middle" fill="#FFF" x="35" y="20">-20</text></a></g></g></g></svg>