<svg xmlns="http://www.w3.org/2000/svg" xmlns:xlink="http://www.w3.org/1999/xlink" width="100%" height="100%" viewBox="0 0 1280 467"><g><g transform="translate(5,382)"></g><rect fill="none" stroke="#DDD" width="70" height="30" rx="8" ry="8" x="5" y="392"/><text text-anchor="middle" fill="#333" x="40" y="412">12-07</text><g transform="translate(5,432)"><g><a target="_top" xlink:href="dtp-sliceTagPayment-step5605201-ofs0-col0-cat0.html"><rect style="display:none" class="hcell-act-col0-cat0" fill="#777" stroke="#000" stroke-width="5" width="70" height="20" x="0" y="5" rx="8" ry="8"/><rect class="hcell-col0-cat0" fill="#777" stroke="#DDD" width="70" height="30" x="0" y="0" rx="8" ry="8"/><text text-anchor="middle" fill="#FFF" x="35" y="20">-21</text></a></g></g></g><g><g transform="translate(85,382)"></g><rect fill="none" stroke="#DDD" width="70" height="30" rx="8" ry="8" x="85" y="392"/><text text-anchor="middle" fill="#333" x="120" y="412">12-09</text><g transform="translate(85,432)"><g><a target="_top" xlink:href="dtp-sliceTagPayment-step5605201-ofs0-col1-cat0.html"><rect style="display:none" class="hcell-act-col1-cat0" fill="#777" stroke="#000" stroke-width="5" width="70" height="20" x="0" y="5" rx="8" ry="8"/><rect class="hcell-col1-cat0" fill="#777" stroke="#DDD" width="70" height="30" x="0" y="0" rx="8" ry="8"/><text text-anchor="middle" fill="#FFF" x="35" y="20">-166</text></a></g></g></g><g><g transform="translate(165,382)"><g><a target="_top" xlink:href="dtp-sliceTagPayment-step5605201-ofs0-col2-cat0.html"><rect style="display:none" class="hcell-act-col2-cat0" fill="#777" stroke="#000" stroke-width="5" width="70" height="20" x="0" y="-25" rx="8" ry="8"/><rect class="hcell-col2-cat0" fill="#777" stroke="#DDD" width="70" height="30" x="0" y="-30" rx="8" ry="8"/><text text-anchor="middle" fill="#FFF" x="35" y="-10">11</text></a></g></g><rect fill="none" stroke="#DDD" width="70" height="30" rx="8" ry="8" x="165" y="392"/><text text-anchor="middle" fill="#333" x="200" y="412">12-11</text><g transform="translate(165,432)"><g><a target="_top" xlink:href="dtp-sliceTagPayment-step5605201-ofs0-col2-cat0.html"><rect style="display:none" class="hcell-act-col2-cat0" fill="#777" stroke="#000" stroke-width="5" width="70" height="20" x="0" y="5" rx="8" ry="8"/><rect class="hcell-col2-cat0" fill="#777" stroke="#DDD" width="70" height="30" x="0" y="0" rx="8" ry="8"/><text text-anchor="middle" fill="#FFF" x="35" y="20">-132</text></a></g></g></g><g><g transform="translate(245,382)"></g><rect fill="none" stroke="#DDD" width="70" height="30" rx="8" ry="8" x="245" y="392"/><text text-anchor="middle" fill="#333" x="280" y="412">13-01</text><g transform="translate(245,432)"><g><a target="_top" xlink:href="dtp-sliceTagPayment-step5605201-ofs0-col3-cat0.html"><rect style="display:none" class="hcell-act-col3-cat0" fill="#777" stroke="#000" stroke-width="5" width="70" height="20" x="0" y="5" rx="8" ry="8"/><rect class="hcell-col3-cat0" fill="#777" stroke="#DDD" width="70" height="30" x="0" y="0" rx="8" ry="8"/><text text-anchor="middle" fill="#FFF" x="35" y="20">-120</text></a></g></g></g><g><g transform="translate(325,382)"><g><a target="_top" xlink:href="dtp-sliceTagPayment-step5605201-ofs0-col4-cat0.html"><rect style="display:none" class="hcell-act-col4-cat0" fill="#777" stroke="#000" stroke-width="5" width="70" height="248" x="0" y="-253" rx="8" ry="8"/><rect class="hcell-col4-cat0" fill="#777" stroke="#DDD" width="70" height="258" x="0" y="-258" rx="8" ry="8"/><text text-anchor="middle" fill="#FFF" x="35" y="-238">2758</text></a></g></g><rect fill="none" stroke="#DDD" width="70" height="30" rx="8" ry="8" x="325" y="392"/><text text-anchor="middle" fill="#333" x="360" y="412">13-03</text><g transform="translate(325,432)"><g><a target="_top" xlink:href="dtp-sliceTagPayment-step5605201-ofs0-col4-cat0.html"><rect style="display:none" class="hcell-act-col4-cat0" fill="#777" stroke="#000" stroke-width="5" width="70" height="20" x="0" y="5" rx="8" ry="8"/><rect class="hcell-col4-cat0" fill="#777" stroke="#DDD" width="70" height="30" x="0" y="0" rx="8" ry="8"/><text text-anchor="middle" fill="#FFF" x="35" y="20">-113</text></a></g></g></g><g><g transform="translate(405,382)"><g><a target="_top" xlink:href="dtp-sliceTagPayment-step5605201-ofs0-col5-cat0.html"><rect style="display:none" class="hcell-act-col5-cat0" fill="#777" stroke="#000" stroke-width="5" width="70" height="98" x="0" y="-103" rx="8" ry="8"/><rect class="hcell-col5-cat0" fill="#777" stroke="#DDD" width="70" height="108" x="0" y="-108" rx="8" ry="8"/><text text-anchor="middle" fill="#FFF" x="35" y="-88">1157</text></a></g></g><rect fill="none" stroke="#DDD" width="70" height="30" rx="8" ry="8" x="405" y="392"/><text text-anchor="middle" fill="#333" x="440" y="412">13-05</text><g transform="translate(405,432)"><g><a target="_top" xlink:href="dtp-sliceTagPayment-step5605201-ofs0-col5-cat0.html"><rect style="display:none" class="hcell-act-col5-cat0" fill="#777" stroke="#000" stroke-width="5" width="70" height="20" x="0" y="5" rx="8" ry="8"/><rect class="hcell-col5-cat0" fill="#777" stroke="#DDD" width="70" height="30" x="0" y="0" rx="8" ry="8"/><text text-anchor="middle" fill="#FFF" x="35" y="20">-140</text></a></g></g></g><g><g transform="translate(485,382)"></g><rect fill="none" stroke="#DDD" width="70" height="30" rx="8" ry="8" x="485" y="392"/><text text-anchor="middle" fill="#333" x="520" y="412">13-07</text><g transform="translate(485,432)"><g><a target="_top" xlink:href="dtp-sliceTagPayment-step5605201-ofs0-col6-cat0.html"><rect style="display:none" class="hcell-act-col6-cat0" fill="#777" stroke="#000" stroke-width="5" width="70" height="20" x="0" y="5" rx="8" ry="8"/><rect class="hcell-col6-cat0" fill="#777" stroke="#DDD" width="70" height="30" x="0" y="0" rx="8" ry="8"/><text text-anchor="middle" fill="#FFF" x="35" y="20">-109</text></a></g></g></g><g><g transform="translate(565,382)"><g><a target="_top" xlink:href="dtp-sliceTagPayment-step5605201-ofs0-col7-cat0.html"><rect style="display:none" class="hcell-act-col7-cat0" fill="#777" stroke="#000" stroke-width="5" width="70" height="161" x="0" y="-166" rx="8" ry="8"/><rect class="hcell-col7-cat0" fill="#777" stroke="#DDD" width="70" height="171" x="0" y="-171" rx="8" ry="8"/><text text-anchor="middle" fill="#FFF" x="35" y="-151">1824</text></a></g></g><rect fill="none" stroke="#DDD" width="70" height="30" rx="8" ry="8" x="565" y="392"/><text text-anchor="middle" fill="#333" x="600" y="412">13-09</text><g transform="translate(565,432)"></g></g><g><g transform="translate(645,382)"><g><a target="_top" xlink:href="dtp-sliceTagPayment-step5605201-ofs0-col8-cat0.html"><rect style="display:none" class="hcell-act-col8-cat0" fill="#777" stroke="#000" stroke-width="5" width="70" height="186" x="0" y="-191" rx="8" ry="8"/><rect class="hcell-col8-cat0" fill="#777" stroke="#DDD" width="70" height="196" x="0" y="-196" rx="8" ry="8"/><text text-anchor="middle" fill="#FFF" x="35" y="-176">2097</text></a></g></g><rect fill="none" stroke="#DDD" width="70" height="30" rx="8" ry="8" x="645" y="392"/><text text-anchor="middle" fill="#333" x="680" y="412">13-12</text><g transform="translate(645,432)"><g><a target="_top" xlink:href="dtp-sliceTagPayment-step5605201-ofs0-col8-cat0.html"><rect style="display:none" class="hcell-act-col8-cat0" fill="#777" stroke="#000" stroke-width="5" width="70" height="20" x="0" y="5" rx="8" ry="8"/><rect class="hcell-col8-cat0" fill="#777" stroke="#DDD" width="70" height="30" x="0" y="0" rx="8" ry="8"/><text text-anchor="middle" fill="#FFF" x="35" y="20">-65</text></a></g></g></g><g><g transform="translate(725,382)"><g><a target="_top" xlink:href="dtp-sliceTagPayment-step5605201-ofs0-col9-cat0.html"><rect style="display:none" class="hcell-act-col9-cat0" fill="#777" stroke="#000" stroke-width="5" width="70" height="294" x="0" y="-299" rx="8" ry="8"/><rect class="hcell-col9-cat0" fill="#777" stroke="#DDD" width="70" height="304" x="0" y="-304" rx="8" ry="8"/><text text-anchor="middle" fill="#FFF" x="35" y="-284">3249</text></a></g></g><rect fill="none" stroke="#DDD" width="70" height="30" rx="8" ry="8" x="725" y="392"/><text text-anchor="middle" fill="#333" x="760" y="412">14-02</text><g transform="translate(725,432)"><g><a target="_top" xlink:href="dtp-sliceTagPayment-step5605201-ofs0-col9-cat0.html"><rect style="display:none" class="hcell-act-col9-cat0" fill="#777" stroke="#000" stroke-width="5" width="70" height="20" x="0" y="5" rx="8" ry="8"/><rect class="hcell-col9-cat0" fill="#777" stroke="#DDD" width="70" height="30" x="0" y="0" rx="8" ry="8"/><text text-anchor="middle" fill="#FFF" x="35" y="20">-144</text></a></g></g></g><g><g transform="translate(805,382)"><g><a target="_top" xlink:href="dtp-sliceTagPayment-step5605201-ofs0-col10-cat0.html"><rect style="display:none" class="hcell-act-col10-cat0" fill="#777" stroke="#000" stroke-width="5" width="70" height="208" x="0" y="-213" rx="8" ry="8"/><rect class="hcell-col10-cat0" fill="#777" stroke="#DDD" width="70" height="218" x="0" y="-218" rx="8" ry="8"/><text text-anchor="middle" fill="#FFF" x="35" y="-198">2325</text></a></g></g><rect fill="none" stroke="#DDD" width="70" height="30" rx="8" ry="8" x="805" y="392"/><text text-anchor="middle" fill="#333" x="840" y="412">14-04</text><g transform="translate(805,432)"><g><a target="_top" xlink:href="dtp-sliceTagPayment-step5605201-ofs0-col10-cat0.html"><rect style="display:none" class="hcell-act-col10-cat0" fill="#777" stroke="#000" stroke-width="5" width="70" height="20" x="0" y="5" rx="8" ry="8"/><rect class="hcell-col10-cat0" fill="#777" stroke="#DDD" width="70" height="30" x="0" y="0" rx="8" ry="8"/><text text-anchor="middle" fill="#FFF" x="35" y="20">-142</text></a></g></g></g><g><g transform="translate(885,382)"><g><a target="_top" xlink:href="dtp-sliceTagPayment-step5605201-ofs0-col11-cat0.html"><rect style="display:none" class="hcell-act-col11-cat0" fill="#777" stroke="#000" stroke-width="5" width="70" height="162" x="0" y="-167" rx="8" ry="8"/><rect class="hcell-col11-cat0" fill="#777" stroke="#DDD" width="70" height="172" x="0" y="-172" rx="8" ry="8"/><text text-anchor="middle" fill="#FFF" x="35" y="-152">1834</text></a></g></g><rect fill="none" stroke="#DDD" width="70" height="30" rx="8" ry="8" x="885" y="392"/><text text-anchor="middle" fill="#333" x="920" y="412">14-06</text><g transform="translate(885,432)"><g><a target="_top" xlink:href="dtp-sliceTagPayment-step5605201-ofs0-col11-cat0.html"><rect style="display:none" class="hcell-act-col11-cat0" fill="#777" stroke="#000" stroke-width="5" width="70" height="20" x="0" y="5" rx="8" ry="8"/><rect class="hcell-col11-cat0" fill="#777" stroke="#DDD" width="70" height="30" x="0" y="0" rx="8" ry="8"/><text text-anchor="middle" fill="#FFF" x="35" y="20">-115</text></a></g></g></g><g><g transform="translate(965,382)"><g><a target="_top" xlink:href="dtp-sliceTagPayment-step5605201-ofs0-col12-cat0.html"><rect style="display:none" class="hcell-act-col12-cat0" fill="#777" stroke="#000" stroke-width="5" width="70" height="161" x="0" y="-166" rx="8" ry="8"/><rect class="hcell-col12-cat0" fill="#777" stroke="#DDD" width="70" height="171" x="0" y="-171" rx="8" ry="8"/><text text-anchor="middle" fill="#FFF" x="35" y="-151">1825</text></a></g></g><rect fill="none" stroke="#DDD" width="70" height="30" rx="8" ry="8" x="965" y="392"/><text text-anchor="middle" fill="#333" x="1000" y="412">14-08</text><g transform="translate(965,432)"><g><a target="_top" xlink:href="dtp-sliceTagPayment-step5605201-ofs0-col12-cat0.html"><rect style="display:none" class="hcell-act-col12-cat0" fill="#777" stroke="#000" stroke-width="5" width="70" height="20" x="0" y="5" rx="8" ry="8"/><rect class="hcell-col12-cat0" fill="#777" stroke="#DDD" width="70" height="30" x="0" y="0" rx="8" ry="8"/><text text-anchor="middle" fill="#FFF" x="35" y="20">-215</text></a></g></g></g><g><g transform="translate(1045,382)"><g><a target="_top" xlink:href="dtp-sliceTagPayment-step5605201-ofs0-col13-cat0.html"><rect style="display:none" class="hcell-act-col13-cat0" fill="#777" stroke="#000" stroke-width="5" width="70" height="20" x="0" y="-25" rx="8" ry="8"/><rect class="hcell-col13-cat0" fill="#777" stroke="#DDD" width="70" height="30" x="0" y="-30" rx="8" ry="8"/><text text-anchor="middle" fill="#FFF" x="35" y="-10">133</text></a></g></g><rect fill="none" stroke="#DDD" width="70" height="30" rx="8" ry="8" x="1045" y="392"/><text text-anchor="middle" fill="#333" x="1080" y="412">14-10</text><g transform="translate(1045,432)"><g><a target="_top" xlink:href="dtp-sliceTagPayment-step5605201-ofs0-col13-cat0.html"><rect style="display:none" class="hcell-act-col13-cat0" fill="#777" stroke="#000" stroke-width="5" width="70" height="20" x="0" y="5" rx="8" ry="8"/><rect class="hcell-col13-cat0" fill="#777" stroke="#DDD" width="70" height="30" x="0" y="0" rx="8" ry="8"/><text text-anchor="middle" fill="#FFF" x="35" y="20">-244</text></a></g></g></g><g><g transform="translate(1125,382)"><g><a target="_top" xlink:href="dtp-sliceTagPayment-step5605201-ofs0-col14-cat0.html"><rect style="display:none" class="hcell-act-col14-cat0" fill="#777" stroke="#000" stroke-width="5" width="70" height="367" x="0" y="-372" rx="8" ry="8"/><rect class="hcell-col14-cat0" fill="#777" stroke="#DDD" width="70" height="377" x="0" y="-377" rx="8" ry="8"/><text text-anchor="middle" fill="#FFF" x="35" y="-357">4018</text></a></g></g><rect fill="none" stroke="#DDD" width="70" height="30" rx="8" ry="8" x="1125" y="392"/><text text-anchor="middle" fill="#333" x="1160" y="412">14-12</text><g transform="translate(1125,432)"><g><a target="_top" xlink:href="dtp-sliceTagPayment-step5605201-ofs0-col14-cat0.html"><rect style="display:none" class="hcell-act-col14-cat0" fill="#777" stroke="#000" stroke-width="5" width="70" height="20" x="0" y="5" rx="8" ry="8"/><rect class="hcell-col14-cat0" fill="#777" stroke="#DDD" width="70" height="30" x="0" y="0" rx="8" ry="8"/><text text-anchor="middle" fill="#FFF" x="35" y="20">-204</text></a></g></g></g><g><g transform="translate(1205,382)"><g><a target="_top" xlink:href="dtp-sliceTagPayment-step5605201-ofs0-col15-cat0.html"><rect style="display:none" class="hcell-act-col15-cat0" fill="#777" stroke="#000" stroke-width="5" width="70" height="303" x="0" y="-308" rx="8" ry="8"/><rect class="hcell-col15-cat0" fill="#777" stroke="#DDD" width="70" height="313" x="0" y="-313" rx="8" ry="8"/><text text-anchor="middle" fill="#FFF" x="35" y="-293">3344</text></a></g></g><rect fill="none" stroke="#DDD" width="70" height="30" rx="8" ry="8" x="1205" y="392"/><text text-anchor="middle" fill="#333" x="1240" y="412">15-03</text><g transform="translate(1205,432)"><g><a target="_top" xlink:href="dtp-sliceTagPayment-step5605201-ofs0-col15-cat0.html"><rect style="display:none" class="hcell-act-col15-cat0" fill="#777" stroke="#000" stroke-width="5" width="70" height="20" x="0" y="5" rx="8" ry="8"/><rect class="hcell-col15-cat0" fill="#777" stroke="#DDD" width="70" height="30" x="0" y="0" rx="8" ry="8"/><text text-anchor="middle" fill="#FFF" x="35" y="20">-96</text></a></g></g></g></svg>