<svg xmlns="http://www.w3.org/2000/svg" xmlns:xlink="http://www.w3.org/1999/xlink" width="100%" height="100%" viewBox="0 0 1280 459"><g><g transform="translate(5,353)"><g><a target="_top" xlink:href="dtp-sliceTagAwsGiftAcc-step5605201-ofs0-col0-cat0.html"><rect style="display:none" class="hcell-act-col0-cat0" fill="#777" stroke="#000" stroke-width="5" width="70" height="338" x="0" y="-343" rx="8" ry="8"/><rect class="hcell-col0-cat0" fill="#777" stroke="#DDD" width="70" height="348" x="0" y="-348" rx="8" ry="8"/><text text-anchor="middle" fill="#FFF" x="35" y="-328">500</text></a></g></g><rect fill="none" stroke="#DDD" width="70" height="30" rx="8" ry="8" x="5" y="363"/><text text-anchor="middle" fill="#333" x="40" y="383">12-07</text><g transform="translate(5,403)"><g><a target="_top" xlink:href="dtp-sliceTagAwsGiftAcc-step5605201-ofs0-col0-cat0.html"><rect style="display:none" class="hcell-act-col0-cat0" fill="#777" stroke="#000" stroke-width="5" width="70" height="23" x="0" y="5" rx="8" ry="8"/><rect class="hcell-col0-cat0" fill="#777" stroke="#DDD" width="70" height="33" x="0" y="0" rx="8" ry="8"/><text text-anchor="middle" fill="#FFF" x="35" y="20">-48</text></a></g></g></g><g><g transform="translate(85,353)"></g><rect fill="none" stroke="#DDD" width="70" height="30" rx="8" ry="8" x="85" y="363"/><text text-anchor="middle" fill="#333" x="120" y="383">12-09</text><g transform="translate(85,403)"><g><a target="_top" xlink:href="dtp-sliceTagAwsGiftAcc-step5605201-ofs0-col1-cat0.html"><rect style="display:none" class="hcell-act-col1-cat0" fill="#777" stroke="#000" stroke-width="5" width="70" height="20" x="0" y="5" rx="8" ry="8"/><rect class="hcell-col1-cat0" fill="#777" stroke="#DDD" width="70" height="30" x="0" y="0" rx="8" ry="8"/><text text-anchor="middle" fill="#FFF" x="35" y="20">-18</text></a></g></g></g><g><g transform="translate(165,353)"></g><rect fill="none" stroke="#DDD" width="70" height="30" rx="8" ry="8" x="165" y="363"/><text text-anchor="middle" fill="#333" x="200" y="383">12-11</text><g transform="translate(165,403)"><g><a target="_top" xlink:href="dtp-sliceTagAwsGiftAcc-step5605201-ofs0-col2-cat0.html"><rect style="display:none" class="hcell-act-col2-cat0" fill="#777" stroke="#000" stroke-width="5" width="70" height="22" x="0" y="5" rx="8" ry="8"/><rect class="hcell-col2-cat0" fill="#777" stroke="#DDD" width="70" height="32" x="0" y="0" rx="8" ry="8"/><text text-anchor="middle" fill="#FFF" x="35" y="20">-48</text></a></g></g></g><g><g transform="translate(245,353)"></g><rect fill="none" stroke="#DDD" width="70" height="30" rx="8" ry="8" x="245" y="363"/><text text-anchor="middle" fill="#333" x="280" y="383">13-01</text><g transform="translate(245,403)"><g><a target="_top" xlink:href="dtp-sliceTagAwsGiftAcc-step5605201-ofs0-col3-cat0.html"><rect style="display:none" class="hcell-act-col3-cat0" fill="#777" stroke="#000" stroke-width="5" width="70" height="38" x="0" y="5" rx="8" ry="8"/><rect class="hcell-col3-cat0" fill="#777" stroke="#DDD" width="70" height="48" x="0" y="0" rx="8" ry="8"/><text text-anchor="middle" fill="#FFF" x="35" y="20">-71</text></a></g></g></g><g><g transform="translate(325,353)"></g><rect fill="none" stroke="#DDD" width="70" height="30" rx="8" ry="8" x="325" y="363"/><text text-anchor="middle" fill="#333" x="360" y="383">13-03</text><g transform="translate(325,403)"><g><a target="_top" xlink:href="dtp-sliceTagAwsGiftAcc-step5605201-ofs0-col4-cat0.html"><rect style="display:none" class="hcell-act-col4-cat0" fill="#777" stroke="#000" stroke-width="5" width="70" height="20" x="0" y="5" rx="8" ry="8"/><rect class="hcell-col4-cat0" fill="#777" stroke="#DDD" width="70" height="30" x="0" y="0" rx="8" ry="8"/><text text-anchor="middle" fill="#FFF" x="35" y="20">-26</text></a></g></g></g><g><g transform="translate(405,353)"></g><rect fill="none" stroke="#DDD" width="70" height="30" rx="8" ry="8" x="405" y="363"/><text text-anchor="middle" fill="#333" x="440" y="383">13-05</text><g transform="translate(405,403)"><g><a target="_top" xlink:href="dtp-sliceTagAwsGiftAcc-step5605201-ofs0-col5-cat0.html"><rect style="display:none" class="hcell-act-col5-cat0" fill="#777" stroke="#000" stroke-width="5" width="70" height="20" x="0" y="5" rx="8" ry="8"/><rect class="hcell-col5-cat0" fill="#777" stroke="#DDD" width="70" height="30" x="0" y="0" rx="8" ry="8"/><text text-anchor="middle" fill="#FFF" x="35" y="20">-8</text></a></g></g></g><g><g transform="translate(485,353)"></g><rect fill="none" stroke="#DDD" width="70" height="30" rx="8" ry="8" x="485" y="363"/><text text-anchor="middle" fill="#333" x="520" y="383">13-07</text><g transform="translate(485,403)"><g><a target="_top" xlink:href="dtp-sliceTagAwsGiftAcc-step5605201-ofs0-col6-cat0.html"><rect style="display:none" class="hcell-act-col6-cat0" fill="#777" stroke="#000" stroke-width="5" width="70" height="41" x="0" y="5" rx="8" ry="8"/><rect class="hcell-col6-cat0" fill="#777" stroke="#DDD" width="70" height="51" x="0" y="0" rx="8" ry="8"/><text text-anchor="middle" fill="#FFF" x="35" y="20">-75</text></a></g></g></g><g><g transform="translate(565,353)"></g><rect fill="none" stroke="#DDD" width="70" height="30" rx="8" ry="8" x="565" y="363"/><text text-anchor="middle" fill="#333" x="600" y="383">13-09</text><g transform="translate(565,403)"><g><a target="_top" xlink:href="dtp-sliceTagAwsGiftAcc-step5605201-ofs0-col7-cat0.html"><rect style="display:none" class="hcell-act-col7-cat0" fill="#777" stroke="#000" stroke-width="5" width="70" height="34" x="0" y="5" rx="8" ry="8"/><rect class="hcell-col7-cat0" fill="#777" stroke="#DDD" width="70" height="44" x="0" y="0" rx="8" ry="8"/><text text-anchor="middle" fill="#FFF" x="35" y="20">-64</text></a></g></g></g><g><g transform="translate(645,353)"></g><rect fill="none" stroke="#DDD" width="70" height="30" rx="8" ry="8" x="645" y="363"/><text text-anchor="middle" fill="#333" x="680" y="383">13-12</text><g transform="translate(645,403)"><g><a target="_top" xlink:href="dtp-sliceTagAwsGiftAcc-step5605201-ofs0-col8-cat0.html"><rect style="display:none" class="hcell-act-col8-cat0" fill="#777" stroke="#000" stroke-width="5" width="70" height="20" x="0" y="5" rx="8" ry="8"/><rect class="hcell-col8-cat0" fill="#777" stroke="#DDD" width="70" height="30" x="0" y="0" rx="8" ry="8"/><text text-anchor="middle" fill="#FFF" x="35" y="20">-1</text></a></g></g></g><g><g transform="translate(725,353)"></g><rect fill="none" stroke="#DDD" width="70" height="30" rx="8" ry="8" x="725" y="363"/><text text-anchor="middle" fill="#333" x="760" y="383">14-02</text><g transform="translate(725,403)"><g><a target="_top" xlink:href="dtp-sliceTagAwsGiftAcc-step5605201-ofs0-col9-cat0.html"><rect style="display:none" class="hcell-act-col9-cat0" fill="#777" stroke="#000" stroke-width="5" width="70" height="21" x="0" y="5" rx="8" ry="8"/><rect class="hcell-col9-cat0" fill="#777" stroke="#DDD" width="70" height="31" x="0" y="0" rx="8" ry="8"/><text text-anchor="middle" fill="#FFF" x="35" y="20">-45</text></a></g></g></g><g><g transform="translate(805,353)"></g><rect fill="none" stroke="#DDD" width="70" height="30" rx="8" ry="8" x="805" y="363"/><text text-anchor="middle" fill="#333" x="840" y="383">14-04</text><g transform="translate(805,403)"><g><a target="_top" xlink:href="dtp-sliceTagAwsGiftAcc-step5605201-ofs0-col10-cat0.html"><rect style="display:none" class="hcell-act-col10-cat0" fill="#777" stroke="#000" stroke-width="5" width="70" height="20" x="0" y="5" rx="8" ry="8"/><rect class="hcell-col10-cat0" fill="#777" stroke="#DDD" width="70" height="30" x="0" y="0" rx="8" ry="8"/><text text-anchor="middle" fill="#FFF" x="35" y="20">-10</text></a></g></g></g><g><g transform="translate(885,353)"></g><rect fill="none" stroke="#DDD" width="70" height="30" rx="8" ry="8" x="885" y="363"/><text text-anchor="middle" fill="#333" x="920" y="383">14-06</text><g transform="translate(885,403)"><g><a target="_top" xlink:href="dtp-sliceTagAwsGiftAcc-step5605201-ofs0-col11-cat0.html"><rect style="display:none" class="hcell-act-col11-cat0" fill="#777" stroke="#000" stroke-width="5" width="70" height="34" x="0" y="5" rx="8" ry="8"/><rect class="hcell-col11-cat0" fill="#777" stroke="#DDD" width="70" height="44" x="0" y="0" rx="8" ry="8"/><text text-anchor="middle" fill="#FFF" x="35" y="20">-64</text></a></g></g></g><g><g transform="translate(965,353)"></g><rect fill="none" stroke="#DDD" width="70" height="30" rx="8" ry="8" x="965" y="363"/><text text-anchor="middle" fill="#333" x="1000" y="383">14-08</text><g transform="translate(965,403)"></g></g><g><g transform="translate(1045,353)"></g><rect fill="none" stroke="#DDD" width="70" height="30" rx="8" ry="8" x="1045" y="363"/><text text-anchor="middle" fill="#333" x="1080" y="383">14-10</text><g transform="translate(1045,403)"></g></g><g><g transform="translate(1125,353)"></g><rect fill="none" stroke="#DDD" width="70" height="30" rx="8" ry="8" x="1125" y="363"/><text text-anchor="middle" fill="#333" x="1160" y="383">14-12</text><g transform="translate(1125,403)"></g></g><g><g transform="translate(1205,353)"></g><rect fill="none" stroke="#DDD" width="70" height="30" rx="8" ry="8" x="1205" y="363"/><text text-anchor="middle" fill="#333" x="1240" y="383">15-03</text><g transform="translate(1205,403)"></g></g></svg>