<svg xmlns="http://www.w3.org/2000/svg" xmlns:xlink="http://www.w3.org/1999/xlink" width="100%" height="100%" viewBox="0 0 1280 459"><g><g transform="translate(5,105)"></g><rect fill="none" stroke="#DDD" width="70" height="30" rx="8" ry="8" x="5" y="115"/><text text-anchor="middle" fill="#333" x="40" y="135">12-10</text><g transform="translate(5,155)"><g><a target="_top" xlink:href="dtp-sliceTag6PM-step2628000-ofs3-col3-cat0.html"><rect style="display:none" class="hcell-act-col3-cat0" fill="#777" stroke="#000" stroke-width="5" width="70" height="289" x="0" y="5" rx="8" ry="8"/><rect class="hcell-col3-cat0" fill="#777" stroke="#DDD" width="70" height="299" x="0" y="0" rx="8" ry="8"/><text text-anchor="middle" fill="#FFF" x="35" y="20">-100</text></a></g></g></g><g><g transform="translate(85,105)"></g><rect fill="none" stroke="#DDD" width="70" height="30" rx="8" ry="8" x="85" y="115"/><text text-anchor="middle" fill="#333" x="120" y="135">12-10</text><g transform="translate(85,155)"></g></g><g><g transform="translate(165,105)"></g><rect fill="none" stroke="#DDD" width="70" height="30" rx="8" ry="8" x="165" y="115"/><text text-anchor="middle" fill="#333" x="200" y="135">12-12</text><g transform="translate(165,155)"></g></g><g><g transform="translate(245,105)"></g><rect fill="none" stroke="#DDD" width="70" height="30" rx="8" ry="8" x="245" y="115"/><text text-anchor="middle" fill="#333" x="280" y="135">12-12</text><g transform="translate(245,155)"></g></g><g><g transform="translate(325,105)"></g><rect fill="none" stroke="#DDD" width="70" height="30" rx="8" ry="8" x="325" y="115"/><text text-anchor="middle" fill="#333" x="360" y="135">13-01</text><g transform="translate(325,155)"><g><a target="_top" xlink:href="dtp-sliceTag6PM-step2628000-ofs3-col7-cat0.html"><rect style="display:none" class="hcell-act-col7-cat0" fill="#777" stroke="#000" stroke-width="5" width="70" height="81" x="0" y="5" rx="8" ry="8"/><rect class="hcell-col7-cat0" fill="#777" stroke="#DDD" width="70" height="91" x="0" y="0" rx="8" ry="8"/><text text-anchor="middle" fill="#FFF" x="35" y="20">-31</text></a></g></g></g><g><g transform="translate(405,105)"></g><rect fill="none" stroke="#DDD" width="70" height="30" rx="8" ry="8" x="405" y="115"/><text text-anchor="middle" fill="#333" x="440" y="135">13-03</text><g transform="translate(405,155)"><g><a target="_top" xlink:href="dtp-sliceTag6PM-step2628000-ofs3-col8-cat0.html"><rect style="display:none" class="hcell-act-col8-cat0" fill="#777" stroke="#000" stroke-width="5" width="70" height="95" x="0" y="5" rx="8" ry="8"/><rect class="hcell-col8-cat0" fill="#777" stroke="#DDD" width="70" height="105" x="0" y="0" rx="8" ry="8"/><text text-anchor="middle" fill="#FFF" x="35" y="20">-36</text></a></g></g></g><g><g transform="translate(485,105)"></g><rect fill="none" stroke="#DDD" width="70" height="30" rx="8" ry="8" x="485" y="115"/><text text-anchor="middle" fill="#333" x="520" y="135">13-04</text><g transform="translate(485,155)"><g><a target="_top" xlink:href="dtp-sliceTag6PM-step2628000-ofs3-col9-cat0.html"><rect style="display:none" class="hcell-act-col9-cat0" fill="#777" stroke="#000" stroke-width="5" width="70" height="139" x="0" y="5" rx="8" ry="8"/><rect class="hcell-col9-cat0" fill="#777" stroke="#DDD" width="70" height="149" x="0" y="0" rx="8" ry="8"/><text text-anchor="middle" fill="#FFF" x="35" y="20">-50</text></a></g></g></g><g><g transform="translate(565,105)"></g><rect fill="none" stroke="#DDD" width="70" height="30" rx="8" ry="8" x="565" y="115"/><text text-anchor="middle" fill="#333" x="600" y="135">13-05</text><g transform="translate(565,155)"></g></g><g><g transform="translate(645,105)"></g><rect fill="none" stroke="#DDD" width="70" height="30" rx="8" ry="8" x="645" y="115"/><text text-anchor="middle" fill="#333" x="680" y="135">13-06</text><g transform="translate(645,155)"><g><a target="_top" xlink:href="dtp-sliceTag6PM-step2628000-ofs3-col11-cat0.html"><rect style="display:none" class="hcell-act-col11-cat0" fill="#777" stroke="#000" stroke-width="5" width="70" height="125" x="0" y="5" rx="8" ry="8"/><rect class="hcell-col11-cat0" fill="#777" stroke="#DDD" width="70" height="135" x="0" y="0" rx="8" ry="8"/><text text-anchor="middle" fill="#FFF" x="35" y="20">-46</text></a></g></g></g><g><g transform="translate(725,105)"></g><rect fill="none" stroke="#DDD" width="70" height="30" rx="8" ry="8" x="725" y="115"/><text text-anchor="middle" fill="#333" x="760" y="135">13-07</text><g transform="translate(725,155)"></g></g><g><g transform="translate(805,105)"></g><rect fill="none" stroke="#DDD" width="70" height="30" rx="8" ry="8" x="805" y="115"/><text text-anchor="middle" fill="#333" x="840" y="135">13-08</text><g transform="translate(805,155)"></g></g><g><g transform="translate(885,105)"></g><rect fill="none" stroke="#DDD" width="70" height="30" rx="8" ry="8" x="885" y="115"/><text text-anchor="middle" fill="#333" x="920" y="135">13-08</text><g transform="translate(885,155)"><g><a target="_top" xlink:href="dtp-sliceTag6PM-step2628000-ofs3-col14-cat0.html"><rect style="display:none" class="hcell-act-col14-cat0" fill="#777" stroke="#000" stroke-width="5" width="70" height="190" x="0" y="5" rx="8" ry="8"/><rect class="hcell-col14-cat0" fill="#777" stroke="#DDD" width="70" height="200" x="0" y="0" rx="8" ry="8"/><text text-anchor="middle" fill="#FFF" x="35" y="20">-68</text></a></g></g></g><g><g transform="translate(965,105)"></g><rect fill="none" stroke="#DDD" width="70" height="30" rx="8" ry="8" x="965" y="115"/><text text-anchor="middle" fill="#333" x="1000" y="135">13-10</text><g transform="translate(965,155)"></g></g><g><g transform="translate(1045,105)"></g><rect fill="none" stroke="#DDD" width="70" height="30" rx="8" ry="8" x="1045" y="115"/><text text-anchor="middle" fill="#333" x="1080" y="135">13-10</text><g transform="translate(1045,155)"><g><a target="_top" xlink:href="dtp-sliceTag6PM-step2628000-ofs3-col16-cat0.html"><rect style="display:none" class="hcell-act-col16-cat0" fill="#777" stroke="#000" stroke-width="5" width="70" height="79" x="0" y="5" rx="8" ry="8"/><rect class="hcell-col16-cat0" fill="#777" stroke="#DDD" width="70" height="89" x="0" y="0" rx="8" ry="8"/><text text-anchor="middle" fill="#FFF" x="35" y="20">-30</text></a></g></g></g><g><g transform="translate(1125,105)"></g><rect fill="none" stroke="#DDD" width="70" height="30" rx="8" ry="8" x="1125" y="115"/><text text-anchor="middle" fill="#333" x="1160" y="135">13-12</text><g transform="translate(1125,155)"></g></g><g><g transform="translate(1205,105)"><g><a target="_top" xlink:href="dtp-sliceTag6PM-step2628000-ofs3-col18-cat0.html"><rect style="display:none" class="hcell-act-col18-cat0" fill="#777" stroke="#000" stroke-width="5" width="70" height="90" x="0" y="-95" rx="8" ry="8"/><rect class="hcell-col18-cat0" fill="#777" stroke="#DDD" width="70" height="100" x="0" y="-100" rx="8" ry="8"/><text text-anchor="middle" fill="#FFF" x="35" y="-80">33</text></a></g></g><rect fill="none" stroke="#DDD" width="70" height="30" rx="8" ry="8" x="1205" y="115"/><text text-anchor="middle" fill="#333" x="1240" y="135">13-12</text><g transform="translate(1205,155)"></g></g></svg>