<svg xmlns="http://www.w3.org/2000/svg" xmlns:xlink="http://www.w3.org/1999/xlink" width="100%" height="100%" viewBox="0 0 1280 460"><g><g transform="translate(5,405)"><g><a target="_top" xlink:href="dtp-sliceTagGames-step2628000-ofs0-col0-cat0.html"><rect style="display:none" class="hcell-act-col0-cat0" fill="#777" stroke="#000" stroke-width="5" width="70" height="92" x="0" y="-97" rx="8" ry="8"/><rect class="hcell-col0-cat0" fill="#777" stroke="#DDD" width="70" height="102" x="0" y="-102" rx="8" ry="8"/><text text-anchor="middle" fill="#FFF" x="35" y="-82">27</text></a></g></g><rect fill="none" stroke="#DDD" width="70" height="30" rx="8" ry="8" x="5" y="415"/><text text-anchor="middle" fill="#333" x="40" y="435">12-07</text><g transform="translate(5,455)"></g></g><g><g transform="translate(85,405)"><g><a target="_top" xlink:href="dtp-sliceTagGames-step2628000-ofs0-col1-cat0.html"><rect style="display:none" class="hcell-act-col1-cat0" fill="#777" stroke="#000" stroke-width="5" width="70" height="65" x="0" y="-70" rx="8" ry="8"/><rect class="hcell-col1-cat0" fill="#777" stroke="#DDD" width="70" height="75" x="0" y="-75" rx="8" ry="8"/><text text-anchor="middle" fill="#FFF" x="35" y="-55">19</text></a></g></g><rect fill="none" stroke="#DDD" width="70" height="30" rx="8" ry="8" x="85" y="415"/><text text-anchor="middle" fill="#333" x="120" y="435">12-08</text><g transform="translate(85,455)"></g></g><g><g transform="translate(165,405)"><g><a target="_top" xlink:href="dtp-sliceTagGames-step2628000-ofs0-col2-cat0.html"><rect style="display:none" class="hcell-act-col2-cat0" fill="#777" stroke="#000" stroke-width="5" width="70" height="129" x="0" y="-134" rx="8" ry="8"/><rect class="hcell-col2-cat0" fill="#777" stroke="#DDD" width="70" height="139" x="0" y="-139" rx="8" ry="8"/><text text-anchor="middle" fill="#FFF" x="35" y="-119">36</text></a></g></g><rect fill="none" stroke="#DDD" width="70" height="30" rx="8" ry="8" x="165" y="415"/><text text-anchor="middle" fill="#333" x="200" y="435">12-08</text><g transform="translate(165,455)"></g></g><g><g transform="translate(245,405)"><g><a target="_top" xlink:href="dtp-sliceTagGames-step2628000-ofs0-col3-cat0.html"><rect style="display:none" class="hcell-act-col3-cat0" fill="#777" stroke="#000" stroke-width="5" width="70" height="75" x="0" y="-80" rx="8" ry="8"/><rect class="hcell-col3-cat0" fill="#777" stroke="#DDD" width="70" height="85" x="0" y="-85" rx="8" ry="8"/><text text-anchor="middle" fill="#FFF" x="35" y="-65">22</text></a></g></g><rect fill="none" stroke="#DDD" width="70" height="30" rx="8" ry="8" x="245" y="415"/><text text-anchor="middle" fill="#333" x="280" y="435">12-10</text><g transform="translate(245,455)"></g></g><g><g transform="translate(325,405)"><g><a target="_top" xlink:href="dtp-sliceTagGames-step2628000-ofs0-col4-cat0.html"><rect style="display:none" class="hcell-act-col4-cat0" fill="#777" stroke="#000" stroke-width="5" width="70" height="31" x="0" y="-36" rx="8" ry="8"/><rect class="hcell-col4-cat0" fill="#777" stroke="#DDD" width="70" height="41" x="0" y="-41" rx="8" ry="8"/><text text-anchor="middle" fill="#FFF" x="35" y="-21">10</text></a></g></g><rect fill="none" stroke="#DDD" width="70" height="30" rx="8" ry="8" x="325" y="415"/><text text-anchor="middle" fill="#333" x="360" y="435">12-10</text><g transform="translate(325,455)"></g></g><g><g transform="translate(405,405)"><g><a target="_top" xlink:href="dtp-sliceTagGames-step2628000-ofs0-col5-cat0.html"><rect style="display:none" class="hcell-act-col5-cat0" fill="#777" stroke="#000" stroke-width="5" width="70" height="104" x="0" y="-109" rx="8" ry="8"/><rect class="hcell-col5-cat0" fill="#777" stroke="#DDD" width="70" height="114" x="0" y="-114" rx="8" ry="8"/><text text-anchor="middle" fill="#FFF" x="35" y="-94">29</text></a></g></g><rect fill="none" stroke="#DDD" width="70" height="30" rx="8" ry="8" x="405" y="415"/><text text-anchor="middle" fill="#333" x="440" y="435">12-12</text><g transform="translate(405,455)"></g></g><g><g transform="translate(485,405)"></g><rect fill="none" stroke="#DDD" width="70" height="30" rx="8" ry="8" x="485" y="415"/><text text-anchor="middle" fill="#333" x="520" y="435">12-12</text><g transform="translate(485,455)"></g></g><g><g transform="translate(565,405)"><g><a target="_top" xlink:href="dtp-sliceTagGames-step2628000-ofs0-col7-cat0.html"><rect style="display:none" class="hcell-act-col7-cat0" fill="#777" stroke="#000" stroke-width="5" width="70" height="39" x="0" y="-44" rx="8" ry="8"/><rect class="hcell-col7-cat0" fill="#777" stroke="#DDD" width="70" height="49" x="0" y="-49" rx="8" ry="8"/><text text-anchor="middle" fill="#FFF" x="35" y="-29">13</text></a></g></g><rect fill="none" stroke="#DDD" width="70" height="30" rx="8" ry="8" x="565" y="415"/><text text-anchor="middle" fill="#333" x="600" y="435">13-01</text><g transform="translate(565,455)"></g></g><g><g transform="translate(645,405)"></g><rect fill="none" stroke="#DDD" width="70" height="30" rx="8" ry="8" x="645" y="415"/><text text-anchor="middle" fill="#333" x="680" y="435">13-03</text><g transform="translate(645,455)"></g></g><g><g transform="translate(725,405)"></g><rect fill="none" stroke="#DDD" width="70" height="30" rx="8" ry="8" x="725" y="415"/><text text-anchor="middle" fill="#333" x="760" y="435">13-04</text><g transform="translate(725,455)"></g></g><g><g transform="translate(805,405)"><g><a target="_top" xlink:href="dtp-sliceTagGames-step2628000-ofs0-col10-cat0.html"><rect style="display:none" class="hcell-act-col10-cat0" fill="#777" stroke="#000" stroke-width="5" width="70" height="79" x="0" y="-84" rx="8" ry="8"/><rect class="hcell-col10-cat0" fill="#777" stroke="#DDD" width="70" height="89" x="0" y="-89" rx="8" ry="8"/><text text-anchor="middle" fill="#FFF" x="35" y="-69">23</text></a></g></g><rect fill="none" stroke="#DDD" width="70" height="30" rx="8" ry="8" x="805" y="415"/><text text-anchor="middle" fill="#333" x="840" y="435">13-05</text><g transform="translate(805,455)"></g></g><g><g transform="translate(885,405)"><g><a target="_top" xlink:href="dtp-sliceTagGames-step2628000-ofs0-col11-cat0.html"><rect style="display:none" class="hcell-act-col11-cat0" fill="#777" stroke="#000" stroke-width="5" width="70" height="32" x="0" y="-37" rx="8" ry="8"/><rect class="hcell-col11-cat0" fill="#777" stroke="#DDD" width="70" height="42" x="0" y="-42" rx="8" ry="8"/><text text-anchor="middle" fill="#FFF" x="35" y="-22">11</text></a></g></g><rect fill="none" stroke="#DDD" width="70" height="30" rx="8" ry="8" x="885" y="415"/><text text-anchor="middle" fill="#333" x="920" y="435">13-06</text><g transform="translate(885,455)"></g></g><g><g transform="translate(965,405)"><g><a target="_top" xlink:href="dtp-sliceTagGames-step2628000-ofs0-col12-cat0.html"><rect style="display:none" class="hcell-act-col12-cat0" fill="#777" stroke="#000" stroke-width="5" width="70" height="229" x="0" y="-234" rx="8" ry="8"/><rect class="hcell-col12-cat0" fill="#777" stroke="#DDD" width="70" height="239" x="0" y="-239" rx="8" ry="8"/><text text-anchor="middle" fill="#FFF" x="35" y="-219">62</text></a></g></g><rect fill="none" stroke="#DDD" width="70" height="30" rx="8" ry="8" x="965" y="415"/><text text-anchor="middle" fill="#333" x="1000" y="435">13-07</text><g transform="translate(965,455)"></g></g><g><g transform="translate(1045,405)"><g><a target="_top" xlink:href="dtp-sliceTagGames-step2628000-ofs0-col13-cat0.html"><rect style="display:none" class="hcell-act-col13-cat0" fill="#777" stroke="#000" stroke-width="5" width="70" height="390" x="0" y="-395" rx="8" ry="8"/><rect class="hcell-col13-cat0" fill="#777" stroke="#DDD" width="70" height="400" x="0" y="-400" rx="8" ry="8"/><text text-anchor="middle" fill="#FFF" x="35" y="-380">105</text></a></g></g><rect fill="none" stroke="#DDD" width="70" height="30" rx="8" ry="8" x="1045" y="415"/><text text-anchor="middle" fill="#333" x="1080" y="435">13-08</text><g transform="translate(1045,455)"></g></g><g><g transform="translate(1125,405)"><g><a target="_top" xlink:href="dtp-sliceTagGames-step2628000-ofs0-col14-cat0.html"><rect style="display:none" class="hcell-act-col14-cat0" fill="#777" stroke="#000" stroke-width="5" width="70" height="81" x="0" y="-86" rx="8" ry="8"/><rect class="hcell-col14-cat0" fill="#777" stroke="#DDD" width="70" height="91" x="0" y="-91" rx="8" ry="8"/><text text-anchor="middle" fill="#FFF" x="35" y="-71">24</text></a></g></g><rect fill="none" stroke="#DDD" width="70" height="30" rx="8" ry="8" x="1125" y="415"/><text text-anchor="middle" fill="#333" x="1160" y="435">13-08</text><g transform="translate(1125,455)"></g></g><g><g transform="translate(1205,405)"><g><a target="_top" xlink:href="dtp-sliceTagGames-step2628000-ofs0-col15-cat0.html"><rect style="display:none" class="hcell-act-col15-cat0" fill="#777" stroke="#000" stroke-width="5" width="70" height="186" x="0" y="-191" rx="8" ry="8"/><rect class="hcell-col15-cat0" fill="#777" stroke="#DDD" width="70" height="196" x="0" y="-196" rx="8" ry="8"/><text text-anchor="middle" fill="#FFF" x="35" y="-176">51</text></a></g></g><rect fill="none" stroke="#DDD" width="70" height="30" rx="8" ry="8" x="1205" y="415"/><text text-anchor="middle" fill="#333" x="1240" y="435">13-10</text><g transform="translate(1205,455)"></g></g></svg>