<svg xmlns="http://www.w3.org/2000/svg" xmlns:xlink="http://www.w3.org/1999/xlink" width="100%" height="100%" viewBox="0 0 1280 460"><g><g transform="translate(5,5)"></g><rect fill="none" stroke="#DDD" width="70" height="30" rx="8" ry="8" x="5" y="15"/><text text-anchor="middle" fill="#333" x="40" y="35">14-01</text><g transform="translate(5,55)"></g></g><g><g transform="translate(85,5)"></g><rect fill="none" stroke="#DDD" width="70" height="30" rx="8" ry="8" x="85" y="15"/><text text-anchor="middle" fill="#333" x="120" y="35">14-03</text><g transform="translate(85,55)"></g></g><g><g transform="translate(165,5)"></g><rect fill="none" stroke="#DDD" width="70" height="30" rx="8" ry="8" x="165" y="15"/><text text-anchor="middle" fill="#333" x="200" y="35">14-04</text><g transform="translate(165,55)"></g></g><g><g transform="translate(245,5)"></g><rect fill="none" stroke="#DDD" width="70" height="30" rx="8" ry="8" x="245" y="15"/><text text-anchor="middle" fill="#333" x="280" y="35">14-05</text><g transform="translate(245,55)"></g></g><g><g transform="translate(325,5)"></g><rect fill="none" stroke="#DDD" width="70" height="30" rx="8" ry="8" x="325" y="15"/><text text-anchor="middle" fill="#333" x="360" y="35">14-06</text><g transform="translate(325,55)"><g><a target="_top" xlink:href="dtp-sliceTagDPS-step2628000-ofs19-col23-cat0.html"><rect style="display:none" class="hcell-act-col23-cat0" fill="#777" stroke="#000" stroke-width="5" width="70" height="125" x="0" y="5" rx="8" ry="8"/><rect class="hcell-col23-cat0" fill="#777" stroke="#DDD" width="70" height="135" x="0" y="0" rx="8" ry="8"/><text text-anchor="middle" fill="#FFF" x="35" y="20">-26</text></a></g></g></g><g><g transform="translate(405,5)"></g><rect fill="none" stroke="#DDD" width="70" height="30" rx="8" ry="8" x="405" y="15"/><text text-anchor="middle" fill="#333" x="440" y="35">14-07</text><g transform="translate(405,55)"><g><a target="_top" xlink:href="dtp-sliceTagDPS-step2628000-ofs19-col24-cat0.html"><rect style="display:none" class="hcell-act-col24-cat0" fill="#777" stroke="#000" stroke-width="5" width="70" height="390" x="0" y="5" rx="8" ry="8"/><rect class="hcell-col24-cat0" fill="#777" stroke="#DDD" width="70" height="400" x="0" y="0" rx="8" ry="8"/><text text-anchor="middle" fill="#FFF" x="35" y="20">-75</text></a></g></g></g><g><g transform="translate(485,5)"></g><rect fill="none" stroke="#DDD" width="70" height="30" rx="8" ry="8" x="485" y="15"/><text text-anchor="middle" fill="#333" x="520" y="35">14-08</text><g transform="translate(485,55)"></g></g><g><g transform="translate(565,5)"></g><rect fill="none" stroke="#DDD" width="70" height="30" rx="8" ry="8" x="565" y="15"/><text text-anchor="middle" fill="#333" x="600" y="35">14-08</text><g transform="translate(565,55)"></g></g><g><g transform="translate(645,5)"></g><rect fill="none" stroke="#DDD" width="70" height="30" rx="8" ry="8" x="645" y="15"/><text text-anchor="middle" fill="#333" x="680" y="35">14-10</text><g transform="translate(645,55)"></g></g><g><g transform="translate(725,5)"></g><rect fill="none" stroke="#DDD" width="70" height="30" rx="8" ry="8" x="725" y="15"/><text text-anchor="middle" fill="#333" x="760" y="35">14-10</text><g transform="translate(725,55)"></g></g><g><g transform="translate(805,5)"></g><rect fill="none" stroke="#DDD" width="70" height="30" rx="8" ry="8" x="805" y="15"/><text text-anchor="middle" fill="#333" x="840" y="35">14-12</text><g transform="translate(805,55)"><g><a target="_top" xlink:href="dtp-sliceTagDPS-step2628000-ofs19-col29-cat0.html"><rect style="display:none" class="hcell-act-col29-cat0" fill="#777" stroke="#000" stroke-width="5" width="70" height="230" x="0" y="5" rx="8" ry="8"/><rect class="hcell-col29-cat0" fill="#777" stroke="#DDD" width="70" height="240" x="0" y="0" rx="8" ry="8"/><text text-anchor="middle" fill="#FFF" x="35" y="20">-45</text></a></g></g></g><g><g transform="translate(885,5)"></g><rect fill="none" stroke="#DDD" width="70" height="30" rx="8" ry="8" x="885" y="15"/><text text-anchor="middle" fill="#333" x="920" y="35">14-12</text><g transform="translate(885,55)"></g></g><g><g transform="translate(965,5)"></g><rect fill="none" stroke="#DDD" width="70" height="30" rx="8" ry="8" x="965" y="15"/><text text-anchor="middle" fill="#333" x="1000" y="35">15-01</text><g transform="translate(965,55)"><g><a target="_top" xlink:href="dtp-sliceTagDPS-step2628000-ofs19-col31-cat0.html"><rect style="display:none" class="hcell-act-col31-cat0" fill="#777" stroke="#000" stroke-width="5" width="70" height="364" x="0" y="5" rx="8" ry="8"/><rect class="hcell-col31-cat0" fill="#777" stroke="#DDD" width="70" height="374" x="0" y="0" rx="8" ry="8"/><text text-anchor="middle" fill="#FFF" x="35" y="20">-70</text></a></g></g></g><g><g transform="translate(1045,5)"></g><rect fill="none" stroke="#DDD" width="70" height="30" rx="8" ry="8" x="1045" y="15"/><text text-anchor="middle" fill="#333" x="1080" y="35">15-03</text><g transform="translate(1045,55)"><g><a target="_top" xlink:href="dtp-sliceTagDPS-step2628000-ofs19-col32-cat0.html"><rect style="display:none" class="hcell-act-col32-cat0" fill="#777" stroke="#000" stroke-width="5" width="70" height="307" x="0" y="5" rx="8" ry="8"/><rect class="hcell-col32-cat0" fill="#777" stroke="#DDD" width="70" height="317" x="0" y="0" rx="8" ry="8"/><text text-anchor="middle" fill="#FFF" x="35" y="20">-60</text></a></g></g></g><g><g transform="translate(1125,5)"></g><rect fill="none" stroke="#DDD" width="70" height="30" rx="8" ry="8" x="1125" y="15"/><text text-anchor="middle" fill="#333" x="1160" y="35">15-04</text><g transform="translate(1125,55)"></g></g><g><g transform="translate(1205,5)"></g><rect fill="none" stroke="#DDD" width="70" height="30" rx="8" ry="8" x="1205" y="15"/><text text-anchor="middle" fill="#333" x="1240" y="35">15-05</text><g transform="translate(1205,55)"></g></g></svg>