<svg xmlns="http://www.w3.org/2000/svg" xmlns:xlink="http://www.w3.org/1999/xlink" width="100%" height="100%" viewBox="0 0 1280 487"><g><g transform="translate(5,432)"><g><a target="_top" xlink:href="dtp-slice1-step5605201-ofs0-col0-cat4.html"><rect style="display:none" class="hcell-act-col0-cat4" fill="#D9534F" stroke="#000" stroke-width="5" width="70" height="20" x="0" y="-25" rx="8" ry="8"/><rect class="hcell-col0-cat4" fill="#D9534F" stroke="#DDD" width="70" height="30" x="0" y="-30" rx="8" ry="8"/><text text-anchor="middle" fill="#FFF" x="35" y="-10">30</text></a><g transform="translate(0,-30)"><g><a target="_top" xlink:href="dtp-slice1-step5605201-ofs0-col0-cat0.html"><rect style="display:none" class="hcell-act-col0-cat0" fill="#5CB85C" stroke="#000" stroke-width="5" width="70" height="20" x="0" y="-25" rx="8" ry="8"/><rect class="hcell-col0-cat0" fill="#5CB85C" stroke="#DDD" width="70" height="30" x="0" y="-30" rx="8" ry="8"/><text text-anchor="middle" fill="#FFF" x="35" y="-10">33</text></a><g transform="translate(0,-30)"><g><a target="_top" xlink:href="dtp-slice1-step5605201-ofs0-col0-cat1.html"><rect style="display:none" class="hcell-act-col0-cat1" fill="#5BC0DE" stroke="#000" stroke-width="5" width="70" height="24" x="0" y="-29" rx="8" ry="8"/><rect class="hcell-col0-cat1" fill="#5BC0DE" stroke="#DDD" width="70" height="34" x="0" y="-34" rx="8" ry="8"/><text text-anchor="middle" fill="#FFF" x="35" y="-14">45</text></a><g transform="translate(0,-34)"><g><a target="_top" xlink:href="dtp-slice1-step5605201-ofs0-col0-cat2.html"><rect style="display:none" class="hcell-act-col0-cat2" fill="#337AB7" stroke="#000" stroke-width="5" width="70" height="28" x="0" y="-33" rx="8" ry="8"/><rect class="hcell-col0-cat2" fill="#337AB7" stroke="#DDD" width="70" height="38" x="0" y="-38" rx="8" ry="8"/><text text-anchor="middle" fill="#FFF" x="35" y="-18">50</text></a></g></g></g></g></g></g></g></g><rect fill="none" stroke="#DDD" width="70" height="30" rx="8" ry="8" x="5" y="442"/><text text-anchor="middle" fill="#333" x="40" y="462">12-07</text><g transform="translate(5,482)"></g></g><g><g transform="translate(85,432)"><g><a target="_top" xlink:href="dtp-slice1-step5605201-ofs0-col1-cat1.html"><rect style="display:none" class="hcell-act-col1-cat1" fill="#5BC0DE" stroke="#000" stroke-width="5" width="70" height="20" x="0" y="-25" rx="8" ry="8"/><rect class="hcell-col1-cat1" fill="#5BC0DE" stroke="#DDD" width="70" height="30" x="0" y="-30" rx="8" ry="8"/><text text-anchor="middle" fill="#FFF" x="35" y="-10">27</text></a><g transform="translate(0,-30)"><g><a target="_top" xlink:href="dtp-slice1-step5605201-ofs0-col1-cat2.html"><rect style="display:none" class="hcell-act-col1-cat2" fill="#337AB7" stroke="#000" stroke-width="5" width="70" height="20" x="0" y="-25" rx="8" ry="8"/><rect class="hcell-col1-cat2" fill="#337AB7" stroke="#DDD" width="70" height="30" x="0" y="-30" rx="8" ry="8"/><text text-anchor="middle" fill="#FFF" x="35" y="-10">30</text></a><g transform="translate(0,-30)"><g><a target="_top" xlink:href="dtp-slice1-step5605201-ofs0-col1-cat4.html"><rect style="display:none" class="hcell-act-col1-cat4" fill="#D9534F" stroke="#000" stroke-width="5" width="70" height="20" x="0" y="-25" rx="8" ry="8"/><rect class="hcell-col1-cat4" fill="#D9534F" stroke="#DDD" width="70" height="30" x="0" y="-30" rx="8" ry="8"/><text text-anchor="middle" fill="#FFF" x="35" y="-10">31</text></a><g transform="translate(0,-30)"><g><a target="_top" xlink:href="dtp-slice1-step5605201-ofs0-col1-cat0.html"><rect style="display:none" class="hcell-act-col1-cat0" fill="#5CB85C" stroke="#000" stroke-width="5" width="70" height="35" x="0" y="-40" rx="8" ry="8"/><rect class="hcell-col1-cat0" fill="#5CB85C" stroke="#DDD" width="70" height="45" x="0" y="-45" rx="8" ry="8"/><text text-anchor="middle" fill="#FFF" x="35" y="-25">59</text></a></g></g></g></g></g></g></g></g><rect fill="none" stroke="#DDD" width="70" height="30" rx="8" ry="8" x="85" y="442"/><text text-anchor="middle" fill="#333" x="120" y="462">12-09</text><g transform="translate(85,482)"></g></g><g><g transform="translate(165,432)"><g><a target="_top" xlink:href="dtp-slice1-step5605201-ofs0-col2-cat4.html"><rect style="display:none" class="hcell-act-col2-cat4" fill="#D9534F" stroke="#000" stroke-width="5" width="70" height="20" x="0" y="-25" rx="8" ry="8"/><rect class="hcell-col2-cat4" fill="#D9534F" stroke="#DDD" width="70" height="30" x="0" y="-30" rx="8" ry="8"/><text text-anchor="middle" fill="#FFF" x="35" y="-10">15</text></a><g transform="translate(0,-30)"><g><a target="_top" xlink:href="dtp-slice1-step5605201-ofs0-col2-cat2.html"><rect style="display:none" class="hcell-act-col2-cat2" fill="#337AB7" stroke="#000" stroke-width="5" width="70" height="23" x="0" y="-28" rx="8" ry="8"/><rect class="hcell-col2-cat2" fill="#337AB7" stroke="#DDD" width="70" height="33" x="0" y="-33" rx="8" ry="8"/><text text-anchor="middle" fill="#FFF" x="35" y="-13">43</text></a><g transform="translate(0,-33)"><g><a target="_top" xlink:href="dtp-slice1-step5605201-ofs0-col2-cat1.html"><rect style="display:none" class="hcell-act-col2-cat1" fill="#5BC0DE" stroke="#000" stroke-width="5" width="70" height="26" x="0" y="-31" rx="8" ry="8"/><rect class="hcell-col2-cat1" fill="#5BC0DE" stroke="#DDD" width="70" height="36" x="0" y="-36" rx="8" ry="8"/><text text-anchor="middle" fill="#FFF" x="35" y="-16">48</text></a><g transform="translate(0,-36)"><g><a target="_top" xlink:href="dtp-slice1-step5605201-ofs0-col2-cat0.html"><rect style="display:none" class="hcell-act-col2-cat0" fill="#5CB85C" stroke="#000" stroke-width="5" width="70" height="47" x="0" y="-52" rx="8" ry="8"/><rect class="hcell-col2-cat0" fill="#5CB85C" stroke="#DDD" width="70" height="57" x="0" y="-57" rx="8" ry="8"/><text text-anchor="middle" fill="#FFF" x="35" y="-37">75</text></a></g></g></g></g></g></g></g></g><rect fill="none" stroke="#DDD" width="70" height="30" rx="8" ry="8" x="165" y="442"/><text text-anchor="middle" fill="#333" x="200" y="462">12-11</text><g transform="translate(165,482)"></g></g><g><g transform="translate(245,432)"><g><a target="_top" xlink:href="dtp-slice1-step5605201-ofs0-col3-cat1.html"><rect style="display:none" class="hcell-act-col3-cat1" fill="#5BC0DE" stroke="#000" stroke-width="5" width="70" height="20" x="0" y="-25" rx="8" ry="8"/><rect class="hcell-col3-cat1" fill="#5BC0DE" stroke="#DDD" width="70" height="30" x="0" y="-30" rx="8" ry="8"/><text text-anchor="middle" fill="#FFF" x="35" y="-10">27</text></a><g transform="translate(0,-30)"><g><a target="_top" xlink:href="dtp-slice1-step5605201-ofs0-col3-cat4.html"><rect style="display:none" class="hcell-act-col3-cat4" fill="#D9534F" stroke="#000" stroke-width="5" width="70" height="20" x="0" y="-25" rx="8" ry="8"/><rect class="hcell-col3-cat4" fill="#D9534F" stroke="#DDD" width="70" height="30" x="0" y="-30" rx="8" ry="8"/><text text-anchor="middle" fill="#FFF" x="35" y="-10">27</text></a><g transform="translate(0,-30)"><g><a target="_top" xlink:href="dtp-slice1-step5605201-ofs0-col3-cat2.html"><rect style="display:none" class="hcell-act-col3-cat2" fill="#337AB7" stroke="#000" stroke-width="5" width="70" height="31" x="0" y="-36" rx="8" ry="8"/><rect class="hcell-col3-cat2" fill="#337AB7" stroke="#DDD" width="70" height="41" x="0" y="-41" rx="8" ry="8"/><text text-anchor="middle" fill="#FFF" x="35" y="-21">54</text></a><g transform="translate(0,-41)"><g><a target="_top" xlink:href="dtp-slice1-step5605201-ofs0-col3-cat0.html"><rect style="display:none" class="hcell-act-col3-cat0" fill="#5CB85C" stroke="#000" stroke-width="5" width="70" height="37" x="0" y="-42" rx="8" ry="8"/><rect class="hcell-col3-cat0" fill="#5CB85C" stroke="#DDD" width="70" height="47" x="0" y="-47" rx="8" ry="8"/><text text-anchor="middle" fill="#FFF" x="35" y="-27">62</text></a></g></g></g></g></g></g></g></g><rect fill="none" stroke="#DDD" width="70" height="30" rx="8" ry="8" x="245" y="442"/><text text-anchor="middle" fill="#333" x="280" y="462">13-01</text><g transform="translate(245,482)"></g></g><g><g transform="translate(325,432)"><g><a target="_top" xlink:href="dtp-slice1-step5605201-ofs0-col4-cat0.html"><rect style="display:none" class="hcell-act-col4-cat0" fill="#5CB85C" stroke="#000" stroke-width="5" width="70" height="22" x="0" y="-27" rx="8" ry="8"/><rect class="hcell-col4-cat0" fill="#5CB85C" stroke="#DDD" width="70" height="32" x="0" y="-32" rx="8" ry="8"/><text text-anchor="middle" fill="#FFF" x="35" y="-12">42</text></a><g transform="translate(0,-32)"><g><a target="_top" xlink:href="dtp-slice1-step5605201-ofs0-col4-cat4.html"><rect style="display:none" class="hcell-act-col4-cat4" fill="#D9534F" stroke="#000" stroke-width="5" width="70" height="37" x="0" y="-42" rx="8" ry="8"/><rect class="hcell-col4-cat4" fill="#D9534F" stroke="#DDD" width="70" height="47" x="0" y="-47" rx="8" ry="8"/><text text-anchor="middle" fill="#FFF" x="35" y="-27">62</text></a><g transform="translate(0,-47)"><g><a target="_top" xlink:href="dtp-slice1-step5605201-ofs0-col4-cat2.html"><rect style="display:none" class="hcell-act-col4-cat2" fill="#337AB7" stroke="#000" stroke-width="5" width="70" height="46" x="0" y="-51" rx="8" ry="8"/><rect class="hcell-col4-cat2" fill="#337AB7" stroke="#DDD" width="70" height="56" x="0" y="-56" rx="8" ry="8"/><text text-anchor="middle" fill="#FFF" x="35" y="-36">74</text></a><g transform="translate(0,-56)"><g><a target="_top" xlink:href="dtp-slice1-step5605201-ofs0-col4-cat1.html"><rect style="display:none" class="hcell-act-col4-cat1" fill="#5BC0DE" stroke="#000" stroke-width="5" width="70" height="57" x="0" y="-62" rx="8" ry="8"/><rect class="hcell-col4-cat1" fill="#5BC0DE" stroke="#DDD" width="70" height="67" x="0" y="-67" rx="8" ry="8"/><text text-anchor="middle" fill="#FFF" x="35" y="-47">88</text></a></g></g></g></g></g></g></g></g><rect fill="none" stroke="#DDD" width="70" height="30" rx="8" ry="8" x="325" y="442"/><text text-anchor="middle" fill="#333" x="360" y="462">13-03</text><g transform="translate(325,482)"></g></g><g><g transform="translate(405,432)"><g><a target="_top" xlink:href="dtp-slice1-step5605201-ofs0-col5-cat1.html"><rect style="display:none" class="hcell-act-col5-cat1" fill="#5BC0DE" stroke="#000" stroke-width="5" width="70" height="20" x="0" y="-25" rx="8" ry="8"/><rect class="hcell-col5-cat1" fill="#5BC0DE" stroke="#DDD" width="70" height="30" x="0" y="-30" rx="8" ry="8"/><text text-anchor="middle" fill="#FFF" x="35" y="-10">21</text></a><g transform="translate(0,-30)"><g><a target="_top" xlink:href="dtp-slice1-step5605201-ofs0-col5-cat2.html"><rect style="display:none" class="hcell-act-col5-cat2" fill="#337AB7" stroke="#000" stroke-width="5" width="70" height="29" x="0" y="-34" rx="8" ry="8"/><rect class="hcell-col5-cat2" fill="#337AB7" stroke="#DDD" width="70" height="39" x="0" y="-39" rx="8" ry="8"/><text text-anchor="middle" fill="#FFF" x="35" y="-19">51</text></a><g transform="translate(0,-39)"><g><a target="_top" xlink:href="dtp-slice1-step5605201-ofs0-col5-cat4.html"><rect style="display:none" class="hcell-act-col5-cat4" fill="#D9534F" stroke="#000" stroke-width="5" width="70" height="37" x="0" y="-42" rx="8" ry="8"/><rect class="hcell-col5-cat4" fill="#D9534F" stroke="#DDD" width="70" height="47" x="0" y="-47" rx="8" ry="8"/><text text-anchor="middle" fill="#FFF" x="35" y="-27">61</text></a><g transform="translate(0,-47)"><g><a target="_top" xlink:href="dtp-slice1-step5605201-ofs0-col5-cat0.html"><rect style="display:none" class="hcell-act-col5-cat0" fill="#5CB85C" stroke="#000" stroke-width="5" width="70" height="82" x="0" y="-87" rx="8" ry="8"/><rect class="hcell-col5-cat0" fill="#5CB85C" stroke="#DDD" width="70" height="92" x="0" y="-92" rx="8" ry="8"/><text text-anchor="middle" fill="#FFF" x="35" y="-72">122</text></a></g></g></g></g></g></g></g></g><rect fill="none" stroke="#DDD" width="70" height="30" rx="8" ry="8" x="405" y="442"/><text text-anchor="middle" fill="#333" x="440" y="462">13-05</text><g transform="translate(405,482)"></g></g><g><g transform="translate(485,432)"><g><a target="_top" xlink:href="dtp-slice1-step5605201-ofs0-col6-cat4.html"><rect style="display:none" class="hcell-act-col6-cat4" fill="#D9534F" stroke="#000" stroke-width="5" width="70" height="20" x="0" y="-25" rx="8" ry="8"/><rect class="hcell-col6-cat4" fill="#D9534F" stroke="#DDD" width="70" height="30" x="0" y="-30" rx="8" ry="8"/><text text-anchor="middle" fill="#FFF" x="35" y="-10">17</text></a><g transform="translate(0,-30)"><g><a target="_top" xlink:href="dtp-slice1-step5605201-ofs0-col6-cat0.html"><rect style="display:none" class="hcell-act-col6-cat0" fill="#5CB85C" stroke="#000" stroke-width="5" width="70" height="22" x="0" y="-27" rx="8" ry="8"/><rect class="hcell-col6-cat0" fill="#5CB85C" stroke="#DDD" width="70" height="32" x="0" y="-32" rx="8" ry="8"/><text text-anchor="middle" fill="#FFF" x="35" y="-12">43</text></a><g transform="translate(0,-32)"><g><a target="_top" xlink:href="dtp-slice1-step5605201-ofs0-col6-cat2.html"><rect style="display:none" class="hcell-act-col6-cat2" fill="#337AB7" stroke="#000" stroke-width="5" width="70" height="26" x="0" y="-31" rx="8" ry="8"/><rect class="hcell-col6-cat2" fill="#337AB7" stroke="#DDD" width="70" height="36" x="0" y="-36" rx="8" ry="8"/><text text-anchor="middle" fill="#FFF" x="35" y="-16">48</text></a><g transform="translate(0,-36)"><g><a target="_top" xlink:href="dtp-slice1-step5605201-ofs0-col6-cat1.html"><rect style="display:none" class="hcell-act-col6-cat1" fill="#5BC0DE" stroke="#000" stroke-width="5" width="70" height="29" x="0" y="-34" rx="8" ry="8"/><rect class="hcell-col6-cat1" fill="#5BC0DE" stroke="#DDD" width="70" height="39" x="0" y="-39" rx="8" ry="8"/><text text-anchor="middle" fill="#FFF" x="35" y="-19">52</text></a></g></g></g></g></g></g></g></g><rect fill="none" stroke="#DDD" width="70" height="30" rx="8" ry="8" x="485" y="442"/><text text-anchor="middle" fill="#333" x="520" y="462">13-07</text><g transform="translate(485,482)"></g></g><g><g transform="translate(565,432)"><g><a target="_top" xlink:href="dtp-slice1-step5605201-ofs0-col7-cat4.html"><rect style="display:none" class="hcell-act-col7-cat4" fill="#D9534F" stroke="#000" stroke-width="5" width="70" height="20" x="0" y="-25" rx="8" ry="8"/><rect class="hcell-col7-cat4" fill="#D9534F" stroke="#DDD" width="70" height="30" x="0" y="-30" rx="8" ry="8"/><text text-anchor="middle" fill="#FFF" x="35" y="-10">36</text></a><g transform="translate(0,-30)"><g><a target="_top" xlink:href="dtp-slice1-step5605201-ofs0-col7-cat0.html"><rect style="display:none" class="hcell-act-col7-cat0" fill="#5CB85C" stroke="#000" stroke-width="5" width="70" height="29" x="0" y="-34" rx="8" ry="8"/><rect class="hcell-col7-cat0" fill="#5CB85C" stroke="#DDD" width="70" height="39" x="0" y="-39" rx="8" ry="8"/><text text-anchor="middle" fill="#FFF" x="35" y="-19">51</text></a><g transform="translate(0,-39)"><g><a target="_top" xlink:href="dtp-slice1-step5605201-ofs0-col7-cat1.html"><rect style="display:none" class="hcell-act-col7-cat1" fill="#5BC0DE" stroke="#000" stroke-width="5" width="70" height="31" x="0" y="-36" rx="8" ry="8"/><rect class="hcell-col7-cat1" fill="#5BC0DE" stroke="#DDD" width="70" height="41" x="0" y="-41" rx="8" ry="8"/><text text-anchor="middle" fill="#FFF" x="35" y="-21">54</text></a><g transform="translate(0,-41)"><g><a target="_top" xlink:href="dtp-slice1-step5605201-ofs0-col7-cat2.html"><rect style="display:none" class="hcell-act-col7-cat2" fill="#337AB7" stroke="#000" stroke-width="5" width="70" height="31" x="0" y="-36" rx="8" ry="8"/><rect class="hcell-col7-cat2" fill="#337AB7" stroke="#DDD" width="70" height="41" x="0" y="-41" rx="8" ry="8"/><text text-anchor="middle" fill="#FFF" x="35" y="-21">55</text></a></g></g></g></g></g></g></g></g><rect fill="none" stroke="#DDD" width="70" height="30" rx="8" ry="8" x="565" y="442"/><text text-anchor="middle" fill="#333" x="600" y="462">13-09</text><g transform="translate(565,482)"></g></g><g><g transform="translate(645,432)"><g><a target="_top" xlink:href="dtp-slice1-step5605201-ofs0-col8-cat4.html"><rect style="display:none" class="hcell-act-col8-cat4" fill="#D9534F" stroke="#000" stroke-width="5" width="70" height="20" x="0" y="-25" rx="8" ry="8"/><rect class="hcell-col8-cat4" fill="#D9534F" stroke="#DDD" width="70" height="30" x="0" y="-30" rx="8" ry="8"/><text text-anchor="middle" fill="#FFF" x="35" y="-10">12</text></a><g transform="translate(0,-30)"><g><a target="_top" xlink:href="dtp-slice1-step5605201-ofs0-col8-cat0.html"><rect style="display:none" class="hcell-act-col8-cat0" fill="#5CB85C" stroke="#000" stroke-width="5" width="70" height="20" x="0" y="-25" rx="8" ry="8"/><rect class="hcell-col8-cat0" fill="#5CB85C" stroke="#DDD" width="70" height="30" x="0" y="-30" rx="8" ry="8"/><text text-anchor="middle" fill="#FFF" x="35" y="-10">25</text></a><g transform="translate(0,-30)"><g><a target="_top" xlink:href="dtp-slice1-step5605201-ofs0-col8-cat2.html"><rect style="display:none" class="hcell-act-col8-cat2" fill="#337AB7" stroke="#000" stroke-width="5" width="70" height="45" x="0" y="-50" rx="8" ry="8"/><rect class="hcell-col8-cat2" fill="#337AB7" stroke="#DDD" width="70" height="55" x="0" y="-55" rx="8" ry="8"/><text text-anchor="middle" fill="#FFF" x="35" y="-35">72</text></a><g transform="translate(0,-55)"><g><a target="_top" xlink:href="dtp-slice1-step5605201-ofs0-col8-cat1.html"><rect style="display:none" class="hcell-act-col8-cat1" fill="#5BC0DE" stroke="#000" stroke-width="5" width="70" height="55" x="0" y="-60" rx="8" ry="8"/><rect class="hcell-col8-cat1" fill="#5BC0DE" stroke="#DDD" width="70" height="65" x="0" y="-65" rx="8" ry="8"/><text text-anchor="middle" fill="#FFF" x="35" y="-45">86</text></a></g></g></g></g></g></g></g></g><rect fill="none" stroke="#DDD" width="70" height="30" rx="8" ry="8" x="645" y="442"/><text text-anchor="middle" fill="#333" x="680" y="462">13-12</text><g transform="translate(645,482)"></g></g><g><g transform="translate(725,432)"><g><a target="_top" xlink:href="dtp-slice1-step5605201-ofs0-col9-cat2.html"><rect style="display:none" class="hcell-act-col9-cat2" fill="#337AB7" stroke="#000" stroke-width="5" width="70" height="20" x="0" y="-25" rx="8" ry="8"/><rect class="hcell-col9-cat2" fill="#337AB7" stroke="#DDD" width="70" height="30" x="0" y="-30" rx="8" ry="8"/><text text-anchor="middle" fill="#FFF" x="35" y="-10">4</text></a><g transform="translate(0,-30)"><g><a target="_top" xlink:href="dtp-slice1-step5605201-ofs0-col9-cat1.html"><rect style="display:none" class="hcell-act-col9-cat1" fill="#5BC0DE" stroke="#000" stroke-width="5" width="70" height="20" x="0" y="-25" rx="8" ry="8"/><rect class="hcell-col9-cat1" fill="#5BC0DE" stroke="#DDD" width="70" height="30" x="0" y="-30" rx="8" ry="8"/><text text-anchor="middle" fill="#FFF" x="35" y="-10">34</text></a><g transform="translate(0,-30)"><g><a target="_top" xlink:href="dtp-slice1-step5605201-ofs0-col9-cat0.html"><rect style="display:none" class="hcell-act-col9-cat0" fill="#5CB85C" stroke="#000" stroke-width="5" width="70" height="28" x="0" y="-33" rx="8" ry="8"/><rect class="hcell-col9-cat0" fill="#5CB85C" stroke="#DDD" width="70" height="38" x="0" y="-38" rx="8" ry="8"/><text text-anchor="middle" fill="#FFF" x="35" y="-18">50</text></a></g></g></g></g></g></g><rect fill="none" stroke="#DDD" width="70" height="30" rx="8" ry="8" x="725" y="442"/><text text-anchor="middle" fill="#333" x="760" y="462">14-02</text><g transform="translate(725,482)"></g></g><g><g transform="translate(805,432)"><g><a target="_top" xlink:href="dtp-slice1-step5605201-ofs0-col10-cat4.html"><rect style="display:none" class="hcell-act-col10-cat4" fill="#D9534F" stroke="#000" stroke-width="5" width="70" height="20" x="0" y="-25" rx="8" ry="8"/><rect class="hcell-col10-cat4" fill="#D9534F" stroke="#DDD" width="70" height="30" x="0" y="-30" rx="8" ry="8"/><text text-anchor="middle" fill="#FFF" x="35" y="-10">34</text></a><g transform="translate(0,-30)"><g><a target="_top" xlink:href="dtp-slice1-step5605201-ofs0-col10-cat1.html"><rect style="display:none" class="hcell-act-col10-cat1" fill="#5BC0DE" stroke="#000" stroke-width="5" width="70" height="51" x="0" y="-56" rx="8" ry="8"/><rect class="hcell-col10-cat1" fill="#5BC0DE" stroke="#DDD" width="70" height="61" x="0" y="-61" rx="8" ry="8"/><text text-anchor="middle" fill="#FFF" x="35" y="-41">80</text></a><g transform="translate(0,-61)"><g><a target="_top" xlink:href="dtp-slice1-step5605201-ofs0-col10-cat2.html"><rect style="display:none" class="hcell-act-col10-cat2" fill="#337AB7" stroke="#000" stroke-width="5" width="70" height="53" x="0" y="-58" rx="8" ry="8"/><rect class="hcell-col10-cat2" fill="#337AB7" stroke="#DDD" width="70" height="63" x="0" y="-63" rx="8" ry="8"/><text text-anchor="middle" fill="#FFF" x="35" y="-43">84</text></a><g transform="translate(0,-63)"><g><a target="_top" xlink:href="dtp-slice1-step5605201-ofs0-col10-cat0.html"><rect style="display:none" class="hcell-act-col10-cat0" fill="#5CB85C" stroke="#000" stroke-width="5" width="70" height="168" x="0" y="-173" rx="8" ry="8"/><rect class="hcell-col10-cat0" fill="#5CB85C" stroke="#DDD" width="70" height="178" x="0" y="-178" rx="8" ry="8"/><text text-anchor="middle" fill="#FFF" x="35" y="-158">235</text></a></g></g></g></g></g></g></g></g><rect fill="none" stroke="#DDD" width="70" height="30" rx="8" ry="8" x="805" y="442"/><text text-anchor="middle" fill="#333" x="840" y="462">14-04</text><g transform="translate(805,482)"></g></g><g><g transform="translate(885,432)"><g><a target="_top" xlink:href="dtp-slice1-step5605201-ofs0-col11-cat4.html"><rect style="display:none" class="hcell-act-col11-cat4" fill="#D9534F" stroke="#000" stroke-width="5" width="70" height="20" x="0" y="-25" rx="8" ry="8"/><rect class="hcell-col11-cat4" fill="#D9534F" stroke="#DDD" width="70" height="30" x="0" y="-30" rx="8" ry="8"/><text text-anchor="middle" fill="#FFF" x="35" y="-10">16</text></a><g transform="translate(0,-30)"><g><a target="_top" xlink:href="dtp-slice1-step5605201-ofs0-col11-cat3.html"><rect style="display:none" class="hcell-act-col11-cat3" fill="#F0AD4E" stroke="#000" stroke-width="5" width="70" height="20" x="0" y="-25" rx="8" ry="8"/><rect class="hcell-col11-cat3" fill="#F0AD4E" stroke="#DDD" width="70" height="30" x="0" y="-30" rx="8" ry="8"/><text text-anchor="middle" fill="#FFF" x="35" y="-10">35</text></a><g transform="translate(0,-30)"><g><a target="_top" xlink:href="dtp-slice1-step5605201-ofs0-col11-cat0.html"><rect style="display:none" class="hcell-act-col11-cat0" fill="#5CB85C" stroke="#000" stroke-width="5" width="70" height="26" x="0" y="-31" rx="8" ry="8"/><rect class="hcell-col11-cat0" fill="#5CB85C" stroke="#DDD" width="70" height="36" x="0" y="-36" rx="8" ry="8"/><text text-anchor="middle" fill="#FFF" x="35" y="-16">48</text></a><g transform="translate(0,-36)"><g><a target="_top" xlink:href="dtp-slice1-step5605201-ofs0-col11-cat1.html"><rect style="display:none" class="hcell-act-col11-cat1" fill="#5BC0DE" stroke="#000" stroke-width="5" width="70" height="45" x="0" y="-50" rx="8" ry="8"/><rect class="hcell-col11-cat1" fill="#5BC0DE" stroke="#DDD" width="70" height="55" x="0" y="-55" rx="8" ry="8"/><text text-anchor="middle" fill="#FFF" x="35" y="-35">73</text></a><g transform="translate(0,-55)"><g><a target="_top" xlink:href="dtp-slice1-step5605201-ofs0-col11-cat2.html"><rect style="display:none" class="hcell-act-col11-cat2" fill="#337AB7" stroke="#000" stroke-width="5" width="70" height="70" x="0" y="-75" rx="8" ry="8"/><rect class="hcell-col11-cat2" fill="#337AB7" stroke="#DDD" width="70" height="80" x="0" y="-80" rx="8" ry="8"/><text text-anchor="middle" fill="#FFF" x="35" y="-60">105</text></a></g></g></g></g></g></g></g></g></g></g><rect fill="none" stroke="#DDD" width="70" height="30" rx="8" ry="8" x="885" y="442"/><text text-anchor="middle" fill="#333" x="920" y="462">14-06</text><g transform="translate(885,482)"></g></g><g><g transform="translate(965,432)"><g><a target="_top" xlink:href="dtp-slice1-step5605201-ofs0-col12-cat4.html"><rect style="display:none" class="hcell-act-col12-cat4" fill="#D9534F" stroke="#000" stroke-width="5" width="70" height="20" x="0" y="-25" rx="8" ry="8"/><rect class="hcell-col12-cat4" fill="#D9534F" stroke="#DDD" width="70" height="30" x="0" y="-30" rx="8" ry="8"/><text text-anchor="middle" fill="#FFF" x="35" y="-10">4</text></a><g transform="translate(0,-30)"><g><a target="_top" xlink:href="dtp-slice1-step5605201-ofs0-col12-cat2.html"><rect style="display:none" class="hcell-act-col12-cat2" fill="#337AB7" stroke="#000" stroke-width="5" width="70" height="20" x="0" y="-25" rx="8" ry="8"/><rect class="hcell-col12-cat2" fill="#337AB7" stroke="#DDD" width="70" height="30" x="0" y="-30" rx="8" ry="8"/><text text-anchor="middle" fill="#FFF" x="35" y="-10">35</text></a><g transform="translate(0,-30)"><g><a target="_top" xlink:href="dtp-slice1-step5605201-ofs0-col12-cat1.html"><rect style="display:none" class="hcell-act-col12-cat1" fill="#5BC0DE" stroke="#000" stroke-width="5" width="70" height="33" x="0" y="-38" rx="8" ry="8"/><rect class="hcell-col12-cat1" fill="#5BC0DE" stroke="#DDD" width="70" height="43" x="0" y="-43" rx="8" ry="8"/><text text-anchor="middle" fill="#FFF" x="35" y="-23">57</text></a><g transform="translate(0,-43)"><g><a target="_top" xlink:href="dtp-slice1-step5605201-ofs0-col12-cat3.html"><rect style="display:none" class="hcell-act-col12-cat3" fill="#F0AD4E" stroke="#000" stroke-width="5" width="70" height="91" x="0" y="-96" rx="8" ry="8"/><rect class="hcell-col12-cat3" fill="#F0AD4E" stroke="#DDD" width="70" height="101" x="0" y="-101" rx="8" ry="8"/><text text-anchor="middle" fill="#FFF" x="35" y="-81">134</text></a><g transform="translate(0,-101)"><g><a target="_top" xlink:href="dtp-slice1-step5605201-ofs0-col12-cat0.html"><rect style="display:none" class="hcell-act-col12-cat0" fill="#5CB85C" stroke="#000" stroke-width="5" width="70" height="213" x="0" y="-218" rx="8" ry="8"/><rect class="hcell-col12-cat0" fill="#5CB85C" stroke="#DDD" width="70" height="223" x="0" y="-223" rx="8" ry="8"/><text text-anchor="middle" fill="#FFF" x="35" y="-203">294</text></a></g></g></g></g></g></g></g></g></g></g><rect fill="none" stroke="#DDD" width="70" height="30" rx="8" ry="8" x="965" y="442"/><text text-anchor="middle" fill="#333" x="1000" y="462">14-08</text><g transform="translate(965,482)"></g></g><g><g transform="translate(1045,432)"><g><a target="_top" xlink:href="dtp-slice1-step5605201-ofs0-col13-cat2.html"><rect style="display:none" class="hcell-act-col13-cat2" fill="#337AB7" stroke="#000" stroke-width="5" width="70" height="31" x="0" y="-36" rx="8" ry="8"/><rect class="hcell-col13-cat2" fill="#337AB7" stroke="#DDD" width="70" height="41" x="0" y="-41" rx="8" ry="8"/><text text-anchor="middle" fill="#FFF" x="35" y="-21">54</text></a><g transform="translate(0,-41)"><g><a target="_top" xlink:href="dtp-slice1-step5605201-ofs0-col13-cat1.html"><rect style="display:none" class="hcell-act-col13-cat1" fill="#5BC0DE" stroke="#000" stroke-width="5" width="70" height="43" x="0" y="-48" rx="8" ry="8"/><rect class="hcell-col13-cat1" fill="#5BC0DE" stroke="#DDD" width="70" height="53" x="0" y="-53" rx="8" ry="8"/><text text-anchor="middle" fill="#FFF" x="35" y="-33">70</text></a><g transform="translate(0,-53)"><g><a target="_top" xlink:href="dtp-slice1-step5605201-ofs0-col13-cat3.html"><rect style="display:none" class="hcell-act-col13-cat3" fill="#F0AD4E" stroke="#000" stroke-width="5" width="70" height="44" x="0" y="-49" rx="8" ry="8"/><rect class="hcell-col13-cat3" fill="#F0AD4E" stroke="#DDD" width="70" height="54" x="0" y="-54" rx="8" ry="8"/><text text-anchor="middle" fill="#FFF" x="35" y="-34">71</text></a><g transform="translate(0,-54)"><g><a target="_top" xlink:href="dtp-slice1-step5605201-ofs0-col13-cat4.html"><rect style="display:none" class="hcell-act-col13-cat4" fill="#D9534F" stroke="#000" stroke-width="5" width="70" height="45" x="0" y="-50" rx="8" ry="8"/><rect class="hcell-col13-cat4" fill="#D9534F" stroke="#DDD" width="70" height="55" x="0" y="-55" rx="8" ry="8"/><text text-anchor="middle" fill="#FFF" x="35" y="-35">73</text></a><g transform="translate(0,-55)"><g><a target="_top" xlink:href="dtp-slice1-step5605201-ofs0-col13-cat0.html"><rect style="display:none" class="hcell-act-col13-cat0" fill="#5CB85C" stroke="#000" stroke-width="5" width="70" height="156" x="0" y="-161" rx="8" ry="8"/><rect class="hcell-col13-cat0" fill="#5CB85C" stroke="#DDD" width="70" height="166" x="0" y="-166" rx="8" ry="8"/><text text-anchor="middle" fill="#FFF" x="35" y="-146">219</text></a></g></g></g></g></g></g></g></g></g></g><rect fill="none" stroke="#DDD" width="70" height="30" rx="8" ry="8" x="1045" y="442"/><text text-anchor="middle" fill="#333" x="1080" y="462">14-10</text><g transform="translate(1045,482)"></g></g><g><g transform="translate(1125,432)"><g><a target="_top" xlink:href="dtp-slice1-step5605201-ofs0-col14-cat2.html"><rect style="display:none" class="hcell-act-col14-cat2" fill="#337AB7" stroke="#000" stroke-width="5" width="70" height="20" x="0" y="-25" rx="8" ry="8"/><rect class="hcell-col14-cat2" fill="#337AB7" stroke="#DDD" width="70" height="30" x="0" y="-30" rx="8" ry="8"/><text text-anchor="middle" fill="#FFF" x="35" y="-10">3</text></a><g transform="translate(0,-30)"><g><a target="_top" xlink:href="dtp-slice1-step5605201-ofs0-col14-cat4.html"><rect style="display:none" class="hcell-act-col14-cat4" fill="#D9534F" stroke="#000" stroke-width="5" width="70" height="20" x="0" y="-25" rx="8" ry="8"/><rect class="hcell-col14-cat4" fill="#D9534F" stroke="#DDD" width="70" height="30" x="0" y="-30" rx="8" ry="8"/><text text-anchor="middle" fill="#FFF" x="35" y="-10">15</text></a><g transform="translate(0,-30)"><g><a target="_top" xlink:href="dtp-slice1-step5605201-ofs0-col14-cat1.html"><rect style="display:none" class="hcell-act-col14-cat1" fill="#5BC0DE" stroke="#000" stroke-width="5" width="70" height="79" x="0" y="-84" rx="8" ry="8"/><rect class="hcell-col14-cat1" fill="#5BC0DE" stroke="#DDD" width="70" height="89" x="0" y="-89" rx="8" ry="8"/><text text-anchor="middle" fill="#FFF" x="35" y="-69">117</text></a><g transform="translate(0,-89)"><g><a target="_top" xlink:href="dtp-slice1-step5605201-ofs0-col14-cat0.html"><rect style="display:none" class="hcell-act-col14-cat0" fill="#5CB85C" stroke="#000" stroke-width="5" width="70" height="125" x="0" y="-130" rx="8" ry="8"/><rect class="hcell-col14-cat0" fill="#5CB85C" stroke="#DDD" width="70" height="135" x="0" y="-135" rx="8" ry="8"/><text text-anchor="middle" fill="#FFF" x="35" y="-115">177</text></a></g></g></g></g></g></g></g></g><rect fill="none" stroke="#DDD" width="70" height="30" rx="8" ry="8" x="1125" y="442"/><text text-anchor="middle" fill="#333" x="1160" y="462">14-12</text><g transform="translate(1125,482)"></g></g><g><g transform="translate(1205,432)"><g><a target="_top" xlink:href="dtp-slice1-step5605201-ofs0-col15-cat0.html"><rect style="display:none" class="hcell-act-col15-cat0" fill="#5CB85C" stroke="#000" stroke-width="5" width="70" height="20" x="0" y="-25" rx="8" ry="8"/><rect class="hcell-col15-cat0" fill="#5CB85C" stroke="#DDD" width="70" height="30" x="0" y="-30" rx="8" ry="8"/><text text-anchor="middle" fill="#FFF" x="35" y="-10">36</text></a><g transform="translate(0,-30)"><g><a target="_top" xlink:href="dtp-slice1-step5605201-ofs0-col15-cat2.html"><rect style="display:none" class="hcell-act-col15-cat2" fill="#337AB7" stroke="#000" stroke-width="5" width="70" height="24" x="0" y="-29" rx="8" ry="8"/><rect class="hcell-col15-cat2" fill="#337AB7" stroke="#DDD" width="70" height="34" x="0" y="-34" rx="8" ry="8"/><text text-anchor="middle" fill="#FFF" x="35" y="-14">45</text></a><g transform="translate(0,-34)"><g><a target="_top" xlink:href="dtp-slice1-step5605201-ofs0-col15-cat4.html"><rect style="display:none" class="hcell-act-col15-cat4" fill="#D9534F" stroke="#000" stroke-width="5" width="70" height="31" x="0" y="-36" rx="8" ry="8"/><rect class="hcell-col15-cat4" fill="#D9534F" stroke="#DDD" width="70" height="41" x="0" y="-41" rx="8" ry="8"/><text text-anchor="middle" fill="#FFF" x="35" y="-21">54</text></a><g transform="translate(0,-41)"><g><a target="_top" xlink:href="dtp-slice1-step5605201-ofs0-col15-cat3.html"><rect style="display:none" class="hcell-act-col15-cat3" fill="#F0AD4E" stroke="#000" stroke-width="5" width="70" height="53" x="0" y="-58" rx="8" ry="8"/><rect class="hcell-col15-cat3" fill="#F0AD4E" stroke="#DDD" width="70" height="63" x="0" y="-63" rx="8" ry="8"/><text text-anchor="middle" fill="#FFF" x="35" y="-43">83</text></a><g transform="translate(0,-63)"><g><a target="_top" xlink:href="dtp-slice1-step5605201-ofs0-col15-cat1.html"><rect style="display:none" class="hcell-act-col15-cat1" fill="#5BC0DE" stroke="#000" stroke-width="5" width="70" height="70" x="0" y="-75" rx="8" ry="8"/><rect class="hcell-col15-cat1" fill="#5BC0DE" stroke="#DDD" width="70" height="80" x="0" y="-80" rx="8" ry="8"/><text text-anchor="middle" fill="#FFF" x="35" y="-60">106</text></a></g></g></g></g></g></g></g></g></g></g><rect fill="none" stroke="#DDD" width="70" height="30" rx="8" ry="8" x="1205" y="442"/><text text-anchor="middle" fill="#333" x="1240" y="462">15-03</text><g transform="translate(1205,482)"></g></g></svg>