<svg xmlns="http://www.w3.org/2000/svg" xmlns:xlink="http://www.w3.org/1999/xlink" width="100%" height="100%" viewBox="0 0 1280 459"><g><g transform="translate(5,98)"></g><rect fill="none" stroke="#DDD" width="70" height="30" rx="8" ry="8" x="5" y="108"/><text text-anchor="middle" fill="#333" x="40" y="128">14-01</text><g transform="translate(5,148)"></g></g><g><g transform="translate(85,98)"></g><rect fill="none" stroke="#DDD" width="70" height="30" rx="8" ry="8" x="85" y="108"/><text text-anchor="middle" fill="#333" x="120" y="128">14-03</text><g transform="translate(85,148)"></g></g><g><g transform="translate(165,98)"></g><rect fill="none" stroke="#DDD" width="70" height="30" rx="8" ry="8" x="165" y="108"/><text text-anchor="middle" fill="#333" x="200" y="128">14-04</text><g transform="translate(165,148)"></g></g><g><g transform="translate(245,98)"></g><rect fill="none" stroke="#DDD" width="70" height="30" rx="8" ry="8" x="245" y="108"/><text text-anchor="middle" fill="#333" x="280" y="128">14-05</text><g transform="translate(245,148)"></g></g><g><g transform="translate(325,98)"></g><rect fill="none" stroke="#DDD" width="70" height="30" rx="8" ry="8" x="325" y="108"/><text text-anchor="middle" fill="#333" x="360" y="128">14-06</text><g transform="translate(325,148)"></g></g><g><g transform="translate(405,98)"></g><rect fill="none" stroke="#DDD" width="70" height="30" rx="8" ry="8" x="405" y="108"/><text text-anchor="middle" fill="#333" x="440" y="128">14-07</text><g transform="translate(405,148)"></g></g><g><g transform="translate(485,98)"></g><rect fill="none" stroke="#DDD" width="70" height="30" rx="8" ry="8" x="485" y="108"/><text text-anchor="middle" fill="#333" x="520" y="128">14-08</text><g transform="translate(485,148)"><g><a target="_top" xlink:href="dtp-sliceTagMovies-step2628000-ofs19-col25-cat0.html"><rect style="display:none" class="hcell-act-col25-cat0" fill="#777" stroke="#000" stroke-width="5" width="70" height="20" x="0" y="5" rx="8" ry="8"/><rect class="hcell-col25-cat0" fill="#777" stroke="#DDD" width="70" height="30" x="0" y="0" rx="8" ry="8"/><text text-anchor="middle" fill="#FFF" x="35" y="20">-3</text></a></g></g></g><g><g transform="translate(565,98)"></g><rect fill="none" stroke="#DDD" width="70" height="30" rx="8" ry="8" x="565" y="108"/><text text-anchor="middle" fill="#333" x="600" y="128">14-08</text><g transform="translate(565,148)"><g><a target="_top" xlink:href="dtp-sliceTagMovies-step2628000-ofs19-col26-cat0.html"><rect style="display:none" class="hcell-act-col26-cat0" fill="#777" stroke="#000" stroke-width="5" width="70" height="92" x="0" y="5" rx="8" ry="8"/><rect class="hcell-col26-cat0" fill="#777" stroke="#DDD" width="70" height="102" x="0" y="0" rx="8" ry="8"/><text text-anchor="middle" fill="#FFF" x="35" y="20">-11</text></a></g></g></g><g><g transform="translate(645,98)"></g><rect fill="none" stroke="#DDD" width="70" height="30" rx="8" ry="8" x="645" y="108"/><text text-anchor="middle" fill="#333" x="680" y="128">14-10</text><g transform="translate(645,148)"><g><a target="_top" xlink:href="dtp-sliceTagMovies-step2628000-ofs19-col27-cat0.html"><rect style="display:none" class="hcell-act-col27-cat0" fill="#777" stroke="#000" stroke-width="5" width="70" height="160" x="0" y="5" rx="8" ry="8"/><rect class="hcell-col27-cat0" fill="#777" stroke="#DDD" width="70" height="170" x="0" y="0" rx="8" ry="8"/><text text-anchor="middle" fill="#FFF" x="35" y="20">-17</text></a></g></g></g><g><g transform="translate(725,98)"><g><a target="_top" xlink:href="dtp-sliceTagMovies-step2628000-ofs19-col28-cat0.html"><rect style="display:none" class="hcell-act-col28-cat0" fill="#777" stroke="#000" stroke-width="5" width="70" height="83" x="0" y="-88" rx="8" ry="8"/><rect class="hcell-col28-cat0" fill="#777" stroke="#DDD" width="70" height="93" x="0" y="-93" rx="8" ry="8"/><text text-anchor="middle" fill="#FFF" x="35" y="-73">9</text></a></g></g><rect fill="none" stroke="#DDD" width="70" height="30" rx="8" ry="8" x="725" y="108"/><text text-anchor="middle" fill="#333" x="760" y="128">14-10</text><g transform="translate(725,148)"></g></g><g><g transform="translate(805,98)"></g><rect fill="none" stroke="#DDD" width="70" height="30" rx="8" ry="8" x="805" y="108"/><text text-anchor="middle" fill="#333" x="840" y="128">14-12</text><g transform="translate(805,148)"><g><a target="_top" xlink:href="dtp-sliceTagMovies-step2628000-ofs19-col29-cat0.html"><rect style="display:none" class="hcell-act-col29-cat0" fill="#777" stroke="#000" stroke-width="5" width="70" height="163" x="0" y="5" rx="8" ry="8"/><rect class="hcell-col29-cat0" fill="#777" stroke="#DDD" width="70" height="173" x="0" y="0" rx="8" ry="8"/><text text-anchor="middle" fill="#FFF" x="35" y="20">-17</text></a></g></g></g><g><g transform="translate(885,98)"></g><rect fill="none" stroke="#DDD" width="70" height="30" rx="8" ry="8" x="885" y="108"/><text text-anchor="middle" fill="#333" x="920" y="128">14-12</text><g transform="translate(885,148)"><g><a target="_top" xlink:href="dtp-sliceTagMovies-step2628000-ofs19-col30-cat0.html"><rect style="display:none" class="hcell-act-col30-cat0" fill="#777" stroke="#000" stroke-width="5" width="70" height="107" x="0" y="5" rx="8" ry="8"/><rect class="hcell-col30-cat0" fill="#777" stroke="#DDD" width="70" height="117" x="0" y="0" rx="8" ry="8"/><text text-anchor="middle" fill="#FFF" x="35" y="20">-12</text></a></g></g></g><g><g transform="translate(965,98)"><g><a target="_top" xlink:href="dtp-sliceTagMovies-step2628000-ofs19-col31-cat0.html"><rect style="display:none" class="hcell-act-col31-cat0" fill="#777" stroke="#000" stroke-width="5" width="70" height="46" x="0" y="-51" rx="8" ry="8"/><rect class="hcell-col31-cat0" fill="#777" stroke="#DDD" width="70" height="56" x="0" y="-56" rx="8" ry="8"/><text text-anchor="middle" fill="#FFF" x="35" y="-36">5</text></a></g></g><rect fill="none" stroke="#DDD" width="70" height="30" rx="8" ry="8" x="965" y="108"/><text text-anchor="middle" fill="#333" x="1000" y="128">15-01</text><g transform="translate(965,148)"></g></g><g><g transform="translate(1045,98)"></g><rect fill="none" stroke="#DDD" width="70" height="30" rx="8" ry="8" x="1045" y="108"/><text text-anchor="middle" fill="#333" x="1080" y="128">15-03</text><g transform="translate(1045,148)"><g><a target="_top" xlink:href="dtp-sliceTagMovies-step2628000-ofs19-col32-cat0.html"><rect style="display:none" class="hcell-act-col32-cat0" fill="#777" stroke="#000" stroke-width="5" width="70" height="221" x="0" y="5" rx="8" ry="8"/><rect class="hcell-col32-cat0" fill="#777" stroke="#DDD" width="70" height="231" x="0" y="0" rx="8" ry="8"/><text text-anchor="middle" fill="#FFF" x="35" y="20">-23</text></a></g></g></g><g><g transform="translate(1125,98)"></g><rect fill="none" stroke="#DDD" width="70" height="30" rx="8" ry="8" x="1125" y="108"/><text text-anchor="middle" fill="#333" x="1160" y="128">15-04</text><g transform="translate(1125,148)"><g><a target="_top" xlink:href="dtp-sliceTagMovies-step2628000-ofs19-col33-cat0.html"><rect style="display:none" class="hcell-act-col33-cat0" fill="#777" stroke="#000" stroke-width="5" width="70" height="85" x="0" y="5" rx="8" ry="8"/><rect class="hcell-col33-cat0" fill="#777" stroke="#DDD" width="70" height="95" x="0" y="0" rx="8" ry="8"/><text text-anchor="middle" fill="#FFF" x="35" y="20">-10</text></a></g></g></g><g><g transform="translate(1205,98)"></g><rect fill="none" stroke="#DDD" width="70" height="30" rx="8" ry="8" x="1205" y="108"/><text text-anchor="middle" fill="#333" x="1240" y="128">15-05</text><g transform="translate(1205,148)"><g><a target="_top" xlink:href="dtp-sliceTagMovies-step2628000-ofs19-col34-cat0.html"><rect style="display:none" class="hcell-act-col34-cat0" fill="#777" stroke="#000" stroke-width="5" width="70" height="296" x="0" y="5" rx="8" ry="8"/><rect class="hcell-col34-cat0" fill="#777" stroke="#DDD" width="70" height="306" x="0" y="0" rx="8" ry="8"/><text text-anchor="middle" fill="#FFF" x="35" y="20">-30</text></a></g></g></g></svg>