<svg xmlns="http://www.w3.org/2000/svg" xmlns:xlink="http://www.w3.org/1999/xlink" width="100%" height="100%" viewBox="0 0 1280 459"><g><g transform="translate(5,269)"></g><rect fill="none" stroke="#DDD" width="70" height="30" rx="8" ry="8" x="5" y="279"/><text text-anchor="middle" fill="#333" x="40" y="299">12-07</text><g transform="translate(5,319)"></g></g><g><g transform="translate(85,269)"></g><rect fill="none" stroke="#DDD" width="70" height="30" rx="8" ry="8" x="85" y="279"/><text text-anchor="middle" fill="#333" x="120" y="299">12-09</text><g transform="translate(85,319)"></g></g><g><g transform="translate(165,269)"></g><rect fill="none" stroke="#DDD" width="70" height="30" rx="8" ry="8" x="165" y="279"/><text text-anchor="middle" fill="#333" x="200" y="299">12-11</text><g transform="translate(165,319)"></g></g><g><g transform="translate(245,269)"></g><rect fill="none" stroke="#DDD" width="70" height="30" rx="8" ry="8" x="245" y="279"/><text text-anchor="middle" fill="#333" x="280" y="299">13-01</text><g transform="translate(245,319)"></g></g><g><g transform="translate(325,269)"></g><rect fill="none" stroke="#DDD" width="70" height="30" rx="8" ry="8" x="325" y="279"/><text text-anchor="middle" fill="#333" x="360" y="299">13-03</text><g transform="translate(325,319)"></g></g><g><g transform="translate(405,269)"></g><rect fill="none" stroke="#DDD" width="70" height="30" rx="8" ry="8" x="405" y="279"/><text text-anchor="middle" fill="#333" x="440" y="299">13-05</text><g transform="translate(405,319)"></g></g><g><g transform="translate(485,269)"></g><rect fill="none" stroke="#DDD" width="70" height="30" rx="8" ry="8" x="485" y="279"/><text text-anchor="middle" fill="#333" x="520" y="299">13-07</text><g transform="translate(485,319)"></g></g><g><g transform="translate(565,269)"></g><rect fill="none" stroke="#DDD" width="70" height="30" rx="8" ry="8" x="565" y="279"/><text text-anchor="middle" fill="#333" x="600" y="299">13-09</text><g transform="translate(565,319)"></g></g><g><g transform="translate(645,269)"></g><rect fill="none" stroke="#DDD" width="70" height="30" rx="8" ry="8" x="645" y="279"/><text text-anchor="middle" fill="#333" x="680" y="299">13-12</text><g transform="translate(645,319)"></g></g><g><g transform="translate(725,269)"></g><rect fill="none" stroke="#DDD" width="70" height="30" rx="8" ry="8" x="725" y="279"/><text text-anchor="middle" fill="#333" x="760" y="299">14-02</text><g transform="translate(725,319)"></g></g><g><g transform="translate(805,269)"></g><rect fill="none" stroke="#DDD" width="70" height="30" rx="8" ry="8" x="805" y="279"/><text text-anchor="middle" fill="#333" x="840" y="299">14-04</text><g transform="translate(805,319)"></g></g><g><g transform="translate(885,269)"><g><a target="_top" xlink:href="dtp-sliceTagVisa8394-step5605201-ofs0-col11-cat0.html"><rect style="display:none" class="hcell-act-col11-cat0" fill="#777" stroke="#000" stroke-width="5" width="70" height="241" x="0" y="-246" rx="8" ry="8"/><rect class="hcell-col11-cat0" fill="#777" stroke="#DDD" width="70" height="251" x="0" y="-251" rx="8" ry="8"/><text text-anchor="middle" fill="#FFF" x="35" y="-231">1670</text></a></g></g><rect fill="none" stroke="#DDD" width="70" height="30" rx="8" ry="8" x="885" y="279"/><text text-anchor="middle" fill="#333" x="920" y="299">14-06</text><g transform="translate(885,319)"></g></g><g><g transform="translate(965,269)"></g><rect fill="none" stroke="#DDD" width="70" height="30" rx="8" ry="8" x="965" y="279"/><text text-anchor="middle" fill="#333" x="1000" y="299">14-08</text><g transform="translate(965,319)"><g><a target="_top" xlink:href="dtp-sliceTagVisa8394-step5605201-ofs0-col12-cat0.html"><rect style="display:none" class="hcell-act-col12-cat0" fill="#777" stroke="#000" stroke-width="5" width="70" height="87" x="0" y="5" rx="8" ry="8"/><rect class="hcell-col12-cat0" fill="#777" stroke="#DDD" width="70" height="97" x="0" y="0" rx="8" ry="8"/><text text-anchor="middle" fill="#FFF" x="35" y="20">-644</text></a></g></g></g><g><g transform="translate(1045,269)"></g><rect fill="none" stroke="#DDD" width="70" height="30" rx="8" ry="8" x="1045" y="279"/><text text-anchor="middle" fill="#333" x="1080" y="299">14-10</text><g transform="translate(1045,319)"><g><a target="_top" xlink:href="dtp-sliceTagVisa8394-step5605201-ofs0-col13-cat0.html"><rect style="display:none" class="hcell-act-col13-cat0" fill="#777" stroke="#000" stroke-width="5" width="70" height="125" x="0" y="5" rx="8" ry="8"/><rect class="hcell-col13-cat0" fill="#777" stroke="#DDD" width="70" height="135" x="0" y="0" rx="8" ry="8"/><text text-anchor="middle" fill="#FFF" x="35" y="20">-899</text></a></g></g></g><g><g transform="translate(1125,269)"><g><a target="_top" xlink:href="dtp-sliceTagVisa8394-step5605201-ofs0-col14-cat0.html"><rect style="display:none" class="hcell-act-col14-cat0" fill="#777" stroke="#000" stroke-width="5" width="70" height="254" x="0" y="-259" rx="8" ry="8"/><rect class="hcell-col14-cat0" fill="#777" stroke="#DDD" width="70" height="264" x="0" y="-264" rx="8" ry="8"/><text text-anchor="middle" fill="#FFF" x="35" y="-244">1753</text></a></g></g><rect fill="none" stroke="#DDD" width="70" height="30" rx="8" ry="8" x="1125" y="279"/><text text-anchor="middle" fill="#333" x="1160" y="299">14-12</text><g transform="translate(1125,319)"></g></g><g><g transform="translate(1205,269)"><g><a target="_top" xlink:href="dtp-sliceTagVisa8394-step5605201-ofs0-col15-cat0.html"><rect style="display:none" class="hcell-act-col15-cat0" fill="#777" stroke="#000" stroke-width="5" width="70" height="114" x="0" y="-119" rx="8" ry="8"/><rect class="hcell-col15-cat0" fill="#777" stroke="#DDD" width="70" height="124" x="0" y="-124" rx="8" ry="8"/><text text-anchor="middle" fill="#FFF" x="35" y="-104">823</text></a></g></g><rect fill="none" stroke="#DDD" width="70" height="30" rx="8" ry="8" x="1205" y="279"/><text text-anchor="middle" fill="#333" x="1240" y="299">15-03</text><g transform="translate(1205,319)"></g></g></svg>