<svg xmlns="http://www.w3.org/2000/svg" xmlns:xlink="http://www.w3.org/1999/xlink" width="100%" height="100%" viewBox="0 0 1280 459"><g><g transform="translate(5,370)"><g><a target="_top" xlink:href="dtp-sliceTagPayment-step2628000-ofs19-col19-cat0.html"><rect style="display:none" class="hcell-act-col19-cat0" fill="#777" stroke="#000" stroke-width="5" width="70" height="355" x="0" y="-360" rx="8" ry="8"/><rect class="hcell-col19-cat0" fill="#777" stroke="#DDD" width="70" height="365" x="0" y="-365" rx="8" ry="8"/><text text-anchor="middle" fill="#FFF" x="35" y="-345">1853</text></a></g></g><rect fill="none" stroke="#DDD" width="70" height="30" rx="8" ry="8" x="5" y="380"/><text text-anchor="middle" fill="#333" x="40" y="400">14-01</text><g transform="translate(5,420)"><g><a target="_top" xlink:href="dtp-sliceTagPayment-step2628000-ofs19-col19-cat0.html"><rect style="display:none" class="hcell-act-col19-cat0" fill="#777" stroke="#000" stroke-width="5" width="70" height="20" x="0" y="5" rx="8" ry="8"/><rect class="hcell-col19-cat0" fill="#777" stroke="#DDD" width="70" height="30" x="0" y="0" rx="8" ry="8"/><text text-anchor="middle" fill="#FFF" x="35" y="20">-50</text></a></g></g></g><g><g transform="translate(85,370)"><g><a target="_top" xlink:href="dtp-sliceTagPayment-step2628000-ofs19-col20-cat0.html"><rect style="display:none" class="hcell-act-col20-cat0" fill="#777" stroke="#000" stroke-width="5" width="70" height="331" x="0" y="-336" rx="8" ry="8"/><rect class="hcell-col20-cat0" fill="#777" stroke="#DDD" width="70" height="341" x="0" y="-341" rx="8" ry="8"/><text text-anchor="middle" fill="#FFF" x="35" y="-321">1734</text></a></g></g><rect fill="none" stroke="#DDD" width="70" height="30" rx="8" ry="8" x="85" y="380"/><text text-anchor="middle" fill="#333" x="120" y="400">14-03</text><g transform="translate(85,420)"><g><a target="_top" xlink:href="dtp-sliceTagPayment-step2628000-ofs19-col20-cat0.html"><rect style="display:none" class="hcell-act-col20-cat0" fill="#777" stroke="#000" stroke-width="5" width="70" height="20" x="0" y="5" rx="8" ry="8"/><rect class="hcell-col20-cat0" fill="#777" stroke="#DDD" width="70" height="30" x="0" y="0" rx="8" ry="8"/><text text-anchor="middle" fill="#FFF" x="35" y="20">-77</text></a></g></g></g><g><g transform="translate(165,370)"><g><a target="_top" xlink:href="dtp-sliceTagPayment-step2628000-ofs19-col21-cat0.html"><rect style="display:none" class="hcell-act-col21-cat0" fill="#777" stroke="#000" stroke-width="5" width="70" height="184" x="0" y="-189" rx="8" ry="8"/><rect class="hcell-col21-cat0" fill="#777" stroke="#DDD" width="70" height="194" x="0" y="-194" rx="8" ry="8"/><text text-anchor="middle" fill="#FFF" x="35" y="-174">989</text></a></g></g><rect fill="none" stroke="#DDD" width="70" height="30" rx="8" ry="8" x="165" y="380"/><text text-anchor="middle" fill="#333" x="200" y="400">14-04</text><g transform="translate(165,420)"><g><a target="_top" xlink:href="dtp-sliceTagPayment-step2628000-ofs19-col21-cat0.html"><rect style="display:none" class="hcell-act-col21-cat0" fill="#777" stroke="#000" stroke-width="5" width="70" height="20" x="0" y="5" rx="8" ry="8"/><rect class="hcell-col21-cat0" fill="#777" stroke="#DDD" width="70" height="30" x="0" y="0" rx="8" ry="8"/><text text-anchor="middle" fill="#FFF" x="35" y="20">-56</text></a></g></g></g><g><g transform="translate(245,370)"><g><a target="_top" xlink:href="dtp-sliceTagPayment-step2628000-ofs19-col22-cat0.html"><rect style="display:none" class="hcell-act-col22-cat0" fill="#777" stroke="#000" stroke-width="5" width="70" height="20" x="0" y="-25" rx="8" ry="8"/><rect class="hcell-col22-cat0" fill="#777" stroke="#DDD" width="70" height="30" x="0" y="-30" rx="8" ry="8"/><text text-anchor="middle" fill="#FFF" x="35" y="-10">83</text></a></g></g><rect fill="none" stroke="#DDD" width="70" height="30" rx="8" ry="8" x="245" y="380"/><text text-anchor="middle" fill="#333" x="280" y="400">14-05</text><g transform="translate(245,420)"><g><a target="_top" xlink:href="dtp-sliceTagPayment-step2628000-ofs19-col22-cat0.html"><rect style="display:none" class="hcell-act-col22-cat0" fill="#777" stroke="#000" stroke-width="5" width="70" height="20" x="0" y="5" rx="8" ry="8"/><rect class="hcell-col22-cat0" fill="#777" stroke="#DDD" width="70" height="30" x="0" y="0" rx="8" ry="8"/><text text-anchor="middle" fill="#FFF" x="35" y="20">-97</text></a></g></g></g><g><g transform="translate(325,370)"><g><a target="_top" xlink:href="dtp-sliceTagPayment-step2628000-ofs19-col23-cat0.html"><rect style="display:none" class="hcell-act-col23-cat0" fill="#777" stroke="#000" stroke-width="5" width="70" height="242" x="0" y="-247" rx="8" ry="8"/><rect class="hcell-col23-cat0" fill="#777" stroke="#DDD" width="70" height="252" x="0" y="-252" rx="8" ry="8"/><text text-anchor="middle" fill="#FFF" x="35" y="-232">1282</text></a></g></g><rect fill="none" stroke="#DDD" width="70" height="30" rx="8" ry="8" x="325" y="380"/><text text-anchor="middle" fill="#333" x="360" y="400">14-06</text><g transform="translate(325,420)"><g><a target="_top" xlink:href="dtp-sliceTagPayment-step2628000-ofs19-col23-cat0.html"><rect style="display:none" class="hcell-act-col23-cat0" fill="#777" stroke="#000" stroke-width="5" width="70" height="20" x="0" y="5" rx="8" ry="8"/><rect class="hcell-col23-cat0" fill="#777" stroke="#DDD" width="70" height="30" x="0" y="0" rx="8" ry="8"/><text text-anchor="middle" fill="#FFF" x="35" y="20">-17</text></a></g></g></g><g><g transform="translate(405,370)"><g><a target="_top" xlink:href="dtp-sliceTagPayment-step2628000-ofs19-col24-cat0.html"><rect style="display:none" class="hcell-act-col24-cat0" fill="#777" stroke="#000" stroke-width="5" width="70" height="20" x="0" y="-25" rx="8" ry="8"/><rect class="hcell-col24-cat0" fill="#777" stroke="#DDD" width="70" height="30" x="0" y="-30" rx="8" ry="8"/><text text-anchor="middle" fill="#FFF" x="35" y="-10">74</text></a></g></g><rect fill="none" stroke="#DDD" width="70" height="30" rx="8" ry="8" x="405" y="380"/><text text-anchor="middle" fill="#333" x="440" y="400">14-07</text><g transform="translate(405,420)"><g><a target="_top" xlink:href="dtp-sliceTagPayment-step2628000-ofs19-col24-cat0.html"><rect style="display:none" class="hcell-act-col24-cat0" fill="#777" stroke="#000" stroke-width="5" width="70" height="20" x="0" y="5" rx="8" ry="8"/><rect class="hcell-col24-cat0" fill="#777" stroke="#DDD" width="70" height="30" x="0" y="0" rx="8" ry="8"/><text text-anchor="middle" fill="#FFF" x="35" y="20">-74</text></a></g></g></g><g><g transform="translate(485,370)"><g><a target="_top" xlink:href="dtp-sliceTagPayment-step2628000-ofs19-col25-cat0.html"><rect style="display:none" class="hcell-act-col25-cat0" fill="#777" stroke="#000" stroke-width="5" width="70" height="336" x="0" y="-341" rx="8" ry="8"/><rect class="hcell-col25-cat0" fill="#777" stroke="#DDD" width="70" height="346" x="0" y="-346" rx="8" ry="8"/><text text-anchor="middle" fill="#FFF" x="35" y="-326">1757</text></a></g></g><rect fill="none" stroke="#DDD" width="70" height="30" rx="8" ry="8" x="485" y="380"/><text text-anchor="middle" fill="#333" x="520" y="400">14-08</text><g transform="translate(485,420)"><g><a target="_top" xlink:href="dtp-sliceTagPayment-step2628000-ofs19-col25-cat0.html"><rect style="display:none" class="hcell-act-col25-cat0" fill="#777" stroke="#000" stroke-width="5" width="70" height="20" x="0" y="5" rx="8" ry="8"/><rect class="hcell-col25-cat0" fill="#777" stroke="#DDD" width="70" height="30" x="0" y="0" rx="8" ry="8"/><text text-anchor="middle" fill="#FFF" x="35" y="20">-88</text></a></g></g></g><g><g transform="translate(565,370)"><g><a target="_top" xlink:href="dtp-sliceTagPayment-step2628000-ofs19-col26-cat0.html"><rect style="display:none" class="hcell-act-col26-cat0" fill="#777" stroke="#000" stroke-width="5" width="70" height="333" x="0" y="-338" rx="8" ry="8"/><rect class="hcell-col26-cat0" fill="#777" stroke="#DDD" width="70" height="343" x="0" y="-343" rx="8" ry="8"/><text text-anchor="middle" fill="#FFF" x="35" y="-323">1742</text></a></g></g><rect fill="none" stroke="#DDD" width="70" height="30" rx="8" ry="8" x="565" y="380"/><text text-anchor="middle" fill="#333" x="600" y="400">14-08</text><g transform="translate(565,420)"><g><a target="_top" xlink:href="dtp-sliceTagPayment-step2628000-ofs19-col26-cat0.html"><rect style="display:none" class="hcell-act-col26-cat0" fill="#777" stroke="#000" stroke-width="5" width="70" height="20" x="0" y="5" rx="8" ry="8"/><rect class="hcell-col26-cat0" fill="#777" stroke="#DDD" width="70" height="30" x="0" y="0" rx="8" ry="8"/><text text-anchor="middle" fill="#FFF" x="35" y="20">-88</text></a></g></g></g><g><g transform="translate(645,370)"><g><a target="_top" xlink:href="dtp-sliceTagPayment-step2628000-ofs19-col27-cat0.html"><rect style="display:none" class="hcell-act-col27-cat0" fill="#777" stroke="#000" stroke-width="5" width="70" height="20" x="0" y="-25" rx="8" ry="8"/><rect class="hcell-col27-cat0" fill="#777" stroke="#DDD" width="70" height="30" x="0" y="-30" rx="8" ry="8"/><text text-anchor="middle" fill="#FFF" x="35" y="-10">71</text></a></g></g><rect fill="none" stroke="#DDD" width="70" height="30" rx="8" ry="8" x="645" y="380"/><text text-anchor="middle" fill="#333" x="680" y="400">14-10</text><g transform="translate(645,420)"><g><a target="_top" xlink:href="dtp-sliceTagPayment-step2628000-ofs19-col27-cat0.html"><rect style="display:none" class="hcell-act-col27-cat0" fill="#777" stroke="#000" stroke-width="5" width="70" height="20" x="0" y="5" rx="8" ry="8"/><rect class="hcell-col27-cat0" fill="#777" stroke="#DDD" width="70" height="30" x="0" y="0" rx="8" ry="8"/><text text-anchor="middle" fill="#FFF" x="35" y="20">-81</text></a></g></g></g><g><g transform="translate(725,370)"><g><a target="_top" xlink:href="dtp-sliceTagPayment-step2628000-ofs19-col28-cat0.html"><rect style="display:none" class="hcell-act-col28-cat0" fill="#777" stroke="#000" stroke-width="5" width="70" height="20" x="0" y="-25" rx="8" ry="8"/><rect class="hcell-col28-cat0" fill="#777" stroke="#DDD" width="70" height="30" x="0" y="-30" rx="8" ry="8"/><text text-anchor="middle" fill="#FFF" x="35" y="-10">37</text></a></g></g><rect fill="none" stroke="#DDD" width="70" height="30" rx="8" ry="8" x="725" y="380"/><text text-anchor="middle" fill="#333" x="760" y="400">14-10</text><g transform="translate(725,420)"><g><a target="_top" xlink:href="dtp-sliceTagPayment-step2628000-ofs19-col28-cat0.html"><rect style="display:none" class="hcell-act-col28-cat0" fill="#777" stroke="#000" stroke-width="5" width="70" height="24" x="0" y="5" rx="8" ry="8"/><rect class="hcell-col28-cat0" fill="#777" stroke="#DDD" width="70" height="34" x="0" y="0" rx="8" ry="8"/><text text-anchor="middle" fill="#FFF" x="35" y="20">-177</text></a></g></g></g><g><g transform="translate(805,370)"><g><a target="_top" xlink:href="dtp-sliceTagPayment-step2628000-ofs19-col29-cat0.html"><rect style="display:none" class="hcell-act-col29-cat0" fill="#777" stroke="#000" stroke-width="5" width="70" height="336" x="0" y="-341" rx="8" ry="8"/><rect class="hcell-col29-cat0" fill="#777" stroke="#DDD" width="70" height="346" x="0" y="-346" rx="8" ry="8"/><text text-anchor="middle" fill="#FFF" x="35" y="-326">1759</text></a></g></g><rect fill="none" stroke="#DDD" width="70" height="30" rx="8" ry="8" x="805" y="380"/><text text-anchor="middle" fill="#333" x="840" y="400">14-12</text><g transform="translate(805,420)"><g><a target="_top" xlink:href="dtp-sliceTagPayment-step2628000-ofs19-col29-cat0.html"><rect style="display:none" class="hcell-act-col29-cat0" fill="#777" stroke="#000" stroke-width="5" width="70" height="20" x="0" y="5" rx="8" ry="8"/><rect class="hcell-col29-cat0" fill="#777" stroke="#DDD" width="70" height="30" x="0" y="0" rx="8" ry="8"/><text text-anchor="middle" fill="#FFF" x="35" y="20">-67</text></a></g></g></g><g><g transform="translate(885,370)"><g><a target="_top" xlink:href="dtp-sliceTagPayment-step2628000-ofs19-col30-cat0.html"><rect style="display:none" class="hcell-act-col30-cat0" fill="#777" stroke="#000" stroke-width="5" width="70" height="143" x="0" y="-148" rx="8" ry="8"/><rect class="hcell-col30-cat0" fill="#777" stroke="#DDD" width="70" height="153" x="0" y="-153" rx="8" ry="8"/><text text-anchor="middle" fill="#FFF" x="35" y="-133">777</text></a></g></g><rect fill="none" stroke="#DDD" width="70" height="30" rx="8" ry="8" x="885" y="380"/><text text-anchor="middle" fill="#333" x="920" y="400">14-12</text><g transform="translate(885,420)"><g><a target="_top" xlink:href="dtp-sliceTagPayment-step2628000-ofs19-col30-cat0.html"><rect style="display:none" class="hcell-act-col30-cat0" fill="#777" stroke="#000" stroke-width="5" width="70" height="21" x="0" y="5" rx="8" ry="8"/><rect class="hcell-col30-cat0" fill="#777" stroke="#DDD" width="70" height="31" x="0" y="0" rx="8" ry="8"/><text text-anchor="middle" fill="#FFF" x="35" y="20">-161</text></a></g></g></g><g><g transform="translate(965,370)"><g><a target="_top" xlink:href="dtp-sliceTagPayment-step2628000-ofs19-col31-cat0.html"><rect style="display:none" class="hcell-act-col31-cat0" fill="#777" stroke="#000" stroke-width="5" width="70" height="300" x="0" y="-305" rx="8" ry="8"/><rect class="hcell-col31-cat0" fill="#777" stroke="#DDD" width="70" height="310" x="0" y="-310" rx="8" ry="8"/><text text-anchor="middle" fill="#FFF" x="35" y="-290">1578</text></a></g></g><rect fill="none" stroke="#DDD" width="70" height="30" rx="8" ry="8" x="965" y="380"/><text text-anchor="middle" fill="#333" x="1000" y="400">15-01</text><g transform="translate(965,420)"><g><a target="_top" xlink:href="dtp-sliceTagPayment-step2628000-ofs19-col31-cat0.html"><rect style="display:none" class="hcell-act-col31-cat0" fill="#777" stroke="#000" stroke-width="5" width="70" height="20" x="0" y="5" rx="8" ry="8"/><rect class="hcell-col31-cat0" fill="#777" stroke="#DDD" width="70" height="30" x="0" y="0" rx="8" ry="8"/><text text-anchor="middle" fill="#FFF" x="35" y="20">-44</text></a></g></g></g><g><g transform="translate(1045,370)"><g><a target="_top" xlink:href="dtp-sliceTagPayment-step2628000-ofs19-col32-cat0.html"><rect style="display:none" class="hcell-act-col32-cat0" fill="#777" stroke="#000" stroke-width="5" width="70" height="298" x="0" y="-303" rx="8" ry="8"/><rect class="hcell-col32-cat0" fill="#777" stroke="#DDD" width="70" height="308" x="0" y="-308" rx="8" ry="8"/><text text-anchor="middle" fill="#FFF" x="35" y="-288">1565</text></a></g></g><rect fill="none" stroke="#DDD" width="70" height="30" rx="8" ry="8" x="1045" y="380"/><text text-anchor="middle" fill="#333" x="1080" y="400">15-03</text><g transform="translate(1045,420)"></g></g><g><g transform="translate(1125,370)"><g><a target="_top" xlink:href="dtp-sliceTagPayment-step2628000-ofs19-col33-cat0.html"><rect style="display:none" class="hcell-act-col33-cat0" fill="#777" stroke="#000" stroke-width="5" width="70" height="340" x="0" y="-345" rx="8" ry="8"/><rect class="hcell-col33-cat0" fill="#777" stroke="#DDD" width="70" height="350" x="0" y="-350" rx="8" ry="8"/><text text-anchor="middle" fill="#FFF" x="35" y="-330">1779</text></a></g></g><rect fill="none" stroke="#DDD" width="70" height="30" rx="8" ry="8" x="1125" y="380"/><text text-anchor="middle" fill="#333" x="1160" y="400">15-04</text><g transform="translate(1125,420)"><g><a target="_top" xlink:href="dtp-sliceTagPayment-step2628000-ofs19-col33-cat0.html"><rect style="display:none" class="hcell-act-col33-cat0" fill="#777" stroke="#000" stroke-width="5" width="70" height="20" x="0" y="5" rx="8" ry="8"/><rect class="hcell-col33-cat0" fill="#777" stroke="#DDD" width="70" height="30" x="0" y="0" rx="8" ry="8"/><text text-anchor="middle" fill="#FFF" x="35" y="20">-96</text></a></g></g></g><g><g transform="translate(1205,370)"></g><rect fill="none" stroke="#DDD" width="70" height="30" rx="8" ry="8" x="1205" y="380"/><text text-anchor="middle" fill="#333" x="1240" y="400">15-05</text><g transform="translate(1205,420)"></g></g></svg>