<svg xmlns="http://www.w3.org/2000/svg" xmlns:xlink="http://www.w3.org/1999/xlink" width="100%" height="100%" viewBox="0 0 1280 460"><g><g transform="translate(5,165)"><g><a target="_top" xlink:href="dtp-sliceTagSavings2453-step5605201-ofs0-col0-cat0.html"><rect style="display:none" class="hcell-act-col0-cat0" fill="#777" stroke="#000" stroke-width="5" width="70" height="37" x="0" y="-42" rx="8" ry="8"/><rect class="hcell-col0-cat0" fill="#777" stroke="#DDD" width="70" height="47" x="0" y="-47" rx="8" ry="8"/><text text-anchor="middle" fill="#FFF" x="35" y="-27">590</text></a></g></g><rect fill="none" stroke="#DDD" width="70" height="30" rx="8" ry="8" x="5" y="175"/><text text-anchor="middle" fill="#333" x="40" y="195">12-07</text><g transform="translate(5,215)"></g></g><g><g transform="translate(85,165)"><g><a target="_top" xlink:href="dtp-sliceTagSavings2453-step5605201-ofs0-col1-cat0.html"><rect style="display:none" class="hcell-act-col1-cat0" fill="#777" stroke="#000" stroke-width="5" width="70" height="20" x="0" y="-25" rx="8" ry="8"/><rect class="hcell-col1-cat0" fill="#777" stroke="#DDD" width="70" height="30" x="0" y="-30" rx="8" ry="8"/><text text-anchor="middle" fill="#FFF" x="35" y="-10">202</text></a></g></g><rect fill="none" stroke="#DDD" width="70" height="30" rx="8" ry="8" x="85" y="175"/><text text-anchor="middle" fill="#333" x="120" y="195">12-09</text><g transform="translate(85,215)"></g></g><g><g transform="translate(165,165)"><g><a target="_top" xlink:href="dtp-sliceTagSavings2453-step5605201-ofs0-col2-cat0.html"><rect style="display:none" class="hcell-act-col2-cat0" fill="#777" stroke="#000" stroke-width="5" width="70" height="150" x="0" y="-155" rx="8" ry="8"/><rect class="hcell-col2-cat0" fill="#777" stroke="#DDD" width="70" height="160" x="0" y="-160" rx="8" ry="8"/><text text-anchor="middle" fill="#FFF" x="35" y="-140">2000</text></a></g></g><rect fill="none" stroke="#DDD" width="70" height="30" rx="8" ry="8" x="165" y="175"/><text text-anchor="middle" fill="#333" x="200" y="195">12-11</text><g transform="translate(165,215)"><g><a target="_top" xlink:href="dtp-sliceTagSavings2453-step5605201-ofs0-col2-cat0.html"><rect style="display:none" class="hcell-act-col2-cat0" fill="#777" stroke="#000" stroke-width="5" width="70" height="77" x="0" y="5" rx="8" ry="8"/><rect class="hcell-col2-cat0" fill="#777" stroke="#DDD" width="70" height="87" x="0" y="0" rx="8" ry="8"/><text text-anchor="middle" fill="#FFF" x="35" y="20">-1099</text></a></g></g></g><g><g transform="translate(245,165)"><g><a target="_top" xlink:href="dtp-sliceTagSavings2453-step5605201-ofs0-col3-cat0.html"><rect style="display:none" class="hcell-act-col3-cat0" fill="#777" stroke="#000" stroke-width="5" width="70" height="20" x="0" y="-25" rx="8" ry="8"/><rect class="hcell-col3-cat0" fill="#777" stroke="#DDD" width="70" height="30" x="0" y="-30" rx="8" ry="8"/><text text-anchor="middle" fill="#FFF" x="35" y="-10">222</text></a></g></g><rect fill="none" stroke="#DDD" width="70" height="30" rx="8" ry="8" x="245" y="175"/><text text-anchor="middle" fill="#333" x="280" y="195">13-01</text><g transform="translate(245,215)"></g></g><g><g transform="translate(325,165)"></g><rect fill="none" stroke="#DDD" width="70" height="30" rx="8" ry="8" x="325" y="175"/><text text-anchor="middle" fill="#333" x="360" y="195">13-03</text><g transform="translate(325,215)"></g></g><g><g transform="translate(405,165)"><g><a target="_top" xlink:href="dtp-sliceTagSavings2453-step5605201-ofs0-col5-cat0.html"><rect style="display:none" class="hcell-act-col5-cat0" fill="#777" stroke="#000" stroke-width="5" width="70" height="93" x="0" y="-98" rx="8" ry="8"/><rect class="hcell-col5-cat0" fill="#777" stroke="#DDD" width="70" height="103" x="0" y="-103" rx="8" ry="8"/><text text-anchor="middle" fill="#FFF" x="35" y="-83">1290</text></a></g></g><rect fill="none" stroke="#DDD" width="70" height="30" rx="8" ry="8" x="405" y="175"/><text text-anchor="middle" fill="#333" x="440" y="195">13-05</text><g transform="translate(405,215)"></g></g><g><g transform="translate(485,165)"></g><rect fill="none" stroke="#DDD" width="70" height="30" rx="8" ry="8" x="485" y="175"/><text text-anchor="middle" fill="#333" x="520" y="195">13-07</text><g transform="translate(485,215)"></g></g><g><g transform="translate(565,165)"></g><rect fill="none" stroke="#DDD" width="70" height="30" rx="8" ry="8" x="565" y="175"/><text text-anchor="middle" fill="#333" x="600" y="195">13-09</text><g transform="translate(565,215)"><g><a target="_top" xlink:href="dtp-sliceTagSavings2453-step5605201-ofs0-col7-cat0.html"><rect style="display:none" class="hcell-act-col7-cat0" fill="#777" stroke="#000" stroke-width="5" width="70" height="20" x="0" y="5" rx="8" ry="8"/><rect class="hcell-col7-cat0" fill="#777" stroke="#DDD" width="70" height="30" x="0" y="0" rx="8" ry="8"/><text text-anchor="middle" fill="#FFF" x="35" y="20">-371</text></a></g></g></g><g><g transform="translate(645,165)"><g><a target="_top" xlink:href="dtp-sliceTagSavings2453-step5605201-ofs0-col8-cat0.html"><rect style="display:none" class="hcell-act-col8-cat0" fill="#777" stroke="#000" stroke-width="5" width="70" height="41" x="0" y="-46" rx="8" ry="8"/><rect class="hcell-col8-cat0" fill="#777" stroke="#DDD" width="70" height="51" x="0" y="-51" rx="8" ry="8"/><text text-anchor="middle" fill="#FFF" x="35" y="-31">640</text></a></g></g><rect fill="none" stroke="#DDD" width="70" height="30" rx="8" ry="8" x="645" y="175"/><text text-anchor="middle" fill="#333" x="680" y="195">13-12</text><g transform="translate(645,215)"><g><a target="_top" xlink:href="dtp-sliceTagSavings2453-step5605201-ofs0-col8-cat0.html"><rect style="display:none" class="hcell-act-col8-cat0" fill="#777" stroke="#000" stroke-width="5" width="70" height="124" x="0" y="5" rx="8" ry="8"/><rect class="hcell-col8-cat0" fill="#777" stroke="#DDD" width="70" height="134" x="0" y="0" rx="8" ry="8"/><text text-anchor="middle" fill="#FFF" x="35" y="20">-1680</text></a></g></g></g><g><g transform="translate(725,165)"></g><rect fill="none" stroke="#DDD" width="70" height="30" rx="8" ry="8" x="725" y="175"/><text text-anchor="middle" fill="#333" x="760" y="195">14-02</text><g transform="translate(725,215)"><g><a target="_top" xlink:href="dtp-sliceTagSavings2453-step5605201-ofs0-col9-cat0.html"><rect style="display:none" class="hcell-act-col9-cat0" fill="#777" stroke="#000" stroke-width="5" width="70" height="230" x="0" y="5" rx="8" ry="8"/><rect class="hcell-col9-cat0" fill="#777" stroke="#DDD" width="70" height="240" x="0" y="0" rx="8" ry="8"/><text text-anchor="middle" fill="#FFF" x="35" y="20">-3000</text></a></g></g></g><g><g transform="translate(805,165)"><g><a target="_top" xlink:href="dtp-sliceTagSavings2453-step5605201-ofs0-col10-cat0.html"><rect style="display:none" class="hcell-act-col10-cat0" fill="#777" stroke="#000" stroke-width="5" width="70" height="65" x="0" y="-70" rx="8" ry="8"/><rect class="hcell-col10-cat0" fill="#777" stroke="#DDD" width="70" height="75" x="0" y="-75" rx="8" ry="8"/><text text-anchor="middle" fill="#FFF" x="35" y="-55">940</text></a></g></g><rect fill="none" stroke="#DDD" width="70" height="30" rx="8" ry="8" x="805" y="175"/><text text-anchor="middle" fill="#333" x="840" y="195">14-04</text><g transform="translate(805,215)"></g></g><g><g transform="translate(885,165)"><g><a target="_top" xlink:href="dtp-sliceTagSavings2453-step5605201-ofs0-col11-cat0.html"><rect style="display:none" class="hcell-act-col11-cat0" fill="#777" stroke="#000" stroke-width="5" width="70" height="71" x="0" y="-76" rx="8" ry="8"/><rect class="hcell-col11-cat0" fill="#777" stroke="#DDD" width="70" height="81" x="0" y="-81" rx="8" ry="8"/><text text-anchor="middle" fill="#FFF" x="35" y="-61">1020</text></a></g></g><rect fill="none" stroke="#DDD" width="70" height="30" rx="8" ry="8" x="885" y="175"/><text text-anchor="middle" fill="#333" x="920" y="195">14-06</text><g transform="translate(885,215)"></g></g><g><g transform="translate(965,165)"></g><rect fill="none" stroke="#DDD" width="70" height="30" rx="8" ry="8" x="965" y="175"/><text text-anchor="middle" fill="#333" x="1000" y="195">14-08</text><g transform="translate(965,215)"></g></g><g><g transform="translate(1045,165)"></g><rect fill="none" stroke="#DDD" width="70" height="30" rx="8" ry="8" x="1045" y="175"/><text text-anchor="middle" fill="#333" x="1080" y="195">14-10</text><g transform="translate(1045,215)"></g></g><g><g transform="translate(1125,165)"></g><rect fill="none" stroke="#DDD" width="70" height="30" rx="8" ry="8" x="1125" y="175"/><text text-anchor="middle" fill="#333" x="1160" y="195">14-12</text><g transform="translate(1125,215)"></g></g><g><g transform="translate(1205,165)"></g><rect fill="none" stroke="#DDD" width="70" height="30" rx="8" ry="8" x="1205" y="175"/><text text-anchor="middle" fill="#333" x="1240" y="195">15-03</text><g transform="translate(1205,215)"></g></g></svg>