<svg xmlns="http://www.w3.org/2000/svg" xmlns:xlink="http://www.w3.org/1999/xlink" width="100%" height="100%" viewBox="0 0 1280 459"><g><g transform="translate(5,190)"></g><rect fill="none" stroke="#DDD" width="70" height="30" rx="8" ry="8" x="5" y="200"/><text text-anchor="middle" fill="#333" x="40" y="220">12-10</text><g transform="translate(5,240)"></g></g><g><g transform="translate(85,190)"></g><rect fill="none" stroke="#DDD" width="70" height="30" rx="8" ry="8" x="85" y="200"/><text text-anchor="middle" fill="#333" x="120" y="220">12-10</text><g transform="translate(85,240)"></g></g><g><g transform="translate(165,190)"></g><rect fill="none" stroke="#DDD" width="70" height="30" rx="8" ry="8" x="165" y="200"/><text text-anchor="middle" fill="#333" x="200" y="220">12-12</text><g transform="translate(165,240)"></g></g><g><g transform="translate(245,190)"><g><a target="_top" xlink:href="dtp-sliceTagCash-step2628000-ofs3-col6-cat0.html"><rect style="display:none" class="hcell-act-col6-cat0" fill="#777" stroke="#000" stroke-width="5" width="70" height="20" x="0" y="-25" rx="8" ry="8"/><rect class="hcell-col6-cat0" fill="#777" stroke="#DDD" width="70" height="30" x="0" y="-30" rx="8" ry="8"/><text text-anchor="middle" fill="#FFF" x="35" y="-10">220</text></a></g></g><rect fill="none" stroke="#DDD" width="70" height="30" rx="8" ry="8" x="245" y="200"/><text text-anchor="middle" fill="#333" x="280" y="220">12-12</text><g transform="translate(245,240)"></g></g><g><g transform="translate(325,190)"><g><a target="_top" xlink:href="dtp-sliceTagCash-step2628000-ofs3-col7-cat0.html"><rect style="display:none" class="hcell-act-col7-cat0" fill="#777" stroke="#000" stroke-width="5" width="70" height="20" x="0" y="-25" rx="8" ry="8"/><rect class="hcell-col7-cat0" fill="#777" stroke="#DDD" width="70" height="30" x="0" y="-30" rx="8" ry="8"/><text text-anchor="middle" fill="#FFF" x="35" y="-10">260</text></a></g></g><rect fill="none" stroke="#DDD" width="70" height="30" rx="8" ry="8" x="325" y="200"/><text text-anchor="middle" fill="#333" x="360" y="220">13-01</text><g transform="translate(325,240)"><g><a target="_top" xlink:href="dtp-sliceTagCash-step2628000-ofs3-col7-cat0.html"><rect style="display:none" class="hcell-act-col7-cat0" fill="#777" stroke="#000" stroke-width="5" width="70" height="204" x="0" y="5" rx="8" ry="8"/><rect class="hcell-col7-cat0" fill="#777" stroke="#DDD" width="70" height="214" x="0" y="0" rx="8" ry="8"/><text text-anchor="middle" fill="#FFF" x="35" y="20">-2200</text></a></g></g></g><g><g transform="translate(405,190)"></g><rect fill="none" stroke="#DDD" width="70" height="30" rx="8" ry="8" x="405" y="200"/><text text-anchor="middle" fill="#333" x="440" y="220">13-03</text><g transform="translate(405,240)"></g></g><g><g transform="translate(485,190)"></g><rect fill="none" stroke="#DDD" width="70" height="30" rx="8" ry="8" x="485" y="200"/><text text-anchor="middle" fill="#333" x="520" y="220">13-04</text><g transform="translate(485,240)"></g></g><g><g transform="translate(565,190)"></g><rect fill="none" stroke="#DDD" width="70" height="30" rx="8" ry="8" x="565" y="200"/><text text-anchor="middle" fill="#333" x="600" y="220">13-05</text><g transform="translate(565,240)"><g><a target="_top" xlink:href="dtp-sliceTagCash-step2628000-ofs3-col10-cat0.html"><rect style="display:none" class="hcell-act-col10-cat0" fill="#777" stroke="#000" stroke-width="5" width="70" height="142" x="0" y="5" rx="8" ry="8"/><rect class="hcell-col10-cat0" fill="#777" stroke="#DDD" width="70" height="152" x="0" y="0" rx="8" ry="8"/><text text-anchor="middle" fill="#FFF" x="35" y="20">-1560</text></a></g></g></g><g><g transform="translate(645,190)"></g><rect fill="none" stroke="#DDD" width="70" height="30" rx="8" ry="8" x="645" y="200"/><text text-anchor="middle" fill="#333" x="680" y="220">13-06</text><g transform="translate(645,240)"></g></g><g><g transform="translate(725,190)"></g><rect fill="none" stroke="#DDD" width="70" height="30" rx="8" ry="8" x="725" y="200"/><text text-anchor="middle" fill="#333" x="760" y="220">13-07</text><g transform="translate(725,240)"></g></g><g><g transform="translate(805,190)"></g><rect fill="none" stroke="#DDD" width="70" height="30" rx="8" ry="8" x="805" y="200"/><text text-anchor="middle" fill="#333" x="840" y="220">13-08</text><g transform="translate(805,240)"></g></g><g><g transform="translate(885,190)"><g><a target="_top" xlink:href="dtp-sliceTagCash-step2628000-ofs3-col14-cat0.html"><rect style="display:none" class="hcell-act-col14-cat0" fill="#777" stroke="#000" stroke-width="5" width="70" height="175" x="0" y="-180" rx="8" ry="8"/><rect class="hcell-col14-cat0" fill="#777" stroke="#DDD" width="70" height="185" x="0" y="-185" rx="8" ry="8"/><text text-anchor="middle" fill="#FFF" x="35" y="-165">1900</text></a></g></g><rect fill="none" stroke="#DDD" width="70" height="30" rx="8" ry="8" x="885" y="200"/><text text-anchor="middle" fill="#333" x="920" y="220">13-08</text><g transform="translate(885,240)"></g></g><g><g transform="translate(965,190)"></g><rect fill="none" stroke="#DDD" width="70" height="30" rx="8" ry="8" x="965" y="200"/><text text-anchor="middle" fill="#333" x="1000" y="220">13-10</text><g transform="translate(965,240)"><g><a target="_top" xlink:href="dtp-sliceTagCash-step2628000-ofs3-col15-cat0.html"><rect style="display:none" class="hcell-act-col15-cat0" fill="#777" stroke="#000" stroke-width="5" width="70" height="20" x="0" y="5" rx="8" ry="8"/><rect class="hcell-col15-cat0" fill="#777" stroke="#DDD" width="70" height="30" x="0" y="0" rx="8" ry="8"/><text text-anchor="middle" fill="#FFF" x="35" y="20">-10</text></a></g></g></g><g><g transform="translate(1045,190)"></g><rect fill="none" stroke="#DDD" width="70" height="30" rx="8" ry="8" x="1045" y="200"/><text text-anchor="middle" fill="#333" x="1080" y="220">13-10</text><g transform="translate(1045,240)"></g></g><g><g transform="translate(1125,190)"></g><rect fill="none" stroke="#DDD" width="70" height="30" rx="8" ry="8" x="1125" y="200"/><text text-anchor="middle" fill="#333" x="1160" y="220">13-12</text><g transform="translate(1125,240)"></g></g><g><g transform="translate(1205,190)"></g><rect fill="none" stroke="#DDD" width="70" height="30" rx="8" ry="8" x="1205" y="200"/><text text-anchor="middle" fill="#333" x="1240" y="220">13-12</text><g transform="translate(1205,240)"></g></g></svg>