<svg xmlns="http://www.w3.org/2000/svg" xmlns:xlink="http://www.w3.org/1999/xlink" width="100%" height="100%" viewBox="0 0 1280 460"><g><g transform="translate(5,305)"></g><rect fill="none" stroke="#DDD" width="70" height="30" rx="8" ry="8" x="5" y="315"/><text text-anchor="middle" fill="#333" x="40" y="335">12-07</text><g transform="translate(5,355)"></g></g><g><g transform="translate(85,305)"></g><rect fill="none" stroke="#DDD" width="70" height="30" rx="8" ry="8" x="85" y="315"/><text text-anchor="middle" fill="#333" x="120" y="335">12-09</text><g transform="translate(85,355)"></g></g><g><g transform="translate(165,305)"></g><rect fill="none" stroke="#DDD" width="70" height="30" rx="8" ry="8" x="165" y="315"/><text text-anchor="middle" fill="#333" x="200" y="335">12-11</text><g transform="translate(165,355)"></g></g><g><g transform="translate(245,305)"></g><rect fill="none" stroke="#DDD" width="70" height="30" rx="8" ry="8" x="245" y="315"/><text text-anchor="middle" fill="#333" x="280" y="335">13-01</text><g transform="translate(245,355)"></g></g><g><g transform="translate(325,305)"></g><rect fill="none" stroke="#DDD" width="70" height="30" rx="8" ry="8" x="325" y="315"/><text text-anchor="middle" fill="#333" x="360" y="335">13-03</text><g transform="translate(325,355)"></g></g><g><g transform="translate(405,305)"></g><rect fill="none" stroke="#DDD" width="70" height="30" rx="8" ry="8" x="405" y="315"/><text text-anchor="middle" fill="#333" x="440" y="335">13-05</text><g transform="translate(405,355)"></g></g><g><g transform="translate(485,305)"></g><rect fill="none" stroke="#DDD" width="70" height="30" rx="8" ry="8" x="485" y="315"/><text text-anchor="middle" fill="#333" x="520" y="335">13-07</text><g transform="translate(485,355)"></g></g><g><g transform="translate(565,305)"></g><rect fill="none" stroke="#DDD" width="70" height="30" rx="8" ry="8" x="565" y="315"/><text text-anchor="middle" fill="#333" x="600" y="335">13-09</text><g transform="translate(565,355)"></g></g><g><g transform="translate(645,305)"></g><rect fill="none" stroke="#DDD" width="70" height="30" rx="8" ry="8" x="645" y="315"/><text text-anchor="middle" fill="#333" x="680" y="335">13-12</text><g transform="translate(645,355)"></g></g><g><g transform="translate(725,305)"></g><rect fill="none" stroke="#DDD" width="70" height="30" rx="8" ry="8" x="725" y="315"/><text text-anchor="middle" fill="#333" x="760" y="335">14-02</text><g transform="translate(725,355)"></g></g><g><g transform="translate(805,305)"></g><rect fill="none" stroke="#DDD" width="70" height="30" rx="8" ry="8" x="805" y="315"/><text text-anchor="middle" fill="#333" x="840" y="335">14-04</text><g transform="translate(805,355)"></g></g><g><g transform="translate(885,305)"><g><a target="_top" xlink:href="dtp-sliceTagSavings2453-step5605201-ofs0-col11-cat0.html"><rect style="display:none" class="hcell-act-col11-cat0" fill="#777" stroke="#000" stroke-width="5" width="70" height="290" x="0" y="-295" rx="8" ry="8"/><rect class="hcell-col11-cat0" fill="#777" stroke="#DDD" width="70" height="300" x="0" y="-300" rx="8" ry="8"/><text text-anchor="middle" fill="#FFF" x="35" y="-280">1560</text></a></g></g><rect fill="none" stroke="#DDD" width="70" height="30" rx="8" ry="8" x="885" y="315"/><text text-anchor="middle" fill="#333" x="920" y="335">14-06</text><g transform="translate(885,355)"></g></g><g><g transform="translate(965,305)"></g><rect fill="none" stroke="#DDD" width="70" height="30" rx="8" ry="8" x="965" y="315"/><text text-anchor="middle" fill="#333" x="1000" y="335">14-08</text><g transform="translate(965,355)"><g><a target="_top" xlink:href="dtp-sliceTagSavings2453-step5605201-ofs0-col12-cat0.html"><rect style="display:none" class="hcell-act-col12-cat0" fill="#777" stroke="#000" stroke-width="5" width="70" height="20" x="0" y="5" rx="8" ry="8"/><rect class="hcell-col12-cat0" fill="#777" stroke="#DDD" width="70" height="30" x="0" y="0" rx="8" ry="8"/><text text-anchor="middle" fill="#FFF" x="35" y="20">-140</text></a></g></g></g><g><g transform="translate(1045,305)"></g><rect fill="none" stroke="#DDD" width="70" height="30" rx="8" ry="8" x="1045" y="315"/><text text-anchor="middle" fill="#333" x="1080" y="335">14-10</text><g transform="translate(1045,355)"><g><a target="_top" xlink:href="dtp-sliceTagSavings2453-step5605201-ofs0-col13-cat0.html"><rect style="display:none" class="hcell-act-col13-cat0" fill="#777" stroke="#000" stroke-width="5" width="70" height="20" x="0" y="5" rx="8" ry="8"/><rect class="hcell-col13-cat0" fill="#777" stroke="#DDD" width="70" height="30" x="0" y="0" rx="8" ry="8"/><text text-anchor="middle" fill="#FFF" x="35" y="20">-85</text></a></g></g></g><g><g transform="translate(1125,305)"></g><rect fill="none" stroke="#DDD" width="70" height="30" rx="8" ry="8" x="1125" y="315"/><text text-anchor="middle" fill="#333" x="1160" y="335">14-12</text><g transform="translate(1125,355)"><g><a target="_top" xlink:href="dtp-sliceTagSavings2453-step5605201-ofs0-col14-cat0.html"><rect style="display:none" class="hcell-act-col14-cat0" fill="#777" stroke="#000" stroke-width="5" width="70" height="90" x="0" y="5" rx="8" ry="8"/><rect class="hcell-col14-cat0" fill="#777" stroke="#DDD" width="70" height="100" x="0" y="0" rx="8" ry="8"/><text text-anchor="middle" fill="#FFF" x="35" y="20">-520</text></a></g></g></g><g><g transform="translate(1205,305)"></g><rect fill="none" stroke="#DDD" width="70" height="30" rx="8" ry="8" x="1205" y="315"/><text text-anchor="middle" fill="#333" x="1240" y="335">15-03</text><g transform="translate(1205,355)"><g><a target="_top" xlink:href="dtp-sliceTagSavings2453-step5605201-ofs0-col15-cat0.html"><rect style="display:none" class="hcell-act-col15-cat0" fill="#777" stroke="#000" stroke-width="5" width="70" height="20" x="0" y="5" rx="8" ry="8"/><rect class="hcell-col15-cat0" fill="#777" stroke="#DDD" width="70" height="30" x="0" y="0" rx="8" ry="8"/><text text-anchor="middle" fill="#FFF" x="35" y="20">-55</text></a></g></g></g></svg>