<svg xmlns="http://www.w3.org/2000/svg" xmlns:xlink="http://www.w3.org/1999/xlink" width="100%" height="100%" viewBox="0 0 1280 459"><g><g transform="translate(5,189)"><g><a target="_top" xlink:href="dtp-sliceTagVioGor7260-step2628000-ofs19-col19-cat0.html"><rect style="display:none" class="hcell-act-col19-cat0" fill="#777" stroke="#000" stroke-width="5" width="70" height="44" x="0" y="-49" rx="8" ry="8"/><rect class="hcell-col19-cat0" fill="#777" stroke="#DDD" width="70" height="54" x="0" y="-54" rx="8" ry="8"/><text text-anchor="middle" fill="#FFF" x="35" y="-34">15</text></a></g></g><rect fill="none" stroke="#DDD" width="70" height="30" rx="8" ry="8" x="5" y="199"/><text text-anchor="middle" fill="#333" x="40" y="219">14-01</text><g transform="translate(5,239)"><g><a target="_top" xlink:href="dtp-sliceTagVioGor7260-step2628000-ofs19-col19-cat0.html"><rect style="display:none" class="hcell-act-col19-cat0" fill="#777" stroke="#000" stroke-width="5" width="70" height="25" x="0" y="5" rx="8" ry="8"/><rect class="hcell-col19-cat0" fill="#777" stroke="#DDD" width="70" height="35" x="0" y="0" rx="8" ry="8"/><text text-anchor="middle" fill="#FFF" x="35" y="20">-10</text></a></g></g></g><g><g transform="translate(85,189)"></g><rect fill="none" stroke="#DDD" width="70" height="30" rx="8" ry="8" x="85" y="199"/><text text-anchor="middle" fill="#333" x="120" y="219">14-03</text><g transform="translate(85,239)"></g></g><g><g transform="translate(165,189)"><g><a target="_top" xlink:href="dtp-sliceTagVioGor7260-step2628000-ofs19-col21-cat0.html"><rect style="display:none" class="hcell-act-col21-cat0" fill="#777" stroke="#000" stroke-width="5" width="70" height="174" x="0" y="-179" rx="8" ry="8"/><rect class="hcell-col21-cat0" fill="#777" stroke="#DDD" width="70" height="184" x="0" y="-184" rx="8" ry="8"/><text text-anchor="middle" fill="#FFF" x="35" y="-164">51</text></a></g></g><rect fill="none" stroke="#DDD" width="70" height="30" rx="8" ry="8" x="165" y="199"/><text text-anchor="middle" fill="#333" x="200" y="219">14-04</text><g transform="translate(165,239)"><g><a target="_top" xlink:href="dtp-sliceTagVioGor7260-step2628000-ofs19-col21-cat0.html"><rect style="display:none" class="hcell-act-col21-cat0" fill="#777" stroke="#000" stroke-width="5" width="70" height="20" x="0" y="5" rx="8" ry="8"/><rect class="hcell-col21-cat0" fill="#777" stroke="#DDD" width="70" height="30" x="0" y="0" rx="8" ry="8"/><text text-anchor="middle" fill="#FFF" x="35" y="20">-2</text></a></g></g></g><g><g transform="translate(245,189)"></g><rect fill="none" stroke="#DDD" width="70" height="30" rx="8" ry="8" x="245" y="199"/><text text-anchor="middle" fill="#333" x="280" y="219">14-05</text><g transform="translate(245,239)"><g><a target="_top" xlink:href="dtp-sliceTagVioGor7260-step2628000-ofs19-col22-cat0.html"><rect style="display:none" class="hcell-act-col22-cat0" fill="#777" stroke="#000" stroke-width="5" width="70" height="20" x="0" y="5" rx="8" ry="8"/><rect class="hcell-col22-cat0" fill="#777" stroke="#DDD" width="70" height="30" x="0" y="0" rx="8" ry="8"/><text text-anchor="middle" fill="#FFF" x="35" y="20">-2</text></a></g></g></g><g><g transform="translate(325,189)"><g><a target="_top" xlink:href="dtp-sliceTagVioGor7260-step2628000-ofs19-col23-cat0.html"><rect style="display:none" class="hcell-act-col23-cat0" fill="#777" stroke="#000" stroke-width="5" width="70" height="44" x="0" y="-49" rx="8" ry="8"/><rect class="hcell-col23-cat0" fill="#777" stroke="#DDD" width="70" height="54" x="0" y="-54" rx="8" ry="8"/><text text-anchor="middle" fill="#FFF" x="35" y="-34">15</text></a></g></g><rect fill="none" stroke="#DDD" width="70" height="30" rx="8" ry="8" x="325" y="199"/><text text-anchor="middle" fill="#333" x="360" y="219">14-06</text><g transform="translate(325,239)"></g></g><g><g transform="translate(405,189)"></g><rect fill="none" stroke="#DDD" width="70" height="30" rx="8" ry="8" x="405" y="199"/><text text-anchor="middle" fill="#333" x="440" y="219">14-07</text><g transform="translate(405,239)"><g><a target="_top" xlink:href="dtp-sliceTagVioGor7260-step2628000-ofs19-col24-cat0.html"><rect style="display:none" class="hcell-act-col24-cat0" fill="#777" stroke="#000" stroke-width="5" width="70" height="205" x="0" y="5" rx="8" ry="8"/><rect class="hcell-col24-cat0" fill="#777" stroke="#DDD" width="70" height="215" x="0" y="0" rx="8" ry="8"/><text text-anchor="middle" fill="#FFF" x="35" y="20">-60</text></a></g></g></g><g><g transform="translate(485,189)"></g><rect fill="none" stroke="#DDD" width="70" height="30" rx="8" ry="8" x="485" y="199"/><text text-anchor="middle" fill="#333" x="520" y="219">14-08</text><g transform="translate(485,239)"></g></g><g><g transform="translate(565,189)"></g><rect fill="none" stroke="#DDD" width="70" height="30" rx="8" ry="8" x="565" y="199"/><text text-anchor="middle" fill="#333" x="600" y="219">14-08</text><g transform="translate(565,239)"></g></g><g><g transform="translate(645,189)"></g><rect fill="none" stroke="#DDD" width="70" height="30" rx="8" ry="8" x="645" y="199"/><text text-anchor="middle" fill="#333" x="680" y="219">14-10</text><g transform="translate(645,239)"></g></g><g><g transform="translate(725,189)"></g><rect fill="none" stroke="#DDD" width="70" height="30" rx="8" ry="8" x="725" y="199"/><text text-anchor="middle" fill="#333" x="760" y="219">14-10</text><g transform="translate(725,239)"></g></g><g><g transform="translate(805,189)"></g><rect fill="none" stroke="#DDD" width="70" height="30" rx="8" ry="8" x="805" y="199"/><text text-anchor="middle" fill="#333" x="840" y="219">14-12</text><g transform="translate(805,239)"></g></g><g><g transform="translate(885,189)"></g><rect fill="none" stroke="#DDD" width="70" height="30" rx="8" ry="8" x="885" y="199"/><text text-anchor="middle" fill="#333" x="920" y="219">14-12</text><g transform="translate(885,239)"></g></g><g><g transform="translate(965,189)"></g><rect fill="none" stroke="#DDD" width="70" height="30" rx="8" ry="8" x="965" y="199"/><text text-anchor="middle" fill="#333" x="1000" y="219">15-01</text><g transform="translate(965,239)"></g></g><g><g transform="translate(1045,189)"></g><rect fill="none" stroke="#DDD" width="70" height="30" rx="8" ry="8" x="1045" y="199"/><text text-anchor="middle" fill="#333" x="1080" y="219">15-03</text><g transform="translate(1045,239)"></g></g><g><g transform="translate(1125,189)"></g><rect fill="none" stroke="#DDD" width="70" height="30" rx="8" ry="8" x="1125" y="199"/><text text-anchor="middle" fill="#333" x="1160" y="219">15-04</text><g transform="translate(1125,239)"></g></g><g><g transform="translate(1205,189)"></g><rect fill="none" stroke="#DDD" width="70" height="30" rx="8" ry="8" x="1205" y="199"/><text text-anchor="middle" fill="#333" x="1240" y="219">15-05</text><g transform="translate(1205,239)"></g></g></svg>