<svg xmlns="http://www.w3.org/2000/svg" xmlns:xlink="http://www.w3.org/1999/xlink" width="100%" height="100%" viewBox="0 0 1280 459"><g><g transform="translate(5,208)"></g><rect fill="none" stroke="#DDD" width="70" height="30" rx="8" ry="8" x="5" y="218"/><text text-anchor="middle" fill="#333" x="40" y="238">14-01</text><g transform="translate(5,258)"></g></g><g><g transform="translate(85,208)"></g><rect fill="none" stroke="#DDD" width="70" height="30" rx="8" ry="8" x="85" y="218"/><text text-anchor="middle" fill="#333" x="120" y="238">14-03</text><g transform="translate(85,258)"></g></g><g><g transform="translate(165,208)"></g><rect fill="none" stroke="#DDD" width="70" height="30" rx="8" ry="8" x="165" y="218"/><text text-anchor="middle" fill="#333" x="200" y="238">14-04</text><g transform="translate(165,258)"></g></g><g><g transform="translate(245,208)"></g><rect fill="none" stroke="#DDD" width="70" height="30" rx="8" ry="8" x="245" y="218"/><text text-anchor="middle" fill="#333" x="280" y="238">14-05</text><g transform="translate(245,258)"></g></g><g><g transform="translate(325,208)"></g><rect fill="none" stroke="#DDD" width="70" height="30" rx="8" ry="8" x="325" y="218"/><text text-anchor="middle" fill="#333" x="360" y="238">14-06</text><g transform="translate(325,258)"></g></g><g><g transform="translate(405,208)"></g><rect fill="none" stroke="#DDD" width="70" height="30" rx="8" ry="8" x="405" y="218"/><text text-anchor="middle" fill="#333" x="440" y="238">14-07</text><g transform="translate(405,258)"></g></g><g><g transform="translate(485,208)"></g><rect fill="none" stroke="#DDD" width="70" height="30" rx="8" ry="8" x="485" y="218"/><text text-anchor="middle" fill="#333" x="520" y="238">14-08</text><g transform="translate(485,258)"><g><a target="_top" xlink:href="dtp-sliceTagWeight-step2628000-ofs19-col25-cat0.html"><rect style="display:none" class="hcell-act-col25-cat0" fill="#777" stroke="#000" stroke-width="5" width="70" height="45" x="0" y="5" rx="8" ry="8"/><rect class="hcell-col25-cat0" fill="#777" stroke="#DDD" width="70" height="55" x="0" y="0" rx="8" ry="8"/><text text-anchor="middle" fill="#FFF" x="35" y="20">-6</text></a></g></g></g><g><g transform="translate(565,208)"></g><rect fill="none" stroke="#DDD" width="70" height="30" rx="8" ry="8" x="565" y="218"/><text text-anchor="middle" fill="#333" x="600" y="238">14-08</text><g transform="translate(565,258)"><g><a target="_top" xlink:href="dtp-sliceTagWeight-step2628000-ofs19-col26-cat0.html"><rect style="display:none" class="hcell-act-col26-cat0" fill="#777" stroke="#000" stroke-width="5" width="70" height="20" x="0" y="5" rx="8" ry="8"/><rect class="hcell-col26-cat0" fill="#777" stroke="#DDD" width="70" height="30" x="0" y="0" rx="8" ry="8"/><text text-anchor="middle" fill="#FFF" x="35" y="20">-2</text></a></g></g></g><g><g transform="translate(645,208)"><g><a target="_top" xlink:href="dtp-sliceTagWeight-step2628000-ofs19-col27-cat0.html"><rect style="display:none" class="hcell-act-col27-cat0" fill="#777" stroke="#000" stroke-width="5" width="70" height="193" x="0" y="-198" rx="8" ry="8"/><rect class="hcell-col27-cat0" fill="#777" stroke="#DDD" width="70" height="203" x="0" y="-203" rx="8" ry="8"/><text text-anchor="middle" fill="#FFF" x="35" y="-183">20</text></a></g></g><rect fill="none" stroke="#DDD" width="70" height="30" rx="8" ry="8" x="645" y="218"/><text text-anchor="middle" fill="#333" x="680" y="238">14-10</text><g transform="translate(645,258)"></g></g><g><g transform="translate(725,208)"></g><rect fill="none" stroke="#DDD" width="70" height="30" rx="8" ry="8" x="725" y="218"/><text text-anchor="middle" fill="#333" x="760" y="238">14-10</text><g transform="translate(725,258)"><g><a target="_top" xlink:href="dtp-sliceTagWeight-step2628000-ofs19-col28-cat0.html"><rect style="display:none" class="hcell-act-col28-cat0" fill="#777" stroke="#000" stroke-width="5" width="70" height="20" x="0" y="5" rx="8" ry="8"/><rect class="hcell-col28-cat0" fill="#777" stroke="#DDD" width="70" height="30" x="0" y="0" rx="8" ry="8"/><text text-anchor="middle" fill="#FFF" x="35" y="20">-3</text></a></g></g></g><g><g transform="translate(805,208)"></g><rect fill="none" stroke="#DDD" width="70" height="30" rx="8" ry="8" x="805" y="218"/><text text-anchor="middle" fill="#333" x="840" y="238">14-12</text><g transform="translate(805,258)"><g><a target="_top" xlink:href="dtp-sliceTagWeight-step2628000-ofs19-col29-cat0.html"><rect style="display:none" class="hcell-act-col29-cat0" fill="#777" stroke="#000" stroke-width="5" width="70" height="47" x="0" y="5" rx="8" ry="8"/><rect class="hcell-col29-cat0" fill="#777" stroke="#DDD" width="70" height="57" x="0" y="0" rx="8" ry="8"/><text text-anchor="middle" fill="#FFF" x="35" y="20">-6</text></a></g></g></g><g><g transform="translate(885,208)"></g><rect fill="none" stroke="#DDD" width="70" height="30" rx="8" ry="8" x="885" y="218"/><text text-anchor="middle" fill="#333" x="920" y="238">14-12</text><g transform="translate(885,258)"><g><a target="_top" xlink:href="dtp-sliceTagWeight-step2628000-ofs19-col30-cat0.html"><rect style="display:none" class="hcell-act-col30-cat0" fill="#777" stroke="#000" stroke-width="5" width="70" height="186" x="0" y="5" rx="8" ry="8"/><rect class="hcell-col30-cat0" fill="#777" stroke="#DDD" width="70" height="196" x="0" y="0" rx="8" ry="8"/><text text-anchor="middle" fill="#FFF" x="35" y="20">-20</text></a></g></g></g><g><g transform="translate(965,208)"></g><rect fill="none" stroke="#DDD" width="70" height="30" rx="8" ry="8" x="965" y="218"/><text text-anchor="middle" fill="#333" x="1000" y="238">15-01</text><g transform="translate(965,258)"><g><a target="_top" xlink:href="dtp-sliceTagWeight-step2628000-ofs19-col31-cat0.html"><rect style="display:none" class="hcell-act-col31-cat0" fill="#777" stroke="#000" stroke-width="5" width="70" height="166" x="0" y="5" rx="8" ry="8"/><rect class="hcell-col31-cat0" fill="#777" stroke="#DDD" width="70" height="176" x="0" y="0" rx="8" ry="8"/><text text-anchor="middle" fill="#FFF" x="35" y="20">-18</text></a></g></g></g><g><g transform="translate(1045,208)"></g><rect fill="none" stroke="#DDD" width="70" height="30" rx="8" ry="8" x="1045" y="218"/><text text-anchor="middle" fill="#333" x="1080" y="238">15-03</text><g transform="translate(1045,258)"><g><a target="_top" xlink:href="dtp-sliceTagWeight-step2628000-ofs19-col32-cat0.html"><rect style="display:none" class="hcell-act-col32-cat0" fill="#777" stroke="#000" stroke-width="5" width="70" height="20" x="0" y="5" rx="8" ry="8"/><rect class="hcell-col32-cat0" fill="#777" stroke="#DDD" width="70" height="30" x="0" y="0" rx="8" ry="8"/><text text-anchor="middle" fill="#FFF" x="35" y="20">-2</text></a></g></g></g><g><g transform="translate(1125,208)"><g><a target="_top" xlink:href="dtp-sliceTagWeight-step2628000-ofs19-col33-cat0.html"><rect style="display:none" class="hcell-act-col33-cat0" fill="#777" stroke="#000" stroke-width="5" width="70" height="62" x="0" y="-67" rx="8" ry="8"/><rect class="hcell-col33-cat0" fill="#777" stroke="#DDD" width="70" height="72" x="0" y="-72" rx="8" ry="8"/><text text-anchor="middle" fill="#FFF" x="35" y="-52">7</text></a></g></g><rect fill="none" stroke="#DDD" width="70" height="30" rx="8" ry="8" x="1125" y="218"/><text text-anchor="middle" fill="#333" x="1160" y="238">15-04</text><g transform="translate(1125,258)"></g></g><g><g transform="translate(1205,208)"></g><rect fill="none" stroke="#DDD" width="70" height="30" rx="8" ry="8" x="1205" y="218"/><text text-anchor="middle" fill="#333" x="1240" y="238">15-05</text><g transform="translate(1205,258)"><g><a target="_top" xlink:href="dtp-sliceTagWeight-step2628000-ofs19-col34-cat0.html"><rect style="display:none" class="hcell-act-col34-cat0" fill="#777" stroke="#000" stroke-width="5" width="70" height="186" x="0" y="5" rx="8" ry="8"/><rect class="hcell-col34-cat0" fill="#777" stroke="#DDD" width="70" height="196" x="0" y="0" rx="8" ry="8"/><text text-anchor="middle" fill="#FFF" x="35" y="20">-20</text></a></g></g></g></svg>