<svg xmlns="http://www.w3.org/2000/svg" xmlns:xlink="http://www.w3.org/1999/xlink" width="100%" height="100%" viewBox="0 0 1280 459"><g><g transform="translate(5,212)"><g><a target="_top" xlink:href="dtp-sliceTagVisa4933-step2628000-ofs19-col19-cat0.html"><rect style="display:none" class="hcell-act-col19-cat0" fill="#777" stroke="#000" stroke-width="5" width="70" height="169" x="0" y="-174" rx="8" ry="8"/><rect class="hcell-col19-cat0" fill="#777" stroke="#DDD" width="70" height="179" x="0" y="-179" rx="8" ry="8"/><text text-anchor="middle" fill="#FFF" x="35" y="-159">3127</text></a></g></g><rect fill="none" stroke="#DDD" width="70" height="30" rx="8" ry="8" x="5" y="222"/><text text-anchor="middle" fill="#333" x="40" y="242">14-01</text><g transform="translate(5,262)"><g><a target="_top" xlink:href="dtp-sliceTagVisa4933-step2628000-ofs19-col19-cat0.html"><rect style="display:none" class="hcell-act-col19-cat0" fill="#777" stroke="#000" stroke-width="5" width="70" height="175" x="0" y="5" rx="8" ry="8"/><rect class="hcell-col19-cat0" fill="#777" stroke="#DDD" width="70" height="185" x="0" y="0" rx="8" ry="8"/><text text-anchor="middle" fill="#FFF" x="35" y="20">-3244</text></a></g></g></g><g><g transform="translate(85,212)"><g><a target="_top" xlink:href="dtp-sliceTagVisa4933-step2628000-ofs19-col20-cat0.html"><rect style="display:none" class="hcell-act-col20-cat0" fill="#777" stroke="#000" stroke-width="5" width="70" height="197" x="0" y="-202" rx="8" ry="8"/><rect class="hcell-col20-cat0" fill="#777" stroke="#DDD" width="70" height="207" x="0" y="-207" rx="8" ry="8"/><text text-anchor="middle" fill="#FFF" x="35" y="-187">3626</text></a></g></g><rect fill="none" stroke="#DDD" width="70" height="30" rx="8" ry="8" x="85" y="222"/><text text-anchor="middle" fill="#333" x="120" y="242">14-03</text><g transform="translate(85,262)"><g><a target="_top" xlink:href="dtp-sliceTagVisa4933-step2628000-ofs19-col20-cat0.html"><rect style="display:none" class="hcell-act-col20-cat0" fill="#777" stroke="#000" stroke-width="5" width="70" height="179" x="0" y="5" rx="8" ry="8"/><rect class="hcell-col20-cat0" fill="#777" stroke="#DDD" width="70" height="189" x="0" y="0" rx="8" ry="8"/><text text-anchor="middle" fill="#FFF" x="35" y="20">-3304</text></a></g></g></g><g><g transform="translate(165,212)"><g><a target="_top" xlink:href="dtp-sliceTagVisa4933-step2628000-ofs19-col21-cat0.html"><rect style="display:none" class="hcell-act-col21-cat0" fill="#777" stroke="#000" stroke-width="5" width="70" height="138" x="0" y="-143" rx="8" ry="8"/><rect class="hcell-col21-cat0" fill="#777" stroke="#DDD" width="70" height="148" x="0" y="-148" rx="8" ry="8"/><text text-anchor="middle" fill="#FFF" x="35" y="-128">2600</text></a></g></g><rect fill="none" stroke="#DDD" width="70" height="30" rx="8" ry="8" x="165" y="222"/><text text-anchor="middle" fill="#333" x="200" y="242">14-04</text><g transform="translate(165,262)"><g><a target="_top" xlink:href="dtp-sliceTagVisa4933-step2628000-ofs19-col21-cat0.html"><rect style="display:none" class="hcell-act-col21-cat0" fill="#777" stroke="#000" stroke-width="5" width="70" height="182" x="0" y="5" rx="8" ry="8"/><rect class="hcell-col21-cat0" fill="#777" stroke="#DDD" width="70" height="192" x="0" y="0" rx="8" ry="8"/><text text-anchor="middle" fill="#FFF" x="35" y="20">-3360</text></a></g></g></g><g><g transform="translate(245,212)"><g><a target="_top" xlink:href="dtp-sliceTagVisa4933-step2628000-ofs19-col22-cat0.html"><rect style="display:none" class="hcell-act-col22-cat0" fill="#777" stroke="#000" stroke-width="5" width="70" height="145" x="0" y="-150" rx="8" ry="8"/><rect class="hcell-col22-cat0" fill="#777" stroke="#DDD" width="70" height="155" x="0" y="-155" rx="8" ry="8"/><text text-anchor="middle" fill="#FFF" x="35" y="-135">2719</text></a></g></g><rect fill="none" stroke="#DDD" width="70" height="30" rx="8" ry="8" x="245" y="222"/><text text-anchor="middle" fill="#333" x="280" y="242">14-05</text><g transform="translate(245,262)"><g><a target="_top" xlink:href="dtp-sliceTagVisa4933-step2628000-ofs19-col22-cat0.html"><rect style="display:none" class="hcell-act-col22-cat0" fill="#777" stroke="#000" stroke-width="5" width="70" height="82" x="0" y="5" rx="8" ry="8"/><rect class="hcell-col22-cat0" fill="#777" stroke="#DDD" width="70" height="92" x="0" y="0" rx="8" ry="8"/><text text-anchor="middle" fill="#FFF" x="35" y="20">-1622</text></a></g></g></g><g><g transform="translate(325,212)"><g><a target="_top" xlink:href="dtp-sliceTagVisa4933-step2628000-ofs19-col23-cat0.html"><rect style="display:none" class="hcell-act-col23-cat0" fill="#777" stroke="#000" stroke-width="5" width="70" height="138" x="0" y="-143" rx="8" ry="8"/><rect class="hcell-col23-cat0" fill="#777" stroke="#DDD" width="70" height="148" x="0" y="-148" rx="8" ry="8"/><text text-anchor="middle" fill="#FFF" x="35" y="-128">2600</text></a></g></g><rect fill="none" stroke="#DDD" width="70" height="30" rx="8" ry="8" x="325" y="222"/><text text-anchor="middle" fill="#333" x="360" y="242">14-06</text><g transform="translate(325,262)"><g><a target="_top" xlink:href="dtp-sliceTagVisa4933-step2628000-ofs19-col23-cat0.html"><rect style="display:none" class="hcell-act-col23-cat0" fill="#777" stroke="#000" stroke-width="5" width="70" height="136" x="0" y="5" rx="8" ry="8"/><rect class="hcell-col23-cat0" fill="#777" stroke="#DDD" width="70" height="146" x="0" y="0" rx="8" ry="8"/><text text-anchor="middle" fill="#FFF" x="35" y="20">-2563</text></a></g></g></g><g><g transform="translate(405,212)"><g><a target="_top" xlink:href="dtp-sliceTagVisa4933-step2628000-ofs19-col24-cat0.html"><rect style="display:none" class="hcell-act-col24-cat0" fill="#777" stroke="#000" stroke-width="5" width="70" height="138" x="0" y="-143" rx="8" ry="8"/><rect class="hcell-col24-cat0" fill="#777" stroke="#DDD" width="70" height="148" x="0" y="-148" rx="8" ry="8"/><text text-anchor="middle" fill="#FFF" x="35" y="-128">2600</text></a></g></g><rect fill="none" stroke="#DDD" width="70" height="30" rx="8" ry="8" x="405" y="222"/><text text-anchor="middle" fill="#333" x="440" y="242">14-07</text><g transform="translate(405,262)"><g><a target="_top" xlink:href="dtp-sliceTagVisa4933-step2628000-ofs19-col24-cat0.html"><rect style="display:none" class="hcell-act-col24-cat0" fill="#777" stroke="#000" stroke-width="5" width="70" height="80" x="0" y="5" rx="8" ry="8"/><rect class="hcell-col24-cat0" fill="#777" stroke="#DDD" width="70" height="90" x="0" y="0" rx="8" ry="8"/><text text-anchor="middle" fill="#FFF" x="35" y="20">-1576</text></a></g></g></g><g><g transform="translate(485,212)"></g><rect fill="none" stroke="#DDD" width="70" height="30" rx="8" ry="8" x="485" y="222"/><text text-anchor="middle" fill="#333" x="520" y="242">14-08</text><g transform="translate(485,262)"></g></g><g><g transform="translate(565,212)"></g><rect fill="none" stroke="#DDD" width="70" height="30" rx="8" ry="8" x="565" y="222"/><text text-anchor="middle" fill="#333" x="600" y="242">14-08</text><g transform="translate(565,262)"></g></g><g><g transform="translate(645,212)"></g><rect fill="none" stroke="#DDD" width="70" height="30" rx="8" ry="8" x="645" y="222"/><text text-anchor="middle" fill="#333" x="680" y="242">14-10</text><g transform="translate(645,262)"></g></g><g><g transform="translate(725,212)"></g><rect fill="none" stroke="#DDD" width="70" height="30" rx="8" ry="8" x="725" y="222"/><text text-anchor="middle" fill="#333" x="760" y="242">14-10</text><g transform="translate(725,262)"></g></g><g><g transform="translate(805,212)"></g><rect fill="none" stroke="#DDD" width="70" height="30" rx="8" ry="8" x="805" y="222"/><text text-anchor="middle" fill="#333" x="840" y="242">14-12</text><g transform="translate(805,262)"></g></g><g><g transform="translate(885,212)"></g><rect fill="none" stroke="#DDD" width="70" height="30" rx="8" ry="8" x="885" y="222"/><text text-anchor="middle" fill="#333" x="920" y="242">14-12</text><g transform="translate(885,262)"></g></g><g><g transform="translate(965,212)"></g><rect fill="none" stroke="#DDD" width="70" height="30" rx="8" ry="8" x="965" y="222"/><text text-anchor="middle" fill="#333" x="1000" y="242">15-01</text><g transform="translate(965,262)"></g></g><g><g transform="translate(1045,212)"></g><rect fill="none" stroke="#DDD" width="70" height="30" rx="8" ry="8" x="1045" y="222"/><text text-anchor="middle" fill="#333" x="1080" y="242">15-03</text><g transform="translate(1045,262)"></g></g><g><g transform="translate(1125,212)"></g><rect fill="none" stroke="#DDD" width="70" height="30" rx="8" ry="8" x="1125" y="222"/><text text-anchor="middle" fill="#333" x="1160" y="242">15-04</text><g transform="translate(1125,262)"></g></g><g><g transform="translate(1205,212)"></g><rect fill="none" stroke="#DDD" width="70" height="30" rx="8" ry="8" x="1205" y="222"/><text text-anchor="middle" fill="#333" x="1240" y="242">15-05</text><g transform="translate(1205,262)"></g></g></svg>