<svg xmlns="http://www.w3.org/2000/svg" xmlns:xlink="http://www.w3.org/1999/xlink" width="100%" height="100%" viewBox="0 0 1280 459"><g><g transform="translate(5,294)"></g><rect fill="none" stroke="#DDD" width="70" height="30" rx="8" ry="8" x="5" y="304"/><text text-anchor="middle" fill="#333" x="40" y="324">14-01</text><g transform="translate(5,344)"></g></g><g><g transform="translate(85,294)"></g><rect fill="none" stroke="#DDD" width="70" height="30" rx="8" ry="8" x="85" y="304"/><text text-anchor="middle" fill="#333" x="120" y="324">14-03</text><g transform="translate(85,344)"></g></g><g><g transform="translate(165,294)"></g><rect fill="none" stroke="#DDD" width="70" height="30" rx="8" ry="8" x="165" y="304"/><text text-anchor="middle" fill="#333" x="200" y="324">14-04</text><g transform="translate(165,344)"></g></g><g><g transform="translate(245,294)"></g><rect fill="none" stroke="#DDD" width="70" height="30" rx="8" ry="8" x="245" y="304"/><text text-anchor="middle" fill="#333" x="280" y="324">14-05</text><g transform="translate(245,344)"></g></g><g><g transform="translate(325,294)"></g><rect fill="none" stroke="#DDD" width="70" height="30" rx="8" ry="8" x="325" y="304"/><text text-anchor="middle" fill="#333" x="360" y="324">14-06</text><g transform="translate(325,344)"></g></g><g><g transform="translate(405,294)"></g><rect fill="none" stroke="#DDD" width="70" height="30" rx="8" ry="8" x="405" y="304"/><text text-anchor="middle" fill="#333" x="440" y="324">14-07</text><g transform="translate(405,344)"></g></g><g><g transform="translate(485,294)"><g><a target="_top" xlink:href="dtp-sliceTagMedSvc-step2628000-ofs19-col25-cat0.html"><rect style="display:none" class="hcell-act-col25-cat0" fill="#777" stroke="#000" stroke-width="5" width="70" height="279" x="0" y="-284" rx="8" ry="8"/><rect class="hcell-col25-cat0" fill="#777" stroke="#DDD" width="70" height="289" x="0" y="-289" rx="8" ry="8"/><text text-anchor="middle" fill="#FFF" x="35" y="-269">524</text></a></g></g><rect fill="none" stroke="#DDD" width="70" height="30" rx="8" ry="8" x="485" y="304"/><text text-anchor="middle" fill="#333" x="520" y="324">14-08</text><g transform="translate(485,344)"></g></g><g><g transform="translate(565,294)"></g><rect fill="none" stroke="#DDD" width="70" height="30" rx="8" ry="8" x="565" y="304"/><text text-anchor="middle" fill="#333" x="600" y="324">14-08</text><g transform="translate(565,344)"><g><a target="_top" xlink:href="dtp-sliceTagMedSvc-step2628000-ofs19-col26-cat0.html"><rect style="display:none" class="hcell-act-col26-cat0" fill="#777" stroke="#000" stroke-width="5" width="70" height="100" x="0" y="5" rx="8" ry="8"/><rect class="hcell-col26-cat0" fill="#777" stroke="#DDD" width="70" height="110" x="0" y="0" rx="8" ry="8"/><text text-anchor="middle" fill="#FFF" x="35" y="20">-200</text></a></g></g></g><g><g transform="translate(645,294)"></g><rect fill="none" stroke="#DDD" width="70" height="30" rx="8" ry="8" x="645" y="304"/><text text-anchor="middle" fill="#333" x="680" y="324">14-10</text><g transform="translate(645,344)"><g><a target="_top" xlink:href="dtp-sliceTagMedSvc-step2628000-ofs19-col27-cat0.html"><rect style="display:none" class="hcell-act-col27-cat0" fill="#777" stroke="#000" stroke-width="5" width="70" height="100" x="0" y="5" rx="8" ry="8"/><rect class="hcell-col27-cat0" fill="#777" stroke="#DDD" width="70" height="110" x="0" y="0" rx="8" ry="8"/><text text-anchor="middle" fill="#FFF" x="35" y="20">-200</text></a></g></g></g><g><g transform="translate(725,294)"></g><rect fill="none" stroke="#DDD" width="70" height="30" rx="8" ry="8" x="725" y="304"/><text text-anchor="middle" fill="#333" x="760" y="324">14-10</text><g transform="translate(725,344)"><g><a target="_top" xlink:href="dtp-sliceTagMedSvc-step2628000-ofs19-col28-cat0.html"><rect style="display:none" class="hcell-act-col28-cat0" fill="#777" stroke="#000" stroke-width="5" width="70" height="100" x="0" y="5" rx="8" ry="8"/><rect class="hcell-col28-cat0" fill="#777" stroke="#DDD" width="70" height="110" x="0" y="0" rx="8" ry="8"/><text text-anchor="middle" fill="#FFF" x="35" y="20">-200</text></a></g></g></g><g><g transform="translate(805,294)"><g><a target="_top" xlink:href="dtp-sliceTagMedSvc-step2628000-ofs19-col29-cat0.html"><rect style="display:none" class="hcell-act-col29-cat0" fill="#777" stroke="#000" stroke-width="5" width="70" height="91" x="0" y="-96" rx="8" ry="8"/><rect class="hcell-col29-cat0" fill="#777" stroke="#DDD" width="70" height="101" x="0" y="-101" rx="8" ry="8"/><text text-anchor="middle" fill="#FFF" x="35" y="-81">183</text></a></g></g><rect fill="none" stroke="#DDD" width="70" height="30" rx="8" ry="8" x="805" y="304"/><text text-anchor="middle" fill="#333" x="840" y="324">14-12</text><g transform="translate(805,344)"></g></g><g><g transform="translate(885,294)"><g><a target="_top" xlink:href="dtp-sliceTagMedSvc-step2628000-ofs19-col30-cat0.html"><rect style="display:none" class="hcell-act-col30-cat0" fill="#777" stroke="#000" stroke-width="5" width="70" height="261" x="0" y="-266" rx="8" ry="8"/><rect class="hcell-col30-cat0" fill="#777" stroke="#DDD" width="70" height="271" x="0" y="-271" rx="8" ry="8"/><text text-anchor="middle" fill="#FFF" x="35" y="-251">491</text></a></g></g><rect fill="none" stroke="#DDD" width="70" height="30" rx="8" ry="8" x="885" y="304"/><text text-anchor="middle" fill="#333" x="920" y="324">14-12</text><g transform="translate(885,344)"></g></g><g><g transform="translate(965,294)"></g><rect fill="none" stroke="#DDD" width="70" height="30" rx="8" ry="8" x="965" y="304"/><text text-anchor="middle" fill="#333" x="1000" y="324">15-01</text><g transform="translate(965,344)"><g><a target="_top" xlink:href="dtp-sliceTagMedSvc-step2628000-ofs19-col31-cat0.html"><rect style="display:none" class="hcell-act-col31-cat0" fill="#777" stroke="#000" stroke-width="5" width="70" height="100" x="0" y="5" rx="8" ry="8"/><rect class="hcell-col31-cat0" fill="#777" stroke="#DDD" width="70" height="110" x="0" y="0" rx="8" ry="8"/><text text-anchor="middle" fill="#FFF" x="35" y="20">-200</text></a></g></g></g><g><g transform="translate(1045,294)"></g><rect fill="none" stroke="#DDD" width="70" height="30" rx="8" ry="8" x="1045" y="304"/><text text-anchor="middle" fill="#333" x="1080" y="324">15-03</text><g transform="translate(1045,344)"><g><a target="_top" xlink:href="dtp-sliceTagMedSvc-step2628000-ofs19-col32-cat0.html"><rect style="display:none" class="hcell-act-col32-cat0" fill="#777" stroke="#000" stroke-width="5" width="70" height="100" x="0" y="5" rx="8" ry="8"/><rect class="hcell-col32-cat0" fill="#777" stroke="#DDD" width="70" height="110" x="0" y="0" rx="8" ry="8"/><text text-anchor="middle" fill="#FFF" x="35" y="20">-200</text></a></g></g></g><g><g transform="translate(1125,294)"></g><rect fill="none" stroke="#DDD" width="70" height="30" rx="8" ry="8" x="1125" y="304"/><text text-anchor="middle" fill="#333" x="1160" y="324">15-04</text><g transform="translate(1125,344)"><g><a target="_top" xlink:href="dtp-sliceTagMedSvc-step2628000-ofs19-col33-cat0.html"><rect style="display:none" class="hcell-act-col33-cat0" fill="#777" stroke="#000" stroke-width="5" width="70" height="26" x="0" y="5" rx="8" ry="8"/><rect class="hcell-col33-cat0" fill="#777" stroke="#DDD" width="70" height="36" x="0" y="0" rx="8" ry="8"/><text text-anchor="middle" fill="#FFF" x="35" y="20">-67</text></a></g></g></g><g><g transform="translate(1205,294)"></g><rect fill="none" stroke="#DDD" width="70" height="30" rx="8" ry="8" x="1205" y="304"/><text text-anchor="middle" fill="#333" x="1240" y="324">15-05</text><g transform="translate(1205,344)"><g><a target="_top" xlink:href="dtp-sliceTagMedSvc-step2628000-ofs19-col34-cat0.html"><rect style="display:none" class="hcell-act-col34-cat0" fill="#777" stroke="#000" stroke-width="5" width="70" height="100" x="0" y="5" rx="8" ry="8"/><rect class="hcell-col34-cat0" fill="#777" stroke="#DDD" width="70" height="110" x="0" y="0" rx="8" ry="8"/><text text-anchor="middle" fill="#FFF" x="35" y="20">-200</text></a></g></g></g></svg>