<svg xmlns="http://www.w3.org/2000/svg" xmlns:xlink="http://www.w3.org/1999/xlink" width="100%" height="100%" viewBox="0 0 1280 459"><g><g transform="translate(5,196)"><g><a target="_top" xlink:href="dtp-sliceTagWindyVault-step5605201-ofs0-col0-cat0.html"><rect style="display:none" class="hcell-act-col0-cat0" fill="#777" stroke="#000" stroke-width="5" width="70" height="94" x="0" y="-99" rx="8" ry="8"/><rect class="hcell-col0-cat0" fill="#777" stroke="#DDD" width="70" height="104" x="0" y="-104" rx="8" ry="8"/><text text-anchor="middle" fill="#FFF" x="35" y="-84">6046</text></a></g></g><rect fill="none" stroke="#DDD" width="70" height="30" rx="8" ry="8" x="5" y="206"/><text text-anchor="middle" fill="#333" x="40" y="226">12-07</text><g transform="translate(5,246)"><g><a target="_top" xlink:href="dtp-sliceTagWindyVault-step5605201-ofs0-col0-cat0.html"><rect style="display:none" class="hcell-act-col0-cat0" fill="#777" stroke="#000" stroke-width="5" width="70" height="72" x="0" y="5" rx="8" ry="8"/><rect class="hcell-col0-cat0" fill="#777" stroke="#DDD" width="70" height="82" x="0" y="0" rx="8" ry="8"/><text text-anchor="middle" fill="#FFF" x="35" y="20">-4758</text></a></g></g></g><g><g transform="translate(85,196)"><g><a target="_top" xlink:href="dtp-sliceTagWindyVault-step5605201-ofs0-col1-cat0.html"><rect style="display:none" class="hcell-act-col1-cat0" fill="#777" stroke="#000" stroke-width="5" width="70" height="85" x="0" y="-90" rx="8" ry="8"/><rect class="hcell-col1-cat0" fill="#777" stroke="#DDD" width="70" height="95" x="0" y="-95" rx="8" ry="8"/><text text-anchor="middle" fill="#FFF" x="35" y="-75">5502</text></a></g></g><rect fill="none" stroke="#DDD" width="70" height="30" rx="8" ry="8" x="85" y="206"/><text text-anchor="middle" fill="#333" x="120" y="226">12-09</text><g transform="translate(85,246)"><g><a target="_top" xlink:href="dtp-sliceTagWindyVault-step5605201-ofs0-col1-cat0.html"><rect style="display:none" class="hcell-act-col1-cat0" fill="#777" stroke="#000" stroke-width="5" width="70" height="85" x="0" y="5" rx="8" ry="8"/><rect class="hcell-col1-cat0" fill="#777" stroke="#DDD" width="70" height="95" x="0" y="0" rx="8" ry="8"/><text text-anchor="middle" fill="#FFF" x="35" y="20">-5486</text></a></g></g></g><g><g transform="translate(165,196)"><g><a target="_top" xlink:href="dtp-sliceTagWindyVault-step5605201-ofs0-col2-cat0.html"><rect style="display:none" class="hcell-act-col2-cat0" fill="#777" stroke="#000" stroke-width="5" width="70" height="136" x="0" y="-141" rx="8" ry="8"/><rect class="hcell-col2-cat0" fill="#777" stroke="#DDD" width="70" height="146" x="0" y="-146" rx="8" ry="8"/><text text-anchor="middle" fill="#FFF" x="35" y="-126">8464</text></a></g></g><rect fill="none" stroke="#DDD" width="70" height="30" rx="8" ry="8" x="165" y="206"/><text text-anchor="middle" fill="#333" x="200" y="226">12-11</text><g transform="translate(165,246)"><g><a target="_top" xlink:href="dtp-sliceTagWindyVault-step5605201-ofs0-col2-cat0.html"><rect style="display:none" class="hcell-act-col2-cat0" fill="#777" stroke="#000" stroke-width="5" width="70" height="99" x="0" y="5" rx="8" ry="8"/><rect class="hcell-col2-cat0" fill="#777" stroke="#DDD" width="70" height="109" x="0" y="0" rx="8" ry="8"/><text text-anchor="middle" fill="#FFF" x="35" y="20">-6295</text></a></g></g></g><g><g transform="translate(245,196)"><g><a target="_top" xlink:href="dtp-sliceTagWindyVault-step5605201-ofs0-col3-cat0.html"><rect style="display:none" class="hcell-act-col3-cat0" fill="#777" stroke="#000" stroke-width="5" width="70" height="115" x="0" y="-120" rx="8" ry="8"/><rect class="hcell-col3-cat0" fill="#777" stroke="#DDD" width="70" height="125" x="0" y="-125" rx="8" ry="8"/><text text-anchor="middle" fill="#FFF" x="35" y="-105">7247</text></a></g></g><rect fill="none" stroke="#DDD" width="70" height="30" rx="8" ry="8" x="245" y="206"/><text text-anchor="middle" fill="#333" x="280" y="226">13-01</text><g transform="translate(245,246)"><g><a target="_top" xlink:href="dtp-sliceTagWindyVault-step5605201-ofs0-col3-cat0.html"><rect style="display:none" class="hcell-act-col3-cat0" fill="#777" stroke="#000" stroke-width="5" width="70" height="73" x="0" y="5" rx="8" ry="8"/><rect class="hcell-col3-cat0" fill="#777" stroke="#DDD" width="70" height="83" x="0" y="0" rx="8" ry="8"/><text text-anchor="middle" fill="#FFF" x="35" y="20">-4793</text></a></g></g></g><g><g transform="translate(325,196)"><g><a target="_top" xlink:href="dtp-sliceTagWindyVault-step5605201-ofs0-col4-cat0.html"><rect style="display:none" class="hcell-act-col4-cat0" fill="#777" stroke="#000" stroke-width="5" width="70" height="172" x="0" y="-177" rx="8" ry="8"/><rect class="hcell-col4-cat0" fill="#777" stroke="#DDD" width="70" height="182" x="0" y="-182" rx="8" ry="8"/><text text-anchor="middle" fill="#FFF" x="35" y="-162">10558</text></a></g></g><rect fill="none" stroke="#DDD" width="70" height="30" rx="8" ry="8" x="325" y="206"/><text text-anchor="middle" fill="#333" x="360" y="226">13-03</text><g transform="translate(325,246)"><g><a target="_top" xlink:href="dtp-sliceTagWindyVault-step5605201-ofs0-col4-cat0.html"><rect style="display:none" class="hcell-act-col4-cat0" fill="#777" stroke="#000" stroke-width="5" width="70" height="115" x="0" y="5" rx="8" ry="8"/><rect class="hcell-col4-cat0" fill="#777" stroke="#DDD" width="70" height="125" x="0" y="0" rx="8" ry="8"/><text text-anchor="middle" fill="#FFF" x="35" y="20">-7249</text></a></g></g></g><g><g transform="translate(405,196)"><g><a target="_top" xlink:href="dtp-sliceTagWindyVault-step5605201-ofs0-col5-cat0.html"><rect style="display:none" class="hcell-act-col5-cat0" fill="#777" stroke="#000" stroke-width="5" width="70" height="124" x="0" y="-129" rx="8" ry="8"/><rect class="hcell-col5-cat0" fill="#777" stroke="#DDD" width="70" height="134" x="0" y="-134" rx="8" ry="8"/><text text-anchor="middle" fill="#FFF" x="35" y="-114">7779</text></a></g></g><rect fill="none" stroke="#DDD" width="70" height="30" rx="8" ry="8" x="405" y="206"/><text text-anchor="middle" fill="#333" x="440" y="226">13-05</text><g transform="translate(405,246)"><g><a target="_top" xlink:href="dtp-sliceTagWindyVault-step5605201-ofs0-col5-cat0.html"><rect style="display:none" class="hcell-act-col5-cat0" fill="#777" stroke="#000" stroke-width="5" width="70" height="184" x="0" y="5" rx="8" ry="8"/><rect class="hcell-col5-cat0" fill="#777" stroke="#DDD" width="70" height="194" x="0" y="0" rx="8" ry="8"/><text text-anchor="middle" fill="#FFF" x="35" y="20">-11206</text></a></g></g></g><g><g transform="translate(485,196)"><g><a target="_top" xlink:href="dtp-sliceTagWindyVault-step5605201-ofs0-col6-cat0.html"><rect style="display:none" class="hcell-act-col6-cat0" fill="#777" stroke="#000" stroke-width="5" width="70" height="80" x="0" y="-85" rx="8" ry="8"/><rect class="hcell-col6-cat0" fill="#777" stroke="#DDD" width="70" height="90" x="0" y="-90" rx="8" ry="8"/><text text-anchor="middle" fill="#FFF" x="35" y="-70">5224</text></a></g></g><rect fill="none" stroke="#DDD" width="70" height="30" rx="8" ry="8" x="485" y="206"/><text text-anchor="middle" fill="#333" x="520" y="226">13-07</text><g transform="translate(485,246)"><g><a target="_top" xlink:href="dtp-sliceTagWindyVault-step5605201-ofs0-col6-cat0.html"><rect style="display:none" class="hcell-act-col6-cat0" fill="#777" stroke="#000" stroke-width="5" width="70" height="64" x="0" y="5" rx="8" ry="8"/><rect class="hcell-col6-cat0" fill="#777" stroke="#DDD" width="70" height="74" x="0" y="0" rx="8" ry="8"/><text text-anchor="middle" fill="#FFF" x="35" y="20">-4305</text></a></g></g></g><g><g transform="translate(565,196)"><g><a target="_top" xlink:href="dtp-sliceTagWindyVault-step5605201-ofs0-col7-cat0.html"><rect style="display:none" class="hcell-act-col7-cat0" fill="#777" stroke="#000" stroke-width="5" width="70" height="120" x="0" y="-125" rx="8" ry="8"/><rect class="hcell-col7-cat0" fill="#777" stroke="#DDD" width="70" height="130" x="0" y="-130" rx="8" ry="8"/><text text-anchor="middle" fill="#FFF" x="35" y="-110">7531</text></a></g></g><rect fill="none" stroke="#DDD" width="70" height="30" rx="8" ry="8" x="565" y="206"/><text text-anchor="middle" fill="#333" x="600" y="226">13-09</text><g transform="translate(565,246)"><g><a target="_top" xlink:href="dtp-sliceTagWindyVault-step5605201-ofs0-col7-cat0.html"><rect style="display:none" class="hcell-act-col7-cat0" fill="#777" stroke="#000" stroke-width="5" width="70" height="106" x="0" y="5" rx="8" ry="8"/><rect class="hcell-col7-cat0" fill="#777" stroke="#DDD" width="70" height="116" x="0" y="0" rx="8" ry="8"/><text text-anchor="middle" fill="#FFF" x="35" y="20">-6737</text></a></g></g></g><g><g transform="translate(645,196)"><g><a target="_top" xlink:href="dtp-sliceTagWindyVault-step5605201-ofs0-col8-cat0.html"><rect style="display:none" class="hcell-act-col8-cat0" fill="#777" stroke="#000" stroke-width="5" width="70" height="92" x="0" y="-97" rx="8" ry="8"/><rect class="hcell-col8-cat0" fill="#777" stroke="#DDD" width="70" height="102" x="0" y="-102" rx="8" ry="8"/><text text-anchor="middle" fill="#FFF" x="35" y="-82">5900</text></a></g></g><rect fill="none" stroke="#DDD" width="70" height="30" rx="8" ry="8" x="645" y="206"/><text text-anchor="middle" fill="#333" x="680" y="226">13-12</text><g transform="translate(645,246)"><g><a target="_top" xlink:href="dtp-sliceTagWindyVault-step5605201-ofs0-col8-cat0.html"><rect style="display:none" class="hcell-act-col8-cat0" fill="#777" stroke="#000" stroke-width="5" width="70" height="135" x="0" y="5" rx="8" ry="8"/><rect class="hcell-col8-cat0" fill="#777" stroke="#DDD" width="70" height="145" x="0" y="0" rx="8" ry="8"/><text text-anchor="middle" fill="#FFF" x="35" y="20">-8386</text></a></g></g></g><g><g transform="translate(725,196)"><g><a target="_top" xlink:href="dtp-sliceTagWindyVault-step5605201-ofs0-col9-cat0.html"><rect style="display:none" class="hcell-act-col9-cat0" fill="#777" stroke="#000" stroke-width="5" width="70" height="106" x="0" y="-111" rx="8" ry="8"/><rect class="hcell-col9-cat0" fill="#777" stroke="#DDD" width="70" height="116" x="0" y="-116" rx="8" ry="8"/><text text-anchor="middle" fill="#FFF" x="35" y="-96">6726</text></a></g></g><rect fill="none" stroke="#DDD" width="70" height="30" rx="8" ry="8" x="725" y="206"/><text text-anchor="middle" fill="#333" x="760" y="226">14-02</text><g transform="translate(725,246)"><g><a target="_top" xlink:href="dtp-sliceTagWindyVault-step5605201-ofs0-col9-cat0.html"><rect style="display:none" class="hcell-act-col9-cat0" fill="#777" stroke="#000" stroke-width="5" width="70" height="181" x="0" y="5" rx="8" ry="8"/><rect class="hcell-col9-cat0" fill="#777" stroke="#DDD" width="70" height="191" x="0" y="0" rx="8" ry="8"/><text text-anchor="middle" fill="#FFF" x="35" y="20">-11044</text></a></g></g></g><g><g transform="translate(805,196)"><g><a target="_top" xlink:href="dtp-sliceTagWindyVault-step5605201-ofs0-col10-cat0.html"><rect style="display:none" class="hcell-act-col10-cat0" fill="#777" stroke="#000" stroke-width="5" width="70" height="181" x="0" y="-186" rx="8" ry="8"/><rect class="hcell-col10-cat0" fill="#777" stroke="#DDD" width="70" height="191" x="0" y="-191" rx="8" ry="8"/><text text-anchor="middle" fill="#FFF" x="35" y="-171">11064</text></a></g></g><rect fill="none" stroke="#DDD" width="70" height="30" rx="8" ry="8" x="805" y="206"/><text text-anchor="middle" fill="#333" x="840" y="226">14-04</text><g transform="translate(805,246)"><g><a target="_top" xlink:href="dtp-sliceTagWindyVault-step5605201-ofs0-col10-cat0.html"><rect style="display:none" class="hcell-act-col10-cat0" fill="#777" stroke="#000" stroke-width="5" width="70" height="132" x="0" y="5" rx="8" ry="8"/><rect class="hcell-col10-cat0" fill="#777" stroke="#DDD" width="70" height="142" x="0" y="0" rx="8" ry="8"/><text text-anchor="middle" fill="#FFF" x="35" y="20">-8213</text></a></g></g></g><g><g transform="translate(885,196)"><g><a target="_top" xlink:href="dtp-sliceTagWindyVault-step5605201-ofs0-col11-cat0.html"><rect style="display:none" class="hcell-act-col11-cat0" fill="#777" stroke="#000" stroke-width="5" width="70" height="156" x="0" y="-161" rx="8" ry="8"/><rect class="hcell-col11-cat0" fill="#777" stroke="#DDD" width="70" height="166" x="0" y="-166" rx="8" ry="8"/><text text-anchor="middle" fill="#FFF" x="35" y="-146">9619</text></a></g></g><rect fill="none" stroke="#DDD" width="70" height="30" rx="8" ry="8" x="885" y="206"/><text text-anchor="middle" fill="#333" x="920" y="226">14-06</text><g transform="translate(885,246)"><g><a target="_top" xlink:href="dtp-sliceTagWindyVault-step5605201-ofs0-col11-cat0.html"><rect style="display:none" class="hcell-act-col11-cat0" fill="#777" stroke="#000" stroke-width="5" width="70" height="90" x="0" y="5" rx="8" ry="8"/><rect class="hcell-col11-cat0" fill="#777" stroke="#DDD" width="70" height="100" x="0" y="0" rx="8" ry="8"/><text text-anchor="middle" fill="#FFF" x="35" y="20">-5798</text></a></g></g></g><g><g transform="translate(965,196)"><g><a target="_top" xlink:href="dtp-sliceTagWindyVault-step5605201-ofs0-col12-cat0.html"><rect style="display:none" class="hcell-act-col12-cat0" fill="#777" stroke="#000" stroke-width="5" width="70" height="124" x="0" y="-129" rx="8" ry="8"/><rect class="hcell-col12-cat0" fill="#777" stroke="#DDD" width="70" height="134" x="0" y="-134" rx="8" ry="8"/><text text-anchor="middle" fill="#FFF" x="35" y="-114">7740</text></a></g></g><rect fill="none" stroke="#DDD" width="70" height="30" rx="8" ry="8" x="965" y="206"/><text text-anchor="middle" fill="#333" x="1000" y="226">14-08</text><g transform="translate(965,246)"><g><a target="_top" xlink:href="dtp-sliceTagWindyVault-step5605201-ofs0-col12-cat0.html"><rect style="display:none" class="hcell-act-col12-cat0" fill="#777" stroke="#000" stroke-width="5" width="70" height="158" x="0" y="5" rx="8" ry="8"/><rect class="hcell-col12-cat0" fill="#777" stroke="#DDD" width="70" height="168" x="0" y="0" rx="8" ry="8"/><text text-anchor="middle" fill="#FFF" x="35" y="20">-9745</text></a></g></g></g><g><g transform="translate(1045,196)"><g><a target="_top" xlink:href="dtp-sliceTagWindyVault-step5605201-ofs0-col13-cat0.html"><rect style="display:none" class="hcell-act-col13-cat0" fill="#777" stroke="#000" stroke-width="5" width="70" height="110" x="0" y="-115" rx="8" ry="8"/><rect class="hcell-col13-cat0" fill="#777" stroke="#DDD" width="70" height="120" x="0" y="-120" rx="8" ry="8"/><text text-anchor="middle" fill="#FFF" x="35" y="-100">6927</text></a></g></g><rect fill="none" stroke="#DDD" width="70" height="30" rx="8" ry="8" x="1045" y="206"/><text text-anchor="middle" fill="#333" x="1080" y="226">14-10</text><g transform="translate(1045,246)"><g><a target="_top" xlink:href="dtp-sliceTagWindyVault-step5605201-ofs0-col13-cat0.html"><rect style="display:none" class="hcell-act-col13-cat0" fill="#777" stroke="#000" stroke-width="5" width="70" height="79" x="0" y="5" rx="8" ry="8"/><rect class="hcell-col13-cat0" fill="#777" stroke="#DDD" width="70" height="89" x="0" y="0" rx="8" ry="8"/><text text-anchor="middle" fill="#FFF" x="35" y="20">-5192</text></a></g></g></g><g><g transform="translate(1125,196)"><g><a target="_top" xlink:href="dtp-sliceTagWindyVault-step5605201-ofs0-col14-cat0.html"><rect style="display:none" class="hcell-act-col14-cat0" fill="#777" stroke="#000" stroke-width="5" width="70" height="135" x="0" y="-140" rx="8" ry="8"/><rect class="hcell-col14-cat0" fill="#777" stroke="#DDD" width="70" height="145" x="0" y="-145" rx="8" ry="8"/><text text-anchor="middle" fill="#FFF" x="35" y="-125">8389</text></a></g></g><rect fill="none" stroke="#DDD" width="70" height="30" rx="8" ry="8" x="1125" y="206"/><text text-anchor="middle" fill="#333" x="1160" y="226">14-12</text><g transform="translate(1125,246)"><g><a target="_top" xlink:href="dtp-sliceTagWindyVault-step5605201-ofs0-col14-cat0.html"><rect style="display:none" class="hcell-act-col14-cat0" fill="#777" stroke="#000" stroke-width="5" width="70" height="198" x="0" y="5" rx="8" ry="8"/><rect class="hcell-col14-cat0" fill="#777" stroke="#DDD" width="70" height="208" x="0" y="0" rx="8" ry="8"/><text text-anchor="middle" fill="#FFF" x="35" y="20">-12024</text></a></g></g></g><g><g transform="translate(1205,196)"><g><a target="_top" xlink:href="dtp-sliceTagWindyVault-step5605201-ofs0-col15-cat0.html"><rect style="display:none" class="hcell-act-col15-cat0" fill="#777" stroke="#000" stroke-width="5" width="70" height="117" x="0" y="-122" rx="8" ry="8"/><rect class="hcell-col15-cat0" fill="#777" stroke="#DDD" width="70" height="127" x="0" y="-127" rx="8" ry="8"/><text text-anchor="middle" fill="#FFF" x="35" y="-107">7377</text></a></g></g><rect fill="none" stroke="#DDD" width="70" height="30" rx="8" ry="8" x="1205" y="206"/><text text-anchor="middle" fill="#333" x="1240" y="226">15-03</text><g transform="translate(1205,246)"><g><a target="_top" xlink:href="dtp-sliceTagWindyVault-step5605201-ofs0-col15-cat0.html"><rect style="display:none" class="hcell-act-col15-cat0" fill="#777" stroke="#000" stroke-width="5" width="70" height="153" x="0" y="5" rx="8" ry="8"/><rect class="hcell-col15-cat0" fill="#777" stroke="#DDD" width="70" height="163" x="0" y="0" rx="8" ry="8"/><text text-anchor="middle" fill="#FFF" x="35" y="20">-9460</text></a></g></g></g></svg>