<svg xmlns="http://www.w3.org/2000/svg" xmlns:xlink="http://www.w3.org/1999/xlink" width="100%" height="100%" viewBox="0 0 1280 488"><g><g transform="translate(5,212)"><g><a target="_top" xlink:href="dtp-slice6-step5605201-ofs0-col0-cat2.html"><rect style="display:none" class="hcell-act-col0-cat2" fill="#D9534F" stroke="#000" stroke-width="5" width="70" height="36" x="0" y="-41" rx="8" ry="8"/><rect class="hcell-col0-cat2" fill="#D9534F" stroke="#DDD" width="70" height="46" x="0" y="-46" rx="8" ry="8"/><text text-anchor="middle" fill="#FFF" x="35" y="-26">4706</text></a><g transform="translate(0,-46)"><g><a target="_top" xlink:href="dtp-slice6-step5605201-ofs0-col0-cat0.html"><rect style="display:none" class="hcell-act-col0-cat0" fill="#5CB85C" stroke="#000" stroke-width="5" width="70" height="78" x="0" y="-83" rx="8" ry="8"/><rect class="hcell-col0-cat0" fill="#5CB85C" stroke="#DDD" width="70" height="88" x="0" y="-88" rx="8" ry="8"/><text text-anchor="middle" fill="#FFF" x="35" y="-68">9067</text></a></g></g></g></g><rect fill="none" stroke="#DDD" width="70" height="30" rx="8" ry="8" x="5" y="222"/><text text-anchor="middle" fill="#333" x="40" y="242">12-07</text><g transform="translate(5,262)"><g><a target="_top" xlink:href="dtp-slice6-step5605201-ofs0-col0-cat2.html"><rect style="display:none" class="hcell-act-col0-cat2" fill="#D9534F" stroke="#000" stroke-width="5" width="70" height="20" x="0" y="5" rx="8" ry="8"/><rect class="hcell-col0-cat2" fill="#D9534F" stroke="#DDD" width="70" height="30" x="0" y="0" rx="8" ry="8"/><text text-anchor="middle" fill="#FFF" x="35" y="20">-157</text></a><g transform="translate(0,30)"><g><a target="_top" xlink:href="dtp-slice6-step5605201-ofs0-col0-cat0.html"><rect style="display:none" class="hcell-act-col0-cat0" fill="#5CB85C" stroke="#000" stroke-width="5" width="70" height="37" x="0" y="5" rx="8" ry="8"/><rect class="hcell-col0-cat0" fill="#5CB85C" stroke="#DDD" width="70" height="47" x="0" y="0" rx="8" ry="8"/><text text-anchor="middle" fill="#FFF" x="35" y="20">-4825</text></a><g transform="translate(0,47)"><g><a target="_top" xlink:href="dtp-slice6-step5605201-ofs0-col0-cat1.html"><rect style="display:none" class="hcell-act-col0-cat1" fill="#337AB7" stroke="#000" stroke-width="5" width="70" height="76" x="0" y="5" rx="8" ry="8"/><rect class="hcell-col0-cat1" fill="#337AB7" stroke="#DDD" width="70" height="86" x="0" y="0" rx="8" ry="8"/><text text-anchor="middle" fill="#FFF" x="35" y="20">-8794</text></a></g></g></g></g></g></g></g><g><g transform="translate(85,212)"><g><a target="_top" xlink:href="dtp-slice6-step5605201-ofs0-col1-cat2.html"><rect style="display:none" class="hcell-act-col1-cat2" fill="#D9534F" stroke="#000" stroke-width="5" width="70" height="35" x="0" y="-40" rx="8" ry="8"/><rect class="hcell-col1-cat2" fill="#D9534F" stroke="#DDD" width="70" height="45" x="0" y="-45" rx="8" ry="8"/><text text-anchor="middle" fill="#FFF" x="35" y="-25">4694</text></a><g transform="translate(0,-45)"><g><a target="_top" xlink:href="dtp-slice6-step5605201-ofs0-col1-cat0.html"><rect style="display:none" class="hcell-act-col1-cat0" fill="#5CB85C" stroke="#000" stroke-width="5" width="70" height="53" x="0" y="-58" rx="8" ry="8"/><rect class="hcell-col1-cat0" fill="#5CB85C" stroke="#DDD" width="70" height="63" x="0" y="-63" rx="8" ry="8"/><text text-anchor="middle" fill="#FFF" x="35" y="-43">6502</text></a></g></g></g></g><rect fill="none" stroke="#DDD" width="70" height="30" rx="8" ry="8" x="85" y="222"/><text text-anchor="middle" fill="#333" x="120" y="242">12-09</text><g transform="translate(85,262)"><g><a target="_top" xlink:href="dtp-slice6-step5605201-ofs0-col1-cat2.html"><rect style="display:none" class="hcell-act-col1-cat2" fill="#D9534F" stroke="#000" stroke-width="5" width="70" height="20" x="0" y="5" rx="8" ry="8"/><rect class="hcell-col1-cat2" fill="#D9534F" stroke="#DDD" width="70" height="30" x="0" y="0" rx="8" ry="8"/><text text-anchor="middle" fill="#FFF" x="35" y="20">-101</text></a><g transform="translate(0,30)"><g><a target="_top" xlink:href="dtp-slice6-step5605201-ofs0-col1-cat0.html"><rect style="display:none" class="hcell-act-col1-cat0" fill="#5CB85C" stroke="#000" stroke-width="5" width="70" height="43" x="0" y="5" rx="8" ry="8"/><rect class="hcell-col1-cat0" fill="#5CB85C" stroke="#DDD" width="70" height="53" x="0" y="0" rx="8" ry="8"/><text text-anchor="middle" fill="#FFF" x="35" y="20">-5503</text></a><g transform="translate(0,53)"><g><a target="_top" xlink:href="dtp-slice6-step5605201-ofs0-col1-cat1.html"><rect style="display:none" class="hcell-act-col1-cat1" fill="#337AB7" stroke="#000" stroke-width="5" width="70" height="44" x="0" y="5" rx="8" ry="8"/><rect class="hcell-col1-cat1" fill="#337AB7" stroke="#DDD" width="70" height="54" x="0" y="0" rx="8" ry="8"/><text text-anchor="middle" fill="#FFF" x="35" y="20">-5595</text></a></g></g></g></g></g></g></g><g><g transform="translate(165,212)"><g><a target="_top" xlink:href="dtp-slice6-step5605201-ofs0-col2-cat2.html"><rect style="display:none" class="hcell-act-col2-cat2" fill="#D9534F" stroke="#000" stroke-width="5" width="70" height="42" x="0" y="-47" rx="8" ry="8"/><rect class="hcell-col2-cat2" fill="#D9534F" stroke="#DDD" width="70" height="52" x="0" y="-52" rx="8" ry="8"/><text text-anchor="middle" fill="#FFF" x="35" y="-32">5328</text></a><g transform="translate(0,-52)"><g><a target="_top" xlink:href="dtp-slice6-step5605201-ofs0-col2-cat0.html"><rect style="display:none" class="hcell-act-col2-cat0" fill="#5CB85C" stroke="#000" stroke-width="5" width="70" height="72" x="0" y="-77" rx="8" ry="8"/><rect class="hcell-col2-cat0" fill="#5CB85C" stroke="#DDD" width="70" height="82" x="0" y="-82" rx="8" ry="8"/><text text-anchor="middle" fill="#FFF" x="35" y="-62">8464</text></a></g></g></g></g><rect fill="none" stroke="#DDD" width="70" height="30" rx="8" ry="8" x="165" y="222"/><text text-anchor="middle" fill="#333" x="200" y="242">12-11</text><g transform="translate(165,262)"><g><a target="_top" xlink:href="dtp-slice6-step5605201-ofs0-col2-cat2.html"><rect style="display:none" class="hcell-act-col2-cat2" fill="#D9534F" stroke="#000" stroke-width="5" width="70" height="20" x="0" y="5" rx="8" ry="8"/><rect class="hcell-col2-cat2" fill="#D9534F" stroke="#DDD" width="70" height="30" x="0" y="0" rx="8" ry="8"/><text text-anchor="middle" fill="#FFF" x="35" y="20">-44</text></a><g transform="translate(0,30)"><g><a target="_top" xlink:href="dtp-slice6-step5605201-ofs0-col2-cat1.html"><rect style="display:none" class="hcell-act-col2-cat1" fill="#337AB7" stroke="#000" stroke-width="5" width="70" height="45" x="0" y="5" rx="8" ry="8"/><rect class="hcell-col2-cat1" fill="#337AB7" stroke="#DDD" width="70" height="55" x="0" y="0" rx="8" ry="8"/><text text-anchor="middle" fill="#FFF" x="35" y="20">-5673</text></a><g transform="translate(0,55)"><g><a target="_top" xlink:href="dtp-slice6-step5605201-ofs0-col2-cat0.html"><rect style="display:none" class="hcell-act-col2-cat0" fill="#5CB85C" stroke="#000" stroke-width="5" width="70" height="52" x="0" y="5" rx="8" ry="8"/><rect class="hcell-col2-cat0" fill="#5CB85C" stroke="#DDD" width="70" height="62" x="0" y="0" rx="8" ry="8"/><text text-anchor="middle" fill="#FFF" x="35" y="20">-6357</text></a></g></g></g></g></g></g></g><g><g transform="translate(245,212)"><g><a target="_top" xlink:href="dtp-slice6-step5605201-ofs0-col3-cat2.html"><rect style="display:none" class="hcell-act-col3-cat2" fill="#D9534F" stroke="#000" stroke-width="5" width="70" height="40" x="0" y="-45" rx="8" ry="8"/><rect class="hcell-col3-cat2" fill="#D9534F" stroke="#DDD" width="70" height="50" x="0" y="-50" rx="8" ry="8"/><text text-anchor="middle" fill="#FFF" x="35" y="-30">5172</text></a><g transform="translate(0,-50)"><g><a target="_top" xlink:href="dtp-slice6-step5605201-ofs0-col3-cat0.html"><rect style="display:none" class="hcell-act-col3-cat0" fill="#5CB85C" stroke="#000" stroke-width="5" width="70" height="65" x="0" y="-70" rx="8" ry="8"/><rect class="hcell-col3-cat0" fill="#5CB85C" stroke="#DDD" width="70" height="75" x="0" y="-75" rx="8" ry="8"/><text text-anchor="middle" fill="#FFF" x="35" y="-55">7727</text></a></g></g></g></g><rect fill="none" stroke="#DDD" width="70" height="30" rx="8" ry="8" x="245" y="222"/><text text-anchor="middle" fill="#333" x="280" y="242">13-01</text><g transform="translate(245,262)"><g><a target="_top" xlink:href="dtp-slice6-step5605201-ofs0-col3-cat2.html"><rect style="display:none" class="hcell-act-col3-cat2" fill="#D9534F" stroke="#000" stroke-width="5" width="70" height="20" x="0" y="5" rx="8" ry="8"/><rect class="hcell-col3-cat2" fill="#D9534F" stroke="#DDD" width="70" height="30" x="0" y="0" rx="8" ry="8"/><text text-anchor="middle" fill="#FFF" x="35" y="20">-43</text></a><g transform="translate(0,30)"><g><a target="_top" xlink:href="dtp-slice6-step5605201-ofs0-col3-cat1.html"><rect style="display:none" class="hcell-act-col3-cat1" fill="#337AB7" stroke="#000" stroke-width="5" width="70" height="48" x="0" y="5" rx="8" ry="8"/><rect class="hcell-col3-cat1" fill="#337AB7" stroke="#DDD" width="70" height="58" x="0" y="0" rx="8" ry="8"/><text text-anchor="middle" fill="#FFF" x="35" y="20">-5954</text></a><g transform="translate(0,58)"><g><a target="_top" xlink:href="dtp-slice6-step5605201-ofs0-col3-cat0.html"><rect style="display:none" class="hcell-act-col3-cat0" fill="#5CB85C" stroke="#000" stroke-width="5" width="70" height="59" x="0" y="5" rx="8" ry="8"/><rect class="hcell-col3-cat0" fill="#5CB85C" stroke="#DDD" width="70" height="69" x="0" y="0" rx="8" ry="8"/><text text-anchor="middle" fill="#FFF" x="35" y="20">-7064</text></a></g></g></g></g></g></g></g><g><g transform="translate(325,212)"><g><a target="_top" xlink:href="dtp-slice6-step5605201-ofs0-col4-cat2.html"><rect style="display:none" class="hcell-act-col4-cat2" fill="#D9534F" stroke="#000" stroke-width="5" width="70" height="36" x="0" y="-41" rx="8" ry="8"/><rect class="hcell-col4-cat2" fill="#D9534F" stroke="#DDD" width="70" height="46" x="0" y="-46" rx="8" ry="8"/><text text-anchor="middle" fill="#FFF" x="35" y="-26">4710</text></a><g transform="translate(0,-46)"><g><a target="_top" xlink:href="dtp-slice6-step5605201-ofs0-col4-cat0.html"><rect style="display:none" class="hcell-act-col4-cat0" fill="#5CB85C" stroke="#000" stroke-width="5" width="70" height="93" x="0" y="-98" rx="8" ry="8"/><rect class="hcell-col4-cat0" fill="#5CB85C" stroke="#DDD" width="70" height="103" x="0" y="-103" rx="8" ry="8"/><text text-anchor="middle" fill="#FFF" x="35" y="-83">10558</text></a></g></g></g></g><rect fill="none" stroke="#DDD" width="70" height="30" rx="8" ry="8" x="325" y="222"/><text text-anchor="middle" fill="#333" x="360" y="242">13-03</text><g transform="translate(325,262)"><g><a target="_top" xlink:href="dtp-slice6-step5605201-ofs0-col4-cat0.html"><rect style="display:none" class="hcell-act-col4-cat0" fill="#5CB85C" stroke="#000" stroke-width="5" width="70" height="61" x="0" y="5" rx="8" ry="8"/><rect class="hcell-col4-cat0" fill="#5CB85C" stroke="#DDD" width="70" height="71" x="0" y="0" rx="8" ry="8"/><text text-anchor="middle" fill="#FFF" x="35" y="20">-7274</text></a><g transform="translate(0,71)"><g><a target="_top" xlink:href="dtp-slice6-step5605201-ofs0-col4-cat1.html"><rect style="display:none" class="hcell-act-col4-cat1" fill="#337AB7" stroke="#000" stroke-width="5" width="70" height="68" x="0" y="5" rx="8" ry="8"/><rect class="hcell-col4-cat1" fill="#337AB7" stroke="#DDD" width="70" height="78" x="0" y="0" rx="8" ry="8"/><text text-anchor="middle" fill="#FFF" x="35" y="20">-7995</text></a></g></g></g></g></g><g><g transform="translate(405,212)"><g><a target="_top" xlink:href="dtp-slice6-step5605201-ofs0-col5-cat2.html"><rect style="display:none" class="hcell-act-col5-cat2" fill="#D9534F" stroke="#000" stroke-width="5" width="70" height="60" x="0" y="-65" rx="8" ry="8"/><rect class="hcell-col5-cat2" fill="#D9534F" stroke="#DDD" width="70" height="70" x="0" y="-70" rx="8" ry="8"/><text text-anchor="middle" fill="#FFF" x="35" y="-50">7212</text></a><g transform="translate(0,-70)"><g><a target="_top" xlink:href="dtp-slice6-step5605201-ofs0-col5-cat0.html"><rect style="display:none" class="hcell-act-col5-cat0" fill="#5CB85C" stroke="#000" stroke-width="5" width="70" height="66" x="0" y="-71" rx="8" ry="8"/><rect class="hcell-col5-cat0" fill="#5CB85C" stroke="#DDD" width="70" height="76" x="0" y="-76" rx="8" ry="8"/><text text-anchor="middle" fill="#FFF" x="35" y="-56">7779</text></a></g></g></g></g><rect fill="none" stroke="#DDD" width="70" height="30" rx="8" ry="8" x="405" y="222"/><text text-anchor="middle" fill="#333" x="440" y="242">13-05</text><g transform="translate(405,262)"><g><a target="_top" xlink:href="dtp-slice6-step5605201-ofs0-col5-cat2.html"><rect style="display:none" class="hcell-act-col5-cat2" fill="#D9534F" stroke="#000" stroke-width="5" width="70" height="20" x="0" y="5" rx="8" ry="8"/><rect class="hcell-col5-cat2" fill="#D9534F" stroke="#DDD" width="70" height="30" x="0" y="0" rx="8" ry="8"/><text text-anchor="middle" fill="#FFF" x="35" y="20">-164</text></a><g transform="translate(0,30)"><g><a target="_top" xlink:href="dtp-slice6-step5605201-ofs0-col5-cat1.html"><rect style="display:none" class="hcell-act-col5-cat1" fill="#337AB7" stroke="#000" stroke-width="5" width="70" height="44" x="0" y="5" rx="8" ry="8"/><rect class="hcell-col5-cat1" fill="#337AB7" stroke="#DDD" width="70" height="54" x="0" y="0" rx="8" ry="8"/><text text-anchor="middle" fill="#FFF" x="35" y="20">-5516</text></a><g transform="translate(0,54)"><g><a target="_top" xlink:href="dtp-slice6-step5605201-ofs0-col5-cat0.html"><rect style="display:none" class="hcell-act-col5-cat0" fill="#5CB85C" stroke="#000" stroke-width="5" width="70" height="115" x="0" y="5" rx="8" ry="8"/><rect class="hcell-col5-cat0" fill="#5CB85C" stroke="#DDD" width="70" height="125" x="0" y="0" rx="8" ry="8"/><text text-anchor="middle" fill="#FFF" x="35" y="20">-12773</text></a></g></g></g></g></g></g></g><g><g transform="translate(485,212)"><g><a target="_top" xlink:href="dtp-slice6-step5605201-ofs0-col6-cat2.html"><rect style="display:none" class="hcell-act-col6-cat2" fill="#D9534F" stroke="#000" stroke-width="5" width="70" height="34" x="0" y="-39" rx="8" ry="8"/><rect class="hcell-col6-cat2" fill="#D9534F" stroke="#DDD" width="70" height="44" x="0" y="-44" rx="8" ry="8"/><text text-anchor="middle" fill="#FFF" x="35" y="-24">4553</text></a><g transform="translate(0,-44)"><g><a target="_top" xlink:href="dtp-slice6-step5605201-ofs0-col6-cat0.html"><rect style="display:none" class="hcell-act-col6-cat0" fill="#5CB85C" stroke="#000" stroke-width="5" width="70" height="59" x="0" y="-64" rx="8" ry="8"/><rect class="hcell-col6-cat0" fill="#5CB85C" stroke="#DDD" width="70" height="69" x="0" y="-69" rx="8" ry="8"/><text text-anchor="middle" fill="#FFF" x="35" y="-49">7124</text></a></g></g></g></g><rect fill="none" stroke="#DDD" width="70" height="30" rx="8" ry="8" x="485" y="222"/><text text-anchor="middle" fill="#333" x="520" y="242">13-07</text><g transform="translate(485,262)"><g><a target="_top" xlink:href="dtp-slice6-step5605201-ofs0-col6-cat2.html"><rect style="display:none" class="hcell-act-col6-cat2" fill="#D9534F" stroke="#000" stroke-width="5" width="70" height="20" x="0" y="5" rx="8" ry="8"/><rect class="hcell-col6-cat2" fill="#D9534F" stroke="#DDD" width="70" height="30" x="0" y="0" rx="8" ry="8"/><text text-anchor="middle" fill="#FFF" x="35" y="20">-25</text></a><g transform="translate(0,30)"><g><a target="_top" xlink:href="dtp-slice6-step5605201-ofs0-col6-cat0.html"><rect style="display:none" class="hcell-act-col6-cat0" fill="#5CB85C" stroke="#000" stroke-width="5" width="70" height="32" x="0" y="5" rx="8" ry="8"/><rect class="hcell-col6-cat0" fill="#5CB85C" stroke="#DDD" width="70" height="42" x="0" y="0" rx="8" ry="8"/><text text-anchor="middle" fill="#FFF" x="35" y="20">-4379</text></a><g transform="translate(0,42)"><g><a target="_top" xlink:href="dtp-slice6-step5605201-ofs0-col6-cat1.html"><rect style="display:none" class="hcell-act-col6-cat1" fill="#337AB7" stroke="#000" stroke-width="5" width="70" height="42" x="0" y="5" rx="8" ry="8"/><rect class="hcell-col6-cat1" fill="#337AB7" stroke="#DDD" width="70" height="52" x="0" y="0" rx="8" ry="8"/><text text-anchor="middle" fill="#FFF" x="35" y="20">-5375</text></a></g></g></g></g></g></g></g><g><g transform="translate(565,212)"><g><a target="_top" xlink:href="dtp-slice6-step5605201-ofs0-col7-cat2.html"><rect style="display:none" class="hcell-act-col7-cat2" fill="#D9534F" stroke="#000" stroke-width="5" width="70" height="37" x="0" y="-42" rx="8" ry="8"/><rect class="hcell-col7-cat2" fill="#D9534F" stroke="#DDD" width="70" height="47" x="0" y="-47" rx="8" ry="8"/><text text-anchor="middle" fill="#FFF" x="35" y="-27">4862</text></a><g transform="translate(0,-47)"><g><a target="_top" xlink:href="dtp-slice6-step5605201-ofs0-col7-cat0.html"><rect style="display:none" class="hcell-act-col7-cat0" fill="#5CB85C" stroke="#000" stroke-width="5" width="70" height="63" x="0" y="-68" rx="8" ry="8"/><rect class="hcell-col7-cat0" fill="#5CB85C" stroke="#DDD" width="70" height="73" x="0" y="-73" rx="8" ry="8"/><text text-anchor="middle" fill="#FFF" x="35" y="-53">7531</text></a></g></g></g></g><rect fill="none" stroke="#DDD" width="70" height="30" rx="8" ry="8" x="565" y="222"/><text text-anchor="middle" fill="#333" x="600" y="242">13-09</text><g transform="translate(565,262)"><g><a target="_top" xlink:href="dtp-slice6-step5605201-ofs0-col7-cat2.html"><rect style="display:none" class="hcell-act-col7-cat2" fill="#D9534F" stroke="#000" stroke-width="5" width="70" height="20" x="0" y="5" rx="8" ry="8"/><rect class="hcell-col7-cat2" fill="#D9534F" stroke="#DDD" width="70" height="30" x="0" y="0" rx="8" ry="8"/><text text-anchor="middle" fill="#FFF" x="35" y="20">-26</text></a><g transform="translate(0,30)"><g><a target="_top" xlink:href="dtp-slice6-step5605201-ofs0-col7-cat1.html"><rect style="display:none" class="hcell-act-col7-cat1" fill="#337AB7" stroke="#000" stroke-width="5" width="70" height="44" x="0" y="5" rx="8" ry="8"/><rect class="hcell-col7-cat1" fill="#337AB7" stroke="#DDD" width="70" height="54" x="0" y="0" rx="8" ry="8"/><text text-anchor="middle" fill="#FFF" x="35" y="20">-5558</text></a><g transform="translate(0,54)"><g><a target="_top" xlink:href="dtp-slice6-step5605201-ofs0-col7-cat0.html"><rect style="display:none" class="hcell-act-col7-cat0" fill="#5CB85C" stroke="#000" stroke-width="5" width="70" height="56" x="0" y="5" rx="8" ry="8"/><rect class="hcell-col7-cat0" fill="#5CB85C" stroke="#DDD" width="70" height="66" x="0" y="0" rx="8" ry="8"/><text text-anchor="middle" fill="#FFF" x="35" y="20">-6812</text></a></g></g></g></g></g></g></g><g><g transform="translate(645,212)"><g><a target="_top" xlink:href="dtp-slice6-step5605201-ofs0-col8-cat2.html"><rect style="display:none" class="hcell-act-col8-cat2" fill="#D9534F" stroke="#000" stroke-width="5" width="70" height="43" x="0" y="-48" rx="8" ry="8"/><rect class="hcell-col8-cat2" fill="#D9534F" stroke="#DDD" width="70" height="53" x="0" y="-53" rx="8" ry="8"/><text text-anchor="middle" fill="#FFF" x="35" y="-33">5414</text></a><g transform="translate(0,-53)"><g><a target="_top" xlink:href="dtp-slice6-step5605201-ofs0-col8-cat0.html"><rect style="display:none" class="hcell-act-col8-cat0" fill="#5CB85C" stroke="#000" stroke-width="5" width="70" height="68" x="0" y="-73" rx="8" ry="8"/><rect class="hcell-col8-cat0" fill="#5CB85C" stroke="#DDD" width="70" height="78" x="0" y="-78" rx="8" ry="8"/><text text-anchor="middle" fill="#FFF" x="35" y="-58">7998</text></a></g></g></g></g><rect fill="none" stroke="#DDD" width="70" height="30" rx="8" ry="8" x="645" y="222"/><text text-anchor="middle" fill="#333" x="680" y="242">13-12</text><g transform="translate(645,262)"><g><a target="_top" xlink:href="dtp-slice6-step5605201-ofs0-col8-cat2.html"><rect style="display:none" class="hcell-act-col8-cat2" fill="#D9534F" stroke="#000" stroke-width="5" width="70" height="20" x="0" y="5" rx="8" ry="8"/><rect class="hcell-col8-cat2" fill="#D9534F" stroke="#DDD" width="70" height="30" x="0" y="0" rx="8" ry="8"/><text text-anchor="middle" fill="#FFF" x="35" y="20">-81</text></a><g transform="translate(0,30)"><g><a target="_top" xlink:href="dtp-slice6-step5605201-ofs0-col8-cat1.html"><rect style="display:none" class="hcell-act-col8-cat1" fill="#337AB7" stroke="#000" stroke-width="5" width="70" height="42" x="0" y="5" rx="8" ry="8"/><rect class="hcell-col8-cat1" fill="#337AB7" stroke="#DDD" width="70" height="52" x="0" y="0" rx="8" ry="8"/><text text-anchor="middle" fill="#FFF" x="35" y="20">-5410</text></a><g transform="translate(0,52)"><g><a target="_top" xlink:href="dtp-slice6-step5605201-ofs0-col8-cat0.html"><rect style="display:none" class="hcell-act-col8-cat0" fill="#5CB85C" stroke="#000" stroke-width="5" width="70" height="77" x="0" y="5" rx="8" ry="8"/><rect class="hcell-col8-cat0" fill="#5CB85C" stroke="#DDD" width="70" height="87" x="0" y="0" rx="8" ry="8"/><text text-anchor="middle" fill="#FFF" x="35" y="20">-8963</text></a></g></g></g></g></g></g></g><g><g transform="translate(725,212)"><g><a target="_top" xlink:href="dtp-slice6-step5605201-ofs0-col9-cat2.html"><rect style="display:none" class="hcell-act-col9-cat2" fill="#D9534F" stroke="#000" stroke-width="5" width="70" height="55" x="0" y="-60" rx="8" ry="8"/><rect class="hcell-col9-cat2" fill="#D9534F" stroke="#DDD" width="70" height="65" x="0" y="-65" rx="8" ry="8"/><text text-anchor="middle" fill="#FFF" x="35" y="-45">6680</text></a><g transform="translate(0,-65)"><g><a target="_top" xlink:href="dtp-slice6-step5605201-ofs0-col9-cat0.html"><rect style="display:none" class="hcell-act-col9-cat0" fill="#5CB85C" stroke="#000" stroke-width="5" width="70" height="104" x="0" y="-109" rx="8" ry="8"/><rect class="hcell-col9-cat0" fill="#5CB85C" stroke="#DDD" width="70" height="114" x="0" y="-114" rx="8" ry="8"/><text text-anchor="middle" fill="#FFF" x="35" y="-94">11655</text></a></g></g></g></g><rect fill="none" stroke="#DDD" width="70" height="30" rx="8" ry="8" x="725" y="222"/><text text-anchor="middle" fill="#333" x="760" y="242">14-02</text><g transform="translate(725,262)"><g><a target="_top" xlink:href="dtp-slice6-step5605201-ofs0-col9-cat2.html"><rect style="display:none" class="hcell-act-col9-cat2" fill="#D9534F" stroke="#000" stroke-width="5" width="70" height="20" x="0" y="5" rx="8" ry="8"/><rect class="hcell-col9-cat2" fill="#D9534F" stroke="#DDD" width="70" height="30" x="0" y="0" rx="8" ry="8"/><text text-anchor="middle" fill="#FFF" x="35" y="20">-27</text></a><g transform="translate(0,30)"><g><a target="_top" xlink:href="dtp-slice6-step5605201-ofs0-col9-cat1.html"><rect style="display:none" class="hcell-act-col9-cat1" fill="#337AB7" stroke="#000" stroke-width="5" width="70" height="43" x="0" y="5" rx="8" ry="8"/><rect class="hcell-col9-cat1" fill="#337AB7" stroke="#DDD" width="70" height="53" x="0" y="0" rx="8" ry="8"/><text text-anchor="middle" fill="#FFF" x="35" y="20">-5453</text></a><g transform="translate(0,53)"><g><a target="_top" xlink:href="dtp-slice6-step5605201-ofs0-col9-cat0.html"><rect style="display:none" class="hcell-act-col9-cat0" fill="#5CB85C" stroke="#000" stroke-width="5" width="70" height="120" x="0" y="5" rx="8" ry="8"/><rect class="hcell-col9-cat0" fill="#5CB85C" stroke="#DDD" width="70" height="130" x="0" y="0" rx="8" ry="8"/><text text-anchor="middle" fill="#FFF" x="35" y="20">-13317</text></a></g></g></g></g></g></g></g><g><g transform="translate(805,212)"><g><a target="_top" xlink:href="dtp-slice6-step5605201-ofs0-col10-cat2.html"><rect style="display:none" class="hcell-act-col10-cat2" fill="#D9534F" stroke="#000" stroke-width="5" width="70" height="73" x="0" y="-78" rx="8" ry="8"/><rect class="hcell-col10-cat2" fill="#D9534F" stroke="#DDD" width="70" height="83" x="0" y="-83" rx="8" ry="8"/><text text-anchor="middle" fill="#FFF" x="35" y="-63">8481</text></a><g transform="translate(0,-83)"><g><a target="_top" xlink:href="dtp-slice6-step5605201-ofs0-col10-cat0.html"><rect style="display:none" class="hcell-act-col10-cat0" fill="#5CB85C" stroke="#000" stroke-width="5" width="70" height="114" x="0" y="-119" rx="8" ry="8"/><rect class="hcell-col10-cat0" fill="#5CB85C" stroke="#DDD" width="70" height="124" x="0" y="-124" rx="8" ry="8"/><text text-anchor="middle" fill="#FFF" x="35" y="-104">12684</text></a></g></g></g></g><rect fill="none" stroke="#DDD" width="70" height="30" rx="8" ry="8" x="805" y="222"/><text text-anchor="middle" fill="#333" x="840" y="242">14-04</text><g transform="translate(805,262)"><g><a target="_top" xlink:href="dtp-slice6-step5605201-ofs0-col10-cat2.html"><rect style="display:none" class="hcell-act-col10-cat2" fill="#D9534F" stroke="#000" stroke-width="5" width="70" height="20" x="0" y="5" rx="8" ry="8"/><rect class="hcell-col10-cat2" fill="#D9534F" stroke="#DDD" width="70" height="30" x="0" y="0" rx="8" ry="8"/><text text-anchor="middle" fill="#FFF" x="35" y="20">-120</text></a><g transform="translate(0,30)"><g><a target="_top" xlink:href="dtp-slice6-step5605201-ofs0-col10-cat1.html"><rect style="display:none" class="hcell-act-col10-cat1" fill="#337AB7" stroke="#000" stroke-width="5" width="70" height="68" x="0" y="5" rx="8" ry="8"/><rect class="hcell-col10-cat1" fill="#337AB7" stroke="#DDD" width="70" height="78" x="0" y="0" rx="8" ry="8"/><text text-anchor="middle" fill="#FFF" x="35" y="20">-8010</text></a><g transform="translate(0,78)"><g><a target="_top" xlink:href="dtp-slice6-step5605201-ofs0-col10-cat0.html"><rect style="display:none" class="hcell-act-col10-cat0" fill="#5CB85C" stroke="#000" stroke-width="5" width="70" height="103" x="0" y="5" rx="8" ry="8"/><rect class="hcell-col10-cat0" fill="#5CB85C" stroke="#DDD" width="70" height="113" x="0" y="0" rx="8" ry="8"/><text text-anchor="middle" fill="#FFF" x="35" y="20">-11538</text></a></g></g></g></g></g></g></g><g><g transform="translate(885,212)"><g><a target="_top" xlink:href="dtp-slice6-step5605201-ofs0-col11-cat0.html"><rect style="display:none" class="hcell-act-col11-cat0" fill="#5CB85C" stroke="#000" stroke-width="5" width="70" height="51" x="0" y="-56" rx="8" ry="8"/><rect class="hcell-col11-cat0" fill="#5CB85C" stroke="#DDD" width="70" height="61" x="0" y="-61" rx="8" ry="8"/><text text-anchor="middle" fill="#FFF" x="35" y="-41">6321</text></a><g transform="translate(0,-61)"><g><a target="_top" xlink:href="dtp-slice6-step5605201-ofs0-col11-cat2.html"><rect style="display:none" class="hcell-act-col11-cat2" fill="#D9534F" stroke="#000" stroke-width="5" width="70" height="55" x="0" y="-60" rx="8" ry="8"/><rect class="hcell-col11-cat2" fill="#D9534F" stroke="#DDD" width="70" height="65" x="0" y="-65" rx="8" ry="8"/><text text-anchor="middle" fill="#FFF" x="35" y="-45">6717</text></a></g></g></g></g><rect fill="none" stroke="#DDD" width="70" height="30" rx="8" ry="8" x="885" y="222"/><text text-anchor="middle" fill="#333" x="920" y="242">14-06</text><g transform="translate(885,262)"><g><a target="_top" xlink:href="dtp-slice6-step5605201-ofs0-col11-cat2.html"><rect style="display:none" class="hcell-act-col11-cat2" fill="#D9534F" stroke="#000" stroke-width="5" width="70" height="20" x="0" y="5" rx="8" ry="8"/><rect class="hcell-col11-cat2" fill="#D9534F" stroke="#DDD" width="70" height="30" x="0" y="0" rx="8" ry="8"/><text text-anchor="middle" fill="#FFF" x="35" y="20">-13</text></a><g transform="translate(0,30)"><g><a target="_top" xlink:href="dtp-slice6-step5605201-ofs0-col11-cat1.html"><rect style="display:none" class="hcell-act-col11-cat1" fill="#337AB7" stroke="#000" stroke-width="5" width="70" height="42" x="0" y="5" rx="8" ry="8"/><rect class="hcell-col11-cat1" fill="#337AB7" stroke="#DDD" width="70" height="52" x="0" y="0" rx="8" ry="8"/><text text-anchor="middle" fill="#FFF" x="35" y="20">-5398</text></a><g transform="translate(0,52)"><g><a target="_top" xlink:href="dtp-slice6-step5605201-ofs0-col11-cat0.html"><rect style="display:none" class="hcell-act-col11-cat0" fill="#5CB85C" stroke="#000" stroke-width="5" width="70" height="64" x="0" y="5" rx="8" ry="8"/><rect class="hcell-col11-cat0" fill="#5CB85C" stroke="#DDD" width="70" height="74" x="0" y="0" rx="8" ry="8"/><text text-anchor="middle" fill="#FFF" x="35" y="20">-7630</text></a></g></g></g></g></g></g></g><g><g transform="translate(965,212)"><g><a target="_top" xlink:href="dtp-slice6-step5605201-ofs0-col12-cat0.html"><rect style="display:none" class="hcell-act-col12-cat0" fill="#5CB85C" stroke="#000" stroke-width="5" width="70" height="40" x="0" y="-45" rx="8" ry="8"/><rect class="hcell-col12-cat0" fill="#5CB85C" stroke="#DDD" width="70" height="50" x="0" y="-50" rx="8" ry="8"/><text text-anchor="middle" fill="#FFF" x="35" y="-30">5200</text></a><g transform="translate(0,-50)"><g><a target="_top" xlink:href="dtp-slice6-step5605201-ofs0-col12-cat2.html"><rect style="display:none" class="hcell-act-col12-cat2" fill="#D9534F" stroke="#000" stroke-width="5" width="70" height="47" x="0" y="-52" rx="8" ry="8"/><rect class="hcell-col12-cat2" fill="#D9534F" stroke="#DDD" width="70" height="57" x="0" y="-57" rx="8" ry="8"/><text text-anchor="middle" fill="#FFF" x="35" y="-37">5846</text></a></g></g></g></g><rect fill="none" stroke="#DDD" width="70" height="30" rx="8" ry="8" x="965" y="222"/><text text-anchor="middle" fill="#333" x="1000" y="242">14-08</text><g transform="translate(965,262)"><g><a target="_top" xlink:href="dtp-slice6-step5605201-ofs0-col12-cat1.html"><rect style="display:none" class="hcell-act-col12-cat1" fill="#337AB7" stroke="#000" stroke-width="5" width="70" height="40" x="0" y="5" rx="8" ry="8"/><rect class="hcell-col12-cat1" fill="#337AB7" stroke="#DDD" width="70" height="50" x="0" y="0" rx="8" ry="8"/><text text-anchor="middle" fill="#FFF" x="35" y="20">-5200</text></a><g transform="translate(0,50)"><g><a target="_top" xlink:href="dtp-slice6-step5605201-ofs0-col12-cat0.html"><rect style="display:none" class="hcell-act-col12-cat0" fill="#5CB85C" stroke="#000" stroke-width="5" width="70" height="47" x="0" y="5" rx="8" ry="8"/><rect class="hcell-col12-cat0" fill="#5CB85C" stroke="#DDD" width="70" height="57" x="0" y="0" rx="8" ry="8"/><text text-anchor="middle" fill="#FFF" x="35" y="20">-5847</text></a></g></g></g></g></g><g><g transform="translate(1045,212)"><g><a target="_top" xlink:href="dtp-slice6-step5605201-ofs0-col13-cat0.html"><rect style="display:none" class="hcell-act-col13-cat0" fill="#5CB85C" stroke="#000" stroke-width="5" width="70" height="40" x="0" y="-45" rx="8" ry="8"/><rect class="hcell-col13-cat0" fill="#5CB85C" stroke="#DDD" width="70" height="50" x="0" y="-50" rx="8" ry="8"/><text text-anchor="middle" fill="#FFF" x="35" y="-30">5200</text></a><g transform="translate(0,-50)"><g><a target="_top" xlink:href="dtp-slice6-step5605201-ofs0-col13-cat2.html"><rect style="display:none" class="hcell-act-col13-cat2" fill="#D9534F" stroke="#000" stroke-width="5" width="70" height="48" x="0" y="-53" rx="8" ry="8"/><rect class="hcell-col13-cat2" fill="#D9534F" stroke="#DDD" width="70" height="58" x="0" y="-58" rx="8" ry="8"/><text text-anchor="middle" fill="#FFF" x="35" y="-38">5949</text></a></g></g></g></g><rect fill="none" stroke="#DDD" width="70" height="30" rx="8" ry="8" x="1045" y="222"/><text text-anchor="middle" fill="#333" x="1080" y="242">14-10</text><g transform="translate(1045,262)"><g><a target="_top" xlink:href="dtp-slice6-step5605201-ofs0-col13-cat1.html"><rect style="display:none" class="hcell-act-col13-cat1" fill="#337AB7" stroke="#000" stroke-width="5" width="70" height="40" x="0" y="5" rx="8" ry="8"/><rect class="hcell-col13-cat1" fill="#337AB7" stroke="#DDD" width="70" height="50" x="0" y="0" rx="8" ry="8"/><text text-anchor="middle" fill="#FFF" x="35" y="20">-5200</text></a><g transform="translate(0,50)"><g><a target="_top" xlink:href="dtp-slice6-step5605201-ofs0-col13-cat0.html"><rect style="display:none" class="hcell-act-col13-cat0" fill="#5CB85C" stroke="#000" stroke-width="5" width="70" height="48" x="0" y="5" rx="8" ry="8"/><rect class="hcell-col13-cat0" fill="#5CB85C" stroke="#DDD" width="70" height="58" x="0" y="0" rx="8" ry="8"/><text text-anchor="middle" fill="#FFF" x="35" y="20">-5950</text></a></g></g></g></g></g><g><g transform="translate(1125,212)"><g><a target="_top" xlink:href="dtp-slice6-step5605201-ofs0-col14-cat0.html"><rect style="display:none" class="hcell-act-col14-cat0" fill="#5CB85C" stroke="#000" stroke-width="5" width="70" height="40" x="0" y="-45" rx="8" ry="8"/><rect class="hcell-col14-cat0" fill="#5CB85C" stroke="#DDD" width="70" height="50" x="0" y="-50" rx="8" ry="8"/><text text-anchor="middle" fill="#FFF" x="35" y="-30">5200</text></a><g transform="translate(0,-50)"><g><a target="_top" xlink:href="dtp-slice6-step5605201-ofs0-col14-cat2.html"><rect style="display:none" class="hcell-act-col14-cat2" fill="#D9534F" stroke="#000" stroke-width="5" width="70" height="54" x="0" y="-59" rx="8" ry="8"/><rect class="hcell-col14-cat2" fill="#D9534F" stroke="#DDD" width="70" height="64" x="0" y="-64" rx="8" ry="8"/><text text-anchor="middle" fill="#FFF" x="35" y="-44">6615</text></a></g></g></g></g><rect fill="none" stroke="#DDD" width="70" height="30" rx="8" ry="8" x="1125" y="222"/><text text-anchor="middle" fill="#333" x="1160" y="242">14-12</text><g transform="translate(1125,262)"><g><a target="_top" xlink:href="dtp-slice6-step5605201-ofs0-col14-cat1.html"><rect style="display:none" class="hcell-act-col14-cat1" fill="#337AB7" stroke="#000" stroke-width="5" width="70" height="40" x="0" y="5" rx="8" ry="8"/><rect class="hcell-col14-cat1" fill="#337AB7" stroke="#DDD" width="70" height="50" x="0" y="0" rx="8" ry="8"/><text text-anchor="middle" fill="#FFF" x="35" y="20">-5200</text></a><g transform="translate(0,50)"><g><a target="_top" xlink:href="dtp-slice6-step5605201-ofs0-col14-cat0.html"><rect style="display:none" class="hcell-act-col14-cat0" fill="#5CB85C" stroke="#000" stroke-width="5" width="70" height="54" x="0" y="5" rx="8" ry="8"/><rect class="hcell-col14-cat0" fill="#5CB85C" stroke="#DDD" width="70" height="64" x="0" y="0" rx="8" ry="8"/><text text-anchor="middle" fill="#FFF" x="35" y="20">-6616</text></a></g></g></g></g></g><g><g transform="translate(1205,212)"><g><a target="_top" xlink:href="dtp-slice6-step5605201-ofs0-col15-cat2.html"><rect style="display:none" class="hcell-act-col15-cat2" fill="#D9534F" stroke="#000" stroke-width="5" width="70" height="64" x="0" y="-69" rx="8" ry="8"/><rect class="hcell-col15-cat2" fill="#D9534F" stroke="#DDD" width="70" height="74" x="0" y="-74" rx="8" ry="8"/><text text-anchor="middle" fill="#FFF" x="35" y="-54">7597</text></a><g transform="translate(0,-74)"><g><a target="_top" xlink:href="dtp-slice6-step5605201-ofs0-col15-cat0.html"><rect style="display:none" class="hcell-act-col15-cat0" fill="#5CB85C" stroke="#000" stroke-width="5" width="70" height="66" x="0" y="-71" rx="8" ry="8"/><rect class="hcell-col15-cat0" fill="#5CB85C" stroke="#DDD" width="70" height="76" x="0" y="-76" rx="8" ry="8"/><text text-anchor="middle" fill="#FFF" x="35" y="-56">7800</text></a></g></g></g></g><rect fill="none" stroke="#DDD" width="70" height="30" rx="8" ry="8" x="1205" y="222"/><text text-anchor="middle" fill="#333" x="1240" y="242">15-03</text><g transform="translate(1205,262)"><g><a target="_top" xlink:href="dtp-slice6-step5605201-ofs0-col15-cat0.html"><rect style="display:none" class="hcell-act-col15-cat0" fill="#5CB85C" stroke="#000" stroke-width="5" width="70" height="64" x="0" y="5" rx="8" ry="8"/><rect class="hcell-col15-cat0" fill="#5CB85C" stroke="#DDD" width="70" height="74" x="0" y="0" rx="8" ry="8"/><text text-anchor="middle" fill="#FFF" x="35" y="20">-7598</text></a><g transform="translate(0,74)"><g><a target="_top" xlink:href="dtp-slice6-step5605201-ofs0-col15-cat1.html"><rect style="display:none" class="hcell-act-col15-cat1" fill="#337AB7" stroke="#000" stroke-width="5" width="70" height="66" x="0" y="5" rx="8" ry="8"/><rect class="hcell-col15-cat1" fill="#337AB7" stroke="#DDD" width="70" height="76" x="0" y="0" rx="8" ry="8"/><text text-anchor="middle" fill="#FFF" x="35" y="20">-7800</text></a></g></g></g></g></g></svg>