<svg xmlns="http://www.w3.org/2000/svg" xmlns:xlink="http://www.w3.org/1999/xlink" width="100%" height="100%" viewBox="0 0 1280 459"><g><g transform="translate(5,86)"></g><rect fill="none" stroke="#DDD" width="70" height="30" rx="8" ry="8" x="5" y="96"/><text text-anchor="middle" fill="#333" x="40" y="116">12-07</text><g transform="translate(5,136)"></g></g><g><g transform="translate(85,86)"></g><rect fill="none" stroke="#DDD" width="70" height="30" rx="8" ry="8" x="85" y="96"/><text text-anchor="middle" fill="#333" x="120" y="116">12-09</text><g transform="translate(85,136)"></g></g><g><g transform="translate(165,86)"></g><rect fill="none" stroke="#DDD" width="70" height="30" rx="8" ry="8" x="165" y="96"/><text text-anchor="middle" fill="#333" x="200" y="116">12-11</text><g transform="translate(165,136)"></g></g><g><g transform="translate(245,86)"></g><rect fill="none" stroke="#DDD" width="70" height="30" rx="8" ry="8" x="245" y="96"/><text text-anchor="middle" fill="#333" x="280" y="116">13-01</text><g transform="translate(245,136)"></g></g><g><g transform="translate(325,86)"></g><rect fill="none" stroke="#DDD" width="70" height="30" rx="8" ry="8" x="325" y="96"/><text text-anchor="middle" fill="#333" x="360" y="116">13-03</text><g transform="translate(325,136)"></g></g><g><g transform="translate(405,86)"></g><rect fill="none" stroke="#DDD" width="70" height="30" rx="8" ry="8" x="405" y="96"/><text text-anchor="middle" fill="#333" x="440" y="116">13-05</text><g transform="translate(405,136)"></g></g><g><g transform="translate(485,86)"></g><rect fill="none" stroke="#DDD" width="70" height="30" rx="8" ry="8" x="485" y="96"/><text text-anchor="middle" fill="#333" x="520" y="116">13-07</text><g transform="translate(485,136)"></g></g><g><g transform="translate(565,86)"></g><rect fill="none" stroke="#DDD" width="70" height="30" rx="8" ry="8" x="565" y="96"/><text text-anchor="middle" fill="#333" x="600" y="116">13-09</text><g transform="translate(565,136)"></g></g><g><g transform="translate(645,86)"></g><rect fill="none" stroke="#DDD" width="70" height="30" rx="8" ry="8" x="645" y="96"/><text text-anchor="middle" fill="#333" x="680" y="116">13-12</text><g transform="translate(645,136)"></g></g><g><g transform="translate(725,86)"></g><rect fill="none" stroke="#DDD" width="70" height="30" rx="8" ry="8" x="725" y="96"/><text text-anchor="middle" fill="#333" x="760" y="116">14-02</text><g transform="translate(725,136)"></g></g><g><g transform="translate(805,86)"></g><rect fill="none" stroke="#DDD" width="70" height="30" rx="8" ry="8" x="805" y="96"/><text text-anchor="middle" fill="#333" x="840" y="116">14-04</text><g transform="translate(805,136)"></g></g><g><g transform="translate(885,86)"></g><rect fill="none" stroke="#DDD" width="70" height="30" rx="8" ry="8" x="885" y="96"/><text text-anchor="middle" fill="#333" x="920" y="116">14-06</text><g transform="translate(885,136)"><g><a target="_top" xlink:href="dtp-sliceTagAwesome1875-step5605201-ofs0-col11-cat0.html"><rect style="display:none" class="hcell-act-col11-cat0" fill="#777" stroke="#000" stroke-width="5" width="70" height="56" x="0" y="5" rx="8" ry="8"/><rect class="hcell-col11-cat0" fill="#777" stroke="#DDD" width="70" height="66" x="0" y="0" rx="8" ry="8"/><text text-anchor="middle" fill="#FFF" x="35" y="20">-27</text></a></g></g></g><g><g transform="translate(965,86)"></g><rect fill="none" stroke="#DDD" width="70" height="30" rx="8" ry="8" x="965" y="96"/><text text-anchor="middle" fill="#333" x="1000" y="116">14-08</text><g transform="translate(965,136)"><g><a target="_top" xlink:href="dtp-sliceTagAwesome1875-step5605201-ofs0-col12-cat0.html"><rect style="display:none" class="hcell-act-col12-cat0" fill="#777" stroke="#000" stroke-width="5" width="70" height="194" x="0" y="5" rx="8" ry="8"/><rect class="hcell-col12-cat0" fill="#777" stroke="#DDD" width="70" height="204" x="0" y="0" rx="8" ry="8"/><text text-anchor="middle" fill="#FFF" x="35" y="20">-82</text></a></g></g></g><g><g transform="translate(1045,86)"></g><rect fill="none" stroke="#DDD" width="70" height="30" rx="8" ry="8" x="1045" y="96"/><text text-anchor="middle" fill="#333" x="1080" y="116">14-10</text><g transform="translate(1045,136)"><g><a target="_top" xlink:href="dtp-sliceTagAwesome1875-step5605201-ofs0-col13-cat0.html"><rect style="display:none" class="hcell-act-col13-cat0" fill="#777" stroke="#000" stroke-width="5" width="70" height="308" x="0" y="5" rx="8" ry="8"/><rect class="hcell-col13-cat0" fill="#777" stroke="#DDD" width="70" height="318" x="0" y="0" rx="8" ry="8"/><text text-anchor="middle" fill="#FFF" x="35" y="20">-128</text></a></g></g></g><g><g transform="translate(1125,86)"><g><a target="_top" xlink:href="dtp-sliceTagAwesome1875-step5605201-ofs0-col14-cat0.html"><rect style="display:none" class="hcell-act-col14-cat0" fill="#777" stroke="#000" stroke-width="5" width="70" height="71" x="0" y="-76" rx="8" ry="8"/><rect class="hcell-col14-cat0" fill="#777" stroke="#DDD" width="70" height="81" x="0" y="-81" rx="8" ry="8"/><text text-anchor="middle" fill="#FFF" x="35" y="-61">32</text></a></g></g><rect fill="none" stroke="#DDD" width="70" height="30" rx="8" ry="8" x="1125" y="96"/><text text-anchor="middle" fill="#333" x="1160" y="116">14-12</text><g transform="translate(1125,136)"></g></g><g><g transform="translate(1205,86)"></g><rect fill="none" stroke="#DDD" width="70" height="30" rx="8" ry="8" x="1205" y="96"/><text text-anchor="middle" fill="#333" x="1240" y="116">15-03</text><g transform="translate(1205,136)"><g><a target="_top" xlink:href="dtp-sliceTagAwesome1875-step5605201-ofs0-col15-cat0.html"><rect style="display:none" class="hcell-act-col15-cat0" fill="#777" stroke="#000" stroke-width="5" width="70" height="142" x="0" y="5" rx="8" ry="8"/><rect class="hcell-col15-cat0" fill="#777" stroke="#DDD" width="70" height="152" x="0" y="0" rx="8" ry="8"/><text text-anchor="middle" fill="#FFF" x="35" y="20">-62</text></a></g></g></g></svg>