<svg xmlns="http://www.w3.org/2000/svg" xmlns:xlink="http://www.w3.org/1999/xlink" width="100%" height="100%" viewBox="0 0 1280 459"><g><g transform="translate(5,150)"></g><rect fill="none" stroke="#DDD" width="70" height="30" rx="8" ry="8" x="5" y="160"/><text text-anchor="middle" fill="#333" x="40" y="180">12-07</text><g transform="translate(5,200)"></g></g><g><g transform="translate(85,150)"></g><rect fill="none" stroke="#DDD" width="70" height="30" rx="8" ry="8" x="85" y="160"/><text text-anchor="middle" fill="#333" x="120" y="180">12-09</text><g transform="translate(85,200)"></g></g><g><g transform="translate(165,150)"></g><rect fill="none" stroke="#DDD" width="70" height="30" rx="8" ry="8" x="165" y="160"/><text text-anchor="middle" fill="#333" x="200" y="180">12-11</text><g transform="translate(165,200)"></g></g><g><g transform="translate(245,150)"></g><rect fill="none" stroke="#DDD" width="70" height="30" rx="8" ry="8" x="245" y="160"/><text text-anchor="middle" fill="#333" x="280" y="180">13-01</text><g transform="translate(245,200)"></g></g><g><g transform="translate(325,150)"></g><rect fill="none" stroke="#DDD" width="70" height="30" rx="8" ry="8" x="325" y="160"/><text text-anchor="middle" fill="#333" x="360" y="180">13-03</text><g transform="translate(325,200)"></g></g><g><g transform="translate(405,150)"></g><rect fill="none" stroke="#DDD" width="70" height="30" rx="8" ry="8" x="405" y="160"/><text text-anchor="middle" fill="#333" x="440" y="180">13-05</text><g transform="translate(405,200)"></g></g><g><g transform="translate(485,150)"></g><rect fill="none" stroke="#DDD" width="70" height="30" rx="8" ry="8" x="485" y="160"/><text text-anchor="middle" fill="#333" x="520" y="180">13-07</text><g transform="translate(485,200)"></g></g><g><g transform="translate(565,150)"></g><rect fill="none" stroke="#DDD" width="70" height="30" rx="8" ry="8" x="565" y="160"/><text text-anchor="middle" fill="#333" x="600" y="180">13-09</text><g transform="translate(565,200)"></g></g><g><g transform="translate(645,150)"></g><rect fill="none" stroke="#DDD" width="70" height="30" rx="8" ry="8" x="645" y="160"/><text text-anchor="middle" fill="#333" x="680" y="180">13-12</text><g transform="translate(645,200)"></g></g><g><g transform="translate(725,150)"></g><rect fill="none" stroke="#DDD" width="70" height="30" rx="8" ry="8" x="725" y="160"/><text text-anchor="middle" fill="#333" x="760" y="180">14-02</text><g transform="translate(725,200)"></g></g><g><g transform="translate(805,150)"></g><rect fill="none" stroke="#DDD" width="70" height="30" rx="8" ry="8" x="805" y="160"/><text text-anchor="middle" fill="#333" x="840" y="180">14-04</text><g transform="translate(805,200)"></g></g><g><g transform="translate(885,150)"></g><rect fill="none" stroke="#DDD" width="70" height="30" rx="8" ry="8" x="885" y="160"/><text text-anchor="middle" fill="#333" x="920" y="180">14-06</text><g transform="translate(885,200)"><g><a target="_top" xlink:href="dtp-sliceTagMaster8385-step5605201-ofs0-col11-cat0.html"><rect style="display:none" class="hcell-act-col11-cat0" fill="#777" stroke="#000" stroke-width="5" width="70" height="25" x="0" y="5" rx="8" ry="8"/><rect class="hcell-col11-cat0" fill="#777" stroke="#DDD" width="70" height="35" x="0" y="0" rx="8" ry="8"/><text text-anchor="middle" fill="#FFF" x="35" y="20">-221</text></a></g></g></g><g><g transform="translate(965,150)"><g><a target="_top" xlink:href="dtp-sliceTagMaster8385-step5605201-ofs0-col12-cat0.html"><rect style="display:none" class="hcell-act-col12-cat0" fill="#777" stroke="#000" stroke-width="5" width="70" height="115" x="0" y="-120" rx="8" ry="8"/><rect class="hcell-col12-cat0" fill="#777" stroke="#DDD" width="70" height="125" x="0" y="-125" rx="8" ry="8"/><text text-anchor="middle" fill="#FFF" x="35" y="-105">783</text></a></g></g><rect fill="none" stroke="#DDD" width="70" height="30" rx="8" ry="8" x="965" y="160"/><text text-anchor="middle" fill="#333" x="1000" y="180">14-08</text><g transform="translate(965,200)"></g></g><g><g transform="translate(1045,150)"></g><rect fill="none" stroke="#DDD" width="70" height="30" rx="8" ry="8" x="1045" y="160"/><text text-anchor="middle" fill="#333" x="1080" y="180">14-10</text><g transform="translate(1045,200)"><g><a target="_top" xlink:href="dtp-sliceTagMaster8385-step5605201-ofs0-col13-cat0.html"><rect style="display:none" class="hcell-act-col13-cat0" fill="#777" stroke="#000" stroke-width="5" width="70" height="244" x="0" y="5" rx="8" ry="8"/><rect class="hcell-col13-cat0" fill="#777" stroke="#DDD" width="70" height="254" x="0" y="0" rx="8" ry="8"/><text text-anchor="middle" fill="#FFF" x="35" y="20">-1593</text></a></g></g></g><g><g transform="translate(1125,150)"></g><rect fill="none" stroke="#DDD" width="70" height="30" rx="8" ry="8" x="1125" y="160"/><text text-anchor="middle" fill="#333" x="1160" y="180">14-12</text><g transform="translate(1125,200)"><g><a target="_top" xlink:href="dtp-sliceTagMaster8385-step5605201-ofs0-col14-cat0.html"><rect style="display:none" class="hcell-act-col14-cat0" fill="#777" stroke="#000" stroke-width="5" width="70" height="52" x="0" y="5" rx="8" ry="8"/><rect class="hcell-col14-cat0" fill="#777" stroke="#DDD" width="70" height="62" x="0" y="0" rx="8" ry="8"/><text text-anchor="middle" fill="#FFF" x="35" y="20">-390</text></a></g></g></g><g><g transform="translate(1205,150)"><g><a target="_top" xlink:href="dtp-sliceTagMaster8385-step5605201-ofs0-col15-cat0.html"><rect style="display:none" class="hcell-act-col15-cat0" fill="#777" stroke="#000" stroke-width="5" width="70" height="135" x="0" y="-140" rx="8" ry="8"/><rect class="hcell-col15-cat0" fill="#777" stroke="#DDD" width="70" height="145" x="0" y="-145" rx="8" ry="8"/><text text-anchor="middle" fill="#FFF" x="35" y="-125">907</text></a></g></g><rect fill="none" stroke="#DDD" width="70" height="30" rx="8" ry="8" x="1205" y="160"/><text text-anchor="middle" fill="#333" x="1240" y="180">15-03</text><g transform="translate(1205,200)"></g></g></svg>