<svg xmlns="http://www.w3.org/2000/svg" xmlns:xlink="http://www.w3.org/1999/xlink" width="100%" height="100%" viewBox="0 0 1280 530"><g><g transform="translate(5,230)"><g><a target="_top" xlink:href="dtp-slice5-step2628000-ofs3-col3-cat2.html"><rect style="display:none" class="hcell-act-col3-cat2" fill="#5CB85C" stroke="#000" stroke-width="5" width="70" height="69" x="0" y="-74" rx="8" ry="8"/><rect class="hcell-col3-cat2" fill="#5CB85C" stroke="#DDD" width="70" height="79" x="0" y="-79" rx="8" ry="8"/><text text-anchor="middle" fill="#FFF" x="35" y="-59">2626</text></a></g></g><rect fill="none" stroke="#DDD" width="70" height="30" rx="8" ry="8" x="5" y="240"/><text text-anchor="middle" fill="#333" x="40" y="260">12-10</text><g transform="translate(5,280)"><g><a target="_top" xlink:href="dtp-slice5-step2628000-ofs3-col3-cat1.html"><rect style="display:none" class="hcell-act-col3-cat1" fill="#F0AD4E" stroke="#000" stroke-width="5" width="70" height="20" x="0" y="5" rx="8" ry="8"/><rect class="hcell-col3-cat1" fill="#F0AD4E" stroke="#DDD" width="70" height="30" x="0" y="0" rx="8" ry="8"/><text text-anchor="middle" fill="#FFF" x="35" y="20">-18</text></a><g transform="translate(0,30)"><g><a target="_top" xlink:href="dtp-slice5-step2628000-ofs3-col3-cat2.html"><rect style="display:none" class="hcell-act-col3-cat2" fill="#5CB85C" stroke="#000" stroke-width="5" width="70" height="57" x="0" y="5" rx="8" ry="8"/><rect class="hcell-col3-cat2" fill="#5CB85C" stroke="#DDD" width="70" height="67" x="0" y="0" rx="8" ry="8"/><text text-anchor="middle" fill="#FFF" x="35" y="20">-2238</text></a></g></g></g></g></g><g><g transform="translate(85,230)"><g><a target="_top" xlink:href="dtp-slice5-step2628000-ofs3-col4-cat4.html"><rect style="display:none" class="hcell-act-col4-cat4" fill="#337AB7" stroke="#000" stroke-width="5" width="70" height="20" x="0" y="-25" rx="8" ry="8"/><rect class="hcell-col4-cat4" fill="#337AB7" stroke="#DDD" width="70" height="30" x="0" y="-30" rx="8" ry="8"/><text text-anchor="middle" fill="#FFF" x="35" y="-10">20</text></a><g transform="translate(0,-30)"><g><a target="_top" xlink:href="dtp-slice5-step2628000-ofs3-col4-cat5.html"><rect style="display:none" class="hcell-act-col4-cat5" fill="#777" stroke="#000" stroke-width="5" width="70" height="20" x="0" y="-25" rx="8" ry="8"/><rect class="hcell-col4-cat5" fill="#777" stroke="#DDD" width="70" height="30" x="0" y="-30" rx="8" ry="8"/><text text-anchor="middle" fill="#FFF" x="35" y="-10">1000</text></a><g transform="translate(0,-30)"><g><a target="_top" xlink:href="dtp-slice5-step2628000-ofs3-col4-cat3.html"><rect style="display:none" class="hcell-act-col4-cat3" fill="#5BC0DE" stroke="#000" stroke-width="5" width="70" height="50" x="0" y="-55" rx="8" ry="8"/><rect class="hcell-col4-cat3" fill="#5BC0DE" stroke="#DDD" width="70" height="60" x="0" y="-60" rx="8" ry="8"/><text text-anchor="middle" fill="#FFF" x="35" y="-40">2000</text></a><g transform="translate(0,-60)"><g><a target="_top" xlink:href="dtp-slice5-step2628000-ofs3-col4-cat2.html"><rect style="display:none" class="hcell-act-col4-cat2" fill="#5CB85C" stroke="#000" stroke-width="5" width="70" height="95" x="0" y="-100" rx="8" ry="8"/><rect class="hcell-col4-cat2" fill="#5CB85C" stroke="#DDD" width="70" height="105" x="0" y="-105" rx="8" ry="8"/><text text-anchor="middle" fill="#FFF" x="35" y="-85">3479</text></a></g></g></g></g></g></g></g></g><rect fill="none" stroke="#DDD" width="70" height="30" rx="8" ry="8" x="85" y="240"/><text text-anchor="middle" fill="#333" x="120" y="260">12-10</text><g transform="translate(85,280)"><g><a target="_top" xlink:href="dtp-slice5-step2628000-ofs3-col4-cat1.html"><rect style="display:none" class="hcell-act-col4-cat1" fill="#F0AD4E" stroke="#000" stroke-width="5" width="70" height="20" x="0" y="5" rx="8" ry="8"/><rect class="hcell-col4-cat1" fill="#F0AD4E" stroke="#DDD" width="70" height="30" x="0" y="0" rx="8" ry="8"/><text text-anchor="middle" fill="#FFF" x="35" y="20">-10</text></a><g transform="translate(0,30)"><g><a target="_top" xlink:href="dtp-slice5-step2628000-ofs3-col4-cat4.html"><rect style="display:none" class="hcell-act-col4-cat4" fill="#337AB7" stroke="#000" stroke-width="5" width="70" height="20" x="0" y="5" rx="8" ry="8"/><rect class="hcell-col4-cat4" fill="#337AB7" stroke="#DDD" width="70" height="30" x="0" y="0" rx="8" ry="8"/><text text-anchor="middle" fill="#FFF" x="35" y="20">-232</text></a><g transform="translate(0,30)"><g><a target="_top" xlink:href="dtp-slice5-step2628000-ofs3-col4-cat3.html"><rect style="display:none" class="hcell-act-col4-cat3" fill="#5BC0DE" stroke="#000" stroke-width="5" width="70" height="23" x="0" y="5" rx="8" ry="8"/><rect class="hcell-col4-cat3" fill="#5BC0DE" stroke="#DDD" width="70" height="33" x="0" y="0" rx="8" ry="8"/><text text-anchor="middle" fill="#FFF" x="35" y="20">-1099</text></a><g transform="translate(0,33)"><g><a target="_top" xlink:href="dtp-slice5-step2628000-ofs3-col4-cat2.html"><rect style="display:none" class="hcell-act-col4-cat2" fill="#5CB85C" stroke="#000" stroke-width="5" width="70" height="58" x="0" y="5" rx="8" ry="8"/><rect class="hcell-col4-cat2" fill="#5CB85C" stroke="#DDD" width="70" height="68" x="0" y="0" rx="8" ry="8"/><text text-anchor="middle" fill="#FFF" x="35" y="20">-2276</text></a></g></g></g></g></g></g></g></g></g><g><g transform="translate(165,230)"><g><a target="_top" xlink:href="dtp-slice5-step2628000-ofs3-col5-cat4.html"><rect style="display:none" class="hcell-act-col5-cat4" fill="#337AB7" stroke="#000" stroke-width="5" width="70" height="20" x="0" y="-25" rx="8" ry="8"/><rect class="hcell-col5-cat4" fill="#337AB7" stroke="#DDD" width="70" height="30" x="0" y="-30" rx="8" ry="8"/><text text-anchor="middle" fill="#FFF" x="35" y="-10">11</text></a><g transform="translate(0,-30)"><g><a target="_top" xlink:href="dtp-slice5-step2628000-ofs3-col5-cat2.html"><rect style="display:none" class="hcell-act-col5-cat2" fill="#5CB85C" stroke="#000" stroke-width="5" width="70" height="74" x="0" y="-79" rx="8" ry="8"/><rect class="hcell-col5-cat2" fill="#5CB85C" stroke="#DDD" width="70" height="84" x="0" y="-84" rx="8" ry="8"/><text text-anchor="middle" fill="#FFF" x="35" y="-64">2800</text></a></g></g></g></g><rect fill="none" stroke="#DDD" width="70" height="30" rx="8" ry="8" x="165" y="240"/><text text-anchor="middle" fill="#333" x="200" y="260">12-12</text><g transform="translate(165,280)"><g><a target="_top" xlink:href="dtp-slice5-step2628000-ofs3-col5-cat1.html"><rect style="display:none" class="hcell-act-col5-cat1" fill="#F0AD4E" stroke="#000" stroke-width="5" width="70" height="20" x="0" y="5" rx="8" ry="8"/><rect class="hcell-col5-cat1" fill="#F0AD4E" stroke="#DDD" width="70" height="30" x="0" y="0" rx="8" ry="8"/><text text-anchor="middle" fill="#FFF" x="35" y="20">-6</text></a><g transform="translate(0,30)"><g><a target="_top" xlink:href="dtp-slice5-step2628000-ofs3-col5-cat4.html"><rect style="display:none" class="hcell-act-col5-cat4" fill="#337AB7" stroke="#000" stroke-width="5" width="70" height="20" x="0" y="5" rx="8" ry="8"/><rect class="hcell-col5-cat4" fill="#337AB7" stroke="#DDD" width="70" height="30" x="0" y="0" rx="8" ry="8"/><text text-anchor="middle" fill="#FFF" x="35" y="20">-421</text></a><g transform="translate(0,30)"><g><a target="_top" xlink:href="dtp-slice5-step2628000-ofs3-col5-cat2.html"><rect style="display:none" class="hcell-act-col5-cat2" fill="#5CB85C" stroke="#000" stroke-width="5" width="70" height="52" x="0" y="5" rx="8" ry="8"/><rect class="hcell-col5-cat2" fill="#5CB85C" stroke="#DDD" width="70" height="62" x="0" y="0" rx="8" ry="8"/><text text-anchor="middle" fill="#FFF" x="35" y="20">-2052</text></a></g></g></g></g></g></g></g><g><g transform="translate(245,230)"><g><a target="_top" xlink:href="dtp-slice5-step2628000-ofs3-col6-cat0.html"><rect style="display:none" class="hcell-act-col6-cat0" fill="#D9534F" stroke="#000" stroke-width="5" width="70" height="20" x="0" y="-25" rx="8" ry="8"/><rect class="hcell-col6-cat0" fill="#D9534F" stroke="#DDD" width="70" height="30" x="0" y="-30" rx="8" ry="8"/><text text-anchor="middle" fill="#FFF" x="35" y="-10">220</text></a><g transform="translate(0,-30)"><g><a target="_top" xlink:href="dtp-slice5-step2628000-ofs3-col6-cat2.html"><rect style="display:none" class="hcell-act-col6-cat2" fill="#5CB85C" stroke="#000" stroke-width="5" width="70" height="73" x="0" y="-78" rx="8" ry="8"/><rect class="hcell-col6-cat2" fill="#5CB85C" stroke="#DDD" width="70" height="83" x="0" y="-83" rx="8" ry="8"/><text text-anchor="middle" fill="#FFF" x="35" y="-63">2753</text></a></g></g></g></g><rect fill="none" stroke="#DDD" width="70" height="30" rx="8" ry="8" x="245" y="240"/><text text-anchor="middle" fill="#333" x="280" y="260">12-12</text><g transform="translate(245,280)"><g><a target="_top" xlink:href="dtp-slice5-step2628000-ofs3-col6-cat1.html"><rect style="display:none" class="hcell-act-col6-cat1" fill="#F0AD4E" stroke="#000" stroke-width="5" width="70" height="20" x="0" y="5" rx="8" ry="8"/><rect class="hcell-col6-cat1" fill="#F0AD4E" stroke="#DDD" width="70" height="30" x="0" y="0" rx="8" ry="8"/><text text-anchor="middle" fill="#FFF" x="35" y="20">-45</text></a><g transform="translate(0,30)"><g><a target="_top" xlink:href="dtp-slice5-step2628000-ofs3-col6-cat4.html"><rect style="display:none" class="hcell-act-col6-cat4" fill="#337AB7" stroke="#000" stroke-width="5" width="70" height="20" x="0" y="5" rx="8" ry="8"/><rect class="hcell-col6-cat4" fill="#337AB7" stroke="#DDD" width="70" height="30" x="0" y="0" rx="8" ry="8"/><text text-anchor="middle" fill="#FFF" x="35" y="20">-458</text></a><g transform="translate(0,30)"><g><a target="_top" xlink:href="dtp-slice5-step2628000-ofs3-col6-cat2.html"><rect style="display:none" class="hcell-act-col6-cat2" fill="#5CB85C" stroke="#000" stroke-width="5" width="70" height="47" x="0" y="5" rx="8" ry="8"/><rect class="hcell-col6-cat2" fill="#5CB85C" stroke="#DDD" width="70" height="57" x="0" y="0" rx="8" ry="8"/><text text-anchor="middle" fill="#FFF" x="35" y="20">-1904</text></a></g></g></g></g></g></g></g><g><g transform="translate(325,230)"><g><a target="_top" xlink:href="dtp-slice5-step2628000-ofs3-col7-cat4.html"><rect style="display:none" class="hcell-act-col7-cat4" fill="#337AB7" stroke="#000" stroke-width="5" width="70" height="20" x="0" y="-25" rx="8" ry="8"/><rect class="hcell-col7-cat4" fill="#337AB7" stroke="#DDD" width="70" height="30" x="0" y="-30" rx="8" ry="8"/><text text-anchor="middle" fill="#FFF" x="35" y="-10">26</text></a><g transform="translate(0,-30)"><g><a target="_top" xlink:href="dtp-slice5-step2628000-ofs3-col7-cat3.html"><rect style="display:none" class="hcell-act-col7-cat3" fill="#5BC0DE" stroke="#000" stroke-width="5" width="70" height="20" x="0" y="-25" rx="8" ry="8"/><rect class="hcell-col7-cat3" fill="#5BC0DE" stroke="#DDD" width="70" height="30" x="0" y="-30" rx="8" ry="8"/><text text-anchor="middle" fill="#FFF" x="35" y="-10">222</text></a><g transform="translate(0,-30)"><g><a target="_top" xlink:href="dtp-slice5-step2628000-ofs3-col7-cat0.html"><rect style="display:none" class="hcell-act-col7-cat0" fill="#D9534F" stroke="#000" stroke-width="5" width="70" height="20" x="0" y="-25" rx="8" ry="8"/><rect class="hcell-col7-cat0" fill="#D9534F" stroke="#DDD" width="70" height="30" x="0" y="-30" rx="8" ry="8"/><text text-anchor="middle" fill="#FFF" x="35" y="-10">260</text></a><g transform="translate(0,-30)"><g><a target="_top" xlink:href="dtp-slice5-step2628000-ofs3-col7-cat2.html"><rect style="display:none" class="hcell-act-col7-cat2" fill="#5CB85C" stroke="#000" stroke-width="5" width="70" height="68" x="0" y="-73" rx="8" ry="8"/><rect class="hcell-col7-cat2" fill="#5CB85C" stroke="#DDD" width="70" height="78" x="0" y="-78" rx="8" ry="8"/><text text-anchor="middle" fill="#FFF" x="35" y="-58">2600</text></a></g></g></g></g></g></g></g></g><rect fill="none" stroke="#DDD" width="70" height="30" rx="8" ry="8" x="325" y="240"/><text text-anchor="middle" fill="#333" x="360" y="260">13-01</text><g transform="translate(325,280)"><g><a target="_top" xlink:href="dtp-slice5-step2628000-ofs3-col7-cat1.html"><rect style="display:none" class="hcell-act-col7-cat1" fill="#F0AD4E" stroke="#000" stroke-width="5" width="70" height="20" x="0" y="5" rx="8" ry="8"/><rect class="hcell-col7-cat1" fill="#F0AD4E" stroke="#DDD" width="70" height="30" x="0" y="0" rx="8" ry="8"/><text text-anchor="middle" fill="#FFF" x="35" y="20">-30</text></a><g transform="translate(0,30)"><g><a target="_top" xlink:href="dtp-slice5-step2628000-ofs3-col7-cat4.html"><rect style="display:none" class="hcell-act-col7-cat4" fill="#337AB7" stroke="#000" stroke-width="5" width="70" height="20" x="0" y="5" rx="8" ry="8"/><rect class="hcell-col7-cat4" fill="#337AB7" stroke="#DDD" width="70" height="30" x="0" y="0" rx="8" ry="8"/><text text-anchor="middle" fill="#FFF" x="35" y="20">-516</text></a><g transform="translate(0,30)"><g><a target="_top" xlink:href="dtp-slice5-step2628000-ofs3-col7-cat2.html"><rect style="display:none" class="hcell-act-col7-cat2" fill="#5CB85C" stroke="#000" stroke-width="5" width="70" height="33" x="0" y="5" rx="8" ry="8"/><rect class="hcell-col7-cat2" fill="#5CB85C" stroke="#DDD" width="70" height="43" x="0" y="0" rx="8" ry="8"/><text text-anchor="middle" fill="#FFF" x="35" y="20">-1420</text></a><g transform="translate(0,43)"><g><a target="_top" xlink:href="dtp-slice5-step2628000-ofs3-col7-cat0.html"><rect style="display:none" class="hcell-act-col7-cat0" fill="#D9534F" stroke="#000" stroke-width="5" width="70" height="56" x="0" y="5" rx="8" ry="8"/><rect class="hcell-col7-cat0" fill="#D9534F" stroke="#DDD" width="70" height="66" x="0" y="0" rx="8" ry="8"/><text text-anchor="middle" fill="#FFF" x="35" y="20">-2200</text></a></g></g></g></g></g></g></g></g></g><g><g transform="translate(405,230)"><g><a target="_top" xlink:href="dtp-slice5-step2628000-ofs3-col8-cat4.html"><rect style="display:none" class="hcell-act-col8-cat4" fill="#337AB7" stroke="#000" stroke-width="5" width="70" height="32" x="0" y="-37" rx="8" ry="8"/><rect class="hcell-col8-cat4" fill="#337AB7" stroke="#DDD" width="70" height="42" x="0" y="-42" rx="8" ry="8"/><text text-anchor="middle" fill="#FFF" x="35" y="-22">1403</text></a><g transform="translate(0,-42)"><g><a target="_top" xlink:href="dtp-slice5-step2628000-ofs3-col8-cat2.html"><rect style="display:none" class="hcell-act-col8-cat2" fill="#5CB85C" stroke="#000" stroke-width="5" width="70" height="122" x="0" y="-127" rx="8" ry="8"/><rect class="hcell-col8-cat2" fill="#5CB85C" stroke="#DDD" width="70" height="132" x="0" y="-132" rx="8" ry="8"/><text text-anchor="middle" fill="#FFF" x="35" y="-112">4383</text></a></g></g></g></g><rect fill="none" stroke="#DDD" width="70" height="30" rx="8" ry="8" x="405" y="240"/><text text-anchor="middle" fill="#333" x="440" y="260">13-03</text><g transform="translate(405,280)"><g><a target="_top" xlink:href="dtp-slice5-step2628000-ofs3-col8-cat1.html"><rect style="display:none" class="hcell-act-col8-cat1" fill="#F0AD4E" stroke="#000" stroke-width="5" width="70" height="20" x="0" y="5" rx="8" ry="8"/><rect class="hcell-col8-cat1" fill="#F0AD4E" stroke="#DDD" width="70" height="30" x="0" y="0" rx="8" ry="8"/><text text-anchor="middle" fill="#FFF" x="35" y="20">-29</text></a><g transform="translate(0,30)"><g><a target="_top" xlink:href="dtp-slice5-step2628000-ofs3-col8-cat4.html"><rect style="display:none" class="hcell-act-col8-cat4" fill="#337AB7" stroke="#000" stroke-width="5" width="70" height="20" x="0" y="5" rx="8" ry="8"/><rect class="hcell-col8-cat4" fill="#337AB7" stroke="#DDD" width="70" height="30" x="0" y="0" rx="8" ry="8"/><text text-anchor="middle" fill="#FFF" x="35" y="20">-581</text></a><g transform="translate(0,30)"><g><a target="_top" xlink:href="dtp-slice5-step2628000-ofs3-col8-cat2.html"><rect style="display:none" class="hcell-act-col8-cat2" fill="#5CB85C" stroke="#000" stroke-width="5" width="70" height="85" x="0" y="5" rx="8" ry="8"/><rect class="hcell-col8-cat2" fill="#5CB85C" stroke="#DDD" width="70" height="95" x="0" y="0" rx="8" ry="8"/><text text-anchor="middle" fill="#FFF" x="35" y="20">-3147</text></a></g></g></g></g></g></g></g><g><g transform="translate(485,230)"><g><a target="_top" xlink:href="dtp-slice5-step2628000-ofs3-col9-cat4.html"><rect style="display:none" class="hcell-act-col9-cat4" fill="#337AB7" stroke="#000" stroke-width="5" width="70" height="31" x="0" y="-36" rx="8" ry="8"/><rect class="hcell-col9-cat4" fill="#337AB7" stroke="#DDD" width="70" height="41" x="0" y="-41" rx="8" ry="8"/><text text-anchor="middle" fill="#FFF" x="35" y="-21">1370</text></a><g transform="translate(0,-41)"><g><a target="_top" xlink:href="dtp-slice5-step2628000-ofs3-col9-cat2.html"><rect style="display:none" class="hcell-act-col9-cat2" fill="#5CB85C" stroke="#000" stroke-width="5" width="70" height="68" x="0" y="-73" rx="8" ry="8"/><rect class="hcell-col9-cat2" fill="#5CB85C" stroke="#DDD" width="70" height="78" x="0" y="-78" rx="8" ry="8"/><text text-anchor="middle" fill="#FFF" x="35" y="-58">2600</text></a></g></g></g></g><rect fill="none" stroke="#DDD" width="70" height="30" rx="8" ry="8" x="485" y="240"/><text text-anchor="middle" fill="#333" x="520" y="260">13-04</text><g transform="translate(485,280)"><g><a target="_top" xlink:href="dtp-slice5-step2628000-ofs3-col9-cat1.html"><rect style="display:none" class="hcell-act-col9-cat1" fill="#F0AD4E" stroke="#000" stroke-width="5" width="70" height="20" x="0" y="5" rx="8" ry="8"/><rect class="hcell-col9-cat1" fill="#F0AD4E" stroke="#DDD" width="70" height="30" x="0" y="0" rx="8" ry="8"/><text text-anchor="middle" fill="#FFF" x="35" y="20">-20</text></a><g transform="translate(0,30)"><g><a target="_top" xlink:href="dtp-slice5-step2628000-ofs3-col9-cat4.html"><rect style="display:none" class="hcell-act-col9-cat4" fill="#337AB7" stroke="#000" stroke-width="5" width="70" height="20" x="0" y="5" rx="8" ry="8"/><rect class="hcell-col9-cat4" fill="#337AB7" stroke="#DDD" width="70" height="30" x="0" y="0" rx="8" ry="8"/><text text-anchor="middle" fill="#FFF" x="35" y="20">-479</text></a><g transform="translate(0,30)"><g><a target="_top" xlink:href="dtp-slice5-step2628000-ofs3-col9-cat2.html"><rect style="display:none" class="hcell-act-col9-cat2" fill="#5CB85C" stroke="#000" stroke-width="5" width="70" height="82" x="0" y="5" rx="8" ry="8"/><rect class="hcell-col9-cat2" fill="#5CB85C" stroke="#DDD" width="70" height="92" x="0" y="0" rx="8" ry="8"/><text text-anchor="middle" fill="#FFF" x="35" y="20">-3054</text></a></g></g></g></g></g></g></g><g><g transform="translate(565,230)"><g><a target="_top" xlink:href="dtp-slice5-step2628000-ofs3-col10-cat4.html"><rect style="display:none" class="hcell-act-col10-cat4" fill="#337AB7" stroke="#000" stroke-width="5" width="70" height="24" x="0" y="-29" rx="8" ry="8"/><rect class="hcell-col10-cat4" fill="#337AB7" stroke="#DDD" width="70" height="34" x="0" y="-34" rx="8" ry="8"/><text text-anchor="middle" fill="#FFF" x="35" y="-14">1126</text></a><g transform="translate(0,-34)"><g><a target="_top" xlink:href="dtp-slice5-step2628000-ofs3-col10-cat2.html"><rect style="display:none" class="hcell-act-col10-cat2" fill="#5CB85C" stroke="#000" stroke-width="5" width="70" height="69" x="0" y="-74" rx="8" ry="8"/><rect class="hcell-col10-cat2" fill="#5CB85C" stroke="#DDD" width="70" height="79" x="0" y="-79" rx="8" ry="8"/><text text-anchor="middle" fill="#FFF" x="35" y="-59">2631</text></a></g></g></g></g><rect fill="none" stroke="#DDD" width="70" height="30" rx="8" ry="8" x="565" y="240"/><text text-anchor="middle" fill="#333" x="600" y="260">13-05</text><g transform="translate(565,280)"><g><a target="_top" xlink:href="dtp-slice5-step2628000-ofs3-col10-cat1.html"><rect style="display:none" class="hcell-act-col10-cat1" fill="#F0AD4E" stroke="#000" stroke-width="5" width="70" height="20" x="0" y="5" rx="8" ry="8"/><rect class="hcell-col10-cat1" fill="#F0AD4E" stroke="#DDD" width="70" height="30" x="0" y="0" rx="8" ry="8"/><text text-anchor="middle" fill="#FFF" x="35" y="20">-7</text></a><g transform="translate(0,30)"><g><a target="_top" xlink:href="dtp-slice5-step2628000-ofs3-col10-cat4.html"><rect style="display:none" class="hcell-act-col10-cat4" fill="#337AB7" stroke="#000" stroke-width="5" width="70" height="20" x="0" y="5" rx="8" ry="8"/><rect class="hcell-col10-cat4" fill="#337AB7" stroke="#DDD" width="70" height="30" x="0" y="0" rx="8" ry="8"/><text text-anchor="middle" fill="#FFF" x="35" y="20">-622</text></a><g transform="translate(0,30)"><g><a target="_top" xlink:href="dtp-slice5-step2628000-ofs3-col10-cat0.html"><rect style="display:none" class="hcell-act-col10-cat0" fill="#D9534F" stroke="#000" stroke-width="5" width="70" height="37" x="0" y="5" rx="8" ry="8"/><rect class="hcell-col10-cat0" fill="#D9534F" stroke="#DDD" width="70" height="47" x="0" y="0" rx="8" ry="8"/><text text-anchor="middle" fill="#FFF" x="35" y="20">-1560</text></a><g transform="translate(0,47)"><g><a target="_top" xlink:href="dtp-slice5-step2628000-ofs3-col10-cat2.html"><rect style="display:none" class="hcell-act-col10-cat2" fill="#5CB85C" stroke="#000" stroke-width="5" width="70" height="72" x="0" y="5" rx="8" ry="8"/><rect class="hcell-col10-cat2" fill="#5CB85C" stroke="#DDD" width="70" height="82" x="0" y="0" rx="8" ry="8"/><text text-anchor="middle" fill="#FFF" x="35" y="20">-2720</text></a></g></g></g></g></g></g></g></g></g><g><g transform="translate(645,230)"><g><a target="_top" xlink:href="dtp-slice5-step2628000-ofs3-col11-cat4.html"><rect style="display:none" class="hcell-act-col11-cat4" fill="#337AB7" stroke="#000" stroke-width="5" width="70" height="20" x="0" y="-25" rx="8" ry="8"/><rect class="hcell-col11-cat4" fill="#337AB7" stroke="#DDD" width="70" height="30" x="0" y="-30" rx="8" ry="8"/><text text-anchor="middle" fill="#FFF" x="35" y="-10">24</text></a><g transform="translate(0,-30)"><g><a target="_top" xlink:href="dtp-slice5-step2628000-ofs3-col11-cat3.html"><rect style="display:none" class="hcell-act-col11-cat3" fill="#5BC0DE" stroke="#000" stroke-width="5" width="70" height="20" x="0" y="-25" rx="8" ry="8"/><rect class="hcell-col11-cat3" fill="#5BC0DE" stroke="#DDD" width="70" height="30" x="0" y="-30" rx="8" ry="8"/><text text-anchor="middle" fill="#FFF" x="35" y="-10">800</text></a><g transform="translate(0,-30)"><g><a target="_top" xlink:href="dtp-slice5-step2628000-ofs3-col11-cat2.html"><rect style="display:none" class="hcell-act-col11-cat2" fill="#5CB85C" stroke="#000" stroke-width="5" width="70" height="72" x="0" y="-77" rx="8" ry="8"/><rect class="hcell-col11-cat2" fill="#5CB85C" stroke="#DDD" width="70" height="82" x="0" y="-82" rx="8" ry="8"/><text text-anchor="middle" fill="#FFF" x="35" y="-62">2708</text></a></g></g></g></g></g></g><rect fill="none" stroke="#DDD" width="70" height="30" rx="8" ry="8" x="645" y="240"/><text text-anchor="middle" fill="#333" x="680" y="260">13-06</text><g transform="translate(645,280)"><g><a target="_top" xlink:href="dtp-slice5-step2628000-ofs3-col11-cat4.html"><rect style="display:none" class="hcell-act-col11-cat4" fill="#337AB7" stroke="#000" stroke-width="5" width="70" height="20" x="0" y="5" rx="8" ry="8"/><rect class="hcell-col11-cat4" fill="#337AB7" stroke="#DDD" width="70" height="30" x="0" y="0" rx="8" ry="8"/><text text-anchor="middle" fill="#FFF" x="35" y="20">-306</text></a><g transform="translate(0,30)"><g><a target="_top" xlink:href="dtp-slice5-step2628000-ofs3-col11-cat2.html"><rect style="display:none" class="hcell-act-col11-cat2" fill="#5CB85C" stroke="#000" stroke-width="5" width="70" height="74" x="0" y="5" rx="8" ry="8"/><rect class="hcell-col11-cat2" fill="#5CB85C" stroke="#DDD" width="70" height="84" x="0" y="0" rx="8" ry="8"/><text text-anchor="middle" fill="#FFF" x="35" y="20">-2796</text></a></g></g></g></g></g><g><g transform="translate(725,230)"><g><a target="_top" xlink:href="dtp-slice5-step2628000-ofs3-col12-cat3.html"><rect style="display:none" class="hcell-act-col12-cat3" fill="#5BC0DE" stroke="#000" stroke-width="5" width="70" height="20" x="0" y="-25" rx="8" ry="8"/><rect class="hcell-col12-cat3" fill="#5BC0DE" stroke="#DDD" width="70" height="30" x="0" y="-30" rx="8" ry="8"/><text text-anchor="middle" fill="#FFF" x="35" y="-10">490</text></a><g transform="translate(0,-30)"><g><a target="_top" xlink:href="dtp-slice5-step2628000-ofs3-col12-cat2.html"><rect style="display:none" class="hcell-act-col12-cat2" fill="#5CB85C" stroke="#000" stroke-width="5" width="70" height="68" x="0" y="-73" rx="8" ry="8"/><rect class="hcell-col12-cat2" fill="#5CB85C" stroke="#DDD" width="70" height="78" x="0" y="-78" rx="8" ry="8"/><text text-anchor="middle" fill="#FFF" x="35" y="-58">2600</text></a></g></g></g></g><rect fill="none" stroke="#DDD" width="70" height="30" rx="8" ry="8" x="725" y="240"/><text text-anchor="middle" fill="#333" x="760" y="260">13-07</text><g transform="translate(725,280)"><g><a target="_top" xlink:href="dtp-slice5-step2628000-ofs3-col12-cat1.html"><rect style="display:none" class="hcell-act-col12-cat1" fill="#F0AD4E" stroke="#000" stroke-width="5" width="70" height="20" x="0" y="5" rx="8" ry="8"/><rect class="hcell-col12-cat1" fill="#F0AD4E" stroke="#DDD" width="70" height="30" x="0" y="0" rx="8" ry="8"/><text text-anchor="middle" fill="#FFF" x="35" y="20">-8</text></a><g transform="translate(0,30)"><g><a target="_top" xlink:href="dtp-slice5-step2628000-ofs3-col12-cat4.html"><rect style="display:none" class="hcell-act-col12-cat4" fill="#337AB7" stroke="#000" stroke-width="5" width="70" height="20" x="0" y="5" rx="8" ry="8"/><rect class="hcell-col12-cat4" fill="#337AB7" stroke="#DDD" width="70" height="30" x="0" y="0" rx="8" ry="8"/><text text-anchor="middle" fill="#FFF" x="35" y="20">-552</text></a><g transform="translate(0,30)"><g><a target="_top" xlink:href="dtp-slice5-step2628000-ofs3-col12-cat2.html"><rect style="display:none" class="hcell-act-col12-cat2" fill="#5CB85C" stroke="#000" stroke-width="5" width="70" height="175" x="0" y="5" rx="8" ry="8"/><rect class="hcell-col12-cat2" fill="#5CB85C" stroke="#DDD" width="70" height="185" x="0" y="0" rx="8" ry="8"/><text text-anchor="middle" fill="#FFF" x="35" y="20">-6135</text></a></g></g></g></g></g></g></g><g><g transform="translate(805,230)"><g><a target="_top" xlink:href="dtp-slice5-step2628000-ofs3-col13-cat2.html"><rect style="display:none" class="hcell-act-col13-cat2" fill="#5CB85C" stroke="#000" stroke-width="5" width="70" height="69" x="0" y="-74" rx="8" ry="8"/><rect class="hcell-col13-cat2" fill="#5CB85C" stroke="#DDD" width="70" height="79" x="0" y="-79" rx="8" ry="8"/><text text-anchor="middle" fill="#FFF" x="35" y="-59">2624</text></a></g></g><rect fill="none" stroke="#DDD" width="70" height="30" rx="8" ry="8" x="805" y="240"/><text text-anchor="middle" fill="#333" x="840" y="260">13-08</text><g transform="translate(805,280)"><g><a target="_top" xlink:href="dtp-slice5-step2628000-ofs3-col13-cat1.html"><rect style="display:none" class="hcell-act-col13-cat1" fill="#F0AD4E" stroke="#000" stroke-width="5" width="70" height="20" x="0" y="5" rx="8" ry="8"/><rect class="hcell-col13-cat1" fill="#F0AD4E" stroke="#DDD" width="70" height="30" x="0" y="0" rx="8" ry="8"/><text text-anchor="middle" fill="#FFF" x="35" y="20">-27</text></a><g transform="translate(0,30)"><g><a target="_top" xlink:href="dtp-slice5-step2628000-ofs3-col13-cat4.html"><rect style="display:none" class="hcell-act-col13-cat4" fill="#337AB7" stroke="#000" stroke-width="5" width="70" height="20" x="0" y="5" rx="8" ry="8"/><rect class="hcell-col13-cat4" fill="#337AB7" stroke="#DDD" width="70" height="30" x="0" y="0" rx="8" ry="8"/><text text-anchor="middle" fill="#FFF" x="35" y="20">-631</text></a><g transform="translate(0,30)"><g><a target="_top" xlink:href="dtp-slice5-step2628000-ofs3-col13-cat2.html"><rect style="display:none" class="hcell-act-col13-cat2" fill="#5CB85C" stroke="#000" stroke-width="5" width="70" height="39" x="0" y="5" rx="8" ry="8"/><rect class="hcell-col13-cat2" fill="#5CB85C" stroke="#DDD" width="70" height="49" x="0" y="0" rx="8" ry="8"/><text text-anchor="middle" fill="#FFF" x="35" y="20">-1620</text></a></g></g></g></g></g></g></g><g><g transform="translate(885,230)"><g><a target="_top" xlink:href="dtp-slice5-step2628000-ofs3-col14-cat0.html"><rect style="display:none" class="hcell-act-col14-cat0" fill="#D9534F" stroke="#000" stroke-width="5" width="70" height="47" x="0" y="-52" rx="8" ry="8"/><rect class="hcell-col14-cat0" fill="#D9534F" stroke="#DDD" width="70" height="57" x="0" y="-57" rx="8" ry="8"/><text text-anchor="middle" fill="#FFF" x="35" y="-37">1900</text></a><g transform="translate(0,-57)"><g><a target="_top" xlink:href="dtp-slice5-step2628000-ofs3-col14-cat2.html"><rect style="display:none" class="hcell-act-col14-cat2" fill="#5CB85C" stroke="#000" stroke-width="5" width="70" height="68" x="0" y="-73" rx="8" ry="8"/><rect class="hcell-col14-cat2" fill="#5CB85C" stroke="#DDD" width="70" height="78" x="0" y="-78" rx="8" ry="8"/><text text-anchor="middle" fill="#FFF" x="35" y="-58">2600</text></a></g></g></g></g><rect fill="none" stroke="#DDD" width="70" height="30" rx="8" ry="8" x="885" y="240"/><text text-anchor="middle" fill="#333" x="920" y="260">13-08</text><g transform="translate(885,280)"><g><a target="_top" xlink:href="dtp-slice5-step2628000-ofs3-col14-cat1.html"><rect style="display:none" class="hcell-act-col14-cat1" fill="#F0AD4E" stroke="#000" stroke-width="5" width="70" height="20" x="0" y="5" rx="8" ry="8"/><rect class="hcell-col14-cat1" fill="#F0AD4E" stroke="#DDD" width="70" height="30" x="0" y="0" rx="8" ry="8"/><text text-anchor="middle" fill="#FFF" x="35" y="20">-48</text></a><g transform="translate(0,30)"><g><a target="_top" xlink:href="dtp-slice5-step2628000-ofs3-col14-cat4.html"><rect style="display:none" class="hcell-act-col14-cat4" fill="#337AB7" stroke="#000" stroke-width="5" width="70" height="20" x="0" y="5" rx="8" ry="8"/><rect class="hcell-col14-cat4" fill="#337AB7" stroke="#DDD" width="70" height="30" x="0" y="0" rx="8" ry="8"/><text text-anchor="middle" fill="#FFF" x="35" y="20">-263</text></a><g transform="translate(0,30)"><g><a target="_top" xlink:href="dtp-slice5-step2628000-ofs3-col14-cat2.html"><rect style="display:none" class="hcell-act-col14-cat2" fill="#5CB85C" stroke="#000" stroke-width="5" width="70" height="38" x="0" y="5" rx="8" ry="8"/><rect class="hcell-col14-cat2" fill="#5CB85C" stroke="#DDD" width="70" height="48" x="0" y="0" rx="8" ry="8"/><text text-anchor="middle" fill="#FFF" x="35" y="20">-1601</text></a></g></g></g></g></g></g></g><g><g transform="translate(965,230)"><g><a target="_top" xlink:href="dtp-slice5-step2628000-ofs3-col15-cat2.html"><rect style="display:none" class="hcell-act-col15-cat2" fill="#5CB85C" stroke="#000" stroke-width="5" width="70" height="72" x="0" y="-77" rx="8" ry="8"/><rect class="hcell-col15-cat2" fill="#5CB85C" stroke="#DDD" width="70" height="82" x="0" y="-82" rx="8" ry="8"/><text text-anchor="middle" fill="#FFF" x="35" y="-62">2711</text></a></g></g><rect fill="none" stroke="#DDD" width="70" height="30" rx="8" ry="8" x="965" y="240"/><text text-anchor="middle" fill="#333" x="1000" y="260">13-10</text><g transform="translate(965,280)"><g><a target="_top" xlink:href="dtp-slice5-step2628000-ofs3-col15-cat0.html"><rect style="display:none" class="hcell-act-col15-cat0" fill="#D9534F" stroke="#000" stroke-width="5" width="70" height="20" x="0" y="5" rx="8" ry="8"/><rect class="hcell-col15-cat0" fill="#D9534F" stroke="#DDD" width="70" height="30" x="0" y="0" rx="8" ry="8"/><text text-anchor="middle" fill="#FFF" x="35" y="20">-10</text></a><g transform="translate(0,30)"><g><a target="_top" xlink:href="dtp-slice5-step2628000-ofs3-col15-cat1.html"><rect style="display:none" class="hcell-act-col15-cat1" fill="#F0AD4E" stroke="#000" stroke-width="5" width="70" height="20" x="0" y="5" rx="8" ry="8"/><rect class="hcell-col15-cat1" fill="#F0AD4E" stroke="#DDD" width="70" height="30" x="0" y="0" rx="8" ry="8"/><text text-anchor="middle" fill="#FFF" x="35" y="20">-18</text></a><g transform="translate(0,30)"><g><a target="_top" xlink:href="dtp-slice5-step2628000-ofs3-col15-cat4.html"><rect style="display:none" class="hcell-act-col15-cat4" fill="#337AB7" stroke="#000" stroke-width="5" width="70" height="20" x="0" y="5" rx="8" ry="8"/><rect class="hcell-col15-cat4" fill="#337AB7" stroke="#DDD" width="70" height="30" x="0" y="0" rx="8" ry="8"/><text text-anchor="middle" fill="#FFF" x="35" y="20">-502</text></a><g transform="translate(0,30)"><g><a target="_top" xlink:href="dtp-slice5-step2628000-ofs3-col15-cat2.html"><rect style="display:none" class="hcell-act-col15-cat2" fill="#5CB85C" stroke="#000" stroke-width="5" width="70" height="38" x="0" y="5" rx="8" ry="8"/><rect class="hcell-col15-cat2" fill="#5CB85C" stroke="#DDD" width="70" height="48" x="0" y="0" rx="8" ry="8"/><text text-anchor="middle" fill="#FFF" x="35" y="20">-1610</text></a></g></g></g></g></g></g></g></g></g><g><g transform="translate(1045,230)"><g><a target="_top" xlink:href="dtp-slice5-step2628000-ofs3-col16-cat4.html"><rect style="display:none" class="hcell-act-col16-cat4" fill="#337AB7" stroke="#000" stroke-width="5" width="70" height="46" x="0" y="-51" rx="8" ry="8"/><rect class="hcell-col16-cat4" fill="#337AB7" stroke="#DDD" width="70" height="56" x="0" y="-56" rx="8" ry="8"/><text text-anchor="middle" fill="#FFF" x="35" y="-36">1849</text></a><g transform="translate(0,-56)"><g><a target="_top" xlink:href="dtp-slice5-step2628000-ofs3-col16-cat2.html"><rect style="display:none" class="hcell-act-col16-cat2" fill="#5CB85C" stroke="#000" stroke-width="5" width="70" height="80" x="0" y="-85" rx="8" ry="8"/><rect class="hcell-col16-cat2" fill="#5CB85C" stroke="#DDD" width="70" height="90" x="0" y="-90" rx="8" ry="8"/><text text-anchor="middle" fill="#FFF" x="35" y="-70">2971</text></a></g></g></g></g><rect fill="none" stroke="#DDD" width="70" height="30" rx="8" ry="8" x="1045" y="240"/><text text-anchor="middle" fill="#333" x="1080" y="260">13-10</text><g transform="translate(1045,280)"><g><a target="_top" xlink:href="dtp-slice5-step2628000-ofs3-col16-cat1.html"><rect style="display:none" class="hcell-act-col16-cat1" fill="#F0AD4E" stroke="#000" stroke-width="5" width="70" height="20" x="0" y="5" rx="8" ry="8"/><rect class="hcell-col16-cat1" fill="#F0AD4E" stroke="#DDD" width="70" height="30" x="0" y="0" rx="8" ry="8"/><text text-anchor="middle" fill="#FFF" x="35" y="20">-46</text></a><g transform="translate(0,30)"><g><a target="_top" xlink:href="dtp-slice5-step2628000-ofs3-col16-cat3.html"><rect style="display:none" class="hcell-act-col16-cat3" fill="#5BC0DE" stroke="#000" stroke-width="5" width="70" height="20" x="0" y="5" rx="8" ry="8"/><rect class="hcell-col16-cat3" fill="#5BC0DE" stroke="#DDD" width="70" height="30" x="0" y="0" rx="8" ry="8"/><text text-anchor="middle" fill="#FFF" x="35" y="20">-371</text></a><g transform="translate(0,30)"><g><a target="_top" xlink:href="dtp-slice5-step2628000-ofs3-col16-cat4.html"><rect style="display:none" class="hcell-act-col16-cat4" fill="#337AB7" stroke="#000" stroke-width="5" width="70" height="20" x="0" y="5" rx="8" ry="8"/><rect class="hcell-col16-cat4" fill="#337AB7" stroke="#DDD" width="70" height="30" x="0" y="0" rx="8" ry="8"/><text text-anchor="middle" fill="#FFF" x="35" y="20">-801</text></a><g transform="translate(0,30)"><g><a target="_top" xlink:href="dtp-slice5-step2628000-ofs3-col16-cat2.html"><rect style="display:none" class="hcell-act-col16-cat2" fill="#5CB85C" stroke="#000" stroke-width="5" width="70" height="88" x="0" y="5" rx="8" ry="8"/><rect class="hcell-col16-cat2" fill="#5CB85C" stroke="#DDD" width="70" height="98" x="0" y="0" rx="8" ry="8"/><text text-anchor="middle" fill="#FFF" x="35" y="20">-3246</text></a></g></g></g></g></g></g></g></g></g><g><g transform="translate(1125,230)"><g><a target="_top" xlink:href="dtp-slice5-step2628000-ofs3-col17-cat4.html"><rect style="display:none" class="hcell-act-col17-cat4" fill="#337AB7" stroke="#000" stroke-width="5" width="70" height="20" x="0" y="-25" rx="8" ry="8"/><rect class="hcell-col17-cat4" fill="#337AB7" stroke="#DDD" width="70" height="30" x="0" y="-30" rx="8" ry="8"/><text text-anchor="middle" fill="#FFF" x="35" y="-10">562</text></a><g transform="translate(0,-30)"><g><a target="_top" xlink:href="dtp-slice5-step2628000-ofs3-col17-cat2.html"><rect style="display:none" class="hcell-act-col17-cat2" fill="#5CB85C" stroke="#000" stroke-width="5" width="70" height="68" x="0" y="-73" rx="8" ry="8"/><rect class="hcell-col17-cat2" fill="#5CB85C" stroke="#DDD" width="70" height="78" x="0" y="-78" rx="8" ry="8"/><text text-anchor="middle" fill="#FFF" x="35" y="-58">2600</text></a></g></g></g></g><rect fill="none" stroke="#DDD" width="70" height="30" rx="8" ry="8" x="1125" y="240"/><text text-anchor="middle" fill="#333" x="1160" y="260">13-12</text><g transform="translate(1125,280)"><g><a target="_top" xlink:href="dtp-slice5-step2628000-ofs3-col17-cat4.html"><rect style="display:none" class="hcell-act-col17-cat4" fill="#337AB7" stroke="#000" stroke-width="5" width="70" height="24" x="0" y="5" rx="8" ry="8"/><rect class="hcell-col17-cat4" fill="#337AB7" stroke="#DDD" width="70" height="34" x="0" y="0" rx="8" ry="8"/><text text-anchor="middle" fill="#FFF" x="35" y="20">-1128</text></a><g transform="translate(0,34)"><g><a target="_top" xlink:href="dtp-slice5-step2628000-ofs3-col17-cat2.html"><rect style="display:none" class="hcell-act-col17-cat2" fill="#5CB85C" stroke="#000" stroke-width="5" width="70" height="50" x="0" y="5" rx="8" ry="8"/><rect class="hcell-col17-cat2" fill="#5CB85C" stroke="#DDD" width="70" height="60" x="0" y="0" rx="8" ry="8"/><text text-anchor="middle" fill="#FFF" x="35" y="20">-1980</text></a></g></g></g></g></g><g><g transform="translate(1205,230)"><g><a target="_top" xlink:href="dtp-slice5-step2628000-ofs3-col18-cat3.html"><rect style="display:none" class="hcell-act-col18-cat3" fill="#5BC0DE" stroke="#000" stroke-width="5" width="70" height="20" x="0" y="-25" rx="8" ry="8"/><rect class="hcell-col18-cat3" fill="#5BC0DE" stroke="#DDD" width="70" height="30" x="0" y="-30" rx="8" ry="8"/><text text-anchor="middle" fill="#FFF" x="35" y="-10">640</text></a><g transform="translate(0,-30)"><g><a target="_top" xlink:href="dtp-slice5-step2628000-ofs3-col18-cat4.html"><rect style="display:none" class="hcell-act-col18-cat4" fill="#337AB7" stroke="#000" stroke-width="5" width="70" height="25" x="0" y="-30" rx="8" ry="8"/><rect class="hcell-col18-cat4" fill="#337AB7" stroke="#DDD" width="70" height="35" x="0" y="-35" rx="8" ry="8"/><text text-anchor="middle" fill="#FFF" x="35" y="-15">1183</text></a><g transform="translate(0,-35)"><g><a target="_top" xlink:href="dtp-slice5-step2628000-ofs3-col18-cat2.html"><rect style="display:none" class="hcell-act-col18-cat2" fill="#5CB85C" stroke="#000" stroke-width="5" width="70" height="69" x="0" y="-74" rx="8" ry="8"/><rect class="hcell-col18-cat2" fill="#5CB85C" stroke="#DDD" width="70" height="79" x="0" y="-79" rx="8" ry="8"/><text text-anchor="middle" fill="#FFF" x="35" y="-59">2633</text></a></g></g></g></g></g></g><rect fill="none" stroke="#DDD" width="70" height="30" rx="8" ry="8" x="1205" y="240"/><text text-anchor="middle" fill="#333" x="1240" y="260">13-12</text><g transform="translate(1205,280)"><g><a target="_top" xlink:href="dtp-slice5-step2628000-ofs3-col18-cat1.html"><rect style="display:none" class="hcell-act-col18-cat1" fill="#F0AD4E" stroke="#000" stroke-width="5" width="70" height="20" x="0" y="5" rx="8" ry="8"/><rect class="hcell-col18-cat1" fill="#F0AD4E" stroke="#DDD" width="70" height="30" x="0" y="0" rx="8" ry="8"/><text text-anchor="middle" fill="#FFF" x="35" y="20">-1</text></a><g transform="translate(0,30)"><g><a target="_top" xlink:href="dtp-slice5-step2628000-ofs3-col18-cat4.html"><rect style="display:none" class="hcell-act-col18-cat4" fill="#337AB7" stroke="#000" stroke-width="5" width="70" height="20" x="0" y="5" rx="8" ry="8"/><rect class="hcell-col18-cat4" fill="#337AB7" stroke="#DDD" width="70" height="30" x="0" y="0" rx="8" ry="8"/><text text-anchor="middle" fill="#FFF" x="35" y="20">-558</text></a><g transform="translate(0,30)"><g><a target="_top" xlink:href="dtp-slice5-step2628000-ofs3-col18-cat3.html"><rect style="display:none" class="hcell-act-col18-cat3" fill="#5BC0DE" stroke="#000" stroke-width="5" width="70" height="40" x="0" y="5" rx="8" ry="8"/><rect class="hcell-col18-cat3" fill="#5BC0DE" stroke="#DDD" width="70" height="50" x="0" y="0" rx="8" ry="8"/><text text-anchor="middle" fill="#FFF" x="35" y="20">-1680</text></a><g transform="translate(0,50)"><g><a target="_top" xlink:href="dtp-slice5-step2628000-ofs3-col18-cat2.html"><rect style="display:none" class="hcell-act-col18-cat2" fill="#5CB85C" stroke="#000" stroke-width="5" width="70" height="61" x="0" y="5" rx="8" ry="8"/><rect class="hcell-col18-cat2" fill="#5CB85C" stroke="#DDD" width="70" height="71" x="0" y="0" rx="8" ry="8"/><text text-anchor="middle" fill="#FFF" x="35" y="20">-2368</text></a></g></g></g></g></g></g></g></g></g></svg>