<svg xmlns="http://www.w3.org/2000/svg" xmlns:xlink="http://www.w3.org/1999/xlink" width="100%" height="100%" viewBox="0 0 1280 477"><g><g transform="translate(5,422)"><g><a target="_top" xlink:href="dtp-slice2-step2628000-ofs35-col35-cat0.html"><rect style="display:none" class="hcell-act-col35-cat0" fill="#5CB85C" stroke="#000" stroke-width="5" width="70" height="20" x="0" y="-25" rx="8" ry="8"/><rect class="hcell-col35-cat0" fill="#5CB85C" stroke="#DDD" width="70" height="30" x="0" y="-30" rx="8" ry="8"/><text text-anchor="middle" fill="#FFF" x="35" y="-10">20</text></a><g transform="translate(0,-30)"><g><a target="_top" xlink:href="dtp-slice2-step2628000-ofs35-col35-cat3.html"><rect style="display:none" class="hcell-act-col35-cat3" fill="#F0AD4E" stroke="#000" stroke-width="5" width="70" height="115" x="0" y="-120" rx="8" ry="8"/><rect class="hcell-col35-cat3" fill="#F0AD4E" stroke="#DDD" width="70" height="125" x="0" y="-125" rx="8" ry="8"/><text text-anchor="middle" fill="#FFF" x="35" y="-105">200</text></a><g transform="translate(0,-125)"><g><a target="_top" xlink:href="dtp-slice2-step2628000-ofs35-col35-cat1.html"><rect style="display:none" class="hcell-act-col35-cat1" fill="#5BC0DE" stroke="#000" stroke-width="5" width="70" height="252" x="0" y="-257" rx="8" ry="8"/><rect class="hcell-col35-cat1" fill="#5BC0DE" stroke="#DDD" width="70" height="262" x="0" y="-262" rx="8" ry="8"/><text text-anchor="middle" fill="#FFF" x="35" y="-242">420</text></a></g></g></g></g></g></g><rect fill="none" stroke="#DDD" width="70" height="30" rx="8" ry="8" x="5" y="432"/><text text-anchor="middle" fill="#333" x="40" y="452">15-06</text><g transform="translate(5,472)"></g></g><g><g transform="translate(85,422)"><g><a target="_top" xlink:href="dtp-slice2-step2628000-ofs35-col36-cat0.html"><rect style="display:none" class="hcell-act-col36-cat0" fill="#5CB85C" stroke="#000" stroke-width="5" width="70" height="20" x="0" y="-25" rx="8" ry="8"/><rect class="hcell-col36-cat0" fill="#5CB85C" stroke="#DDD" width="70" height="30" x="0" y="-30" rx="8" ry="8"/><text text-anchor="middle" fill="#FFF" x="35" y="-10">20</text></a><g transform="translate(0,-30)"><g><a target="_top" xlink:href="dtp-slice2-step2628000-ofs35-col36-cat1.html"><rect style="display:none" class="hcell-act-col36-cat1" fill="#5BC0DE" stroke="#000" stroke-width="5" width="70" height="20" x="0" y="-25" rx="8" ry="8"/><rect class="hcell-col36-cat1" fill="#5BC0DE" stroke="#DDD" width="70" height="30" x="0" y="-30" rx="8" ry="8"/><text text-anchor="middle" fill="#FFF" x="35" y="-10">20</text></a><g transform="translate(0,-30)"><g><a target="_top" xlink:href="dtp-slice2-step2628000-ofs35-col36-cat3.html"><rect style="display:none" class="hcell-act-col36-cat3" fill="#F0AD4E" stroke="#000" stroke-width="5" width="70" height="115" x="0" y="-120" rx="8" ry="8"/><rect class="hcell-col36-cat3" fill="#F0AD4E" stroke="#DDD" width="70" height="125" x="0" y="-125" rx="8" ry="8"/><text text-anchor="middle" fill="#FFF" x="35" y="-105">200</text></a></g></g></g></g></g></g><rect fill="none" stroke="#DDD" width="70" height="30" rx="8" ry="8" x="85" y="432"/><text text-anchor="middle" fill="#333" x="120" y="452">15-07</text><g transform="translate(85,472)"></g></g><g><g transform="translate(165,422)"></g><rect fill="none" stroke="#DDD" width="70" height="30" rx="8" ry="8" x="165" y="432"/><text text-anchor="middle" fill="#333" x="200" y="452">15-08</text><g transform="translate(165,472)"></g></g><g><g transform="translate(245,422)"></g><rect fill="none" stroke="#DDD" width="70" height="30" rx="8" ry="8" x="245" y="432"/><text text-anchor="middle" fill="#333" x="280" y="452">15-08</text><g transform="translate(245,472)"></g></g><g><g transform="translate(325,422)"></g><rect fill="none" stroke="#DDD" width="70" height="30" rx="8" ry="8" x="325" y="432"/><text text-anchor="middle" fill="#333" x="360" y="452">15-10</text><g transform="translate(325,472)"></g></g><g><g transform="translate(405,422)"></g><rect fill="none" stroke="#DDD" width="70" height="30" rx="8" ry="8" x="405" y="432"/><text text-anchor="middle" fill="#333" x="440" y="452">15-10</text><g transform="translate(405,472)"></g></g><g><g transform="translate(485,422)"></g><rect fill="none" stroke="#DDD" width="70" height="30" rx="8" ry="8" x="485" y="432"/><text text-anchor="middle" fill="#333" x="520" y="452">15-12</text><g transform="translate(485,472)"></g></g><g><g transform="translate(565,422)"></g><rect fill="none" stroke="#DDD" width="70" height="30" rx="8" ry="8" x="565" y="432"/><text text-anchor="middle" fill="#333" x="600" y="452">15-12</text><g transform="translate(565,472)"></g></g><g><g transform="translate(645,422)"></g><rect fill="none" stroke="#DDD" width="70" height="30" rx="8" ry="8" x="645" y="432"/><text text-anchor="middle" fill="#333" x="680" y="452">16-01</text><g transform="translate(645,472)"></g></g><g><g transform="translate(725,422)"></g><rect fill="none" stroke="#DDD" width="70" height="30" rx="8" ry="8" x="725" y="432"/><text text-anchor="middle" fill="#333" x="760" y="452">16-03</text><g transform="translate(725,472)"></g></g><g><g transform="translate(805,422)"></g><rect fill="none" stroke="#DDD" width="70" height="30" rx="8" ry="8" x="805" y="432"/><text text-anchor="middle" fill="#333" x="840" y="452">16-03</text><g transform="translate(805,472)"></g></g><g><g transform="translate(885,422)"></g><rect fill="none" stroke="#DDD" width="70" height="30" rx="8" ry="8" x="885" y="432"/><text text-anchor="middle" fill="#333" x="920" y="452">16-05</text><g transform="translate(885,472)"></g></g><g><g transform="translate(965,422)"></g><rect fill="none" stroke="#DDD" width="70" height="30" rx="8" ry="8" x="965" y="432"/><text text-anchor="middle" fill="#333" x="1000" y="452">16-05</text><g transform="translate(965,472)"></g></g><g><g transform="translate(1045,422)"></g><rect fill="none" stroke="#DDD" width="70" height="30" rx="8" ry="8" x="1045" y="432"/><text text-anchor="middle" fill="#333" x="1080" y="452">16-07</text><g transform="translate(1045,472)"></g></g><g><g transform="translate(1125,422)"></g><rect fill="none" stroke="#DDD" width="70" height="30" rx="8" ry="8" x="1125" y="432"/><text text-anchor="middle" fill="#333" x="1160" y="452">16-07</text><g transform="translate(1125,472)"></g></g><g><g transform="translate(1205,422)"></g><rect fill="none" stroke="#DDD" width="70" height="30" rx="8" ry="8" x="1205" y="432"/><text text-anchor="middle" fill="#333" x="1240" y="452">16-08</text><g transform="translate(1205,472)"></g></g></svg>