<svg xmlns="http://www.w3.org/2000/svg" xmlns:xlink="http://www.w3.org/1999/xlink" width="100%" height="100%" viewBox="0 0 1280 459"><g><g transform="translate(5,121)"></g><rect fill="none" stroke="#DDD" width="70" height="30" rx="8" ry="8" x="5" y="131"/><text text-anchor="middle" fill="#333" x="40" y="151">12-07</text><g transform="translate(5,171)"></g></g><g><g transform="translate(85,121)"></g><rect fill="none" stroke="#DDD" width="70" height="30" rx="8" ry="8" x="85" y="131"/><text text-anchor="middle" fill="#333" x="120" y="151">12-09</text><g transform="translate(85,171)"></g></g><g><g transform="translate(165,121)"></g><rect fill="none" stroke="#DDD" width="70" height="30" rx="8" ry="8" x="165" y="131"/><text text-anchor="middle" fill="#333" x="200" y="151">12-11</text><g transform="translate(165,171)"></g></g><g><g transform="translate(245,121)"></g><rect fill="none" stroke="#DDD" width="70" height="30" rx="8" ry="8" x="245" y="131"/><text text-anchor="middle" fill="#333" x="280" y="151">13-01</text><g transform="translate(245,171)"></g></g><g><g transform="translate(325,121)"></g><rect fill="none" stroke="#DDD" width="70" height="30" rx="8" ry="8" x="325" y="131"/><text text-anchor="middle" fill="#333" x="360" y="151">13-03</text><g transform="translate(325,171)"></g></g><g><g transform="translate(405,121)"></g><rect fill="none" stroke="#DDD" width="70" height="30" rx="8" ry="8" x="405" y="131"/><text text-anchor="middle" fill="#333" x="440" y="151">13-05</text><g transform="translate(405,171)"></g></g><g><g transform="translate(485,121)"></g><rect fill="none" stroke="#DDD" width="70" height="30" rx="8" ry="8" x="485" y="131"/><text text-anchor="middle" fill="#333" x="520" y="151">13-07</text><g transform="translate(485,171)"></g></g><g><g transform="translate(565,121)"></g><rect fill="none" stroke="#DDD" width="70" height="30" rx="8" ry="8" x="565" y="131"/><text text-anchor="middle" fill="#333" x="600" y="151">13-09</text><g transform="translate(565,171)"></g></g><g><g transform="translate(645,121)"></g><rect fill="none" stroke="#DDD" width="70" height="30" rx="8" ry="8" x="645" y="131"/><text text-anchor="middle" fill="#333" x="680" y="151">13-12</text><g transform="translate(645,171)"></g></g><g><g transform="translate(725,121)"></g><rect fill="none" stroke="#DDD" width="70" height="30" rx="8" ry="8" x="725" y="131"/><text text-anchor="middle" fill="#333" x="760" y="151">14-02</text><g transform="translate(725,171)"></g></g><g><g transform="translate(805,121)"></g><rect fill="none" stroke="#DDD" width="70" height="30" rx="8" ry="8" x="805" y="131"/><text text-anchor="middle" fill="#333" x="840" y="151">14-04</text><g transform="translate(805,171)"></g></g><g><g transform="translate(885,121)"></g><rect fill="none" stroke="#DDD" width="70" height="30" rx="8" ry="8" x="885" y="131"/><text text-anchor="middle" fill="#333" x="920" y="151">14-06</text><g transform="translate(885,171)"><g><a target="_top" xlink:href="dtp-sliceTagClothes-step5605201-ofs0-col11-cat0.html"><rect style="display:none" class="hcell-act-col11-cat0" fill="#777" stroke="#000" stroke-width="5" width="70" height="20" x="0" y="5" rx="8" ry="8"/><rect class="hcell-col11-cat0" fill="#777" stroke="#DDD" width="70" height="30" x="0" y="0" rx="8" ry="8"/><text text-anchor="middle" fill="#FFF" x="35" y="20">-24</text></a></g></g></g><g><g transform="translate(965,121)"><g><a target="_top" xlink:href="dtp-sliceTagClothes-step5605201-ofs0-col12-cat0.html"><rect style="display:none" class="hcell-act-col12-cat0" fill="#777" stroke="#000" stroke-width="5" width="70" height="106" x="0" y="-111" rx="8" ry="8"/><rect class="hcell-col12-cat0" fill="#777" stroke="#DDD" width="70" height="116" x="0" y="-116" rx="8" ry="8"/><text text-anchor="middle" fill="#FFF" x="35" y="-96">90</text></a></g></g><rect fill="none" stroke="#DDD" width="70" height="30" rx="8" ry="8" x="965" y="131"/><text text-anchor="middle" fill="#333" x="1000" y="151">14-08</text><g transform="translate(965,171)"></g></g><g><g transform="translate(1045,121)"><g><a target="_top" xlink:href="dtp-sliceTagClothes-step5605201-ofs0-col13-cat0.html"><rect style="display:none" class="hcell-act-col13-cat0" fill="#777" stroke="#000" stroke-width="5" width="70" height="63" x="0" y="-68" rx="8" ry="8"/><rect class="hcell-col13-cat0" fill="#777" stroke="#DDD" width="70" height="73" x="0" y="-73" rx="8" ry="8"/><text text-anchor="middle" fill="#FFF" x="35" y="-53">57</text></a></g></g><rect fill="none" stroke="#DDD" width="70" height="30" rx="8" ry="8" x="1045" y="131"/><text text-anchor="middle" fill="#333" x="1080" y="151">14-10</text><g transform="translate(1045,171)"></g></g><g><g transform="translate(1125,121)"></g><rect fill="none" stroke="#DDD" width="70" height="30" rx="8" ry="8" x="1125" y="131"/><text text-anchor="middle" fill="#333" x="1160" y="151">14-12</text><g transform="translate(1125,171)"><g><a target="_top" xlink:href="dtp-sliceTagClothes-step5605201-ofs0-col14-cat0.html"><rect style="display:none" class="hcell-act-col14-cat0" fill="#777" stroke="#000" stroke-width="5" width="70" height="20" x="0" y="5" rx="8" ry="8"/><rect class="hcell-col14-cat0" fill="#777" stroke="#DDD" width="70" height="30" x="0" y="0" rx="8" ry="8"/><text text-anchor="middle" fill="#FFF" x="35" y="20">-5</text></a></g></g></g><g><g transform="translate(1205,121)"></g><rect fill="none" stroke="#DDD" width="70" height="30" rx="8" ry="8" x="1205" y="131"/><text text-anchor="middle" fill="#333" x="1240" y="151">15-03</text><g transform="translate(1205,171)"><g><a target="_top" xlink:href="dtp-sliceTagClothes-step5605201-ofs0-col15-cat0.html"><rect style="display:none" class="hcell-act-col15-cat0" fill="#777" stroke="#000" stroke-width="5" width="70" height="273" x="0" y="5" rx="8" ry="8"/><rect class="hcell-col15-cat0" fill="#777" stroke="#DDD" width="70" height="283" x="0" y="0" rx="8" ry="8"/><text text-anchor="middle" fill="#FFF" x="35" y="20">-221</text></a></g></g></g></svg>