<svg xmlns="http://www.w3.org/2000/svg" xmlns:xlink="http://www.w3.org/1999/xlink" width="100%" height="100%" viewBox="0 0 1280 459"><g><g transform="translate(5,204)"><g><a target="_top" xlink:href="dtp-slice6-step2628000-ofs35-col35-cat0.html"><rect style="display:none" class="hcell-act-col35-cat0" fill="#5CB85C" stroke="#000" stroke-width="5" width="70" height="20" x="0" y="-25" rx="8" ry="8"/><rect class="hcell-col35-cat0" fill="#5CB85C" stroke="#DDD" width="70" height="30" x="0" y="-30" rx="8" ry="8"/><text text-anchor="middle" fill="#FFF" x="35" y="-10">490</text></a><g transform="translate(0,-30)"><g><a target="_top" xlink:href="dtp-slice6-step2628000-ofs35-col35-cat1.html"><rect style="display:none" class="hcell-act-col35-cat1" fill="#337AB7" stroke="#000" stroke-width="5" width="70" height="138" x="0" y="-143" rx="8" ry="8"/><rect class="hcell-col35-cat1" fill="#337AB7" stroke="#DDD" width="70" height="148" x="0" y="-148" rx="8" ry="8"/><text text-anchor="middle" fill="#FFF" x="35" y="-128">2600</text></a></g></g></g></g><rect fill="none" stroke="#DDD" width="70" height="30" rx="8" ry="8" x="5" y="214"/><text text-anchor="middle" fill="#333" x="40" y="234">15-06</text><g transform="translate(5,254)"><g><a target="_top" xlink:href="dtp-slice6-step2628000-ofs35-col35-cat2.html"><rect style="display:none" class="hcell-act-col35-cat2" fill="#D9534F" stroke="#000" stroke-width="5" width="70" height="167" x="0" y="5" rx="8" ry="8"/><rect class="hcell-col35-cat2" fill="#D9534F" stroke="#DDD" width="70" height="177" x="0" y="0" rx="8" ry="8"/><text text-anchor="middle" fill="#FFF" x="35" y="20">-3090</text></a></g></g></g><g><g transform="translate(85,204)"><g><a target="_top" xlink:href="dtp-slice6-step2628000-ofs35-col36-cat0.html"><rect style="display:none" class="hcell-act-col36-cat0" fill="#5CB85C" stroke="#000" stroke-width="5" width="70" height="41" x="0" y="-46" rx="8" ry="8"/><rect class="hcell-col36-cat0" fill="#5CB85C" stroke="#DDD" width="70" height="51" x="0" y="-51" rx="8" ry="8"/><text text-anchor="middle" fill="#FFF" x="35" y="-31">890</text></a><g transform="translate(0,-51)"><g><a target="_top" xlink:href="dtp-slice6-step2628000-ofs35-col36-cat1.html"><rect style="display:none" class="hcell-act-col36-cat1" fill="#337AB7" stroke="#000" stroke-width="5" width="70" height="138" x="0" y="-143" rx="8" ry="8"/><rect class="hcell-col36-cat1" fill="#337AB7" stroke="#DDD" width="70" height="148" x="0" y="-148" rx="8" ry="8"/><text text-anchor="middle" fill="#FFF" x="35" y="-128">2600</text></a></g></g></g></g><rect fill="none" stroke="#DDD" width="70" height="30" rx="8" ry="8" x="85" y="214"/><text text-anchor="middle" fill="#333" x="120" y="234">15-07</text><g transform="translate(85,254)"><g><a target="_top" xlink:href="dtp-slice6-step2628000-ofs35-col36-cat2.html"><rect style="display:none" class="hcell-act-col36-cat2" fill="#D9534F" stroke="#000" stroke-width="5" width="70" height="190" x="0" y="5" rx="8" ry="8"/><rect class="hcell-col36-cat2" fill="#D9534F" stroke="#DDD" width="70" height="200" x="0" y="0" rx="8" ry="8"/><text text-anchor="middle" fill="#FFF" x="35" y="20">-3490</text></a></g></g></g><g><g transform="translate(165,204)"></g><rect fill="none" stroke="#DDD" width="70" height="30" rx="8" ry="8" x="165" y="214"/><text text-anchor="middle" fill="#333" x="200" y="234">15-08</text><g transform="translate(165,254)"></g></g><g><g transform="translate(245,204)"></g><rect fill="none" stroke="#DDD" width="70" height="30" rx="8" ry="8" x="245" y="214"/><text text-anchor="middle" fill="#333" x="280" y="234">15-08</text><g transform="translate(245,254)"></g></g><g><g transform="translate(325,204)"></g><rect fill="none" stroke="#DDD" width="70" height="30" rx="8" ry="8" x="325" y="214"/><text text-anchor="middle" fill="#333" x="360" y="234">15-10</text><g transform="translate(325,254)"></g></g><g><g transform="translate(405,204)"></g><rect fill="none" stroke="#DDD" width="70" height="30" rx="8" ry="8" x="405" y="214"/><text text-anchor="middle" fill="#333" x="440" y="234">15-10</text><g transform="translate(405,254)"></g></g><g><g transform="translate(485,204)"></g><rect fill="none" stroke="#DDD" width="70" height="30" rx="8" ry="8" x="485" y="214"/><text text-anchor="middle" fill="#333" x="520" y="234">15-12</text><g transform="translate(485,254)"></g></g><g><g transform="translate(565,204)"></g><rect fill="none" stroke="#DDD" width="70" height="30" rx="8" ry="8" x="565" y="214"/><text text-anchor="middle" fill="#333" x="600" y="234">15-12</text><g transform="translate(565,254)"></g></g><g><g transform="translate(645,204)"></g><rect fill="none" stroke="#DDD" width="70" height="30" rx="8" ry="8" x="645" y="214"/><text text-anchor="middle" fill="#333" x="680" y="234">16-01</text><g transform="translate(645,254)"></g></g><g><g transform="translate(725,204)"></g><rect fill="none" stroke="#DDD" width="70" height="30" rx="8" ry="8" x="725" y="214"/><text text-anchor="middle" fill="#333" x="760" y="234">16-03</text><g transform="translate(725,254)"></g></g><g><g transform="translate(805,204)"></g><rect fill="none" stroke="#DDD" width="70" height="30" rx="8" ry="8" x="805" y="214"/><text text-anchor="middle" fill="#333" x="840" y="234">16-03</text><g transform="translate(805,254)"></g></g><g><g transform="translate(885,204)"></g><rect fill="none" stroke="#DDD" width="70" height="30" rx="8" ry="8" x="885" y="214"/><text text-anchor="middle" fill="#333" x="920" y="234">16-05</text><g transform="translate(885,254)"></g></g><g><g transform="translate(965,204)"></g><rect fill="none" stroke="#DDD" width="70" height="30" rx="8" ry="8" x="965" y="214"/><text text-anchor="middle" fill="#333" x="1000" y="234">16-05</text><g transform="translate(965,254)"></g></g><g><g transform="translate(1045,204)"></g><rect fill="none" stroke="#DDD" width="70" height="30" rx="8" ry="8" x="1045" y="214"/><text text-anchor="middle" fill="#333" x="1080" y="234">16-07</text><g transform="translate(1045,254)"></g></g><g><g transform="translate(1125,204)"></g><rect fill="none" stroke="#DDD" width="70" height="30" rx="8" ry="8" x="1125" y="214"/><text text-anchor="middle" fill="#333" x="1160" y="234">16-07</text><g transform="translate(1125,254)"></g></g><g><g transform="translate(1205,204)"></g><rect fill="none" stroke="#DDD" width="70" height="30" rx="8" ry="8" x="1205" y="214"/><text text-anchor="middle" fill="#333" x="1240" y="234">16-08</text><g transform="translate(1205,254)"></g></g></svg>