<svg xmlns="http://www.w3.org/2000/svg" xmlns:xlink="http://www.w3.org/1999/xlink" width="100%" height="100%" viewBox="0 0 1280 459"><g><g transform="translate(5,160)"></g><rect fill="none" stroke="#DDD" width="70" height="30" rx="8" ry="8" x="5" y="170"/><text text-anchor="middle" fill="#333" x="40" y="190">14-01</text><g transform="translate(5,210)"></g></g><g><g transform="translate(85,160)"></g><rect fill="none" stroke="#DDD" width="70" height="30" rx="8" ry="8" x="85" y="170"/><text text-anchor="middle" fill="#333" x="120" y="190">14-03</text><g transform="translate(85,210)"></g></g><g><g transform="translate(165,160)"></g><rect fill="none" stroke="#DDD" width="70" height="30" rx="8" ry="8" x="165" y="170"/><text text-anchor="middle" fill="#333" x="200" y="190">14-04</text><g transform="translate(165,210)"></g></g><g><g transform="translate(245,160)"></g><rect fill="none" stroke="#DDD" width="70" height="30" rx="8" ry="8" x="245" y="170"/><text text-anchor="middle" fill="#333" x="280" y="190">14-05</text><g transform="translate(245,210)"></g></g><g><g transform="translate(325,160)"></g><rect fill="none" stroke="#DDD" width="70" height="30" rx="8" ry="8" x="325" y="170"/><text text-anchor="middle" fill="#333" x="360" y="190">14-06</text><g transform="translate(325,210)"></g></g><g><g transform="translate(405,160)"></g><rect fill="none" stroke="#DDD" width="70" height="30" rx="8" ry="8" x="405" y="170"/><text text-anchor="middle" fill="#333" x="440" y="190">14-07</text><g transform="translate(405,210)"></g></g><g><g transform="translate(485,160)"><g><a target="_top" xlink:href="dtp-sliceTagVioGor7260-step2628000-ofs19-col25-cat0.html"><rect style="display:none" class="hcell-act-col25-cat0" fill="#777" stroke="#000" stroke-width="5" width="70" height="40" x="0" y="-45" rx="8" ry="8"/><rect class="hcell-col25-cat0" fill="#777" stroke="#DDD" width="70" height="50" x="0" y="-50" rx="8" ry="8"/><text text-anchor="middle" fill="#FFF" x="35" y="-30">12</text></a></g></g><rect fill="none" stroke="#DDD" width="70" height="30" rx="8" ry="8" x="485" y="170"/><text text-anchor="middle" fill="#333" x="520" y="190">14-08</text><g transform="translate(485,210)"></g></g><g><g transform="translate(565,160)"></g><rect fill="none" stroke="#DDD" width="70" height="30" rx="8" ry="8" x="565" y="170"/><text text-anchor="middle" fill="#333" x="600" y="190">14-08</text><g transform="translate(565,210)"><g><a target="_top" xlink:href="dtp-sliceTagVioGor7260-step2628000-ofs19-col26-cat0.html"><rect style="display:none" class="hcell-act-col26-cat0" fill="#777" stroke="#000" stroke-width="5" width="70" height="20" x="0" y="5" rx="8" ry="8"/><rect class="hcell-col26-cat0" fill="#777" stroke="#DDD" width="70" height="30" x="0" y="0" rx="8" ry="8"/><text text-anchor="middle" fill="#FFF" x="35" y="20">-7</text></a></g></g></g><g><g transform="translate(645,160)"><g><a target="_top" xlink:href="dtp-sliceTagVioGor7260-step2628000-ofs19-col27-cat0.html"><rect style="display:none" class="hcell-act-col27-cat0" fill="#777" stroke="#000" stroke-width="5" width="70" height="44" x="0" y="-49" rx="8" ry="8"/><rect class="hcell-col27-cat0" fill="#777" stroke="#DDD" width="70" height="54" x="0" y="-54" rx="8" ry="8"/><text text-anchor="middle" fill="#FFF" x="35" y="-34">13</text></a></g></g><rect fill="none" stroke="#DDD" width="70" height="30" rx="8" ry="8" x="645" y="170"/><text text-anchor="middle" fill="#333" x="680" y="190">14-10</text><g transform="translate(645,210)"></g></g><g><g transform="translate(725,160)"><g><a target="_top" xlink:href="dtp-sliceTagVioGor7260-step2628000-ofs19-col28-cat0.html"><rect style="display:none" class="hcell-act-col28-cat0" fill="#777" stroke="#000" stroke-width="5" width="70" height="145" x="0" y="-150" rx="8" ry="8"/><rect class="hcell-col28-cat0" fill="#777" stroke="#DDD" width="70" height="155" x="0" y="-155" rx="8" ry="8"/><text text-anchor="middle" fill="#FFF" x="35" y="-135">37</text></a></g></g><rect fill="none" stroke="#DDD" width="70" height="30" rx="8" ry="8" x="725" y="170"/><text text-anchor="middle" fill="#333" x="760" y="190">14-10</text><g transform="translate(725,210)"></g></g><g><g transform="translate(805,160)"></g><rect fill="none" stroke="#DDD" width="70" height="30" rx="8" ry="8" x="805" y="170"/><text text-anchor="middle" fill="#333" x="840" y="190">14-12</text><g transform="translate(805,210)"><g><a target="_top" xlink:href="dtp-sliceTagVioGor7260-step2628000-ofs19-col29-cat0.html"><rect style="display:none" class="hcell-act-col29-cat0" fill="#777" stroke="#000" stroke-width="5" width="70" height="93" x="0" y="5" rx="8" ry="8"/><rect class="hcell-col29-cat0" fill="#777" stroke="#DDD" width="70" height="103" x="0" y="0" rx="8" ry="8"/><text text-anchor="middle" fill="#FFF" x="35" y="20">-25</text></a></g></g></g><g><g transform="translate(885,160)"></g><rect fill="none" stroke="#DDD" width="70" height="30" rx="8" ry="8" x="885" y="170"/><text text-anchor="middle" fill="#333" x="920" y="190">14-12</text><g transform="translate(885,210)"></g></g><g><g transform="translate(965,160)"><g><a target="_top" xlink:href="dtp-sliceTagVioGor7260-step2628000-ofs19-col31-cat0.html"><rect style="display:none" class="hcell-act-col31-cat0" fill="#777" stroke="#000" stroke-width="5" width="70" height="31" x="0" y="-36" rx="8" ry="8"/><rect class="hcell-col31-cat0" fill="#777" stroke="#DDD" width="70" height="41" x="0" y="-41" rx="8" ry="8"/><text text-anchor="middle" fill="#FFF" x="35" y="-21">9</text></a></g></g><rect fill="none" stroke="#DDD" width="70" height="30" rx="8" ry="8" x="965" y="170"/><text text-anchor="middle" fill="#333" x="1000" y="190">15-01</text><g transform="translate(965,210)"></g></g><g><g transform="translate(1045,160)"></g><rect fill="none" stroke="#DDD" width="70" height="30" rx="8" ry="8" x="1045" y="170"/><text text-anchor="middle" fill="#333" x="1080" y="190">15-03</text><g transform="translate(1045,210)"></g></g><g><g transform="translate(1125,160)"></g><rect fill="none" stroke="#DDD" width="70" height="30" rx="8" ry="8" x="1125" y="170"/><text text-anchor="middle" fill="#333" x="1160" y="190">15-04</text><g transform="translate(1125,210)"><g><a target="_top" xlink:href="dtp-sliceTagVioGor7260-step2628000-ofs19-col33-cat0.html"><rect style="display:none" class="hcell-act-col33-cat0" fill="#777" stroke="#000" stroke-width="5" width="70" height="234" x="0" y="5" rx="8" ry="8"/><rect class="hcell-col33-cat0" fill="#777" stroke="#DDD" width="70" height="244" x="0" y="0" rx="8" ry="8"/><text text-anchor="middle" fill="#FFF" x="35" y="20">-59</text></a></g></g></g><g><g transform="translate(1205,160)"></g><rect fill="none" stroke="#DDD" width="70" height="30" rx="8" ry="8" x="1205" y="170"/><text text-anchor="middle" fill="#333" x="1240" y="190">15-05</text><g transform="translate(1205,210)"></g></g></svg>