<svg xmlns="http://www.w3.org/2000/svg" xmlns:xlink="http://www.w3.org/1999/xlink" width="100%" height="100%" viewBox="0 0 1280 508"><g><g transform="translate(5,453)"><g><a target="_top" xlink:href="dtp-slice0-step5605201-ofs16-col16-cat5.html"><rect style="display:none" class="hcell-act-col16-cat5" fill="#777" stroke="#000" stroke-width="5" width="70" height="20" x="0" y="-25" rx="8" ry="8"/><rect class="hcell-col16-cat5" fill="#777" stroke="#DDD" width="70" height="30" x="0" y="-30" rx="8" ry="8"/><text text-anchor="middle" fill="#FFF" x="35" y="-10">40</text></a><g transform="translate(0,-30)"><g><a target="_top" xlink:href="dtp-slice0-step5605201-ofs16-col16-cat3.html"><rect style="display:none" class="hcell-act-col16-cat3" fill="#5BC0DE" stroke="#000" stroke-width="5" width="70" height="20" x="0" y="-25" rx="8" ry="8"/><rect class="hcell-col16-cat3" fill="#5BC0DE" stroke="#DDD" width="70" height="30" x="0" y="-30" rx="8" ry="8"/><text text-anchor="middle" fill="#FFF" x="35" y="-10">160</text></a><g transform="translate(0,-30)"><g><a target="_top" xlink:href="dtp-slice0-step5605201-ofs16-col16-cat4.html"><rect style="display:none" class="hcell-act-col16-cat4" fill="#337AB7" stroke="#000" stroke-width="5" width="70" height="25" x="0" y="-30" rx="8" ry="8"/><rect class="hcell-col16-cat4" fill="#337AB7" stroke="#DDD" width="70" height="35" x="0" y="-35" rx="8" ry="8"/><text text-anchor="middle" fill="#FFF" x="35" y="-15">620</text></a><g transform="translate(0,-35)"><g><a target="_top" xlink:href="dtp-slice0-step5605201-ofs16-col16-cat2.html"><rect style="display:none" class="hcell-act-col16-cat2" fill="#5CB85C" stroke="#000" stroke-width="5" width="70" height="26" x="0" y="-31" rx="8" ry="8"/><rect class="hcell-col16-cat2" fill="#5CB85C" stroke="#DDD" width="70" height="36" x="0" y="-36" rx="8" ry="8"/><text text-anchor="middle" fill="#FFF" x="35" y="-16">640</text></a><g transform="translate(0,-36)"><g><a target="_top" xlink:href="dtp-slice0-step5605201-ofs16-col16-cat1.html"><rect style="display:none" class="hcell-act-col16-cat1" fill="#F0AD4E" stroke="#000" stroke-width="5" width="70" height="69" x="0" y="-74" rx="8" ry="8"/><rect class="hcell-col16-cat1" fill="#F0AD4E" stroke="#DDD" width="70" height="79" x="0" y="-79" rx="8" ry="8"/><text text-anchor="middle" fill="#FFF" x="35" y="-59">1400</text></a><g transform="translate(0,-79)"><g><a target="_top" xlink:href="dtp-slice0-step5605201-ofs16-col16-cat0.html"><rect style="display:none" class="hcell-act-col16-cat0" fill="#D9534F" stroke="#000" stroke-width="5" width="70" height="228" x="0" y="-233" rx="8" ry="8"/><rect class="hcell-col16-cat0" fill="#D9534F" stroke="#DDD" width="70" height="238" x="0" y="-238" rx="8" ry="8"/><text text-anchor="middle" fill="#FFF" x="35" y="-218">4220</text></a></g></g></g></g></g></g></g></g></g></g></g></g><rect fill="none" stroke="#DDD" width="70" height="30" rx="8" ry="8" x="5" y="463"/><text text-anchor="middle" fill="#333" x="40" y="483">15-05</text><g transform="translate(5,503)"></g></g><g><g transform="translate(85,453)"><g><a target="_top" xlink:href="dtp-slice0-step5605201-ofs16-col17-cat0.html"><rect style="display:none" class="hcell-act-col17-cat0" fill="#D9534F" stroke="#000" stroke-width="5" width="70" height="57" x="0" y="-62" rx="8" ry="8"/><rect class="hcell-col17-cat0" fill="#D9534F" stroke="#DDD" width="70" height="67" x="0" y="-67" rx="8" ry="8"/><text text-anchor="middle" fill="#FFF" x="35" y="-47">1200</text></a></g></g><rect fill="none" stroke="#DDD" width="70" height="30" rx="8" ry="8" x="85" y="463"/><text text-anchor="middle" fill="#333" x="120" y="483">15-07</text><g transform="translate(85,503)"></g></g><g><g transform="translate(165,453)"></g><rect fill="none" stroke="#DDD" width="70" height="30" rx="8" ry="8" x="165" y="463"/><text text-anchor="middle" fill="#333" x="200" y="483">15-09</text><g transform="translate(165,503)"></g></g><g><g transform="translate(245,453)"></g><rect fill="none" stroke="#DDD" width="70" height="30" rx="8" ry="8" x="245" y="463"/><text text-anchor="middle" fill="#333" x="280" y="483">15-11</text><g transform="translate(245,503)"></g></g><g><g transform="translate(325,453)"></g><rect fill="none" stroke="#DDD" width="70" height="30" rx="8" ry="8" x="325" y="463"/><text text-anchor="middle" fill="#333" x="360" y="483">16-01</text><g transform="translate(325,503)"></g></g><g><g transform="translate(405,453)"></g><rect fill="none" stroke="#DDD" width="70" height="30" rx="8" ry="8" x="405" y="463"/><text text-anchor="middle" fill="#333" x="440" y="483">16-03</text><g transform="translate(405,503)"></g></g><g><g transform="translate(485,453)"></g><rect fill="none" stroke="#DDD" width="70" height="30" rx="8" ry="8" x="485" y="463"/><text text-anchor="middle" fill="#333" x="520" y="483">16-05</text><g transform="translate(485,503)"></g></g><g><g transform="translate(565,453)"></g><rect fill="none" stroke="#DDD" width="70" height="30" rx="8" ry="8" x="565" y="463"/><text text-anchor="middle" fill="#333" x="600" y="483">16-08</text><g transform="translate(565,503)"></g></g><g><g transform="translate(645,453)"></g><rect fill="none" stroke="#DDD" width="70" height="30" rx="8" ry="8" x="645" y="463"/><text text-anchor="middle" fill="#333" x="680" y="483">16-10</text><g transform="translate(645,503)"></g></g><g><g transform="translate(725,453)"></g><rect fill="none" stroke="#DDD" width="70" height="30" rx="8" ry="8" x="725" y="463"/><text text-anchor="middle" fill="#333" x="760" y="483">16-12</text><g transform="translate(725,503)"></g></g><g><g transform="translate(805,453)"></g><rect fill="none" stroke="#DDD" width="70" height="30" rx="8" ry="8" x="805" y="463"/><text text-anchor="middle" fill="#333" x="840" y="483">17-02</text><g transform="translate(805,503)"></g></g><g><g transform="translate(885,453)"></g><rect fill="none" stroke="#DDD" width="70" height="30" rx="8" ry="8" x="885" y="463"/><text text-anchor="middle" fill="#333" x="920" y="483">17-04</text><g transform="translate(885,503)"></g></g><g><g transform="translate(965,453)"></g><rect fill="none" stroke="#DDD" width="70" height="30" rx="8" ry="8" x="965" y="463"/><text text-anchor="middle" fill="#333" x="1000" y="483">17-06</text><g transform="translate(965,503)"></g></g><g><g transform="translate(1045,453)"></g><rect fill="none" stroke="#DDD" width="70" height="30" rx="8" ry="8" x="1045" y="463"/><text text-anchor="middle" fill="#333" x="1080" y="483">17-08</text><g transform="translate(1045,503)"></g></g><g><g transform="translate(1125,453)"></g><rect fill="none" stroke="#DDD" width="70" height="30" rx="8" ry="8" x="1125" y="463"/><text text-anchor="middle" fill="#333" x="1160" y="483">17-10</text><g transform="translate(1125,503)"></g></g><g><g transform="translate(1205,453)"></g><rect fill="none" stroke="#DDD" width="70" height="30" rx="8" ry="8" x="1205" y="463"/><text text-anchor="middle" fill="#333" x="1240" y="483">18-01</text><g transform="translate(1205,503)"></g></g></svg>