<svg xmlns="http://www.w3.org/2000/svg" xmlns:xlink="http://www.w3.org/1999/xlink" width="100%" height="100%" viewBox="0 0 1280 459"><g><g transform="translate(5,158)"></g><rect fill="none" stroke="#DDD" width="70" height="30" rx="8" ry="8" x="5" y="168"/><text text-anchor="middle" fill="#333" x="40" y="188">12-07</text><g transform="translate(5,208)"></g></g><g><g transform="translate(85,158)"></g><rect fill="none" stroke="#DDD" width="70" height="30" rx="8" ry="8" x="85" y="168"/><text text-anchor="middle" fill="#333" x="120" y="188">12-09</text><g transform="translate(85,208)"></g></g><g><g transform="translate(165,158)"></g><rect fill="none" stroke="#DDD" width="70" height="30" rx="8" ry="8" x="165" y="168"/><text text-anchor="middle" fill="#333" x="200" y="188">12-11</text><g transform="translate(165,208)"></g></g><g><g transform="translate(245,158)"></g><rect fill="none" stroke="#DDD" width="70" height="30" rx="8" ry="8" x="245" y="168"/><text text-anchor="middle" fill="#333" x="280" y="188">13-01</text><g transform="translate(245,208)"></g></g><g><g transform="translate(325,158)"></g><rect fill="none" stroke="#DDD" width="70" height="30" rx="8" ry="8" x="325" y="168"/><text text-anchor="middle" fill="#333" x="360" y="188">13-03</text><g transform="translate(325,208)"></g></g><g><g transform="translate(405,158)"></g><rect fill="none" stroke="#DDD" width="70" height="30" rx="8" ry="8" x="405" y="168"/><text text-anchor="middle" fill="#333" x="440" y="188">13-05</text><g transform="translate(405,208)"></g></g><g><g transform="translate(485,158)"></g><rect fill="none" stroke="#DDD" width="70" height="30" rx="8" ry="8" x="485" y="168"/><text text-anchor="middle" fill="#333" x="520" y="188">13-07</text><g transform="translate(485,208)"></g></g><g><g transform="translate(565,158)"></g><rect fill="none" stroke="#DDD" width="70" height="30" rx="8" ry="8" x="565" y="168"/><text text-anchor="middle" fill="#333" x="600" y="188">13-09</text><g transform="translate(565,208)"></g></g><g><g transform="translate(645,158)"></g><rect fill="none" stroke="#DDD" width="70" height="30" rx="8" ry="8" x="645" y="168"/><text text-anchor="middle" fill="#333" x="680" y="188">13-12</text><g transform="translate(645,208)"></g></g><g><g transform="translate(725,158)"><g><a target="_top" xlink:href="dtp-sliceTagVioGorCard-step5605201-ofs0-col9-cat0.html"><rect style="display:none" class="hcell-act-col9-cat0" fill="#777" stroke="#000" stroke-width="5" width="70" height="109" x="0" y="-114" rx="8" ry="8"/><rect class="hcell-col9-cat0" fill="#777" stroke="#DDD" width="70" height="119" x="0" y="-119" rx="8" ry="8"/><text text-anchor="middle" fill="#FFF" x="35" y="-99">29</text></a></g></g><rect fill="none" stroke="#DDD" width="70" height="30" rx="8" ry="8" x="725" y="168"/><text text-anchor="middle" fill="#333" x="760" y="188">14-02</text><g transform="translate(725,208)"><g><a target="_top" xlink:href="dtp-sliceTagVioGorCard-step5605201-ofs0-col9-cat0.html"><rect style="display:none" class="hcell-act-col9-cat0" fill="#777" stroke="#000" stroke-width="5" width="70" height="30" x="0" y="5" rx="8" ry="8"/><rect class="hcell-col9-cat0" fill="#777" stroke="#DDD" width="70" height="40" x="0" y="0" rx="8" ry="8"/><text text-anchor="middle" fill="#FFF" x="35" y="20">-10</text></a></g></g></g><g><g transform="translate(805,158)"><g><a target="_top" xlink:href="dtp-sliceTagVioGorCard-step5605201-ofs0-col10-cat0.html"><rect style="display:none" class="hcell-act-col10-cat0" fill="#777" stroke="#000" stroke-width="5" width="70" height="143" x="0" y="-148" rx="8" ry="8"/><rect class="hcell-col10-cat0" fill="#777" stroke="#DDD" width="70" height="153" x="0" y="-153" rx="8" ry="8"/><text text-anchor="middle" fill="#FFF" x="35" y="-133">37</text></a></g></g><rect fill="none" stroke="#DDD" width="70" height="30" rx="8" ry="8" x="805" y="168"/><text text-anchor="middle" fill="#333" x="840" y="188">14-04</text><g transform="translate(805,208)"><g><a target="_top" xlink:href="dtp-sliceTagVioGorCard-step5605201-ofs0-col10-cat0.html"><rect style="display:none" class="hcell-act-col10-cat0" fill="#777" stroke="#000" stroke-width="5" width="70" height="20" x="0" y="5" rx="8" ry="8"/><rect class="hcell-col10-cat0" fill="#777" stroke="#DDD" width="70" height="30" x="0" y="0" rx="8" ry="8"/><text text-anchor="middle" fill="#FFF" x="35" y="20">-4</text></a></g></g></g><g><g transform="translate(885,158)"><g><a target="_top" xlink:href="dtp-sliceTagVioGorCard-step5605201-ofs0-col11-cat0.html"><rect style="display:none" class="hcell-act-col11-cat0" fill="#777" stroke="#000" stroke-width="5" width="70" height="52" x="0" y="-57" rx="8" ry="8"/><rect class="hcell-col11-cat0" fill="#777" stroke="#DDD" width="70" height="62" x="0" y="-62" rx="8" ry="8"/><text text-anchor="middle" fill="#FFF" x="35" y="-42">15</text></a></g></g><rect fill="none" stroke="#DDD" width="70" height="30" rx="8" ry="8" x="885" y="168"/><text text-anchor="middle" fill="#333" x="920" y="188">14-06</text><g transform="translate(885,208)"><g><a target="_top" xlink:href="dtp-sliceTagVioGorCard-step5605201-ofs0-col11-cat0.html"><rect style="display:none" class="hcell-act-col11-cat0" fill="#777" stroke="#000" stroke-width="5" width="70" height="236" x="0" y="5" rx="8" ry="8"/><rect class="hcell-col11-cat0" fill="#777" stroke="#DDD" width="70" height="246" x="0" y="0" rx="8" ry="8"/><text text-anchor="middle" fill="#FFF" x="35" y="20">-60</text></a></g></g></g><g><g transform="translate(965,158)"></g><rect fill="none" stroke="#DDD" width="70" height="30" rx="8" ry="8" x="965" y="168"/><text text-anchor="middle" fill="#333" x="1000" y="188">14-08</text><g transform="translate(965,208)"></g></g><g><g transform="translate(1045,158)"></g><rect fill="none" stroke="#DDD" width="70" height="30" rx="8" ry="8" x="1045" y="168"/><text text-anchor="middle" fill="#333" x="1080" y="188">14-10</text><g transform="translate(1045,208)"></g></g><g><g transform="translate(1125,158)"></g><rect fill="none" stroke="#DDD" width="70" height="30" rx="8" ry="8" x="1125" y="168"/><text text-anchor="middle" fill="#333" x="1160" y="188">14-12</text><g transform="translate(1125,208)"></g></g><g><g transform="translate(1205,158)"></g><rect fill="none" stroke="#DDD" width="70" height="30" rx="8" ry="8" x="1205" y="168"/><text text-anchor="middle" fill="#333" x="1240" y="188">15-03</text><g transform="translate(1205,208)"></g></g></svg>