<svg xmlns="http://www.w3.org/2000/svg" xmlns:xlink="http://www.w3.org/1999/xlink" width="100%" height="100%" viewBox="0 0 1280 459"><g><g transform="translate(5,174)"><g><a target="_top" xlink:href="dtp-sliceTagAsset-step5605201-ofs16-col16-cat0.html"><rect style="display:none" class="hcell-act-col16-cat0" fill="#777" stroke="#000" stroke-width="5" width="70" height="159" x="0" y="-164" rx="8" ry="8"/><rect class="hcell-col16-cat0" fill="#777" stroke="#DDD" width="70" height="169" x="0" y="-169" rx="8" ry="8"/><text text-anchor="middle" fill="#FFF" x="35" y="-149">5200</text></a></g></g><rect fill="none" stroke="#DDD" width="70" height="30" rx="8" ry="8" x="5" y="184"/><text text-anchor="middle" fill="#333" x="40" y="204">15-05</text><g transform="translate(5,224)"><g><a target="_top" xlink:href="dtp-sliceTagAsset-step5605201-ofs16-col16-cat0.html"><rect style="display:none" class="hcell-act-col16-cat0" fill="#777" stroke="#000" stroke-width="5" width="70" height="220" x="0" y="5" rx="8" ry="8"/><rect class="hcell-col16-cat0" fill="#777" stroke="#DDD" width="70" height="230" x="0" y="0" rx="8" ry="8"/><text text-anchor="middle" fill="#FFF" x="35" y="20">-7080</text></a></g></g></g><g><g transform="translate(85,174)"></g><rect fill="none" stroke="#DDD" width="70" height="30" rx="8" ry="8" x="85" y="184"/><text text-anchor="middle" fill="#333" x="120" y="204">15-07</text><g transform="translate(85,224)"><g><a target="_top" xlink:href="dtp-sliceTagAsset-step5605201-ofs16-col17-cat0.html"><rect style="display:none" class="hcell-act-col17-cat0" fill="#777" stroke="#000" stroke-width="5" width="70" height="29" x="0" y="5" rx="8" ry="8"/><rect class="hcell-col17-cat0" fill="#777" stroke="#DDD" width="70" height="39" x="0" y="0" rx="8" ry="8"/><text text-anchor="middle" fill="#FFF" x="35" y="20">-1200</text></a></g></g></g><g><g transform="translate(165,174)"></g><rect fill="none" stroke="#DDD" width="70" height="30" rx="8" ry="8" x="165" y="184"/><text text-anchor="middle" fill="#333" x="200" y="204">15-09</text><g transform="translate(165,224)"></g></g><g><g transform="translate(245,174)"></g><rect fill="none" stroke="#DDD" width="70" height="30" rx="8" ry="8" x="245" y="184"/><text text-anchor="middle" fill="#333" x="280" y="204">15-11</text><g transform="translate(245,224)"></g></g><g><g transform="translate(325,174)"></g><rect fill="none" stroke="#DDD" width="70" height="30" rx="8" ry="8" x="325" y="184"/><text text-anchor="middle" fill="#333" x="360" y="204">16-01</text><g transform="translate(325,224)"></g></g><g><g transform="translate(405,174)"></g><rect fill="none" stroke="#DDD" width="70" height="30" rx="8" ry="8" x="405" y="184"/><text text-anchor="middle" fill="#333" x="440" y="204">16-03</text><g transform="translate(405,224)"></g></g><g><g transform="translate(485,174)"></g><rect fill="none" stroke="#DDD" width="70" height="30" rx="8" ry="8" x="485" y="184"/><text text-anchor="middle" fill="#333" x="520" y="204">16-05</text><g transform="translate(485,224)"></g></g><g><g transform="translate(565,174)"></g><rect fill="none" stroke="#DDD" width="70" height="30" rx="8" ry="8" x="565" y="184"/><text text-anchor="middle" fill="#333" x="600" y="204">16-08</text><g transform="translate(565,224)"></g></g><g><g transform="translate(645,174)"></g><rect fill="none" stroke="#DDD" width="70" height="30" rx="8" ry="8" x="645" y="184"/><text text-anchor="middle" fill="#333" x="680" y="204">16-10</text><g transform="translate(645,224)"></g></g><g><g transform="translate(725,174)"></g><rect fill="none" stroke="#DDD" width="70" height="30" rx="8" ry="8" x="725" y="184"/><text text-anchor="middle" fill="#333" x="760" y="204">16-12</text><g transform="translate(725,224)"></g></g><g><g transform="translate(805,174)"></g><rect fill="none" stroke="#DDD" width="70" height="30" rx="8" ry="8" x="805" y="184"/><text text-anchor="middle" fill="#333" x="840" y="204">17-02</text><g transform="translate(805,224)"></g></g><g><g transform="translate(885,174)"></g><rect fill="none" stroke="#DDD" width="70" height="30" rx="8" ry="8" x="885" y="184"/><text text-anchor="middle" fill="#333" x="920" y="204">17-04</text><g transform="translate(885,224)"></g></g><g><g transform="translate(965,174)"></g><rect fill="none" stroke="#DDD" width="70" height="30" rx="8" ry="8" x="965" y="184"/><text text-anchor="middle" fill="#333" x="1000" y="204">17-06</text><g transform="translate(965,224)"></g></g><g><g transform="translate(1045,174)"></g><rect fill="none" stroke="#DDD" width="70" height="30" rx="8" ry="8" x="1045" y="184"/><text text-anchor="middle" fill="#333" x="1080" y="204">17-08</text><g transform="translate(1045,224)"></g></g><g><g transform="translate(1125,174)"></g><rect fill="none" stroke="#DDD" width="70" height="30" rx="8" ry="8" x="1125" y="184"/><text text-anchor="middle" fill="#333" x="1160" y="204">17-10</text><g transform="translate(1125,224)"></g></g><g><g transform="translate(1205,174)"></g><rect fill="none" stroke="#DDD" width="70" height="30" rx="8" ry="8" x="1205" y="184"/><text text-anchor="middle" fill="#333" x="1240" y="204">18-01</text><g transform="translate(1205,224)"></g></g></svg>