<svg xmlns="http://www.w3.org/2000/svg" xmlns:xlink="http://www.w3.org/1999/xlink" width="100%" height="100%" viewBox="0 0 1280 459"><g><g transform="translate(5,79)"></g><rect fill="none" stroke="#DDD" width="70" height="30" rx="8" ry="8" x="5" y="89"/><text text-anchor="middle" fill="#333" x="40" y="109">12-07</text><g transform="translate(5,129)"></g></g><g><g transform="translate(85,79)"></g><rect fill="none" stroke="#DDD" width="70" height="30" rx="8" ry="8" x="85" y="89"/><text text-anchor="middle" fill="#333" x="120" y="109">12-09</text><g transform="translate(85,129)"></g></g><g><g transform="translate(165,79)"></g><rect fill="none" stroke="#DDD" width="70" height="30" rx="8" ry="8" x="165" y="89"/><text text-anchor="middle" fill="#333" x="200" y="109">12-11</text><g transform="translate(165,129)"></g></g><g><g transform="translate(245,79)"></g><rect fill="none" stroke="#DDD" width="70" height="30" rx="8" ry="8" x="245" y="89"/><text text-anchor="middle" fill="#333" x="280" y="109">13-01</text><g transform="translate(245,129)"></g></g><g><g transform="translate(325,79)"></g><rect fill="none" stroke="#DDD" width="70" height="30" rx="8" ry="8" x="325" y="89"/><text text-anchor="middle" fill="#333" x="360" y="109">13-03</text><g transform="translate(325,129)"></g></g><g><g transform="translate(405,79)"></g><rect fill="none" stroke="#DDD" width="70" height="30" rx="8" ry="8" x="405" y="89"/><text text-anchor="middle" fill="#333" x="440" y="109">13-05</text><g transform="translate(405,129)"></g></g><g><g transform="translate(485,79)"></g><rect fill="none" stroke="#DDD" width="70" height="30" rx="8" ry="8" x="485" y="89"/><text text-anchor="middle" fill="#333" x="520" y="109">13-07</text><g transform="translate(485,129)"></g></g><g><g transform="translate(565,79)"></g><rect fill="none" stroke="#DDD" width="70" height="30" rx="8" ry="8" x="565" y="89"/><text text-anchor="middle" fill="#333" x="600" y="109">13-09</text><g transform="translate(565,129)"></g></g><g><g transform="translate(645,79)"></g><rect fill="none" stroke="#DDD" width="70" height="30" rx="8" ry="8" x="645" y="89"/><text text-anchor="middle" fill="#333" x="680" y="109">13-12</text><g transform="translate(645,129)"></g></g><g><g transform="translate(725,79)"></g><rect fill="none" stroke="#DDD" width="70" height="30" rx="8" ry="8" x="725" y="89"/><text text-anchor="middle" fill="#333" x="760" y="109">14-02</text><g transform="translate(725,129)"></g></g><g><g transform="translate(805,79)"></g><rect fill="none" stroke="#DDD" width="70" height="30" rx="8" ry="8" x="805" y="89"/><text text-anchor="middle" fill="#333" x="840" y="109">14-04</text><g transform="translate(805,129)"></g></g><g><g transform="translate(885,79)"></g><rect fill="none" stroke="#DDD" width="70" height="30" rx="8" ry="8" x="885" y="89"/><text text-anchor="middle" fill="#333" x="920" y="109">14-06</text><g transform="translate(885,129)"><g><a target="_top" xlink:href="dtp-sliceTagHousehold-step5605201-ofs0-col11-cat0.html"><rect style="display:none" class="hcell-act-col11-cat0" fill="#777" stroke="#000" stroke-width="5" width="70" height="60" x="0" y="5" rx="8" ry="8"/><rect class="hcell-col11-cat0" fill="#777" stroke="#DDD" width="70" height="70" x="0" y="0" rx="8" ry="8"/><text text-anchor="middle" fill="#FFF" x="35" y="20">-25</text></a></g></g></g><g><g transform="translate(965,79)"></g><rect fill="none" stroke="#DDD" width="70" height="30" rx="8" ry="8" x="965" y="89"/><text text-anchor="middle" fill="#333" x="1000" y="109">14-08</text><g transform="translate(965,129)"><g><a target="_top" xlink:href="dtp-sliceTagHousehold-step5605201-ofs0-col12-cat0.html"><rect style="display:none" class="hcell-act-col12-cat0" fill="#777" stroke="#000" stroke-width="5" width="70" height="31" x="0" y="5" rx="8" ry="8"/><rect class="hcell-col12-cat0" fill="#777" stroke="#DDD" width="70" height="41" x="0" y="0" rx="8" ry="8"/><text text-anchor="middle" fill="#FFF" x="35" y="20">-15</text></a></g></g></g><g><g transform="translate(1045,79)"><g><a target="_top" xlink:href="dtp-sliceTagHousehold-step5605201-ofs0-col13-cat0.html"><rect style="display:none" class="hcell-act-col13-cat0" fill="#777" stroke="#000" stroke-width="5" width="70" height="20" x="0" y="-25" rx="8" ry="8"/><rect class="hcell-col13-cat0" fill="#777" stroke="#DDD" width="70" height="30" x="0" y="-30" rx="8" ry="8"/><text text-anchor="middle" fill="#FFF" x="35" y="-10">5</text></a></g></g><rect fill="none" stroke="#DDD" width="70" height="30" rx="8" ry="8" x="1045" y="89"/><text text-anchor="middle" fill="#333" x="1080" y="109">14-10</text><g transform="translate(1045,129)"></g></g><g><g transform="translate(1125,79)"><g><a target="_top" xlink:href="dtp-sliceTagHousehold-step5605201-ofs0-col14-cat0.html"><rect style="display:none" class="hcell-act-col14-cat0" fill="#777" stroke="#000" stroke-width="5" width="70" height="64" x="0" y="-69" rx="8" ry="8"/><rect class="hcell-col14-cat0" fill="#777" stroke="#DDD" width="70" height="74" x="0" y="-74" rx="8" ry="8"/><text text-anchor="middle" fill="#FFF" x="35" y="-54">26</text></a></g></g><rect fill="none" stroke="#DDD" width="70" height="30" rx="8" ry="8" x="1125" y="89"/><text text-anchor="middle" fill="#333" x="1160" y="109">14-12</text><g transform="translate(1125,129)"></g></g><g><g transform="translate(1205,79)"></g><rect fill="none" stroke="#DDD" width="70" height="30" rx="8" ry="8" x="1205" y="89"/><text text-anchor="middle" fill="#333" x="1240" y="109">15-03</text><g transform="translate(1205,129)"><g><a target="_top" xlink:href="dtp-sliceTagHousehold-step5605201-ofs0-col15-cat0.html"><rect style="display:none" class="hcell-act-col15-cat0" fill="#777" stroke="#000" stroke-width="5" width="70" height="315" x="0" y="5" rx="8" ry="8"/><rect class="hcell-col15-cat0" fill="#777" stroke="#DDD" width="70" height="325" x="0" y="0" rx="8" ry="8"/><text text-anchor="middle" fill="#FFF" x="35" y="20">-114</text></a></g></g></g></svg>