<svg xmlns="http://www.w3.org/2000/svg" xmlns:xlink="http://www.w3.org/1999/xlink" width="100%" height="100%" viewBox="0 0 1280 459"><g><g transform="translate(5,241)"><g><a target="_top" xlink:href="dtp-sliceTagMaster8385-step2628000-ofs19-col19-cat0.html"><rect style="display:none" class="hcell-act-col19-cat0" fill="#777" stroke="#000" stroke-width="5" width="70" height="226" x="0" y="-231" rx="8" ry="8"/><rect class="hcell-col19-cat0" fill="#777" stroke="#DDD" width="70" height="236" x="0" y="-236" rx="8" ry="8"/><text text-anchor="middle" fill="#FFF" x="35" y="-216">1838</text></a></g></g><rect fill="none" stroke="#DDD" width="70" height="30" rx="8" ry="8" x="5" y="251"/><text text-anchor="middle" fill="#333" x="40" y="271">14-01</text><g transform="translate(5,291)"><g><a target="_top" xlink:href="dtp-sliceTagMaster8385-step2628000-ofs19-col19-cat0.html"><rect style="display:none" class="hcell-act-col19-cat0" fill="#777" stroke="#000" stroke-width="5" width="70" height="30" x="0" y="5" rx="8" ry="8"/><rect class="hcell-col19-cat0" fill="#777" stroke="#DDD" width="70" height="40" x="0" y="0" rx="8" ry="8"/><text text-anchor="middle" fill="#FFF" x="35" y="20">-317</text></a></g></g></g><g><g transform="translate(85,241)"><g><a target="_top" xlink:href="dtp-sliceTagMaster8385-step2628000-ofs19-col20-cat0.html"><rect style="display:none" class="hcell-act-col20-cat0" fill="#777" stroke="#000" stroke-width="5" width="70" height="213" x="0" y="-218" rx="8" ry="8"/><rect class="hcell-col20-cat0" fill="#777" stroke="#DDD" width="70" height="223" x="0" y="-223" rx="8" ry="8"/><text text-anchor="middle" fill="#FFF" x="35" y="-203">1734</text></a></g></g><rect fill="none" stroke="#DDD" width="70" height="30" rx="8" ry="8" x="85" y="251"/><text text-anchor="middle" fill="#333" x="120" y="271">14-03</text><g transform="translate(85,291)"><g><a target="_top" xlink:href="dtp-sliceTagMaster8385-step2628000-ofs19-col20-cat0.html"><rect style="display:none" class="hcell-act-col20-cat0" fill="#777" stroke="#000" stroke-width="5" width="70" height="75" x="0" y="5" rx="8" ry="8"/><rect class="hcell-col20-cat0" fill="#777" stroke="#DDD" width="70" height="85" x="0" y="0" rx="8" ry="8"/><text text-anchor="middle" fill="#FFF" x="35" y="20">-668</text></a></g></g></g><g><g transform="translate(165,241)"></g><rect fill="none" stroke="#DDD" width="70" height="30" rx="8" ry="8" x="165" y="251"/><text text-anchor="middle" fill="#333" x="200" y="271">14-04</text><g transform="translate(165,291)"><g><a target="_top" xlink:href="dtp-sliceTagMaster8385-step2628000-ofs19-col21-cat0.html"><rect style="display:none" class="hcell-act-col21-cat0" fill="#777" stroke="#000" stroke-width="5" width="70" height="139" x="0" y="5" rx="8" ry="8"/><rect class="hcell-col21-cat0" fill="#777" stroke="#DDD" width="70" height="149" x="0" y="0" rx="8" ry="8"/><text text-anchor="middle" fill="#FFF" x="35" y="20">-1160</text></a></g></g></g><g><g transform="translate(245,241)"></g><rect fill="none" stroke="#DDD" width="70" height="30" rx="8" ry="8" x="245" y="251"/><text text-anchor="middle" fill="#333" x="280" y="271">14-05</text><g transform="translate(245,291)"><g><a target="_top" xlink:href="dtp-sliceTagMaster8385-step2628000-ofs19-col22-cat0.html"><rect style="display:none" class="hcell-act-col22-cat0" fill="#777" stroke="#000" stroke-width="5" width="70" height="112" x="0" y="5" rx="8" ry="8"/><rect class="hcell-col22-cat0" fill="#777" stroke="#DDD" width="70" height="122" x="0" y="0" rx="8" ry="8"/><text text-anchor="middle" fill="#FFF" x="35" y="20">-951</text></a></g></g></g><g><g transform="translate(325,241)"></g><rect fill="none" stroke="#DDD" width="70" height="30" rx="8" ry="8" x="325" y="251"/><text text-anchor="middle" fill="#333" x="360" y="271">14-06</text><g transform="translate(325,291)"><g><a target="_top" xlink:href="dtp-sliceTagMaster8385-step2628000-ofs19-col23-cat0.html"><rect style="display:none" class="hcell-act-col23-cat0" fill="#777" stroke="#000" stroke-width="5" width="70" height="153" x="0" y="5" rx="8" ry="8"/><rect class="hcell-col23-cat0" fill="#777" stroke="#DDD" width="70" height="163" x="0" y="0" rx="8" ry="8"/><text text-anchor="middle" fill="#FFF" x="35" y="20">-1269</text></a></g></g></g><g><g transform="translate(405,241)"><g><a target="_top" xlink:href="dtp-sliceTagMaster8385-step2628000-ofs19-col24-cat0.html"><rect style="display:none" class="hcell-act-col24-cat0" fill="#777" stroke="#000" stroke-width="5" width="70" height="20" x="0" y="-25" rx="8" ry="8"/><rect class="hcell-col24-cat0" fill="#777" stroke="#DDD" width="70" height="30" x="0" y="-30" rx="8" ry="8"/><text text-anchor="middle" fill="#FFF" x="35" y="-10">12</text></a></g></g><rect fill="none" stroke="#DDD" width="70" height="30" rx="8" ry="8" x="405" y="251"/><text text-anchor="middle" fill="#333" x="440" y="271">14-07</text><g transform="translate(405,291)"><g><a target="_top" xlink:href="dtp-sliceTagMaster8385-step2628000-ofs19-col24-cat0.html"><rect style="display:none" class="hcell-act-col24-cat0" fill="#777" stroke="#000" stroke-width="5" width="70" height="83" x="0" y="5" rx="8" ry="8"/><rect class="hcell-col24-cat0" fill="#777" stroke="#DDD" width="70" height="93" x="0" y="0" rx="8" ry="8"/><text text-anchor="middle" fill="#FFF" x="35" y="20">-724</text></a></g></g></g><g><g transform="translate(485,241)"></g><rect fill="none" stroke="#DDD" width="70" height="30" rx="8" ry="8" x="485" y="251"/><text text-anchor="middle" fill="#333" x="520" y="271">14-08</text><g transform="translate(485,291)"><g><a target="_top" xlink:href="dtp-sliceTagMaster8385-step2628000-ofs19-col25-cat0.html"><rect style="display:none" class="hcell-act-col25-cat0" fill="#777" stroke="#000" stroke-width="5" width="70" height="36" x="0" y="5" rx="8" ry="8"/><rect class="hcell-col25-cat0" fill="#777" stroke="#DDD" width="70" height="46" x="0" y="0" rx="8" ry="8"/><text text-anchor="middle" fill="#FFF" x="35" y="20">-360</text></a></g></g></g><g><g transform="translate(565,241)"><g><a target="_top" xlink:href="dtp-sliceTagMaster8385-step2628000-ofs19-col26-cat0.html"><rect style="display:none" class="hcell-act-col26-cat0" fill="#777" stroke="#000" stroke-width="5" width="70" height="208" x="0" y="-213" rx="8" ry="8"/><rect class="hcell-col26-cat0" fill="#777" stroke="#DDD" width="70" height="218" x="0" y="-218" rx="8" ry="8"/><text text-anchor="middle" fill="#FFF" x="35" y="-198">1696</text></a></g></g><rect fill="none" stroke="#DDD" width="70" height="30" rx="8" ry="8" x="565" y="251"/><text text-anchor="middle" fill="#333" x="600" y="271">14-08</text><g transform="translate(565,291)"><g><a target="_top" xlink:href="dtp-sliceTagMaster8385-step2628000-ofs19-col26-cat0.html"><rect style="display:none" class="hcell-act-col26-cat0" fill="#777" stroke="#000" stroke-width="5" width="70" height="63" x="0" y="5" rx="8" ry="8"/><rect class="hcell-col26-cat0" fill="#777" stroke="#DDD" width="70" height="73" x="0" y="0" rx="8" ry="8"/><text text-anchor="middle" fill="#FFF" x="35" y="20">-573</text></a></g></g></g><g><g transform="translate(645,241)"></g><rect fill="none" stroke="#DDD" width="70" height="30" rx="8" ry="8" x="645" y="251"/><text text-anchor="middle" fill="#333" x="680" y="271">14-10</text><g transform="translate(645,291)"><g><a target="_top" xlink:href="dtp-sliceTagMaster8385-step2628000-ofs19-col27-cat0.html"><rect style="display:none" class="hcell-act-col27-cat0" fill="#777" stroke="#000" stroke-width="5" width="70" height="50" x="0" y="5" rx="8" ry="8"/><rect class="hcell-col27-cat0" fill="#777" stroke="#DDD" width="70" height="60" x="0" y="0" rx="8" ry="8"/><text text-anchor="middle" fill="#FFF" x="35" y="20">-469</text></a></g></g></g><g><g transform="translate(725,241)"></g><rect fill="none" stroke="#DDD" width="70" height="30" rx="8" ry="8" x="725" y="251"/><text text-anchor="middle" fill="#333" x="760" y="271">14-10</text><g transform="translate(725,291)"><g><a target="_top" xlink:href="dtp-sliceTagMaster8385-step2628000-ofs19-col28-cat0.html"><rect style="display:none" class="hcell-act-col28-cat0" fill="#777" stroke="#000" stroke-width="5" width="70" height="39" x="0" y="5" rx="8" ry="8"/><rect class="hcell-col28-cat0" fill="#777" stroke="#DDD" width="70" height="49" x="0" y="0" rx="8" ry="8"/><text text-anchor="middle" fill="#FFF" x="35" y="20">-384</text></a></g></g></g><g><g transform="translate(805,241)"><g><a target="_top" xlink:href="dtp-sliceTagMaster8385-step2628000-ofs19-col29-cat0.html"><rect style="display:none" class="hcell-act-col29-cat0" fill="#777" stroke="#000" stroke-width="5" width="70" height="36" x="0" y="-41" rx="8" ry="8"/><rect class="hcell-col29-cat0" fill="#777" stroke="#DDD" width="70" height="46" x="0" y="-46" rx="8" ry="8"/><text text-anchor="middle" fill="#FFF" x="35" y="-26">363</text></a></g></g><rect fill="none" stroke="#DDD" width="70" height="30" rx="8" ry="8" x="805" y="251"/><text text-anchor="middle" fill="#333" x="840" y="271">14-12</text><g transform="translate(805,291)"><g><a target="_top" xlink:href="dtp-sliceTagMaster8385-step2628000-ofs19-col29-cat0.html"><rect style="display:none" class="hcell-act-col29-cat0" fill="#777" stroke="#000" stroke-width="5" width="70" height="118" x="0" y="5" rx="8" ry="8"/><rect class="hcell-col29-cat0" fill="#777" stroke="#DDD" width="70" height="128" x="0" y="0" rx="8" ry="8"/><text text-anchor="middle" fill="#FFF" x="35" y="20">-1001</text></a></g></g></g><g><g transform="translate(885,241)"><g><a target="_top" xlink:href="dtp-sliceTagMaster8385-step2628000-ofs19-col30-cat0.html"><rect style="display:none" class="hcell-act-col30-cat0" fill="#777" stroke="#000" stroke-width="5" width="70" height="68" x="0" y="-73" rx="8" ry="8"/><rect class="hcell-col30-cat0" fill="#777" stroke="#DDD" width="70" height="78" x="0" y="-78" rx="8" ry="8"/><text text-anchor="middle" fill="#FFF" x="35" y="-58">611</text></a></g></g><rect fill="none" stroke="#DDD" width="70" height="30" rx="8" ry="8" x="885" y="251"/><text text-anchor="middle" fill="#333" x="920" y="271">14-12</text><g transform="translate(885,291)"><g><a target="_top" xlink:href="dtp-sliceTagMaster8385-step2628000-ofs19-col30-cat0.html"><rect style="display:none" class="hcell-act-col30-cat0" fill="#777" stroke="#000" stroke-width="5" width="70" height="82" x="0" y="5" rx="8" ry="8"/><rect class="hcell-col30-cat0" fill="#777" stroke="#DDD" width="70" height="92" x="0" y="0" rx="8" ry="8"/><text text-anchor="middle" fill="#FFF" x="35" y="20">-719</text></a></g></g></g><g><g transform="translate(965,241)"><g><a target="_top" xlink:href="dtp-sliceTagMaster8385-step2628000-ofs19-col31-cat0.html"><rect style="display:none" class="hcell-act-col31-cat0" fill="#777" stroke="#000" stroke-width="5" width="70" height="35" x="0" y="-40" rx="8" ry="8"/><rect class="hcell-col31-cat0" fill="#777" stroke="#DDD" width="70" height="45" x="0" y="-45" rx="8" ry="8"/><text text-anchor="middle" fill="#FFF" x="35" y="-25">356</text></a></g></g><rect fill="none" stroke="#DDD" width="70" height="30" rx="8" ry="8" x="965" y="251"/><text text-anchor="middle" fill="#333" x="1000" y="271">15-01</text><g transform="translate(965,291)"><g><a target="_top" xlink:href="dtp-sliceTagMaster8385-step2628000-ofs19-col31-cat0.html"><rect style="display:none" class="hcell-act-col31-cat0" fill="#777" stroke="#000" stroke-width="5" width="70" height="111" x="0" y="5" rx="8" ry="8"/><rect class="hcell-col31-cat0" fill="#777" stroke="#DDD" width="70" height="121" x="0" y="0" rx="8" ry="8"/><text text-anchor="middle" fill="#FFF" x="35" y="20">-944</text></a></g></g></g><g><g transform="translate(1045,241)"><g><a target="_top" xlink:href="dtp-sliceTagMaster8385-step2628000-ofs19-col32-cat0.html"><rect style="display:none" class="hcell-act-col32-cat0" fill="#777" stroke="#000" stroke-width="5" width="70" height="191" x="0" y="-196" rx="8" ry="8"/><rect class="hcell-col32-cat0" fill="#777" stroke="#DDD" width="70" height="201" x="0" y="-201" rx="8" ry="8"/><text text-anchor="middle" fill="#FFF" x="35" y="-181">1565</text></a></g></g><rect fill="none" stroke="#DDD" width="70" height="30" rx="8" ry="8" x="1045" y="251"/><text text-anchor="middle" fill="#333" x="1080" y="271">15-03</text><g transform="translate(1045,291)"><g><a target="_top" xlink:href="dtp-sliceTagMaster8385-step2628000-ofs19-col32-cat0.html"><rect style="display:none" class="hcell-act-col32-cat0" fill="#777" stroke="#000" stroke-width="5" width="70" height="54" x="0" y="5" rx="8" ry="8"/><rect class="hcell-col32-cat0" fill="#777" stroke="#DDD" width="70" height="64" x="0" y="0" rx="8" ry="8"/><text text-anchor="middle" fill="#FFF" x="35" y="20">-500</text></a></g></g></g><g><g transform="translate(1125,241)"><g><a target="_top" xlink:href="dtp-sliceTagMaster8385-step2628000-ofs19-col33-cat0.html"><rect style="display:none" class="hcell-act-col33-cat0" fill="#777" stroke="#000" stroke-width="5" width="70" height="32" x="0" y="-37" rx="8" ry="8"/><rect class="hcell-col33-cat0" fill="#777" stroke="#DDD" width="70" height="42" x="0" y="-42" rx="8" ry="8"/><text text-anchor="middle" fill="#FFF" x="35" y="-22">330</text></a></g></g><rect fill="none" stroke="#DDD" width="70" height="30" rx="8" ry="8" x="1125" y="251"/><text text-anchor="middle" fill="#333" x="1160" y="271">15-04</text><g transform="translate(1125,291)"><g><a target="_top" xlink:href="dtp-sliceTagMaster8385-step2628000-ofs19-col33-cat0.html"><rect style="display:none" class="hcell-act-col33-cat0" fill="#777" stroke="#000" stroke-width="5" width="70" height="52" x="0" y="5" rx="8" ry="8"/><rect class="hcell-col33-cat0" fill="#777" stroke="#DDD" width="70" height="62" x="0" y="0" rx="8" ry="8"/><text text-anchor="middle" fill="#FFF" x="35" y="20">-488</text></a></g></g></g><g><g transform="translate(1205,241)"></g><rect fill="none" stroke="#DDD" width="70" height="30" rx="8" ry="8" x="1205" y="251"/><text text-anchor="middle" fill="#333" x="1240" y="271">15-05</text><g transform="translate(1205,291)"></g></g></svg>