<svg xmlns="http://www.w3.org/2000/svg" xmlns:xlink="http://www.w3.org/1999/xlink" width="100%" height="100%" viewBox="0 0 1280 459"><g><g transform="translate(5,206)"><g><a target="_top" xlink:href="dtp-sliceTagChecking1042-step2628000-ofs19-col19-cat0.html"><rect style="display:none" class="hcell-act-col19-cat0" fill="#777" stroke="#000" stroke-width="5" width="70" height="163" x="0" y="-168" rx="8" ry="8"/><rect class="hcell-col19-cat0" fill="#777" stroke="#DDD" width="70" height="173" x="0" y="-173" rx="8" ry="8"/><text text-anchor="middle" fill="#FFF" x="35" y="-153">3127</text></a></g></g><rect fill="none" stroke="#DDD" width="70" height="30" rx="8" ry="8" x="5" y="216"/><text text-anchor="middle" fill="#333" x="40" y="236">14-01</text><g transform="translate(5,256)"><g><a target="_top" xlink:href="dtp-sliceTagChecking1042-step2628000-ofs19-col19-cat0.html"><rect style="display:none" class="hcell-act-col19-cat0" fill="#777" stroke="#000" stroke-width="5" width="70" height="169" x="0" y="5" rx="8" ry="8"/><rect class="hcell-col19-cat0" fill="#777" stroke="#DDD" width="70" height="179" x="0" y="0" rx="8" ry="8"/><text text-anchor="middle" fill="#FFF" x="35" y="20">-3244</text></a></g></g></g><g><g transform="translate(85,206)"><g><a target="_top" xlink:href="dtp-sliceTagChecking1042-step2628000-ofs19-col20-cat0.html"><rect style="display:none" class="hcell-act-col20-cat0" fill="#777" stroke="#000" stroke-width="5" width="70" height="191" x="0" y="-196" rx="8" ry="8"/><rect class="hcell-col20-cat0" fill="#777" stroke="#DDD" width="70" height="201" x="0" y="-201" rx="8" ry="8"/><text text-anchor="middle" fill="#FFF" x="35" y="-181">3626</text></a></g></g><rect fill="none" stroke="#DDD" width="70" height="30" rx="8" ry="8" x="85" y="216"/><text text-anchor="middle" fill="#333" x="120" y="236">14-03</text><g transform="translate(85,256)"><g><a target="_top" xlink:href="dtp-sliceTagChecking1042-step2628000-ofs19-col20-cat0.html"><rect style="display:none" class="hcell-act-col20-cat0" fill="#777" stroke="#000" stroke-width="5" width="70" height="173" x="0" y="5" rx="8" ry="8"/><rect class="hcell-col20-cat0" fill="#777" stroke="#DDD" width="70" height="183" x="0" y="0" rx="8" ry="8"/><text text-anchor="middle" fill="#FFF" x="35" y="20">-3304</text></a></g></g></g><g><g transform="translate(165,206)"><g><a target="_top" xlink:href="dtp-sliceTagChecking1042-step2628000-ofs19-col21-cat0.html"><rect style="display:none" class="hcell-act-col21-cat0" fill="#777" stroke="#000" stroke-width="5" width="70" height="134" x="0" y="-139" rx="8" ry="8"/><rect class="hcell-col21-cat0" fill="#777" stroke="#DDD" width="70" height="144" x="0" y="-144" rx="8" ry="8"/><text text-anchor="middle" fill="#FFF" x="35" y="-124">2600</text></a></g></g><rect fill="none" stroke="#DDD" width="70" height="30" rx="8" ry="8" x="165" y="216"/><text text-anchor="middle" fill="#333" x="200" y="236">14-04</text><g transform="translate(165,256)"><g><a target="_top" xlink:href="dtp-sliceTagChecking1042-step2628000-ofs19-col21-cat0.html"><rect style="display:none" class="hcell-act-col21-cat0" fill="#777" stroke="#000" stroke-width="5" width="70" height="176" x="0" y="5" rx="8" ry="8"/><rect class="hcell-col21-cat0" fill="#777" stroke="#DDD" width="70" height="186" x="0" y="0" rx="8" ry="8"/><text text-anchor="middle" fill="#FFF" x="35" y="20">-3360</text></a></g></g></g><g><g transform="translate(245,206)"><g><a target="_top" xlink:href="dtp-sliceTagChecking1042-step2628000-ofs19-col22-cat0.html"><rect style="display:none" class="hcell-act-col22-cat0" fill="#777" stroke="#000" stroke-width="5" width="70" height="140" x="0" y="-145" rx="8" ry="8"/><rect class="hcell-col22-cat0" fill="#777" stroke="#DDD" width="70" height="150" x="0" y="-150" rx="8" ry="8"/><text text-anchor="middle" fill="#FFF" x="35" y="-130">2719</text></a></g></g><rect fill="none" stroke="#DDD" width="70" height="30" rx="8" ry="8" x="245" y="216"/><text text-anchor="middle" fill="#333" x="280" y="236">14-05</text><g transform="translate(245,256)"><g><a target="_top" xlink:href="dtp-sliceTagChecking1042-step2628000-ofs19-col22-cat0.html"><rect style="display:none" class="hcell-act-col22-cat0" fill="#777" stroke="#000" stroke-width="5" width="70" height="79" x="0" y="5" rx="8" ry="8"/><rect class="hcell-col22-cat0" fill="#777" stroke="#DDD" width="70" height="89" x="0" y="0" rx="8" ry="8"/><text text-anchor="middle" fill="#FFF" x="35" y="20">-1622</text></a></g></g></g><g><g transform="translate(325,206)"><g><a target="_top" xlink:href="dtp-sliceTagChecking1042-step2628000-ofs19-col23-cat0.html"><rect style="display:none" class="hcell-act-col23-cat0" fill="#777" stroke="#000" stroke-width="5" width="70" height="134" x="0" y="-139" rx="8" ry="8"/><rect class="hcell-col23-cat0" fill="#777" stroke="#DDD" width="70" height="144" x="0" y="-144" rx="8" ry="8"/><text text-anchor="middle" fill="#FFF" x="35" y="-124">2600</text></a></g></g><rect fill="none" stroke="#DDD" width="70" height="30" rx="8" ry="8" x="325" y="216"/><text text-anchor="middle" fill="#333" x="360" y="236">14-06</text><g transform="translate(325,256)"><g><a target="_top" xlink:href="dtp-sliceTagChecking1042-step2628000-ofs19-col23-cat0.html"><rect style="display:none" class="hcell-act-col23-cat0" fill="#777" stroke="#000" stroke-width="5" width="70" height="132" x="0" y="5" rx="8" ry="8"/><rect class="hcell-col23-cat0" fill="#777" stroke="#DDD" width="70" height="142" x="0" y="0" rx="8" ry="8"/><text text-anchor="middle" fill="#FFF" x="35" y="20">-2563</text></a></g></g></g><g><g transform="translate(405,206)"><g><a target="_top" xlink:href="dtp-sliceTagChecking1042-step2628000-ofs19-col24-cat0.html"><rect style="display:none" class="hcell-act-col24-cat0" fill="#777" stroke="#000" stroke-width="5" width="70" height="134" x="0" y="-139" rx="8" ry="8"/><rect class="hcell-col24-cat0" fill="#777" stroke="#DDD" width="70" height="144" x="0" y="-144" rx="8" ry="8"/><text text-anchor="middle" fill="#FFF" x="35" y="-124">2600</text></a></g></g><rect fill="none" stroke="#DDD" width="70" height="30" rx="8" ry="8" x="405" y="216"/><text text-anchor="middle" fill="#333" x="440" y="236">14-07</text><g transform="translate(405,256)"><g><a target="_top" xlink:href="dtp-sliceTagChecking1042-step2628000-ofs19-col24-cat0.html"><rect style="display:none" class="hcell-act-col24-cat0" fill="#777" stroke="#000" stroke-width="5" width="70" height="77" x="0" y="5" rx="8" ry="8"/><rect class="hcell-col24-cat0" fill="#777" stroke="#DDD" width="70" height="87" x="0" y="0" rx="8" ry="8"/><text text-anchor="middle" fill="#FFF" x="35" y="20">-1576</text></a></g></g></g><g><g transform="translate(485,206)"><g><a target="_top" xlink:href="dtp-sliceTagChecking1042-step2628000-ofs19-col25-cat0.html"><rect style="display:none" class="hcell-act-col25-cat0" fill="#777" stroke="#000" stroke-width="5" width="70" height="134" x="0" y="-139" rx="8" ry="8"/><rect class="hcell-col25-cat0" fill="#777" stroke="#DDD" width="70" height="144" x="0" y="-144" rx="8" ry="8"/><text text-anchor="middle" fill="#FFF" x="35" y="-124">2600</text></a></g></g><rect fill="none" stroke="#DDD" width="70" height="30" rx="8" ry="8" x="485" y="216"/><text text-anchor="middle" fill="#333" x="520" y="236">14-08</text><g transform="translate(485,256)"><g><a target="_top" xlink:href="dtp-sliceTagChecking1042-step2628000-ofs19-col25-cat0.html"><rect style="display:none" class="hcell-act-col25-cat0" fill="#777" stroke="#000" stroke-width="5" width="70" height="164" x="0" y="5" rx="8" ry="8"/><rect class="hcell-col25-cat0" fill="#777" stroke="#DDD" width="70" height="174" x="0" y="0" rx="8" ry="8"/><text text-anchor="middle" fill="#FFF" x="35" y="20">-3157</text></a></g></g></g><g><g transform="translate(565,206)"><g><a target="_top" xlink:href="dtp-sliceTagChecking1042-step2628000-ofs19-col26-cat0.html"><rect style="display:none" class="hcell-act-col26-cat0" fill="#777" stroke="#000" stroke-width="5" width="70" height="134" x="0" y="-139" rx="8" ry="8"/><rect class="hcell-col26-cat0" fill="#777" stroke="#DDD" width="70" height="144" x="0" y="-144" rx="8" ry="8"/><text text-anchor="middle" fill="#FFF" x="35" y="-124">2600</text></a></g></g><rect fill="none" stroke="#DDD" width="70" height="30" rx="8" ry="8" x="565" y="216"/><text text-anchor="middle" fill="#333" x="600" y="236">14-08</text><g transform="translate(565,256)"><g><a target="_top" xlink:href="dtp-sliceTagChecking1042-step2628000-ofs19-col26-cat0.html"><rect style="display:none" class="hcell-act-col26-cat0" fill="#777" stroke="#000" stroke-width="5" width="70" height="139" x="0" y="5" rx="8" ry="8"/><rect class="hcell-col26-cat0" fill="#777" stroke="#DDD" width="70" height="149" x="0" y="0" rx="8" ry="8"/><text text-anchor="middle" fill="#FFF" x="35" y="20">-2690</text></a></g></g></g><g><g transform="translate(645,206)"><g><a target="_top" xlink:href="dtp-sliceTagChecking1042-step2628000-ofs19-col27-cat0.html"><rect style="display:none" class="hcell-act-col27-cat0" fill="#777" stroke="#000" stroke-width="5" width="70" height="134" x="0" y="-139" rx="8" ry="8"/><rect class="hcell-col27-cat0" fill="#777" stroke="#DDD" width="70" height="144" x="0" y="-144" rx="8" ry="8"/><text text-anchor="middle" fill="#FFF" x="35" y="-124">2600</text></a></g></g><rect fill="none" stroke="#DDD" width="70" height="30" rx="8" ry="8" x="645" y="216"/><text text-anchor="middle" fill="#333" x="680" y="236">14-10</text><g transform="translate(645,256)"><g><a target="_top" xlink:href="dtp-sliceTagChecking1042-step2628000-ofs19-col27-cat0.html"><rect style="display:none" class="hcell-act-col27-cat0" fill="#777" stroke="#000" stroke-width="5" width="70" height="139" x="0" y="5" rx="8" ry="8"/><rect class="hcell-col27-cat0" fill="#777" stroke="#DDD" width="70" height="149" x="0" y="0" rx="8" ry="8"/><text text-anchor="middle" fill="#FFF" x="35" y="20">-2690</text></a></g></g></g><g><g transform="translate(725,206)"><g><a target="_top" xlink:href="dtp-sliceTagChecking1042-step2628000-ofs19-col28-cat0.html"><rect style="display:none" class="hcell-act-col28-cat0" fill="#777" stroke="#000" stroke-width="5" width="70" height="134" x="0" y="-139" rx="8" ry="8"/><rect class="hcell-col28-cat0" fill="#777" stroke="#DDD" width="70" height="144" x="0" y="-144" rx="8" ry="8"/><text text-anchor="middle" fill="#FFF" x="35" y="-124">2600</text></a></g></g><rect fill="none" stroke="#DDD" width="70" height="30" rx="8" ry="8" x="725" y="216"/><text text-anchor="middle" fill="#333" x="760" y="236">14-10</text><g transform="translate(725,256)"><g><a target="_top" xlink:href="dtp-sliceTagChecking1042-step2628000-ofs19-col28-cat0.html"><rect style="display:none" class="hcell-act-col28-cat0" fill="#777" stroke="#000" stroke-width="5" width="70" height="145" x="0" y="5" rx="8" ry="8"/><rect class="hcell-col28-cat0" fill="#777" stroke="#DDD" width="70" height="155" x="0" y="0" rx="8" ry="8"/><text text-anchor="middle" fill="#FFF" x="35" y="20">-2810</text></a></g></g></g><g><g transform="translate(805,206)"><g><a target="_top" xlink:href="dtp-sliceTagChecking1042-step2628000-ofs19-col29-cat0.html"><rect style="display:none" class="hcell-act-col29-cat0" fill="#777" stroke="#000" stroke-width="5" width="70" height="134" x="0" y="-139" rx="8" ry="8"/><rect class="hcell-col29-cat0" fill="#777" stroke="#DDD" width="70" height="144" x="0" y="-144" rx="8" ry="8"/><text text-anchor="middle" fill="#FFF" x="35" y="-124">2600</text></a></g></g><rect fill="none" stroke="#DDD" width="70" height="30" rx="8" ry="8" x="805" y="216"/><text text-anchor="middle" fill="#333" x="840" y="236">14-12</text><g transform="translate(805,256)"><g><a target="_top" xlink:href="dtp-sliceTagChecking1042-step2628000-ofs19-col29-cat0.html"><rect style="display:none" class="hcell-act-col29-cat0" fill="#777" stroke="#000" stroke-width="5" width="70" height="164" x="0" y="5" rx="8" ry="8"/><rect class="hcell-col29-cat0" fill="#777" stroke="#DDD" width="70" height="174" x="0" y="0" rx="8" ry="8"/><text text-anchor="middle" fill="#FFF" x="35" y="20">-3140</text></a></g></g></g><g><g transform="translate(885,206)"><g><a target="_top" xlink:href="dtp-sliceTagChecking1042-step2628000-ofs19-col30-cat0.html"><rect style="display:none" class="hcell-act-col30-cat0" fill="#777" stroke="#000" stroke-width="5" width="70" height="134" x="0" y="-139" rx="8" ry="8"/><rect class="hcell-col30-cat0" fill="#777" stroke="#DDD" width="70" height="144" x="0" y="-144" rx="8" ry="8"/><text text-anchor="middle" fill="#FFF" x="35" y="-124">2600</text></a></g></g><rect fill="none" stroke="#DDD" width="70" height="30" rx="8" ry="8" x="885" y="216"/><text text-anchor="middle" fill="#333" x="920" y="236">14-12</text><g transform="translate(885,256)"><g><a target="_top" xlink:href="dtp-sliceTagChecking1042-step2628000-ofs19-col30-cat0.html"><rect style="display:none" class="hcell-act-col30-cat0" fill="#777" stroke="#000" stroke-width="5" width="70" height="157" x="0" y="5" rx="8" ry="8"/><rect class="hcell-col30-cat0" fill="#777" stroke="#DDD" width="70" height="167" x="0" y="0" rx="8" ry="8"/><text text-anchor="middle" fill="#FFF" x="35" y="20">-3026</text></a></g></g></g><g><g transform="translate(965,206)"><g><a target="_top" xlink:href="dtp-sliceTagChecking1042-step2628000-ofs19-col31-cat0.html"><rect style="display:none" class="hcell-act-col31-cat0" fill="#777" stroke="#000" stroke-width="5" width="70" height="134" x="0" y="-139" rx="8" ry="8"/><rect class="hcell-col31-cat0" fill="#777" stroke="#DDD" width="70" height="144" x="0" y="-144" rx="8" ry="8"/><text text-anchor="middle" fill="#FFF" x="35" y="-124">2600</text></a></g></g><rect fill="none" stroke="#DDD" width="70" height="30" rx="8" ry="8" x="965" y="216"/><text text-anchor="middle" fill="#333" x="1000" y="236">15-01</text><g transform="translate(965,256)"><g><a target="_top" xlink:href="dtp-sliceTagChecking1042-step2628000-ofs19-col31-cat0.html"><rect style="display:none" class="hcell-act-col31-cat0" fill="#777" stroke="#000" stroke-width="5" width="70" height="188" x="0" y="5" rx="8" ry="8"/><rect class="hcell-col31-cat0" fill="#777" stroke="#DDD" width="70" height="198" x="0" y="0" rx="8" ry="8"/><text text-anchor="middle" fill="#FFF" x="35" y="20">-3590</text></a></g></g></g><g><g transform="translate(1045,206)"><g><a target="_top" xlink:href="dtp-sliceTagChecking1042-step2628000-ofs19-col32-cat0.html"><rect style="display:none" class="hcell-act-col32-cat0" fill="#777" stroke="#000" stroke-width="5" width="70" height="134" x="0" y="-139" rx="8" ry="8"/><rect class="hcell-col32-cat0" fill="#777" stroke="#DDD" width="70" height="144" x="0" y="-144" rx="8" ry="8"/><text text-anchor="middle" fill="#FFF" x="35" y="-124">2600</text></a></g></g><rect fill="none" stroke="#DDD" width="70" height="30" rx="8" ry="8" x="1045" y="216"/><text text-anchor="middle" fill="#333" x="1080" y="236">15-03</text><g transform="translate(1045,256)"><g><a target="_top" xlink:href="dtp-sliceTagChecking1042-step2628000-ofs19-col32-cat0.html"><rect style="display:none" class="hcell-act-col32-cat0" fill="#777" stroke="#000" stroke-width="5" width="70" height="139" x="0" y="5" rx="8" ry="8"/><rect class="hcell-col32-cat0" fill="#777" stroke="#DDD" width="70" height="149" x="0" y="0" rx="8" ry="8"/><text text-anchor="middle" fill="#FFF" x="35" y="20">-2690</text></a></g></g></g><g><g transform="translate(1125,206)"><g><a target="_top" xlink:href="dtp-sliceTagChecking1042-step2628000-ofs19-col33-cat0.html"><rect style="display:none" class="hcell-act-col33-cat0" fill="#777" stroke="#000" stroke-width="5" width="70" height="134" x="0" y="-139" rx="8" ry="8"/><rect class="hcell-col33-cat0" fill="#777" stroke="#DDD" width="70" height="144" x="0" y="-144" rx="8" ry="8"/><text text-anchor="middle" fill="#FFF" x="35" y="-124">2600</text></a></g></g><rect fill="none" stroke="#DDD" width="70" height="30" rx="8" ry="8" x="1125" y="216"/><text text-anchor="middle" fill="#333" x="1160" y="236">15-04</text><g transform="translate(1125,256)"><g><a target="_top" xlink:href="dtp-sliceTagChecking1042-step2628000-ofs19-col33-cat0.html"><rect style="display:none" class="hcell-act-col33-cat0" fill="#777" stroke="#000" stroke-width="5" width="70" height="162" x="0" y="5" rx="8" ry="8"/><rect class="hcell-col33-cat0" fill="#777" stroke="#DDD" width="70" height="172" x="0" y="0" rx="8" ry="8"/><text text-anchor="middle" fill="#FFF" x="35" y="20">-3118</text></a></g></g></g><g><g transform="translate(1205,206)"><g><a target="_top" xlink:href="dtp-sliceTagChecking1042-step2628000-ofs19-col34-cat0.html"><rect style="display:none" class="hcell-act-col34-cat0" fill="#777" stroke="#000" stroke-width="5" width="70" height="134" x="0" y="-139" rx="8" ry="8"/><rect class="hcell-col34-cat0" fill="#777" stroke="#DDD" width="70" height="144" x="0" y="-144" rx="8" ry="8"/><text text-anchor="middle" fill="#FFF" x="35" y="-124">2600</text></a></g></g><rect fill="none" stroke="#DDD" width="70" height="30" rx="8" ry="8" x="1205" y="216"/><text text-anchor="middle" fill="#333" x="1240" y="236">15-05</text><g transform="translate(1205,256)"><g><a target="_top" xlink:href="dtp-sliceTagChecking1042-step2628000-ofs19-col34-cat0.html"><rect style="display:none" class="hcell-act-col34-cat0" fill="#777" stroke="#000" stroke-width="5" width="70" height="183" x="0" y="5" rx="8" ry="8"/><rect class="hcell-col34-cat0" fill="#777" stroke="#DDD" width="70" height="193" x="0" y="0" rx="8" ry="8"/><text text-anchor="middle" fill="#FFF" x="35" y="20">-3490</text></a></g></g></g></svg>