<svg xmlns="http://www.w3.org/2000/svg" xmlns:xlink="http://www.w3.org/1999/xlink" width="100%" height="100%" viewBox="0 0 1280 459"><g><g transform="translate(5,256)"><g><a target="_top" xlink:href="dtp-sliceTagClothes-step2628000-ofs19-col19-cat0.html"><rect style="display:none" class="hcell-act-col19-cat0" fill="#777" stroke="#000" stroke-width="5" width="70" height="49" x="0" y="-54" rx="8" ry="8"/><rect class="hcell-col19-cat0" fill="#777" stroke="#DDD" width="70" height="59" x="0" y="-59" rx="8" ry="8"/><text text-anchor="middle" fill="#FFF" x="35" y="-39">47</text></a></g></g><rect fill="none" stroke="#DDD" width="70" height="30" rx="8" ry="8" x="5" y="266"/><text text-anchor="middle" fill="#333" x="40" y="286">14-01</text><g transform="translate(5,306)"></g></g><g><g transform="translate(85,256)"><g><a target="_top" xlink:href="dtp-sliceTagClothes-step2628000-ofs19-col20-cat0.html"><rect style="display:none" class="hcell-act-col20-cat0" fill="#777" stroke="#000" stroke-width="5" width="70" height="106" x="0" y="-111" rx="8" ry="8"/><rect class="hcell-col20-cat0" fill="#777" stroke="#DDD" width="70" height="116" x="0" y="-116" rx="8" ry="8"/><text text-anchor="middle" fill="#FFF" x="35" y="-96">93</text></a></g></g><rect fill="none" stroke="#DDD" width="70" height="30" rx="8" ry="8" x="85" y="266"/><text text-anchor="middle" fill="#333" x="120" y="286">14-03</text><g transform="translate(85,306)"></g></g><g><g transform="translate(165,256)"><g><a target="_top" xlink:href="dtp-sliceTagClothes-step2628000-ofs19-col21-cat0.html"><rect style="display:none" class="hcell-act-col21-cat0" fill="#777" stroke="#000" stroke-width="5" width="70" height="151" x="0" y="-156" rx="8" ry="8"/><rect class="hcell-col21-cat0" fill="#777" stroke="#DDD" width="70" height="161" x="0" y="-161" rx="8" ry="8"/><text text-anchor="middle" fill="#FFF" x="35" y="-141">129</text></a></g></g><rect fill="none" stroke="#DDD" width="70" height="30" rx="8" ry="8" x="165" y="266"/><text text-anchor="middle" fill="#333" x="200" y="286">14-04</text><g transform="translate(165,306)"></g></g><g><g transform="translate(245,256)"><g><a target="_top" xlink:href="dtp-sliceTagClothes-step2628000-ofs19-col22-cat0.html"><rect style="display:none" class="hcell-act-col22-cat0" fill="#777" stroke="#000" stroke-width="5" width="70" height="58" x="0" y="-63" rx="8" ry="8"/><rect class="hcell-col22-cat0" fill="#777" stroke="#DDD" width="70" height="68" x="0" y="-68" rx="8" ry="8"/><text text-anchor="middle" fill="#FFF" x="35" y="-48">54</text></a></g></g><rect fill="none" stroke="#DDD" width="70" height="30" rx="8" ry="8" x="245" y="266"/><text text-anchor="middle" fill="#333" x="280" y="286">14-05</text><g transform="translate(245,306)"><g><a target="_top" xlink:href="dtp-sliceTagClothes-step2628000-ofs19-col22-cat0.html"><rect style="display:none" class="hcell-act-col22-cat0" fill="#777" stroke="#000" stroke-width="5" width="70" height="138" x="0" y="5" rx="8" ry="8"/><rect class="hcell-col22-cat0" fill="#777" stroke="#DDD" width="70" height="148" x="0" y="0" rx="8" ry="8"/><text text-anchor="middle" fill="#FFF" x="35" y="20">-120</text></a></g></g></g><g><g transform="translate(325,256)"><g><a target="_top" xlink:href="dtp-sliceTagClothes-step2628000-ofs19-col23-cat0.html"><rect style="display:none" class="hcell-act-col23-cat0" fill="#777" stroke="#000" stroke-width="5" width="70" height="204" x="0" y="-209" rx="8" ry="8"/><rect class="hcell-col23-cat0" fill="#777" stroke="#DDD" width="70" height="214" x="0" y="-214" rx="8" ry="8"/><text text-anchor="middle" fill="#FFF" x="35" y="-194">171</text></a></g></g><rect fill="none" stroke="#DDD" width="70" height="30" rx="8" ry="8" x="325" y="266"/><text text-anchor="middle" fill="#333" x="360" y="286">14-06</text><g transform="translate(325,306)"></g></g><g><g transform="translate(405,256)"><g><a target="_top" xlink:href="dtp-sliceTagClothes-step2628000-ofs19-col24-cat0.html"><rect style="display:none" class="hcell-act-col24-cat0" fill="#777" stroke="#000" stroke-width="5" width="70" height="241" x="0" y="-246" rx="8" ry="8"/><rect class="hcell-col24-cat0" fill="#777" stroke="#DDD" width="70" height="251" x="0" y="-251" rx="8" ry="8"/><text text-anchor="middle" fill="#FFF" x="35" y="-231">201</text></a></g></g><rect fill="none" stroke="#DDD" width="70" height="30" rx="8" ry="8" x="405" y="266"/><text text-anchor="middle" fill="#333" x="440" y="286">14-07</text><g transform="translate(405,306)"></g></g><g><g transform="translate(485,256)"><g><a target="_top" xlink:href="dtp-sliceTagClothes-step2628000-ofs19-col25-cat0.html"><rect style="display:none" class="hcell-act-col25-cat0" fill="#777" stroke="#000" stroke-width="5" width="70" height="102" x="0" y="-107" rx="8" ry="8"/><rect class="hcell-col25-cat0" fill="#777" stroke="#DDD" width="70" height="112" x="0" y="-112" rx="8" ry="8"/><text text-anchor="middle" fill="#FFF" x="35" y="-92">90</text></a></g></g><rect fill="none" stroke="#DDD" width="70" height="30" rx="8" ry="8" x="485" y="266"/><text text-anchor="middle" fill="#333" x="520" y="286">14-08</text><g transform="translate(485,306)"></g></g><g><g transform="translate(565,256)"><g><a target="_top" xlink:href="dtp-sliceTagClothes-step2628000-ofs19-col26-cat0.html"><rect style="display:none" class="hcell-act-col26-cat0" fill="#777" stroke="#000" stroke-width="5" width="70" height="168" x="0" y="-173" rx="8" ry="8"/><rect class="hcell-col26-cat0" fill="#777" stroke="#DDD" width="70" height="178" x="0" y="-178" rx="8" ry="8"/><text text-anchor="middle" fill="#FFF" x="35" y="-158">142</text></a></g></g><rect fill="none" stroke="#DDD" width="70" height="30" rx="8" ry="8" x="565" y="266"/><text text-anchor="middle" fill="#333" x="600" y="286">14-08</text><g transform="translate(565,306)"></g></g><g><g transform="translate(645,256)"><g><a target="_top" xlink:href="dtp-sliceTagClothes-step2628000-ofs19-col27-cat0.html"><rect style="display:none" class="hcell-act-col27-cat0" fill="#777" stroke="#000" stroke-width="5" width="70" height="216" x="0" y="-221" rx="8" ry="8"/><rect class="hcell-col27-cat0" fill="#777" stroke="#DDD" width="70" height="226" x="0" y="-226" rx="8" ry="8"/><text text-anchor="middle" fill="#FFF" x="35" y="-206">181</text></a></g></g><rect fill="none" stroke="#DDD" width="70" height="30" rx="8" ry="8" x="645" y="266"/><text text-anchor="middle" fill="#333" x="680" y="286">14-10</text><g transform="translate(645,306)"></g></g><g><g transform="translate(725,256)"><g><a target="_top" xlink:href="dtp-sliceTagClothes-step2628000-ofs19-col28-cat0.html"><rect style="display:none" class="hcell-act-col28-cat0" fill="#777" stroke="#000" stroke-width="5" width="70" height="149" x="0" y="-154" rx="8" ry="8"/><rect class="hcell-col28-cat0" fill="#777" stroke="#DDD" width="70" height="159" x="0" y="-159" rx="8" ry="8"/><text text-anchor="middle" fill="#FFF" x="35" y="-139">127</text></a></g></g><rect fill="none" stroke="#DDD" width="70" height="30" rx="8" ry="8" x="725" y="266"/><text text-anchor="middle" fill="#333" x="760" y="286">14-10</text><g transform="translate(725,306)"></g></g><g><g transform="translate(805,256)"><g><a target="_top" xlink:href="dtp-sliceTagClothes-step2628000-ofs19-col29-cat0.html"><rect style="display:none" class="hcell-act-col29-cat0" fill="#777" stroke="#000" stroke-width="5" width="70" height="180" x="0" y="-185" rx="8" ry="8"/><rect class="hcell-col29-cat0" fill="#777" stroke="#DDD" width="70" height="190" x="0" y="-190" rx="8" ry="8"/><text text-anchor="middle" fill="#FFF" x="35" y="-170">152</text></a></g></g><rect fill="none" stroke="#DDD" width="70" height="30" rx="8" ry="8" x="805" y="266"/><text text-anchor="middle" fill="#333" x="840" y="286">14-12</text><g transform="translate(805,306)"><g><a target="_top" xlink:href="dtp-sliceTagClothes-step2628000-ofs19-col29-cat0.html"><rect style="display:none" class="hcell-act-col29-cat0" fill="#777" stroke="#000" stroke-width="5" width="70" height="27" x="0" y="5" rx="8" ry="8"/><rect class="hcell-col29-cat0" fill="#777" stroke="#DDD" width="70" height="37" x="0" y="0" rx="8" ry="8"/><text text-anchor="middle" fill="#FFF" x="35" y="20">-31</text></a></g></g></g><g><g transform="translate(885,256)"><g><a target="_top" xlink:href="dtp-sliceTagClothes-step2628000-ofs19-col30-cat0.html"><rect style="display:none" class="hcell-act-col30-cat0" fill="#777" stroke="#000" stroke-width="5" width="70" height="166" x="0" y="-171" rx="8" ry="8"/><rect class="hcell-col30-cat0" fill="#777" stroke="#DDD" width="70" height="176" x="0" y="-176" rx="8" ry="8"/><text text-anchor="middle" fill="#FFF" x="35" y="-156">141</text></a></g></g><rect fill="none" stroke="#DDD" width="70" height="30" rx="8" ry="8" x="885" y="266"/><text text-anchor="middle" fill="#333" x="920" y="286">14-12</text><g transform="translate(885,306)"><g><a target="_top" xlink:href="dtp-sliceTagClothes-step2628000-ofs19-col30-cat0.html"><rect style="display:none" class="hcell-act-col30-cat0" fill="#777" stroke="#000" stroke-width="5" width="70" height="87" x="0" y="5" rx="8" ry="8"/><rect class="hcell-col30-cat0" fill="#777" stroke="#DDD" width="70" height="97" x="0" y="0" rx="8" ry="8"/><text text-anchor="middle" fill="#FFF" x="35" y="20">-78</text></a></g></g></g><g><g transform="translate(965,256)"><g><a target="_top" xlink:href="dtp-sliceTagClothes-step2628000-ofs19-col31-cat0.html"><rect style="display:none" class="hcell-act-col31-cat0" fill="#777" stroke="#000" stroke-width="5" width="70" height="106" x="0" y="-111" rx="8" ry="8"/><rect class="hcell-col31-cat0" fill="#777" stroke="#DDD" width="70" height="116" x="0" y="-116" rx="8" ry="8"/><text text-anchor="middle" fill="#FFF" x="35" y="-96">92</text></a></g></g><rect fill="none" stroke="#DDD" width="70" height="30" rx="8" ry="8" x="965" y="266"/><text text-anchor="middle" fill="#333" x="1000" y="286">15-01</text><g transform="translate(965,306)"></g></g><g><g transform="translate(1045,256)"><g><a target="_top" xlink:href="dtp-sliceTagClothes-step2628000-ofs19-col32-cat0.html"><rect style="display:none" class="hcell-act-col32-cat0" fill="#777" stroke="#000" stroke-width="5" width="70" height="47" x="0" y="-52" rx="8" ry="8"/><rect class="hcell-col32-cat0" fill="#777" stroke="#DDD" width="70" height="57" x="0" y="-57" rx="8" ry="8"/><text text-anchor="middle" fill="#FFF" x="35" y="-37">46</text></a></g></g><rect fill="none" stroke="#DDD" width="70" height="30" rx="8" ry="8" x="1045" y="266"/><text text-anchor="middle" fill="#333" x="1080" y="286">15-03</text><g transform="translate(1045,306)"></g></g><g><g transform="translate(1125,256)"><g><a target="_top" xlink:href="dtp-sliceTagClothes-step2628000-ofs19-col33-cat0.html"><rect style="display:none" class="hcell-act-col33-cat0" fill="#777" stroke="#000" stroke-width="5" width="70" height="72" x="0" y="-77" rx="8" ry="8"/><rect class="hcell-col33-cat0" fill="#777" stroke="#DDD" width="70" height="82" x="0" y="-82" rx="8" ry="8"/><text text-anchor="middle" fill="#FFF" x="35" y="-62">66</text></a></g></g><rect fill="none" stroke="#DDD" width="70" height="30" rx="8" ry="8" x="1125" y="266"/><text text-anchor="middle" fill="#333" x="1160" y="286">15-04</text><g transform="translate(1125,306)"><g><a target="_top" xlink:href="dtp-sliceTagClothes-step2628000-ofs19-col33-cat0.html"><rect style="display:none" class="hcell-act-col33-cat0" fill="#777" stroke="#000" stroke-width="5" width="70" height="31" x="0" y="5" rx="8" ry="8"/><rect class="hcell-col33-cat0" fill="#777" stroke="#DDD" width="70" height="41" x="0" y="0" rx="8" ry="8"/><text text-anchor="middle" fill="#FFF" x="35" y="20">-33</text></a></g></g></g><g><g transform="translate(1205,256)"></g><rect fill="none" stroke="#DDD" width="70" height="30" rx="8" ry="8" x="1205" y="266"/><text text-anchor="middle" fill="#333" x="1240" y="286">15-05</text><g transform="translate(1205,306)"></g></g></svg>