<svg xmlns="http://www.w3.org/2000/svg" xmlns:xlink="http://www.w3.org/1999/xlink" width="100%" height="100%" viewBox="0 0 1280 470"><g><g transform="translate(5,385)"><g><a target="_top" xlink:href="dtp-sliceTagPayment-step2628000-ofs19-col19-cat0.html"><rect style="display:none" class="hcell-act-col19-cat0" fill="#777" stroke="#000" stroke-width="5" width="70" height="370" x="0" y="-375" rx="8" ry="8"/><rect class="hcell-col19-cat0" fill="#777" stroke="#DDD" width="70" height="380" x="0" y="-380" rx="8" ry="8"/><text text-anchor="middle" fill="#FFF" x="35" y="-360">1853</text></a></g></g><rect fill="none" stroke="#DDD" width="70" height="30" rx="8" ry="8" x="5" y="395"/><text text-anchor="middle" fill="#333" x="40" y="415">14-01</text><g transform="translate(5,435)"><g><a target="_top" xlink:href="dtp-sliceTagPayment-step2628000-ofs19-col19-cat0.html"><rect style="display:none" class="hcell-act-col19-cat0" fill="#777" stroke="#000" stroke-width="5" width="70" height="20" x="0" y="5" rx="8" ry="8"/><rect class="hcell-col19-cat0" fill="#777" stroke="#DDD" width="70" height="30" x="0" y="0" rx="8" ry="8"/><text text-anchor="middle" fill="#FFF" x="35" y="20">-50</text></a></g></g></g><g><g transform="translate(85,385)"><g><a target="_top" xlink:href="dtp-sliceTagPayment-step2628000-ofs19-col20-cat0.html"><rect style="display:none" class="hcell-act-col20-cat0" fill="#777" stroke="#000" stroke-width="5" width="70" height="345" x="0" y="-350" rx="8" ry="8"/><rect class="hcell-col20-cat0" fill="#777" stroke="#DDD" width="70" height="355" x="0" y="-355" rx="8" ry="8"/><text text-anchor="middle" fill="#FFF" x="35" y="-335">1734</text></a></g></g><rect fill="none" stroke="#DDD" width="70" height="30" rx="8" ry="8" x="85" y="395"/><text text-anchor="middle" fill="#333" x="120" y="415">14-03</text><g transform="translate(85,435)"><g><a target="_top" xlink:href="dtp-sliceTagPayment-step2628000-ofs19-col20-cat0.html"><rect style="display:none" class="hcell-act-col20-cat0" fill="#777" stroke="#000" stroke-width="5" width="70" height="20" x="0" y="5" rx="8" ry="8"/><rect class="hcell-col20-cat0" fill="#777" stroke="#DDD" width="70" height="30" x="0" y="0" rx="8" ry="8"/><text text-anchor="middle" fill="#FFF" x="35" y="20">-77</text></a></g></g></g><g><g transform="translate(165,385)"><g><a target="_top" xlink:href="dtp-sliceTagPayment-step2628000-ofs19-col21-cat0.html"><rect style="display:none" class="hcell-act-col21-cat0" fill="#777" stroke="#000" stroke-width="5" width="70" height="192" x="0" y="-197" rx="8" ry="8"/><rect class="hcell-col21-cat0" fill="#777" stroke="#DDD" width="70" height="202" x="0" y="-202" rx="8" ry="8"/><text text-anchor="middle" fill="#FFF" x="35" y="-182">989</text></a></g></g><rect fill="none" stroke="#DDD" width="70" height="30" rx="8" ry="8" x="165" y="395"/><text text-anchor="middle" fill="#333" x="200" y="415">14-04</text><g transform="translate(165,435)"><g><a target="_top" xlink:href="dtp-sliceTagPayment-step2628000-ofs19-col21-cat0.html"><rect style="display:none" class="hcell-act-col21-cat0" fill="#777" stroke="#000" stroke-width="5" width="70" height="20" x="0" y="5" rx="8" ry="8"/><rect class="hcell-col21-cat0" fill="#777" stroke="#DDD" width="70" height="30" x="0" y="0" rx="8" ry="8"/><text text-anchor="middle" fill="#FFF" x="35" y="20">-56</text></a></g></g></g><g><g transform="translate(245,385)"><g><a target="_top" xlink:href="dtp-sliceTagPayment-step2628000-ofs19-col22-cat0.html"><rect style="display:none" class="hcell-act-col22-cat0" fill="#777" stroke="#000" stroke-width="5" width="70" height="20" x="0" y="-25" rx="8" ry="8"/><rect class="hcell-col22-cat0" fill="#777" stroke="#DDD" width="70" height="30" x="0" y="-30" rx="8" ry="8"/><text text-anchor="middle" fill="#FFF" x="35" y="-10">83</text></a></g></g><rect fill="none" stroke="#DDD" width="70" height="30" rx="8" ry="8" x="245" y="395"/><text text-anchor="middle" fill="#333" x="280" y="415">14-05</text><g transform="translate(245,435)"><g><a target="_top" xlink:href="dtp-sliceTagPayment-step2628000-ofs19-col22-cat0.html"><rect style="display:none" class="hcell-act-col22-cat0" fill="#777" stroke="#000" stroke-width="5" width="70" height="20" x="0" y="5" rx="8" ry="8"/><rect class="hcell-col22-cat0" fill="#777" stroke="#DDD" width="70" height="30" x="0" y="0" rx="8" ry="8"/><text text-anchor="middle" fill="#FFF" x="35" y="20">-97</text></a></g></g></g><g><g transform="translate(325,385)"><g><a target="_top" xlink:href="dtp-sliceTagPayment-step2628000-ofs19-col23-cat0.html"><rect style="display:none" class="hcell-act-col23-cat0" fill="#777" stroke="#000" stroke-width="5" width="70" height="252" x="0" y="-257" rx="8" ry="8"/><rect class="hcell-col23-cat0" fill="#777" stroke="#DDD" width="70" height="262" x="0" y="-262" rx="8" ry="8"/><text text-anchor="middle" fill="#FFF" x="35" y="-242">1282</text></a></g></g><rect fill="none" stroke="#DDD" width="70" height="30" rx="8" ry="8" x="325" y="395"/><text text-anchor="middle" fill="#333" x="360" y="415">14-06</text><g transform="translate(325,435)"><g><a target="_top" xlink:href="dtp-sliceTagPayment-step2628000-ofs19-col23-cat0.html"><rect style="display:none" class="hcell-act-col23-cat0" fill="#777" stroke="#000" stroke-width="5" width="70" height="20" x="0" y="5" rx="8" ry="8"/><rect class="hcell-col23-cat0" fill="#777" stroke="#DDD" width="70" height="30" x="0" y="0" rx="8" ry="8"/><text text-anchor="middle" fill="#FFF" x="35" y="20">-17</text></a></g></g></g><g><g transform="translate(405,385)"><g><a target="_top" xlink:href="dtp-sliceTagPayment-step2628000-ofs19-col24-cat0.html"><rect style="display:none" class="hcell-act-col24-cat0" fill="#777" stroke="#000" stroke-width="5" width="70" height="20" x="0" y="-25" rx="8" ry="8"/><rect class="hcell-col24-cat0" fill="#777" stroke="#DDD" width="70" height="30" x="0" y="-30" rx="8" ry="8"/><text text-anchor="middle" fill="#FFF" x="35" y="-10">74</text></a></g></g><rect fill="none" stroke="#DDD" width="70" height="30" rx="8" ry="8" x="405" y="395"/><text text-anchor="middle" fill="#333" x="440" y="415">14-07</text><g transform="translate(405,435)"><g><a target="_top" xlink:href="dtp-sliceTagPayment-step2628000-ofs19-col24-cat0.html"><rect style="display:none" class="hcell-act-col24-cat0" fill="#777" stroke="#000" stroke-width="5" width="70" height="20" x="0" y="5" rx="8" ry="8"/><rect class="hcell-col24-cat0" fill="#777" stroke="#DDD" width="70" height="30" x="0" y="0" rx="8" ry="8"/><text text-anchor="middle" fill="#FFF" x="35" y="20">-74</text></a></g></g></g><g><g transform="translate(485,385)"></g><rect fill="none" stroke="#DDD" width="70" height="30" rx="8" ry="8" x="485" y="395"/><text text-anchor="middle" fill="#333" x="520" y="415">14-08</text><g transform="translate(485,435)"></g></g><g><g transform="translate(565,385)"></g><rect fill="none" stroke="#DDD" width="70" height="30" rx="8" ry="8" x="565" y="395"/><text text-anchor="middle" fill="#333" x="600" y="415">14-08</text><g transform="translate(565,435)"></g></g><g><g transform="translate(645,385)"></g><rect fill="none" stroke="#DDD" width="70" height="30" rx="8" ry="8" x="645" y="395"/><text text-anchor="middle" fill="#333" x="680" y="415">14-10</text><g transform="translate(645,435)"></g></g><g><g transform="translate(725,385)"></g><rect fill="none" stroke="#DDD" width="70" height="30" rx="8" ry="8" x="725" y="395"/><text text-anchor="middle" fill="#333" x="760" y="415">14-10</text><g transform="translate(725,435)"></g></g><g><g transform="translate(805,385)"></g><rect fill="none" stroke="#DDD" width="70" height="30" rx="8" ry="8" x="805" y="395"/><text text-anchor="middle" fill="#333" x="840" y="415">14-12</text><g transform="translate(805,435)"></g></g><g><g transform="translate(885,385)"></g><rect fill="none" stroke="#DDD" width="70" height="30" rx="8" ry="8" x="885" y="395"/><text text-anchor="middle" fill="#333" x="920" y="415">14-12</text><g transform="translate(885,435)"></g></g><g><g transform="translate(965,385)"></g><rect fill="none" stroke="#DDD" width="70" height="30" rx="8" ry="8" x="965" y="395"/><text text-anchor="middle" fill="#333" x="1000" y="415">15-01</text><g transform="translate(965,435)"></g></g><g><g transform="translate(1045,385)"></g><rect fill="none" stroke="#DDD" width="70" height="30" rx="8" ry="8" x="1045" y="395"/><text text-anchor="middle" fill="#333" x="1080" y="415">15-03</text><g transform="translate(1045,435)"></g></g><g><g transform="translate(1125,385)"></g><rect fill="none" stroke="#DDD" width="70" height="30" rx="8" ry="8" x="1125" y="395"/><text text-anchor="middle" fill="#333" x="1160" y="415">15-04</text><g transform="translate(1125,435)"></g></g><g><g transform="translate(1205,385)"></g><rect fill="none" stroke="#DDD" width="70" height="30" rx="8" ry="8" x="1205" y="395"/><text text-anchor="middle" fill="#333" x="1240" y="415">15-05</text><g transform="translate(1205,435)"></g></g></svg>