<svg xmlns="http://www.w3.org/2000/svg" xmlns:xlink="http://www.w3.org/1999/xlink" width="100%" height="100%" viewBox="0 0 1280 460"><g><g transform="translate(5,405)"><g><a target="_top" xlink:href="dtp-sliceTagKitchen-step2628000-ofs3-col3-cat0.html"><rect style="display:none" class="hcell-act-col3-cat0" fill="#777" stroke="#000" stroke-width="5" width="70" height="216" x="0" y="-221" rx="8" ry="8"/><rect class="hcell-col3-cat0" fill="#777" stroke="#DDD" width="70" height="226" x="0" y="-226" rx="8" ry="8"/><text text-anchor="middle" fill="#FFF" x="35" y="-206">52</text></a></g></g><rect fill="none" stroke="#DDD" width="70" height="30" rx="8" ry="8" x="5" y="415"/><text text-anchor="middle" fill="#333" x="40" y="435">12-10</text><g transform="translate(5,455)"></g></g><g><g transform="translate(85,405)"><g><a target="_top" xlink:href="dtp-sliceTagKitchen-step2628000-ofs3-col4-cat0.html"><rect style="display:none" class="hcell-act-col4-cat0" fill="#777" stroke="#000" stroke-width="5" width="70" height="138" x="0" y="-143" rx="8" ry="8"/><rect class="hcell-col4-cat0" fill="#777" stroke="#DDD" width="70" height="148" x="0" y="-148" rx="8" ry="8"/><text text-anchor="middle" fill="#FFF" x="35" y="-128">34</text></a></g></g><rect fill="none" stroke="#DDD" width="70" height="30" rx="8" ry="8" x="85" y="415"/><text text-anchor="middle" fill="#333" x="120" y="435">12-10</text><g transform="translate(85,455)"></g></g><g><g transform="translate(165,405)"><g><a target="_top" xlink:href="dtp-sliceTagKitchen-step2628000-ofs3-col5-cat0.html"><rect style="display:none" class="hcell-act-col5-cat0" fill="#777" stroke="#000" stroke-width="5" width="70" height="40" x="0" y="-45" rx="8" ry="8"/><rect class="hcell-col5-cat0" fill="#777" stroke="#DDD" width="70" height="50" x="0" y="-50" rx="8" ry="8"/><text text-anchor="middle" fill="#FFF" x="35" y="-30">11</text></a></g></g><rect fill="none" stroke="#DDD" width="70" height="30" rx="8" ry="8" x="165" y="415"/><text text-anchor="middle" fill="#333" x="200" y="435">12-12</text><g transform="translate(165,455)"></g></g><g><g transform="translate(245,405)"><g><a target="_top" xlink:href="dtp-sliceTagKitchen-step2628000-ofs3-col6-cat0.html"><rect style="display:none" class="hcell-act-col6-cat0" fill="#777" stroke="#000" stroke-width="5" width="70" height="250" x="0" y="-255" rx="8" ry="8"/><rect class="hcell-col6-cat0" fill="#777" stroke="#DDD" width="70" height="260" x="0" y="-260" rx="8" ry="8"/><text text-anchor="middle" fill="#FFF" x="35" y="-240">60</text></a></g></g><rect fill="none" stroke="#DDD" width="70" height="30" rx="8" ry="8" x="245" y="415"/><text text-anchor="middle" fill="#333" x="280" y="435">12-12</text><g transform="translate(245,455)"></g></g><g><g transform="translate(325,405)"><g><a target="_top" xlink:href="dtp-sliceTagKitchen-step2628000-ofs3-col7-cat0.html"><rect style="display:none" class="hcell-act-col7-cat0" fill="#777" stroke="#000" stroke-width="5" width="70" height="112" x="0" y="-117" rx="8" ry="8"/><rect class="hcell-col7-cat0" fill="#777" stroke="#DDD" width="70" height="122" x="0" y="-122" rx="8" ry="8"/><text text-anchor="middle" fill="#FFF" x="35" y="-102">28</text></a></g></g><rect fill="none" stroke="#DDD" width="70" height="30" rx="8" ry="8" x="325" y="415"/><text text-anchor="middle" fill="#333" x="360" y="435">13-01</text><g transform="translate(325,455)"></g></g><g><g transform="translate(405,405)"><g><a target="_top" xlink:href="dtp-sliceTagKitchen-step2628000-ofs3-col8-cat0.html"><rect style="display:none" class="hcell-act-col8-cat0" fill="#777" stroke="#000" stroke-width="5" width="70" height="390" x="0" y="-395" rx="8" ry="8"/><rect class="hcell-col8-cat0" fill="#777" stroke="#DDD" width="70" height="400" x="0" y="-400" rx="8" ry="8"/><text text-anchor="middle" fill="#FFF" x="35" y="-380">92</text></a></g></g><rect fill="none" stroke="#DDD" width="70" height="30" rx="8" ry="8" x="405" y="415"/><text text-anchor="middle" fill="#333" x="440" y="435">13-03</text><g transform="translate(405,455)"></g></g><g><g transform="translate(485,405)"><g><a target="_top" xlink:href="dtp-sliceTagKitchen-step2628000-ofs3-col9-cat0.html"><rect style="display:none" class="hcell-act-col9-cat0" fill="#777" stroke="#000" stroke-width="5" width="70" height="55" x="0" y="-60" rx="8" ry="8"/><rect class="hcell-col9-cat0" fill="#777" stroke="#DDD" width="70" height="65" x="0" y="-65" rx="8" ry="8"/><text text-anchor="middle" fill="#FFF" x="35" y="-45">15</text></a></g></g><rect fill="none" stroke="#DDD" width="70" height="30" rx="8" ry="8" x="485" y="415"/><text text-anchor="middle" fill="#333" x="520" y="435">13-04</text><g transform="translate(485,455)"></g></g><g><g transform="translate(565,405)"><g><a target="_top" xlink:href="dtp-sliceTagKitchen-step2628000-ofs3-col10-cat0.html"><rect style="display:none" class="hcell-act-col10-cat0" fill="#777" stroke="#000" stroke-width="5" width="70" height="191" x="0" y="-196" rx="8" ry="8"/><rect class="hcell-col10-cat0" fill="#777" stroke="#DDD" width="70" height="201" x="0" y="-201" rx="8" ry="8"/><text text-anchor="middle" fill="#FFF" x="35" y="-181">46</text></a></g></g><rect fill="none" stroke="#DDD" width="70" height="30" rx="8" ry="8" x="565" y="415"/><text text-anchor="middle" fill="#333" x="600" y="435">13-05</text><g transform="translate(565,455)"></g></g><g><g transform="translate(645,405)"><g><a target="_top" xlink:href="dtp-sliceTagKitchen-step2628000-ofs3-col11-cat0.html"><rect style="display:none" class="hcell-act-col11-cat0" fill="#777" stroke="#000" stroke-width="5" width="70" height="100" x="0" y="-105" rx="8" ry="8"/><rect class="hcell-col11-cat0" fill="#777" stroke="#DDD" width="70" height="110" x="0" y="-110" rx="8" ry="8"/><text text-anchor="middle" fill="#FFF" x="35" y="-90">25</text></a></g></g><rect fill="none" stroke="#DDD" width="70" height="30" rx="8" ry="8" x="645" y="415"/><text text-anchor="middle" fill="#333" x="680" y="435">13-06</text><g transform="translate(645,455)"></g></g><g><g transform="translate(725,405)"><g><a target="_top" xlink:href="dtp-sliceTagKitchen-step2628000-ofs3-col12-cat0.html"><rect style="display:none" class="hcell-act-col12-cat0" fill="#777" stroke="#000" stroke-width="5" width="70" height="173" x="0" y="-178" rx="8" ry="8"/><rect class="hcell-col12-cat0" fill="#777" stroke="#DDD" width="70" height="183" x="0" y="-183" rx="8" ry="8"/><text text-anchor="middle" fill="#FFF" x="35" y="-163">42</text></a></g></g><rect fill="none" stroke="#DDD" width="70" height="30" rx="8" ry="8" x="725" y="415"/><text text-anchor="middle" fill="#333" x="760" y="435">13-07</text><g transform="translate(725,455)"></g></g><g><g transform="translate(805,405)"><g><a target="_top" xlink:href="dtp-sliceTagKitchen-step2628000-ofs3-col13-cat0.html"><rect style="display:none" class="hcell-act-col13-cat0" fill="#777" stroke="#000" stroke-width="5" width="70" height="25" x="0" y="-30" rx="8" ry="8"/><rect class="hcell-col13-cat0" fill="#777" stroke="#DDD" width="70" height="35" x="0" y="-35" rx="8" ry="8"/><text text-anchor="middle" fill="#FFF" x="35" y="-15">8</text></a></g></g><rect fill="none" stroke="#DDD" width="70" height="30" rx="8" ry="8" x="805" y="415"/><text text-anchor="middle" fill="#333" x="840" y="435">13-08</text><g transform="translate(805,455)"></g></g><g><g transform="translate(885,405)"></g><rect fill="none" stroke="#DDD" width="70" height="30" rx="8" ry="8" x="885" y="415"/><text text-anchor="middle" fill="#333" x="920" y="435">13-08</text><g transform="translate(885,455)"></g></g><g><g transform="translate(965,405)"><g><a target="_top" xlink:href="dtp-sliceTagKitchen-step2628000-ofs3-col15-cat0.html"><rect style="display:none" class="hcell-act-col15-cat0" fill="#777" stroke="#000" stroke-width="5" width="70" height="179" x="0" y="-184" rx="8" ry="8"/><rect class="hcell-col15-cat0" fill="#777" stroke="#DDD" width="70" height="189" x="0" y="-189" rx="8" ry="8"/><text text-anchor="middle" fill="#FFF" x="35" y="-169">43</text></a></g></g><rect fill="none" stroke="#DDD" width="70" height="30" rx="8" ry="8" x="965" y="415"/><text text-anchor="middle" fill="#333" x="1000" y="435">13-10</text><g transform="translate(965,455)"></g></g><g><g transform="translate(1045,405)"></g><rect fill="none" stroke="#DDD" width="70" height="30" rx="8" ry="8" x="1045" y="415"/><text text-anchor="middle" fill="#333" x="1080" y="435">13-10</text><g transform="translate(1045,455)"></g></g><g><g transform="translate(1125,405)"><g><a target="_top" xlink:href="dtp-sliceTagKitchen-step2628000-ofs3-col17-cat0.html"><rect style="display:none" class="hcell-act-col17-cat0" fill="#777" stroke="#000" stroke-width="5" width="70" height="103" x="0" y="-108" rx="8" ry="8"/><rect class="hcell-col17-cat0" fill="#777" stroke="#DDD" width="70" height="113" x="0" y="-113" rx="8" ry="8"/><text text-anchor="middle" fill="#FFF" x="35" y="-93">26</text></a></g></g><rect fill="none" stroke="#DDD" width="70" height="30" rx="8" ry="8" x="1125" y="415"/><text text-anchor="middle" fill="#333" x="1160" y="435">13-12</text><g transform="translate(1125,455)"></g></g><g><g transform="translate(1205,405)"><g><a target="_top" xlink:href="dtp-sliceTagKitchen-step2628000-ofs3-col18-cat0.html"><rect style="display:none" class="hcell-act-col18-cat0" fill="#777" stroke="#000" stroke-width="5" width="70" height="262" x="0" y="-267" rx="8" ry="8"/><rect class="hcell-col18-cat0" fill="#777" stroke="#DDD" width="70" height="272" x="0" y="-272" rx="8" ry="8"/><text text-anchor="middle" fill="#FFF" x="35" y="-252">63</text></a></g></g><rect fill="none" stroke="#DDD" width="70" height="30" rx="8" ry="8" x="1205" y="415"/><text text-anchor="middle" fill="#333" x="1240" y="435">13-12</text><g transform="translate(1205,455)"></g></g></svg>