<svg xmlns="http://www.w3.org/2000/svg" xmlns:xlink="http://www.w3.org/1999/xlink" width="100%" height="100%" viewBox="0 0 1280 459"><g><g transform="translate(5,332)"></g><rect fill="none" stroke="#DDD" width="70" height="30" rx="8" ry="8" x="5" y="342"/><text text-anchor="middle" fill="#333" x="40" y="362">14-01</text><g transform="translate(5,382)"></g></g><g><g transform="translate(85,332)"></g><rect fill="none" stroke="#DDD" width="70" height="30" rx="8" ry="8" x="85" y="342"/><text text-anchor="middle" fill="#333" x="120" y="362">14-03</text><g transform="translate(85,382)"></g></g><g><g transform="translate(165,332)"></g><rect fill="none" stroke="#DDD" width="70" height="30" rx="8" ry="8" x="165" y="342"/><text text-anchor="middle" fill="#333" x="200" y="362">14-04</text><g transform="translate(165,382)"></g></g><g><g transform="translate(245,332)"></g><rect fill="none" stroke="#DDD" width="70" height="30" rx="8" ry="8" x="245" y="342"/><text text-anchor="middle" fill="#333" x="280" y="362">14-05</text><g transform="translate(245,382)"></g></g><g><g transform="translate(325,332)"></g><rect fill="none" stroke="#DDD" width="70" height="30" rx="8" ry="8" x="325" y="342"/><text text-anchor="middle" fill="#333" x="360" y="362">14-06</text><g transform="translate(325,382)"></g></g><g><g transform="translate(405,332)"></g><rect fill="none" stroke="#DDD" width="70" height="30" rx="8" ry="8" x="405" y="342"/><text text-anchor="middle" fill="#333" x="440" y="362">14-07</text><g transform="translate(405,382)"></g></g><g><g transform="translate(485,332)"></g><rect fill="none" stroke="#DDD" width="70" height="30" rx="8" ry="8" x="485" y="342"/><text text-anchor="middle" fill="#333" x="520" y="362">14-08</text><g transform="translate(485,382)"><g><a target="_top" xlink:href="dtp-sliceTagOutdoor-step2628000-ofs19-col25-cat0.html"><rect style="display:none" class="hcell-act-col25-cat0" fill="#777" stroke="#000" stroke-width="5" width="70" height="20" x="0" y="5" rx="8" ry="8"/><rect class="hcell-col25-cat0" fill="#777" stroke="#DDD" width="70" height="30" x="0" y="0" rx="8" ry="8"/><text text-anchor="middle" fill="#FFF" x="35" y="20">-20</text></a></g></g></g><g><g transform="translate(565,332)"><g><a target="_top" xlink:href="dtp-sliceTagOutdoor-step2628000-ofs19-col26-cat0.html"><rect style="display:none" class="hcell-act-col26-cat0" fill="#777" stroke="#000" stroke-width="5" width="70" height="317" x="0" y="-322" rx="8" ry="8"/><rect class="hcell-col26-cat0" fill="#777" stroke="#DDD" width="70" height="327" x="0" y="-327" rx="8" ry="8"/><text text-anchor="middle" fill="#FFF" x="35" y="-307">224</text></a></g></g><rect fill="none" stroke="#DDD" width="70" height="30" rx="8" ry="8" x="565" y="342"/><text text-anchor="middle" fill="#333" x="600" y="362">14-08</text><g transform="translate(565,382)"></g></g><g><g transform="translate(645,332)"></g><rect fill="none" stroke="#DDD" width="70" height="30" rx="8" ry="8" x="645" y="342"/><text text-anchor="middle" fill="#333" x="680" y="362">14-10</text><g transform="translate(645,382)"><g><a target="_top" xlink:href="dtp-sliceTagOutdoor-step2628000-ofs19-col27-cat0.html"><rect style="display:none" class="hcell-act-col27-cat0" fill="#777" stroke="#000" stroke-width="5" width="70" height="57" x="0" y="5" rx="8" ry="8"/><rect class="hcell-col27-cat0" fill="#777" stroke="#DDD" width="70" height="67" x="0" y="0" rx="8" ry="8"/><text text-anchor="middle" fill="#FFF" x="35" y="20">-47</text></a></g></g></g><g><g transform="translate(725,332)"><g><a target="_top" xlink:href="dtp-sliceTagOutdoor-step2628000-ofs19-col28-cat0.html"><rect style="display:none" class="hcell-act-col28-cat0" fill="#777" stroke="#000" stroke-width="5" width="70" height="236" x="0" y="-241" rx="8" ry="8"/><rect class="hcell-col28-cat0" fill="#777" stroke="#DDD" width="70" height="246" x="0" y="-246" rx="8" ry="8"/><text text-anchor="middle" fill="#FFF" x="35" y="-226">169</text></a></g></g><rect fill="none" stroke="#DDD" width="70" height="30" rx="8" ry="8" x="725" y="342"/><text text-anchor="middle" fill="#333" x="760" y="362">14-10</text><g transform="translate(725,382)"></g></g><g><g transform="translate(805,332)"></g><rect fill="none" stroke="#DDD" width="70" height="30" rx="8" ry="8" x="805" y="342"/><text text-anchor="middle" fill="#333" x="840" y="362">14-12</text><g transform="translate(805,382)"><g><a target="_top" xlink:href="dtp-sliceTagOutdoor-step2628000-ofs19-col29-cat0.html"><rect style="display:none" class="hcell-act-col29-cat0" fill="#777" stroke="#000" stroke-width="5" width="70" height="62" x="0" y="5" rx="8" ry="8"/><rect class="hcell-col29-cat0" fill="#777" stroke="#DDD" width="70" height="72" x="0" y="0" rx="8" ry="8"/><text text-anchor="middle" fill="#FFF" x="35" y="20">-50</text></a></g></g></g><g><g transform="translate(885,332)"></g><rect fill="none" stroke="#DDD" width="70" height="30" rx="8" ry="8" x="885" y="342"/><text text-anchor="middle" fill="#333" x="920" y="362">14-12</text><g transform="translate(885,382)"><g><a target="_top" xlink:href="dtp-sliceTagOutdoor-step2628000-ofs19-col30-cat0.html"><rect style="display:none" class="hcell-act-col30-cat0" fill="#777" stroke="#000" stroke-width="5" width="70" height="62" x="0" y="5" rx="8" ry="8"/><rect class="hcell-col30-cat0" fill="#777" stroke="#DDD" width="70" height="72" x="0" y="0" rx="8" ry="8"/><text text-anchor="middle" fill="#FFF" x="35" y="20">-50</text></a></g></g></g><g><g transform="translate(965,332)"><g><a target="_top" xlink:href="dtp-sliceTagOutdoor-step2628000-ofs19-col31-cat0.html"><rect style="display:none" class="hcell-act-col31-cat0" fill="#777" stroke="#000" stroke-width="5" width="70" height="176" x="0" y="-181" rx="8" ry="8"/><rect class="hcell-col31-cat0" fill="#777" stroke="#DDD" width="70" height="186" x="0" y="-186" rx="8" ry="8"/><text text-anchor="middle" fill="#FFF" x="35" y="-166">127</text></a></g></g><rect fill="none" stroke="#DDD" width="70" height="30" rx="8" ry="8" x="965" y="342"/><text text-anchor="middle" fill="#333" x="1000" y="362">15-01</text><g transform="translate(965,382)"></g></g><g><g transform="translate(1045,332)"></g><rect fill="none" stroke="#DDD" width="70" height="30" rx="8" ry="8" x="1045" y="342"/><text text-anchor="middle" fill="#333" x="1080" y="362">15-03</text><g transform="translate(1045,382)"><g><a target="_top" xlink:href="dtp-sliceTagOutdoor-step2628000-ofs19-col32-cat0.html"><rect style="display:none" class="hcell-act-col32-cat0" fill="#777" stroke="#000" stroke-width="5" width="70" height="24" x="0" y="5" rx="8" ry="8"/><rect class="hcell-col32-cat0" fill="#777" stroke="#DDD" width="70" height="34" x="0" y="0" rx="8" ry="8"/><text text-anchor="middle" fill="#FFF" x="35" y="20">-24</text></a></g></g></g><g><g transform="translate(1125,332)"></g><rect fill="none" stroke="#DDD" width="70" height="30" rx="8" ry="8" x="1125" y="342"/><text text-anchor="middle" fill="#333" x="1160" y="362">15-04</text><g transform="translate(1125,382)"><g><a target="_top" xlink:href="dtp-sliceTagOutdoor-step2628000-ofs19-col33-cat0.html"><rect style="display:none" class="hcell-act-col33-cat0" fill="#777" stroke="#000" stroke-width="5" width="70" height="49" x="0" y="5" rx="8" ry="8"/><rect class="hcell-col33-cat0" fill="#777" stroke="#DDD" width="70" height="59" x="0" y="0" rx="8" ry="8"/><text text-anchor="middle" fill="#FFF" x="35" y="20">-41</text></a></g></g></g><g><g transform="translate(1205,332)"></g><rect fill="none" stroke="#DDD" width="70" height="30" rx="8" ry="8" x="1205" y="342"/><text text-anchor="middle" fill="#333" x="1240" y="362">15-05</text><g transform="translate(1205,382)"><g><a target="_top" xlink:href="dtp-sliceTagOutdoor-step2628000-ofs19-col34-cat0.html"><rect style="display:none" class="hcell-act-col34-cat0" fill="#777" stroke="#000" stroke-width="5" width="70" height="62" x="0" y="5" rx="8" ry="8"/><rect class="hcell-col34-cat0" fill="#777" stroke="#DDD" width="70" height="72" x="0" y="0" rx="8" ry="8"/><text text-anchor="middle" fill="#FFF" x="35" y="20">-50</text></a></g></g></g></svg>