<svg xmlns="http://www.w3.org/2000/svg" xmlns:xlink="http://www.w3.org/1999/xlink" width="100%" height="100%" viewBox="0 0 1280 459"><g><g transform="translate(5,217)"></g><rect fill="none" stroke="#DDD" width="70" height="30" rx="8" ry="8" x="5" y="227"/><text text-anchor="middle" fill="#333" x="40" y="247">14-01</text><g transform="translate(5,267)"></g></g><g><g transform="translate(85,217)"></g><rect fill="none" stroke="#DDD" width="70" height="30" rx="8" ry="8" x="85" y="227"/><text text-anchor="middle" fill="#333" x="120" y="247">14-03</text><g transform="translate(85,267)"></g></g><g><g transform="translate(165,217)"></g><rect fill="none" stroke="#DDD" width="70" height="30" rx="8" ry="8" x="165" y="227"/><text text-anchor="middle" fill="#333" x="200" y="247">14-04</text><g transform="translate(165,267)"></g></g><g><g transform="translate(245,217)"></g><rect fill="none" stroke="#DDD" width="70" height="30" rx="8" ry="8" x="245" y="227"/><text text-anchor="middle" fill="#333" x="280" y="247">14-05</text><g transform="translate(245,267)"></g></g><g><g transform="translate(325,217)"></g><rect fill="none" stroke="#DDD" width="70" height="30" rx="8" ry="8" x="325" y="227"/><text text-anchor="middle" fill="#333" x="360" y="247">14-06</text><g transform="translate(325,267)"></g></g><g><g transform="translate(405,217)"></g><rect fill="none" stroke="#DDD" width="70" height="30" rx="8" ry="8" x="405" y="227"/><text text-anchor="middle" fill="#333" x="440" y="247">14-07</text><g transform="translate(405,267)"></g></g><g><g transform="translate(485,217)"></g><rect fill="none" stroke="#DDD" width="70" height="30" rx="8" ry="8" x="485" y="227"/><text text-anchor="middle" fill="#333" x="520" y="247">14-08</text><g transform="translate(485,267)"><g><a target="_top" xlink:href="dtp-sliceTagHygiene-step2628000-ofs19-col25-cat0.html"><rect style="display:none" class="hcell-act-col25-cat0" fill="#777" stroke="#000" stroke-width="5" width="70" height="20" x="0" y="5" rx="8" ry="8"/><rect class="hcell-col25-cat0" fill="#777" stroke="#DDD" width="70" height="30" x="0" y="0" rx="8" ry="8"/><text text-anchor="middle" fill="#FFF" x="35" y="20">-15</text></a></g></g></g><g><g transform="translate(565,217)"></g><rect fill="none" stroke="#DDD" width="70" height="30" rx="8" ry="8" x="565" y="227"/><text text-anchor="middle" fill="#333" x="600" y="247">14-08</text><g transform="translate(565,267)"><g><a target="_top" xlink:href="dtp-sliceTagHygiene-step2628000-ofs19-col26-cat0.html"><rect style="display:none" class="hcell-act-col26-cat0" fill="#777" stroke="#000" stroke-width="5" width="70" height="47" x="0" y="5" rx="8" ry="8"/><rect class="hcell-col26-cat0" fill="#777" stroke="#DDD" width="70" height="57" x="0" y="0" rx="8" ry="8"/><text text-anchor="middle" fill="#FFF" x="35" y="20">-31</text></a></g></g></g><g><g transform="translate(645,217)"></g><rect fill="none" stroke="#DDD" width="70" height="30" rx="8" ry="8" x="645" y="227"/><text text-anchor="middle" fill="#333" x="680" y="247">14-10</text><g transform="translate(645,267)"><g><a target="_top" xlink:href="dtp-sliceTagHygiene-step2628000-ofs19-col27-cat0.html"><rect style="display:none" class="hcell-act-col27-cat0" fill="#777" stroke="#000" stroke-width="5" width="70" height="163" x="0" y="5" rx="8" ry="8"/><rect class="hcell-col27-cat0" fill="#777" stroke="#DDD" width="70" height="173" x="0" y="0" rx="8" ry="8"/><text text-anchor="middle" fill="#FFF" x="35" y="20">-93</text></a></g></g></g><g><g transform="translate(725,217)"><g><a target="_top" xlink:href="dtp-sliceTagHygiene-step2628000-ofs19-col28-cat0.html"><rect style="display:none" class="hcell-act-col28-cat0" fill="#777" stroke="#000" stroke-width="5" width="70" height="202" x="0" y="-207" rx="8" ry="8"/><rect class="hcell-col28-cat0" fill="#777" stroke="#DDD" width="70" height="212" x="0" y="-212" rx="8" ry="8"/><text text-anchor="middle" fill="#FFF" x="35" y="-192">112</text></a></g></g><rect fill="none" stroke="#DDD" width="70" height="30" rx="8" ry="8" x="725" y="227"/><text text-anchor="middle" fill="#333" x="760" y="247">14-10</text><g transform="translate(725,267)"></g></g><g><g transform="translate(805,217)"></g><rect fill="none" stroke="#DDD" width="70" height="30" rx="8" ry="8" x="805" y="227"/><text text-anchor="middle" fill="#333" x="840" y="247">14-12</text><g transform="translate(805,267)"><g><a target="_top" xlink:href="dtp-sliceTagHygiene-step2628000-ofs19-col29-cat0.html"><rect style="display:none" class="hcell-act-col29-cat0" fill="#777" stroke="#000" stroke-width="5" width="70" height="52" x="0" y="5" rx="8" ry="8"/><rect class="hcell-col29-cat0" fill="#777" stroke="#DDD" width="70" height="62" x="0" y="0" rx="8" ry="8"/><text text-anchor="middle" fill="#FFF" x="35" y="20">-34</text></a></g></g></g><g><g transform="translate(885,217)"></g><rect fill="none" stroke="#DDD" width="70" height="30" rx="8" ry="8" x="885" y="227"/><text text-anchor="middle" fill="#333" x="920" y="247">14-12</text><g transform="translate(885,267)"><g><a target="_top" xlink:href="dtp-sliceTagHygiene-step2628000-ofs19-col30-cat0.html"><rect style="display:none" class="hcell-act-col30-cat0" fill="#777" stroke="#000" stroke-width="5" width="70" height="27" x="0" y="5" rx="8" ry="8"/><rect class="hcell-col30-cat0" fill="#777" stroke="#DDD" width="70" height="37" x="0" y="0" rx="8" ry="8"/><text text-anchor="middle" fill="#FFF" x="35" y="20">-20</text></a></g></g></g><g><g transform="translate(965,217)"></g><rect fill="none" stroke="#DDD" width="70" height="30" rx="8" ry="8" x="965" y="227"/><text text-anchor="middle" fill="#333" x="1000" y="247">15-01</text><g transform="translate(965,267)"><g><a target="_top" xlink:href="dtp-sliceTagHygiene-step2628000-ofs19-col31-cat0.html"><rect style="display:none" class="hcell-act-col31-cat0" fill="#777" stroke="#000" stroke-width="5" width="70" height="20" x="0" y="5" rx="8" ry="8"/><rect class="hcell-col31-cat0" fill="#777" stroke="#DDD" width="70" height="30" x="0" y="0" rx="8" ry="8"/><text text-anchor="middle" fill="#FFF" x="35" y="20">-3</text></a></g></g></g><g><g transform="translate(1045,217)"></g><rect fill="none" stroke="#DDD" width="70" height="30" rx="8" ry="8" x="1045" y="227"/><text text-anchor="middle" fill="#333" x="1080" y="247">15-03</text><g transform="translate(1045,267)"><g><a target="_top" xlink:href="dtp-sliceTagHygiene-step2628000-ofs19-col32-cat0.html"><rect style="display:none" class="hcell-act-col32-cat0" fill="#777" stroke="#000" stroke-width="5" width="70" height="113" x="0" y="5" rx="8" ry="8"/><rect class="hcell-col32-cat0" fill="#777" stroke="#DDD" width="70" height="123" x="0" y="0" rx="8" ry="8"/><text text-anchor="middle" fill="#FFF" x="35" y="20">-66</text></a></g></g></g><g><g transform="translate(1125,217)"></g><rect fill="none" stroke="#DDD" width="70" height="30" rx="8" ry="8" x="1125" y="227"/><text text-anchor="middle" fill="#333" x="1160" y="247">15-04</text><g transform="translate(1125,267)"><g><a target="_top" xlink:href="dtp-sliceTagHygiene-step2628000-ofs19-col33-cat0.html"><rect style="display:none" class="hcell-act-col33-cat0" fill="#777" stroke="#000" stroke-width="5" width="70" height="20" x="0" y="5" rx="8" ry="8"/><rect class="hcell-col33-cat0" fill="#777" stroke="#DDD" width="70" height="30" x="0" y="0" rx="8" ry="8"/><text text-anchor="middle" fill="#FFF" x="35" y="20">-7</text></a></g></g></g><g><g transform="translate(1205,217)"></g><rect fill="none" stroke="#DDD" width="70" height="30" rx="8" ry="8" x="1205" y="227"/><text text-anchor="middle" fill="#333" x="1240" y="247">15-05</text><g transform="translate(1205,267)"><g><a target="_top" xlink:href="dtp-sliceTagHygiene-step2628000-ofs19-col34-cat0.html"><rect style="display:none" class="hcell-act-col34-cat0" fill="#777" stroke="#000" stroke-width="5" width="70" height="177" x="0" y="5" rx="8" ry="8"/><rect class="hcell-col34-cat0" fill="#777" stroke="#DDD" width="70" height="187" x="0" y="0" rx="8" ry="8"/><text text-anchor="middle" fill="#FFF" x="35" y="20">-100</text></a></g></g></g></svg>