<svg xmlns="http://www.w3.org/2000/svg" xmlns:xlink="http://www.w3.org/1999/xlink" width="100%" height="100%" viewBox="0 0 400 460"><g><g transform="translate(5,181)"></g><rect fill="none" stroke="#DDD" width="70" height="30" rx="8" ry="8" x="5" y="191"/><text text-anchor="middle" fill="#333" x="40" y="211">14-12</text><g transform="translate(5,231)"><g><a target="_top" xlink:href="mob-sliceTagPhone-step2628000-ofs30-col30-cat0.html"><rect style="display:none" class="hcell-act-col30-cat0" fill="#777" stroke="#000" stroke-width="5" width="70" height="76" x="0" y="5" rx="8" ry="8"/><rect class="hcell-col30-cat0" fill="#777" stroke="#DDD" width="70" height="86" x="0" y="0" rx="8" ry="8"/><text text-anchor="middle" fill="#FFF" x="35" y="20">-27</text></a></g></g></g><g><g transform="translate(85,181)"><g><a target="_top" xlink:href="mob-sliceTagPhone-step2628000-ofs30-col31-cat0.html"><rect style="display:none" class="hcell-act-col31-cat0" fill="#777" stroke="#000" stroke-width="5" width="70" height="166" x="0" y="-171" rx="8" ry="8"/><rect class="hcell-col31-cat0" fill="#777" stroke="#DDD" width="70" height="176" x="0" y="-176" rx="8" ry="8"/><text text-anchor="middle" fill="#FFF" x="35" y="-156">55</text></a></g></g><rect fill="none" stroke="#DDD" width="70" height="30" rx="8" ry="8" x="85" y="191"/><text text-anchor="middle" fill="#333" x="120" y="211">15-01</text><g transform="translate(85,231)"></g></g><g><g transform="translate(165,181)"><g><a target="_top" xlink:href="mob-sliceTagPhone-step2628000-ofs30-col32-cat0.html"><rect style="display:none" class="hcell-act-col32-cat0" fill="#777" stroke="#000" stroke-width="5" width="70" height="140" x="0" y="-145" rx="8" ry="8"/><rect class="hcell-col32-cat0" fill="#777" stroke="#DDD" width="70" height="150" x="0" y="-150" rx="8" ry="8"/><text text-anchor="middle" fill="#FFF" x="35" y="-130">47</text></a></g></g><rect fill="none" stroke="#DDD" width="70" height="30" rx="8" ry="8" x="165" y="191"/><text text-anchor="middle" fill="#333" x="200" y="211">15-03</text><g transform="translate(165,231)"></g></g><g><g transform="translate(245,181)"><g><a target="_top" xlink:href="mob-sliceTagPhone-step2628000-ofs30-col33-cat0.html"><rect style="display:none" class="hcell-act-col33-cat0" fill="#777" stroke="#000" stroke-width="5" width="70" height="20" x="0" y="-25" rx="8" ry="8"/><rect class="hcell-col33-cat0" fill="#777" stroke="#DDD" width="70" height="30" x="0" y="-30" rx="8" ry="8"/><text text-anchor="middle" fill="#FFF" x="35" y="-10">7</text></a></g></g><rect fill="none" stroke="#DDD" width="70" height="30" rx="8" ry="8" x="245" y="191"/><text text-anchor="middle" fill="#333" x="280" y="211">15-04</text><g transform="translate(245,231)"></g></g><g><g transform="translate(325,181)"></g><rect fill="none" stroke="#DDD" width="70" height="30" rx="8" ry="8" x="325" y="191"/><text text-anchor="middle" fill="#333" x="360" y="211">15-05</text><g transform="translate(325,231)"><g><a target="_top" xlink:href="mob-sliceTagPhone-step2628000-ofs30-col34-cat0.html"><rect style="display:none" class="hcell-act-col34-cat0" fill="#777" stroke="#000" stroke-width="5" width="70" height="214" x="0" y="5" rx="8" ry="8"/><rect class="hcell-col34-cat0" fill="#777" stroke="#DDD" width="70" height="224" x="0" y="0" rx="8" ry="8"/><text text-anchor="middle" fill="#FFF" x="35" y="20">-70</text></a></g></g></g></svg>