<svg xmlns="http://www.w3.org/2000/svg" xmlns:xlink="http://www.w3.org/1999/xlink" width="100%" height="100%" viewBox="0 0 400 459"><g><g transform="translate(5,63)"></g><rect fill="none" stroke="#DDD" width="70" height="30" rx="8" ry="8" x="5" y="73"/><text text-anchor="middle" fill="#333" x="40" y="93">14-12</text><g transform="translate(5,113)"></g></g><g><g transform="translate(85,63)"><g><a target="_top" xlink:href="mob-sliceTagVioGorCard-step2628000-ofs30-col31-cat0.html"><rect style="display:none" class="hcell-act-col31-cat0" fill="#777" stroke="#000" stroke-width="5" width="70" height="48" x="0" y="-53" rx="8" ry="8"/><rect class="hcell-col31-cat0" fill="#777" stroke="#DDD" width="70" height="58" x="0" y="-58" rx="8" ry="8"/><text text-anchor="middle" fill="#FFF" x="35" y="-38">9</text></a></g></g><rect fill="none" stroke="#DDD" width="70" height="30" rx="8" ry="8" x="85" y="73"/><text text-anchor="middle" fill="#333" x="120" y="93">15-01</text><g transform="translate(85,113)"></g></g><g><g transform="translate(165,63)"></g><rect fill="none" stroke="#DDD" width="70" height="30" rx="8" ry="8" x="165" y="73"/><text text-anchor="middle" fill="#333" x="200" y="93">15-03</text><g transform="translate(165,113)"></g></g><g><g transform="translate(245,63)"></g><rect fill="none" stroke="#DDD" width="70" height="30" rx="8" ry="8" x="245" y="73"/><text text-anchor="middle" fill="#333" x="280" y="93">15-04</text><g transform="translate(245,113)"><g><a target="_top" xlink:href="mob-sliceTagVioGorCard-step2628000-ofs30-col33-cat0.html"><rect style="display:none" class="hcell-act-col33-cat0" fill="#777" stroke="#000" stroke-width="5" width="70" height="331" x="0" y="5" rx="8" ry="8"/><rect class="hcell-col33-cat0" fill="#777" stroke="#DDD" width="70" height="341" x="0" y="0" rx="8" ry="8"/><text text-anchor="middle" fill="#FFF" x="35" y="20">-59</text></a></g></g></g><g><g transform="translate(325,63)"></g><rect fill="none" stroke="#DDD" width="70" height="30" rx="8" ry="8" x="325" y="73"/><text text-anchor="middle" fill="#333" x="360" y="93">15-05</text><g transform="translate(325,113)"></g></g></svg>