<svg xmlns="http://www.w3.org/2000/svg" xmlns:xlink="http://www.w3.org/1999/xlink" width="100%" height="100%" viewBox="0 0 400 459"><g><g transform="translate(5,276)"></g><rect fill="none" stroke="#DDD" width="70" height="30" rx="8" ry="8" x="5" y="286"/><text text-anchor="middle" fill="#333" x="40" y="306">13-10</text><g transform="translate(5,326)"><g><a target="_top" xlink:href="mob-sliceTagVisa8394-step2628000-ofs15-col15-cat0.html"><rect style="display:none" class="hcell-act-col15-cat0" fill="#777" stroke="#000" stroke-width="5" width="70" height="63" x="0" y="5" rx="8" ry="8"/><rect class="hcell-col15-cat0" fill="#777" stroke="#DDD" width="70" height="73" x="0" y="0" rx="8" ry="8"/><text text-anchor="middle" fill="#FFF" x="35" y="20">-502</text></a></g></g></g><g><g transform="translate(85,276)"><g><a target="_top" xlink:href="mob-sliceTagVisa8394-step2628000-ofs15-col16-cat0.html"><rect style="display:none" class="hcell-act-col16-cat0" fill="#777" stroke="#000" stroke-width="5" width="70" height="261" x="0" y="-266" rx="8" ry="8"/><rect class="hcell-col16-cat0" fill="#777" stroke="#DDD" width="70" height="271" x="0" y="-271" rx="8" ry="8"/><text text-anchor="middle" fill="#FFF" x="35" y="-251">1849</text></a></g></g><rect fill="none" stroke="#DDD" width="70" height="30" rx="8" ry="8" x="85" y="286"/><text text-anchor="middle" fill="#333" x="120" y="306">13-10</text><g transform="translate(85,326)"><g><a target="_top" xlink:href="mob-sliceTagVisa8394-step2628000-ofs15-col16-cat0.html"><rect style="display:none" class="hcell-act-col16-cat0" fill="#777" stroke="#000" stroke-width="5" width="70" height="107" x="0" y="5" rx="8" ry="8"/><rect class="hcell-col16-cat0" fill="#777" stroke="#DDD" width="70" height="117" x="0" y="0" rx="8" ry="8"/><text text-anchor="middle" fill="#FFF" x="35" y="20">-801</text></a></g></g></g><g><g transform="translate(165,276)"></g><rect fill="none" stroke="#DDD" width="70" height="30" rx="8" ry="8" x="165" y="286"/><text text-anchor="middle" fill="#333" x="200" y="306">13-12</text><g transform="translate(165,326)"><g><a target="_top" xlink:href="mob-sliceTagVisa8394-step2628000-ofs15-col17-cat0.html"><rect style="display:none" class="hcell-act-col17-cat0" fill="#777" stroke="#000" stroke-width="5" width="70" height="118" x="0" y="5" rx="8" ry="8"/><rect class="hcell-col17-cat0" fill="#777" stroke="#DDD" width="70" height="128" x="0" y="0" rx="8" ry="8"/><text text-anchor="middle" fill="#FFF" x="35" y="20">-878</text></a></g></g></g><g><g transform="translate(245,276)"></g><rect fill="none" stroke="#DDD" width="70" height="30" rx="8" ry="8" x="245" y="286"/><text text-anchor="middle" fill="#333" x="280" y="306">13-12</text><g transform="translate(245,326)"><g><a target="_top" xlink:href="mob-sliceTagVisa8394-step2628000-ofs15-col18-cat0.html"><rect style="display:none" class="hcell-act-col18-cat0" fill="#777" stroke="#000" stroke-width="5" width="70" height="35" x="0" y="5" rx="8" ry="8"/><rect class="hcell-col18-cat0" fill="#777" stroke="#DDD" width="70" height="45" x="0" y="0" rx="8" ry="8"/><text text-anchor="middle" fill="#FFF" x="35" y="20">-313</text></a></g></g></g><g><g transform="translate(325,276)"></g><rect fill="none" stroke="#DDD" width="70" height="30" rx="8" ry="8" x="325" y="286"/><text text-anchor="middle" fill="#333" x="360" y="306">14-01</text><g transform="translate(325,326)"><g><a target="_top" xlink:href="mob-sliceTagVisa8394-step2628000-ofs15-col19-cat0.html"><rect style="display:none" class="hcell-act-col19-cat0" fill="#777" stroke="#000" stroke-width="5" width="70" height="41" x="0" y="5" rx="8" ry="8"/><rect class="hcell-col19-cat0" fill="#777" stroke="#DDD" width="70" height="51" x="0" y="0" rx="8" ry="8"/><text text-anchor="middle" fill="#FFF" x="35" y="20">-349</text></a></g></g></g></svg>