<svg xmlns="http://www.w3.org/2000/svg" xmlns:xlink="http://www.w3.org/1999/xlink" width="100%" height="100%" viewBox="0 0 400 465"><g><g transform="translate(5,380)"><g><a target="_top" xlink:href="mob-sliceTagPayment-step2628000-ofs10-col10-cat0.html"><rect style="display:none" class="hcell-act-col10-cat0" fill="#777" stroke="#000" stroke-width="5" width="70" height="365" x="0" y="-370" rx="8" ry="8"/><rect class="hcell-col10-cat0" fill="#777" stroke="#DDD" width="70" height="375" x="0" y="-375" rx="8" ry="8"/><text text-anchor="middle" fill="#FFF" x="35" y="-355">1141</text></a></g></g><rect fill="none" stroke="#DDD" width="70" height="30" rx="8" ry="8" x="5" y="390"/><text text-anchor="middle" fill="#333" x="40" y="410">13-05</text><g transform="translate(5,430)"><g><a target="_top" xlink:href="mob-sliceTagPayment-step2628000-ofs10-col10-cat0.html"><rect style="display:none" class="hcell-act-col10-cat0" fill="#777" stroke="#000" stroke-width="5" width="70" height="20" x="0" y="5" rx="8" ry="8"/><rect class="hcell-col10-cat0" fill="#777" stroke="#DDD" width="70" height="30" x="0" y="0" rx="8" ry="8"/><text text-anchor="middle" fill="#FFF" x="35" y="20">-32</text></a></g></g></g><g><g transform="translate(85,380)"><g><a target="_top" xlink:href="mob-sliceTagPayment-step2628000-ofs10-col11-cat0.html"><rect style="display:none" class="hcell-act-col11-cat0" fill="#777" stroke="#000" stroke-width="5" width="70" height="20" x="0" y="-25" rx="8" ry="8"/><rect class="hcell-col11-cat0" fill="#777" stroke="#DDD" width="70" height="30" x="0" y="-30" rx="8" ry="8"/><text text-anchor="middle" fill="#FFF" x="35" y="-10">16</text></a></g></g><rect fill="none" stroke="#DDD" width="70" height="30" rx="8" ry="8" x="85" y="390"/><text text-anchor="middle" fill="#333" x="120" y="410">13-06</text><g transform="translate(85,430)"><g><a target="_top" xlink:href="mob-sliceTagPayment-step2628000-ofs10-col11-cat0.html"><rect style="display:none" class="hcell-act-col11-cat0" fill="#777" stroke="#000" stroke-width="5" width="70" height="20" x="0" y="5" rx="8" ry="8"/><rect class="hcell-col11-cat0" fill="#777" stroke="#DDD" width="70" height="30" x="0" y="0" rx="8" ry="8"/><text text-anchor="middle" fill="#FFF" x="35" y="20">-55</text></a></g></g></g><g><g transform="translate(165,380)"></g><rect fill="none" stroke="#DDD" width="70" height="30" rx="8" ry="8" x="165" y="390"/><text text-anchor="middle" fill="#333" x="200" y="410">13-07</text><g transform="translate(165,430)"><g><a target="_top" xlink:href="mob-sliceTagPayment-step2628000-ofs10-col12-cat0.html"><rect style="display:none" class="hcell-act-col12-cat0" fill="#777" stroke="#000" stroke-width="5" width="70" height="20" x="0" y="5" rx="8" ry="8"/><rect class="hcell-col12-cat0" fill="#777" stroke="#DDD" width="70" height="30" x="0" y="0" rx="8" ry="8"/><text text-anchor="middle" fill="#FFF" x="35" y="20">-76</text></a></g></g></g><g><g transform="translate(245,380)"></g><rect fill="none" stroke="#DDD" width="70" height="30" rx="8" ry="8" x="245" y="390"/><text text-anchor="middle" fill="#333" x="280" y="410">13-08</text><g transform="translate(245,430)"><g><a target="_top" xlink:href="mob-sliceTagPayment-step2628000-ofs10-col13-cat0.html"><rect style="display:none" class="hcell-act-col13-cat0" fill="#777" stroke="#000" stroke-width="5" width="70" height="20" x="0" y="5" rx="8" ry="8"/><rect class="hcell-col13-cat0" fill="#777" stroke="#DDD" width="70" height="30" x="0" y="0" rx="8" ry="8"/><text text-anchor="middle" fill="#FFF" x="35" y="20">-68</text></a></g></g></g><g><g transform="translate(325,380)"></g><rect fill="none" stroke="#DDD" width="70" height="30" rx="8" ry="8" x="325" y="390"/><text text-anchor="middle" fill="#333" x="360" y="410">13-08</text><g transform="translate(325,430)"><g><a target="_top" xlink:href="mob-sliceTagPayment-step2628000-ofs10-col14-cat0.html"><rect style="display:none" class="hcell-act-col14-cat0" fill="#777" stroke="#000" stroke-width="5" width="70" height="20" x="0" y="5" rx="8" ry="8"/><rect class="hcell-col14-cat0" fill="#777" stroke="#DDD" width="70" height="30" x="0" y="0" rx="8" ry="8"/><text text-anchor="middle" fill="#FFF" x="35" y="20">-20</text></a></g></g></g></svg>