<svg xmlns="http://www.w3.org/2000/svg" xmlns:xlink="http://www.w3.org/1999/xlink" width="100%" height="100%" viewBox="0 0 400 468"><g><g transform="translate(5,383)"><g><a target="_top" xlink:href="mob-sliceTagPayment-step2628000-ofs20-col20-cat0.html"><rect style="display:none" class="hcell-act-col20-cat0" fill="#777" stroke="#000" stroke-width="5" width="70" height="368" x="0" y="-373" rx="8" ry="8"/><rect class="hcell-col20-cat0" fill="#777" stroke="#DDD" width="70" height="378" x="0" y="-378" rx="8" ry="8"/><text text-anchor="middle" fill="#FFF" x="35" y="-358">1734</text></a></g></g><rect fill="none" stroke="#DDD" width="70" height="30" rx="8" ry="8" x="5" y="393"/><text text-anchor="middle" fill="#333" x="40" y="413">14-03</text><g transform="translate(5,433)"><g><a target="_top" xlink:href="mob-sliceTagPayment-step2628000-ofs20-col20-cat0.html"><rect style="display:none" class="hcell-act-col20-cat0" fill="#777" stroke="#000" stroke-width="5" width="70" height="20" x="0" y="5" rx="8" ry="8"/><rect class="hcell-col20-cat0" fill="#777" stroke="#DDD" width="70" height="30" x="0" y="0" rx="8" ry="8"/><text text-anchor="middle" fill="#FFF" x="35" y="20">-77</text></a></g></g></g><g><g transform="translate(85,383)"><g><a target="_top" xlink:href="mob-sliceTagPayment-step2628000-ofs20-col21-cat0.html"><rect style="display:none" class="hcell-act-col21-cat0" fill="#777" stroke="#000" stroke-width="5" width="70" height="206" x="0" y="-211" rx="8" ry="8"/><rect class="hcell-col21-cat0" fill="#777" stroke="#DDD" width="70" height="216" x="0" y="-216" rx="8" ry="8"/><text text-anchor="middle" fill="#FFF" x="35" y="-196">989</text></a></g></g><rect fill="none" stroke="#DDD" width="70" height="30" rx="8" ry="8" x="85" y="393"/><text text-anchor="middle" fill="#333" x="120" y="413">14-04</text><g transform="translate(85,433)"><g><a target="_top" xlink:href="mob-sliceTagPayment-step2628000-ofs20-col21-cat0.html"><rect style="display:none" class="hcell-act-col21-cat0" fill="#777" stroke="#000" stroke-width="5" width="70" height="20" x="0" y="5" rx="8" ry="8"/><rect class="hcell-col21-cat0" fill="#777" stroke="#DDD" width="70" height="30" x="0" y="0" rx="8" ry="8"/><text text-anchor="middle" fill="#FFF" x="35" y="20">-56</text></a></g></g></g><g><g transform="translate(165,383)"><g><a target="_top" xlink:href="mob-sliceTagPayment-step2628000-ofs20-col22-cat0.html"><rect style="display:none" class="hcell-act-col22-cat0" fill="#777" stroke="#000" stroke-width="5" width="70" height="20" x="0" y="-25" rx="8" ry="8"/><rect class="hcell-col22-cat0" fill="#777" stroke="#DDD" width="70" height="30" x="0" y="-30" rx="8" ry="8"/><text text-anchor="middle" fill="#FFF" x="35" y="-10">83</text></a></g></g><rect fill="none" stroke="#DDD" width="70" height="30" rx="8" ry="8" x="165" y="393"/><text text-anchor="middle" fill="#333" x="200" y="413">14-05</text><g transform="translate(165,433)"><g><a target="_top" xlink:href="mob-sliceTagPayment-step2628000-ofs20-col22-cat0.html"><rect style="display:none" class="hcell-act-col22-cat0" fill="#777" stroke="#000" stroke-width="5" width="70" height="20" x="0" y="5" rx="8" ry="8"/><rect class="hcell-col22-cat0" fill="#777" stroke="#DDD" width="70" height="30" x="0" y="0" rx="8" ry="8"/><text text-anchor="middle" fill="#FFF" x="35" y="20">-97</text></a></g></g></g><g><g transform="translate(245,383)"><g><a target="_top" xlink:href="mob-sliceTagPayment-step2628000-ofs20-col23-cat0.html"><rect style="display:none" class="hcell-act-col23-cat0" fill="#777" stroke="#000" stroke-width="5" width="70" height="270" x="0" y="-275" rx="8" ry="8"/><rect class="hcell-col23-cat0" fill="#777" stroke="#DDD" width="70" height="280" x="0" y="-280" rx="8" ry="8"/><text text-anchor="middle" fill="#FFF" x="35" y="-260">1282</text></a></g></g><rect fill="none" stroke="#DDD" width="70" height="30" rx="8" ry="8" x="245" y="393"/><text text-anchor="middle" fill="#333" x="280" y="413">14-06</text><g transform="translate(245,433)"><g><a target="_top" xlink:href="mob-sliceTagPayment-step2628000-ofs20-col23-cat0.html"><rect style="display:none" class="hcell-act-col23-cat0" fill="#777" stroke="#000" stroke-width="5" width="70" height="20" x="0" y="5" rx="8" ry="8"/><rect class="hcell-col23-cat0" fill="#777" stroke="#DDD" width="70" height="30" x="0" y="0" rx="8" ry="8"/><text text-anchor="middle" fill="#FFF" x="35" y="20">-17</text></a></g></g></g><g><g transform="translate(325,383)"><g><a target="_top" xlink:href="mob-sliceTagPayment-step2628000-ofs20-col24-cat0.html"><rect style="display:none" class="hcell-act-col24-cat0" fill="#777" stroke="#000" stroke-width="5" width="70" height="20" x="0" y="-25" rx="8" ry="8"/><rect class="hcell-col24-cat0" fill="#777" stroke="#DDD" width="70" height="30" x="0" y="-30" rx="8" ry="8"/><text text-anchor="middle" fill="#FFF" x="35" y="-10">74</text></a></g></g><rect fill="none" stroke="#DDD" width="70" height="30" rx="8" ry="8" x="325" y="393"/><text text-anchor="middle" fill="#333" x="360" y="413">14-07</text><g transform="translate(325,433)"><g><a target="_top" xlink:href="mob-sliceTagPayment-step2628000-ofs20-col24-cat0.html"><rect style="display:none" class="hcell-act-col24-cat0" fill="#777" stroke="#000" stroke-width="5" width="70" height="20" x="0" y="5" rx="8" ry="8"/><rect class="hcell-col24-cat0" fill="#777" stroke="#DDD" width="70" height="30" x="0" y="0" rx="8" ry="8"/><text text-anchor="middle" fill="#FFF" x="35" y="20">-74</text></a></g></g></g></svg>