<svg xmlns="http://www.w3.org/2000/svg" xmlns:xlink="http://www.w3.org/1999/xlink" width="100%" height="100%" viewBox="0 0 400 459"><g><g transform="translate(5,55)"></g><rect fill="none" stroke="#DDD" width="70" height="30" rx="8" ry="8" x="5" y="65"/><text text-anchor="middle" fill="#333" x="40" y="85">14-08</text><g transform="translate(5,105)"><g><a target="_top" xlink:href="mob-sliceTagElectronics-step2628000-ofs25-col25-cat0.html"><rect style="display:none" class="hcell-act-col25-cat0" fill="#777" stroke="#000" stroke-width="5" width="70" height="222" x="0" y="5" rx="8" ry="8"/><rect class="hcell-col25-cat0" fill="#777" stroke="#DDD" width="70" height="232" x="0" y="0" rx="8" ry="8"/><text text-anchor="middle" fill="#FFF" x="35" y="20">-20</text></a></g></g></g><g><g transform="translate(85,55)"><g><a target="_top" xlink:href="mob-sliceTagElectronics-step2628000-ofs25-col26-cat0.html"><rect style="display:none" class="hcell-act-col26-cat0" fill="#777" stroke="#000" stroke-width="5" width="70" height="40" x="0" y="-45" rx="8" ry="8"/><rect class="hcell-col26-cat0" fill="#777" stroke="#DDD" width="70" height="50" x="0" y="-50" rx="8" ry="8"/><text text-anchor="middle" fill="#FFF" x="35" y="-30">4</text></a></g></g><rect fill="none" stroke="#DDD" width="70" height="30" rx="8" ry="8" x="85" y="65"/><text text-anchor="middle" fill="#333" x="120" y="85">14-08</text><g transform="translate(85,105)"></g></g><g><g transform="translate(165,55)"></g><rect fill="none" stroke="#DDD" width="70" height="30" rx="8" ry="8" x="165" y="65"/><text text-anchor="middle" fill="#333" x="200" y="85">14-10</text><g transform="translate(165,105)"><g><a target="_top" xlink:href="mob-sliceTagElectronics-step2628000-ofs25-col27-cat0.html"><rect style="display:none" class="hcell-act-col27-cat0" fill="#777" stroke="#000" stroke-width="5" width="70" height="23" x="0" y="5" rx="8" ry="8"/><rect class="hcell-col27-cat0" fill="#777" stroke="#DDD" width="70" height="33" x="0" y="0" rx="8" ry="8"/><text text-anchor="middle" fill="#FFF" x="35" y="20">-3</text></a></g></g></g><g><g transform="translate(245,55)"></g><rect fill="none" stroke="#DDD" width="70" height="30" rx="8" ry="8" x="245" y="65"/><text text-anchor="middle" fill="#333" x="280" y="85">14-10</text><g transform="translate(245,105)"><g><a target="_top" xlink:href="mob-sliceTagElectronics-step2628000-ofs25-col28-cat0.html"><rect style="display:none" class="hcell-act-col28-cat0" fill="#777" stroke="#000" stroke-width="5" width="70" height="324" x="0" y="5" rx="8" ry="8"/><rect class="hcell-col28-cat0" fill="#777" stroke="#DDD" width="70" height="334" x="0" y="0" rx="8" ry="8"/><text text-anchor="middle" fill="#FFF" x="35" y="20">-29</text></a></g></g></g><g><g transform="translate(325,55)"></g><rect fill="none" stroke="#DDD" width="70" height="30" rx="8" ry="8" x="325" y="65"/><text text-anchor="middle" fill="#333" x="360" y="85">14-12</text><g transform="translate(325,105)"><g><a target="_top" xlink:href="mob-sliceTagElectronics-step2628000-ofs25-col29-cat0.html"><rect style="display:none" class="hcell-act-col29-cat0" fill="#777" stroke="#000" stroke-width="5" width="70" height="339" x="0" y="5" rx="8" ry="8"/><rect class="hcell-col29-cat0" fill="#777" stroke="#DDD" width="70" height="349" x="0" y="0" rx="8" ry="8"/><text text-anchor="middle" fill="#FFF" x="35" y="20">-30</text></a></g></g></g></svg>