<svg xmlns="http://www.w3.org/2000/svg" xmlns:xlink="http://www.w3.org/1999/xlink" width="100%" height="100%" viewBox="0 0 400 524"><g><g transform="translate(5,241)"><g><a target="_top" xlink:href="mob-slice5-step2628000-ofs15-col15-cat2.html"><rect style="display:none" class="hcell-act-col15-cat2" fill="#5CB85C" stroke="#000" stroke-width="5" width="70" height="103" x="0" y="-108" rx="8" ry="8"/><rect class="hcell-col15-cat2" fill="#5CB85C" stroke="#DDD" width="70" height="113" x="0" y="-113" rx="8" ry="8"/><text text-anchor="middle" fill="#FFF" x="35" y="-93">2711</text></a></g></g><rect fill="none" stroke="#DDD" width="70" height="30" rx="8" ry="8" x="5" y="251"/><text text-anchor="middle" fill="#333" x="40" y="271">13-10</text><g transform="translate(5,291)"><g><a target="_top" xlink:href="mob-slice5-step2628000-ofs15-col15-cat0.html"><rect style="display:none" class="hcell-act-col15-cat0" fill="#D9534F" stroke="#000" stroke-width="5" width="70" height="20" x="0" y="5" rx="8" ry="8"/><rect class="hcell-col15-cat0" fill="#D9534F" stroke="#DDD" width="70" height="30" x="0" y="0" rx="8" ry="8"/><text text-anchor="middle" fill="#FFF" x="35" y="20">-10</text></a><g transform="translate(0,30)"><g><a target="_top" xlink:href="mob-slice5-step2628000-ofs15-col15-cat1.html"><rect style="display:none" class="hcell-act-col15-cat1" fill="#F0AD4E" stroke="#000" stroke-width="5" width="70" height="20" x="0" y="5" rx="8" ry="8"/><rect class="hcell-col15-cat1" fill="#F0AD4E" stroke="#DDD" width="70" height="30" x="0" y="0" rx="8" ry="8"/><text text-anchor="middle" fill="#FFF" x="35" y="20">-18</text></a><g transform="translate(0,30)"><g><a target="_top" xlink:href="mob-slice5-step2628000-ofs15-col15-cat4.html"><rect style="display:none" class="hcell-act-col15-cat4" fill="#337AB7" stroke="#000" stroke-width="5" width="70" height="20" x="0" y="5" rx="8" ry="8"/><rect class="hcell-col15-cat4" fill="#337AB7" stroke="#DDD" width="70" height="30" x="0" y="0" rx="8" ry="8"/><text text-anchor="middle" fill="#FFF" x="35" y="20">-502</text></a><g transform="translate(0,30)"><g><a target="_top" xlink:href="mob-slice5-step2628000-ofs15-col15-cat2.html"><rect style="display:none" class="hcell-act-col15-cat2" fill="#5CB85C" stroke="#000" stroke-width="5" width="70" height="57" x="0" y="5" rx="8" ry="8"/><rect class="hcell-col15-cat2" fill="#5CB85C" stroke="#DDD" width="70" height="67" x="0" y="0" rx="8" ry="8"/><text text-anchor="middle" fill="#FFF" x="35" y="20">-1610</text></a></g></g></g></g></g></g></g></g></g><g><g transform="translate(85,241)"><g><a target="_top" xlink:href="mob-slice5-step2628000-ofs15-col16-cat4.html"><rect style="display:none" class="hcell-act-col16-cat4" fill="#337AB7" stroke="#000" stroke-width="5" width="70" height="67" x="0" y="-72" rx="8" ry="8"/><rect class="hcell-col16-cat4" fill="#337AB7" stroke="#DDD" width="70" height="77" x="0" y="-77" rx="8" ry="8"/><text text-anchor="middle" fill="#FFF" x="35" y="-57">1849</text></a><g transform="translate(0,-77)"><g><a target="_top" xlink:href="mob-slice5-step2628000-ofs15-col16-cat2.html"><rect style="display:none" class="hcell-act-col16-cat2" fill="#5CB85C" stroke="#000" stroke-width="5" width="70" height="113" x="0" y="-118" rx="8" ry="8"/><rect class="hcell-col16-cat2" fill="#5CB85C" stroke="#DDD" width="70" height="123" x="0" y="-123" rx="8" ry="8"/><text text-anchor="middle" fill="#FFF" x="35" y="-103">2971</text></a></g></g></g></g><rect fill="none" stroke="#DDD" width="70" height="30" rx="8" ry="8" x="85" y="251"/><text text-anchor="middle" fill="#333" x="120" y="271">13-10</text><g transform="translate(85,291)"><g><a target="_top" xlink:href="mob-slice5-step2628000-ofs15-col16-cat1.html"><rect style="display:none" class="hcell-act-col16-cat1" fill="#F0AD4E" stroke="#000" stroke-width="5" width="70" height="20" x="0" y="5" rx="8" ry="8"/><rect class="hcell-col16-cat1" fill="#F0AD4E" stroke="#DDD" width="70" height="30" x="0" y="0" rx="8" ry="8"/><text text-anchor="middle" fill="#FFF" x="35" y="20">-46</text></a><g transform="translate(0,30)"><g><a target="_top" xlink:href="mob-slice5-step2628000-ofs15-col16-cat3.html"><rect style="display:none" class="hcell-act-col16-cat3" fill="#5BC0DE" stroke="#000" stroke-width="5" width="70" height="20" x="0" y="5" rx="8" ry="8"/><rect class="hcell-col16-cat3" fill="#5BC0DE" stroke="#DDD" width="70" height="30" x="0" y="0" rx="8" ry="8"/><text text-anchor="middle" fill="#FFF" x="35" y="20">-371</text></a><g transform="translate(0,30)"><g><a target="_top" xlink:href="mob-slice5-step2628000-ofs15-col16-cat4.html"><rect style="display:none" class="hcell-act-col16-cat4" fill="#337AB7" stroke="#000" stroke-width="5" width="70" height="23" x="0" y="5" rx="8" ry="8"/><rect class="hcell-col16-cat4" fill="#337AB7" stroke="#DDD" width="70" height="33" x="0" y="0" rx="8" ry="8"/><text text-anchor="middle" fill="#FFF" x="35" y="20">-801</text></a><g transform="translate(0,33)"><g><a target="_top" xlink:href="mob-slice5-step2628000-ofs15-col16-cat2.html"><rect style="display:none" class="hcell-act-col16-cat2" fill="#5CB85C" stroke="#000" stroke-width="5" width="70" height="125" x="0" y="5" rx="8" ry="8"/><rect class="hcell-col16-cat2" fill="#5CB85C" stroke="#DDD" width="70" height="135" x="0" y="0" rx="8" ry="8"/><text text-anchor="middle" fill="#FFF" x="35" y="20">-3246</text></a></g></g></g></g></g></g></g></g></g><g><g transform="translate(165,241)"><g><a target="_top" xlink:href="mob-slice5-step2628000-ofs15-col17-cat4.html"><rect style="display:none" class="hcell-act-col17-cat4" fill="#337AB7" stroke="#000" stroke-width="5" width="70" height="20" x="0" y="-25" rx="8" ry="8"/><rect class="hcell-col17-cat4" fill="#337AB7" stroke="#DDD" width="70" height="30" x="0" y="-30" rx="8" ry="8"/><text text-anchor="middle" fill="#FFF" x="35" y="-10">562</text></a><g transform="translate(0,-30)"><g><a target="_top" xlink:href="mob-slice5-step2628000-ofs15-col17-cat2.html"><rect style="display:none" class="hcell-act-col17-cat2" fill="#5CB85C" stroke="#000" stroke-width="5" width="70" height="98" x="0" y="-103" rx="8" ry="8"/><rect class="hcell-col17-cat2" fill="#5CB85C" stroke="#DDD" width="70" height="108" x="0" y="-108" rx="8" ry="8"/><text text-anchor="middle" fill="#FFF" x="35" y="-88">2600</text></a></g></g></g></g><rect fill="none" stroke="#DDD" width="70" height="30" rx="8" ry="8" x="165" y="251"/><text text-anchor="middle" fill="#333" x="200" y="271">13-12</text><g transform="translate(165,291)"><g><a target="_top" xlink:href="mob-slice5-step2628000-ofs15-col17-cat4.html"><rect style="display:none" class="hcell-act-col17-cat4" fill="#337AB7" stroke="#000" stroke-width="5" width="70" height="37" x="0" y="5" rx="8" ry="8"/><rect class="hcell-col17-cat4" fill="#337AB7" stroke="#DDD" width="70" height="47" x="0" y="0" rx="8" ry="8"/><text text-anchor="middle" fill="#FFF" x="35" y="20">-1128</text></a><g transform="translate(0,47)"><g><a target="_top" xlink:href="mob-slice5-step2628000-ofs15-col17-cat2.html"><rect style="display:none" class="hcell-act-col17-cat2" fill="#5CB85C" stroke="#000" stroke-width="5" width="70" height="72" x="0" y="5" rx="8" ry="8"/><rect class="hcell-col17-cat2" fill="#5CB85C" stroke="#DDD" width="70" height="82" x="0" y="0" rx="8" ry="8"/><text text-anchor="middle" fill="#FFF" x="35" y="20">-1980</text></a></g></g></g></g></g><g><g transform="translate(245,241)"><g><a target="_top" xlink:href="mob-slice5-step2628000-ofs15-col18-cat3.html"><rect style="display:none" class="hcell-act-col18-cat3" fill="#5BC0DE" stroke="#000" stroke-width="5" width="70" height="20" x="0" y="-25" rx="8" ry="8"/><rect class="hcell-col18-cat3" fill="#5BC0DE" stroke="#DDD" width="70" height="30" x="0" y="-30" rx="8" ry="8"/><text text-anchor="middle" fill="#FFF" x="35" y="-10">640</text></a><g transform="translate(0,-30)"><g><a target="_top" xlink:href="mob-slice5-step2628000-ofs15-col18-cat4.html"><rect style="display:none" class="hcell-act-col18-cat4" fill="#337AB7" stroke="#000" stroke-width="5" width="70" height="39" x="0" y="-44" rx="8" ry="8"/><rect class="hcell-col18-cat4" fill="#337AB7" stroke="#DDD" width="70" height="49" x="0" y="-49" rx="8" ry="8"/><text text-anchor="middle" fill="#FFF" x="35" y="-29">1183</text></a><g transform="translate(0,-49)"><g><a target="_top" xlink:href="mob-slice5-step2628000-ofs15-col18-cat2.html"><rect style="display:none" class="hcell-act-col18-cat2" fill="#5CB85C" stroke="#000" stroke-width="5" width="70" height="99" x="0" y="-104" rx="8" ry="8"/><rect class="hcell-col18-cat2" fill="#5CB85C" stroke="#DDD" width="70" height="109" x="0" y="-109" rx="8" ry="8"/><text text-anchor="middle" fill="#FFF" x="35" y="-89">2633</text></a></g></g></g></g></g></g><rect fill="none" stroke="#DDD" width="70" height="30" rx="8" ry="8" x="245" y="251"/><text text-anchor="middle" fill="#333" x="280" y="271">13-12</text><g transform="translate(245,291)"><g><a target="_top" xlink:href="mob-slice5-step2628000-ofs15-col18-cat1.html"><rect style="display:none" class="hcell-act-col18-cat1" fill="#F0AD4E" stroke="#000" stroke-width="5" width="70" height="20" x="0" y="5" rx="8" ry="8"/><rect class="hcell-col18-cat1" fill="#F0AD4E" stroke="#DDD" width="70" height="30" x="0" y="0" rx="8" ry="8"/><text text-anchor="middle" fill="#FFF" x="35" y="20">-1</text></a><g transform="translate(0,30)"><g><a target="_top" xlink:href="mob-slice5-step2628000-ofs15-col18-cat4.html"><rect style="display:none" class="hcell-act-col18-cat4" fill="#337AB7" stroke="#000" stroke-width="5" width="70" height="20" x="0" y="5" rx="8" ry="8"/><rect class="hcell-col18-cat4" fill="#337AB7" stroke="#DDD" width="70" height="30" x="0" y="0" rx="8" ry="8"/><text text-anchor="middle" fill="#FFF" x="35" y="20">-558</text></a><g transform="translate(0,30)"><g><a target="_top" xlink:href="mob-slice5-step2628000-ofs15-col18-cat3.html"><rect style="display:none" class="hcell-act-col18-cat3" fill="#5BC0DE" stroke="#000" stroke-width="5" width="70" height="60" x="0" y="5" rx="8" ry="8"/><rect class="hcell-col18-cat3" fill="#5BC0DE" stroke="#DDD" width="70" height="70" x="0" y="0" rx="8" ry="8"/><text text-anchor="middle" fill="#FFF" x="35" y="20">-1680</text></a><g transform="translate(0,70)"><g><a target="_top" xlink:href="mob-slice5-step2628000-ofs15-col18-cat2.html"><rect style="display:none" class="hcell-act-col18-cat2" fill="#5CB85C" stroke="#000" stroke-width="5" width="70" height="88" x="0" y="5" rx="8" ry="8"/><rect class="hcell-col18-cat2" fill="#5CB85C" stroke="#DDD" width="70" height="98" x="0" y="0" rx="8" ry="8"/><text text-anchor="middle" fill="#FFF" x="35" y="20">-2368</text></a></g></g></g></g></g></g></g></g></g><g><g transform="translate(325,241)"><g><a target="_top" xlink:href="mob-slice5-step2628000-ofs15-col19-cat1.html"><rect style="display:none" class="hcell-act-col19-cat1" fill="#F0AD4E" stroke="#000" stroke-width="5" width="70" height="20" x="0" y="-25" rx="8" ry="8"/><rect class="hcell-col19-cat1" fill="#F0AD4E" stroke="#DDD" width="70" height="30" x="0" y="-30" rx="8" ry="8"/><text text-anchor="middle" fill="#FFF" x="35" y="-10">15</text></a><g transform="translate(0,-30)"><g><a target="_top" xlink:href="mob-slice5-step2628000-ofs15-col19-cat4.html"><rect style="display:none" class="hcell-act-col19-cat4" fill="#337AB7" stroke="#000" stroke-width="5" width="70" height="66" x="0" y="-71" rx="8" ry="8"/><rect class="hcell-col19-cat4" fill="#337AB7" stroke="#DDD" width="70" height="76" x="0" y="-76" rx="8" ry="8"/><text text-anchor="middle" fill="#FFF" x="35" y="-56">1838</text></a><g transform="translate(0,-76)"><g><a target="_top" xlink:href="mob-slice5-step2628000-ofs15-col19-cat2.html"><rect style="display:none" class="hcell-act-col19-cat2" fill="#5CB85C" stroke="#000" stroke-width="5" width="70" height="120" x="0" y="-125" rx="8" ry="8"/><rect class="hcell-col19-cat2" fill="#5CB85C" stroke="#DDD" width="70" height="130" x="0" y="-130" rx="8" ry="8"/><text text-anchor="middle" fill="#FFF" x="35" y="-110">3127</text></a></g></g></g></g></g></g><rect fill="none" stroke="#DDD" width="70" height="30" rx="8" ry="8" x="325" y="251"/><text text-anchor="middle" fill="#333" x="360" y="271">14-01</text><g transform="translate(325,291)"><g><a target="_top" xlink:href="mob-slice5-step2628000-ofs15-col19-cat1.html"><rect style="display:none" class="hcell-act-col19-cat1" fill="#F0AD4E" stroke="#000" stroke-width="5" width="70" height="20" x="0" y="5" rx="8" ry="8"/><rect class="hcell-col19-cat1" fill="#F0AD4E" stroke="#DDD" width="70" height="30" x="0" y="0" rx="8" ry="8"/><text text-anchor="middle" fill="#FFF" x="35" y="20">-10</text></a><g transform="translate(0,30)"><g><a target="_top" xlink:href="mob-slice5-step2628000-ofs15-col19-cat3.html"><rect style="display:none" class="hcell-act-col19-cat3" fill="#5BC0DE" stroke="#000" stroke-width="5" width="70" height="20" x="0" y="5" rx="8" ry="8"/><rect class="hcell-col19-cat3" fill="#5BC0DE" stroke="#DDD" width="70" height="30" x="0" y="0" rx="8" ry="8"/><text text-anchor="middle" fill="#FFF" x="35" y="20">-500</text></a><g transform="translate(0,30)"><g><a target="_top" xlink:href="mob-slice5-step2628000-ofs15-col19-cat4.html"><rect style="display:none" class="hcell-act-col19-cat4" fill="#337AB7" stroke="#000" stroke-width="5" width="70" height="20" x="0" y="5" rx="8" ry="8"/><rect class="hcell-col19-cat4" fill="#337AB7" stroke="#DDD" width="70" height="30" x="0" y="0" rx="8" ry="8"/><text text-anchor="middle" fill="#FFF" x="35" y="20">-665</text></a><g transform="translate(0,30)"><g><a target="_top" xlink:href="mob-slice5-step2628000-ofs15-col19-cat2.html"><rect style="display:none" class="hcell-act-col19-cat2" fill="#5CB85C" stroke="#000" stroke-width="5" width="70" height="125" x="0" y="5" rx="8" ry="8"/><rect class="hcell-col19-cat2" fill="#5CB85C" stroke="#DDD" width="70" height="135" x="0" y="0" rx="8" ry="8"/><text text-anchor="middle" fill="#FFF" x="35" y="20">-3244</text></a></g></g></g></g></g></g></g></g></g></svg>