<svg xmlns="http://www.w3.org/2000/svg" xmlns:xlink="http://www.w3.org/1999/xlink" width="100%" height="100%" viewBox="0 0 400 459"><g><g transform="translate(5,255)"></g><rect fill="none" stroke="#DDD" width="70" height="30" rx="8" ry="8" x="5" y="265"/><text text-anchor="middle" fill="#333" x="40" y="285">12-07</text><g transform="translate(5,305)"></g></g><g><g transform="translate(85,255)"></g><rect fill="none" stroke="#DDD" width="70" height="30" rx="8" ry="8" x="85" y="265"/><text text-anchor="middle" fill="#333" x="120" y="285">13-01</text><g transform="translate(85,305)"></g></g><g><g transform="translate(165,255)"></g><rect fill="none" stroke="#DDD" width="70" height="30" rx="8" ry="8" x="165" y="265"/><text text-anchor="middle" fill="#333" x="200" y="285">13-08</text><g transform="translate(165,305)"></g></g><g><g transform="translate(245,255)"><g><a target="_top" xlink:href="mob-sliceTagPhone-step17936641-ofs0-col3-cat0.html"><rect style="display:none" class="hcell-act-col3-cat0" fill="#777" stroke="#000" stroke-width="5" width="70" height="240" x="0" y="-245" rx="8" ry="8"/><rect class="hcell-col3-cat0" fill="#777" stroke="#DDD" width="70" height="250" x="0" y="-250" rx="8" ry="8"/><text text-anchor="middle" fill="#FFF" x="35" y="-230">146</text></a></g></g><rect fill="none" stroke="#DDD" width="70" height="30" rx="8" ry="8" x="245" y="265"/><text text-anchor="middle" fill="#333" x="280" y="285">14-03</text><g transform="translate(245,305)"></g></g><g><g transform="translate(325,255)"></g><rect fill="none" stroke="#DDD" width="70" height="30" rx="8" ry="8" x="325" y="265"/><text text-anchor="middle" fill="#333" x="360" y="285">14-10</text><g transform="translate(325,305)"><g><a target="_top" xlink:href="mob-sliceTagPhone-step17936641-ofs0-col4-cat0.html"><rect style="display:none" class="hcell-act-col4-cat0" fill="#777" stroke="#000" stroke-width="5" width="70" height="139" x="0" y="5" rx="8" ry="8"/><rect class="hcell-col4-cat0" fill="#777" stroke="#DDD" width="70" height="149" x="0" y="0" rx="8" ry="8"/><text text-anchor="middle" fill="#FFF" x="35" y="20">-87</text></a></g></g></g></svg>