<svg xmlns="http://www.w3.org/2000/svg" xmlns:xlink="http://www.w3.org/1999/xlink" width="100%" height="100%" viewBox="0 0 400 459"><g><g transform="translate(5,185)"><g><a target="_top" xlink:href="mob-sliceTagCash-step17936641-ofs0-col0-cat0.html"><rect style="display:none" class="hcell-act-col0-cat0" fill="#777" stroke="#000" stroke-width="5" width="70" height="89" x="0" y="-94" rx="8" ry="8"/><rect class="hcell-col0-cat0" fill="#777" stroke="#DDD" width="70" height="99" x="0" y="-99" rx="8" ry="8"/><text text-anchor="middle" fill="#FFF" x="35" y="-79">2486</text></a></g></g><rect fill="none" stroke="#DDD" width="70" height="30" rx="8" ry="8" x="5" y="195"/><text text-anchor="middle" fill="#333" x="40" y="215">12-07</text><g transform="translate(5,235)"></g></g><g><g transform="translate(85,185)"><g><a target="_top" xlink:href="mob-sliceTagCash-step17936641-ofs0-col1-cat0.html"><rect style="display:none" class="hcell-act-col1-cat0" fill="#777" stroke="#000" stroke-width="5" width="70" height="20" x="0" y="-25" rx="8" ry="8"/><rect class="hcell-col1-cat0" fill="#777" stroke="#DDD" width="70" height="30" x="0" y="-30" rx="8" ry="8"/><text text-anchor="middle" fill="#FFF" x="35" y="-10">480</text></a></g></g><rect fill="none" stroke="#DDD" width="70" height="30" rx="8" ry="8" x="85" y="195"/><text text-anchor="middle" fill="#333" x="120" y="215">13-01</text><g transform="translate(85,235)"><g><a target="_top" xlink:href="mob-sliceTagCash-step17936641-ofs0-col1-cat0.html"><rect style="display:none" class="hcell-act-col1-cat0" fill="#777" stroke="#000" stroke-width="5" width="70" height="140" x="0" y="5" rx="8" ry="8"/><rect class="hcell-col1-cat0" fill="#777" stroke="#DDD" width="70" height="150" x="0" y="0" rx="8" ry="8"/><text text-anchor="middle" fill="#FFF" x="35" y="20">-3760</text></a></g></g></g><g><g transform="translate(165,185)"><g><a target="_top" xlink:href="mob-sliceTagCash-step17936641-ofs0-col2-cat0.html"><rect style="display:none" class="hcell-act-col2-cat0" fill="#777" stroke="#000" stroke-width="5" width="70" height="133" x="0" y="-138" rx="8" ry="8"/><rect class="hcell-col2-cat0" fill="#777" stroke="#DDD" width="70" height="143" x="0" y="-143" rx="8" ry="8"/><text text-anchor="middle" fill="#FFF" x="35" y="-123">3580</text></a></g></g><rect fill="none" stroke="#DDD" width="70" height="30" rx="8" ry="8" x="165" y="195"/><text text-anchor="middle" fill="#333" x="200" y="215">13-08</text><g transform="translate(165,235)"><g><a target="_top" xlink:href="mob-sliceTagCash-step17936641-ofs0-col2-cat0.html"><rect style="display:none" class="hcell-act-col2-cat0" fill="#777" stroke="#000" stroke-width="5" width="70" height="20" x="0" y="5" rx="8" ry="8"/><rect class="hcell-col2-cat0" fill="#777" stroke="#DDD" width="70" height="30" x="0" y="0" rx="8" ry="8"/><text text-anchor="middle" fill="#FFF" x="35" y="20">-650</text></a></g></g></g><g><g transform="translate(245,185)"><g><a target="_top" xlink:href="mob-sliceTagCash-step17936641-ofs0-col3-cat0.html"><rect style="display:none" class="hcell-act-col3-cat0" fill="#777" stroke="#000" stroke-width="5" width="70" height="79" x="0" y="-84" rx="8" ry="8"/><rect class="hcell-col3-cat0" fill="#777" stroke="#DDD" width="70" height="89" x="0" y="-89" rx="8" ry="8"/><text text-anchor="middle" fill="#FFF" x="35" y="-69">2240</text></a></g></g><rect fill="none" stroke="#DDD" width="70" height="30" rx="8" ry="8" x="245" y="195"/><text text-anchor="middle" fill="#333" x="280" y="215">14-03</text><g transform="translate(245,235)"><g><a target="_top" xlink:href="mob-sliceTagCash-step17936641-ofs0-col3-cat0.html"><rect style="display:none" class="hcell-act-col3-cat0" fill="#777" stroke="#000" stroke-width="5" width="70" height="209" x="0" y="5" rx="8" ry="8"/><rect class="hcell-col3-cat0" fill="#777" stroke="#DDD" width="70" height="219" x="0" y="0" rx="8" ry="8"/><text text-anchor="middle" fill="#FFF" x="35" y="20">-5470</text></a></g></g></g><g><g transform="translate(325,185)"><g><a target="_top" xlink:href="mob-sliceTagCash-step17936641-ofs0-col4-cat0.html"><rect style="display:none" class="hcell-act-col4-cat0" fill="#777" stroke="#000" stroke-width="5" width="70" height="170" x="0" y="-175" rx="8" ry="8"/><rect class="hcell-col4-cat0" fill="#777" stroke="#DDD" width="70" height="180" x="0" y="-180" rx="8" ry="8"/><text text-anchor="middle" fill="#FFF" x="35" y="-160">4516</text></a></g></g><rect fill="none" stroke="#DDD" width="70" height="30" rx="8" ry="8" x="325" y="195"/><text text-anchor="middle" fill="#333" x="360" y="215">14-10</text><g transform="translate(325,235)"><g><a target="_top" xlink:href="mob-sliceTagCash-step17936641-ofs0-col4-cat0.html"><rect style="display:none" class="hcell-act-col4-cat0" fill="#777" stroke="#000" stroke-width="5" width="70" height="82" x="0" y="5" rx="8" ry="8"/><rect class="hcell-col4-cat0" fill="#777" stroke="#DDD" width="70" height="92" x="0" y="0" rx="8" ry="8"/><text text-anchor="middle" fill="#FFF" x="35" y="20">-2306</text></a></g></g></g></svg>