<svg xmlns="http://www.w3.org/2000/svg" xmlns:xlink="http://www.w3.org/1999/xlink" width="100%" height="100%" viewBox="0 0 400 459"><g><g transform="translate(5,136)"></g><rect fill="none" stroke="#DDD" width="70" height="30" rx="8" ry="8" x="5" y="146"/><text text-anchor="middle" fill="#333" x="40" y="166">14-12</text><g transform="translate(5,186)"><g><a target="_top" xlink:href="mob-sliceTagChecking1042-step2628000-ofs30-col30-cat0.html"><rect style="display:none" class="hcell-act-col30-cat0" fill="#777" stroke="#000" stroke-width="5" width="70" height="70" x="0" y="5" rx="8" ry="8"/><rect class="hcell-col30-cat0" fill="#777" stroke="#DDD" width="70" height="80" x="0" y="0" rx="8" ry="8"/><text text-anchor="middle" fill="#FFF" x="35" y="20">-543</text></a></g></g></g><g><g transform="translate(85,136)"></g><rect fill="none" stroke="#DDD" width="70" height="30" rx="8" ry="8" x="85" y="146"/><text text-anchor="middle" fill="#333" x="120" y="166">15-01</text><g transform="translate(85,186)"><g><a target="_top" xlink:href="mob-sliceTagChecking1042-step2628000-ofs30-col31-cat0.html"><rect style="display:none" class="hcell-act-col31-cat0" fill="#777" stroke="#000" stroke-width="5" width="70" height="168" x="0" y="5" rx="8" ry="8"/><rect class="hcell-col31-cat0" fill="#777" stroke="#DDD" width="70" height="178" x="0" y="0" rx="8" ry="8"/><text text-anchor="middle" fill="#FFF" x="35" y="20">-1206</text></a></g></g></g><g><g transform="translate(165,136)"></g><rect fill="none" stroke="#DDD" width="70" height="30" rx="8" ry="8" x="165" y="146"/><text text-anchor="middle" fill="#333" x="200" y="166">15-03</text><g transform="translate(165,186)"><g><a target="_top" xlink:href="mob-sliceTagChecking1042-step2628000-ofs30-col32-cat0.html"><rect style="display:none" class="hcell-act-col32-cat0" fill="#777" stroke="#000" stroke-width="5" width="70" height="53" x="0" y="5" rx="8" ry="8"/><rect class="hcell-col32-cat0" fill="#777" stroke="#DDD" width="70" height="63" x="0" y="0" rx="8" ry="8"/><text text-anchor="middle" fill="#FFF" x="35" y="20">-432</text></a></g></g></g><g><g transform="translate(245,136)"></g><rect fill="none" stroke="#DDD" width="70" height="30" rx="8" ry="8" x="245" y="146"/><text text-anchor="middle" fill="#333" x="280" y="166">15-04</text><g transform="translate(245,186)"><g><a target="_top" xlink:href="mob-sliceTagChecking1042-step2628000-ofs30-col33-cat0.html"><rect style="display:none" class="hcell-act-col33-cat0" fill="#777" stroke="#000" stroke-width="5" width="70" height="258" x="0" y="5" rx="8" ry="8"/><rect class="hcell-col33-cat0" fill="#777" stroke="#DDD" width="70" height="268" x="0" y="0" rx="8" ry="8"/><text text-anchor="middle" fill="#FFF" x="35" y="20">-1812</text></a></g></g></g><g><g transform="translate(325,136)"><g><a target="_top" xlink:href="mob-sliceTagChecking1042-step2628000-ofs30-col34-cat0.html"><rect style="display:none" class="hcell-act-col34-cat0" fill="#777" stroke="#000" stroke-width="5" width="70" height="121" x="0" y="-126" rx="8" ry="8"/><rect class="hcell-col34-cat0" fill="#777" stroke="#DDD" width="70" height="131" x="0" y="-131" rx="8" ry="8"/><text text-anchor="middle" fill="#FFF" x="35" y="-111">890</text></a></g></g><rect fill="none" stroke="#DDD" width="70" height="30" rx="8" ry="8" x="325" y="146"/><text text-anchor="middle" fill="#333" x="360" y="166">15-05</text><g transform="translate(325,186)"></g></g></svg>