<svg xmlns="http://www.w3.org/2000/svg" xmlns:xlink="http://www.w3.org/1999/xlink" width="100%" height="100%" viewBox="0 0 400 459"><g><g transform="translate(5,404)"><g><a target="_top" xlink:href="mob-slice1-step2628000-ofs20-col20-cat1.html"><rect style="display:none" class="hcell-act-col20-cat1" fill="#5BC0DE" stroke="#000" stroke-width="5" width="70" height="46" x="0" y="-51" rx="8" ry="8"/><rect class="hcell-col20-cat1" fill="#5BC0DE" stroke="#DDD" width="70" height="56" x="0" y="-56" rx="8" ry="8"/><text text-anchor="middle" fill="#FFF" x="35" y="-36">29</text></a><g transform="translate(0,-56)"><g><a target="_top" xlink:href="mob-slice1-step2628000-ofs20-col20-cat0.html"><rect style="display:none" class="hcell-act-col20-cat0" fill="#5CB85C" stroke="#000" stroke-width="5" width="70" height="77" x="0" y="-82" rx="8" ry="8"/><rect class="hcell-col20-cat0" fill="#5CB85C" stroke="#DDD" width="70" height="87" x="0" y="-87" rx="8" ry="8"/><text text-anchor="middle" fill="#FFF" x="35" y="-67">46</text></a></g></g></g></g><rect fill="none" stroke="#DDD" width="70" height="30" rx="8" ry="8" x="5" y="414"/><text text-anchor="middle" fill="#333" x="40" y="434">14-03</text><g transform="translate(5,454)"></g></g><g><g transform="translate(85,404)"><g><a target="_top" xlink:href="mob-slice1-step2628000-ofs20-col21-cat4.html"><rect style="display:none" class="hcell-act-col21-cat4" fill="#D9534F" stroke="#000" stroke-width="5" width="70" height="20" x="0" y="-25" rx="8" ry="8"/><rect class="hcell-col21-cat4" fill="#D9534F" stroke="#DDD" width="70" height="30" x="0" y="-30" rx="8" ry="8"/><text text-anchor="middle" fill="#FFF" x="35" y="-10">6</text></a><g transform="translate(0,-30)"><g><a target="_top" xlink:href="mob-slice1-step2628000-ofs20-col21-cat2.html"><rect style="display:none" class="hcell-act-col21-cat2" fill="#337AB7" stroke="#000" stroke-width="5" width="70" height="27" x="0" y="-32" rx="8" ry="8"/><rect class="hcell-col21-cat2" fill="#337AB7" stroke="#DDD" width="70" height="37" x="0" y="-37" rx="8" ry="8"/><text text-anchor="middle" fill="#FFF" x="35" y="-17">19</text></a><g transform="translate(0,-37)"><g><a target="_top" xlink:href="mob-slice1-step2628000-ofs20-col21-cat1.html"><rect style="display:none" class="hcell-act-col21-cat1" fill="#5BC0DE" stroke="#000" stroke-width="5" width="70" height="106" x="0" y="-111" rx="8" ry="8"/><rect class="hcell-col21-cat1" fill="#5BC0DE" stroke="#DDD" width="70" height="116" x="0" y="-116" rx="8" ry="8"/><text text-anchor="middle" fill="#FFF" x="35" y="-96">61</text></a><g transform="translate(0,-116)"><g><a target="_top" xlink:href="mob-slice1-step2628000-ofs20-col21-cat0.html"><rect style="display:none" class="hcell-act-col21-cat0" fill="#5CB85C" stroke="#000" stroke-width="5" width="70" height="117" x="0" y="-122" rx="8" ry="8"/><rect class="hcell-col21-cat0" fill="#5CB85C" stroke="#DDD" width="70" height="127" x="0" y="-127" rx="8" ry="8"/><text text-anchor="middle" fill="#FFF" x="35" y="-107">67</text></a></g></g></g></g></g></g></g></g><rect fill="none" stroke="#DDD" width="70" height="30" rx="8" ry="8" x="85" y="414"/><text text-anchor="middle" fill="#333" x="120" y="434">14-04</text><g transform="translate(85,454)"></g></g><g><g transform="translate(165,404)"><g><a target="_top" xlink:href="mob-slice1-step2628000-ofs20-col22-cat1.html"><rect style="display:none" class="hcell-act-col22-cat1" fill="#5BC0DE" stroke="#000" stroke-width="5" width="70" height="25" x="0" y="-30" rx="8" ry="8"/><rect class="hcell-col22-cat1" fill="#5BC0DE" stroke="#DDD" width="70" height="35" x="0" y="-35" rx="8" ry="8"/><text text-anchor="middle" fill="#FFF" x="35" y="-15">18</text></a><g transform="translate(0,-35)"><g><a target="_top" xlink:href="mob-slice1-step2628000-ofs20-col22-cat4.html"><rect style="display:none" class="hcell-act-col22-cat4" fill="#D9534F" stroke="#000" stroke-width="5" width="70" height="43" x="0" y="-48" rx="8" ry="8"/><rect class="hcell-col22-cat4" fill="#D9534F" stroke="#DDD" width="70" height="53" x="0" y="-53" rx="8" ry="8"/><text text-anchor="middle" fill="#FFF" x="35" y="-33">28</text></a><g transform="translate(0,-53)"><g><a target="_top" xlink:href="mob-slice1-step2628000-ofs20-col22-cat0.html"><rect style="display:none" class="hcell-act-col22-cat0" fill="#5CB85C" stroke="#000" stroke-width="5" width="70" height="46" x="0" y="-51" rx="8" ry="8"/><rect class="hcell-col22-cat0" fill="#5CB85C" stroke="#DDD" width="70" height="56" x="0" y="-56" rx="8" ry="8"/><text text-anchor="middle" fill="#FFF" x="35" y="-36">29</text></a><g transform="translate(0,-56)"><g><a target="_top" xlink:href="mob-slice1-step2628000-ofs20-col22-cat2.html"><rect style="display:none" class="hcell-act-col22-cat2" fill="#337AB7" stroke="#000" stroke-width="5" width="70" height="120" x="0" y="-125" rx="8" ry="8"/><rect class="hcell-col22-cat2" fill="#337AB7" stroke="#DDD" width="70" height="130" x="0" y="-130" rx="8" ry="8"/><text text-anchor="middle" fill="#FFF" x="35" y="-110">68</text></a></g></g></g></g></g></g></g></g><rect fill="none" stroke="#DDD" width="70" height="30" rx="8" ry="8" x="165" y="414"/><text text-anchor="middle" fill="#333" x="200" y="434">14-05</text><g transform="translate(165,454)"></g></g><g><g transform="translate(245,404)"><g><a target="_top" xlink:href="mob-slice1-step2628000-ofs20-col23-cat4.html"><rect style="display:none" class="hcell-act-col23-cat4" fill="#D9534F" stroke="#000" stroke-width="5" width="70" height="20" x="0" y="-25" rx="8" ry="8"/><rect class="hcell-col23-cat4" fill="#D9534F" stroke="#DDD" width="70" height="30" x="0" y="-30" rx="8" ry="8"/><text text-anchor="middle" fill="#FFF" x="35" y="-10">16</text></a><g transform="translate(0,-30)"><g><a target="_top" xlink:href="mob-slice1-step2628000-ofs20-col23-cat1.html"><rect style="display:none" class="hcell-act-col23-cat1" fill="#5BC0DE" stroke="#000" stroke-width="5" width="70" height="53" x="0" y="-58" rx="8" ry="8"/><rect class="hcell-col23-cat1" fill="#5BC0DE" stroke="#DDD" width="70" height="63" x="0" y="-63" rx="8" ry="8"/><text text-anchor="middle" fill="#FFF" x="35" y="-43">33</text></a><g transform="translate(0,-63)"><g><a target="_top" xlink:href="mob-slice1-step2628000-ofs20-col23-cat0.html"><rect style="display:none" class="hcell-act-col23-cat0" fill="#5CB85C" stroke="#000" stroke-width="5" width="70" height="296" x="0" y="-301" rx="8" ry="8"/><rect class="hcell-col23-cat0" fill="#5CB85C" stroke="#DDD" width="70" height="306" x="0" y="-306" rx="8" ry="8"/><text text-anchor="middle" fill="#FFF" x="35" y="-286">161</text></a></g></g></g></g></g></g><rect fill="none" stroke="#DDD" width="70" height="30" rx="8" ry="8" x="245" y="414"/><text text-anchor="middle" fill="#333" x="280" y="434">14-06</text><g transform="translate(245,454)"></g></g><g><g transform="translate(325,404)"><g><a target="_top" xlink:href="mob-slice1-step2628000-ofs20-col24-cat0.html"><rect style="display:none" class="hcell-act-col24-cat0" fill="#5CB85C" stroke="#000" stroke-width="5" width="70" height="20" x="0" y="-25" rx="8" ry="8"/><rect class="hcell-col24-cat0" fill="#5CB85C" stroke="#DDD" width="70" height="30" x="0" y="-30" rx="8" ry="8"/><text text-anchor="middle" fill="#FFF" x="35" y="-10">11</text></a><g transform="translate(0,-30)"><g><a target="_top" xlink:href="mob-slice1-step2628000-ofs20-col24-cat1.html"><rect style="display:none" class="hcell-act-col24-cat1" fill="#5BC0DE" stroke="#000" stroke-width="5" width="70" height="65" x="0" y="-70" rx="8" ry="8"/><rect class="hcell-col24-cat1" fill="#5BC0DE" stroke="#DDD" width="70" height="75" x="0" y="-75" rx="8" ry="8"/><text text-anchor="middle" fill="#FFF" x="35" y="-55">40</text></a><g transform="translate(0,-75)"><g><a target="_top" xlink:href="mob-slice1-step2628000-ofs20-col24-cat2.html"><rect style="display:none" class="hcell-act-col24-cat2" fill="#337AB7" stroke="#000" stroke-width="5" width="70" height="162" x="0" y="-167" rx="8" ry="8"/><rect class="hcell-col24-cat2" fill="#337AB7" stroke="#DDD" width="70" height="172" x="0" y="-172" rx="8" ry="8"/><text text-anchor="middle" fill="#FFF" x="35" y="-152">91</text></a></g></g></g></g></g></g><rect fill="none" stroke="#DDD" width="70" height="30" rx="8" ry="8" x="325" y="414"/><text text-anchor="middle" fill="#333" x="360" y="434">14-07</text><g transform="translate(325,454)"></g></g></svg>