<svg xmlns="http://www.w3.org/2000/svg" xmlns:xlink="http://www.w3.org/1999/xlink" width="100%" height="100%" viewBox="0 0 400 480"><g><g transform="translate(5,216)"><g><a target="_top" xlink:href="mob-slice5-step2628000-ofs30-col30-cat1.html"><rect style="display:none" class="hcell-act-col30-cat1" fill="#F0AD4E" stroke="#000" stroke-width="5" width="70" height="20" x="0" y="-25" rx="8" ry="8"/><rect class="hcell-col30-cat1" fill="#F0AD4E" stroke="#DDD" width="70" height="30" x="0" y="-30" rx="8" ry="8"/><text text-anchor="middle" fill="#FFF" x="35" y="-10">133</text></a><g transform="translate(0,-30)"><g><a target="_top" xlink:href="mob-slice5-step2628000-ofs30-col30-cat0.html"><rect style="display:none" class="hcell-act-col30-cat0" fill="#D9534F" stroke="#000" stroke-width="5" width="70" height="88" x="0" y="-93" rx="8" ry="8"/><rect class="hcell-col30-cat0" fill="#D9534F" stroke="#DDD" width="70" height="98" x="0" y="-98" rx="8" ry="8"/><text text-anchor="middle" fill="#FFF" x="35" y="-78">1000</text></a></g></g></g></g><rect fill="none" stroke="#DDD" width="70" height="30" rx="8" ry="8" x="5" y="226"/><text text-anchor="middle" fill="#333" x="40" y="246">14-12</text><g transform="translate(5,266)"><g><a target="_top" xlink:href="mob-slice5-step2628000-ofs30-col30-cat4.html"><rect style="display:none" class="hcell-act-col30-cat4" fill="#337AB7" stroke="#000" stroke-width="5" width="70" height="40" x="0" y="5" rx="8" ry="8"/><rect class="hcell-col30-cat4" fill="#337AB7" stroke="#DDD" width="70" height="50" x="0" y="0" rx="8" ry="8"/><text text-anchor="middle" fill="#FFF" x="35" y="20">-510</text></a><g transform="translate(0,50)"><g><a target="_top" xlink:href="mob-slice5-step2628000-ofs30-col30-cat2.html"><rect style="display:none" class="hcell-act-col30-cat2" fill="#5CB85C" stroke="#000" stroke-width="5" width="70" height="43" x="0" y="5" rx="8" ry="8"/><rect class="hcell-col30-cat2" fill="#5CB85C" stroke="#DDD" width="70" height="53" x="0" y="0" rx="8" ry="8"/><text text-anchor="middle" fill="#FFF" x="35" y="20">-543</text></a></g></g></g></g></g><g><g transform="translate(85,216)"><g><a target="_top" xlink:href="mob-slice5-step2628000-ofs30-col31-cat4.html"><rect style="display:none" class="hcell-act-col31-cat4" fill="#337AB7" stroke="#000" stroke-width="5" width="70" height="20" x="0" y="-25" rx="8" ry="8"/><rect class="hcell-col31-cat4" fill="#337AB7" stroke="#DDD" width="70" height="30" x="0" y="-30" rx="8" ry="8"/><text text-anchor="middle" fill="#FFF" x="35" y="-10">296</text></a><g transform="translate(0,-30)"><g><a target="_top" xlink:href="mob-slice5-step2628000-ofs30-col31-cat0.html"><rect style="display:none" class="hcell-act-col31-cat0" fill="#D9534F" stroke="#000" stroke-width="5" width="70" height="100" x="0" y="-105" rx="8" ry="8"/><rect class="hcell-col31-cat0" fill="#D9534F" stroke="#DDD" width="70" height="110" x="0" y="-110" rx="8" ry="8"/><text text-anchor="middle" fill="#FFF" x="35" y="-90">1120</text></a></g></g></g></g><rect fill="none" stroke="#DDD" width="70" height="30" rx="8" ry="8" x="85" y="226"/><text text-anchor="middle" fill="#333" x="120" y="246">15-01</text><g transform="translate(85,266)"><g><a target="_top" xlink:href="mob-slice5-step2628000-ofs30-col31-cat1.html"><rect style="display:none" class="hcell-act-col31-cat1" fill="#F0AD4E" stroke="#000" stroke-width="5" width="70" height="20" x="0" y="5" rx="8" ry="8"/><rect class="hcell-col31-cat1" fill="#F0AD4E" stroke="#DDD" width="70" height="30" x="0" y="0" rx="8" ry="8"/><text text-anchor="middle" fill="#FFF" x="35" y="20">-79</text></a><g transform="translate(0,30)"><g><a target="_top" xlink:href="mob-slice5-step2628000-ofs30-col31-cat3.html"><rect style="display:none" class="hcell-act-col31-cat3" fill="#5BC0DE" stroke="#000" stroke-width="5" width="70" height="41" x="0" y="5" rx="8" ry="8"/><rect class="hcell-col31-cat3" fill="#5BC0DE" stroke="#DDD" width="70" height="51" x="0" y="0" rx="8" ry="8"/><text text-anchor="middle" fill="#FFF" x="35" y="20">-520</text></a><g transform="translate(0,51)"><g><a target="_top" xlink:href="mob-slice5-step2628000-ofs30-col31-cat2.html"><rect style="display:none" class="hcell-act-col31-cat2" fill="#5CB85C" stroke="#000" stroke-width="5" width="70" height="109" x="0" y="5" rx="8" ry="8"/><rect class="hcell-col31-cat2" fill="#5CB85C" stroke="#DDD" width="70" height="119" x="0" y="0" rx="8" ry="8"/><text text-anchor="middle" fill="#FFF" x="35" y="20">-1206</text></a></g></g></g></g></g></g></g><g><g transform="translate(165,216)"><g><a target="_top" xlink:href="mob-slice5-step2628000-ofs30-col32-cat0.html"><rect style="display:none" class="hcell-act-col32-cat0" fill="#D9534F" stroke="#000" stroke-width="5" width="70" height="20" x="0" y="-25" rx="8" ry="8"/><rect class="hcell-col32-cat0" fill="#D9534F" stroke="#DDD" width="70" height="30" x="0" y="-30" rx="8" ry="8"/><text text-anchor="middle" fill="#FFF" x="35" y="-10">160</text></a><g transform="translate(0,-30)"><g><a target="_top" xlink:href="mob-slice5-step2628000-ofs30-col32-cat4.html"><rect style="display:none" class="hcell-act-col32-cat4" fill="#337AB7" stroke="#000" stroke-width="5" width="70" height="89" x="0" y="-94" rx="8" ry="8"/><rect class="hcell-col32-cat4" fill="#337AB7" stroke="#DDD" width="70" height="99" x="0" y="-99" rx="8" ry="8"/><text text-anchor="middle" fill="#FFF" x="35" y="-79">1007</text></a></g></g></g></g><rect fill="none" stroke="#DDD" width="70" height="30" rx="8" ry="8" x="165" y="226"/><text text-anchor="middle" fill="#333" x="200" y="246">15-03</text><g transform="translate(165,266)"><g><a target="_top" xlink:href="mob-slice5-step2628000-ofs30-col32-cat1.html"><rect style="display:none" class="hcell-act-col32-cat1" fill="#F0AD4E" stroke="#000" stroke-width="5" width="70" height="20" x="0" y="5" rx="8" ry="8"/><rect class="hcell-col32-cat1" fill="#F0AD4E" stroke="#DDD" width="70" height="30" x="0" y="0" rx="8" ry="8"/><text text-anchor="middle" fill="#FFF" x="35" y="20">-28</text></a><g transform="translate(0,30)"><g><a target="_top" xlink:href="mob-slice5-step2628000-ofs30-col32-cat3.html"><rect style="display:none" class="hcell-act-col32-cat3" fill="#5BC0DE" stroke="#000" stroke-width="5" width="70" height="20" x="0" y="5" rx="8" ry="8"/><rect class="hcell-col32-cat3" fill="#5BC0DE" stroke="#DDD" width="70" height="30" x="0" y="0" rx="8" ry="8"/><text text-anchor="middle" fill="#FFF" x="35" y="20">-55</text></a><g transform="translate(0,30)"><g><a target="_top" xlink:href="mob-slice5-step2628000-ofs30-col32-cat2.html"><rect style="display:none" class="hcell-act-col32-cat2" fill="#5CB85C" stroke="#000" stroke-width="5" width="70" height="32" x="0" y="5" rx="8" ry="8"/><rect class="hcell-col32-cat2" fill="#5CB85C" stroke="#DDD" width="70" height="42" x="0" y="0" rx="8" ry="8"/><text text-anchor="middle" fill="#FFF" x="35" y="20">-432</text></a></g></g></g></g></g></g></g><g><g transform="translate(245,216)"><g><a target="_top" xlink:href="mob-slice5-step2628000-ofs30-col33-cat4.html"><rect style="display:none" class="hcell-act-col33-cat4" fill="#337AB7" stroke="#000" stroke-width="5" width="70" height="61" x="0" y="-66" rx="8" ry="8"/><rect class="hcell-col33-cat4" fill="#337AB7" stroke="#DDD" width="70" height="71" x="0" y="-71" rx="8" ry="8"/><text text-anchor="middle" fill="#FFF" x="35" y="-51">723</text></a><g transform="translate(0,-71)"><g><a target="_top" xlink:href="mob-slice5-step2628000-ofs30-col33-cat0.html"><rect style="display:none" class="hcell-act-col33-cat0" fill="#D9534F" stroke="#000" stroke-width="5" width="70" height="130" x="0" y="-135" rx="8" ry="8"/><rect class="hcell-col33-cat0" fill="#D9534F" stroke="#DDD" width="70" height="140" x="0" y="-140" rx="8" ry="8"/><text text-anchor="middle" fill="#FFF" x="35" y="-120">1420</text></a></g></g></g></g><rect fill="none" stroke="#DDD" width="70" height="30" rx="8" ry="8" x="245" y="226"/><text text-anchor="middle" fill="#333" x="280" y="246">15-04</text><g transform="translate(245,266)"><g><a target="_top" xlink:href="mob-slice5-step2628000-ofs30-col33-cat1.html"><rect style="display:none" class="hcell-act-col33-cat1" fill="#F0AD4E" stroke="#000" stroke-width="5" width="70" height="20" x="0" y="5" rx="8" ry="8"/><rect class="hcell-col33-cat1" fill="#F0AD4E" stroke="#DDD" width="70" height="30" x="0" y="0" rx="8" ry="8"/><text text-anchor="middle" fill="#FFF" x="35" y="20">-94</text></a><g transform="translate(0,30)"><g><a target="_top" xlink:href="mob-slice5-step2628000-ofs30-col33-cat2.html"><rect style="display:none" class="hcell-act-col33-cat2" fill="#5CB85C" stroke="#000" stroke-width="5" width="70" height="169" x="0" y="5" rx="8" ry="8"/><rect class="hcell-col33-cat2" fill="#5CB85C" stroke="#DDD" width="70" height="179" x="0" y="0" rx="8" ry="8"/><text text-anchor="middle" fill="#FFF" x="35" y="20">-1812</text></a></g></g></g></g></g><g><g transform="translate(325,216)"><g><a target="_top" xlink:href="mob-slice5-step2628000-ofs30-col34-cat2.html"><rect style="display:none" class="hcell-act-col34-cat2" fill="#5CB85C" stroke="#000" stroke-width="5" width="70" height="77" x="0" y="-82" rx="8" ry="8"/><rect class="hcell-col34-cat2" fill="#5CB85C" stroke="#DDD" width="70" height="87" x="0" y="-87" rx="8" ry="8"/><text text-anchor="middle" fill="#FFF" x="35" y="-67">890</text></a></g></g><rect fill="none" stroke="#DDD" width="70" height="30" rx="8" ry="8" x="325" y="226"/><text text-anchor="middle" fill="#333" x="360" y="246">15-05</text><g transform="translate(325,266)"></g></g></svg>