<svg xmlns="http://www.w3.org/2000/svg" xmlns:xlink="http://www.w3.org/1999/xlink" width="100%" height="100%" viewBox="0 0 400 460"><g><g transform="translate(5,405)"><g><a target="_top" xlink:href="mob-sliceTagElectronics-step2628000-ofs5-col5-cat0.html"><rect style="display:none" class="hcell-act-col5-cat0" fill="#777" stroke="#000" stroke-width="5" width="70" height="390" x="0" y="-395" rx="8" ry="8"/><rect class="hcell-col5-cat0" fill="#777" stroke="#DDD" width="70" height="400" x="0" y="-400" rx="8" ry="8"/><text text-anchor="middle" fill="#FFF" x="35" y="-380">46</text></a></g></g><rect fill="none" stroke="#DDD" width="70" height="30" rx="8" ry="8" x="5" y="415"/><text text-anchor="middle" fill="#333" x="40" y="435">12-12</text><g transform="translate(5,455)"></g></g><g><g transform="translate(85,405)"><g><a target="_top" xlink:href="mob-sliceTagElectronics-step2628000-ofs5-col6-cat0.html"><rect style="display:none" class="hcell-act-col6-cat0" fill="#777" stroke="#000" stroke-width="5" width="70" height="292" x="0" y="-297" rx="8" ry="8"/><rect class="hcell-col6-cat0" fill="#777" stroke="#DDD" width="70" height="302" x="0" y="-302" rx="8" ry="8"/><text text-anchor="middle" fill="#FFF" x="35" y="-282">35</text></a></g></g><rect fill="none" stroke="#DDD" width="70" height="30" rx="8" ry="8" x="85" y="415"/><text text-anchor="middle" fill="#333" x="120" y="435">12-12</text><g transform="translate(85,455)"></g></g><g><g transform="translate(165,405)"><g><a target="_top" xlink:href="mob-sliceTagElectronics-step2628000-ofs5-col7-cat0.html"><rect style="display:none" class="hcell-act-col7-cat0" fill="#777" stroke="#000" stroke-width="5" width="70" height="180" x="0" y="-185" rx="8" ry="8"/><rect class="hcell-col7-cat0" fill="#777" stroke="#DDD" width="70" height="190" x="0" y="-190" rx="8" ry="8"/><text text-anchor="middle" fill="#FFF" x="35" y="-170">22</text></a></g></g><rect fill="none" stroke="#DDD" width="70" height="30" rx="8" ry="8" x="165" y="415"/><text text-anchor="middle" fill="#333" x="200" y="435">13-01</text><g transform="translate(165,455)"></g></g><g><g transform="translate(245,405)"><g><a target="_top" xlink:href="mob-sliceTagElectronics-step2628000-ofs5-col8-cat0.html"><rect style="display:none" class="hcell-act-col8-cat0" fill="#777" stroke="#000" stroke-width="5" width="70" height="28" x="0" y="-33" rx="8" ry="8"/><rect class="hcell-col8-cat0" fill="#777" stroke="#DDD" width="70" height="38" x="0" y="-38" rx="8" ry="8"/><text text-anchor="middle" fill="#FFF" x="35" y="-18">4</text></a></g></g><rect fill="none" stroke="#DDD" width="70" height="30" rx="8" ry="8" x="245" y="415"/><text text-anchor="middle" fill="#333" x="280" y="435">13-03</text><g transform="translate(245,455)"></g></g><g><g transform="translate(325,405)"><g><a target="_top" xlink:href="mob-sliceTagElectronics-step2628000-ofs5-col9-cat0.html"><rect style="display:none" class="hcell-act-col9-cat0" fill="#777" stroke="#000" stroke-width="5" width="70" height="20" x="0" y="-25" rx="8" ry="8"/><rect class="hcell-col9-cat0" fill="#777" stroke="#DDD" width="70" height="30" x="0" y="-30" rx="8" ry="8"/><text text-anchor="middle" fill="#FFF" x="35" y="-10">1</text></a></g></g><rect fill="none" stroke="#DDD" width="70" height="30" rx="8" ry="8" x="325" y="415"/><text text-anchor="middle" fill="#333" x="360" y="435">13-04</text><g transform="translate(325,455)"></g></g></svg>