<svg xmlns="http://www.w3.org/2000/svg" xmlns:xlink="http://www.w3.org/1999/xlink" width="100%" height="100%" viewBox="0 0 400 459"><g><g transform="translate(5,323)"><g><a target="_top" xlink:href="mob-sliceTagClothes-step17936641-ofs0-col0-cat0.html"><rect style="display:none" class="hcell-act-col0-cat0" fill="#777" stroke="#000" stroke-width="5" width="70" height="174" x="0" y="-179" rx="8" ry="8"/><rect class="hcell-col0-cat0" fill="#777" stroke="#DDD" width="70" height="184" x="0" y="-184" rx="8" ry="8"/><text text-anchor="middle" fill="#FFF" x="35" y="-164">520</text></a></g></g><rect fill="none" stroke="#DDD" width="70" height="30" rx="8" ry="8" x="5" y="333"/><text text-anchor="middle" fill="#333" x="40" y="353">12-07</text><g transform="translate(5,373)"><g><a target="_top" xlink:href="mob-sliceTagClothes-step17936641-ofs0-col0-cat0.html"><rect style="display:none" class="hcell-act-col0-cat0" fill="#777" stroke="#000" stroke-width="5" width="70" height="71" x="0" y="5" rx="8" ry="8"/><rect class="hcell-col0-cat0" fill="#777" stroke="#DDD" width="70" height="81" x="0" y="0" rx="8" ry="8"/><text text-anchor="middle" fill="#FFF" x="35" y="20">-231</text></a></g></g></g><g><g transform="translate(85,323)"><g><a target="_top" xlink:href="mob-sliceTagClothes-step17936641-ofs0-col1-cat0.html"><rect style="display:none" class="hcell-act-col1-cat0" fill="#777" stroke="#000" stroke-width="5" width="70" height="244" x="0" y="-249" rx="8" ry="8"/><rect class="hcell-col1-cat0" fill="#777" stroke="#DDD" width="70" height="254" x="0" y="-254" rx="8" ry="8"/><text text-anchor="middle" fill="#FFF" x="35" y="-234">719</text></a></g></g><rect fill="none" stroke="#DDD" width="70" height="30" rx="8" ry="8" x="85" y="333"/><text text-anchor="middle" fill="#333" x="120" y="353">13-01</text><g transform="translate(85,373)"><g><a target="_top" xlink:href="mob-sliceTagClothes-step17936641-ofs0-col1-cat0.html"><rect style="display:none" class="hcell-act-col1-cat0" fill="#777" stroke="#000" stroke-width="5" width="70" height="20" x="0" y="5" rx="8" ry="8"/><rect class="hcell-col1-cat0" fill="#777" stroke="#DDD" width="70" height="30" x="0" y="0" rx="8" ry="8"/><text text-anchor="middle" fill="#FFF" x="35" y="20">-59</text></a></g></g></g><g><g transform="translate(165,323)"><g><a target="_top" xlink:href="mob-sliceTagClothes-step17936641-ofs0-col2-cat0.html"><rect style="display:none" class="hcell-act-col2-cat0" fill="#777" stroke="#000" stroke-width="5" width="70" height="128" x="0" y="-133" rx="8" ry="8"/><rect class="hcell-col2-cat0" fill="#777" stroke="#DDD" width="70" height="138" x="0" y="-138" rx="8" ry="8"/><text text-anchor="middle" fill="#FFF" x="35" y="-118">390</text></a></g></g><rect fill="none" stroke="#DDD" width="70" height="30" rx="8" ry="8" x="165" y="333"/><text text-anchor="middle" fill="#333" x="200" y="353">13-08</text><g transform="translate(165,373)"><g><a target="_top" xlink:href="mob-sliceTagClothes-step17936641-ofs0-col2-cat0.html"><rect style="display:none" class="hcell-act-col2-cat0" fill="#777" stroke="#000" stroke-width="5" width="70" height="20" x="0" y="5" rx="8" ry="8"/><rect class="hcell-col2-cat0" fill="#777" stroke="#DDD" width="70" height="30" x="0" y="0" rx="8" ry="8"/><text text-anchor="middle" fill="#FFF" x="35" y="20">-34</text></a></g></g></g><g><g transform="translate(245,323)"><g><a target="_top" xlink:href="mob-sliceTagClothes-step17936641-ofs0-col3-cat0.html"><rect style="display:none" class="hcell-act-col3-cat0" fill="#777" stroke="#000" stroke-width="5" width="70" height="308" x="0" y="-313" rx="8" ry="8"/><rect class="hcell-col3-cat0" fill="#777" stroke="#DDD" width="70" height="318" x="0" y="-318" rx="8" ry="8"/><text text-anchor="middle" fill="#FFF" x="35" y="-298">898</text></a></g></g><rect fill="none" stroke="#DDD" width="70" height="30" rx="8" ry="8" x="245" y="333"/><text text-anchor="middle" fill="#333" x="280" y="353">14-03</text><g transform="translate(245,373)"><g><a target="_top" xlink:href="mob-sliceTagClothes-step17936641-ofs0-col3-cat0.html"><rect style="display:none" class="hcell-act-col3-cat0" fill="#777" stroke="#000" stroke-width="5" width="70" height="32" x="0" y="5" rx="8" ry="8"/><rect class="hcell-col3-cat0" fill="#777" stroke="#DDD" width="70" height="42" x="0" y="0" rx="8" ry="8"/><text text-anchor="middle" fill="#FFF" x="35" y="20">-120</text></a></g></g></g><g><g transform="translate(325,323)"><g><a target="_top" xlink:href="mob-sliceTagClothes-step17936641-ofs0-col4-cat0.html"><rect style="display:none" class="hcell-act-col4-cat0" fill="#777" stroke="#000" stroke-width="5" width="70" height="237" x="0" y="-242" rx="8" ry="8"/><rect class="hcell-col4-cat0" fill="#777" stroke="#DDD" width="70" height="247" x="0" y="-247" rx="8" ry="8"/><text text-anchor="middle" fill="#FFF" x="35" y="-227">700</text></a></g></g><rect fill="none" stroke="#DDD" width="70" height="30" rx="8" ry="8" x="325" y="333"/><text text-anchor="middle" fill="#333" x="360" y="353">14-10</text><g transform="translate(325,373)"></g></g></svg>