<svg xmlns="http://www.w3.org/2000/svg" xmlns:xlink="http://www.w3.org/1999/xlink" width="100%" height="100%" viewBox="0 0 400 459"><g><g transform="translate(5,404)"><g><a target="_top" xlink:href="mob-slice1-step2628000-ofs0-col0-cat1.html"><rect style="display:none" class="hcell-act-col0-cat1" fill="#5BC0DE" stroke="#000" stroke-width="5" width="70" height="20" x="0" y="-25" rx="8" ry="8"/><rect class="hcell-col0-cat1" fill="#5BC0DE" stroke="#DDD" width="70" height="30" x="0" y="-30" rx="8" ry="8"/><text text-anchor="middle" fill="#FFF" x="35" y="-10">2</text></a><g transform="translate(0,-30)"><g><a target="_top" xlink:href="mob-slice1-step2628000-ofs0-col0-cat0.html"><rect style="display:none" class="hcell-act-col0-cat0" fill="#5CB85C" stroke="#000" stroke-width="5" width="70" height="56" x="0" y="-61" rx="8" ry="8"/><rect class="hcell-col0-cat0" fill="#5CB85C" stroke="#DDD" width="70" height="66" x="0" y="-66" rx="8" ry="8"/><text text-anchor="middle" fill="#FFF" x="35" y="-46">20</text></a><g transform="translate(0,-66)"><g><a target="_top" xlink:href="mob-slice1-step2628000-ofs0-col0-cat4.html"><rect style="display:none" class="hcell-act-col0-cat4" fill="#D9534F" stroke="#000" stroke-width="5" width="70" height="79" x="0" y="-84" rx="8" ry="8"/><rect class="hcell-col0-cat4" fill="#D9534F" stroke="#DDD" width="70" height="89" x="0" y="-89" rx="8" ry="8"/><text text-anchor="middle" fill="#FFF" x="35" y="-69">28</text></a><g transform="translate(0,-89)"><g><a target="_top" xlink:href="mob-slice1-step2628000-ofs0-col0-cat2.html"><rect style="display:none" class="hcell-act-col0-cat2" fill="#337AB7" stroke="#000" stroke-width="5" width="70" height="98" x="0" y="-103" rx="8" ry="8"/><rect class="hcell-col0-cat2" fill="#337AB7" stroke="#DDD" width="70" height="108" x="0" y="-108" rx="8" ry="8"/><text text-anchor="middle" fill="#FFF" x="35" y="-88">33</text></a></g></g></g></g></g></g></g></g><rect fill="none" stroke="#DDD" width="70" height="30" rx="8" ry="8" x="5" y="414"/><text text-anchor="middle" fill="#333" x="40" y="434">12-07</text><g transform="translate(5,454)"></g></g><g><g transform="translate(85,404)"><g><a target="_top" xlink:href="mob-slice1-step2628000-ofs0-col1-cat4.html"><rect style="display:none" class="hcell-act-col1-cat4" fill="#D9534F" stroke="#000" stroke-width="5" width="70" height="20" x="0" y="-25" rx="8" ry="8"/><rect class="hcell-col1-cat4" fill="#D9534F" stroke="#DDD" width="70" height="30" x="0" y="-30" rx="8" ry="8"/><text text-anchor="middle" fill="#FFF" x="35" y="-10">2</text></a><g transform="translate(0,-30)"><g><a target="_top" xlink:href="mob-slice1-step2628000-ofs0-col1-cat2.html"><rect style="display:none" class="hcell-act-col1-cat2" fill="#337AB7" stroke="#000" stroke-width="5" width="70" height="42" x="0" y="-47" rx="8" ry="8"/><rect class="hcell-col1-cat2" fill="#337AB7" stroke="#DDD" width="70" height="52" x="0" y="-52" rx="8" ry="8"/><text text-anchor="middle" fill="#FFF" x="35" y="-32">16</text></a><g transform="translate(0,-52)"><g><a target="_top" xlink:href="mob-slice1-step2628000-ofs0-col1-cat1.html"><rect style="display:none" class="hcell-act-col1-cat1" fill="#5BC0DE" stroke="#000" stroke-width="5" width="70" height="126" x="0" y="-131" rx="8" ry="8"/><rect class="hcell-col1-cat1" fill="#5BC0DE" stroke="#DDD" width="70" height="136" x="0" y="-136" rx="8" ry="8"/><text text-anchor="middle" fill="#FFF" x="35" y="-116">42</text></a></g></g></g></g></g></g><rect fill="none" stroke="#DDD" width="70" height="30" rx="8" ry="8" x="85" y="414"/><text text-anchor="middle" fill="#333" x="120" y="434">12-08</text><g transform="translate(85,454)"></g></g><g><g transform="translate(165,404)"><g><a target="_top" xlink:href="mob-slice1-step2628000-ofs0-col2-cat2.html"><rect style="display:none" class="hcell-act-col2-cat2" fill="#337AB7" stroke="#000" stroke-width="5" width="70" height="69" x="0" y="-74" rx="8" ry="8"/><rect class="hcell-col2-cat2" fill="#337AB7" stroke="#DDD" width="70" height="79" x="0" y="-79" rx="8" ry="8"/><text text-anchor="middle" fill="#FFF" x="35" y="-59">24</text></a><g transform="translate(0,-79)"><g><a target="_top" xlink:href="mob-slice1-step2628000-ofs0-col2-cat1.html"><rect style="display:none" class="hcell-act-col2-cat1" fill="#5BC0DE" stroke="#000" stroke-width="5" width="70" height="75" x="0" y="-80" rx="8" ry="8"/><rect class="hcell-col2-cat1" fill="#5BC0DE" stroke="#DDD" width="70" height="85" x="0" y="-85" rx="8" ry="8"/><text text-anchor="middle" fill="#FFF" x="35" y="-65">26</text></a><g transform="translate(0,-85)"><g><a target="_top" xlink:href="mob-slice1-step2628000-ofs0-col2-cat4.html"><rect style="display:none" class="hcell-act-col2-cat4" fill="#D9534F" stroke="#000" stroke-width="5" width="70" height="92" x="0" y="-97" rx="8" ry="8"/><rect class="hcell-col2-cat4" fill="#D9534F" stroke="#DDD" width="70" height="102" x="0" y="-102" rx="8" ry="8"/><text text-anchor="middle" fill="#FFF" x="35" y="-82">31</text></a><g transform="translate(0,-102)"><g><a target="_top" xlink:href="mob-slice1-step2628000-ofs0-col2-cat0.html"><rect style="display:none" class="hcell-act-col2-cat0" fill="#5CB85C" stroke="#000" stroke-width="5" width="70" height="123" x="0" y="-128" rx="8" ry="8"/><rect class="hcell-col2-cat0" fill="#5CB85C" stroke="#DDD" width="70" height="133" x="0" y="-133" rx="8" ry="8"/><text text-anchor="middle" fill="#FFF" x="35" y="-113">41</text></a></g></g></g></g></g></g></g></g><rect fill="none" stroke="#DDD" width="70" height="30" rx="8" ry="8" x="165" y="414"/><text text-anchor="middle" fill="#333" x="200" y="434">12-08</text><g transform="translate(165,454)"></g></g><g><g transform="translate(245,404)"><g><a target="_top" xlink:href="mob-slice1-step2628000-ofs0-col3-cat1.html"><rect style="display:none" class="hcell-act-col3-cat1" fill="#5BC0DE" stroke="#000" stroke-width="5" width="70" height="20" x="0" y="-25" rx="8" ry="8"/><rect class="hcell-col3-cat1" fill="#5BC0DE" stroke="#DDD" width="70" height="30" x="0" y="-30" rx="8" ry="8"/><text text-anchor="middle" fill="#FFF" x="35" y="-10">1</text></a><g transform="translate(0,-30)"><g><a target="_top" xlink:href="mob-slice1-step2628000-ofs0-col3-cat2.html"><rect style="display:none" class="hcell-act-col3-cat2" fill="#337AB7" stroke="#000" stroke-width="5" width="70" height="20" x="0" y="-25" rx="8" ry="8"/><rect class="hcell-col3-cat2" fill="#337AB7" stroke="#DDD" width="70" height="30" x="0" y="-30" rx="8" ry="8"/><text text-anchor="middle" fill="#FFF" x="35" y="-10">5</text></a><g transform="translate(0,-30)"><g><a target="_top" xlink:href="mob-slice1-step2628000-ofs0-col3-cat0.html"><rect style="display:none" class="hcell-act-col3-cat0" fill="#5CB85C" stroke="#000" stroke-width="5" width="70" height="91" x="0" y="-96" rx="8" ry="8"/><rect class="hcell-col3-cat0" fill="#5CB85C" stroke="#DDD" width="70" height="101" x="0" y="-101" rx="8" ry="8"/><text text-anchor="middle" fill="#FFF" x="35" y="-81">31</text></a></g></g></g></g></g></g><rect fill="none" stroke="#DDD" width="70" height="30" rx="8" ry="8" x="245" y="414"/><text text-anchor="middle" fill="#333" x="280" y="434">12-10</text><g transform="translate(245,454)"></g></g><g><g transform="translate(325,404)"><g><a target="_top" xlink:href="mob-slice1-step2628000-ofs0-col4-cat2.html"><rect style="display:none" class="hcell-act-col4-cat2" fill="#337AB7" stroke="#000" stroke-width="5" width="70" height="67" x="0" y="-72" rx="8" ry="8"/><rect class="hcell-col4-cat2" fill="#337AB7" stroke="#DDD" width="70" height="77" x="0" y="-77" rx="8" ry="8"/><text text-anchor="middle" fill="#FFF" x="35" y="-57">24</text></a><g transform="translate(0,-77)"><g><a target="_top" xlink:href="mob-slice1-step2628000-ofs0-col4-cat0.html"><rect style="display:none" class="hcell-act-col4-cat0" fill="#5CB85C" stroke="#000" stroke-width="5" width="70" height="138" x="0" y="-143" rx="8" ry="8"/><rect class="hcell-col4-cat0" fill="#5CB85C" stroke="#DDD" width="70" height="148" x="0" y="-148" rx="8" ry="8"/><text text-anchor="middle" fill="#FFF" x="35" y="-128">46</text></a></g></g></g></g><rect fill="none" stroke="#DDD" width="70" height="30" rx="8" ry="8" x="325" y="414"/><text text-anchor="middle" fill="#333" x="360" y="434">12-10</text><g transform="translate(325,454)"></g></g></svg>