<svg xmlns="http://www.w3.org/2000/svg" xmlns:xlink="http://www.w3.org/1999/xlink" width="100%" height="100%" viewBox="0 0 400 459"><g><g transform="translate(5,300)"></g><rect fill="none" stroke="#DDD" width="70" height="30" rx="8" ry="8" x="5" y="310"/><text text-anchor="middle" fill="#333" x="40" y="330">14-08</text><g transform="translate(5,350)"><g><a target="_top" xlink:href="mob-sliceTagHobby-step2628000-ofs25-col25-cat0.html"><rect style="display:none" class="hcell-act-col25-cat0" fill="#777" stroke="#000" stroke-width="5" width="70" height="94" x="0" y="5" rx="8" ry="8"/><rect class="hcell-col25-cat0" fill="#777" stroke="#DDD" width="70" height="104" x="0" y="0" rx="8" ry="8"/><text text-anchor="middle" fill="#FFF" x="35" y="20">-61</text></a></g></g></g><g><g transform="translate(85,300)"><g><a target="_top" xlink:href="mob-sliceTagHobby-step2628000-ofs25-col26-cat0.html"><rect style="display:none" class="hcell-act-col26-cat0" fill="#777" stroke="#000" stroke-width="5" width="70" height="285" x="0" y="-290" rx="8" ry="8"/><rect class="hcell-col26-cat0" fill="#777" stroke="#DDD" width="70" height="295" x="0" y="-295" rx="8" ry="8"/><text text-anchor="middle" fill="#FFF" x="35" y="-275">169</text></a></g></g><rect fill="none" stroke="#DDD" width="70" height="30" rx="8" ry="8" x="85" y="310"/><text text-anchor="middle" fill="#333" x="120" y="330">14-08</text><g transform="translate(85,350)"></g></g><g><g transform="translate(165,300)"><g><a target="_top" xlink:href="mob-sliceTagHobby-step2628000-ofs25-col27-cat0.html"><rect style="display:none" class="hcell-act-col27-cat0" fill="#777" stroke="#000" stroke-width="5" width="70" height="99" x="0" y="-104" rx="8" ry="8"/><rect class="hcell-col27-cat0" fill="#777" stroke="#DDD" width="70" height="109" x="0" y="-109" rx="8" ry="8"/><text text-anchor="middle" fill="#FFF" x="35" y="-89">62</text></a></g></g><rect fill="none" stroke="#DDD" width="70" height="30" rx="8" ry="8" x="165" y="310"/><text text-anchor="middle" fill="#333" x="200" y="330">14-10</text><g transform="translate(165,350)"></g></g><g><g transform="translate(245,300)"><g><a target="_top" xlink:href="mob-sliceTagHobby-step2628000-ofs25-col28-cat0.html"><rect style="display:none" class="hcell-act-col28-cat0" fill="#777" stroke="#000" stroke-width="5" width="70" height="243" x="0" y="-248" rx="8" ry="8"/><rect class="hcell-col28-cat0" fill="#777" stroke="#DDD" width="70" height="253" x="0" y="-253" rx="8" ry="8"/><text text-anchor="middle" fill="#FFF" x="35" y="-233">145</text></a></g></g><rect fill="none" stroke="#DDD" width="70" height="30" rx="8" ry="8" x="245" y="310"/><text text-anchor="middle" fill="#333" x="280" y="330">14-10</text><g transform="translate(245,350)"></g></g><g><g transform="translate(325,300)"><g><a target="_top" xlink:href="mob-sliceTagHobby-step2628000-ofs25-col29-cat0.html"><rect style="display:none" class="hcell-act-col29-cat0" fill="#777" stroke="#000" stroke-width="5" width="70" height="27" x="0" y="-32" rx="8" ry="8"/><rect class="hcell-col29-cat0" fill="#777" stroke="#DDD" width="70" height="37" x="0" y="-37" rx="8" ry="8"/><text text-anchor="middle" fill="#FFF" x="35" y="-17">21</text></a></g></g><rect fill="none" stroke="#DDD" width="70" height="30" rx="8" ry="8" x="325" y="310"/><text text-anchor="middle" fill="#333" x="360" y="330">14-12</text><g transform="translate(325,350)"></g></g></svg>