<svg xmlns="http://www.w3.org/2000/svg" xmlns:xlink="http://www.w3.org/1999/xlink" width="100%" height="100%" viewBox="0 0 400 459"><g><g transform="translate(5,152)"><g><a target="_top" xlink:href="mob-sliceTagCashDep-step17936641-ofs0-col0-cat0.html"><rect style="display:none" class="hcell-act-col0-cat0" fill="#777" stroke="#000" stroke-width="5" width="70" height="137" x="0" y="-142" rx="8" ry="8"/><rect class="hcell-col0-cat0" fill="#777" stroke="#DDD" width="70" height="147" x="0" y="-147" rx="8" ry="8"/><text text-anchor="middle" fill="#FFF" x="35" y="-127">2200</text></a></g></g><rect fill="none" stroke="#DDD" width="70" height="30" rx="8" ry="8" x="5" y="162"/><text text-anchor="middle" fill="#333" x="40" y="182">12-07</text><g transform="translate(5,202)"></g></g><g><g transform="translate(85,152)"><g><a target="_top" xlink:href="mob-sliceTagCashDep-step17936641-ofs0-col1-cat0.html"><rect style="display:none" class="hcell-act-col1-cat0" fill="#777" stroke="#000" stroke-width="5" width="70" height="94" x="0" y="-99" rx="8" ry="8"/><rect class="hcell-col1-cat0" fill="#777" stroke="#DDD" width="70" height="104" x="0" y="-104" rx="8" ry="8"/><text text-anchor="middle" fill="#FFF" x="35" y="-84">1560</text></a></g></g><rect fill="none" stroke="#DDD" width="70" height="30" rx="8" ry="8" x="85" y="162"/><text text-anchor="middle" fill="#333" x="120" y="182">13-01</text><g transform="translate(85,202)"><g><a target="_top" xlink:href="mob-sliceTagCashDep-step17936641-ofs0-col1-cat0.html"><rect style="display:none" class="hcell-act-col1-cat0" fill="#777" stroke="#000" stroke-width="5" width="70" height="242" x="0" y="5" rx="8" ry="8"/><rect class="hcell-col1-cat0" fill="#777" stroke="#DDD" width="70" height="252" x="0" y="0" rx="8" ry="8"/><text text-anchor="middle" fill="#FFF" x="35" y="20">-3760</text></a></g></g></g><g><g transform="translate(165,152)"><g><a target="_top" xlink:href="mob-sliceTagCashDep-step17936641-ofs0-col2-cat0.html"><rect style="display:none" class="hcell-act-col2-cat0" fill="#777" stroke="#000" stroke-width="5" width="70" height="32" x="0" y="-37" rx="8" ry="8"/><rect class="hcell-col2-cat0" fill="#777" stroke="#DDD" width="70" height="42" x="0" y="-42" rx="8" ry="8"/><text text-anchor="middle" fill="#FFF" x="35" y="-22">640</text></a></g></g><rect fill="none" stroke="#DDD" width="70" height="30" rx="8" ry="8" x="165" y="162"/><text text-anchor="middle" fill="#333" x="200" y="182">13-08</text><g transform="translate(165,202)"><g><a target="_top" xlink:href="mob-sliceTagCashDep-step17936641-ofs0-col2-cat0.html"><rect style="display:none" class="hcell-act-col2-cat0" fill="#777" stroke="#000" stroke-width="5" width="70" height="32" x="0" y="5" rx="8" ry="8"/><rect class="hcell-col2-cat0" fill="#777" stroke="#DDD" width="70" height="42" x="0" y="0" rx="8" ry="8"/><text text-anchor="middle" fill="#FFF" x="35" y="20">-640</text></a></g></g></g><g><g transform="translate(245,152)"><g><a target="_top" xlink:href="mob-sliceTagCashDep-step17936641-ofs0-col3-cat0.html"><rect style="display:none" class="hcell-act-col3-cat0" fill="#777" stroke="#000" stroke-width="5" width="70" height="121" x="0" y="-126" rx="8" ry="8"/><rect class="hcell-col3-cat0" fill="#777" stroke="#DDD" width="70" height="131" x="0" y="-131" rx="8" ry="8"/><text text-anchor="middle" fill="#FFF" x="35" y="-111">1960</text></a></g></g><rect fill="none" stroke="#DDD" width="70" height="30" rx="8" ry="8" x="245" y="162"/><text text-anchor="middle" fill="#333" x="280" y="182">14-03</text><g transform="translate(245,202)"><g><a target="_top" xlink:href="mob-sliceTagCashDep-step17936641-ofs0-col3-cat0.html"><rect style="display:none" class="hcell-act-col3-cat0" fill="#777" stroke="#000" stroke-width="5" width="70" height="121" x="0" y="5" rx="8" ry="8"/><rect class="hcell-col3-cat0" fill="#777" stroke="#DDD" width="70" height="131" x="0" y="0" rx="8" ry="8"/><text text-anchor="middle" fill="#FFF" x="35" y="20">-1960</text></a></g></g></g><g><g transform="translate(325,152)"></g><rect fill="none" stroke="#DDD" width="70" height="30" rx="8" ry="8" x="325" y="162"/><text text-anchor="middle" fill="#333" x="360" y="182">14-10</text><g transform="translate(325,202)"></g></g></svg>