<svg xmlns="http://www.w3.org/2000/svg" xmlns:xlink="http://www.w3.org/1999/xlink" width="100%" height="100%" viewBox="0 0 400 459"><g><g transform="translate(5,106)"><g><a target="_top" xlink:href="mob-sliceTagInstyle-step17936641-ofs0-col0-cat0.html"><rect style="display:none" class="hcell-act-col0-cat0" fill="#777" stroke="#000" stroke-width="5" width="70" height="91" x="0" y="-96" rx="8" ry="8"/><rect class="hcell-col0-cat0" fill="#777" stroke="#DDD" width="70" height="101" x="0" y="-101" rx="8" ry="8"/><text text-anchor="middle" fill="#FFF" x="35" y="-81">156</text></a></g></g><rect fill="none" stroke="#DDD" width="70" height="30" rx="8" ry="8" x="5" y="116"/><text text-anchor="middle" fill="#333" x="40" y="136">12-07</text><g transform="translate(5,156)"><g><a target="_top" xlink:href="mob-sliceTagInstyle-step17936641-ofs0-col0-cat0.html"><rect style="display:none" class="hcell-act-col0-cat0" fill="#777" stroke="#000" stroke-width="5" width="70" height="20" x="0" y="5" rx="8" ry="8"/><rect class="hcell-col0-cat0" fill="#777" stroke="#DDD" width="70" height="30" x="0" y="0" rx="8" ry="8"/><text text-anchor="middle" fill="#FFF" x="35" y="20">-23</text></a></g></g></g><g><g transform="translate(85,106)"><g><a target="_top" xlink:href="mob-sliceTagInstyle-step17936641-ofs0-col1-cat0.html"><rect style="display:none" class="hcell-act-col1-cat0" fill="#777" stroke="#000" stroke-width="5" width="70" height="27" x="0" y="-32" rx="8" ry="8"/><rect class="hcell-col1-cat0" fill="#777" stroke="#DDD" width="70" height="37" x="0" y="-37" rx="8" ry="8"/><text text-anchor="middle" fill="#FFF" x="35" y="-17">58</text></a></g></g><rect fill="none" stroke="#DDD" width="70" height="30" rx="8" ry="8" x="85" y="116"/><text text-anchor="middle" fill="#333" x="120" y="136">13-01</text><g transform="translate(85,156)"><g><a target="_top" xlink:href="mob-sliceTagInstyle-step17936641-ofs0-col1-cat0.html"><rect style="display:none" class="hcell-act-col1-cat0" fill="#777" stroke="#000" stroke-width="5" width="70" height="146" x="0" y="5" rx="8" ry="8"/><rect class="hcell-col1-cat0" fill="#777" stroke="#DDD" width="70" height="156" x="0" y="0" rx="8" ry="8"/><text text-anchor="middle" fill="#FFF" x="35" y="20">-241</text></a></g></g></g><g><g transform="translate(165,106)"></g><rect fill="none" stroke="#DDD" width="70" height="30" rx="8" ry="8" x="165" y="116"/><text text-anchor="middle" fill="#333" x="200" y="136">13-08</text><g transform="translate(165,156)"></g></g><g><g transform="translate(245,106)"><g><a target="_top" xlink:href="mob-sliceTagInstyle-step17936641-ofs0-col3-cat0.html"><rect style="display:none" class="hcell-act-col3-cat0" fill="#777" stroke="#000" stroke-width="5" width="70" height="36" x="0" y="-41" rx="8" ry="8"/><rect class="hcell-col3-cat0" fill="#777" stroke="#DDD" width="70" height="46" x="0" y="-46" rx="8" ry="8"/><text text-anchor="middle" fill="#FFF" x="35" y="-26">71</text></a></g></g><rect fill="none" stroke="#DDD" width="70" height="30" rx="8" ry="8" x="245" y="116"/><text text-anchor="middle" fill="#333" x="280" y="136">14-03</text><g transform="translate(245,156)"><g><a target="_top" xlink:href="mob-sliceTagInstyle-step17936641-ofs0-col3-cat0.html"><rect style="display:none" class="hcell-act-col3-cat0" fill="#777" stroke="#000" stroke-width="5" width="70" height="238" x="0" y="5" rx="8" ry="8"/><rect class="hcell-col3-cat0" fill="#777" stroke="#DDD" width="70" height="248" x="0" y="0" rx="8" ry="8"/><text text-anchor="middle" fill="#FFF" x="35" y="20">-383</text></a></g></g></g><g><g transform="translate(325,106)"><g><a target="_top" xlink:href="mob-sliceTagInstyle-step17936641-ofs0-col4-cat0.html"><rect style="display:none" class="hcell-act-col4-cat0" fill="#777" stroke="#000" stroke-width="5" width="70" height="61" x="0" y="-66" rx="8" ry="8"/><rect class="hcell-col4-cat0" fill="#777" stroke="#DDD" width="70" height="71" x="0" y="-71" rx="8" ry="8"/><text text-anchor="middle" fill="#FFF" x="35" y="-51">110</text></a></g></g><rect fill="none" stroke="#DDD" width="70" height="30" rx="8" ry="8" x="325" y="116"/><text text-anchor="middle" fill="#333" x="360" y="136">14-10</text><g transform="translate(325,156)"><g><a target="_top" xlink:href="mob-sliceTagInstyle-step17936641-ofs0-col4-cat0.html"><rect style="display:none" class="hcell-act-col4-cat0" fill="#777" stroke="#000" stroke-width="5" width="70" height="288" x="0" y="5" rx="8" ry="8"/><rect class="hcell-col4-cat0" fill="#777" stroke="#DDD" width="70" height="298" x="0" y="0" rx="8" ry="8"/><text text-anchor="middle" fill="#FFF" x="35" y="20">-460</text></a></g></g></g></svg>