<svg xmlns="http://www.w3.org/2000/svg" xmlns:xlink="http://www.w3.org/1999/xlink" width="100%" height="100%" viewBox="0 0 400 459"><g><g transform="translate(5,114)"></g><rect fill="none" stroke="#DDD" width="70" height="30" rx="8" ry="8" x="5" y="124"/><text text-anchor="middle" fill="#333" x="40" y="144">14-08</text><g transform="translate(5,164)"><g><a target="_top" xlink:href="mob-sliceTagYoga-step2628000-ofs25-col25-cat0.html"><rect style="display:none" class="hcell-act-col25-cat0" fill="#777" stroke="#000" stroke-width="5" width="70" height="280" x="0" y="5" rx="8" ry="8"/><rect class="hcell-col25-cat0" fill="#777" stroke="#DDD" width="70" height="290" x="0" y="0" rx="8" ry="8"/><text text-anchor="middle" fill="#FFF" x="35" y="20">-46</text></a></g></g></g><g><g transform="translate(85,114)"></g><rect fill="none" stroke="#DDD" width="70" height="30" rx="8" ry="8" x="85" y="124"/><text text-anchor="middle" fill="#333" x="120" y="144">14-08</text><g transform="translate(85,164)"><g><a target="_top" xlink:href="mob-sliceTagYoga-step2628000-ofs25-col26-cat0.html"><rect style="display:none" class="hcell-act-col26-cat0" fill="#777" stroke="#000" stroke-width="5" width="70" height="139" x="0" y="5" rx="8" ry="8"/><rect class="hcell-col26-cat0" fill="#777" stroke="#DDD" width="70" height="149" x="0" y="0" rx="8" ry="8"/><text text-anchor="middle" fill="#FFF" x="35" y="20">-24</text></a></g></g></g><g><g transform="translate(165,114)"></g><rect fill="none" stroke="#DDD" width="70" height="30" rx="8" ry="8" x="165" y="124"/><text text-anchor="middle" fill="#333" x="200" y="144">14-10</text><g transform="translate(165,164)"><g><a target="_top" xlink:href="mob-sliceTagYoga-step2628000-ofs25-col27-cat0.html"><rect style="display:none" class="hcell-act-col27-cat0" fill="#777" stroke="#000" stroke-width="5" width="70" height="136" x="0" y="5" rx="8" ry="8"/><rect class="hcell-col27-cat0" fill="#777" stroke="#DDD" width="70" height="146" x="0" y="0" rx="8" ry="8"/><text text-anchor="middle" fill="#FFF" x="35" y="20">-24</text></a></g></g></g><g><g transform="translate(245,114)"></g><rect fill="none" stroke="#DDD" width="70" height="30" rx="8" ry="8" x="245" y="124"/><text text-anchor="middle" fill="#333" x="280" y="144">14-10</text><g transform="translate(245,164)"><g><a target="_top" xlink:href="mob-sliceTagYoga-step2628000-ofs25-col28-cat0.html"><rect style="display:none" class="hcell-act-col28-cat0" fill="#777" stroke="#000" stroke-width="5" width="70" height="239" x="0" y="5" rx="8" ry="8"/><rect class="hcell-col28-cat0" fill="#777" stroke="#DDD" width="70" height="249" x="0" y="0" rx="8" ry="8"/><text text-anchor="middle" fill="#FFF" x="35" y="20">-40</text></a></g></g></g><g><g transform="translate(325,114)"><g><a target="_top" xlink:href="mob-sliceTagYoga-step2628000-ofs25-col29-cat0.html"><rect style="display:none" class="hcell-act-col29-cat0" fill="#777" stroke="#000" stroke-width="5" width="70" height="99" x="0" y="-104" rx="8" ry="8"/><rect class="hcell-col29-cat0" fill="#777" stroke="#DDD" width="70" height="109" x="0" y="-109" rx="8" ry="8"/><text text-anchor="middle" fill="#FFF" x="35" y="-89">17</text></a></g></g><rect fill="none" stroke="#DDD" width="70" height="30" rx="8" ry="8" x="325" y="124"/><text text-anchor="middle" fill="#333" x="360" y="144">14-12</text><g transform="translate(325,164)"></g></g></svg>