<svg xmlns="http://www.w3.org/2000/svg" xmlns:xlink="http://www.w3.org/1999/xlink" width="100%" height="100%" viewBox="0 0 400 458"><g><g transform="translate(5,403)"><g><a target="_top" xlink:href="mob-slice1-step2628000-ofs5-col5-cat4.html"><rect style="display:none" class="hcell-act-col5-cat4" fill="#D9534F" stroke="#000" stroke-width="5" width="70" height="30" x="0" y="-35" rx="8" ry="8"/><rect class="hcell-col5-cat4" fill="#D9534F" stroke="#DDD" width="70" height="40" x="0" y="-40" rx="8" ry="8"/><text text-anchor="middle" fill="#FFF" x="35" y="-20">15</text></a><g transform="translate(0,-40)"><g><a target="_top" xlink:href="mob-slice1-step2628000-ofs5-col5-cat2.html"><rect style="display:none" class="hcell-act-col5-cat2" fill="#337AB7" stroke="#000" stroke-width="5" width="70" height="39" x="0" y="-44" rx="8" ry="8"/><rect class="hcell-col5-cat2" fill="#337AB7" stroke="#DDD" width="70" height="49" x="0" y="-49" rx="8" ry="8"/><text text-anchor="middle" fill="#FFF" x="35" y="-29">19</text></a><g transform="translate(0,-49)"><g><a target="_top" xlink:href="mob-slice1-step2628000-ofs5-col5-cat1.html"><rect style="display:none" class="hcell-act-col5-cat1" fill="#5BC0DE" stroke="#000" stroke-width="5" width="70" height="76" x="0" y="-81" rx="8" ry="8"/><rect class="hcell-col5-cat1" fill="#5BC0DE" stroke="#DDD" width="70" height="86" x="0" y="-86" rx="8" ry="8"/><text text-anchor="middle" fill="#FFF" x="35" y="-66">33</text></a></g></g></g></g></g></g><rect fill="none" stroke="#DDD" width="70" height="30" rx="8" ry="8" x="5" y="413"/><text text-anchor="middle" fill="#333" x="40" y="433">12-12</text><g transform="translate(5,453)"></g></g><g><g transform="translate(85,403)"><g><a target="_top" xlink:href="mob-slice1-step2628000-ofs5-col6-cat4.html"><rect style="display:none" class="hcell-act-col6-cat4" fill="#D9534F" stroke="#000" stroke-width="5" width="70" height="20" x="0" y="-25" rx="8" ry="8"/><rect class="hcell-col6-cat4" fill="#D9534F" stroke="#DDD" width="70" height="30" x="0" y="-30" rx="8" ry="8"/><text text-anchor="middle" fill="#FFF" x="35" y="-10">10</text></a><g transform="translate(0,-30)"><g><a target="_top" xlink:href="mob-slice1-step2628000-ofs5-col6-cat1.html"><rect style="display:none" class="hcell-act-col6-cat1" fill="#5BC0DE" stroke="#000" stroke-width="5" width="70" height="26" x="0" y="-31" rx="8" ry="8"/><rect class="hcell-col6-cat1" fill="#5BC0DE" stroke="#DDD" width="70" height="36" x="0" y="-36" rx="8" ry="8"/><text text-anchor="middle" fill="#FFF" x="35" y="-16">14</text></a><g transform="translate(0,-36)"><g><a target="_top" xlink:href="mob-slice1-step2628000-ofs5-col6-cat0.html"><rect style="display:none" class="hcell-act-col6-cat0" fill="#5CB85C" stroke="#000" stroke-width="5" width="70" height="65" x="0" y="-70" rx="8" ry="8"/><rect class="hcell-col6-cat0" fill="#5CB85C" stroke="#DDD" width="70" height="75" x="0" y="-75" rx="8" ry="8"/><text text-anchor="middle" fill="#FFF" x="35" y="-55">29</text></a></g></g></g></g></g></g><rect fill="none" stroke="#DDD" width="70" height="30" rx="8" ry="8" x="85" y="413"/><text text-anchor="middle" fill="#333" x="120" y="433">12-12</text><g transform="translate(85,453)"></g></g><g><g transform="translate(165,403)"><g><a target="_top" xlink:href="mob-slice1-step2628000-ofs5-col7-cat2.html"><rect style="display:none" class="hcell-act-col7-cat2" fill="#337AB7" stroke="#000" stroke-width="5" width="70" height="37" x="0" y="-42" rx="8" ry="8"/><rect class="hcell-col7-cat2" fill="#337AB7" stroke="#DDD" width="70" height="47" x="0" y="-47" rx="8" ry="8"/><text text-anchor="middle" fill="#FFF" x="35" y="-27">18</text></a><g transform="translate(0,-47)"><g><a target="_top" xlink:href="mob-slice1-step2628000-ofs5-col7-cat0.html"><rect style="display:none" class="hcell-act-col7-cat0" fill="#5CB85C" stroke="#000" stroke-width="5" width="70" height="102" x="0" y="-107" rx="8" ry="8"/><rect class="hcell-col7-cat0" fill="#5CB85C" stroke="#DDD" width="70" height="112" x="0" y="-112" rx="8" ry="8"/><text text-anchor="middle" fill="#FFF" x="35" y="-92">44</text></a></g></g></g></g><rect fill="none" stroke="#DDD" width="70" height="30" rx="8" ry="8" x="165" y="413"/><text text-anchor="middle" fill="#333" x="200" y="433">13-01</text><g transform="translate(165,453)"></g></g><g><g transform="translate(245,403)"><g><a target="_top" xlink:href="mob-slice1-step2628000-ofs5-col8-cat0.html"><rect style="display:none" class="hcell-act-col8-cat0" fill="#5CB85C" stroke="#000" stroke-width="5" width="70" height="35" x="0" y="-40" rx="8" ry="8"/><rect class="hcell-col8-cat0" fill="#5CB85C" stroke="#DDD" width="70" height="45" x="0" y="-45" rx="8" ry="8"/><text text-anchor="middle" fill="#FFF" x="35" y="-25">18</text></a><g transform="translate(0,-45)"><g><a target="_top" xlink:href="mob-slice1-step2628000-ofs5-col8-cat2.html"><rect style="display:none" class="hcell-act-col8-cat2" fill="#337AB7" stroke="#000" stroke-width="5" width="70" height="81" x="0" y="-86" rx="8" ry="8"/><rect class="hcell-col8-cat2" fill="#337AB7" stroke="#DDD" width="70" height="91" x="0" y="-91" rx="8" ry="8"/><text text-anchor="middle" fill="#FFF" x="35" y="-71">36</text></a><g transform="translate(0,-91)"><g><a target="_top" xlink:href="mob-slice1-step2628000-ofs5-col8-cat1.html"><rect style="display:none" class="hcell-act-col8-cat1" fill="#5BC0DE" stroke="#000" stroke-width="5" width="70" height="105" x="0" y="-110" rx="8" ry="8"/><rect class="hcell-col8-cat1" fill="#5BC0DE" stroke="#DDD" width="70" height="115" x="0" y="-115" rx="8" ry="8"/><text text-anchor="middle" fill="#FFF" x="35" y="-95">45</text></a><g transform="translate(0,-115)"><g><a target="_top" xlink:href="mob-slice1-step2628000-ofs5-col8-cat4.html"><rect style="display:none" class="hcell-act-col8-cat4" fill="#D9534F" stroke="#000" stroke-width="5" width="70" height="112" x="0" y="-117" rx="8" ry="8"/><rect class="hcell-col8-cat4" fill="#D9534F" stroke="#DDD" width="70" height="122" x="0" y="-122" rx="8" ry="8"/><text text-anchor="middle" fill="#FFF" x="35" y="-102">48</text></a></g></g></g></g></g></g></g></g><rect fill="none" stroke="#DDD" width="70" height="30" rx="8" ry="8" x="245" y="413"/><text text-anchor="middle" fill="#333" x="280" y="433">13-03</text><g transform="translate(245,453)"></g></g><g><g transform="translate(325,403)"><g><a target="_top" xlink:href="mob-slice1-step2628000-ofs5-col9-cat0.html"><rect style="display:none" class="hcell-act-col9-cat0" fill="#5CB85C" stroke="#000" stroke-width="5" width="70" height="46" x="0" y="-51" rx="8" ry="8"/><rect class="hcell-col9-cat0" fill="#5CB85C" stroke="#DDD" width="70" height="56" x="0" y="-56" rx="8" ry="8"/><text text-anchor="middle" fill="#FFF" x="35" y="-36">22</text></a><g transform="translate(0,-56)"><g><a target="_top" xlink:href="mob-slice1-step2628000-ofs5-col9-cat4.html"><rect style="display:none" class="hcell-act-col9-cat4" fill="#D9534F" stroke="#000" stroke-width="5" width="70" height="59" x="0" y="-64" rx="8" ry="8"/><rect class="hcell-col9-cat4" fill="#D9534F" stroke="#DDD" width="70" height="69" x="0" y="-69" rx="8" ry="8"/><text text-anchor="middle" fill="#FFF" x="35" y="-49">27</text></a><g transform="translate(0,-69)"><g><a target="_top" xlink:href="mob-slice1-step2628000-ofs5-col9-cat2.html"><rect style="display:none" class="hcell-act-col9-cat2" fill="#337AB7" stroke="#000" stroke-width="5" width="70" height="99" x="0" y="-104" rx="8" ry="8"/><rect class="hcell-col9-cat2" fill="#337AB7" stroke="#DDD" width="70" height="109" x="0" y="-109" rx="8" ry="8"/><text text-anchor="middle" fill="#FFF" x="35" y="-89">43</text></a><g transform="translate(0,-109)"><g><a target="_top" xlink:href="mob-slice1-step2628000-ofs5-col9-cat1.html"><rect style="display:none" class="hcell-act-col9-cat1" fill="#5BC0DE" stroke="#000" stroke-width="5" width="70" height="154" x="0" y="-159" rx="8" ry="8"/><rect class="hcell-col9-cat1" fill="#5BC0DE" stroke="#DDD" width="70" height="164" x="0" y="-164" rx="8" ry="8"/><text text-anchor="middle" fill="#FFF" x="35" y="-144">64</text></a></g></g></g></g></g></g></g></g><rect fill="none" stroke="#DDD" width="70" height="30" rx="8" ry="8" x="325" y="413"/><text text-anchor="middle" fill="#333" x="360" y="433">13-04</text><g transform="translate(325,453)"></g></g></svg>