<svg xmlns="http://www.w3.org/2000/svg" xmlns:xlink="http://www.w3.org/1999/xlink" width="100%" height="100%" viewBox="0 0 400 459"><g><g transform="translate(5,256)"><g><a target="_top" xlink:href="mob-sliceTagClothes-step2628000-ofs20-col20-cat0.html"><rect style="display:none" class="hcell-act-col20-cat0" fill="#777" stroke="#000" stroke-width="5" width="70" height="106" x="0" y="-111" rx="8" ry="8"/><rect class="hcell-col20-cat0" fill="#777" stroke="#DDD" width="70" height="116" x="0" y="-116" rx="8" ry="8"/><text text-anchor="middle" fill="#FFF" x="35" y="-96">93</text></a></g></g><rect fill="none" stroke="#DDD" width="70" height="30" rx="8" ry="8" x="5" y="266"/><text text-anchor="middle" fill="#333" x="40" y="286">14-03</text><g transform="translate(5,306)"></g></g><g><g transform="translate(85,256)"><g><a target="_top" xlink:href="mob-sliceTagClothes-step2628000-ofs20-col21-cat0.html"><rect style="display:none" class="hcell-act-col21-cat0" fill="#777" stroke="#000" stroke-width="5" width="70" height="151" x="0" y="-156" rx="8" ry="8"/><rect class="hcell-col21-cat0" fill="#777" stroke="#DDD" width="70" height="161" x="0" y="-161" rx="8" ry="8"/><text text-anchor="middle" fill="#FFF" x="35" y="-141">129</text></a></g></g><rect fill="none" stroke="#DDD" width="70" height="30" rx="8" ry="8" x="85" y="266"/><text text-anchor="middle" fill="#333" x="120" y="286">14-04</text><g transform="translate(85,306)"></g></g><g><g transform="translate(165,256)"><g><a target="_top" xlink:href="mob-sliceTagClothes-step2628000-ofs20-col22-cat0.html"><rect style="display:none" class="hcell-act-col22-cat0" fill="#777" stroke="#000" stroke-width="5" width="70" height="58" x="0" y="-63" rx="8" ry="8"/><rect class="hcell-col22-cat0" fill="#777" stroke="#DDD" width="70" height="68" x="0" y="-68" rx="8" ry="8"/><text text-anchor="middle" fill="#FFF" x="35" y="-48">54</text></a></g></g><rect fill="none" stroke="#DDD" width="70" height="30" rx="8" ry="8" x="165" y="266"/><text text-anchor="middle" fill="#333" x="200" y="286">14-05</text><g transform="translate(165,306)"><g><a target="_top" xlink:href="mob-sliceTagClothes-step2628000-ofs20-col22-cat0.html"><rect style="display:none" class="hcell-act-col22-cat0" fill="#777" stroke="#000" stroke-width="5" width="70" height="138" x="0" y="5" rx="8" ry="8"/><rect class="hcell-col22-cat0" fill="#777" stroke="#DDD" width="70" height="148" x="0" y="0" rx="8" ry="8"/><text text-anchor="middle" fill="#FFF" x="35" y="20">-120</text></a></g></g></g><g><g transform="translate(245,256)"><g><a target="_top" xlink:href="mob-sliceTagClothes-step2628000-ofs20-col23-cat0.html"><rect style="display:none" class="hcell-act-col23-cat0" fill="#777" stroke="#000" stroke-width="5" width="70" height="204" x="0" y="-209" rx="8" ry="8"/><rect class="hcell-col23-cat0" fill="#777" stroke="#DDD" width="70" height="214" x="0" y="-214" rx="8" ry="8"/><text text-anchor="middle" fill="#FFF" x="35" y="-194">171</text></a></g></g><rect fill="none" stroke="#DDD" width="70" height="30" rx="8" ry="8" x="245" y="266"/><text text-anchor="middle" fill="#333" x="280" y="286">14-06</text><g transform="translate(245,306)"></g></g><g><g transform="translate(325,256)"><g><a target="_top" xlink:href="mob-sliceTagClothes-step2628000-ofs20-col24-cat0.html"><rect style="display:none" class="hcell-act-col24-cat0" fill="#777" stroke="#000" stroke-width="5" width="70" height="241" x="0" y="-246" rx="8" ry="8"/><rect class="hcell-col24-cat0" fill="#777" stroke="#DDD" width="70" height="251" x="0" y="-251" rx="8" ry="8"/><text text-anchor="middle" fill="#FFF" x="35" y="-231">201</text></a></g></g><rect fill="none" stroke="#DDD" width="70" height="30" rx="8" ry="8" x="325" y="266"/><text text-anchor="middle" fill="#333" x="360" y="286">14-07</text><g transform="translate(325,306)"></g></g></svg>