<svg xmlns="http://www.w3.org/2000/svg" xmlns:xlink="http://www.w3.org/1999/xlink" width="100%" height="100%" viewBox="0 0 400 459"><g><g transform="translate(5,310)"><g><a target="_top" xlink:href="mob-sliceTagVisa8394-step2628000-ofs25-col25-cat0.html"><rect style="display:none" class="hcell-act-col25-cat0" fill="#777" stroke="#000" stroke-width="5" width="70" height="295" x="0" y="-300" rx="8" ry="8"/><rect class="hcell-col25-cat0" fill="#777" stroke="#DDD" width="70" height="305" x="0" y="-305" rx="8" ry="8"/><text text-anchor="middle" fill="#FFF" x="35" y="-285">1745</text></a></g></g><rect fill="none" stroke="#DDD" width="70" height="30" rx="8" ry="8" x="5" y="320"/><text text-anchor="middle" fill="#333" x="40" y="340">14-08</text><g transform="translate(5,360)"><g><a target="_top" xlink:href="mob-sliceTagVisa8394-step2628000-ofs25-col25-cat0.html"><rect style="display:none" class="hcell-act-col25-cat0" fill="#777" stroke="#000" stroke-width="5" width="70" height="65" x="0" y="5" rx="8" ry="8"/><rect class="hcell-col25-cat0" fill="#777" stroke="#DDD" width="70" height="75" x="0" y="0" rx="8" ry="8"/><text text-anchor="middle" fill="#FFF" x="35" y="20">-434</text></a></g></g></g><g><g transform="translate(85,310)"></g><rect fill="none" stroke="#DDD" width="70" height="30" rx="8" ry="8" x="85" y="320"/><text text-anchor="middle" fill="#333" x="120" y="340">14-08</text><g transform="translate(85,360)"><g><a target="_top" xlink:href="mob-sliceTagVisa8394-step2628000-ofs25-col26-cat0.html"><rect style="display:none" class="hcell-act-col26-cat0" fill="#777" stroke="#000" stroke-width="5" width="70" height="20" x="0" y="5" rx="8" ry="8"/><rect class="hcell-col26-cat0" fill="#777" stroke="#DDD" width="70" height="30" x="0" y="0" rx="8" ry="8"/><text text-anchor="middle" fill="#FFF" x="35" y="20">-173</text></a></g></g></g><g><g transform="translate(165,310)"></g><rect fill="none" stroke="#DDD" width="70" height="30" rx="8" ry="8" x="165" y="320"/><text text-anchor="middle" fill="#333" x="200" y="340">14-10</text><g transform="translate(165,360)"><g><a target="_top" xlink:href="mob-sliceTagVisa8394-step2628000-ofs25-col27-cat0.html"><rect style="display:none" class="hcell-act-col27-cat0" fill="#777" stroke="#000" stroke-width="5" width="70" height="38" x="0" y="5" rx="8" ry="8"/><rect class="hcell-col27-cat0" fill="#777" stroke="#DDD" width="70" height="48" x="0" y="0" rx="8" ry="8"/><text text-anchor="middle" fill="#FFF" x="35" y="20">-277</text></a></g></g></g><g><g transform="translate(245,310)"></g><rect fill="none" stroke="#DDD" width="70" height="30" rx="8" ry="8" x="245" y="320"/><text text-anchor="middle" fill="#333" x="280" y="340">14-10</text><g transform="translate(245,360)"><g><a target="_top" xlink:href="mob-sliceTagVisa8394-step2628000-ofs25-col28-cat0.html"><rect style="display:none" class="hcell-act-col28-cat0" fill="#777" stroke="#000" stroke-width="5" width="70" height="29" x="0" y="5" rx="8" ry="8"/><rect class="hcell-col28-cat0" fill="#777" stroke="#DDD" width="70" height="39" x="0" y="0" rx="8" ry="8"/><text text-anchor="middle" fill="#FFF" x="35" y="20">-224</text></a></g></g></g><g><g transform="translate(325,310)"><g><a target="_top" xlink:href="mob-sliceTagVisa8394-step2628000-ofs25-col29-cat0.html"><rect style="display:none" class="hcell-act-col29-cat0" fill="#777" stroke="#000" stroke-width="5" width="70" height="217" x="0" y="-222" rx="8" ry="8"/><rect class="hcell-col29-cat0" fill="#777" stroke="#DDD" width="70" height="227" x="0" y="-227" rx="8" ry="8"/><text text-anchor="middle" fill="#FFF" x="35" y="-207">1300</text></a></g></g><rect fill="none" stroke="#DDD" width="70" height="30" rx="8" ry="8" x="325" y="320"/><text text-anchor="middle" fill="#333" x="360" y="340">14-12</text><g transform="translate(325,360)"><g><a target="_top" xlink:href="mob-sliceTagVisa8394-step2628000-ofs25-col29-cat0.html"><rect style="display:none" class="hcell-act-col29-cat0" fill="#777" stroke="#000" stroke-width="5" width="70" height="84" x="0" y="5" rx="8" ry="8"/><rect class="hcell-col29-cat0" fill="#777" stroke="#DDD" width="70" height="94" x="0" y="0" rx="8" ry="8"/><text text-anchor="middle" fill="#FFF" x="35" y="20">-538</text></a></g></g></g></svg>