<svg xmlns="http://www.w3.org/2000/svg" xmlns:xlink="http://www.w3.org/1999/xlink" width="100%" height="100%" viewBox="0 0 400 459"><g><g transform="translate(5,201)"><g><a target="_top" xlink:href="mob-sliceTagVisa4933-step2628000-ofs15-col15-cat0.html"><rect style="display:none" class="hcell-act-col15-cat0" fill="#777" stroke="#000" stroke-width="5" width="70" height="160" x="0" y="-165" rx="8" ry="8"/><rect class="hcell-col15-cat0" fill="#777" stroke="#DDD" width="70" height="170" x="0" y="-170" rx="8" ry="8"/><text text-anchor="middle" fill="#FFF" x="35" y="-150">2711</text></a></g></g><rect fill="none" stroke="#DDD" width="70" height="30" rx="8" ry="8" x="5" y="211"/><text text-anchor="middle" fill="#333" x="40" y="231">13-10</text><g transform="translate(5,251)"><g><a target="_top" xlink:href="mob-sliceTagVisa4933-step2628000-ofs15-col15-cat0.html"><rect style="display:none" class="hcell-act-col15-cat0" fill="#777" stroke="#000" stroke-width="5" width="70" height="91" x="0" y="5" rx="8" ry="8"/><rect class="hcell-col15-cat0" fill="#777" stroke="#DDD" width="70" height="101" x="0" y="0" rx="8" ry="8"/><text text-anchor="middle" fill="#FFF" x="35" y="20">-1610</text></a></g></g></g><g><g transform="translate(85,201)"><g><a target="_top" xlink:href="mob-sliceTagVisa4933-step2628000-ofs15-col16-cat0.html"><rect style="display:none" class="hcell-act-col16-cat0" fill="#777" stroke="#000" stroke-width="5" width="70" height="176" x="0" y="-181" rx="8" ry="8"/><rect class="hcell-col16-cat0" fill="#777" stroke="#DDD" width="70" height="186" x="0" y="-186" rx="8" ry="8"/><text text-anchor="middle" fill="#FFF" x="35" y="-166">2971</text></a></g></g><rect fill="none" stroke="#DDD" width="70" height="30" rx="8" ry="8" x="85" y="211"/><text text-anchor="middle" fill="#333" x="120" y="231">13-10</text><g transform="translate(85,251)"><g><a target="_top" xlink:href="mob-sliceTagVisa4933-step2628000-ofs15-col16-cat0.html"><rect style="display:none" class="hcell-act-col16-cat0" fill="#777" stroke="#000" stroke-width="5" width="70" height="193" x="0" y="5" rx="8" ry="8"/><rect class="hcell-col16-cat0" fill="#777" stroke="#DDD" width="70" height="203" x="0" y="0" rx="8" ry="8"/><text text-anchor="middle" fill="#FFF" x="35" y="20">-3246</text></a></g></g></g><g><g transform="translate(165,201)"><g><a target="_top" xlink:href="mob-sliceTagVisa4933-step2628000-ofs15-col17-cat0.html"><rect style="display:none" class="hcell-act-col17-cat0" fill="#777" stroke="#000" stroke-width="5" width="70" height="153" x="0" y="-158" rx="8" ry="8"/><rect class="hcell-col17-cat0" fill="#777" stroke="#DDD" width="70" height="163" x="0" y="-163" rx="8" ry="8"/><text text-anchor="middle" fill="#FFF" x="35" y="-143">2600</text></a></g></g><rect fill="none" stroke="#DDD" width="70" height="30" rx="8" ry="8" x="165" y="211"/><text text-anchor="middle" fill="#333" x="200" y="231">13-12</text><g transform="translate(165,251)"><g><a target="_top" xlink:href="mob-sliceTagVisa4933-step2628000-ofs15-col17-cat0.html"><rect style="display:none" class="hcell-act-col17-cat0" fill="#777" stroke="#000" stroke-width="5" width="70" height="114" x="0" y="5" rx="8" ry="8"/><rect class="hcell-col17-cat0" fill="#777" stroke="#DDD" width="70" height="124" x="0" y="0" rx="8" ry="8"/><text text-anchor="middle" fill="#FFF" x="35" y="20">-1980</text></a></g></g></g><g><g transform="translate(245,201)"><g><a target="_top" xlink:href="mob-sliceTagVisa4933-step2628000-ofs15-col18-cat0.html"><rect style="display:none" class="hcell-act-col18-cat0" fill="#777" stroke="#000" stroke-width="5" width="70" height="155" x="0" y="-160" rx="8" ry="8"/><rect class="hcell-col18-cat0" fill="#777" stroke="#DDD" width="70" height="165" x="0" y="-165" rx="8" ry="8"/><text text-anchor="middle" fill="#FFF" x="35" y="-145">2633</text></a></g></g><rect fill="none" stroke="#DDD" width="70" height="30" rx="8" ry="8" x="245" y="211"/><text text-anchor="middle" fill="#333" x="280" y="231">13-12</text><g transform="translate(245,251)"><g><a target="_top" xlink:href="mob-sliceTagVisa4933-step2628000-ofs15-col18-cat0.html"><rect style="display:none" class="hcell-act-col18-cat0" fill="#777" stroke="#000" stroke-width="5" width="70" height="138" x="0" y="5" rx="8" ry="8"/><rect class="hcell-col18-cat0" fill="#777" stroke="#DDD" width="70" height="148" x="0" y="0" rx="8" ry="8"/><text text-anchor="middle" fill="#FFF" x="35" y="20">-2368</text></a></g></g></g><g><g transform="translate(325,201)"><g><a target="_top" xlink:href="mob-sliceTagVisa4933-step2628000-ofs15-col19-cat0.html"><rect style="display:none" class="hcell-act-col19-cat0" fill="#777" stroke="#000" stroke-width="5" width="70" height="186" x="0" y="-191" rx="8" ry="8"/><rect class="hcell-col19-cat0" fill="#777" stroke="#DDD" width="70" height="196" x="0" y="-196" rx="8" ry="8"/><text text-anchor="middle" fill="#FFF" x="35" y="-176">3127</text></a></g></g><rect fill="none" stroke="#DDD" width="70" height="30" rx="8" ry="8" x="325" y="211"/><text text-anchor="middle" fill="#333" x="360" y="231">14-01</text><g transform="translate(325,251)"><g><a target="_top" xlink:href="mob-sliceTagVisa4933-step2628000-ofs15-col19-cat0.html"><rect style="display:none" class="hcell-act-col19-cat0" fill="#777" stroke="#000" stroke-width="5" width="70" height="193" x="0" y="5" rx="8" ry="8"/><rect class="hcell-col19-cat0" fill="#777" stroke="#DDD" width="70" height="203" x="0" y="0" rx="8" ry="8"/><text text-anchor="middle" fill="#FFF" x="35" y="20">-3244</text></a></g></g></g></svg>