<svg xmlns="http://www.w3.org/2000/svg" xmlns:xlink="http://www.w3.org/1999/xlink" width="100%" height="100%" viewBox="0 0 400 459"><g><g transform="translate(5,374)"><g><a target="_top" xlink:href="mob-sliceTagPayment-step2628000-ofs25-col25-cat0.html"><rect style="display:none" class="hcell-act-col25-cat0" fill="#777" stroke="#000" stroke-width="5" width="70" height="354" x="0" y="-359" rx="8" ry="8"/><rect class="hcell-col25-cat0" fill="#777" stroke="#DDD" width="70" height="364" x="0" y="-364" rx="8" ry="8"/><text text-anchor="middle" fill="#FFF" x="35" y="-344">1669</text></a></g></g><rect fill="none" stroke="#DDD" width="70" height="30" rx="8" ry="8" x="5" y="384"/><text text-anchor="middle" fill="#333" x="40" y="404">14-08</text><g transform="translate(5,424)"></g></g><g><g transform="translate(85,374)"><g><a target="_top" xlink:href="mob-sliceTagPayment-step2628000-ofs25-col26-cat0.html"><rect style="display:none" class="hcell-act-col26-cat0" fill="#777" stroke="#000" stroke-width="5" width="70" height="351" x="0" y="-356" rx="8" ry="8"/><rect class="hcell-col26-cat0" fill="#777" stroke="#DDD" width="70" height="361" x="0" y="-361" rx="8" ry="8"/><text text-anchor="middle" fill="#FFF" x="35" y="-341">1654</text></a></g></g><rect fill="none" stroke="#DDD" width="70" height="30" rx="8" ry="8" x="85" y="384"/><text text-anchor="middle" fill="#333" x="120" y="404">14-08</text><g transform="translate(85,424)"></g></g><g><g transform="translate(165,374)"></g><rect fill="none" stroke="#DDD" width="70" height="30" rx="8" ry="8" x="165" y="384"/><text text-anchor="middle" fill="#333" x="200" y="404">14-10</text><g transform="translate(165,424)"><g><a target="_top" xlink:href="mob-sliceTagPayment-step2628000-ofs25-col27-cat0.html"><rect style="display:none" class="hcell-act-col27-cat0" fill="#777" stroke="#000" stroke-width="5" width="70" height="20" x="0" y="5" rx="8" ry="8"/><rect class="hcell-col27-cat0" fill="#777" stroke="#DDD" width="70" height="30" x="0" y="0" rx="8" ry="8"/><text text-anchor="middle" fill="#FFF" x="35" y="20">-10</text></a></g></g></g><g><g transform="translate(245,374)"></g><rect fill="none" stroke="#DDD" width="70" height="30" rx="8" ry="8" x="245" y="384"/><text text-anchor="middle" fill="#333" x="280" y="404">14-10</text><g transform="translate(245,424)"><g><a target="_top" xlink:href="mob-sliceTagPayment-step2628000-ofs25-col28-cat0.html"><rect style="display:none" class="hcell-act-col28-cat0" fill="#777" stroke="#000" stroke-width="5" width="70" height="20" x="0" y="5" rx="8" ry="8"/><rect class="hcell-col28-cat0" fill="#777" stroke="#DDD" width="70" height="30" x="0" y="0" rx="8" ry="8"/><text text-anchor="middle" fill="#FFF" x="35" y="20">-140</text></a></g></g></g><g><g transform="translate(325,374)"><g><a target="_top" xlink:href="mob-sliceTagPayment-step2628000-ofs25-col29-cat0.html"><rect style="display:none" class="hcell-act-col29-cat0" fill="#777" stroke="#000" stroke-width="5" width="70" height="359" x="0" y="-364" rx="8" ry="8"/><rect class="hcell-col29-cat0" fill="#777" stroke="#DDD" width="70" height="369" x="0" y="-369" rx="8" ry="8"/><text text-anchor="middle" fill="#FFF" x="35" y="-349">1692</text></a></g></g><rect fill="none" stroke="#DDD" width="70" height="30" rx="8" ry="8" x="325" y="384"/><text text-anchor="middle" fill="#333" x="360" y="404">14-12</text><g transform="translate(325,424)"></g></g></svg>