<svg xmlns="http://www.w3.org/2000/svg" xmlns:xlink="http://www.w3.org/1999/xlink" width="100%" height="100%" viewBox="0 0 400 480"><g><g transform="translate(5,395)"><g><a target="_top" xlink:href="mob-sliceTagExpense-step2628000-ofs20-col20-cat0.html"><rect style="display:none" class="hcell-act-col20-cat0" fill="#777" stroke="#000" stroke-width="5" width="70" height="224" x="0" y="-229" rx="8" ry="8"/><rect class="hcell-col20-cat0" fill="#777" stroke="#DDD" width="70" height="234" x="0" y="-234" rx="8" ry="8"/><text text-anchor="middle" fill="#FFF" x="35" y="-214">2815</text></a></g></g><rect fill="none" stroke="#DDD" width="70" height="30" rx="8" ry="8" x="5" y="405"/><text text-anchor="middle" fill="#333" x="40" y="425">14-03</text><g transform="translate(5,445)"><g><a target="_top" xlink:href="mob-sliceTagExpense-step2628000-ofs20-col20-cat0.html"><rect style="display:none" class="hcell-act-col20-cat0" fill="#777" stroke="#000" stroke-width="5" width="70" height="20" x="0" y="5" rx="8" ry="8"/><rect class="hcell-col20-cat0" fill="#777" stroke="#DDD" width="70" height="30" x="0" y="0" rx="8" ry="8"/><text text-anchor="middle" fill="#FFF" x="35" y="20">-27</text></a></g></g></g><g><g transform="translate(85,395)"><g><a target="_top" xlink:href="mob-sliceTagExpense-step2628000-ofs20-col21-cat0.html"><rect style="display:none" class="hcell-act-col21-cat0" fill="#777" stroke="#000" stroke-width="5" width="70" height="345" x="0" y="-350" rx="8" ry="8"/><rect class="hcell-col21-cat0" fill="#777" stroke="#DDD" width="70" height="355" x="0" y="-355" rx="8" ry="8"/><text text-anchor="middle" fill="#FFF" x="35" y="-335">4263</text></a></g></g><rect fill="none" stroke="#DDD" width="70" height="30" rx="8" ry="8" x="85" y="405"/><text text-anchor="middle" fill="#333" x="120" y="425">14-04</text><g transform="translate(85,445)"></g></g><g><g transform="translate(165,395)"><g><a target="_top" xlink:href="mob-sliceTagExpense-step2628000-ofs20-col22-cat0.html"><rect style="display:none" class="hcell-act-col22-cat0" fill="#777" stroke="#000" stroke-width="5" width="70" height="380" x="0" y="-385" rx="8" ry="8"/><rect class="hcell-col22-cat0" fill="#777" stroke="#DDD" width="70" height="390" x="0" y="-390" rx="8" ry="8"/><text text-anchor="middle" fill="#FFF" x="35" y="-370">4683</text></a></g></g><rect fill="none" stroke="#DDD" width="70" height="30" rx="8" ry="8" x="165" y="405"/><text text-anchor="middle" fill="#333" x="200" y="425">14-05</text><g transform="translate(165,445)"><g><a target="_top" xlink:href="mob-sliceTagExpense-step2628000-ofs20-col22-cat0.html"><rect style="display:none" class="hcell-act-col22-cat0" fill="#777" stroke="#000" stroke-width="5" width="70" height="20" x="0" y="5" rx="8" ry="8"/><rect class="hcell-col22-cat0" fill="#777" stroke="#DDD" width="70" height="30" x="0" y="0" rx="8" ry="8"/><text text-anchor="middle" fill="#FFF" x="35" y="20">-120</text></a></g></g></g><g><g transform="translate(245,395)"><g><a target="_top" xlink:href="mob-sliceTagExpense-step2628000-ofs20-col23-cat0.html"><rect style="display:none" class="hcell-act-col23-cat0" fill="#777" stroke="#000" stroke-width="5" width="70" height="280" x="0" y="-285" rx="8" ry="8"/><rect class="hcell-col23-cat0" fill="#777" stroke="#DDD" width="70" height="290" x="0" y="-290" rx="8" ry="8"/><text text-anchor="middle" fill="#FFF" x="35" y="-270">3484</text></a></g></g><rect fill="none" stroke="#DDD" width="70" height="30" rx="8" ry="8" x="245" y="405"/><text text-anchor="middle" fill="#333" x="280" y="425">14-06</text><g transform="translate(245,445)"></g></g><g><g transform="translate(325,395)"><g><a target="_top" xlink:href="mob-sliceTagExpense-step2628000-ofs20-col24-cat0.html"><rect style="display:none" class="hcell-act-col24-cat0" fill="#777" stroke="#000" stroke-width="5" width="70" height="231" x="0" y="-236" rx="8" ry="8"/><rect class="hcell-col24-cat0" fill="#777" stroke="#DDD" width="70" height="241" x="0" y="-241" rx="8" ry="8"/><text text-anchor="middle" fill="#FFF" x="35" y="-221">2896</text></a></g></g><rect fill="none" stroke="#DDD" width="70" height="30" rx="8" ry="8" x="325" y="405"/><text text-anchor="middle" fill="#333" x="360" y="425">14-07</text><g transform="translate(325,445)"><g><a target="_top" xlink:href="mob-sliceTagExpense-step2628000-ofs20-col24-cat0.html"><rect style="display:none" class="hcell-act-col24-cat0" fill="#777" stroke="#000" stroke-width="5" width="70" height="20" x="0" y="5" rx="8" ry="8"/><rect class="hcell-col24-cat0" fill="#777" stroke="#DDD" width="70" height="30" x="0" y="0" rx="8" ry="8"/><text text-anchor="middle" fill="#FFF" x="35" y="20">-13</text></a></g></g></g></svg>