<svg xmlns="http://www.w3.org/2000/svg" xmlns:xlink="http://www.w3.org/1999/xlink" width="100%" height="100%" viewBox="0 0 400 459"><g><g transform="translate(5,246)"></g><rect fill="none" stroke="#DDD" width="70" height="30" rx="8" ry="8" x="5" y="256"/><text text-anchor="middle" fill="#333" x="40" y="276">13-10</text><g transform="translate(5,296)"></g></g><g><g transform="translate(85,246)"></g><rect fill="none" stroke="#DDD" width="70" height="30" rx="8" ry="8" x="85" y="256"/><text text-anchor="middle" fill="#333" x="120" y="276">13-10</text><g transform="translate(85,296)"></g></g><g><g transform="translate(165,246)"></g><rect fill="none" stroke="#DDD" width="70" height="30" rx="8" ry="8" x="165" y="256"/><text text-anchor="middle" fill="#333" x="200" y="276">13-12</text><g transform="translate(165,296)"></g></g><g><g transform="translate(245,246)"></g><rect fill="none" stroke="#DDD" width="70" height="30" rx="8" ry="8" x="245" y="256"/><text text-anchor="middle" fill="#333" x="280" y="276">13-12</text><g transform="translate(245,296)"></g></g><g><g transform="translate(325,246)"><g><a target="_top" xlink:href="mob-sliceTagVioGorCard-step2628000-ofs15-col19-cat0.html"><rect style="display:none" class="hcell-act-col19-cat0" fill="#777" stroke="#000" stroke-width="5" width="70" height="231" x="0" y="-236" rx="8" ry="8"/><rect class="hcell-col19-cat0" fill="#777" stroke="#DDD" width="70" height="241" x="0" y="-241" rx="8" ry="8"/><text text-anchor="middle" fill="#FFF" x="35" y="-221">15</text></a></g></g><rect fill="none" stroke="#DDD" width="70" height="30" rx="8" ry="8" x="325" y="256"/><text text-anchor="middle" fill="#333" x="360" y="276">14-01</text><g transform="translate(325,296)"><g><a target="_top" xlink:href="mob-sliceTagVioGorCard-step2628000-ofs15-col19-cat0.html"><rect style="display:none" class="hcell-act-col19-cat0" fill="#777" stroke="#000" stroke-width="5" width="70" height="148" x="0" y="5" rx="8" ry="8"/><rect class="hcell-col19-cat0" fill="#777" stroke="#DDD" width="70" height="158" x="0" y="0" rx="8" ry="8"/><text text-anchor="middle" fill="#FFF" x="35" y="20">-10</text></a></g></g></g></svg>