<svg xmlns="http://www.w3.org/2000/svg" xmlns:xlink="http://www.w3.org/1999/xlink" width="100%" height="100%" viewBox="0 0 400 459"><g><g transform="translate(5,315)"></g><rect fill="none" stroke="#DDD" width="70" height="30" rx="8" ry="8" x="5" y="325"/><text text-anchor="middle" fill="#333" x="40" y="345">12-07</text><g transform="translate(5,365)"></g></g><g><g transform="translate(85,315)"></g><rect fill="none" stroke="#DDD" width="70" height="30" rx="8" ry="8" x="85" y="325"/><text text-anchor="middle" fill="#333" x="120" y="345">13-01</text><g transform="translate(85,365)"></g></g><g><g transform="translate(165,315)"></g><rect fill="none" stroke="#DDD" width="70" height="30" rx="8" ry="8" x="165" y="325"/><text text-anchor="middle" fill="#333" x="200" y="345">13-08</text><g transform="translate(165,365)"></g></g><g><g transform="translate(245,315)"><g><a target="_top" xlink:href="mob-sliceTagIncome-step17936641-ofs0-col3-cat0.html"><rect style="display:none" class="hcell-act-col3-cat0" fill="#777" stroke="#000" stroke-width="5" width="70" height="300" x="0" y="-305" rx="8" ry="8"/><rect class="hcell-col3-cat0" fill="#777" stroke="#DDD" width="70" height="310" x="0" y="-310" rx="8" ry="8"/><text text-anchor="middle" fill="#FFF" x="35" y="-290">2302</text></a></g></g><rect fill="none" stroke="#DDD" width="70" height="30" rx="8" ry="8" x="245" y="325"/><text text-anchor="middle" fill="#333" x="280" y="345">14-03</text><g transform="translate(245,365)"></g></g><g><g transform="translate(325,315)"></g><rect fill="none" stroke="#DDD" width="70" height="30" rx="8" ry="8" x="325" y="325"/><text text-anchor="middle" fill="#333" x="360" y="345">14-10</text><g transform="translate(325,365)"><g><a target="_top" xlink:href="mob-sliceTagIncome-step17936641-ofs0-col4-cat0.html"><rect style="display:none" class="hcell-act-col4-cat0" fill="#777" stroke="#000" stroke-width="5" width="70" height="79" x="0" y="5" rx="8" ry="8"/><rect class="hcell-col4-cat0" fill="#777" stroke="#DDD" width="70" height="89" x="0" y="0" rx="8" ry="8"/><text text-anchor="middle" fill="#FFF" x="35" y="20">-665</text></a></g></g></g></svg>