<svg xmlns="http://www.w3.org/2000/svg" xmlns:xlink="http://www.w3.org/1999/xlink" width="100%" height="100%" viewBox="0 0 400 459"><g><g transform="translate(5,127)"><g><a target="_top" xlink:href="mob-sliceTagVisa4307-step2628000-ofs10-col10-cat0.html"><rect style="display:none" class="hcell-act-col10-cat0" fill="#777" stroke="#000" stroke-width="5" width="70" height="109" x="0" y="-114" rx="8" ry="8"/><rect class="hcell-col10-cat0" fill="#777" stroke="#DDD" width="70" height="119" x="0" y="-119" rx="8" ry="8"/><text text-anchor="middle" fill="#FFF" x="35" y="-99">2631</text></a></g></g><rect fill="none" stroke="#DDD" width="70" height="30" rx="8" ry="8" x="5" y="137"/><text text-anchor="middle" fill="#333" x="40" y="157">13-05</text><g transform="translate(5,177)"><g><a target="_top" xlink:href="mob-sliceTagVisa4307-step2628000-ofs10-col10-cat0.html"><rect style="display:none" class="hcell-act-col10-cat0" fill="#777" stroke="#000" stroke-width="5" width="70" height="113" x="0" y="5" rx="8" ry="8"/><rect class="hcell-col10-cat0" fill="#777" stroke="#DDD" width="70" height="123" x="0" y="0" rx="8" ry="8"/><text text-anchor="middle" fill="#FFF" x="35" y="20">-2720</text></a></g></g></g><g><g transform="translate(85,127)"><g><a target="_top" xlink:href="mob-sliceTagVisa4307-step2628000-ofs10-col11-cat0.html"><rect style="display:none" class="hcell-act-col11-cat0" fill="#777" stroke="#000" stroke-width="5" width="70" height="112" x="0" y="-117" rx="8" ry="8"/><rect class="hcell-col11-cat0" fill="#777" stroke="#DDD" width="70" height="122" x="0" y="-122" rx="8" ry="8"/><text text-anchor="middle" fill="#FFF" x="35" y="-102">2708</text></a></g></g><rect fill="none" stroke="#DDD" width="70" height="30" rx="8" ry="8" x="85" y="137"/><text text-anchor="middle" fill="#333" x="120" y="157">13-06</text><g transform="translate(85,177)"><g><a target="_top" xlink:href="mob-sliceTagVisa4307-step2628000-ofs10-col11-cat0.html"><rect style="display:none" class="hcell-act-col11-cat0" fill="#777" stroke="#000" stroke-width="5" width="70" height="116" x="0" y="5" rx="8" ry="8"/><rect class="hcell-col11-cat0" fill="#777" stroke="#DDD" width="70" height="126" x="0" y="0" rx="8" ry="8"/><text text-anchor="middle" fill="#FFF" x="35" y="20">-2796</text></a></g></g></g><g><g transform="translate(165,127)"><g><a target="_top" xlink:href="mob-sliceTagVisa4307-step2628000-ofs10-col12-cat0.html"><rect style="display:none" class="hcell-act-col12-cat0" fill="#777" stroke="#000" stroke-width="5" width="70" height="107" x="0" y="-112" rx="8" ry="8"/><rect class="hcell-col12-cat0" fill="#777" stroke="#DDD" width="70" height="117" x="0" y="-117" rx="8" ry="8"/><text text-anchor="middle" fill="#FFF" x="35" y="-97">2600</text></a></g></g><rect fill="none" stroke="#DDD" width="70" height="30" rx="8" ry="8" x="165" y="137"/><text text-anchor="middle" fill="#333" x="200" y="157">13-07</text><g transform="translate(165,177)"><g><a target="_top" xlink:href="mob-sliceTagVisa4307-step2628000-ofs10-col12-cat0.html"><rect style="display:none" class="hcell-act-col12-cat0" fill="#777" stroke="#000" stroke-width="5" width="70" height="267" x="0" y="5" rx="8" ry="8"/><rect class="hcell-col12-cat0" fill="#777" stroke="#DDD" width="70" height="277" x="0" y="0" rx="8" ry="8"/><text text-anchor="middle" fill="#FFF" x="35" y="20">-6135</text></a></g></g></g><g><g transform="translate(245,127)"><g><a target="_top" xlink:href="mob-sliceTagVisa4307-step2628000-ofs10-col13-cat0.html"><rect style="display:none" class="hcell-act-col13-cat0" fill="#777" stroke="#000" stroke-width="5" width="70" height="108" x="0" y="-113" rx="8" ry="8"/><rect class="hcell-col13-cat0" fill="#777" stroke="#DDD" width="70" height="118" x="0" y="-118" rx="8" ry="8"/><text text-anchor="middle" fill="#FFF" x="35" y="-98">2624</text></a></g></g><rect fill="none" stroke="#DDD" width="70" height="30" rx="8" ry="8" x="245" y="137"/><text text-anchor="middle" fill="#333" x="280" y="157">13-08</text><g transform="translate(245,177)"><g><a target="_top" xlink:href="mob-sliceTagVisa4307-step2628000-ofs10-col13-cat0.html"><rect style="display:none" class="hcell-act-col13-cat0" fill="#777" stroke="#000" stroke-width="5" width="70" height="63" x="0" y="5" rx="8" ry="8"/><rect class="hcell-col13-cat0" fill="#777" stroke="#DDD" width="70" height="73" x="0" y="0" rx="8" ry="8"/><text text-anchor="middle" fill="#FFF" x="35" y="20">-1620</text></a></g></g></g><g><g transform="translate(325,127)"><g><a target="_top" xlink:href="mob-sliceTagVisa4307-step2628000-ofs10-col14-cat0.html"><rect style="display:none" class="hcell-act-col14-cat0" fill="#777" stroke="#000" stroke-width="5" width="70" height="107" x="0" y="-112" rx="8" ry="8"/><rect class="hcell-col14-cat0" fill="#777" stroke="#DDD" width="70" height="117" x="0" y="-117" rx="8" ry="8"/><text text-anchor="middle" fill="#FFF" x="35" y="-97">2600</text></a></g></g><rect fill="none" stroke="#DDD" width="70" height="30" rx="8" ry="8" x="325" y="137"/><text text-anchor="middle" fill="#333" x="360" y="157">13-08</text><g transform="translate(325,177)"><g><a target="_top" xlink:href="mob-sliceTagVisa4307-step2628000-ofs10-col14-cat0.html"><rect style="display:none" class="hcell-act-col14-cat0" fill="#777" stroke="#000" stroke-width="5" width="70" height="62" x="0" y="5" rx="8" ry="8"/><rect class="hcell-col14-cat0" fill="#777" stroke="#DDD" width="70" height="72" x="0" y="0" rx="8" ry="8"/><text text-anchor="middle" fill="#FFF" x="35" y="20">-1601</text></a></g></g></g></svg>