<svg xmlns="http://www.w3.org/2000/svg" xmlns:xlink="http://www.w3.org/1999/xlink" width="100%" height="100%" viewBox="0 0 400 459"><g><g transform="translate(5,112)"><g><a target="_top" xlink:href="mob-sliceTagHousehold-step2628000-ofs25-col25-cat0.html"><rect style="display:none" class="hcell-act-col25-cat0" fill="#777" stroke="#000" stroke-width="5" width="70" height="22" x="0" y="-27" rx="8" ry="8"/><rect class="hcell-col25-cat0" fill="#777" stroke="#DDD" width="70" height="32" x="0" y="-32" rx="8" ry="8"/><text text-anchor="middle" fill="#FFF" x="35" y="-12">5</text></a></g></g><rect fill="none" stroke="#DDD" width="70" height="30" rx="8" ry="8" x="5" y="122"/><text text-anchor="middle" fill="#333" x="40" y="142">14-08</text><g transform="translate(5,162)"></g></g><g><g transform="translate(85,112)"><g><a target="_top" xlink:href="mob-sliceTagHousehold-step2628000-ofs25-col26-cat0.html"><rect style="display:none" class="hcell-act-col26-cat0" fill="#777" stroke="#000" stroke-width="5" width="70" height="20" x="0" y="-25" rx="8" ry="8"/><rect class="hcell-col26-cat0" fill="#777" stroke="#DDD" width="70" height="30" x="0" y="-30" rx="8" ry="8"/><text text-anchor="middle" fill="#FFF" x="35" y="-10">5</text></a></g></g><rect fill="none" stroke="#DDD" width="70" height="30" rx="8" ry="8" x="85" y="122"/><text text-anchor="middle" fill="#333" x="120" y="142">14-08</text><g transform="translate(85,162)"></g></g><g><g transform="translate(165,112)"></g><rect fill="none" stroke="#DDD" width="70" height="30" rx="8" ry="8" x="165" y="122"/><text text-anchor="middle" fill="#333" x="200" y="142">14-10</text><g transform="translate(165,162)"><g><a target="_top" xlink:href="mob-sliceTagHousehold-step2628000-ofs25-col27-cat0.html"><rect style="display:none" class="hcell-act-col27-cat0" fill="#777" stroke="#000" stroke-width="5" width="70" height="282" x="0" y="5" rx="8" ry="8"/><rect class="hcell-col27-cat0" fill="#777" stroke="#DDD" width="70" height="292" x="0" y="0" rx="8" ry="8"/><text text-anchor="middle" fill="#FFF" x="35" y="20">-50</text></a></g></g></g><g><g transform="translate(245,112)"><g><a target="_top" xlink:href="mob-sliceTagHousehold-step2628000-ofs25-col28-cat0.html"><rect style="display:none" class="hcell-act-col28-cat0" fill="#777" stroke="#000" stroke-width="5" width="70" height="97" x="0" y="-102" rx="8" ry="8"/><rect class="hcell-col28-cat0" fill="#777" stroke="#DDD" width="70" height="107" x="0" y="-107" rx="8" ry="8"/><text text-anchor="middle" fill="#FFF" x="35" y="-87">18</text></a></g></g><rect fill="none" stroke="#DDD" width="70" height="30" rx="8" ry="8" x="245" y="122"/><text text-anchor="middle" fill="#333" x="280" y="142">14-10</text><g transform="translate(245,162)"></g></g><g><g transform="translate(325,112)"><g><a target="_top" xlink:href="mob-sliceTagHousehold-step2628000-ofs25-col29-cat0.html"><rect style="display:none" class="hcell-act-col29-cat0" fill="#777" stroke="#000" stroke-width="5" width="70" height="20" x="0" y="-25" rx="8" ry="8"/><rect class="hcell-col29-cat0" fill="#777" stroke="#DDD" width="70" height="30" x="0" y="-30" rx="8" ry="8"/><text text-anchor="middle" fill="#FFF" x="35" y="-10">2</text></a></g></g><rect fill="none" stroke="#DDD" width="70" height="30" rx="8" ry="8" x="325" y="122"/><text text-anchor="middle" fill="#333" x="360" y="142">14-12</text><g transform="translate(325,162)"></g></g></svg>