<svg xmlns="http://www.w3.org/2000/svg" xmlns:xlink="http://www.w3.org/1999/xlink" width="100%" height="100%" viewBox="0 0 400 471"><g><g transform="translate(5,416)"></g><rect fill="none" stroke="#DDD" width="70" height="30" rx="8" ry="8" x="5" y="426"/><text text-anchor="middle" fill="#333" x="40" y="446">12-07</text><g transform="translate(5,466)"></g></g><g><g transform="translate(85,416)"><g><a target="_top" xlink:href="mob-slice3-step17936641-ofs0-col1-cat3.html"><rect style="display:none" class="hcell-act-col1-cat3" fill="#F0AD4E" stroke="#000" stroke-width="5" width="70" height="45" x="0" y="-50" rx="8" ry="8"/><rect class="hcell-col1-cat3" fill="#F0AD4E" stroke="#DDD" width="70" height="55" x="0" y="-55" rx="8" ry="8"/><text text-anchor="middle" fill="#FFF" x="35" y="-35">333</text></a></g></g><rect fill="none" stroke="#DDD" width="70" height="30" rx="8" ry="8" x="85" y="426"/><text text-anchor="middle" fill="#333" x="120" y="446">13-01</text><g transform="translate(85,466)"></g></g><g><g transform="translate(165,416)"><g><a target="_top" xlink:href="mob-slice3-step17936641-ofs0-col2-cat0.html"><rect style="display:none" class="hcell-act-col2-cat0" fill="#5CB85C" stroke="#000" stroke-width="5" width="70" height="20" x="0" y="-25" rx="8" ry="8"/><rect class="hcell-col2-cat0" fill="#5CB85C" stroke="#DDD" width="70" height="30" x="0" y="-30" rx="8" ry="8"/><text text-anchor="middle" fill="#FFF" x="35" y="-10">128</text></a><g transform="translate(0,-30)"><g><a target="_top" xlink:href="mob-slice3-step17936641-ofs0-col2-cat3.html"><rect style="display:none" class="hcell-act-col2-cat3" fill="#F0AD4E" stroke="#000" stroke-width="5" width="70" height="68" x="0" y="-73" rx="8" ry="8"/><rect class="hcell-col2-cat3" fill="#F0AD4E" stroke="#DDD" width="70" height="78" x="0" y="-78" rx="8" ry="8"/><text text-anchor="middle" fill="#FFF" x="35" y="-58">475</text></a></g></g></g></g><rect fill="none" stroke="#DDD" width="70" height="30" rx="8" ry="8" x="165" y="426"/><text text-anchor="middle" fill="#333" x="200" y="446">13-08</text><g transform="translate(165,466)"></g></g><g><g transform="translate(245,416)"><g><a target="_top" xlink:href="mob-slice3-step17936641-ofs0-col3-cat2.html"><rect style="display:none" class="hcell-act-col3-cat2" fill="#337AB7" stroke="#000" stroke-width="5" width="70" height="20" x="0" y="-25" rx="8" ry="8"/><rect class="hcell-col3-cat2" fill="#337AB7" stroke="#DDD" width="70" height="30" x="0" y="-30" rx="8" ry="8"/><text text-anchor="middle" fill="#FFF" x="35" y="-10">108</text></a><g transform="translate(0,-30)"><g><a target="_top" xlink:href="mob-slice3-step17936641-ofs0-col3-cat1.html"><rect style="display:none" class="hcell-act-col3-cat1" fill="#5BC0DE" stroke="#000" stroke-width="5" width="70" height="25" x="0" y="-30" rx="8" ry="8"/><rect class="hcell-col3-cat1" fill="#5BC0DE" stroke="#DDD" width="70" height="35" x="0" y="-35" rx="8" ry="8"/><text text-anchor="middle" fill="#FFF" x="35" y="-15">212</text></a><g transform="translate(0,-35)"><g><a target="_top" xlink:href="mob-slice3-step17936641-ofs0-col3-cat0.html"><rect style="display:none" class="hcell-act-col3-cat0" fill="#5CB85C" stroke="#000" stroke-width="5" width="70" height="336" x="0" y="-341" rx="8" ry="8"/><rect class="hcell-col3-cat0" fill="#5CB85C" stroke="#DDD" width="70" height="346" x="0" y="-346" rx="8" ry="8"/><text text-anchor="middle" fill="#FFF" x="35" y="-326">2091</text></a></g></g></g></g></g></g><rect fill="none" stroke="#DDD" width="70" height="30" rx="8" ry="8" x="245" y="426"/><text text-anchor="middle" fill="#333" x="280" y="446">14-03</text><g transform="translate(245,466)"></g></g><g><g transform="translate(325,416)"></g><rect fill="none" stroke="#DDD" width="70" height="30" rx="8" ry="8" x="325" y="426"/><text text-anchor="middle" fill="#333" x="360" y="446">14-10</text><g transform="translate(325,466)"></g></g></svg>