<svg xmlns="http://www.w3.org/2000/svg" xmlns:xlink="http://www.w3.org/1999/xlink" width="100%" height="100%" viewBox="0 0 400 460"><g><g transform="translate(5,405)"></g><rect fill="none" stroke="#DDD" width="70" height="30" rx="8" ry="8" x="5" y="415"/><text text-anchor="middle" fill="#333" x="40" y="435">12-07</text><g transform="translate(5,455)"></g></g><g><g transform="translate(85,405)"><g><a target="_top" xlink:href="mob-sliceTagCar-step17936641-ofs0-col1-cat0.html"><rect style="display:none" class="hcell-act-col1-cat0" fill="#777" stroke="#000" stroke-width="5" width="70" height="208" x="0" y="-213" rx="8" ry="8"/><rect class="hcell-col1-cat0" fill="#777" stroke="#DDD" width="70" height="218" x="0" y="-218" rx="8" ry="8"/><text text-anchor="middle" fill="#FFF" x="35" y="-198">1675</text></a></g></g><rect fill="none" stroke="#DDD" width="70" height="30" rx="8" ry="8" x="85" y="415"/><text text-anchor="middle" fill="#333" x="120" y="435">13-01</text><g transform="translate(85,455)"></g></g><g><g transform="translate(165,405)"><g><a target="_top" xlink:href="mob-sliceTagCar-step17936641-ofs0-col2-cat0.html"><rect style="display:none" class="hcell-act-col2-cat0" fill="#777" stroke="#000" stroke-width="5" width="70" height="99" x="0" y="-104" rx="8" ry="8"/><rect class="hcell-col2-cat0" fill="#777" stroke="#DDD" width="70" height="109" x="0" y="-109" rx="8" ry="8"/><text text-anchor="middle" fill="#FFF" x="35" y="-89">839</text></a></g></g><rect fill="none" stroke="#DDD" width="70" height="30" rx="8" ry="8" x="165" y="415"/><text text-anchor="middle" fill="#333" x="200" y="435">13-08</text><g transform="translate(165,455)"></g></g><g><g transform="translate(245,405)"><g><a target="_top" xlink:href="mob-sliceTagCar-step17936641-ofs0-col3-cat0.html"><rect style="display:none" class="hcell-act-col3-cat0" fill="#777" stroke="#000" stroke-width="5" width="70" height="390" x="0" y="-395" rx="8" ry="8"/><rect class="hcell-col3-cat0" fill="#777" stroke="#DDD" width="70" height="400" x="0" y="-400" rx="8" ry="8"/><text text-anchor="middle" fill="#FFF" x="35" y="-380">3066</text></a></g></g><rect fill="none" stroke="#DDD" width="70" height="30" rx="8" ry="8" x="245" y="415"/><text text-anchor="middle" fill="#333" x="280" y="435">14-03</text><g transform="translate(245,455)"></g></g><g><g transform="translate(325,405)"><g><a target="_top" xlink:href="mob-sliceTagCar-step17936641-ofs0-col4-cat0.html"><rect style="display:none" class="hcell-act-col4-cat0" fill="#777" stroke="#000" stroke-width="5" width="70" height="205" x="0" y="-210" rx="8" ry="8"/><rect class="hcell-col4-cat0" fill="#777" stroke="#DDD" width="70" height="215" x="0" y="-215" rx="8" ry="8"/><text text-anchor="middle" fill="#FFF" x="35" y="-195">1655</text></a></g></g><rect fill="none" stroke="#DDD" width="70" height="30" rx="8" ry="8" x="325" y="415"/><text text-anchor="middle" fill="#333" x="360" y="435">14-10</text><g transform="translate(325,455)"></g></g></svg>