<svg xmlns="http://www.w3.org/2000/svg" xmlns:xlink="http://www.w3.org/1999/xlink" width="100%" height="100%" viewBox="0 0 400 461"><g><g transform="translate(5,376)"><g><a target="_top" xlink:href="mob-sliceTagPayment-step17936641-ofs0-col0-cat0.html"><rect style="display:none" class="hcell-act-col0-cat0" fill="#777" stroke="#000" stroke-width="5" width="70" height="20" x="0" y="-25" rx="8" ry="8"/><rect class="hcell-col0-cat0" fill="#777" stroke="#DDD" width="70" height="30" x="0" y="-30" rx="8" ry="8"/><text text-anchor="middle" fill="#FFF" x="35" y="-10">11</text></a></g></g><rect fill="none" stroke="#DDD" width="70" height="30" rx="8" ry="8" x="5" y="386"/><text text-anchor="middle" fill="#333" x="40" y="406">12-07</text><g transform="translate(5,426)"><g><a target="_top" xlink:href="mob-sliceTagPayment-step17936641-ofs0-col0-cat0.html"><rect style="display:none" class="hcell-act-col0-cat0" fill="#777" stroke="#000" stroke-width="5" width="70" height="20" x="0" y="5" rx="8" ry="8"/><rect class="hcell-col0-cat0" fill="#777" stroke="#DDD" width="70" height="30" x="0" y="0" rx="8" ry="8"/><text text-anchor="middle" fill="#FFF" x="35" y="20">-371</text></a></g></g></g><g><g transform="translate(85,376)"><g><a target="_top" xlink:href="mob-sliceTagPayment-step17936641-ofs0-col1-cat0.html"><rect style="display:none" class="hcell-act-col1-cat0" fill="#777" stroke="#000" stroke-width="5" width="70" height="184" x="0" y="-189" rx="8" ry="8"/><rect class="hcell-col1-cat0" fill="#777" stroke="#DDD" width="70" height="194" x="0" y="-194" rx="8" ry="8"/><text text-anchor="middle" fill="#FFF" x="35" y="-174">3915</text></a></g></g><rect fill="none" stroke="#DDD" width="70" height="30" rx="8" ry="8" x="85" y="386"/><text text-anchor="middle" fill="#333" x="120" y="406">13-01</text><g transform="translate(85,426)"><g><a target="_top" xlink:href="mob-sliceTagPayment-step17936641-ofs0-col1-cat0.html"><rect style="display:none" class="hcell-act-col1-cat0" fill="#777" stroke="#000" stroke-width="5" width="70" height="20" x="0" y="5" rx="8" ry="8"/><rect class="hcell-col1-cat0" fill="#777" stroke="#DDD" width="70" height="30" x="0" y="0" rx="8" ry="8"/><text text-anchor="middle" fill="#FFF" x="35" y="20">-358</text></a></g></g></g><g><g transform="translate(165,376)"><g><a target="_top" xlink:href="mob-sliceTagPayment-step17936641-ofs0-col2-cat0.html"><rect style="display:none" class="hcell-act-col2-cat0" fill="#777" stroke="#000" stroke-width="5" width="70" height="278" x="0" y="-283" rx="8" ry="8"/><rect class="hcell-col2-cat0" fill="#777" stroke="#DDD" width="70" height="288" x="0" y="-288" rx="8" ry="8"/><text text-anchor="middle" fill="#FFF" x="35" y="-268">5804</text></a></g></g><rect fill="none" stroke="#DDD" width="70" height="30" rx="8" ry="8" x="165" y="386"/><text text-anchor="middle" fill="#333" x="200" y="406">13-08</text><g transform="translate(165,426)"><g><a target="_top" xlink:href="mob-sliceTagPayment-step17936641-ofs0-col2-cat0.html"><rect style="display:none" class="hcell-act-col2-cat0" fill="#777" stroke="#000" stroke-width="5" width="70" height="20" x="0" y="5" rx="8" ry="8"/><rect class="hcell-col2-cat0" fill="#777" stroke="#DDD" width="70" height="30" x="0" y="0" rx="8" ry="8"/><text text-anchor="middle" fill="#FFF" x="35" y="20">-194</text></a></g></g></g><g><g transform="translate(245,376)"><g><a target="_top" xlink:href="mob-sliceTagPayment-step17936641-ofs0-col3-cat0.html"><rect style="display:none" class="hcell-act-col3-cat0" fill="#777" stroke="#000" stroke-width="5" width="70" height="354" x="0" y="-359" rx="8" ry="8"/><rect class="hcell-col3-cat0" fill="#777" stroke="#DDD" width="70" height="364" x="0" y="-364" rx="8" ry="8"/><text text-anchor="middle" fill="#FFF" x="35" y="-344">7350</text></a></g></g><rect fill="none" stroke="#DDD" width="70" height="30" rx="8" ry="8" x="245" y="386"/><text text-anchor="middle" fill="#333" x="280" y="406">14-03</text><g transform="translate(245,426)"><g><a target="_top" xlink:href="mob-sliceTagPayment-step17936641-ofs0-col3-cat0.html"><rect style="display:none" class="hcell-act-col3-cat0" fill="#777" stroke="#000" stroke-width="5" width="70" height="20" x="0" y="5" rx="8" ry="8"/><rect class="hcell-col3-cat0" fill="#777" stroke="#DDD" width="70" height="30" x="0" y="0" rx="8" ry="8"/><text text-anchor="middle" fill="#FFF" x="35" y="20">-533</text></a></g></g></g><g><g transform="translate(325,376)"><g><a target="_top" xlink:href="mob-sliceTagPayment-step17936641-ofs0-col4-cat0.html"><rect style="display:none" class="hcell-act-col4-cat0" fill="#777" stroke="#000" stroke-width="5" width="70" height="361" x="0" y="-366" rx="8" ry="8"/><rect class="hcell-col4-cat0" fill="#777" stroke="#DDD" width="70" height="371" x="0" y="-371" rx="8" ry="8"/><text text-anchor="middle" fill="#FFF" x="35" y="-351">7495</text></a></g></g><rect fill="none" stroke="#DDD" width="70" height="30" rx="8" ry="8" x="325" y="386"/><text text-anchor="middle" fill="#333" x="360" y="406">14-10</text><g transform="translate(325,426)"><g><a target="_top" xlink:href="mob-sliceTagPayment-step17936641-ofs0-col4-cat0.html"><rect style="display:none" class="hcell-act-col4-cat0" fill="#777" stroke="#000" stroke-width="5" width="70" height="20" x="0" y="5" rx="8" ry="8"/><rect class="hcell-col4-cat0" fill="#777" stroke="#DDD" width="70" height="30" x="0" y="0" rx="8" ry="8"/><text text-anchor="middle" fill="#FFF" x="35" y="20">-565</text></a></g></g></g></svg>