<svg xmlns="http://www.w3.org/2000/svg" xmlns:xlink="http://www.w3.org/1999/xlink" width="100%" height="100%" viewBox="0 0 400 459"><g><g transform="translate(5,261)"><g><a target="_top" xlink:href="mob-sliceTagVisa3950-step2628000-ofs0-col0-cat0.html"><rect style="display:none" class="hcell-act-col0-cat0" fill="#777" stroke="#000" stroke-width="5" width="70" height="246" x="0" y="-251" rx="8" ry="8"/><rect class="hcell-col0-cat0" fill="#777" stroke="#DDD" width="70" height="256" x="0" y="-256" rx="8" ry="8"/><text text-anchor="middle" fill="#FFF" x="35" y="-236">35</text></a></g></g><rect fill="none" stroke="#DDD" width="70" height="30" rx="8" ry="8" x="5" y="271"/><text text-anchor="middle" fill="#333" x="40" y="291">12-07</text><g transform="translate(5,311)"></g></g><g><g transform="translate(85,261)"></g><rect fill="none" stroke="#DDD" width="70" height="30" rx="8" ry="8" x="85" y="271"/><text text-anchor="middle" fill="#333" x="120" y="291">12-08</text><g transform="translate(85,311)"><g><a target="_top" xlink:href="mob-sliceTagVisa3950-step2628000-ofs0-col1-cat0.html"><rect style="display:none" class="hcell-act-col1-cat0" fill="#777" stroke="#000" stroke-width="5" width="70" height="133" x="0" y="5" rx="8" ry="8"/><rect class="hcell-col1-cat0" fill="#777" stroke="#DDD" width="70" height="143" x="0" y="0" rx="8" ry="8"/><text text-anchor="middle" fill="#FFF" x="35" y="20">-20</text></a></g></g></g><g><g transform="translate(165,261)"></g><rect fill="none" stroke="#DDD" width="70" height="30" rx="8" ry="8" x="165" y="271"/><text text-anchor="middle" fill="#333" x="200" y="291">12-08</text><g transform="translate(165,311)"></g></g><g><g transform="translate(245,261)"></g><rect fill="none" stroke="#DDD" width="70" height="30" rx="8" ry="8" x="245" y="271"/><text text-anchor="middle" fill="#333" x="280" y="291">12-10</text><g transform="translate(245,311)"></g></g><g><g transform="translate(325,261)"></g><rect fill="none" stroke="#DDD" width="70" height="30" rx="8" ry="8" x="325" y="271"/><text text-anchor="middle" fill="#333" x="360" y="291">12-10</text><g transform="translate(325,311)"><g><a target="_top" xlink:href="mob-sliceTagVisa3950-step2628000-ofs0-col4-cat0.html"><rect style="display:none" class="hcell-act-col4-cat0" fill="#777" stroke="#000" stroke-width="5" width="70" height="102" x="0" y="5" rx="8" ry="8"/><rect class="hcell-col4-cat0" fill="#777" stroke="#DDD" width="70" height="112" x="0" y="0" rx="8" ry="8"/><text text-anchor="middle" fill="#FFF" x="35" y="20">-16</text></a></g></g></g></svg>