<svg xmlns="http://www.w3.org/2000/svg" xmlns:xlink="http://www.w3.org/1999/xlink" width="100%" height="100%" viewBox="0 0 400 483"><g><g transform="translate(5,428)"></g><rect fill="none" stroke="#DDD" width="70" height="30" rx="8" ry="8" x="5" y="438"/><text text-anchor="middle" fill="#333" x="40" y="458">12-07</text><g transform="translate(5,478)"></g></g><g><g transform="translate(85,428)"><g><a target="_top" xlink:href="mob-slice2-step17936641-ofs0-col1-cat0.html"><rect style="display:none" class="hcell-act-col1-cat0" fill="#5CB85C" stroke="#000" stroke-width="5" width="70" height="20" x="0" y="-25" rx="8" ry="8"/><rect class="hcell-col1-cat0" fill="#5CB85C" stroke="#DDD" width="70" height="30" x="0" y="-30" rx="8" ry="8"/><text text-anchor="middle" fill="#FFF" x="35" y="-10">145</text></a><g transform="translate(0,-30)"><g><a target="_top" xlink:href="mob-slice2-step17936641-ofs0-col1-cat3.html"><rect style="display:none" class="hcell-act-col1-cat3" fill="#F0AD4E" stroke="#000" stroke-width="5" width="70" height="280" x="0" y="-285" rx="8" ry="8"/><rect class="hcell-col1-cat3" fill="#F0AD4E" stroke="#DDD" width="70" height="290" x="0" y="-290" rx="8" ry="8"/><text text-anchor="middle" fill="#FFF" x="35" y="-270">1530</text></a></g></g></g></g><rect fill="none" stroke="#DDD" width="70" height="30" rx="8" ry="8" x="85" y="438"/><text text-anchor="middle" fill="#333" x="120" y="458">13-01</text><g transform="translate(85,478)"></g></g><g><g transform="translate(165,428)"><g><a target="_top" xlink:href="mob-slice2-step17936641-ofs0-col2-cat2.html"><rect style="display:none" class="hcell-act-col2-cat2" fill="#337AB7" stroke="#000" stroke-width="5" width="70" height="20" x="0" y="-25" rx="8" ry="8"/><rect class="hcell-col2-cat2" fill="#337AB7" stroke="#DDD" width="70" height="30" x="0" y="-30" rx="8" ry="8"/><text text-anchor="middle" fill="#FFF" x="35" y="-10">10</text></a><g transform="translate(0,-30)"><g><a target="_top" xlink:href="mob-slice2-step17936641-ofs0-col2-cat0.html"><rect style="display:none" class="hcell-act-col2-cat0" fill="#5CB85C" stroke="#000" stroke-width="5" width="70" height="20" x="0" y="-25" rx="8" ry="8"/><rect class="hcell-col2-cat0" fill="#5CB85C" stroke="#DDD" width="70" height="30" x="0" y="-30" rx="8" ry="8"/><text text-anchor="middle" fill="#FFF" x="35" y="-10">111</text></a><g transform="translate(0,-30)"><g><a target="_top" xlink:href="mob-slice2-step17936641-ofs0-col2-cat3.html"><rect style="display:none" class="hcell-act-col2-cat3" fill="#F0AD4E" stroke="#000" stroke-width="5" width="70" height="57" x="0" y="-62" rx="8" ry="8"/><rect class="hcell-col2-cat3" fill="#F0AD4E" stroke="#DDD" width="70" height="67" x="0" y="-67" rx="8" ry="8"/><text text-anchor="middle" fill="#FFF" x="35" y="-47">354</text></a><g transform="translate(0,-67)"><g><a target="_top" xlink:href="mob-slice2-step17936641-ofs0-col2-cat1.html"><rect style="display:none" class="hcell-act-col2-cat1" fill="#5BC0DE" stroke="#000" stroke-width="5" width="70" height="59" x="0" y="-64" rx="8" ry="8"/><rect class="hcell-col2-cat1" fill="#5BC0DE" stroke="#DDD" width="70" height="69" x="0" y="-69" rx="8" ry="8"/><text text-anchor="middle" fill="#FFF" x="35" y="-49">364</text></a></g></g></g></g></g></g></g></g><rect fill="none" stroke="#DDD" width="70" height="30" rx="8" ry="8" x="165" y="438"/><text text-anchor="middle" fill="#333" x="200" y="458">13-08</text><g transform="translate(165,478)"></g></g><g><g transform="translate(245,428)"><g><a target="_top" xlink:href="mob-slice2-step17936641-ofs0-col3-cat2.html"><rect style="display:none" class="hcell-act-col3-cat2" fill="#337AB7" stroke="#000" stroke-width="5" width="70" height="20" x="0" y="-25" rx="8" ry="8"/><rect class="hcell-col3-cat2" fill="#337AB7" stroke="#DDD" width="70" height="30" x="0" y="-30" rx="8" ry="8"/><text text-anchor="middle" fill="#FFF" x="35" y="-10">10</text></a><g transform="translate(0,-30)"><g><a target="_top" xlink:href="mob-slice2-step17936641-ofs0-col3-cat0.html"><rect style="display:none" class="hcell-act-col3-cat0" fill="#5CB85C" stroke="#000" stroke-width="5" width="70" height="27" x="0" y="-32" rx="8" ry="8"/><rect class="hcell-col3-cat0" fill="#5CB85C" stroke="#DDD" width="70" height="37" x="0" y="-37" rx="8" ry="8"/><text text-anchor="middle" fill="#FFF" x="35" y="-17">197</text></a><g transform="translate(0,-37)"><g><a target="_top" xlink:href="mob-slice2-step17936641-ofs0-col3-cat1.html"><rect style="display:none" class="hcell-act-col3-cat1" fill="#5BC0DE" stroke="#000" stroke-width="5" width="70" height="152" x="0" y="-157" rx="8" ry="8"/><rect class="hcell-col3-cat1" fill="#5BC0DE" stroke="#DDD" width="70" height="162" x="0" y="-162" rx="8" ry="8"/><text text-anchor="middle" fill="#FFF" x="35" y="-142">857</text></a><g transform="translate(0,-162)"><g><a target="_top" xlink:href="mob-slice2-step17936641-ofs0-col3-cat3.html"><rect style="display:none" class="hcell-act-col3-cat3" fill="#F0AD4E" stroke="#000" stroke-width="5" width="70" height="184" x="0" y="-189" rx="8" ry="8"/><rect class="hcell-col3-cat3" fill="#F0AD4E" stroke="#DDD" width="70" height="194" x="0" y="-194" rx="8" ry="8"/><text text-anchor="middle" fill="#FFF" x="35" y="-174">1024</text></a></g></g></g></g></g></g></g></g><rect fill="none" stroke="#DDD" width="70" height="30" rx="8" ry="8" x="245" y="438"/><text text-anchor="middle" fill="#333" x="280" y="458">14-03</text><g transform="translate(245,478)"></g></g><g><g transform="translate(325,428)"><g><a target="_top" xlink:href="mob-slice2-step17936641-ofs0-col4-cat0.html"><rect style="display:none" class="hcell-act-col4-cat0" fill="#5CB85C" stroke="#000" stroke-width="5" width="70" height="20" x="0" y="-25" rx="8" ry="8"/><rect class="hcell-col4-cat0" fill="#5CB85C" stroke="#DDD" width="70" height="30" x="0" y="-30" rx="8" ry="8"/><text text-anchor="middle" fill="#FFF" x="35" y="-10">140</text></a><g transform="translate(0,-30)"><g><a target="_top" xlink:href="mob-slice2-step17936641-ofs0-col4-cat1.html"><rect style="display:none" class="hcell-act-col4-cat1" fill="#5BC0DE" stroke="#000" stroke-width="5" width="70" height="97" x="0" y="-102" rx="8" ry="8"/><rect class="hcell-col4-cat1" fill="#5BC0DE" stroke="#DDD" width="70" height="107" x="0" y="-107" rx="8" ry="8"/><text text-anchor="middle" fill="#FFF" x="35" y="-87">567</text></a><g transform="translate(0,-107)"><g><a target="_top" xlink:href="mob-slice2-step17936641-ofs0-col4-cat3.html"><rect style="display:none" class="hcell-act-col4-cat3" fill="#F0AD4E" stroke="#000" stroke-width="5" width="70" height="255" x="0" y="-260" rx="8" ry="8"/><rect class="hcell-col4-cat3" fill="#F0AD4E" stroke="#DDD" width="70" height="265" x="0" y="-265" rx="8" ry="8"/><text text-anchor="middle" fill="#FFF" x="35" y="-245">1400</text></a></g></g></g></g></g></g><rect fill="none" stroke="#DDD" width="70" height="30" rx="8" ry="8" x="325" y="438"/><text text-anchor="middle" fill="#333" x="360" y="458">14-10</text><g transform="translate(325,478)"></g></g></svg>