<svg xmlns="http://www.w3.org/2000/svg" xmlns:xlink="http://www.w3.org/1999/xlink" width="100%" height="100%" viewBox="0 0 400 459"><g><g transform="translate(5,204)"><g><a target="_top" xlink:href="mob-slice6-step17936641-ofs5-col5-cat0.html"><rect style="display:none" class="hcell-act-col5-cat0" fill="#5CB85C" stroke="#000" stroke-width="5" width="70" height="64" x="0" y="-69" rx="8" ry="8"/><rect class="hcell-col5-cat0" fill="#5CB85C" stroke="#DDD" width="70" height="74" x="0" y="-74" rx="8" ry="8"/><text text-anchor="middle" fill="#FFF" x="35" y="-54">3080</text></a><g transform="translate(0,-74)"><g><a target="_top" xlink:href="mob-slice6-step17936641-ofs5-col5-cat1.html"><rect style="display:none" class="hcell-act-col5-cat1" fill="#337AB7" stroke="#000" stroke-width="5" width="70" height="115" x="0" y="-120" rx="8" ry="8"/><rect class="hcell-col5-cat1" fill="#337AB7" stroke="#DDD" width="70" height="125" x="0" y="-125" rx="8" ry="8"/><text text-anchor="middle" fill="#FFF" x="35" y="-105">5200</text></a></g></g></g></g><rect fill="none" stroke="#DDD" width="70" height="30" rx="8" ry="8" x="5" y="214"/><text text-anchor="middle" fill="#333" x="40" y="234">15-05</text><g transform="translate(5,254)"><g><a target="_top" xlink:href="mob-slice6-step17936641-ofs5-col5-cat2.html"><rect style="display:none" class="hcell-act-col5-cat2" fill="#D9534F" stroke="#000" stroke-width="5" width="70" height="190" x="0" y="5" rx="8" ry="8"/><rect class="hcell-col5-cat2" fill="#D9534F" stroke="#DDD" width="70" height="200" x="0" y="0" rx="8" ry="8"/><text text-anchor="middle" fill="#FFF" x="35" y="20">-8280</text></a></g></g></g><g><g transform="translate(85,204)"></g><rect fill="none" stroke="#DDD" width="70" height="30" rx="8" ry="8" x="85" y="214"/><text text-anchor="middle" fill="#333" x="120" y="234">15-11</text><g transform="translate(85,254)"></g></g><g><g transform="translate(165,204)"></g><rect fill="none" stroke="#DDD" width="70" height="30" rx="8" ry="8" x="165" y="214"/><text text-anchor="middle" fill="#333" x="200" y="234">16-06</text><g transform="translate(165,254)"></g></g><g><g transform="translate(245,204)"></g><rect fill="none" stroke="#DDD" width="70" height="30" rx="8" ry="8" x="245" y="214"/><text text-anchor="middle" fill="#333" x="280" y="234">17-01</text><g transform="translate(245,254)"></g></g><g><g transform="translate(325,204)"></g><rect fill="none" stroke="#DDD" width="70" height="30" rx="8" ry="8" x="325" y="214"/><text text-anchor="middle" fill="#333" x="360" y="234">17-08</text><g transform="translate(325,254)"></g></g></svg>