<svg xmlns="http://www.w3.org/2000/svg" xmlns:xlink="http://www.w3.org/1999/xlink" width="100%" height="100%" viewBox="0 0 400 459"><g><g transform="translate(5,294)"><g><a target="_top" xlink:href="mob-sliceTagMedSvc-step2628000-ofs25-col25-cat0.html"><rect style="display:none" class="hcell-act-col25-cat0" fill="#777" stroke="#000" stroke-width="5" width="70" height="279" x="0" y="-284" rx="8" ry="8"/><rect class="hcell-col25-cat0" fill="#777" stroke="#DDD" width="70" height="289" x="0" y="-289" rx="8" ry="8"/><text text-anchor="middle" fill="#FFF" x="35" y="-269">524</text></a></g></g><rect fill="none" stroke="#DDD" width="70" height="30" rx="8" ry="8" x="5" y="304"/><text text-anchor="middle" fill="#333" x="40" y="324">14-08</text><g transform="translate(5,344)"></g></g><g><g transform="translate(85,294)"></g><rect fill="none" stroke="#DDD" width="70" height="30" rx="8" ry="8" x="85" y="304"/><text text-anchor="middle" fill="#333" x="120" y="324">14-08</text><g transform="translate(85,344)"><g><a target="_top" xlink:href="mob-sliceTagMedSvc-step2628000-ofs25-col26-cat0.html"><rect style="display:none" class="hcell-act-col26-cat0" fill="#777" stroke="#000" stroke-width="5" width="70" height="100" x="0" y="5" rx="8" ry="8"/><rect class="hcell-col26-cat0" fill="#777" stroke="#DDD" width="70" height="110" x="0" y="0" rx="8" ry="8"/><text text-anchor="middle" fill="#FFF" x="35" y="20">-200</text></a></g></g></g><g><g transform="translate(165,294)"></g><rect fill="none" stroke="#DDD" width="70" height="30" rx="8" ry="8" x="165" y="304"/><text text-anchor="middle" fill="#333" x="200" y="324">14-10</text><g transform="translate(165,344)"><g><a target="_top" xlink:href="mob-sliceTagMedSvc-step2628000-ofs25-col27-cat0.html"><rect style="display:none" class="hcell-act-col27-cat0" fill="#777" stroke="#000" stroke-width="5" width="70" height="100" x="0" y="5" rx="8" ry="8"/><rect class="hcell-col27-cat0" fill="#777" stroke="#DDD" width="70" height="110" x="0" y="0" rx="8" ry="8"/><text text-anchor="middle" fill="#FFF" x="35" y="20">-200</text></a></g></g></g><g><g transform="translate(245,294)"></g><rect fill="none" stroke="#DDD" width="70" height="30" rx="8" ry="8" x="245" y="304"/><text text-anchor="middle" fill="#333" x="280" y="324">14-10</text><g transform="translate(245,344)"><g><a target="_top" xlink:href="mob-sliceTagMedSvc-step2628000-ofs25-col28-cat0.html"><rect style="display:none" class="hcell-act-col28-cat0" fill="#777" stroke="#000" stroke-width="5" width="70" height="100" x="0" y="5" rx="8" ry="8"/><rect class="hcell-col28-cat0" fill="#777" stroke="#DDD" width="70" height="110" x="0" y="0" rx="8" ry="8"/><text text-anchor="middle" fill="#FFF" x="35" y="20">-200</text></a></g></g></g><g><g transform="translate(325,294)"><g><a target="_top" xlink:href="mob-sliceTagMedSvc-step2628000-ofs25-col29-cat0.html"><rect style="display:none" class="hcell-act-col29-cat0" fill="#777" stroke="#000" stroke-width="5" width="70" height="91" x="0" y="-96" rx="8" ry="8"/><rect class="hcell-col29-cat0" fill="#777" stroke="#DDD" width="70" height="101" x="0" y="-101" rx="8" ry="8"/><text text-anchor="middle" fill="#FFF" x="35" y="-81">183</text></a></g></g><rect fill="none" stroke="#DDD" width="70" height="30" rx="8" ry="8" x="325" y="304"/><text text-anchor="middle" fill="#333" x="360" y="324">14-12</text><g transform="translate(325,344)"></g></g></svg>