<svg xmlns="http://www.w3.org/2000/svg" xmlns:xlink="http://www.w3.org/1999/xlink" width="100%" height="100%" viewBox="0 0 400 459"><g><g transform="translate(5,270)"></g><rect fill="none" stroke="#DDD" width="70" height="30" rx="8" ry="8" x="5" y="280"/><text text-anchor="middle" fill="#333" x="40" y="300">12-07</text><g transform="translate(5,320)"></g></g><g><g transform="translate(85,270)"></g><rect fill="none" stroke="#DDD" width="70" height="30" rx="8" ry="8" x="85" y="280"/><text text-anchor="middle" fill="#333" x="120" y="300">13-01</text><g transform="translate(85,320)"></g></g><g><g transform="translate(165,270)"></g><rect fill="none" stroke="#DDD" width="70" height="30" rx="8" ry="8" x="165" y="280"/><text text-anchor="middle" fill="#333" x="200" y="300">13-08</text><g transform="translate(165,320)"></g></g><g><g transform="translate(245,270)"><g><a target="_top" xlink:href="mob-sliceTagCarMtn-step17936641-ofs0-col3-cat0.html"><rect style="display:none" class="hcell-act-col3-cat0" fill="#777" stroke="#000" stroke-width="5" width="70" height="255" x="0" y="-260" rx="8" ry="8"/><rect class="hcell-col3-cat0" fill="#777" stroke="#DDD" width="70" height="265" x="0" y="-265" rx="8" ry="8"/><text text-anchor="middle" fill="#FFF" x="35" y="-245">1035</text></a></g></g><rect fill="none" stroke="#DDD" width="70" height="30" rx="8" ry="8" x="245" y="280"/><text text-anchor="middle" fill="#333" x="280" y="300">14-03</text><g transform="translate(245,320)"></g></g><g><g transform="translate(325,270)"></g><rect fill="none" stroke="#DDD" width="70" height="30" rx="8" ry="8" x="325" y="280"/><text text-anchor="middle" fill="#333" x="360" y="300">14-10</text><g transform="translate(325,320)"><g><a target="_top" xlink:href="mob-sliceTagCarMtn-step17936641-ofs0-col4-cat0.html"><rect style="display:none" class="hcell-act-col4-cat0" fill="#777" stroke="#000" stroke-width="5" width="70" height="124" x="0" y="5" rx="8" ry="8"/><rect class="hcell-col4-cat0" fill="#777" stroke="#DDD" width="70" height="134" x="0" y="0" rx="8" ry="8"/><text text-anchor="middle" fill="#FFF" x="35" y="20">-527</text></a></g></g></g></svg>