<svg xmlns="http://www.w3.org/2000/svg" xmlns:xlink="http://www.w3.org/1999/xlink" width="100%" height="100%" viewBox="0 0 400 529"><g><g transform="translate(5,297)"></g><rect fill="none" stroke="#DDD" width="70" height="30" rx="8" ry="8" x="5" y="307"/><text text-anchor="middle" fill="#333" x="40" y="327">12-07</text><g transform="translate(5,347)"></g></g><g><g transform="translate(85,297)"></g><rect fill="none" stroke="#DDD" width="70" height="30" rx="8" ry="8" x="85" y="307"/><text text-anchor="middle" fill="#333" x="120" y="327">13-01</text><g transform="translate(85,347)"></g></g><g><g transform="translate(165,297)"></g><rect fill="none" stroke="#DDD" width="70" height="30" rx="8" ry="8" x="165" y="307"/><text text-anchor="middle" fill="#333" x="200" y="327">13-08</text><g transform="translate(165,347)"></g></g><g><g transform="translate(245,297)"><g><a target="_top" xlink:href="mob-slice0-step17936641-ofs0-col3-cat3.html"><rect style="display:none" class="hcell-act-col3-cat3" fill="#5BC0DE" stroke="#000" stroke-width="5" width="70" height="20" x="0" y="-25" rx="8" ry="8"/><rect class="hcell-col3-cat3" fill="#5BC0DE" stroke="#DDD" width="70" height="30" x="0" y="-30" rx="8" ry="8"/><text text-anchor="middle" fill="#FFF" x="35" y="-10">18</text></a><g transform="translate(0,-30)"><g><a target="_top" xlink:href="mob-slice0-step17936641-ofs0-col3-cat4.html"><rect style="display:none" class="hcell-act-col3-cat4" fill="#337AB7" stroke="#000" stroke-width="5" width="70" height="20" x="0" y="-25" rx="8" ry="8"/><rect class="hcell-col3-cat4" fill="#337AB7" stroke="#DDD" width="70" height="30" x="0" y="-30" rx="8" ry="8"/><text text-anchor="middle" fill="#FFF" x="35" y="-10">173</text></a><g transform="translate(0,-30)"><g><a target="_top" xlink:href="mob-slice0-step17936641-ofs0-col3-cat0.html"><rect style="display:none" class="hcell-act-col3-cat0" fill="#D9534F" stroke="#000" stroke-width="5" width="70" height="222" x="0" y="-227" rx="8" ry="8"/><rect class="hcell-col3-cat0" fill="#D9534F" stroke="#DDD" width="70" height="232" x="0" y="-232" rx="8" ry="8"/><text text-anchor="middle" fill="#FFF" x="35" y="-212">1389</text></a></g></g></g></g></g></g><rect fill="none" stroke="#DDD" width="70" height="30" rx="8" ry="8" x="245" y="307"/><text text-anchor="middle" fill="#333" x="280" y="327">14-03</text><g transform="translate(245,347)"><g><a target="_top" xlink:href="mob-slice0-step17936641-ofs0-col3-cat2.html"><rect style="display:none" class="hcell-act-col3-cat2" fill="#5CB85C" stroke="#000" stroke-width="5" width="70" height="20" x="0" y="5" rx="8" ry="8"/><rect class="hcell-col3-cat2" fill="#5CB85C" stroke="#DDD" width="70" height="30" x="0" y="0" rx="8" ry="8"/><text text-anchor="middle" fill="#FFF" x="35" y="20">-29</text></a><g transform="translate(0,30)"><g><a target="_top" xlink:href="mob-slice0-step17936641-ofs0-col3-cat5.html"><rect style="display:none" class="hcell-act-col3-cat5" fill="#777" stroke="#000" stroke-width="5" width="70" height="20" x="0" y="5" rx="8" ry="8"/><rect class="hcell-col3-cat5" fill="#777" stroke="#DDD" width="70" height="30" x="0" y="0" rx="8" ry="8"/><text text-anchor="middle" fill="#FFF" x="35" y="20">-42</text></a><g transform="translate(0,30)"><g><a target="_top" xlink:href="mob-slice0-step17936641-ofs0-col3-cat1.html"><rect style="display:none" class="hcell-act-col3-cat1" fill="#F0AD4E" stroke="#000" stroke-width="5" width="70" height="107" x="0" y="5" rx="8" ry="8"/><rect class="hcell-col3-cat1" fill="#F0AD4E" stroke="#DDD" width="70" height="117" x="0" y="0" rx="8" ry="8"/><text text-anchor="middle" fill="#FFF" x="35" y="20">-706</text></a></g></g></g></g></g></g></g><g><g transform="translate(325,297)"><g><a target="_top" xlink:href="mob-slice0-step17936641-ofs0-col4-cat3.html"><rect style="display:none" class="hcell-act-col4-cat3" fill="#5BC0DE" stroke="#000" stroke-width="5" width="70" height="20" x="0" y="-25" rx="8" ry="8"/><rect class="hcell-col4-cat3" fill="#5BC0DE" stroke="#DDD" width="70" height="30" x="0" y="-30" rx="8" ry="8"/><text text-anchor="middle" fill="#FFF" x="35" y="-10">52</text></a><g transform="translate(0,-30)"><g><a target="_top" xlink:href="mob-slice0-step17936641-ofs0-col4-cat4.html"><rect style="display:none" class="hcell-act-col4-cat4" fill="#337AB7" stroke="#000" stroke-width="5" width="70" height="20" x="0" y="-25" rx="8" ry="8"/><rect class="hcell-col4-cat4" fill="#337AB7" stroke="#DDD" width="70" height="30" x="0" y="-30" rx="8" ry="8"/><text text-anchor="middle" fill="#FFF" x="35" y="-10">141</text></a><g transform="translate(0,-30)"><g><a target="_top" xlink:href="mob-slice0-step17936641-ofs0-col4-cat0.html"><rect style="display:none" class="hcell-act-col4-cat0" fill="#D9534F" stroke="#000" stroke-width="5" width="70" height="42" x="0" y="-47" rx="8" ry="8"/><rect class="hcell-col4-cat0" fill="#D9534F" stroke="#DDD" width="70" height="52" x="0" y="-52" rx="8" ry="8"/><text text-anchor="middle" fill="#FFF" x="35" y="-32">313</text></a></g></g></g></g></g></g><rect fill="none" stroke="#DDD" width="70" height="30" rx="8" ry="8" x="325" y="307"/><text text-anchor="middle" fill="#333" x="360" y="327">14-10</text><g transform="translate(325,347)"><g><a target="_top" xlink:href="mob-slice0-step17936641-ofs0-col4-cat5.html"><rect style="display:none" class="hcell-act-col4-cat5" fill="#777" stroke="#000" stroke-width="5" width="70" height="20" x="0" y="5" rx="8" ry="8"/><rect class="hcell-col4-cat5" fill="#777" stroke="#DDD" width="70" height="30" x="0" y="0" rx="8" ry="8"/><text text-anchor="middle" fill="#FFF" x="35" y="20">-19</text></a><g transform="translate(0,30)"><g><a target="_top" xlink:href="mob-slice0-step17936641-ofs0-col4-cat2.html"><rect style="display:none" class="hcell-act-col4-cat2" fill="#5CB85C" stroke="#000" stroke-width="5" width="70" height="38" x="0" y="5" rx="8" ry="8"/><rect class="hcell-col4-cat2" fill="#5CB85C" stroke="#DDD" width="70" height="48" x="0" y="0" rx="8" ry="8"/><text text-anchor="middle" fill="#FFF" x="35" y="20">-293</text></a><g transform="translate(0,48)"><g><a target="_top" xlink:href="mob-slice0-step17936641-ofs0-col4-cat1.html"><rect style="display:none" class="hcell-act-col4-cat1" fill="#F0AD4E" stroke="#000" stroke-width="5" width="70" height="73" x="0" y="5" rx="8" ry="8"/><rect class="hcell-col4-cat1" fill="#F0AD4E" stroke="#DDD" width="70" height="83" x="0" y="0" rx="8" ry="8"/><text text-anchor="middle" fill="#FFF" x="35" y="20">-502</text></a></g></g></g></g></g></g></g></svg>