<svg xmlns="http://www.w3.org/2000/svg" xmlns:xlink="http://www.w3.org/1999/xlink" width="100%" height="100%" viewBox="0 0 400 459"><g><g transform="translate(5,148)"><g><a target="_top" xlink:href="mob-sliceTagWindyVault-step2628000-ofs10-col10-cat0.html"><rect style="display:none" class="hcell-act-col10-cat0" fill="#777" stroke="#000" stroke-width="5" width="70" height="133" x="0" y="-138" rx="8" ry="8"/><rect class="hcell-col10-cat0" fill="#777" stroke="#DDD" width="70" height="143" x="0" y="-143" rx="8" ry="8"/><text text-anchor="middle" fill="#FFF" x="35" y="-123">3757</text></a></g></g><rect fill="none" stroke="#DDD" width="70" height="30" rx="8" ry="8" x="5" y="158"/><text text-anchor="middle" fill="#333" x="40" y="178">13-05</text><g transform="translate(5,198)"><g><a target="_top" xlink:href="mob-sliceTagWindyVault-step2628000-ofs10-col10-cat0.html"><rect style="display:none" class="hcell-act-col10-cat0" fill="#777" stroke="#000" stroke-width="5" width="70" height="117" x="0" y="5" rx="8" ry="8"/><rect class="hcell-col10-cat0" fill="#777" stroke="#DDD" width="70" height="127" x="0" y="0" rx="8" ry="8"/><text text-anchor="middle" fill="#FFF" x="35" y="20">-3342</text></a></g></g></g><g><g transform="translate(85,148)"><g><a target="_top" xlink:href="mob-sliceTagWindyVault-step2628000-ofs10-col11-cat0.html"><rect style="display:none" class="hcell-act-col11-cat0" fill="#777" stroke="#000" stroke-width="5" width="70" height="125" x="0" y="-130" rx="8" ry="8"/><rect class="hcell-col11-cat0" fill="#777" stroke="#DDD" width="70" height="135" x="0" y="-135" rx="8" ry="8"/><text text-anchor="middle" fill="#FFF" x="35" y="-115">3532</text></a></g></g><rect fill="none" stroke="#DDD" width="70" height="30" rx="8" ry="8" x="85" y="158"/><text text-anchor="middle" fill="#333" x="120" y="178">13-06</text><g transform="translate(85,198)"><g><a target="_top" xlink:href="mob-sliceTagWindyVault-step2628000-ofs10-col11-cat0.html"><rect style="display:none" class="hcell-act-col11-cat0" fill="#777" stroke="#000" stroke-width="5" width="70" height="108" x="0" y="5" rx="8" ry="8"/><rect class="hcell-col11-cat0" fill="#777" stroke="#DDD" width="70" height="118" x="0" y="0" rx="8" ry="8"/><text text-anchor="middle" fill="#FFF" x="35" y="20">-3101</text></a></g></g></g><g><g transform="translate(165,148)"><g><a target="_top" xlink:href="mob-sliceTagWindyVault-step2628000-ofs10-col12-cat0.html"><rect style="display:none" class="hcell-act-col12-cat0" fill="#777" stroke="#000" stroke-width="5" width="70" height="108" x="0" y="-113" rx="8" ry="8"/><rect class="hcell-col12-cat0" fill="#777" stroke="#DDD" width="70" height="118" x="0" y="-118" rx="8" ry="8"/><text text-anchor="middle" fill="#FFF" x="35" y="-98">3090</text></a></g></g><rect fill="none" stroke="#DDD" width="70" height="30" rx="8" ry="8" x="165" y="158"/><text text-anchor="middle" fill="#333" x="200" y="178">13-07</text><g transform="translate(165,198)"><g><a target="_top" xlink:href="mob-sliceTagWindyVault-step2628000-ofs10-col12-cat0.html"><rect style="display:none" class="hcell-act-col12-cat0" fill="#777" stroke="#000" stroke-width="5" width="70" height="246" x="0" y="5" rx="8" ry="8"/><rect class="hcell-col12-cat0" fill="#777" stroke="#DDD" width="70" height="256" x="0" y="0" rx="8" ry="8"/><text text-anchor="middle" fill="#FFF" x="35" y="20">-6687</text></a></g></g></g><g><g transform="translate(245,148)"><g><a target="_top" xlink:href="mob-sliceTagWindyVault-step2628000-ofs10-col13-cat0.html"><rect style="display:none" class="hcell-act-col13-cat0" fill="#777" stroke="#000" stroke-width="5" width="70" height="90" x="0" y="-95" rx="8" ry="8"/><rect class="hcell-col13-cat0" fill="#777" stroke="#DDD" width="70" height="100" x="0" y="-100" rx="8" ry="8"/><text text-anchor="middle" fill="#FFF" x="35" y="-80">2624</text></a></g></g><rect fill="none" stroke="#DDD" width="70" height="30" rx="8" ry="8" x="245" y="158"/><text text-anchor="middle" fill="#333" x="280" y="178">13-08</text><g transform="translate(245,198)"><g><a target="_top" xlink:href="mob-sliceTagWindyVault-step2628000-ofs10-col13-cat0.html"><rect style="display:none" class="hcell-act-col13-cat0" fill="#777" stroke="#000" stroke-width="5" width="70" height="76" x="0" y="5" rx="8" ry="8"/><rect class="hcell-col13-cat0" fill="#777" stroke="#DDD" width="70" height="86" x="0" y="0" rx="8" ry="8"/><text text-anchor="middle" fill="#FFF" x="35" y="20">-2251</text></a></g></g></g><g><g transform="translate(325,148)"><g><a target="_top" xlink:href="mob-sliceTagWindyVault-step2628000-ofs10-col14-cat0.html"><rect style="display:none" class="hcell-act-col14-cat0" fill="#777" stroke="#000" stroke-width="5" width="70" height="89" x="0" y="-94" rx="8" ry="8"/><rect class="hcell-col14-cat0" fill="#777" stroke="#DDD" width="70" height="99" x="0" y="-99" rx="8" ry="8"/><text text-anchor="middle" fill="#FFF" x="35" y="-79">2600</text></a></g></g><rect fill="none" stroke="#DDD" width="70" height="30" rx="8" ry="8" x="325" y="158"/><text text-anchor="middle" fill="#333" x="360" y="178">13-08</text><g transform="translate(325,198)"><g><a target="_top" xlink:href="mob-sliceTagWindyVault-step2628000-ofs10-col14-cat0.html"><rect style="display:none" class="hcell-act-col14-cat0" fill="#777" stroke="#000" stroke-width="5" width="70" height="61" x="0" y="5" rx="8" ry="8"/><rect class="hcell-col14-cat0" fill="#777" stroke="#DDD" width="70" height="71" x="0" y="0" rx="8" ry="8"/><text text-anchor="middle" fill="#FFF" x="35" y="20">-1863</text></a></g></g></g></svg>