<svg xmlns="http://www.w3.org/2000/svg" xmlns:xlink="http://www.w3.org/1999/xlink" width="100%" height="100%" viewBox="0 0 400 484"><g><g transform="translate(5,5)"></g><rect fill="none" stroke="#DDD" width="70" height="30" rx="8" ry="8" x="5" y="15"/><text text-anchor="middle" fill="#333" x="40" y="35">13-10</text><g transform="translate(5,55)"><g><a target="_top" xlink:href="mob-slice4-step2628000-ofs15-col15-cat2.html"><rect style="display:none" class="hcell-act-col15-cat2" fill="#777" stroke="#000" stroke-width="5" width="70" height="20" x="0" y="5" rx="8" ry="8"/><rect class="hcell-col15-cat2" fill="#777" stroke="#DDD" width="70" height="30" x="0" y="0" rx="8" ry="8"/><text text-anchor="middle" fill="#FFF" x="35" y="20">-111</text></a><g transform="translate(0,30)"><g><a target="_top" xlink:href="mob-slice4-step2628000-ofs15-col15-cat1.html"><rect style="display:none" class="hcell-act-col15-cat1" fill="#337AB7" stroke="#000" stroke-width="5" width="70" height="20" x="0" y="5" rx="8" ry="8"/><rect class="hcell-col15-cat1" fill="#337AB7" stroke="#DDD" width="70" height="30" x="0" y="0" rx="8" ry="8"/><text text-anchor="middle" fill="#FFF" x="35" y="20">-147</text></a><g transform="translate(0,30)"><g><a target="_top" xlink:href="mob-slice4-step2628000-ofs15-col15-cat0.html"><rect style="display:none" class="hcell-act-col15-cat0" fill="#5CB85C" stroke="#000" stroke-width="5" width="70" height="354" x="0" y="5" rx="8" ry="8"/><rect class="hcell-col15-cat0" fill="#5CB85C" stroke="#DDD" width="70" height="364" x="0" y="0" rx="8" ry="8"/><text text-anchor="middle" fill="#FFF" x="35" y="20">-2600</text></a></g></g></g></g></g></g></g><g><g transform="translate(85,5)"></g><rect fill="none" stroke="#DDD" width="70" height="30" rx="8" ry="8" x="85" y="15"/><text text-anchor="middle" fill="#333" x="120" y="35">13-10</text><g transform="translate(85,55)"><g><a target="_top" xlink:href="mob-slice4-step2628000-ofs15-col16-cat1.html"><rect style="display:none" class="hcell-act-col16-cat1" fill="#337AB7" stroke="#000" stroke-width="5" width="70" height="20" x="0" y="5" rx="8" ry="8"/><rect class="hcell-col16-cat1" fill="#337AB7" stroke="#DDD" width="70" height="30" x="0" y="0" rx="8" ry="8"/><text text-anchor="middle" fill="#FFF" x="35" y="20">-48</text></a><g transform="translate(0,30)"><g><a target="_top" xlink:href="mob-slice4-step2628000-ofs15-col16-cat0.html"><rect style="display:none" class="hcell-act-col16-cat0" fill="#5CB85C" stroke="#000" stroke-width="5" width="70" height="354" x="0" y="5" rx="8" ry="8"/><rect class="hcell-col16-cat0" fill="#5CB85C" stroke="#DDD" width="70" height="364" x="0" y="0" rx="8" ry="8"/><text text-anchor="middle" fill="#FFF" x="35" y="20">-2600</text></a></g></g></g></g></g><g><g transform="translate(165,5)"></g><rect fill="none" stroke="#DDD" width="70" height="30" rx="8" ry="8" x="165" y="15"/><text text-anchor="middle" fill="#333" x="200" y="35">13-12</text><g transform="translate(165,55)"><g><a target="_top" xlink:href="mob-slice4-step2628000-ofs15-col17-cat1.html"><rect style="display:none" class="hcell-act-col17-cat1" fill="#337AB7" stroke="#000" stroke-width="5" width="70" height="20" x="0" y="5" rx="8" ry="8"/><rect class="hcell-col17-cat1" fill="#337AB7" stroke="#DDD" width="70" height="30" x="0" y="0" rx="8" ry="8"/><text text-anchor="middle" fill="#FFF" x="35" y="20">-160</text></a><g transform="translate(0,30)"><g><a target="_top" xlink:href="mob-slice4-step2628000-ofs15-col17-cat0.html"><rect style="display:none" class="hcell-act-col17-cat0" fill="#5CB85C" stroke="#000" stroke-width="5" width="70" height="354" x="0" y="5" rx="8" ry="8"/><rect class="hcell-col17-cat0" fill="#5CB85C" stroke="#DDD" width="70" height="364" x="0" y="0" rx="8" ry="8"/><text text-anchor="middle" fill="#FFF" x="35" y="20">-2600</text></a></g></g></g></g></g><g><g transform="translate(245,5)"></g><rect fill="none" stroke="#DDD" width="70" height="30" rx="8" ry="8" x="245" y="15"/><text text-anchor="middle" fill="#333" x="280" y="35">13-12</text><g transform="translate(245,55)"><g><a target="_top" xlink:href="mob-slice4-step2628000-ofs15-col18-cat1.html"><rect style="display:none" class="hcell-act-col18-cat1" fill="#337AB7" stroke="#000" stroke-width="5" width="70" height="20" x="0" y="5" rx="8" ry="8"/><rect class="hcell-col18-cat1" fill="#337AB7" stroke="#DDD" width="70" height="30" x="0" y="0" rx="8" ry="8"/><text text-anchor="middle" fill="#FFF" x="35" y="20">-81</text></a><g transform="translate(0,30)"><g><a target="_top" xlink:href="mob-slice4-step2628000-ofs15-col18-cat0.html"><rect style="display:none" class="hcell-act-col18-cat0" fill="#5CB85C" stroke="#000" stroke-width="5" width="70" height="354" x="0" y="5" rx="8" ry="8"/><rect class="hcell-col18-cat0" fill="#5CB85C" stroke="#DDD" width="70" height="364" x="0" y="0" rx="8" ry="8"/><text text-anchor="middle" fill="#FFF" x="35" y="20">-2600</text></a></g></g></g></g></g><g><g transform="translate(325,5)"></g><rect fill="none" stroke="#DDD" width="70" height="30" rx="8" ry="8" x="325" y="15"/><text text-anchor="middle" fill="#333" x="360" y="35">14-01</text><g transform="translate(325,55)"><g><a target="_top" xlink:href="mob-slice4-step2628000-ofs15-col19-cat1.html"><rect style="display:none" class="hcell-act-col19-cat1" fill="#337AB7" stroke="#000" stroke-width="5" width="70" height="20" x="0" y="5" rx="8" ry="8"/><rect class="hcell-col19-cat1" fill="#337AB7" stroke="#DDD" width="70" height="30" x="0" y="0" rx="8" ry="8"/><text text-anchor="middle" fill="#FFF" x="35" y="20">-100</text></a><g transform="translate(0,30)"><g><a target="_top" xlink:href="mob-slice4-step2628000-ofs15-col19-cat0.html"><rect style="display:none" class="hcell-act-col19-cat0" fill="#5CB85C" stroke="#000" stroke-width="5" width="70" height="354" x="0" y="5" rx="8" ry="8"/><rect class="hcell-col19-cat0" fill="#5CB85C" stroke="#DDD" width="70" height="364" x="0" y="0" rx="8" ry="8"/><text text-anchor="middle" fill="#FFF" x="35" y="20">-2600</text></a></g></g></g></g></g></svg>