<svg xmlns="http://www.w3.org/2000/svg" xmlns:xlink="http://www.w3.org/1999/xlink" width="100%" height="100%" viewBox="0 0 400 459"><g><g transform="translate(5,135)"><g><a target="_top" xlink:href="mob-sliceTagInstyle-step17936641-ofs0-col0-cat0.html"><rect style="display:none" class="hcell-act-col0-cat0" fill="#777" stroke="#000" stroke-width="5" width="70" height="120" x="0" y="-125" rx="8" ry="8"/><rect class="hcell-col0-cat0" fill="#777" stroke="#DDD" width="70" height="130" x="0" y="-130" rx="8" ry="8"/><text text-anchor="middle" fill="#FFF" x="35" y="-110">156</text></a></g></g><rect fill="none" stroke="#DDD" width="70" height="30" rx="8" ry="8" x="5" y="145"/><text text-anchor="middle" fill="#333" x="40" y="165">12-07</text><g transform="translate(5,185)"><g><a target="_top" xlink:href="mob-sliceTagInstyle-step17936641-ofs0-col0-cat0.html"><rect style="display:none" class="hcell-act-col0-cat0" fill="#777" stroke="#000" stroke-width="5" width="70" height="20" x="0" y="5" rx="8" ry="8"/><rect class="hcell-col0-cat0" fill="#777" stroke="#DDD" width="70" height="30" x="0" y="0" rx="8" ry="8"/><text text-anchor="middle" fill="#FFF" x="35" y="20">-23</text></a></g></g></g><g><g transform="translate(85,135)"><g><a target="_top" xlink:href="mob-sliceTagInstyle-step17936641-ofs0-col1-cat0.html"><rect style="display:none" class="hcell-act-col1-cat0" fill="#777" stroke="#000" stroke-width="5" width="70" height="38" x="0" y="-43" rx="8" ry="8"/><rect class="hcell-col1-cat0" fill="#777" stroke="#DDD" width="70" height="48" x="0" y="-48" rx="8" ry="8"/><text text-anchor="middle" fill="#FFF" x="35" y="-28">58</text></a></g></g><rect fill="none" stroke="#DDD" width="70" height="30" rx="8" ry="8" x="85" y="145"/><text text-anchor="middle" fill="#333" x="120" y="165">13-01</text><g transform="translate(85,185)"><g><a target="_top" xlink:href="mob-sliceTagInstyle-step17936641-ofs0-col1-cat0.html"><rect style="display:none" class="hcell-act-col1-cat0" fill="#777" stroke="#000" stroke-width="5" width="70" height="191" x="0" y="5" rx="8" ry="8"/><rect class="hcell-col1-cat0" fill="#777" stroke="#DDD" width="70" height="201" x="0" y="0" rx="8" ry="8"/><text text-anchor="middle" fill="#FFF" x="35" y="20">-241</text></a></g></g></g><g><g transform="translate(165,135)"></g><rect fill="none" stroke="#DDD" width="70" height="30" rx="8" ry="8" x="165" y="145"/><text text-anchor="middle" fill="#333" x="200" y="165">13-08</text><g transform="translate(165,185)"></g></g><g><g transform="translate(245,135)"><g><a target="_top" xlink:href="mob-sliceTagInstyle-step17936641-ofs0-col3-cat0.html"><rect style="display:none" class="hcell-act-col3-cat0" fill="#777" stroke="#000" stroke-width="5" width="70" height="50" x="0" y="-55" rx="8" ry="8"/><rect class="hcell-col3-cat0" fill="#777" stroke="#DDD" width="70" height="60" x="0" y="-60" rx="8" ry="8"/><text text-anchor="middle" fill="#FFF" x="35" y="-40">71</text></a></g></g><rect fill="none" stroke="#DDD" width="70" height="30" rx="8" ry="8" x="245" y="145"/><text text-anchor="middle" fill="#333" x="280" y="165">14-03</text><g transform="translate(245,185)"><g><a target="_top" xlink:href="mob-sliceTagInstyle-step17936641-ofs0-col3-cat0.html"><rect style="display:none" class="hcell-act-col3-cat0" fill="#777" stroke="#000" stroke-width="5" width="70" height="259" x="0" y="5" rx="8" ry="8"/><rect class="hcell-col3-cat0" fill="#777" stroke="#DDD" width="70" height="269" x="0" y="0" rx="8" ry="8"/><text text-anchor="middle" fill="#FFF" x="35" y="20">-323</text></a></g></g></g><g><g transform="translate(325,135)"></g><rect fill="none" stroke="#DDD" width="70" height="30" rx="8" ry="8" x="325" y="145"/><text text-anchor="middle" fill="#333" x="360" y="165">14-10</text><g transform="translate(325,185)"></g></g></svg>