<svg xmlns="http://www.w3.org/2000/svg" xmlns:xlink="http://www.w3.org/1999/xlink" width="100%" height="100%" viewBox="0 0 400 495"><g><g transform="translate(5,179)"><g><a target="_top" xlink:href="mob-slice6-step2628000-ofs25-col25-cat2.html"><rect style="display:none" class="hcell-act-col25-cat2" fill="#D9534F" stroke="#000" stroke-width="5" width="70" height="20" x="0" y="-25" rx="8" ry="8"/><rect class="hcell-col25-cat2" fill="#D9534F" stroke="#DDD" width="70" height="30" x="0" y="-30" rx="8" ry="8"/><text text-anchor="middle" fill="#FFF" x="35" y="-10">402</text></a><g transform="translate(0,-30)"><g><a target="_top" xlink:href="mob-slice6-step2628000-ofs25-col25-cat0.html"><rect style="display:none" class="hcell-act-col25-cat0" fill="#5CB85C" stroke="#000" stroke-width="5" width="70" height="134" x="0" y="-139" rx="8" ry="8"/><rect class="hcell-col25-cat0" fill="#5CB85C" stroke="#DDD" width="70" height="144" x="0" y="-144" rx="8" ry="8"/><text text-anchor="middle" fill="#FFF" x="35" y="-124">3258</text></a></g></g></g></g><rect fill="none" stroke="#DDD" width="70" height="30" rx="8" ry="8" x="5" y="189"/><text text-anchor="middle" fill="#333" x="40" y="209">14-08</text><g transform="translate(5,229)"><g><a target="_top" xlink:href="mob-slice6-step2628000-ofs25-col25-cat1.html"><rect style="display:none" class="hcell-act-col25-cat1" fill="#337AB7" stroke="#000" stroke-width="5" width="70" height="20" x="0" y="5" rx="8" ry="8"/><rect class="hcell-col25-cat1" fill="#337AB7" stroke="#DDD" width="70" height="30" x="0" y="0" rx="8" ry="8"/><text text-anchor="middle" fill="#FFF" x="35" y="20">-161</text></a></g></g></g><g><g transform="translate(85,179)"><g><a target="_top" xlink:href="mob-slice6-step2628000-ofs25-col26-cat2.html"><rect style="display:none" class="hcell-act-col26-cat2" fill="#D9534F" stroke="#000" stroke-width="5" width="70" height="71" x="0" y="-76" rx="8" ry="8"/><rect class="hcell-col26-cat2" fill="#D9534F" stroke="#DDD" width="70" height="81" x="0" y="-81" rx="8" ry="8"/><text text-anchor="middle" fill="#FFF" x="35" y="-61">1838</text></a></g></g><rect fill="none" stroke="#DDD" width="70" height="30" rx="8" ry="8" x="85" y="189"/><text text-anchor="middle" fill="#333" x="120" y="209">14-08</text><g transform="translate(85,229)"><g><a target="_top" xlink:href="mob-slice6-step2628000-ofs25-col26-cat1.html"><rect style="display:none" class="hcell-act-col26-cat1" fill="#337AB7" stroke="#000" stroke-width="5" width="70" height="20" x="0" y="5" rx="8" ry="8"/><rect class="hcell-col26-cat1" fill="#337AB7" stroke="#DDD" width="70" height="30" x="0" y="0" rx="8" ry="8"/><text text-anchor="middle" fill="#FFF" x="35" y="20">-135</text></a><g transform="translate(0,30)"><g><a target="_top" xlink:href="mob-slice6-step2628000-ofs25-col26-cat0.html"><rect style="display:none" class="hcell-act-col26-cat0" fill="#5CB85C" stroke="#000" stroke-width="5" width="70" height="221" x="0" y="5" rx="8" ry="8"/><rect class="hcell-col26-cat0" fill="#5CB85C" stroke="#DDD" width="70" height="231" x="0" y="0" rx="8" ry="8"/><text text-anchor="middle" fill="#FFF" x="35" y="20">-5205</text></a></g></g></g></g></g><g><g transform="translate(165,179)"><g><a target="_top" xlink:href="mob-slice6-step2628000-ofs25-col27-cat0.html"><rect style="display:none" class="hcell-act-col27-cat0" fill="#5CB85C" stroke="#000" stroke-width="5" width="70" height="67" x="0" y="-72" rx="8" ry="8"/><rect class="hcell-col27-cat0" fill="#5CB85C" stroke="#DDD" width="70" height="77" x="0" y="-77" rx="8" ry="8"/><text text-anchor="middle" fill="#FFF" x="35" y="-57">1744</text></a></g></g><rect fill="none" stroke="#DDD" width="70" height="30" rx="8" ry="8" x="165" y="189"/><text text-anchor="middle" fill="#333" x="200" y="209">14-10</text><g transform="translate(165,229)"><g><a target="_top" xlink:href="mob-slice6-step2628000-ofs25-col27-cat1.html"><rect style="display:none" class="hcell-act-col27-cat1" fill="#337AB7" stroke="#000" stroke-width="5" width="70" height="20" x="0" y="5" rx="8" ry="8"/><rect class="hcell-col27-cat1" fill="#337AB7" stroke="#DDD" width="70" height="30" x="0" y="0" rx="8" ry="8"/><text text-anchor="middle" fill="#FFF" x="35" y="20">-38</text></a><g transform="translate(0,30)"><g><a target="_top" xlink:href="mob-slice6-step2628000-ofs25-col27-cat2.html"><rect style="display:none" class="hcell-act-col27-cat2" fill="#D9534F" stroke="#000" stroke-width="5" width="70" height="20" x="0" y="5" rx="8" ry="8"/><rect class="hcell-col27-cat2" fill="#D9534F" stroke="#DDD" width="70" height="30" x="0" y="0" rx="8" ry="8"/><text text-anchor="middle" fill="#FFF" x="35" y="20">-248</text></a></g></g></g></g></g><g><g transform="translate(245,179)"><g><a target="_top" xlink:href="mob-slice6-step2628000-ofs25-col28-cat2.html"><rect style="display:none" class="hcell-act-col28-cat2" fill="#D9534F" stroke="#000" stroke-width="5" width="70" height="20" x="0" y="-25" rx="8" ry="8"/><rect class="hcell-col28-cat2" fill="#D9534F" stroke="#DDD" width="70" height="30" x="0" y="-30" rx="8" ry="8"/><text text-anchor="middle" fill="#FFF" x="35" y="-10">638</text></a></g></g><rect fill="none" stroke="#DDD" width="70" height="30" rx="8" ry="8" x="245" y="189"/><text text-anchor="middle" fill="#333" x="280" y="209">14-10</text><g transform="translate(245,229)"><g><a target="_top" xlink:href="mob-slice6-step2628000-ofs25-col28-cat1.html"><rect style="display:none" class="hcell-act-col28-cat1" fill="#337AB7" stroke="#000" stroke-width="5" width="70" height="20" x="0" y="5" rx="8" ry="8"/><rect class="hcell-col28-cat1" fill="#337AB7" stroke="#DDD" width="70" height="30" x="0" y="0" rx="8" ry="8"/><text text-anchor="middle" fill="#FFF" x="35" y="20">-115</text></a><g transform="translate(0,30)"><g><a target="_top" xlink:href="mob-slice6-step2628000-ofs25-col28-cat0.html"><rect style="display:none" class="hcell-act-col28-cat0" fill="#5CB85C" stroke="#000" stroke-width="5" width="70" height="78" x="0" y="5" rx="8" ry="8"/><rect class="hcell-col28-cat0" fill="#5CB85C" stroke="#DDD" width="70" height="88" x="0" y="0" rx="8" ry="8"/><text text-anchor="middle" fill="#FFF" x="35" y="20">-1984</text></a></g></g></g></g></g><g><g transform="translate(325,179)"><g><a target="_top" xlink:href="mob-slice6-step2628000-ofs25-col29-cat0.html"><rect style="display:none" class="hcell-act-col29-cat0" fill="#5CB85C" stroke="#000" stroke-width="5" width="70" height="20" x="0" y="-25" rx="8" ry="8"/><rect class="hcell-col29-cat0" fill="#5CB85C" stroke="#DDD" width="70" height="30" x="0" y="-30" rx="8" ry="8"/><text text-anchor="middle" fill="#FFF" x="35" y="-10">270</text></a></g></g><rect fill="none" stroke="#DDD" width="70" height="30" rx="8" ry="8" x="325" y="189"/><text text-anchor="middle" fill="#333" x="360" y="209">14-12</text><g transform="translate(325,229)"><g><a target="_top" xlink:href="mob-slice6-step2628000-ofs25-col29-cat2.html"><rect style="display:none" class="hcell-act-col29-cat2" fill="#D9534F" stroke="#000" stroke-width="5" width="70" height="20" x="0" y="5" rx="8" ry="8"/><rect class="hcell-col29-cat2" fill="#D9534F" stroke="#DDD" width="70" height="30" x="0" y="0" rx="8" ry="8"/><text text-anchor="middle" fill="#FFF" x="35" y="20">-51</text></a><g transform="translate(0,30)"><g><a target="_top" xlink:href="mob-slice6-step2628000-ofs25-col29-cat1.html"><rect style="display:none" class="hcell-act-col29-cat1" fill="#337AB7" stroke="#000" stroke-width="5" width="70" height="20" x="0" y="5" rx="8" ry="8"/><rect class="hcell-col29-cat1" fill="#337AB7" stroke="#DDD" width="70" height="30" x="0" y="0" rx="8" ry="8"/><text text-anchor="middle" fill="#FFF" x="35" y="20">-220</text></a></g></g></g></g></g></svg>