<svg xmlns="http://www.w3.org/2000/svg" xmlns:xlink="http://www.w3.org/1999/xlink" width="100%" height="100%" viewBox="0 0 400 459"><g><g transform="translate(5,212)"><g><a target="_top" xlink:href="mob-sliceTagVisa4307-step2628000-ofs20-col20-cat0.html"><rect style="display:none" class="hcell-act-col20-cat0" fill="#777" stroke="#000" stroke-width="5" width="70" height="197" x="0" y="-202" rx="8" ry="8"/><rect class="hcell-col20-cat0" fill="#777" stroke="#DDD" width="70" height="207" x="0" y="-207" rx="8" ry="8"/><text text-anchor="middle" fill="#FFF" x="35" y="-187">3626</text></a></g></g><rect fill="none" stroke="#DDD" width="70" height="30" rx="8" ry="8" x="5" y="222"/><text text-anchor="middle" fill="#333" x="40" y="242">14-03</text><g transform="translate(5,262)"><g><a target="_top" xlink:href="mob-sliceTagVisa4307-step2628000-ofs20-col20-cat0.html"><rect style="display:none" class="hcell-act-col20-cat0" fill="#777" stroke="#000" stroke-width="5" width="70" height="179" x="0" y="5" rx="8" ry="8"/><rect class="hcell-col20-cat0" fill="#777" stroke="#DDD" width="70" height="189" x="0" y="0" rx="8" ry="8"/><text text-anchor="middle" fill="#FFF" x="35" y="20">-3304</text></a></g></g></g><g><g transform="translate(85,212)"><g><a target="_top" xlink:href="mob-sliceTagVisa4307-step2628000-ofs20-col21-cat0.html"><rect style="display:none" class="hcell-act-col21-cat0" fill="#777" stroke="#000" stroke-width="5" width="70" height="138" x="0" y="-143" rx="8" ry="8"/><rect class="hcell-col21-cat0" fill="#777" stroke="#DDD" width="70" height="148" x="0" y="-148" rx="8" ry="8"/><text text-anchor="middle" fill="#FFF" x="35" y="-128">2600</text></a></g></g><rect fill="none" stroke="#DDD" width="70" height="30" rx="8" ry="8" x="85" y="222"/><text text-anchor="middle" fill="#333" x="120" y="242">14-04</text><g transform="translate(85,262)"><g><a target="_top" xlink:href="mob-sliceTagVisa4307-step2628000-ofs20-col21-cat0.html"><rect style="display:none" class="hcell-act-col21-cat0" fill="#777" stroke="#000" stroke-width="5" width="70" height="182" x="0" y="5" rx="8" ry="8"/><rect class="hcell-col21-cat0" fill="#777" stroke="#DDD" width="70" height="192" x="0" y="0" rx="8" ry="8"/><text text-anchor="middle" fill="#FFF" x="35" y="20">-3360</text></a></g></g></g><g><g transform="translate(165,212)"><g><a target="_top" xlink:href="mob-sliceTagVisa4307-step2628000-ofs20-col22-cat0.html"><rect style="display:none" class="hcell-act-col22-cat0" fill="#777" stroke="#000" stroke-width="5" width="70" height="145" x="0" y="-150" rx="8" ry="8"/><rect class="hcell-col22-cat0" fill="#777" stroke="#DDD" width="70" height="155" x="0" y="-155" rx="8" ry="8"/><text text-anchor="middle" fill="#FFF" x="35" y="-135">2719</text></a></g></g><rect fill="none" stroke="#DDD" width="70" height="30" rx="8" ry="8" x="165" y="222"/><text text-anchor="middle" fill="#333" x="200" y="242">14-05</text><g transform="translate(165,262)"><g><a target="_top" xlink:href="mob-sliceTagVisa4307-step2628000-ofs20-col22-cat0.html"><rect style="display:none" class="hcell-act-col22-cat0" fill="#777" stroke="#000" stroke-width="5" width="70" height="82" x="0" y="5" rx="8" ry="8"/><rect class="hcell-col22-cat0" fill="#777" stroke="#DDD" width="70" height="92" x="0" y="0" rx="8" ry="8"/><text text-anchor="middle" fill="#FFF" x="35" y="20">-1622</text></a></g></g></g><g><g transform="translate(245,212)"><g><a target="_top" xlink:href="mob-sliceTagVisa4307-step2628000-ofs20-col23-cat0.html"><rect style="display:none" class="hcell-act-col23-cat0" fill="#777" stroke="#000" stroke-width="5" width="70" height="138" x="0" y="-143" rx="8" ry="8"/><rect class="hcell-col23-cat0" fill="#777" stroke="#DDD" width="70" height="148" x="0" y="-148" rx="8" ry="8"/><text text-anchor="middle" fill="#FFF" x="35" y="-128">2600</text></a></g></g><rect fill="none" stroke="#DDD" width="70" height="30" rx="8" ry="8" x="245" y="222"/><text text-anchor="middle" fill="#333" x="280" y="242">14-06</text><g transform="translate(245,262)"><g><a target="_top" xlink:href="mob-sliceTagVisa4307-step2628000-ofs20-col23-cat0.html"><rect style="display:none" class="hcell-act-col23-cat0" fill="#777" stroke="#000" stroke-width="5" width="70" height="136" x="0" y="5" rx="8" ry="8"/><rect class="hcell-col23-cat0" fill="#777" stroke="#DDD" width="70" height="146" x="0" y="0" rx="8" ry="8"/><text text-anchor="middle" fill="#FFF" x="35" y="20">-2563</text></a></g></g></g><g><g transform="translate(325,212)"><g><a target="_top" xlink:href="mob-sliceTagVisa4307-step2628000-ofs20-col24-cat0.html"><rect style="display:none" class="hcell-act-col24-cat0" fill="#777" stroke="#000" stroke-width="5" width="70" height="138" x="0" y="-143" rx="8" ry="8"/><rect class="hcell-col24-cat0" fill="#777" stroke="#DDD" width="70" height="148" x="0" y="-148" rx="8" ry="8"/><text text-anchor="middle" fill="#FFF" x="35" y="-128">2600</text></a></g></g><rect fill="none" stroke="#DDD" width="70" height="30" rx="8" ry="8" x="325" y="222"/><text text-anchor="middle" fill="#333" x="360" y="242">14-07</text><g transform="translate(325,262)"><g><a target="_top" xlink:href="mob-sliceTagVisa4307-step2628000-ofs20-col24-cat0.html"><rect style="display:none" class="hcell-act-col24-cat0" fill="#777" stroke="#000" stroke-width="5" width="70" height="80" x="0" y="5" rx="8" ry="8"/><rect class="hcell-col24-cat0" fill="#777" stroke="#DDD" width="70" height="90" x="0" y="0" rx="8" ry="8"/><text text-anchor="middle" fill="#FFF" x="35" y="20">-1576</text></a></g></g></g></svg>