<svg xmlns="http://www.w3.org/2000/svg" xmlns:xlink="http://www.w3.org/1999/xlink" width="100%" height="100%" viewBox="0 0 400 476"><g><g transform="translate(5,210)"><g><a target="_top" xlink:href="mob-slice6-step2628000-ofs20-col20-cat2.html"><rect style="display:none" class="hcell-act-col20-cat2" fill="#D9534F" stroke="#000" stroke-width="5" width="70" height="48" x="0" y="-53" rx="8" ry="8"/><rect class="hcell-col20-cat2" fill="#D9534F" stroke="#DDD" width="70" height="58" x="0" y="-58" rx="8" ry="8"/><text text-anchor="middle" fill="#FFF" x="35" y="-38">2815</text></a><g transform="translate(0,-58)"><g><a target="_top" xlink:href="mob-slice6-step2628000-ofs20-col20-cat0.html"><rect style="display:none" class="hcell-act-col20-cat0" fill="#5CB85C" stroke="#000" stroke-width="5" width="70" height="136" x="0" y="-141" rx="8" ry="8"/><rect class="hcell-col20-cat0" fill="#5CB85C" stroke="#DDD" width="70" height="146" x="0" y="-146" rx="8" ry="8"/><text text-anchor="middle" fill="#FFF" x="35" y="-126">7040</text></a></g></g></g></g><rect fill="none" stroke="#DDD" width="70" height="30" rx="8" ry="8" x="5" y="220"/><text text-anchor="middle" fill="#333" x="40" y="240">14-03</text><g transform="translate(5,260)"><g><a target="_top" xlink:href="mob-slice6-step2628000-ofs20-col20-cat2.html"><rect style="display:none" class="hcell-act-col20-cat2" fill="#D9534F" stroke="#000" stroke-width="5" width="70" height="20" x="0" y="5" rx="8" ry="8"/><rect class="hcell-col20-cat2" fill="#D9534F" stroke="#DDD" width="70" height="30" x="0" y="0" rx="8" ry="8"/><text text-anchor="middle" fill="#FFF" x="35" y="20">-27</text></a><g transform="translate(0,30)"><g><a target="_top" xlink:href="mob-slice6-step2628000-ofs20-col20-cat1.html"><rect style="display:none" class="hcell-act-col20-cat1" fill="#337AB7" stroke="#000" stroke-width="5" width="70" height="46" x="0" y="5" rx="8" ry="8"/><rect class="hcell-col20-cat1" fill="#337AB7" stroke="#DDD" width="70" height="56" x="0" y="0" rx="8" ry="8"/><text text-anchor="middle" fill="#FFF" x="35" y="20">-2730</text></a><g transform="translate(0,56)"><g><a target="_top" xlink:href="mob-slice6-step2628000-ofs20-col20-cat0.html"><rect style="display:none" class="hcell-act-col20-cat0" fill="#5CB85C" stroke="#000" stroke-width="5" width="70" height="115" x="0" y="5" rx="8" ry="8"/><rect class="hcell-col20-cat0" fill="#5CB85C" stroke="#DDD" width="70" height="125" x="0" y="0" rx="8" ry="8"/><text text-anchor="middle" fill="#FFF" x="35" y="20">-6060</text></a></g></g></g></g></g></g></g><g><g transform="translate(85,210)"><g><a target="_top" xlink:href="mob-slice6-step2628000-ofs20-col21-cat0.html"><rect style="display:none" class="hcell-act-col21-cat0" fill="#5CB85C" stroke="#000" stroke-width="5" width="70" height="64" x="0" y="-69" rx="8" ry="8"/><rect class="hcell-col21-cat0" fill="#5CB85C" stroke="#DDD" width="70" height="74" x="0" y="-74" rx="8" ry="8"/><text text-anchor="middle" fill="#FFF" x="35" y="-54">3589</text></a><g transform="translate(0,-74)"><g><a target="_top" xlink:href="mob-slice6-step2628000-ofs20-col21-cat2.html"><rect style="display:none" class="hcell-act-col21-cat2" fill="#D9534F" stroke="#000" stroke-width="5" width="70" height="78" x="0" y="-83" rx="8" ry="8"/><rect class="hcell-col21-cat2" fill="#D9534F" stroke="#DDD" width="70" height="88" x="0" y="-88" rx="8" ry="8"/><text text-anchor="middle" fill="#FFF" x="35" y="-68">4263</text></a></g></g></g></g><rect fill="none" stroke="#DDD" width="70" height="30" rx="8" ry="8" x="85" y="220"/><text text-anchor="middle" fill="#333" x="120" y="240">14-04</text><g transform="translate(85,260)"><g><a target="_top" xlink:href="mob-slice6-step2628000-ofs20-col21-cat1.html"><rect style="display:none" class="hcell-act-col21-cat1" fill="#337AB7" stroke="#000" stroke-width="5" width="70" height="46" x="0" y="5" rx="8" ry="8"/><rect class="hcell-col21-cat1" fill="#337AB7" stroke="#DDD" width="70" height="56" x="0" y="0" rx="8" ry="8"/><text text-anchor="middle" fill="#FFF" x="35" y="20">-2713</text></a><g transform="translate(0,56)"><g><a target="_top" xlink:href="mob-slice6-step2628000-ofs20-col21-cat0.html"><rect style="display:none" class="hcell-act-col21-cat0" fill="#5CB85C" stroke="#000" stroke-width="5" width="70" height="127" x="0" y="5" rx="8" ry="8"/><rect class="hcell-col21-cat0" fill="#5CB85C" stroke="#DDD" width="70" height="137" x="0" y="0" rx="8" ry="8"/><text text-anchor="middle" fill="#FFF" x="35" y="20">-6640</text></a></g></g></g></g></g><g><g transform="translate(165,210)"><g><a target="_top" xlink:href="mob-slice6-step2628000-ofs20-col22-cat2.html"><rect style="display:none" class="hcell-act-col22-cat2" fill="#D9534F" stroke="#000" stroke-width="5" width="70" height="87" x="0" y="-92" rx="8" ry="8"/><rect class="hcell-col22-cat2" fill="#D9534F" stroke="#DDD" width="70" height="97" x="0" y="-97" rx="8" ry="8"/><text text-anchor="middle" fill="#FFF" x="35" y="-77">4683</text></a><g transform="translate(0,-97)"><g><a target="_top" xlink:href="mob-slice6-step2628000-ofs20-col22-cat0.html"><rect style="display:none" class="hcell-act-col22-cat0" fill="#5CB85C" stroke="#000" stroke-width="5" width="70" height="98" x="0" y="-103" rx="8" ry="8"/><rect class="hcell-col22-cat0" fill="#5CB85C" stroke="#DDD" width="70" height="108" x="0" y="-108" rx="8" ry="8"/><text text-anchor="middle" fill="#FFF" x="35" y="-88">5242</text></a></g></g></g></g><rect fill="none" stroke="#DDD" width="70" height="30" rx="8" ry="8" x="165" y="220"/><text text-anchor="middle" fill="#333" x="200" y="240">14-05</text><g transform="translate(165,260)"><g><a target="_top" xlink:href="mob-slice6-step2628000-ofs20-col22-cat2.html"><rect style="display:none" class="hcell-act-col22-cat2" fill="#D9534F" stroke="#000" stroke-width="5" width="70" height="20" x="0" y="5" rx="8" ry="8"/><rect class="hcell-col22-cat2" fill="#D9534F" stroke="#DDD" width="70" height="30" x="0" y="0" rx="8" ry="8"/><text text-anchor="middle" fill="#FFF" x="35" y="20">-120</text></a><g transform="translate(0,30)"><g><a target="_top" xlink:href="mob-slice6-step2628000-ofs20-col22-cat1.html"><rect style="display:none" class="hcell-act-col22-cat1" fill="#337AB7" stroke="#000" stroke-width="5" width="70" height="46" x="0" y="5" rx="8" ry="8"/><rect class="hcell-col22-cat1" fill="#337AB7" stroke="#DDD" width="70" height="56" x="0" y="0" rx="8" ry="8"/><text text-anchor="middle" fill="#FFF" x="35" y="20">-2729</text></a><g transform="translate(0,56)"><g><a target="_top" xlink:href="mob-slice6-step2628000-ofs20-col22-cat0.html"><rect style="display:none" class="hcell-act-col22-cat0" fill="#5CB85C" stroke="#000" stroke-width="5" width="70" height="86" x="0" y="5" rx="8" ry="8"/><rect class="hcell-col22-cat0" fill="#5CB85C" stroke="#DDD" width="70" height="96" x="0" y="0" rx="8" ry="8"/><text text-anchor="middle" fill="#FFF" x="35" y="20">-4639</text></a></g></g></g></g></g></g></g><g><g transform="translate(245,210)"><g><a target="_top" xlink:href="mob-slice6-step2628000-ofs20-col23-cat2.html"><rect style="display:none" class="hcell-act-col23-cat2" fill="#D9534F" stroke="#000" stroke-width="5" width="70" height="62" x="0" y="-67" rx="8" ry="8"/><rect class="hcell-col23-cat2" fill="#D9534F" stroke="#DDD" width="70" height="72" x="0" y="-72" rx="8" ry="8"/><text text-anchor="middle" fill="#FFF" x="35" y="-52">3484</text></a><g transform="translate(0,-72)"><g><a target="_top" xlink:href="mob-slice6-step2628000-ofs20-col23-cat0.html"><rect style="display:none" class="hcell-act-col23-cat0" fill="#5CB85C" stroke="#000" stroke-width="5" width="70" height="91" x="0" y="-96" rx="8" ry="8"/><rect class="hcell-col23-cat0" fill="#5CB85C" stroke="#DDD" width="70" height="101" x="0" y="-101" rx="8" ry="8"/><text text-anchor="middle" fill="#FFF" x="35" y="-81">4902</text></a></g></g></g></g><rect fill="none" stroke="#DDD" width="70" height="30" rx="8" ry="8" x="245" y="220"/><text text-anchor="middle" fill="#333" x="280" y="240">14-06</text><g transform="translate(245,260)"><g><a target="_top" xlink:href="mob-slice6-step2628000-ofs20-col23-cat1.html"><rect style="display:none" class="hcell-act-col23-cat1" fill="#337AB7" stroke="#000" stroke-width="5" width="70" height="45" x="0" y="5" rx="8" ry="8"/><rect class="hcell-col23-cat1" fill="#337AB7" stroke="#DDD" width="70" height="55" x="0" y="0" rx="8" ry="8"/><text text-anchor="middle" fill="#FFF" x="35" y="20">-2668</text></a><g transform="translate(0,55)"><g><a target="_top" xlink:href="mob-slice6-step2628000-ofs20-col23-cat0.html"><rect style="display:none" class="hcell-act-col23-cat0" fill="#5CB85C" stroke="#000" stroke-width="5" width="70" height="107" x="0" y="5" rx="8" ry="8"/><rect class="hcell-col23-cat0" fill="#5CB85C" stroke="#DDD" width="70" height="117" x="0" y="0" rx="8" ry="8"/><text text-anchor="middle" fill="#FFF" x="35" y="20">-5640</text></a></g></g></g></g></g><g><g transform="translate(325,210)"><g><a target="_top" xlink:href="mob-slice6-step2628000-ofs20-col24-cat0.html"><rect style="display:none" class="hcell-act-col24-cat0" fill="#5CB85C" stroke="#000" stroke-width="5" width="70" height="45" x="0" y="-50" rx="8" ry="8"/><rect class="hcell-col24-cat0" fill="#5CB85C" stroke="#DDD" width="70" height="55" x="0" y="-55" rx="8" ry="8"/><text text-anchor="middle" fill="#FFF" x="35" y="-35">2686</text></a><g transform="translate(0,-55)"><g><a target="_top" xlink:href="mob-slice6-step2628000-ofs20-col24-cat2.html"><rect style="display:none" class="hcell-act-col24-cat2" fill="#D9534F" stroke="#000" stroke-width="5" width="70" height="50" x="0" y="-55" rx="8" ry="8"/><rect class="hcell-col24-cat2" fill="#D9534F" stroke="#DDD" width="70" height="60" x="0" y="-60" rx="8" ry="8"/><text text-anchor="middle" fill="#FFF" x="35" y="-40">2896</text></a></g></g></g></g><rect fill="none" stroke="#DDD" width="70" height="30" rx="8" ry="8" x="325" y="220"/><text text-anchor="middle" fill="#333" x="360" y="240">14-07</text><g transform="translate(325,260)"><g><a target="_top" xlink:href="mob-slice6-step2628000-ofs20-col24-cat2.html"><rect style="display:none" class="hcell-act-col24-cat2" fill="#D9534F" stroke="#000" stroke-width="5" width="70" height="20" x="0" y="5" rx="8" ry="8"/><rect class="hcell-col24-cat2" fill="#D9534F" stroke="#DDD" width="70" height="30" x="0" y="0" rx="8" ry="8"/><text text-anchor="middle" fill="#FFF" x="35" y="20">-13</text></a><g transform="translate(0,30)"><g><a target="_top" xlink:href="mob-slice6-step2628000-ofs20-col24-cat1.html"><rect style="display:none" class="hcell-act-col24-cat1" fill="#337AB7" stroke="#000" stroke-width="5" width="70" height="46" x="0" y="5" rx="8" ry="8"/><rect class="hcell-col24-cat1" fill="#337AB7" stroke="#DDD" width="70" height="56" x="0" y="0" rx="8" ry="8"/><text text-anchor="middle" fill="#FFF" x="35" y="20">-2744</text></a><g transform="translate(0,56)"><g><a target="_top" xlink:href="mob-slice6-step2628000-ofs20-col24-cat0.html"><rect style="display:none" class="hcell-act-col24-cat0" fill="#5CB85C" stroke="#000" stroke-width="5" width="70" height="69" x="0" y="5" rx="8" ry="8"/><rect class="hcell-col24-cat0" fill="#5CB85C" stroke="#DDD" width="70" height="79" x="0" y="0" rx="8" ry="8"/><text text-anchor="middle" fill="#FFF" x="35" y="20">-3847</text></a></g></g></g></g></g></g></g></svg>