<svg xmlns="http://www.w3.org/2000/svg" xmlns:xlink="http://www.w3.org/1999/xlink" width="100%" height="100%" viewBox="0 0 400 459"><g><g transform="translate(5,192)"></g><rect fill="none" stroke="#DDD" width="70" height="30" rx="8" ry="8" x="5" y="202"/><text text-anchor="middle" fill="#333" x="40" y="222">12-07</text><g transform="translate(5,242)"></g></g><g><g transform="translate(85,192)"></g><rect fill="none" stroke="#DDD" width="70" height="30" rx="8" ry="8" x="85" y="202"/><text text-anchor="middle" fill="#333" x="120" y="222">13-01</text><g transform="translate(85,242)"></g></g><g><g transform="translate(165,192)"><g><a target="_top" xlink:href="mob-sliceTagMaster8385-step17936641-ofs0-col2-cat0.html"><rect style="display:none" class="hcell-act-col2-cat0" fill="#777" stroke="#000" stroke-width="5" width="70" height="177" x="0" y="-182" rx="8" ry="8"/><rect class="hcell-col2-cat0" fill="#777" stroke="#DDD" width="70" height="187" x="0" y="-187" rx="8" ry="8"/><text text-anchor="middle" fill="#FFF" x="35" y="-167">3965</text></a></g></g><rect fill="none" stroke="#DDD" width="70" height="30" rx="8" ry="8" x="165" y="202"/><text text-anchor="middle" fill="#333" x="200" y="222">13-08</text><g transform="translate(165,242)"><g><a target="_top" xlink:href="mob-sliceTagMaster8385-step17936641-ofs0-col2-cat0.html"><rect style="display:none" class="hcell-act-col2-cat0" fill="#777" stroke="#000" stroke-width="5" width="70" height="41" x="0" y="5" rx="8" ry="8"/><rect class="hcell-col2-cat0" fill="#777" stroke="#DDD" width="70" height="51" x="0" y="0" rx="8" ry="8"/><text text-anchor="middle" fill="#FFF" x="35" y="20">-1088</text></a></g></g></g><g><g transform="translate(245,192)"><g><a target="_top" xlink:href="mob-sliceTagMaster8385-step17936641-ofs0-col3-cat0.html"><rect style="display:none" class="hcell-act-col3-cat0" fill="#777" stroke="#000" stroke-width="5" width="70" height="54" x="0" y="-59" rx="8" ry="8"/><rect class="hcell-col3-cat0" fill="#777" stroke="#DDD" width="70" height="64" x="0" y="-64" rx="8" ry="8"/><text text-anchor="middle" fill="#FFF" x="35" y="-44">1364</text></a></g></g><rect fill="none" stroke="#DDD" width="70" height="30" rx="8" ry="8" x="245" y="202"/><text text-anchor="middle" fill="#333" x="280" y="222">14-03</text><g transform="translate(245,242)"><g><a target="_top" xlink:href="mob-sliceTagMaster8385-step17936641-ofs0-col3-cat0.html"><rect style="display:none" class="hcell-act-col3-cat0" fill="#777" stroke="#000" stroke-width="5" width="70" height="202" x="0" y="5" rx="8" ry="8"/><rect class="hcell-col3-cat0" fill="#777" stroke="#DDD" width="70" height="212" x="0" y="0" rx="8" ry="8"/><text text-anchor="middle" fill="#FFF" x="35" y="20">-4493</text></a></g></g></g><g><g transform="translate(325,192)"></g><rect fill="none" stroke="#DDD" width="70" height="30" rx="8" ry="8" x="325" y="202"/><text text-anchor="middle" fill="#333" x="360" y="222">14-10</text><g transform="translate(325,242)"></g></g></svg>