<svg xmlns="http://www.w3.org/2000/svg" xmlns:xlink="http://www.w3.org/1999/xlink" width="100%" height="100%" viewBox="0 0 400 470"><g><g transform="translate(5,415)"><g><a target="_top" xlink:href="mob-slice1-step17936641-ofs0-col0-cat4.html"><rect style="display:none" class="hcell-act-col0-cat4" fill="#D9534F" stroke="#000" stroke-width="5" width="70" height="20" x="0" y="-25" rx="8" ry="8"/><rect class="hcell-col0-cat4" fill="#D9534F" stroke="#DDD" width="70" height="30" x="0" y="-30" rx="8" ry="8"/><text text-anchor="middle" fill="#FFF" x="35" y="-10">89</text></a><g transform="translate(0,-30)"><g><a target="_top" xlink:href="mob-slice1-step17936641-ofs0-col0-cat1.html"><rect style="display:none" class="hcell-act-col0-cat1" fill="#5BC0DE" stroke="#000" stroke-width="5" width="70" height="29" x="0" y="-34" rx="8" ry="8"/><rect class="hcell-col0-cat1" fill="#5BC0DE" stroke="#DDD" width="70" height="39" x="0" y="-39" rx="8" ry="8"/><text text-anchor="middle" fill="#FFF" x="35" y="-19">121</text></a><g transform="translate(0,-39)"><g><a target="_top" xlink:href="mob-slice1-step17936641-ofs0-col0-cat2.html"><rect style="display:none" class="hcell-act-col0-cat2" fill="#337AB7" stroke="#000" stroke-width="5" width="70" height="30" x="0" y="-35" rx="8" ry="8"/><rect class="hcell-col0-cat2" fill="#337AB7" stroke="#DDD" width="70" height="40" x="0" y="-40" rx="8" ry="8"/><text text-anchor="middle" fill="#FFF" x="35" y="-20">124</text></a><g transform="translate(0,-40)"><g><a target="_top" xlink:href="mob-slice1-step17936641-ofs0-col0-cat0.html"><rect style="display:none" class="hcell-act-col0-cat0" fill="#5CB85C" stroke="#000" stroke-width="5" width="70" height="44" x="0" y="-49" rx="8" ry="8"/><rect class="hcell-col0-cat0" fill="#5CB85C" stroke="#DDD" width="70" height="54" x="0" y="-54" rx="8" ry="8"/><text text-anchor="middle" fill="#FFF" x="35" y="-34">169</text></a></g></g></g></g></g></g></g></g><rect fill="none" stroke="#DDD" width="70" height="30" rx="8" ry="8" x="5" y="425"/><text text-anchor="middle" fill="#333" x="40" y="445">12-07</text><g transform="translate(5,465)"></g></g><g><g transform="translate(85,415)"><g><a target="_top" xlink:href="mob-slice1-step17936641-ofs0-col1-cat4.html"><rect style="display:none" class="hcell-act-col1-cat4" fill="#D9534F" stroke="#000" stroke-width="5" width="70" height="35" x="0" y="-40" rx="8" ry="8"/><rect class="hcell-col1-cat4" fill="#D9534F" stroke="#DDD" width="70" height="45" x="0" y="-45" rx="8" ry="8"/><text text-anchor="middle" fill="#FFF" x="35" y="-25">141</text></a><g transform="translate(0,-45)"><g><a target="_top" xlink:href="mob-slice1-step17936641-ofs0-col1-cat1.html"><rect style="display:none" class="hcell-act-col1-cat1" fill="#5BC0DE" stroke="#000" stroke-width="5" width="70" height="39" x="0" y="-44" rx="8" ry="8"/><rect class="hcell-col1-cat1" fill="#5BC0DE" stroke="#DDD" width="70" height="49" x="0" y="-49" rx="8" ry="8"/><text text-anchor="middle" fill="#FFF" x="35" y="-29">152</text></a><g transform="translate(0,-49)"><g><a target="_top" xlink:href="mob-slice1-step17936641-ofs0-col1-cat2.html"><rect style="display:none" class="hcell-act-col1-cat2" fill="#337AB7" stroke="#000" stroke-width="5" width="70" height="52" x="0" y="-57" rx="8" ry="8"/><rect class="hcell-col1-cat2" fill="#337AB7" stroke="#DDD" width="70" height="62" x="0" y="-62" rx="8" ry="8"/><text text-anchor="middle" fill="#FFF" x="35" y="-42">193</text></a><g transform="translate(0,-62)"><g><a target="_top" xlink:href="mob-slice1-step17936641-ofs0-col1-cat0.html"><rect style="display:none" class="hcell-act-col1-cat0" fill="#5CB85C" stroke="#000" stroke-width="5" width="70" height="67" x="0" y="-72" rx="8" ry="8"/><rect class="hcell-col1-cat0" fill="#5CB85C" stroke="#DDD" width="70" height="77" x="0" y="-77" rx="8" ry="8"/><text text-anchor="middle" fill="#FFF" x="35" y="-57">239</text></a></g></g></g></g></g></g></g></g><rect fill="none" stroke="#DDD" width="70" height="30" rx="8" ry="8" x="85" y="425"/><text text-anchor="middle" fill="#333" x="120" y="445">13-01</text><g transform="translate(85,465)"></g></g><g><g transform="translate(165,415)"><g><a target="_top" xlink:href="mob-slice1-step17936641-ofs0-col2-cat4.html"><rect style="display:none" class="hcell-act-col2-cat4" fill="#D9534F" stroke="#000" stroke-width="5" width="70" height="20" x="0" y="-25" rx="8" ry="8"/><rect class="hcell-col2-cat4" fill="#D9534F" stroke="#DDD" width="70" height="30" x="0" y="-30" rx="8" ry="8"/><text text-anchor="middle" fill="#FFF" x="35" y="-10">67</text></a><g transform="translate(0,-30)"><g><a target="_top" xlink:href="mob-slice1-step17936641-ofs0-col2-cat0.html"><rect style="display:none" class="hcell-act-col2-cat0" fill="#5CB85C" stroke="#000" stroke-width="5" width="70" height="33" x="0" y="-38" rx="8" ry="8"/><rect class="hcell-col2-cat0" fill="#5CB85C" stroke="#DDD" width="70" height="43" x="0" y="-43" rx="8" ry="8"/><text text-anchor="middle" fill="#FFF" x="35" y="-23">133</text></a><g transform="translate(0,-43)"><g><a target="_top" xlink:href="mob-slice1-step17936641-ofs0-col2-cat2.html"><rect style="display:none" class="hcell-act-col2-cat2" fill="#337AB7" stroke="#000" stroke-width="5" width="70" height="42" x="0" y="-47" rx="8" ry="8"/><rect class="hcell-col2-cat2" fill="#337AB7" stroke="#DDD" width="70" height="52" x="0" y="-52" rx="8" ry="8"/><text text-anchor="middle" fill="#FFF" x="35" y="-32">162</text></a><g transform="translate(0,-52)"><g><a target="_top" xlink:href="mob-slice1-step17936641-ofs0-col2-cat1.html"><rect style="display:none" class="hcell-act-col2-cat1" fill="#5BC0DE" stroke="#000" stroke-width="5" width="70" height="49" x="0" y="-54" rx="8" ry="8"/><rect class="hcell-col2-cat1" fill="#5BC0DE" stroke="#DDD" width="70" height="59" x="0" y="-59" rx="8" ry="8"/><text text-anchor="middle" fill="#FFF" x="35" y="-39">184</text></a></g></g></g></g></g></g></g></g><rect fill="none" stroke="#DDD" width="70" height="30" rx="8" ry="8" x="165" y="425"/><text text-anchor="middle" fill="#333" x="200" y="445">13-08</text><g transform="translate(165,465)"></g></g><g><g transform="translate(245,415)"><g><a target="_top" xlink:href="mob-slice1-step17936641-ofs0-col3-cat4.html"><rect style="display:none" class="hcell-act-col3-cat4" fill="#D9534F" stroke="#000" stroke-width="5" width="70" height="20" x="0" y="-25" rx="8" ry="8"/><rect class="hcell-col3-cat4" fill="#D9534F" stroke="#DDD" width="70" height="30" x="0" y="-30" rx="8" ry="8"/><text text-anchor="middle" fill="#FFF" x="35" y="-10">55</text></a><g transform="translate(0,-30)"><g><a target="_top" xlink:href="mob-slice1-step17936641-ofs0-col3-cat3.html"><rect style="display:none" class="hcell-act-col3-cat3" fill="#F0AD4E" stroke="#000" stroke-width="5" width="70" height="34" x="0" y="-39" rx="8" ry="8"/><rect class="hcell-col3-cat3" fill="#F0AD4E" stroke="#DDD" width="70" height="44" x="0" y="-44" rx="8" ry="8"/><text text-anchor="middle" fill="#FFF" x="35" y="-24">136</text></a><g transform="translate(0,-44)"><g><a target="_top" xlink:href="mob-slice1-step17936641-ofs0-col3-cat1.html"><rect style="display:none" class="hcell-act-col3-cat1" fill="#5BC0DE" stroke="#000" stroke-width="5" width="70" height="58" x="0" y="-63" rx="8" ry="8"/><rect class="hcell-col3-cat1" fill="#5BC0DE" stroke="#DDD" width="70" height="68" x="0" y="-68" rx="8" ry="8"/><text text-anchor="middle" fill="#FFF" x="35" y="-48">212</text></a><g transform="translate(0,-68)"><g><a target="_top" xlink:href="mob-slice1-step17936641-ofs0-col3-cat2.html"><rect style="display:none" class="hcell-act-col3-cat2" fill="#337AB7" stroke="#000" stroke-width="5" width="70" height="64" x="0" y="-69" rx="8" ry="8"/><rect class="hcell-col3-cat2" fill="#337AB7" stroke="#DDD" width="70" height="74" x="0" y="-74" rx="8" ry="8"/><text text-anchor="middle" fill="#FFF" x="35" y="-54">229</text></a><g transform="translate(0,-74)"><g><a target="_top" xlink:href="mob-slice1-step17936641-ofs0-col3-cat0.html"><rect style="display:none" class="hcell-act-col3-cat0" fill="#5CB85C" stroke="#000" stroke-width="5" width="70" height="184" x="0" y="-189" rx="8" ry="8"/><rect class="hcell-col3-cat0" fill="#5CB85C" stroke="#DDD" width="70" height="194" x="0" y="-194" rx="8" ry="8"/><text text-anchor="middle" fill="#FFF" x="35" y="-174">598</text></a></g></g></g></g></g></g></g></g></g></g><rect fill="none" stroke="#DDD" width="70" height="30" rx="8" ry="8" x="245" y="425"/><text text-anchor="middle" fill="#333" x="280" y="445">14-03</text><g transform="translate(245,465)"></g></g><g><g transform="translate(325,415)"><g><a target="_top" xlink:href="mob-slice1-step17936641-ofs0-col4-cat2.html"><rect style="display:none" class="hcell-act-col4-cat2" fill="#337AB7" stroke="#000" stroke-width="5" width="70" height="23" x="0" y="-28" rx="8" ry="8"/><rect class="hcell-col4-cat2" fill="#337AB7" stroke="#DDD" width="70" height="33" x="0" y="-33" rx="8" ry="8"/><text text-anchor="middle" fill="#FFF" x="35" y="-13">103</text></a><g transform="translate(0,-33)"><g><a target="_top" xlink:href="mob-slice1-step17936641-ofs0-col4-cat4.html"><rect style="display:none" class="hcell-act-col4-cat4" fill="#D9534F" stroke="#000" stroke-width="5" width="70" height="36" x="0" y="-41" rx="8" ry="8"/><rect class="hcell-col4-cat4" fill="#D9534F" stroke="#DDD" width="70" height="46" x="0" y="-46" rx="8" ry="8"/><text text-anchor="middle" fill="#FFF" x="35" y="-26">143</text></a><g transform="translate(0,-46)"><g><a target="_top" xlink:href="mob-slice1-step17936641-ofs0-col4-cat3.html"><rect style="display:none" class="hcell-act-col4-cat3" fill="#F0AD4E" stroke="#000" stroke-width="5" width="70" height="51" x="0" y="-56" rx="8" ry="8"/><rect class="hcell-col4-cat3" fill="#F0AD4E" stroke="#DDD" width="70" height="61" x="0" y="-61" rx="8" ry="8"/><text text-anchor="middle" fill="#FFF" x="35" y="-41">188</text></a><g transform="translate(0,-61)"><g><a target="_top" xlink:href="mob-slice1-step17936641-ofs0-col4-cat1.html"><rect style="display:none" class="hcell-act-col4-cat1" fill="#5BC0DE" stroke="#000" stroke-width="5" width="70" height="94" x="0" y="-99" rx="8" ry="8"/><rect class="hcell-col4-cat1" fill="#5BC0DE" stroke="#DDD" width="70" height="104" x="0" y="-104" rx="8" ry="8"/><text text-anchor="middle" fill="#FFF" x="35" y="-84">321</text></a><g transform="translate(0,-104)"><g><a target="_top" xlink:href="mob-slice1-step17936641-ofs0-col4-cat0.html"><rect style="display:none" class="hcell-act-col4-cat0" fill="#5CB85C" stroke="#000" stroke-width="5" width="70" height="131" x="0" y="-136" rx="8" ry="8"/><rect class="hcell-col4-cat0" fill="#5CB85C" stroke="#DDD" width="70" height="141" x="0" y="-141" rx="8" ry="8"/><text text-anchor="middle" fill="#FFF" x="35" y="-121">436</text></a></g></g></g></g></g></g></g></g></g></g><rect fill="none" stroke="#DDD" width="70" height="30" rx="8" ry="8" x="325" y="425"/><text text-anchor="middle" fill="#333" x="360" y="445">14-10</text><g transform="translate(325,465)"></g></g></svg>