<svg xmlns="http://www.w3.org/2000/svg" xmlns:xlink="http://www.w3.org/1999/xlink" width="100%" height="100%" viewBox="0 0 400 459"><g><g transform="translate(5,282)"></g><rect fill="none" stroke="#DDD" width="70" height="30" rx="8" ry="8" x="5" y="292"/><text text-anchor="middle" fill="#333" x="40" y="312">14-12</text><g transform="translate(5,332)"><g><a target="_top" xlink:href="mob-sliceTagGas-step2628000-ofs30-col30-cat0.html"><rect style="display:none" class="hcell-act-col30-cat0" fill="#777" stroke="#000" stroke-width="5" width="70" height="112" x="0" y="5" rx="8" ry="8"/><rect class="hcell-col30-cat0" fill="#777" stroke="#DDD" width="70" height="122" x="0" y="0" rx="8" ry="8"/><text text-anchor="middle" fill="#FFF" x="35" y="20">-20</text></a></g></g></g><g><g transform="translate(85,282)"><g><a target="_top" xlink:href="mob-sliceTagGas-step2628000-ofs30-col31-cat0.html"><rect style="display:none" class="hcell-act-col31-cat0" fill="#777" stroke="#000" stroke-width="5" width="70" height="46" x="0" y="-51" rx="8" ry="8"/><rect class="hcell-col31-cat0" fill="#777" stroke="#DDD" width="70" height="56" x="0" y="-56" rx="8" ry="8"/><text text-anchor="middle" fill="#FFF" x="35" y="-36">9</text></a></g></g><rect fill="none" stroke="#DDD" width="70" height="30" rx="8" ry="8" x="85" y="292"/><text text-anchor="middle" fill="#333" x="120" y="312">15-01</text><g transform="translate(85,332)"></g></g><g><g transform="translate(165,282)"><g><a target="_top" xlink:href="mob-sliceTagGas-step2628000-ofs30-col32-cat0.html"><rect style="display:none" class="hcell-act-col32-cat0" fill="#777" stroke="#000" stroke-width="5" width="70" height="267" x="0" y="-272" rx="8" ry="8"/><rect class="hcell-col32-cat0" fill="#777" stroke="#DDD" width="70" height="277" x="0" y="-277" rx="8" ry="8"/><text text-anchor="middle" fill="#FFF" x="35" y="-257">45</text></a></g></g><rect fill="none" stroke="#DDD" width="70" height="30" rx="8" ry="8" x="165" y="292"/><text text-anchor="middle" fill="#333" x="200" y="312">15-03</text><g transform="translate(165,332)"></g></g><g><g transform="translate(245,282)"><g><a target="_top" xlink:href="mob-sliceTagGas-step2628000-ofs30-col33-cat0.html"><rect style="display:none" class="hcell-act-col33-cat0" fill="#777" stroke="#000" stroke-width="5" width="70" height="25" x="0" y="-30" rx="8" ry="8"/><rect class="hcell-col33-cat0" fill="#777" stroke="#DDD" width="70" height="35" x="0" y="-35" rx="8" ry="8"/><text text-anchor="middle" fill="#FFF" x="35" y="-15">5</text></a></g></g><rect fill="none" stroke="#DDD" width="70" height="30" rx="8" ry="8" x="245" y="292"/><text text-anchor="middle" fill="#333" x="280" y="312">15-04</text><g transform="translate(245,332)"></g></g><g><g transform="translate(325,282)"></g><rect fill="none" stroke="#DDD" width="70" height="30" rx="8" ry="8" x="325" y="292"/><text text-anchor="middle" fill="#333" x="360" y="312">15-05</text><g transform="translate(325,332)"><g><a target="_top" xlink:href="mob-sliceTagGas-step2628000-ofs30-col34-cat0.html"><rect style="display:none" class="hcell-act-col34-cat0" fill="#777" stroke="#000" stroke-width="5" width="70" height="112" x="0" y="5" rx="8" ry="8"/><rect class="hcell-col34-cat0" fill="#777" stroke="#DDD" width="70" height="122" x="0" y="0" rx="8" ry="8"/><text text-anchor="middle" fill="#FFF" x="35" y="20">-20</text></a></g></g></g></svg>