<svg xmlns="http://www.w3.org/2000/svg" xmlns:xlink="http://www.w3.org/1999/xlink" width="100%" height="100%" viewBox="0 0 400 459"><g><g transform="translate(5,404)"><g><a target="_top" xlink:href="mob-slice2-step2628000-ofs25-col25-cat0.html"><rect style="display:none" class="hcell-act-col25-cat0" fill="#5CB85C" stroke="#000" stroke-width="5" width="70" height="23" x="0" y="-28" rx="8" ry="8"/><rect class="hcell-col25-cat0" fill="#5CB85C" stroke="#DDD" width="70" height="33" x="0" y="-33" rx="8" ry="8"/><text text-anchor="middle" fill="#FFF" x="35" y="-13">20</text></a><g transform="translate(0,-33)"><g><a target="_top" xlink:href="mob-slice2-step2628000-ofs25-col25-cat1.html"><rect style="display:none" class="hcell-act-col25-cat1" fill="#5BC0DE" stroke="#000" stroke-width="5" width="70" height="23" x="0" y="-28" rx="8" ry="8"/><rect class="hcell-col25-cat1" fill="#5BC0DE" stroke="#DDD" width="70" height="33" x="0" y="-33" rx="8" ry="8"/><text text-anchor="middle" fill="#FFF" x="35" y="-13">20</text></a><g transform="translate(0,-33)"><g><a target="_top" xlink:href="mob-slice2-step2628000-ofs25-col25-cat3.html"><rect style="display:none" class="hcell-act-col25-cat3" fill="#F0AD4E" stroke="#000" stroke-width="5" width="70" height="323" x="0" y="-328" rx="8" ry="8"/><rect class="hcell-col25-cat3" fill="#F0AD4E" stroke="#DDD" width="70" height="333" x="0" y="-333" rx="8" ry="8"/><text text-anchor="middle" fill="#FFF" x="35" y="-313">200</text></a></g></g></g></g></g></g><rect fill="none" stroke="#DDD" width="70" height="30" rx="8" ry="8" x="5" y="414"/><text text-anchor="middle" fill="#333" x="40" y="434">14-08</text><g transform="translate(5,454)"></g></g><g><g transform="translate(85,404)"><g><a target="_top" xlink:href="mob-slice2-step2628000-ofs25-col26-cat0.html"><rect style="display:none" class="hcell-act-col26-cat0" fill="#5CB85C" stroke="#000" stroke-width="5" width="70" height="23" x="0" y="-28" rx="8" ry="8"/><rect class="hcell-col26-cat0" fill="#5CB85C" stroke="#DDD" width="70" height="33" x="0" y="-33" rx="8" ry="8"/><text text-anchor="middle" fill="#FFF" x="35" y="-13">20</text></a><g transform="translate(0,-33)"><g><a target="_top" xlink:href="mob-slice2-step2628000-ofs25-col26-cat1.html"><rect style="display:none" class="hcell-act-col26-cat1" fill="#5BC0DE" stroke="#000" stroke-width="5" width="70" height="23" x="0" y="-28" rx="8" ry="8"/><rect class="hcell-col26-cat1" fill="#5BC0DE" stroke="#DDD" width="70" height="33" x="0" y="-33" rx="8" ry="8"/><text text-anchor="middle" fill="#FFF" x="35" y="-13">20</text></a><g transform="translate(0,-33)"><g><a target="_top" xlink:href="mob-slice2-step2628000-ofs25-col26-cat3.html"><rect style="display:none" class="hcell-act-col26-cat3" fill="#F0AD4E" stroke="#000" stroke-width="5" width="70" height="323" x="0" y="-328" rx="8" ry="8"/><rect class="hcell-col26-cat3" fill="#F0AD4E" stroke="#DDD" width="70" height="333" x="0" y="-333" rx="8" ry="8"/><text text-anchor="middle" fill="#FFF" x="35" y="-313">200</text></a></g></g></g></g></g></g><rect fill="none" stroke="#DDD" width="70" height="30" rx="8" ry="8" x="85" y="414"/><text text-anchor="middle" fill="#333" x="120" y="434">14-08</text><g transform="translate(85,454)"></g></g><g><g transform="translate(165,404)"><g><a target="_top" xlink:href="mob-slice2-step2628000-ofs25-col27-cat0.html"><rect style="display:none" class="hcell-act-col27-cat0" fill="#5CB85C" stroke="#000" stroke-width="5" width="70" height="23" x="0" y="-28" rx="8" ry="8"/><rect class="hcell-col27-cat0" fill="#5CB85C" stroke="#DDD" width="70" height="33" x="0" y="-33" rx="8" ry="8"/><text text-anchor="middle" fill="#FFF" x="35" y="-13">20</text></a><g transform="translate(0,-33)"><g><a target="_top" xlink:href="mob-slice2-step2628000-ofs25-col27-cat1.html"><rect style="display:none" class="hcell-act-col27-cat1" fill="#5BC0DE" stroke="#000" stroke-width="5" width="70" height="23" x="0" y="-28" rx="8" ry="8"/><rect class="hcell-col27-cat1" fill="#5BC0DE" stroke="#DDD" width="70" height="33" x="0" y="-33" rx="8" ry="8"/><text text-anchor="middle" fill="#FFF" x="35" y="-13">20</text></a><g transform="translate(0,-33)"><g><a target="_top" xlink:href="mob-slice2-step2628000-ofs25-col27-cat3.html"><rect style="display:none" class="hcell-act-col27-cat3" fill="#F0AD4E" stroke="#000" stroke-width="5" width="70" height="323" x="0" y="-328" rx="8" ry="8"/><rect class="hcell-col27-cat3" fill="#F0AD4E" stroke="#DDD" width="70" height="333" x="0" y="-333" rx="8" ry="8"/><text text-anchor="middle" fill="#FFF" x="35" y="-313">200</text></a></g></g></g></g></g></g><rect fill="none" stroke="#DDD" width="70" height="30" rx="8" ry="8" x="165" y="414"/><text text-anchor="middle" fill="#333" x="200" y="434">14-10</text><g transform="translate(165,454)"></g></g><g><g transform="translate(245,404)"><g><a target="_top" xlink:href="mob-slice2-step2628000-ofs25-col28-cat0.html"><rect style="display:none" class="hcell-act-col28-cat0" fill="#5CB85C" stroke="#000" stroke-width="5" width="70" height="23" x="0" y="-28" rx="8" ry="8"/><rect class="hcell-col28-cat0" fill="#5CB85C" stroke="#DDD" width="70" height="33" x="0" y="-33" rx="8" ry="8"/><text text-anchor="middle" fill="#FFF" x="35" y="-13">20</text></a><g transform="translate(0,-33)"><g><a target="_top" xlink:href="mob-slice2-step2628000-ofs25-col28-cat1.html"><rect style="display:none" class="hcell-act-col28-cat1" fill="#5BC0DE" stroke="#000" stroke-width="5" width="70" height="23" x="0" y="-28" rx="8" ry="8"/><rect class="hcell-col28-cat1" fill="#5BC0DE" stroke="#DDD" width="70" height="33" x="0" y="-33" rx="8" ry="8"/><text text-anchor="middle" fill="#FFF" x="35" y="-13">20</text></a><g transform="translate(0,-33)"><g><a target="_top" xlink:href="mob-slice2-step2628000-ofs25-col28-cat3.html"><rect style="display:none" class="hcell-act-col28-cat3" fill="#F0AD4E" stroke="#000" stroke-width="5" width="70" height="323" x="0" y="-328" rx="8" ry="8"/><rect class="hcell-col28-cat3" fill="#F0AD4E" stroke="#DDD" width="70" height="333" x="0" y="-333" rx="8" ry="8"/><text text-anchor="middle" fill="#FFF" x="35" y="-313">200</text></a></g></g></g></g></g></g><rect fill="none" stroke="#DDD" width="70" height="30" rx="8" ry="8" x="245" y="414"/><text text-anchor="middle" fill="#333" x="280" y="434">14-10</text><g transform="translate(245,454)"></g></g><g><g transform="translate(325,404)"><g><a target="_top" xlink:href="mob-slice2-step2628000-ofs25-col29-cat0.html"><rect style="display:none" class="hcell-act-col29-cat0" fill="#5CB85C" stroke="#000" stroke-width="5" width="70" height="23" x="0" y="-28" rx="8" ry="8"/><rect class="hcell-col29-cat0" fill="#5CB85C" stroke="#DDD" width="70" height="33" x="0" y="-33" rx="8" ry="8"/><text text-anchor="middle" fill="#FFF" x="35" y="-13">20</text></a><g transform="translate(0,-33)"><g><a target="_top" xlink:href="mob-slice2-step2628000-ofs25-col29-cat1.html"><rect style="display:none" class="hcell-act-col29-cat1" fill="#5BC0DE" stroke="#000" stroke-width="5" width="70" height="23" x="0" y="-28" rx="8" ry="8"/><rect class="hcell-col29-cat1" fill="#5BC0DE" stroke="#DDD" width="70" height="33" x="0" y="-33" rx="8" ry="8"/><text text-anchor="middle" fill="#FFF" x="35" y="-13">20</text></a><g transform="translate(0,-33)"><g><a target="_top" xlink:href="mob-slice2-step2628000-ofs25-col29-cat3.html"><rect style="display:none" class="hcell-act-col29-cat3" fill="#F0AD4E" stroke="#000" stroke-width="5" width="70" height="323" x="0" y="-328" rx="8" ry="8"/><rect class="hcell-col29-cat3" fill="#F0AD4E" stroke="#DDD" width="70" height="333" x="0" y="-333" rx="8" ry="8"/><text text-anchor="middle" fill="#FFF" x="35" y="-313">200</text></a></g></g></g></g></g></g><rect fill="none" stroke="#DDD" width="70" height="30" rx="8" ry="8" x="325" y="414"/><text text-anchor="middle" fill="#333" x="360" y="434">14-12</text><g transform="translate(325,454)"></g></g></svg>