<svg xmlns="http://www.w3.org/2000/svg" xmlns:xlink="http://www.w3.org/1999/xlink" width="100%" height="100%" viewBox="0 0 400 459"><g><g transform="translate(5,159)"><g><a target="_top" xlink:href="mob-sliceTagChecking1042-step17936641-ofs5-col5-cat0.html"><rect style="display:none" class="hcell-act-col5-cat0" fill="#777" stroke="#000" stroke-width="5" width="70" height="144" x="0" y="-149" rx="8" ry="8"/><rect class="hcell-col5-cat0" fill="#777" stroke="#DDD" width="70" height="154" x="0" y="-154" rx="8" ry="8"/><text text-anchor="middle" fill="#FFF" x="35" y="-134">5200</text></a></g></g><rect fill="none" stroke="#DDD" width="70" height="30" rx="8" ry="8" x="5" y="169"/><text text-anchor="middle" fill="#333" x="40" y="189">15-05</text><g transform="translate(5,209)"><g><a target="_top" xlink:href="mob-sliceTagChecking1042-step17936641-ofs5-col5-cat0.html"><rect style="display:none" class="hcell-act-col5-cat0" fill="#777" stroke="#000" stroke-width="5" width="70" height="235" x="0" y="5" rx="8" ry="8"/><rect class="hcell-col5-cat0" fill="#777" stroke="#DDD" width="70" height="245" x="0" y="0" rx="8" ry="8"/><text text-anchor="middle" fill="#FFF" x="35" y="20">-8280</text></a></g></g></g><g><g transform="translate(85,159)"></g><rect fill="none" stroke="#DDD" width="70" height="30" rx="8" ry="8" x="85" y="169"/><text text-anchor="middle" fill="#333" x="120" y="189">15-11</text><g transform="translate(85,209)"></g></g><g><g transform="translate(165,159)"></g><rect fill="none" stroke="#DDD" width="70" height="30" rx="8" ry="8" x="165" y="169"/><text text-anchor="middle" fill="#333" x="200" y="189">16-06</text><g transform="translate(165,209)"></g></g><g><g transform="translate(245,159)"></g><rect fill="none" stroke="#DDD" width="70" height="30" rx="8" ry="8" x="245" y="169"/><text text-anchor="middle" fill="#333" x="280" y="189">17-01</text><g transform="translate(245,209)"></g></g><g><g transform="translate(325,159)"></g><rect fill="none" stroke="#DDD" width="70" height="30" rx="8" ry="8" x="325" y="169"/><text text-anchor="middle" fill="#333" x="360" y="189">17-08</text><g transform="translate(325,209)"></g></g></svg>