<svg xmlns="http://www.w3.org/2000/svg" xmlns:xlink="http://www.w3.org/1999/xlink" width="100%" height="100%" viewBox="0 0 400 487"><g><g transform="translate(5,204)"><g><a target="_top" xlink:href="mob-slice6-step17936641-ofs0-col0-cat2.html"><rect style="display:none" class="hcell-act-col0-cat2" fill="#D9534F" stroke="#000" stroke-width="5" width="70" height="51" x="0" y="-56" rx="8" ry="8"/><rect class="hcell-col0-cat2" fill="#D9534F" stroke="#DDD" width="70" height="61" x="0" y="-61" rx="8" ry="8"/><text text-anchor="middle" fill="#FFF" x="35" y="-41">15715</text></a><g transform="translate(0,-61)"><g><a target="_top" xlink:href="mob-slice6-step17936641-ofs0-col0-cat0.html"><rect style="display:none" class="hcell-act-col0-cat0" fill="#5CB85C" stroke="#000" stroke-width="5" width="70" height="93" x="0" y="-98" rx="8" ry="8"/><rect class="hcell-col0-cat0" fill="#5CB85C" stroke="#DDD" width="70" height="103" x="0" y="-103" rx="8" ry="8"/><text text-anchor="middle" fill="#FFF" x="35" y="-83">26635</text></a></g></g></g></g><rect fill="none" stroke="#DDD" width="70" height="30" rx="8" ry="8" x="5" y="214"/><text text-anchor="middle" fill="#333" x="40" y="234">12-07</text><g transform="translate(5,254)"><g><a target="_top" xlink:href="mob-slice6-step17936641-ofs0-col0-cat2.html"><rect style="display:none" class="hcell-act-col0-cat2" fill="#D9534F" stroke="#000" stroke-width="5" width="70" height="20" x="0" y="5" rx="8" ry="8"/><rect class="hcell-col0-cat2" fill="#D9534F" stroke="#DDD" width="70" height="30" x="0" y="0" rx="8" ry="8"/><text text-anchor="middle" fill="#FFF" x="35" y="20">-301</text></a><g transform="translate(0,30)"><g><a target="_top" xlink:href="mob-slice6-step17936641-ofs0-col0-cat0.html"><rect style="display:none" class="hcell-act-col0-cat0" fill="#5CB85C" stroke="#000" stroke-width="5" width="70" height="58" x="0" y="5" rx="8" ry="8"/><rect class="hcell-col0-cat0" fill="#5CB85C" stroke="#DDD" width="70" height="68" x="0" y="0" rx="8" ry="8"/><text text-anchor="middle" fill="#FFF" x="35" y="20">-17635</text></a><g transform="translate(0,68)"><g><a target="_top" xlink:href="mob-slice6-step17936641-ofs0-col0-cat1.html"><rect style="display:none" class="hcell-act-col0-cat1" fill="#337AB7" stroke="#000" stroke-width="5" width="70" height="78" x="0" y="5" rx="8" ry="8"/><rect class="hcell-col0-cat1" fill="#337AB7" stroke="#DDD" width="70" height="88" x="0" y="0" rx="8" ry="8"/><text text-anchor="middle" fill="#FFF" x="35" y="20">-22696</text></a></g></g></g></g></g></g></g><g><g transform="translate(85,204)"><g><a target="_top" xlink:href="mob-slice6-step17936641-ofs0-col1-cat2.html"><rect style="display:none" class="hcell-act-col1-cat2" fill="#D9534F" stroke="#000" stroke-width="5" width="70" height="59" x="0" y="-64" rx="8" ry="8"/><rect class="hcell-col1-cat2" fill="#D9534F" stroke="#DDD" width="70" height="69" x="0" y="-69" rx="8" ry="8"/><text text-anchor="middle" fill="#FFF" x="35" y="-49">17894</text></a><g transform="translate(0,-69)"><g><a target="_top" xlink:href="mob-slice6-step17936641-ofs0-col1-cat0.html"><rect style="display:none" class="hcell-act-col1-cat0" fill="#5CB85C" stroke="#000" stroke-width="5" width="70" height="91" x="0" y="-96" rx="8" ry="8"/><rect class="hcell-col1-cat0" fill="#5CB85C" stroke="#DDD" width="70" height="101" x="0" y="-101" rx="8" ry="8"/><text text-anchor="middle" fill="#FFF" x="35" y="-81">26089</text></a></g></g></g></g><rect fill="none" stroke="#DDD" width="70" height="30" rx="8" ry="8" x="85" y="214"/><text text-anchor="middle" fill="#333" x="120" y="234">13-01</text><g transform="translate(85,254)"><g><a target="_top" xlink:href="mob-slice6-step17936641-ofs0-col1-cat2.html"><rect style="display:none" class="hcell-act-col1-cat2" fill="#D9534F" stroke="#000" stroke-width="5" width="70" height="20" x="0" y="5" rx="8" ry="8"/><rect class="hcell-col1-cat2" fill="#D9534F" stroke="#DDD" width="70" height="30" x="0" y="0" rx="8" ry="8"/><text text-anchor="middle" fill="#FFF" x="35" y="20">-231</text></a><g transform="translate(0,30)"><g><a target="_top" xlink:href="mob-slice6-step17936641-ofs0-col1-cat1.html"><rect style="display:none" class="hcell-act-col1-cat1" fill="#337AB7" stroke="#000" stroke-width="5" width="70" height="65" x="0" y="5" rx="8" ry="8"/><rect class="hcell-col1-cat1" fill="#337AB7" stroke="#DDD" width="70" height="75" x="0" y="0" rx="8" ry="8"/><text text-anchor="middle" fill="#FFF" x="35" y="20">-19495</text></a><g transform="translate(0,75)"><g><a target="_top" xlink:href="mob-slice6-step17936641-ofs0-col1-cat0.html"><rect style="display:none" class="hcell-act-col1-cat0" fill="#5CB85C" stroke="#000" stroke-width="5" width="70" height="98" x="0" y="5" rx="8" ry="8"/><rect class="hcell-col1-cat0" fill="#5CB85C" stroke="#DDD" width="70" height="108" x="0" y="0" rx="8" ry="8"/><text text-anchor="middle" fill="#FFF" x="35" y="20">-27879</text></a></g></g></g></g></g></g></g><g><g transform="translate(165,204)"><g><a target="_top" xlink:href="mob-slice6-step17936641-ofs0-col2-cat2.html"><rect style="display:none" class="hcell-act-col2-cat2" fill="#D9534F" stroke="#000" stroke-width="5" width="70" height="51" x="0" y="-56" rx="8" ry="8"/><rect class="hcell-col2-cat2" fill="#D9534F" stroke="#DDD" width="70" height="61" x="0" y="-61" rx="8" ry="8"/><text text-anchor="middle" fill="#FFF" x="35" y="-41">15850</text></a><g transform="translate(0,-61)"><g><a target="_top" xlink:href="mob-slice6-step17936641-ofs0-col2-cat0.html"><rect style="display:none" class="hcell-act-col2-cat0" fill="#5CB85C" stroke="#000" stroke-width="5" width="70" height="103" x="0" y="-108" rx="8" ry="8"/><rect class="hcell-col2-cat0" fill="#5CB85C" stroke="#DDD" width="70" height="113" x="0" y="-113" rx="8" ry="8"/><text text-anchor="middle" fill="#FFF" x="35" y="-93">29318</text></a></g></g></g></g><rect fill="none" stroke="#DDD" width="70" height="30" rx="8" ry="8" x="165" y="214"/><text text-anchor="middle" fill="#333" x="200" y="234">13-08</text><g transform="translate(165,254)"><g><a target="_top" xlink:href="mob-slice6-step17936641-ofs0-col2-cat2.html"><rect style="display:none" class="hcell-act-col2-cat2" fill="#D9534F" stroke="#000" stroke-width="5" width="70" height="20" x="0" y="5" rx="8" ry="8"/><rect class="hcell-col2-cat2" fill="#D9534F" stroke="#DDD" width="70" height="30" x="0" y="0" rx="8" ry="8"/><text text-anchor="middle" fill="#FFF" x="35" y="20">-132</text></a><g transform="translate(0,30)"><g><a target="_top" xlink:href="mob-slice6-step17936641-ofs0-col2-cat1.html"><rect style="display:none" class="hcell-act-col2-cat1" fill="#337AB7" stroke="#000" stroke-width="5" width="70" height="63" x="0" y="5" rx="8" ry="8"/><rect class="hcell-col2-cat1" fill="#337AB7" stroke="#DDD" width="70" height="73" x="0" y="0" rx="8" ry="8"/><text text-anchor="middle" fill="#FFF" x="35" y="20">-19011</text></a><g transform="translate(0,73)"><g><a target="_top" xlink:href="mob-slice6-step17936641-ofs0-col2-cat0.html"><rect style="display:none" class="hcell-act-col2-cat0" fill="#5CB85C" stroke="#000" stroke-width="5" width="70" height="83" x="0" y="5" rx="8" ry="8"/><rect class="hcell-col2-cat0" fill="#5CB85C" stroke="#DDD" width="70" height="93" x="0" y="0" rx="8" ry="8"/><text text-anchor="middle" fill="#FFF" x="35" y="20">-24128</text></a></g></g></g></g></g></g></g><g><g transform="translate(245,204)"><g><a target="_top" xlink:href="mob-slice6-step17936641-ofs0-col3-cat2.html"><rect style="display:none" class="hcell-act-col3-cat2" fill="#D9534F" stroke="#000" stroke-width="5" width="70" height="86" x="0" y="-91" rx="8" ry="8"/><rect class="hcell-col3-cat2" fill="#D9534F" stroke="#DDD" width="70" height="96" x="0" y="-96" rx="8" ry="8"/><text text-anchor="middle" fill="#FFF" x="35" y="-76">24919</text></a><g transform="translate(0,-96)"><g><a target="_top" xlink:href="mob-slice6-step17936641-ofs0-col3-cat0.html"><rect style="display:none" class="hcell-act-col3-cat0" fill="#5CB85C" stroke="#000" stroke-width="5" width="70" height="93" x="0" y="-98" rx="8" ry="8"/><rect class="hcell-col3-cat0" fill="#5CB85C" stroke="#DDD" width="70" height="103" x="0" y="-103" rx="8" ry="8"/><text text-anchor="middle" fill="#FFF" x="35" y="-83">26571</text></a></g></g></g></g><rect fill="none" stroke="#DDD" width="70" height="30" rx="8" ry="8" x="245" y="214"/><text text-anchor="middle" fill="#333" x="280" y="234">14-03</text><g transform="translate(245,254)"><g><a target="_top" xlink:href="mob-slice6-step17936641-ofs0-col3-cat2.html"><rect style="display:none" class="hcell-act-col3-cat2" fill="#D9534F" stroke="#000" stroke-width="5" width="70" height="20" x="0" y="5" rx="8" ry="8"/><rect class="hcell-col3-cat2" fill="#D9534F" stroke="#DDD" width="70" height="30" x="0" y="0" rx="8" ry="8"/><text text-anchor="middle" fill="#FFF" x="35" y="20">-132</text></a><g transform="translate(0,30)"><g><a target="_top" xlink:href="mob-slice6-step17936641-ofs0-col3-cat1.html"><rect style="display:none" class="hcell-act-col3-cat1" fill="#337AB7" stroke="#000" stroke-width="5" width="70" height="62" x="0" y="5" rx="8" ry="8"/><rect class="hcell-col3-cat1" fill="#337AB7" stroke="#DDD" width="70" height="72" x="0" y="0" rx="8" ry="8"/><text text-anchor="middle" fill="#FFF" x="35" y="20">-18723</text></a><g transform="translate(0,72)"><g><a target="_top" xlink:href="mob-slice6-step17936641-ofs0-col3-cat0.html"><rect style="display:none" class="hcell-act-col3-cat0" fill="#5CB85C" stroke="#000" stroke-width="5" width="70" height="116" x="0" y="5" rx="8" ry="8"/><rect class="hcell-col3-cat0" fill="#5CB85C" stroke="#DDD" width="70" height="126" x="0" y="0" rx="8" ry="8"/><text text-anchor="middle" fill="#FFF" x="35" y="20">-32637</text></a></g></g></g></g></g></g></g><g><g transform="translate(325,204)"><g><a target="_top" xlink:href="mob-slice6-step17936641-ofs0-col4-cat0.html"><rect style="display:none" class="hcell-act-col4-cat0" fill="#5CB85C" stroke="#000" stroke-width="5" width="70" height="60" x="0" y="-65" rx="8" ry="8"/><rect class="hcell-col4-cat0" fill="#5CB85C" stroke="#DDD" width="70" height="70" x="0" y="-70" rx="8" ry="8"/><text text-anchor="middle" fill="#FFF" x="35" y="-50">18200</text></a><g transform="translate(0,-70)"><g><a target="_top" xlink:href="mob-slice6-step17936641-ofs0-col4-cat2.html"><rect style="display:none" class="hcell-act-col4-cat2" fill="#D9534F" stroke="#000" stroke-width="5" width="70" height="68" x="0" y="-73" rx="8" ry="8"/><rect class="hcell-col4-cat2" fill="#D9534F" stroke="#DDD" width="70" height="78" x="0" y="-78" rx="8" ry="8"/><text text-anchor="middle" fill="#FFF" x="35" y="-58">20161</text></a></g></g></g></g><rect fill="none" stroke="#DDD" width="70" height="30" rx="8" ry="8" x="325" y="214"/><text text-anchor="middle" fill="#333" x="360" y="234">14-10</text><g transform="translate(325,254)"><g><a target="_top" xlink:href="mob-slice6-step17936641-ofs0-col4-cat1.html"><rect style="display:none" class="hcell-act-col4-cat1" fill="#337AB7" stroke="#000" stroke-width="5" width="70" height="60" x="0" y="5" rx="8" ry="8"/><rect class="hcell-col4-cat1" fill="#337AB7" stroke="#DDD" width="70" height="70" x="0" y="0" rx="8" ry="8"/><text text-anchor="middle" fill="#FFF" x="35" y="20">-18200</text></a><g transform="translate(0,70)"><g><a target="_top" xlink:href="mob-slice6-step17936641-ofs0-col4-cat0.html"><rect style="display:none" class="hcell-act-col4-cat0" fill="#5CB85C" stroke="#000" stroke-width="5" width="70" height="68" x="0" y="5" rx="8" ry="8"/><rect class="hcell-col4-cat0" fill="#5CB85C" stroke="#DDD" width="70" height="78" x="0" y="0" rx="8" ry="8"/><text text-anchor="middle" fill="#FFF" x="35" y="20">-20162</text></a></g></g></g></g></g></svg>