<svg xmlns="http://www.w3.org/2000/svg" xmlns:xlink="http://www.w3.org/1999/xlink" width="100%" height="100%" viewBox="0 0 400 459"><g><g transform="translate(5,276)"><g><a target="_top" xlink:href="mob-sliceTagSavings2453-step2628000-ofs25-col25-cat0.html"><rect style="display:none" class="hcell-act-col25-cat0" fill="#777" stroke="#000" stroke-width="5" width="70" height="261" x="0" y="-266" rx="8" ry="8"/><rect class="hcell-col25-cat0" fill="#777" stroke="#DDD" width="70" height="271" x="0" y="-271" rx="8" ry="8"/><text text-anchor="middle" fill="#FFF" x="35" y="-251">1560</text></a></g></g><rect fill="none" stroke="#DDD" width="70" height="30" rx="8" ry="8" x="5" y="286"/><text text-anchor="middle" fill="#333" x="40" y="306">14-08</text><g transform="translate(5,326)"></g></g><g><g transform="translate(85,276)"><g><a target="_top" xlink:href="mob-sliceTagSavings2453-step2628000-ofs25-col26-cat0.html"><rect style="display:none" class="hcell-act-col26-cat0" fill="#777" stroke="#000" stroke-width="5" width="70" height="94" x="0" y="-99" rx="8" ry="8"/><rect class="hcell-col26-cat0" fill="#777" stroke="#DDD" width="70" height="104" x="0" y="-104" rx="8" ry="8"/><text text-anchor="middle" fill="#FFF" x="35" y="-84">600</text></a></g></g><rect fill="none" stroke="#DDD" width="70" height="30" rx="8" ry="8" x="85" y="286"/><text text-anchor="middle" fill="#333" x="120" y="306">14-08</text><g transform="translate(85,326)"><g><a target="_top" xlink:href="mob-sliceTagSavings2453-step2628000-ofs25-col26-cat0.html"><rect style="display:none" class="hcell-act-col26-cat0" fill="#777" stroke="#000" stroke-width="5" width="70" height="118" x="0" y="5" rx="8" ry="8"/><rect class="hcell-col26-cat0" fill="#777" stroke="#DDD" width="70" height="128" x="0" y="0" rx="8" ry="8"/><text text-anchor="middle" fill="#FFF" x="35" y="20">-740</text></a></g></g></g><g><g transform="translate(165,276)"></g><rect fill="none" stroke="#DDD" width="70" height="30" rx="8" ry="8" x="165" y="286"/><text text-anchor="middle" fill="#333" x="200" y="306">14-10</text><g transform="translate(165,326)"><g><a target="_top" xlink:href="mob-sliceTagSavings2453-step2628000-ofs25-col27-cat0.html"><rect style="display:none" class="hcell-act-col27-cat0" fill="#777" stroke="#000" stroke-width="5" width="70" height="20" x="0" y="5" rx="8" ry="8"/><rect class="hcell-col27-cat0" fill="#777" stroke="#DDD" width="70" height="30" x="0" y="0" rx="8" ry="8"/><text text-anchor="middle" fill="#FFF" x="35" y="20">-85</text></a></g></g></g><g><g transform="translate(245,276)"></g><rect fill="none" stroke="#DDD" width="70" height="30" rx="8" ry="8" x="245" y="286"/><text text-anchor="middle" fill="#333" x="280" y="306">14-10</text><g transform="translate(245,326)"></g></g><g><g transform="translate(325,276)"></g><rect fill="none" stroke="#DDD" width="70" height="30" rx="8" ry="8" x="325" y="286"/><text text-anchor="middle" fill="#333" x="360" y="306">14-12</text><g transform="translate(325,326)"></g></g></svg>