<svg xmlns="http://www.w3.org/2000/svg" xmlns:xlink="http://www.w3.org/1999/xlink" width="100%" height="100%" viewBox="0 0 400 488"><g><g transform="translate(5,299)"></g><rect fill="none" stroke="#DDD" width="70" height="30" rx="8" ry="8" x="5" y="309"/><text text-anchor="middle" fill="#333" x="40" y="329">12-07</text><g transform="translate(5,349)"></g></g><g><g transform="translate(85,299)"></g><rect fill="none" stroke="#DDD" width="70" height="30" rx="8" ry="8" x="85" y="309"/><text text-anchor="middle" fill="#333" x="120" y="329">13-01</text><g transform="translate(85,349)"></g></g><g><g transform="translate(165,299)"></g><rect fill="none" stroke="#DDD" width="70" height="30" rx="8" ry="8" x="165" y="309"/><text text-anchor="middle" fill="#333" x="200" y="329">13-08</text><g transform="translate(165,349)"></g></g><g><g transform="translate(245,299)"><g><a target="_top" xlink:href="mob-slice2-step17936641-ofs0-col3-cat0.html"><rect style="display:none" class="hcell-act-col3-cat0" fill="#5CB85C" stroke="#000" stroke-width="5" width="70" height="20" x="0" y="-25" rx="8" ry="8"/><rect class="hcell-col3-cat0" fill="#5CB85C" stroke="#DDD" width="70" height="30" x="0" y="-30" rx="8" ry="8"/><text text-anchor="middle" fill="#FFF" x="35" y="-10">1</text></a><g transform="translate(0,-30)"><g><a target="_top" xlink:href="mob-slice2-step17936641-ofs0-col3-cat3.html"><rect style="display:none" class="hcell-act-col3-cat3" fill="#F0AD4E" stroke="#000" stroke-width="5" width="70" height="254" x="0" y="-259" rx="8" ry="8"/><rect class="hcell-col3-cat3" fill="#F0AD4E" stroke="#DDD" width="70" height="264" x="0" y="-264" rx="8" ry="8"/><text text-anchor="middle" fill="#FFF" x="35" y="-244">1035</text></a></g></g></g></g><rect fill="none" stroke="#DDD" width="70" height="30" rx="8" ry="8" x="245" y="309"/><text text-anchor="middle" fill="#333" x="280" y="329">14-03</text><g transform="translate(245,349)"><g><a target="_top" xlink:href="mob-slice2-step17936641-ofs0-col3-cat1.html"><rect style="display:none" class="hcell-act-col3-cat1" fill="#5BC0DE" stroke="#000" stroke-width="5" width="70" height="20" x="0" y="5" rx="8" ry="8"/><rect class="hcell-col3-cat1" fill="#5BC0DE" stroke="#DDD" width="70" height="30" x="0" y="0" rx="8" ry="8"/><text text-anchor="middle" fill="#FFF" x="35" y="20">-60</text></a></g></g></g><g><g transform="translate(325,299)"><g><a target="_top" xlink:href="mob-slice2-step17936641-ofs0-col4-cat0.html"><rect style="display:none" class="hcell-act-col4-cat0" fill="#5CB85C" stroke="#000" stroke-width="5" width="70" height="20" x="0" y="-25" rx="8" ry="8"/><rect class="hcell-col4-cat0" fill="#5CB85C" stroke="#DDD" width="70" height="30" x="0" y="-30" rx="8" ry="8"/><text text-anchor="middle" fill="#FFF" x="35" y="-10">11</text></a><g transform="translate(0,-30)"><g><a target="_top" xlink:href="mob-slice2-step17936641-ofs0-col4-cat2.html"><rect style="display:none" class="hcell-act-col4-cat2" fill="#337AB7" stroke="#000" stroke-width="5" width="70" height="20" x="0" y="-25" rx="8" ry="8"/><rect class="hcell-col4-cat2" fill="#337AB7" stroke="#DDD" width="70" height="30" x="0" y="-30" rx="8" ry="8"/><text text-anchor="middle" fill="#FFF" x="35" y="-10">30</text></a><g transform="translate(0,-30)"><g><a target="_top" xlink:href="mob-slice2-step17936641-ofs0-col4-cat1.html"><rect style="display:none" class="hcell-act-col4-cat1" fill="#5BC0DE" stroke="#000" stroke-width="5" width="70" height="20" x="0" y="-25" rx="8" ry="8"/><rect class="hcell-col4-cat1" fill="#5BC0DE" stroke="#DDD" width="70" height="30" x="0" y="-30" rx="8" ry="8"/><text text-anchor="middle" fill="#FFF" x="35" y="-10">33</text></a></g></g></g></g></g></g><rect fill="none" stroke="#DDD" width="70" height="30" rx="8" ry="8" x="325" y="309"/><text text-anchor="middle" fill="#333" x="360" y="329">14-10</text><g transform="translate(325,349)"><g><a target="_top" xlink:href="mob-slice2-step17936641-ofs0-col4-cat3.html"><rect style="display:none" class="hcell-act-col4-cat3" fill="#F0AD4E" stroke="#000" stroke-width="5" width="70" height="124" x="0" y="5" rx="8" ry="8"/><rect class="hcell-col4-cat3" fill="#F0AD4E" stroke="#DDD" width="70" height="134" x="0" y="0" rx="8" ry="8"/><text text-anchor="middle" fill="#FFF" x="35" y="20">-527</text></a></g></g></g></svg>