<svg xmlns="http://www.w3.org/2000/svg" xmlns:xlink="http://www.w3.org/1999/xlink" width="100%" height="100%" viewBox="0 0 400 459"><g><g transform="translate(5,252)"><g><a target="_top" xlink:href="mob-sliceTagCash-step2628000-ofs20-col20-cat0.html"><rect style="display:none" class="hcell-act-col20-cat0" fill="#777" stroke="#000" stroke-width="5" width="70" height="237" x="0" y="-242" rx="8" ry="8"/><rect class="hcell-col20-cat0" fill="#777" stroke="#DDD" width="70" height="247" x="0" y="-247" rx="8" ry="8"/><text text-anchor="middle" fill="#FFF" x="35" y="-227">1680</text></a></g></g><rect fill="none" stroke="#DDD" width="70" height="30" rx="8" ry="8" x="5" y="262"/><text text-anchor="middle" fill="#333" x="40" y="282">14-03</text><g transform="translate(5,302)"><g><a target="_top" xlink:href="mob-sliceTagCash-step2628000-ofs20-col20-cat0.html"><rect style="display:none" class="hcell-act-col20-cat0" fill="#777" stroke="#000" stroke-width="5" width="70" height="84" x="0" y="5" rx="8" ry="8"/><rect class="hcell-col20-cat0" fill="#777" stroke="#DDD" width="70" height="94" x="0" y="0" rx="8" ry="8"/><text text-anchor="middle" fill="#FFF" x="35" y="20">-640</text></a></g></g></g><g><g transform="translate(85,252)"></g><rect fill="none" stroke="#DDD" width="70" height="30" rx="8" ry="8" x="85" y="262"/><text text-anchor="middle" fill="#333" x="120" y="282">14-04</text><g transform="translate(85,302)"></g></g><g><g transform="translate(165,252)"><g><a target="_top" xlink:href="mob-sliceTagCash-step2628000-ofs20-col22-cat0.html"><rect style="display:none" class="hcell-act-col22-cat0" fill="#777" stroke="#000" stroke-width="5" width="70" height="211" x="0" y="-216" rx="8" ry="8"/><rect class="hcell-col22-cat0" fill="#777" stroke="#DDD" width="70" height="221" x="0" y="-221" rx="8" ry="8"/><text text-anchor="middle" fill="#FFF" x="35" y="-201">1500</text></a></g></g><rect fill="none" stroke="#DDD" width="70" height="30" rx="8" ry="8" x="165" y="262"/><text text-anchor="middle" fill="#333" x="200" y="282">14-05</text><g transform="translate(165,302)"></g></g><g><g transform="translate(245,252)"></g><rect fill="none" stroke="#DDD" width="70" height="30" rx="8" ry="8" x="245" y="262"/><text text-anchor="middle" fill="#333" x="280" y="282">14-06</text><g transform="translate(245,302)"><g><a target="_top" xlink:href="mob-sliceTagCash-step2628000-ofs20-col23-cat0.html"><rect style="display:none" class="hcell-act-col23-cat0" fill="#777" stroke="#000" stroke-width="5" width="70" height="128" x="0" y="5" rx="8" ry="8"/><rect class="hcell-col23-cat0" fill="#777" stroke="#DDD" width="70" height="138" x="0" y="0" rx="8" ry="8"/><text text-anchor="middle" fill="#FFF" x="35" y="20">-940</text></a></g></g></g><g><g transform="translate(325,252)"></g><rect fill="none" stroke="#DDD" width="70" height="30" rx="8" ry="8" x="325" y="262"/><text text-anchor="middle" fill="#333" x="360" y="282">14-07</text><g transform="translate(325,302)"><g><a target="_top" xlink:href="mob-sliceTagCash-step2628000-ofs20-col24-cat0.html"><rect style="display:none" class="hcell-act-col24-cat0" fill="#777" stroke="#000" stroke-width="5" width="70" height="142" x="0" y="5" rx="8" ry="8"/><rect class="hcell-col24-cat0" fill="#777" stroke="#DDD" width="70" height="152" x="0" y="0" rx="8" ry="8"/><text text-anchor="middle" fill="#FFF" x="35" y="20">-1030</text></a></g></g></g></svg>