<svg xmlns="http://www.w3.org/2000/svg" xmlns:xlink="http://www.w3.org/1999/xlink" width="100%" height="100%" viewBox="0 0 400 459"><g><g transform="translate(5,173)"><g><a target="_top" xlink:href="mob-sliceTagChecking1042-step2628000-ofs30-col30-cat0.html"><rect style="display:none" class="hcell-act-col30-cat0" fill="#777" stroke="#000" stroke-width="5" width="70" height="158" x="0" y="-163" rx="8" ry="8"/><rect class="hcell-col30-cat0" fill="#777" stroke="#DDD" width="70" height="168" x="0" y="-168" rx="8" ry="8"/><text text-anchor="middle" fill="#FFF" x="35" y="-148">2600</text></a></g></g><rect fill="none" stroke="#DDD" width="70" height="30" rx="8" ry="8" x="5" y="183"/><text text-anchor="middle" fill="#333" x="40" y="203">14-12</text><g transform="translate(5,223)"><g><a target="_top" xlink:href="mob-sliceTagChecking1042-step2628000-ofs30-col30-cat0.html"><rect style="display:none" class="hcell-act-col30-cat0" fill="#777" stroke="#000" stroke-width="5" width="70" height="185" x="0" y="5" rx="8" ry="8"/><rect class="hcell-col30-cat0" fill="#777" stroke="#DDD" width="70" height="195" x="0" y="0" rx="8" ry="8"/><text text-anchor="middle" fill="#FFF" x="35" y="20">-3026</text></a></g></g></g><g><g transform="translate(85,173)"><g><a target="_top" xlink:href="mob-sliceTagChecking1042-step2628000-ofs30-col31-cat0.html"><rect style="display:none" class="hcell-act-col31-cat0" fill="#777" stroke="#000" stroke-width="5" width="70" height="158" x="0" y="-163" rx="8" ry="8"/><rect class="hcell-col31-cat0" fill="#777" stroke="#DDD" width="70" height="168" x="0" y="-168" rx="8" ry="8"/><text text-anchor="middle" fill="#FFF" x="35" y="-148">2600</text></a></g></g><rect fill="none" stroke="#DDD" width="70" height="30" rx="8" ry="8" x="85" y="183"/><text text-anchor="middle" fill="#333" x="120" y="203">15-01</text><g transform="translate(85,223)"><g><a target="_top" xlink:href="mob-sliceTagChecking1042-step2628000-ofs30-col31-cat0.html"><rect style="display:none" class="hcell-act-col31-cat0" fill="#777" stroke="#000" stroke-width="5" width="70" height="221" x="0" y="5" rx="8" ry="8"/><rect class="hcell-col31-cat0" fill="#777" stroke="#DDD" width="70" height="231" x="0" y="0" rx="8" ry="8"/><text text-anchor="middle" fill="#FFF" x="35" y="20">-3590</text></a></g></g></g><g><g transform="translate(165,173)"><g><a target="_top" xlink:href="mob-sliceTagChecking1042-step2628000-ofs30-col32-cat0.html"><rect style="display:none" class="hcell-act-col32-cat0" fill="#777" stroke="#000" stroke-width="5" width="70" height="158" x="0" y="-163" rx="8" ry="8"/><rect class="hcell-col32-cat0" fill="#777" stroke="#DDD" width="70" height="168" x="0" y="-168" rx="8" ry="8"/><text text-anchor="middle" fill="#FFF" x="35" y="-148">2600</text></a></g></g><rect fill="none" stroke="#DDD" width="70" height="30" rx="8" ry="8" x="165" y="183"/><text text-anchor="middle" fill="#333" x="200" y="203">15-03</text><g transform="translate(165,223)"><g><a target="_top" xlink:href="mob-sliceTagChecking1042-step2628000-ofs30-col32-cat0.html"><rect style="display:none" class="hcell-act-col32-cat0" fill="#777" stroke="#000" stroke-width="5" width="70" height="163" x="0" y="5" rx="8" ry="8"/><rect class="hcell-col32-cat0" fill="#777" stroke="#DDD" width="70" height="173" x="0" y="0" rx="8" ry="8"/><text text-anchor="middle" fill="#FFF" x="35" y="20">-2690</text></a></g></g></g><g><g transform="translate(245,173)"><g><a target="_top" xlink:href="mob-sliceTagChecking1042-step2628000-ofs30-col33-cat0.html"><rect style="display:none" class="hcell-act-col33-cat0" fill="#777" stroke="#000" stroke-width="5" width="70" height="158" x="0" y="-163" rx="8" ry="8"/><rect class="hcell-col33-cat0" fill="#777" stroke="#DDD" width="70" height="168" x="0" y="-168" rx="8" ry="8"/><text text-anchor="middle" fill="#FFF" x="35" y="-148">2600</text></a></g></g><rect fill="none" stroke="#DDD" width="70" height="30" rx="8" ry="8" x="245" y="183"/><text text-anchor="middle" fill="#333" x="280" y="203">15-04</text><g transform="translate(245,223)"><g><a target="_top" xlink:href="mob-sliceTagChecking1042-step2628000-ofs30-col33-cat0.html"><rect style="display:none" class="hcell-act-col33-cat0" fill="#777" stroke="#000" stroke-width="5" width="70" height="191" x="0" y="5" rx="8" ry="8"/><rect class="hcell-col33-cat0" fill="#777" stroke="#DDD" width="70" height="201" x="0" y="0" rx="8" ry="8"/><text text-anchor="middle" fill="#FFF" x="35" y="20">-3118</text></a></g></g></g><g><g transform="translate(325,173)"><g><a target="_top" xlink:href="mob-sliceTagChecking1042-step2628000-ofs30-col34-cat0.html"><rect style="display:none" class="hcell-act-col34-cat0" fill="#777" stroke="#000" stroke-width="5" width="70" height="158" x="0" y="-163" rx="8" ry="8"/><rect class="hcell-col34-cat0" fill="#777" stroke="#DDD" width="70" height="168" x="0" y="-168" rx="8" ry="8"/><text text-anchor="middle" fill="#FFF" x="35" y="-148">2600</text></a></g></g><rect fill="none" stroke="#DDD" width="70" height="30" rx="8" ry="8" x="325" y="183"/><text text-anchor="middle" fill="#333" x="360" y="203">15-05</text><g transform="translate(325,223)"><g><a target="_top" xlink:href="mob-sliceTagChecking1042-step2628000-ofs30-col34-cat0.html"><rect style="display:none" class="hcell-act-col34-cat0" fill="#777" stroke="#000" stroke-width="5" width="70" height="215" x="0" y="5" rx="8" ry="8"/><rect class="hcell-col34-cat0" fill="#777" stroke="#DDD" width="70" height="225" x="0" y="0" rx="8" ry="8"/><text text-anchor="middle" fill="#FFF" x="35" y="20">-3490</text></a></g></g></g></svg>