<svg xmlns="http://www.w3.org/2000/svg" xmlns:xlink="http://www.w3.org/1999/xlink" width="100%" height="100%" viewBox="0 0 400 482"><g><g transform="translate(5,397)"><g><a target="_top" xlink:href="mob-sliceTagExpense-step2628000-ofs30-col30-cat0.html"><rect style="display:none" class="hcell-act-col30-cat0" fill="#777" stroke="#000" stroke-width="5" width="70" height="283" x="0" y="-288" rx="8" ry="8"/><rect class="hcell-col30-cat0" fill="#777" stroke="#DDD" width="70" height="293" x="0" y="-293" rx="8" ry="8"/><text text-anchor="middle" fill="#FFF" x="35" y="-273">3059</text></a></g></g><rect fill="none" stroke="#DDD" width="70" height="30" rx="8" ry="8" x="5" y="407"/><text text-anchor="middle" fill="#333" x="40" y="427">14-12</text><g transform="translate(5,447)"><g><a target="_top" xlink:href="mob-sliceTagExpense-step2628000-ofs30-col30-cat0.html"><rect style="display:none" class="hcell-act-col30-cat0" fill="#777" stroke="#000" stroke-width="5" width="70" height="20" x="0" y="5" rx="8" ry="8"/><rect class="hcell-col30-cat0" fill="#777" stroke="#DDD" width="70" height="30" x="0" y="0" rx="8" ry="8"/><text text-anchor="middle" fill="#FFF" x="35" y="20">-78</text></a></g></g></g><g><g transform="translate(85,397)"><g><a target="_top" xlink:href="mob-sliceTagExpense-step2628000-ofs30-col31-cat0.html"><rect style="display:none" class="hcell-act-col31-cat0" fill="#777" stroke="#000" stroke-width="5" width="70" height="382" x="0" y="-387" rx="8" ry="8"/><rect class="hcell-col31-cat0" fill="#777" stroke="#DDD" width="70" height="392" x="0" y="-392" rx="8" ry="8"/><text text-anchor="middle" fill="#FFF" x="35" y="-372">4091</text></a></g></g><rect fill="none" stroke="#DDD" width="70" height="30" rx="8" ry="8" x="85" y="407"/><text text-anchor="middle" fill="#333" x="120" y="427">15-01</text><g transform="translate(85,447)"></g></g><g><g transform="translate(165,397)"><g><a target="_top" xlink:href="mob-sliceTagExpense-step2628000-ofs30-col32-cat0.html"><rect style="display:none" class="hcell-act-col32-cat0" fill="#777" stroke="#000" stroke-width="5" width="70" height="191" x="0" y="-196" rx="8" ry="8"/><rect class="hcell-col32-cat0" fill="#777" stroke="#DDD" width="70" height="201" x="0" y="-201" rx="8" ry="8"/><text text-anchor="middle" fill="#FFF" x="35" y="-181">2096</text></a></g></g><rect fill="none" stroke="#DDD" width="70" height="30" rx="8" ry="8" x="165" y="407"/><text text-anchor="middle" fill="#333" x="200" y="427">15-03</text><g transform="translate(165,447)"></g></g><g><g transform="translate(245,397)"><g><a target="_top" xlink:href="mob-sliceTagExpense-step2628000-ofs30-col33-cat0.html"><rect style="display:none" class="hcell-act-col33-cat0" fill="#777" stroke="#000" stroke-width="5" width="70" height="277" x="0" y="-282" rx="8" ry="8"/><rect class="hcell-col33-cat0" fill="#777" stroke="#DDD" width="70" height="287" x="0" y="-287" rx="8" ry="8"/><text text-anchor="middle" fill="#FFF" x="35" y="-267">2995</text></a></g></g><rect fill="none" stroke="#DDD" width="70" height="30" rx="8" ry="8" x="245" y="407"/><text text-anchor="middle" fill="#333" x="280" y="427">15-04</text><g transform="translate(245,447)"><g><a target="_top" xlink:href="mob-sliceTagExpense-step2628000-ofs30-col33-cat0.html"><rect style="display:none" class="hcell-act-col33-cat0" fill="#777" stroke="#000" stroke-width="5" width="70" height="20" x="0" y="5" rx="8" ry="8"/><rect class="hcell-col33-cat0" fill="#777" stroke="#DDD" width="70" height="30" x="0" y="0" rx="8" ry="8"/><text text-anchor="middle" fill="#FFF" x="35" y="20">-33</text></a></g></g></g><g><g transform="translate(325,397)"></g><rect fill="none" stroke="#DDD" width="70" height="30" rx="8" ry="8" x="325" y="407"/><text text-anchor="middle" fill="#333" x="360" y="427">15-05</text><g transform="translate(325,447)"></g></g></svg>