<svg xmlns="http://www.w3.org/2000/svg" xmlns:xlink="http://www.w3.org/1999/xlink" width="100%" height="100%" viewBox="0 0 400 459"><g><g transform="translate(5,229)"></g><rect fill="none" stroke="#DDD" width="70" height="30" rx="8" ry="8" x="5" y="239"/><text text-anchor="middle" fill="#333" x="40" y="259">14-12</text><g transform="translate(5,279)"><g><a target="_top" xlink:href="mob-sliceTagOther-step2628000-ofs30-col30-cat0.html"><rect style="display:none" class="hcell-act-col30-cat0" fill="#777" stroke="#000" stroke-width="5" width="70" height="87" x="0" y="5" rx="8" ry="8"/><rect class="hcell-col30-cat0" fill="#777" stroke="#DDD" width="70" height="97" x="0" y="0" rx="8" ry="8"/><text text-anchor="middle" fill="#FFF" x="35" y="20">-12</text></a></g></g></g><g><g transform="translate(85,229)"></g><rect fill="none" stroke="#DDD" width="70" height="30" rx="8" ry="8" x="85" y="239"/><text text-anchor="middle" fill="#333" x="120" y="259">15-01</text><g transform="translate(85,279)"><g><a target="_top" xlink:href="mob-sliceTagOther-step2628000-ofs30-col31-cat0.html"><rect style="display:none" class="hcell-act-col31-cat0" fill="#777" stroke="#000" stroke-width="5" width="70" height="165" x="0" y="5" rx="8" ry="8"/><rect class="hcell-col31-cat0" fill="#777" stroke="#DDD" width="70" height="175" x="0" y="0" rx="8" ry="8"/><text text-anchor="middle" fill="#FFF" x="35" y="20">-20</text></a></g></g></g><g><g transform="translate(165,229)"><g><a target="_top" xlink:href="mob-sliceTagOther-step2628000-ofs30-col32-cat0.html"><rect style="display:none" class="hcell-act-col32-cat0" fill="#777" stroke="#000" stroke-width="5" width="70" height="185" x="0" y="-190" rx="8" ry="8"/><rect class="hcell-col32-cat0" fill="#777" stroke="#DDD" width="70" height="195" x="0" y="-195" rx="8" ry="8"/><text text-anchor="middle" fill="#FFF" x="35" y="-175">22</text></a></g></g><rect fill="none" stroke="#DDD" width="70" height="30" rx="8" ry="8" x="165" y="239"/><text text-anchor="middle" fill="#333" x="200" y="259">15-03</text><g transform="translate(165,279)"></g></g><g><g transform="translate(245,229)"><g><a target="_top" xlink:href="mob-sliceTagOther-step2628000-ofs30-col33-cat0.html"><rect style="display:none" class="hcell-act-col33-cat0" fill="#777" stroke="#000" stroke-width="5" width="70" height="214" x="0" y="-219" rx="8" ry="8"/><rect class="hcell-col33-cat0" fill="#777" stroke="#DDD" width="70" height="224" x="0" y="-224" rx="8" ry="8"/><text text-anchor="middle" fill="#FFF" x="35" y="-204">25</text></a></g></g><rect fill="none" stroke="#DDD" width="70" height="30" rx="8" ry="8" x="245" y="239"/><text text-anchor="middle" fill="#333" x="280" y="259">15-04</text><g transform="translate(245,279)"></g></g><g><g transform="translate(325,229)"></g><rect fill="none" stroke="#DDD" width="70" height="30" rx="8" ry="8" x="325" y="239"/><text text-anchor="middle" fill="#333" x="360" y="259">15-05</text><g transform="translate(325,279)"><g><a target="_top" xlink:href="mob-sliceTagOther-step2628000-ofs30-col34-cat0.html"><rect style="display:none" class="hcell-act-col34-cat0" fill="#777" stroke="#000" stroke-width="5" width="70" height="165" x="0" y="5" rx="8" ry="8"/><rect class="hcell-col34-cat0" fill="#777" stroke="#DDD" width="70" height="175" x="0" y="0" rx="8" ry="8"/><text text-anchor="middle" fill="#FFF" x="35" y="20">-20</text></a></g></g></g></svg>