<svg xmlns="http://www.w3.org/2000/svg" xmlns:xlink="http://www.w3.org/1999/xlink" width="100%" height="100%" viewBox="0 0 400 471"><g><g transform="translate(5,416)"><g><a target="_top" xlink:href="mob-slice2-step17936641-ofs5-col5-cat0.html"><rect style="display:none" class="hcell-act-col5-cat0" fill="#5CB85C" stroke="#000" stroke-width="5" width="70" height="20" x="0" y="-25" rx="8" ry="8"/><rect class="hcell-col5-cat0" fill="#5CB85C" stroke="#DDD" width="70" height="30" x="0" y="-30" rx="8" ry="8"/><text text-anchor="middle" fill="#FFF" x="35" y="-10">40</text></a><g transform="translate(0,-30)"><g><a target="_top" xlink:href="mob-slice2-step17936641-ofs5-col5-cat3.html"><rect style="display:none" class="hcell-act-col5-cat3" fill="#F0AD4E" stroke="#000" stroke-width="5" width="70" height="171" x="0" y="-176" rx="8" ry="8"/><rect class="hcell-col5-cat3" fill="#F0AD4E" stroke="#DDD" width="70" height="181" x="0" y="-181" rx="8" ry="8"/><text text-anchor="middle" fill="#FFF" x="35" y="-161">400</text></a><g transform="translate(0,-181)"><g><a target="_top" xlink:href="mob-slice2-step17936641-ofs5-col5-cat1.html"><rect style="display:none" class="hcell-act-col5-cat1" fill="#5BC0DE" stroke="#000" stroke-width="5" width="70" height="190" x="0" y="-195" rx="8" ry="8"/><rect class="hcell-col5-cat1" fill="#5BC0DE" stroke="#DDD" width="70" height="200" x="0" y="-200" rx="8" ry="8"/><text text-anchor="middle" fill="#FFF" x="35" y="-180">440</text></a></g></g></g></g></g></g><rect fill="none" stroke="#DDD" width="70" height="30" rx="8" ry="8" x="5" y="426"/><text text-anchor="middle" fill="#333" x="40" y="446">15-05</text><g transform="translate(5,466)"></g></g><g><g transform="translate(85,416)"></g><rect fill="none" stroke="#DDD" width="70" height="30" rx="8" ry="8" x="85" y="426"/><text text-anchor="middle" fill="#333" x="120" y="446">15-11</text><g transform="translate(85,466)"></g></g><g><g transform="translate(165,416)"></g><rect fill="none" stroke="#DDD" width="70" height="30" rx="8" ry="8" x="165" y="426"/><text text-anchor="middle" fill="#333" x="200" y="446">16-06</text><g transform="translate(165,466)"></g></g><g><g transform="translate(245,416)"></g><rect fill="none" stroke="#DDD" width="70" height="30" rx="8" ry="8" x="245" y="426"/><text text-anchor="middle" fill="#333" x="280" y="446">17-01</text><g transform="translate(245,466)"></g></g><g><g transform="translate(325,416)"></g><rect fill="none" stroke="#DDD" width="70" height="30" rx="8" ry="8" x="325" y="426"/><text text-anchor="middle" fill="#333" x="360" y="446">17-08</text><g transform="translate(325,466)"></g></g></svg>