<svg xmlns="http://www.w3.org/2000/svg" xmlns:xlink="http://www.w3.org/1999/xlink" width="100%" height="100%" viewBox="0 0 400 459"><g><g transform="translate(5,184)"><g><a target="_top" xlink:href="mob-sliceTagAsset-step2628000-ofs30-col30-cat0.html"><rect style="display:none" class="hcell-act-col30-cat0" fill="#777" stroke="#000" stroke-width="5" width="70" height="125" x="0" y="-130" rx="8" ry="8"/><rect class="hcell-col30-cat0" fill="#777" stroke="#DDD" width="70" height="135" x="0" y="-135" rx="8" ry="8"/><text text-anchor="middle" fill="#FFF" x="35" y="-115">4454</text></a></g></g><rect fill="none" stroke="#DDD" width="70" height="30" rx="8" ry="8" x="5" y="194"/><text text-anchor="middle" fill="#333" x="40" y="214">14-12</text><g transform="translate(5,234)"><g><a target="_top" xlink:href="mob-sliceTagAsset-step2628000-ofs30-col30-cat0.html"><rect style="display:none" class="hcell-act-col30-cat0" fill="#777" stroke="#000" stroke-width="5" width="70" height="135" x="0" y="5" rx="8" ry="8"/><rect class="hcell-col30-cat0" fill="#777" stroke="#DDD" width="70" height="145" x="0" y="0" rx="8" ry="8"/><text text-anchor="middle" fill="#FFF" x="35" y="20">-4799</text></a></g></g></g><g><g transform="translate(85,184)"><g><a target="_top" xlink:href="mob-sliceTagAsset-step2628000-ofs30-col31-cat0.html"><rect style="display:none" class="hcell-act-col31-cat0" fill="#777" stroke="#000" stroke-width="5" width="70" height="169" x="0" y="-174" rx="8" ry="8"/><rect class="hcell-col31-cat0" fill="#777" stroke="#DDD" width="70" height="179" x="0" y="-179" rx="8" ry="8"/><text text-anchor="middle" fill="#FFF" x="35" y="-159">5898</text></a></g></g><rect fill="none" stroke="#DDD" width="70" height="30" rx="8" ry="8" x="85" y="194"/><text text-anchor="middle" fill="#333" x="120" y="214">15-01</text><g transform="translate(85,234)"><g><a target="_top" xlink:href="mob-sliceTagAsset-step2628000-ofs30-col31-cat0.html"><rect style="display:none" class="hcell-act-col31-cat0" fill="#777" stroke="#000" stroke-width="5" width="70" height="210" x="0" y="5" rx="8" ry="8"/><rect class="hcell-col31-cat0" fill="#777" stroke="#DDD" width="70" height="220" x="0" y="0" rx="8" ry="8"/><text text-anchor="middle" fill="#FFF" x="35" y="20">-7277</text></a></g></g></g><g><g transform="translate(165,184)"><g><a target="_top" xlink:href="mob-sliceTagAsset-step2628000-ofs30-col32-cat0.html"><rect style="display:none" class="hcell-act-col32-cat0" fill="#777" stroke="#000" stroke-width="5" width="70" height="166" x="0" y="-171" rx="8" ry="8"/><rect class="hcell-col32-cat0" fill="#777" stroke="#DDD" width="70" height="176" x="0" y="-176" rx="8" ry="8"/><text text-anchor="middle" fill="#FFF" x="35" y="-156">5820</text></a></g></g><rect fill="none" stroke="#DDD" width="70" height="30" rx="8" ry="8" x="165" y="194"/><text text-anchor="middle" fill="#333" x="200" y="214">15-03</text><g transform="translate(165,234)"><g><a target="_top" xlink:href="mob-sliceTagAsset-step2628000-ofs30-col32-cat0.html"><rect style="display:none" class="hcell-act-col32-cat0" fill="#777" stroke="#000" stroke-width="5" width="70" height="149" x="0" y="5" rx="8" ry="8"/><rect class="hcell-col32-cat0" fill="#777" stroke="#DDD" width="70" height="159" x="0" y="0" rx="8" ry="8"/><text text-anchor="middle" fill="#FFF" x="35" y="20">-5256</text></a></g></g></g><g><g transform="translate(245,184)"><g><a target="_top" xlink:href="mob-sliceTagAsset-step2628000-ofs30-col33-cat0.html"><rect style="display:none" class="hcell-act-col33-cat0" fill="#777" stroke="#000" stroke-width="5" width="70" height="167" x="0" y="-172" rx="8" ry="8"/><rect class="hcell-col33-cat0" fill="#777" stroke="#DDD" width="70" height="177" x="0" y="-177" rx="8" ry="8"/><text text-anchor="middle" fill="#FFF" x="35" y="-157">5831</text></a></g></g><rect fill="none" stroke="#DDD" width="70" height="30" rx="8" ry="8" x="245" y="194"/><text text-anchor="middle" fill="#333" x="280" y="214">15-04</text><g transform="translate(245,234)"><g><a target="_top" xlink:href="mob-sliceTagAsset-step2628000-ofs30-col33-cat0.html"><rect style="display:none" class="hcell-act-col33-cat0" fill="#777" stroke="#000" stroke-width="5" width="70" height="175" x="0" y="5" rx="8" ry="8"/><rect class="hcell-col33-cat0" fill="#777" stroke="#DDD" width="70" height="185" x="0" y="0" rx="8" ry="8"/><text text-anchor="middle" fill="#FFF" x="35" y="20">-6111</text></a></g></g></g><g><g transform="translate(325,184)"><g><a target="_top" xlink:href="mob-sliceTagAsset-step2628000-ofs30-col34-cat0.html"><rect style="display:none" class="hcell-act-col34-cat0" fill="#777" stroke="#000" stroke-width="5" width="70" height="20" x="0" y="-25" rx="8" ry="8"/><rect class="hcell-col34-cat0" fill="#777" stroke="#DDD" width="70" height="30" x="0" y="-30" rx="8" ry="8"/><text text-anchor="middle" fill="#FFF" x="35" y="-10">96</text></a></g></g><rect fill="none" stroke="#DDD" width="70" height="30" rx="8" ry="8" x="325" y="194"/><text text-anchor="middle" fill="#333" x="360" y="214">15-05</text><g transform="translate(325,234)"><g><a target="_top" xlink:href="mob-sliceTagAsset-step2628000-ofs30-col34-cat0.html"><rect style="display:none" class="hcell-act-col34-cat0" fill="#777" stroke="#000" stroke-width="5" width="70" height="20" x="0" y="5" rx="8" ry="8"/><rect class="hcell-col34-cat0" fill="#777" stroke="#DDD" width="70" height="30" x="0" y="0" rx="8" ry="8"/><text text-anchor="middle" fill="#FFF" x="35" y="20">-96</text></a></g></g></g></svg>