<svg xmlns="http://www.w3.org/2000/svg" xmlns:xlink="http://www.w3.org/1999/xlink" width="100%" height="100%" viewBox="0 0 400 485"><g><g transform="translate(5,400)"><g><a target="_top" xlink:href="mob-sliceTagExpense-step2628000-ofs5-col5-cat0.html"><rect style="display:none" class="hcell-act-col5-cat0" fill="#777" stroke="#000" stroke-width="5" width="70" height="362" x="0" y="-367" rx="8" ry="8"/><rect class="hcell-col5-cat0" fill="#777" stroke="#DDD" width="70" height="372" x="0" y="-372" rx="8" ry="8"/><text text-anchor="middle" fill="#FFF" x="35" y="-352">2385</text></a></g></g><rect fill="none" stroke="#DDD" width="70" height="30" rx="8" ry="8" x="5" y="410"/><text text-anchor="middle" fill="#333" x="40" y="430">12-12</text><g transform="translate(5,450)"><g><a target="_top" xlink:href="mob-sliceTagExpense-step2628000-ofs5-col5-cat0.html"><rect style="display:none" class="hcell-act-col5-cat0" fill="#777" stroke="#000" stroke-width="5" width="70" height="20" x="0" y="5" rx="8" ry="8"/><rect class="hcell-col5-cat0" fill="#777" stroke="#DDD" width="70" height="30" x="0" y="0" rx="8" ry="8"/><text text-anchor="middle" fill="#FFF" x="35" y="20">-12</text></a></g></g></g><g><g transform="translate(85,400)"><g><a target="_top" xlink:href="mob-sliceTagExpense-step2628000-ofs5-col6-cat0.html"><rect style="display:none" class="hcell-act-col6-cat0" fill="#777" stroke="#000" stroke-width="5" width="70" height="385" x="0" y="-390" rx="8" ry="8"/><rect class="hcell-col6-cat0" fill="#777" stroke="#DDD" width="70" height="395" x="0" y="-395" rx="8" ry="8"/><text text-anchor="middle" fill="#FFF" x="35" y="-375">2534</text></a></g></g><rect fill="none" stroke="#DDD" width="70" height="30" rx="8" ry="8" x="85" y="410"/><text text-anchor="middle" fill="#333" x="120" y="430">12-12</text><g transform="translate(85,450)"><g><a target="_top" xlink:href="mob-sliceTagExpense-step2628000-ofs5-col6-cat0.html"><rect style="display:none" class="hcell-act-col6-cat0" fill="#777" stroke="#000" stroke-width="5" width="70" height="20" x="0" y="5" rx="8" ry="8"/><rect class="hcell-col6-cat0" fill="#777" stroke="#DDD" width="70" height="30" x="0" y="0" rx="8" ry="8"/><text text-anchor="middle" fill="#FFF" x="35" y="20">-12</text></a></g></g></g><g><g transform="translate(165,400)"><g><a target="_top" xlink:href="mob-sliceTagExpense-step2628000-ofs5-col7-cat0.html"><rect style="display:none" class="hcell-act-col7-cat0" fill="#777" stroke="#000" stroke-width="5" width="70" height="321" x="0" y="-326" rx="8" ry="8"/><rect class="hcell-col7-cat0" fill="#777" stroke="#DDD" width="70" height="331" x="0" y="-331" rx="8" ry="8"/><text text-anchor="middle" fill="#FFF" x="35" y="-311">2119</text></a></g></g><rect fill="none" stroke="#DDD" width="70" height="30" rx="8" ry="8" x="165" y="410"/><text text-anchor="middle" fill="#333" x="200" y="430">13-01</text><g transform="translate(165,450)"><g><a target="_top" xlink:href="mob-sliceTagExpense-step2628000-ofs5-col7-cat0.html"><rect style="display:none" class="hcell-act-col7-cat0" fill="#777" stroke="#000" stroke-width="5" width="70" height="20" x="0" y="5" rx="8" ry="8"/><rect class="hcell-col7-cat0" fill="#777" stroke="#DDD" width="70" height="30" x="0" y="0" rx="8" ry="8"/><text text-anchor="middle" fill="#FFF" x="35" y="20">-27</text></a></g></g></g><g><g transform="translate(245,400)"><g><a target="_top" xlink:href="mob-sliceTagExpense-step2628000-ofs5-col8-cat0.html"><rect style="display:none" class="hcell-act-col8-cat0" fill="#777" stroke="#000" stroke-width="5" width="70" height="374" x="0" y="-379" rx="8" ry="8"/><rect class="hcell-col8-cat0" fill="#777" stroke="#DDD" width="70" height="384" x="0" y="-384" rx="8" ry="8"/><text text-anchor="middle" fill="#FFF" x="35" y="-364">2462</text></a></g></g><rect fill="none" stroke="#DDD" width="70" height="30" rx="8" ry="8" x="245" y="410"/><text text-anchor="middle" fill="#333" x="280" y="430">13-03</text><g transform="translate(245,450)"><g><a target="_top" xlink:href="mob-sliceTagExpense-step2628000-ofs5-col8-cat0.html"><rect style="display:none" class="hcell-act-col8-cat0" fill="#777" stroke="#000" stroke-width="5" width="70" height="20" x="0" y="5" rx="8" ry="8"/><rect class="hcell-col8-cat0" fill="#777" stroke="#DDD" width="70" height="30" x="0" y="0" rx="8" ry="8"/><text text-anchor="middle" fill="#FFF" x="35" y="20">-16</text></a></g></g></g><g><g transform="translate(325,400)"><g><a target="_top" xlink:href="mob-sliceTagExpense-step2628000-ofs5-col9-cat0.html"><rect style="display:none" class="hcell-act-col9-cat0" fill="#777" stroke="#000" stroke-width="5" width="70" height="347" x="0" y="-352" rx="8" ry="8"/><rect class="hcell-col9-cat0" fill="#777" stroke="#DDD" width="70" height="357" x="0" y="-357" rx="8" ry="8"/><text text-anchor="middle" fill="#FFF" x="35" y="-337">2286</text></a></g></g><rect fill="none" stroke="#DDD" width="70" height="30" rx="8" ry="8" x="325" y="410"/><text text-anchor="middle" fill="#333" x="360" y="430">13-04</text><g transform="translate(325,450)"></g></g></svg>