<svg xmlns="http://www.w3.org/2000/svg" xmlns:xlink="http://www.w3.org/1999/xlink" width="100%" height="100%" viewBox="0 0 400 479"><g><g transform="translate(5,424)"><g><a target="_top" xlink:href="mob-slice2-step2628000-ofs20-col20-cat0.html"><rect style="display:none" class="hcell-act-col20-cat0" fill="#5CB85C" stroke="#000" stroke-width="5" width="70" height="20" x="0" y="-25" rx="8" ry="8"/><rect class="hcell-col20-cat0" fill="#5CB85C" stroke="#DDD" width="70" height="30" x="0" y="-30" rx="8" ry="8"/><text text-anchor="middle" fill="#FFF" x="35" y="-10">25</text></a></g></g><rect fill="none" stroke="#DDD" width="70" height="30" rx="8" ry="8" x="5" y="434"/><text text-anchor="middle" fill="#333" x="40" y="454">14-03</text><g transform="translate(5,474)"></g></g><g><g transform="translate(85,424)"><g><a target="_top" xlink:href="mob-slice2-step2628000-ofs20-col21-cat0.html"><rect style="display:none" class="hcell-act-col21-cat0" fill="#5CB85C" stroke="#000" stroke-width="5" width="70" height="20" x="0" y="-25" rx="8" ry="8"/><rect class="hcell-col21-cat0" fill="#5CB85C" stroke="#DDD" width="70" height="30" x="0" y="-30" rx="8" ry="8"/><text text-anchor="middle" fill="#FFF" x="35" y="-10">27</text></a><g transform="translate(0,-30)"><g><a target="_top" xlink:href="mob-slice2-step2628000-ofs20-col21-cat3.html"><rect style="display:none" class="hcell-act-col21-cat3" fill="#F0AD4E" stroke="#000" stroke-width="5" width="70" height="137" x="0" y="-142" rx="8" ry="8"/><rect class="hcell-col21-cat3" fill="#F0AD4E" stroke="#DDD" width="70" height="147" x="0" y="-147" rx="8" ry="8"/><text text-anchor="middle" fill="#FFF" x="35" y="-127">424</text></a><g transform="translate(0,-147)"><g><a target="_top" xlink:href="mob-slice2-step2628000-ofs20-col21-cat1.html"><rect style="display:none" class="hcell-act-col21-cat1" fill="#5BC0DE" stroke="#000" stroke-width="5" width="70" height="232" x="0" y="-237" rx="8" ry="8"/><rect class="hcell-col21-cat1" fill="#5BC0DE" stroke="#DDD" width="70" height="242" x="0" y="-242" rx="8" ry="8"/><text text-anchor="middle" fill="#FFF" x="35" y="-222">697</text></a></g></g></g></g></g></g><rect fill="none" stroke="#DDD" width="70" height="30" rx="8" ry="8" x="85" y="434"/><text text-anchor="middle" fill="#333" x="120" y="454">14-04</text><g transform="translate(85,474)"></g></g><g><g transform="translate(165,424)"><g><a target="_top" xlink:href="mob-slice2-step2628000-ofs20-col22-cat0.html"><rect style="display:none" class="hcell-act-col22-cat0" fill="#5CB85C" stroke="#000" stroke-width="5" width="70" height="20" x="0" y="-25" rx="8" ry="8"/><rect class="hcell-col22-cat0" fill="#5CB85C" stroke="#DDD" width="70" height="30" x="0" y="-30" rx="8" ry="8"/><text text-anchor="middle" fill="#FFF" x="35" y="-10">30</text></a></g></g><rect fill="none" stroke="#DDD" width="70" height="30" rx="8" ry="8" x="165" y="434"/><text text-anchor="middle" fill="#333" x="200" y="454">14-05</text><g transform="translate(165,474)"></g></g><g><g transform="translate(245,424)"><g><a target="_top" xlink:href="mob-slice2-step2628000-ofs20-col23-cat1.html"><rect style="display:none" class="hcell-act-col23-cat1" fill="#5BC0DE" stroke="#000" stroke-width="5" width="70" height="20" x="0" y="-25" rx="8" ry="8"/><rect class="hcell-col23-cat1" fill="#5BC0DE" stroke="#DDD" width="70" height="30" x="0" y="-30" rx="8" ry="8"/><text text-anchor="middle" fill="#FFF" x="35" y="-10">25</text></a><g transform="translate(0,-30)"><g><a target="_top" xlink:href="mob-slice2-step2628000-ofs20-col23-cat0.html"><rect style="display:none" class="hcell-act-col23-cat0" fill="#5CB85C" stroke="#000" stroke-width="5" width="70" height="20" x="0" y="-25" rx="8" ry="8"/><rect class="hcell-col23-cat0" fill="#5CB85C" stroke="#DDD" width="70" height="30" x="0" y="-30" rx="8" ry="8"/><text text-anchor="middle" fill="#FFF" x="35" y="-10">54</text></a></g></g></g></g><rect fill="none" stroke="#DDD" width="70" height="30" rx="8" ry="8" x="245" y="434"/><text text-anchor="middle" fill="#333" x="280" y="454">14-06</text><g transform="translate(245,474)"></g></g><g><g transform="translate(325,424)"><g><a target="_top" xlink:href="mob-slice2-step2628000-ofs20-col24-cat2.html"><rect style="display:none" class="hcell-act-col24-cat2" fill="#337AB7" stroke="#000" stroke-width="5" width="70" height="20" x="0" y="-25" rx="8" ry="8"/><rect class="hcell-col24-cat2" fill="#337AB7" stroke="#DDD" width="70" height="30" x="0" y="-30" rx="8" ry="8"/><text text-anchor="middle" fill="#FFF" x="35" y="-10">10</text></a><g transform="translate(0,-30)"><g><a target="_top" xlink:href="mob-slice2-step2628000-ofs20-col24-cat1.html"><rect style="display:none" class="hcell-act-col24-cat1" fill="#5BC0DE" stroke="#000" stroke-width="5" width="70" height="20" x="0" y="-25" rx="8" ry="8"/><rect class="hcell-col24-cat1" fill="#5BC0DE" stroke="#DDD" width="70" height="30" x="0" y="-30" rx="8" ry="8"/><text text-anchor="middle" fill="#FFF" x="35" y="-10">74</text></a></g></g></g></g><rect fill="none" stroke="#DDD" width="70" height="30" rx="8" ry="8" x="325" y="434"/><text text-anchor="middle" fill="#333" x="360" y="454">14-07</text><g transform="translate(325,474)"></g></g></svg>