<svg xmlns="http://www.w3.org/2000/svg" xmlns:xlink="http://www.w3.org/1999/xlink" width="100%" height="100%" viewBox="0 0 400 459"><g><g transform="translate(5,228)"><g><a target="_top" xlink:href="mob-sliceTagSavings2453-step17936641-ofs0-col0-cat0.html"><rect style="display:none" class="hcell-act-col0-cat0" fill="#777" stroke="#000" stroke-width="5" width="70" height="141" x="0" y="-146" rx="8" ry="8"/><rect class="hcell-col0-cat0" fill="#777" stroke="#DDD" width="70" height="151" x="0" y="-151" rx="8" ry="8"/><text text-anchor="middle" fill="#FFF" x="35" y="-131">2792</text></a></g></g><rect fill="none" stroke="#DDD" width="70" height="30" rx="8" ry="8" x="5" y="238"/><text text-anchor="middle" fill="#333" x="40" y="258">12-07</text><g transform="translate(5,278)"><g><a target="_top" xlink:href="mob-sliceTagSavings2453-step17936641-ofs0-col0-cat0.html"><rect style="display:none" class="hcell-act-col0-cat0" fill="#777" stroke="#000" stroke-width="5" width="70" height="49" x="0" y="5" rx="8" ry="8"/><rect class="hcell-col0-cat0" fill="#777" stroke="#DDD" width="70" height="59" x="0" y="0" rx="8" ry="8"/><text text-anchor="middle" fill="#FFF" x="35" y="20">-1099</text></a></g></g></g><g><g transform="translate(85,228)"><g><a target="_top" xlink:href="mob-sliceTagSavings2453-step17936641-ofs0-col1-cat0.html"><rect style="display:none" class="hcell-act-col1-cat0" fill="#777" stroke="#000" stroke-width="5" width="70" height="72" x="0" y="-77" rx="8" ry="8"/><rect class="hcell-col1-cat0" fill="#777" stroke="#DDD" width="70" height="82" x="0" y="-82" rx="8" ry="8"/><text text-anchor="middle" fill="#FFF" x="35" y="-62">1512</text></a></g></g><rect fill="none" stroke="#DDD" width="70" height="30" rx="8" ry="8" x="85" y="238"/><text text-anchor="middle" fill="#333" x="120" y="258">13-01</text><g transform="translate(85,278)"></g></g><g><g transform="translate(165,228)"><g><a target="_top" xlink:href="mob-sliceTagSavings2453-step17936641-ofs0-col2-cat0.html"><rect style="display:none" class="hcell-act-col2-cat0" fill="#777" stroke="#000" stroke-width="5" width="70" height="24" x="0" y="-29" rx="8" ry="8"/><rect class="hcell-col2-cat0" fill="#777" stroke="#DDD" width="70" height="34" x="0" y="-34" rx="8" ry="8"/><text text-anchor="middle" fill="#FFF" x="35" y="-14">640</text></a></g></g><rect fill="none" stroke="#DDD" width="70" height="30" rx="8" ry="8" x="165" y="238"/><text text-anchor="middle" fill="#333" x="200" y="258">13-08</text><g transform="translate(165,278)"><g><a target="_top" xlink:href="mob-sliceTagSavings2453-step17936641-ofs0-col2-cat0.html"><rect style="display:none" class="hcell-act-col2-cat0" fill="#777" stroke="#000" stroke-width="5" width="70" height="128" x="0" y="5" rx="8" ry="8"/><rect class="hcell-col2-cat0" fill="#777" stroke="#DDD" width="70" height="138" x="0" y="0" rx="8" ry="8"/><text text-anchor="middle" fill="#FFF" x="35" y="20">-2551</text></a></g></g></g><g><g transform="translate(245,228)"><g><a target="_top" xlink:href="mob-sliceTagSavings2453-step17936641-ofs0-col3-cat0.html"><rect style="display:none" class="hcell-act-col3-cat0" fill="#777" stroke="#000" stroke-width="5" width="70" height="213" x="0" y="-218" rx="8" ry="8"/><rect class="hcell-col3-cat0" fill="#777" stroke="#DDD" width="70" height="223" x="0" y="-223" rx="8" ry="8"/><text text-anchor="middle" fill="#FFF" x="35" y="-203">4120</text></a></g></g><rect fill="none" stroke="#DDD" width="70" height="30" rx="8" ry="8" x="245" y="238"/><text text-anchor="middle" fill="#333" x="280" y="258">14-03</text><g transform="translate(245,278)"><g><a target="_top" xlink:href="mob-sliceTagSavings2453-step17936641-ofs0-col3-cat0.html"><rect style="display:none" class="hcell-act-col3-cat0" fill="#777" stroke="#000" stroke-width="5" width="70" height="166" x="0" y="5" rx="8" ry="8"/><rect class="hcell-col3-cat0" fill="#777" stroke="#DDD" width="70" height="176" x="0" y="0" rx="8" ry="8"/><text text-anchor="middle" fill="#FFF" x="35" y="20">-3240</text></a></g></g></g><g><g transform="translate(325,228)"><g><a target="_top" xlink:href="mob-sliceTagSavings2453-step17936641-ofs0-col4-cat0.html"><rect style="display:none" class="hcell-act-col4-cat0" fill="#777" stroke="#000" stroke-width="5" width="70" height="22" x="0" y="-27" rx="8" ry="8"/><rect class="hcell-col4-cat0" fill="#777" stroke="#DDD" width="70" height="32" x="0" y="-32" rx="8" ry="8"/><text text-anchor="middle" fill="#FFF" x="35" y="-12">600</text></a></g></g><rect fill="none" stroke="#DDD" width="70" height="30" rx="8" ry="8" x="325" y="238"/><text text-anchor="middle" fill="#333" x="360" y="258">14-10</text><g transform="translate(325,278)"><g><a target="_top" xlink:href="mob-sliceTagSavings2453-step17936641-ofs0-col4-cat0.html"><rect style="display:none" class="hcell-act-col4-cat0" fill="#777" stroke="#000" stroke-width="5" width="70" height="58" x="0" y="5" rx="8" ry="8"/><rect class="hcell-col4-cat0" fill="#777" stroke="#DDD" width="70" height="68" x="0" y="0" rx="8" ry="8"/><text text-anchor="middle" fill="#FFF" x="35" y="20">-1260</text></a></g></g></g></svg>