<svg xmlns="http://www.w3.org/2000/svg" xmlns:xlink="http://www.w3.org/1999/xlink" width="100%" height="100%" viewBox="0 0 400 459"><g><g transform="translate(5,204)"></g><rect fill="none" stroke="#DDD" width="70" height="30" rx="8" ry="8" x="5" y="214"/><text text-anchor="middle" fill="#333" x="40" y="234">12-07</text><g transform="translate(5,254)"></g></g><g><g transform="translate(85,204)"></g><rect fill="none" stroke="#DDD" width="70" height="30" rx="8" ry="8" x="85" y="214"/><text text-anchor="middle" fill="#333" x="120" y="234">13-01</text><g transform="translate(85,254)"></g></g><g><g transform="translate(165,204)"></g><rect fill="none" stroke="#DDD" width="70" height="30" rx="8" ry="8" x="165" y="214"/><text text-anchor="middle" fill="#333" x="200" y="234">13-08</text><g transform="translate(165,254)"></g></g><g><g transform="translate(245,204)"><g><a target="_top" xlink:href="mob-slice6-step17936641-ofs0-col3-cat2.html"><rect style="display:none" class="hcell-act-col3-cat2" fill="#D9534F" stroke="#000" stroke-width="5" width="70" height="41" x="0" y="-46" rx="8" ry="8"/><rect class="hcell-col3-cat2" fill="#D9534F" stroke="#DDD" width="70" height="51" x="0" y="-51" rx="8" ry="8"/><text text-anchor="middle" fill="#FFF" x="35" y="-31">806</text></a><g transform="translate(0,-51)"><g><a target="_top" xlink:href="mob-slice6-step17936641-ofs0-col3-cat1.html"><rect style="display:none" class="hcell-act-col3-cat1" fill="#337AB7" stroke="#000" stroke-width="5" width="70" height="138" x="0" y="-143" rx="8" ry="8"/><rect class="hcell-col3-cat1" fill="#337AB7" stroke="#DDD" width="70" height="148" x="0" y="-148" rx="8" ry="8"/><text text-anchor="middle" fill="#FFF" x="35" y="-128">2302</text></a></g></g></g></g><rect fill="none" stroke="#DDD" width="70" height="30" rx="8" ry="8" x="245" y="214"/><text text-anchor="middle" fill="#333" x="280" y="234">14-03</text><g transform="translate(245,254)"><g><a target="_top" xlink:href="mob-slice6-step17936641-ofs0-col3-cat0.html"><rect style="display:none" class="hcell-act-col3-cat0" fill="#5CB85C" stroke="#000" stroke-width="5" width="70" height="190" x="0" y="5" rx="8" ry="8"/><rect class="hcell-col3-cat0" fill="#5CB85C" stroke="#DDD" width="70" height="200" x="0" y="0" rx="8" ry="8"/><text text-anchor="middle" fill="#FFF" x="35" y="20">-3110</text></a></g></g></g><g><g transform="translate(325,204)"><g><a target="_top" xlink:href="mob-slice6-step17936641-ofs0-col4-cat0.html"><rect style="display:none" class="hcell-act-col4-cat0" fill="#5CB85C" stroke="#000" stroke-width="5" width="70" height="52" x="0" y="-57" rx="8" ry="8"/><rect class="hcell-col4-cat0" fill="#5CB85C" stroke="#DDD" width="70" height="62" x="0" y="-62" rx="8" ry="8"/><text text-anchor="middle" fill="#FFF" x="35" y="-42">970</text></a></g></g><rect fill="none" stroke="#DDD" width="70" height="30" rx="8" ry="8" x="325" y="214"/><text text-anchor="middle" fill="#333" x="360" y="234">14-10</text><g transform="translate(325,254)"><g><a target="_top" xlink:href="mob-slice6-step17936641-ofs0-col4-cat2.html"><rect style="display:none" class="hcell-act-col4-cat2" fill="#D9534F" stroke="#000" stroke-width="5" width="70" height="20" x="0" y="5" rx="8" ry="8"/><rect class="hcell-col4-cat2" fill="#D9534F" stroke="#DDD" width="70" height="30" x="0" y="0" rx="8" ry="8"/><text text-anchor="middle" fill="#FFF" x="35" y="20">-307</text></a><g transform="translate(0,30)"><g><a target="_top" xlink:href="mob-slice6-step17936641-ofs0-col4-cat1.html"><rect style="display:none" class="hcell-act-col4-cat1" fill="#337AB7" stroke="#000" stroke-width="5" width="70" height="32" x="0" y="5" rx="8" ry="8"/><rect class="hcell-col4-cat1" fill="#337AB7" stroke="#DDD" width="70" height="42" x="0" y="0" rx="8" ry="8"/><text text-anchor="middle" fill="#FFF" x="35" y="20">-665</text></a></g></g></g></g></g></svg>