<svg xmlns="http://www.w3.org/2000/svg" xmlns:xlink="http://www.w3.org/1999/xlink" width="100%" height="100%" viewBox="0 0 400 566"><g><g transform="translate(5,451)"><g><a target="_top" xlink:href="mob-slice0-step17936641-ofs0-col0-cat5.html"><rect style="display:none" class="hcell-act-col0-cat5" fill="#777" stroke="#000" stroke-width="5" width="70" height="20" x="0" y="-25" rx="8" ry="8"/><rect class="hcell-col0-cat5" fill="#777" stroke="#DDD" width="70" height="30" x="0" y="-30" rx="8" ry="8"/><text text-anchor="middle" fill="#FFF" x="35" y="-10">195</text></a><g transform="translate(0,-30)"><g><a target="_top" xlink:href="mob-slice0-step17936641-ofs0-col0-cat2.html"><rect style="display:none" class="hcell-act-col0-cat2" fill="#5CB85C" stroke="#000" stroke-width="5" width="70" height="20" x="0" y="-25" rx="8" ry="8"/><rect class="hcell-col0-cat2" fill="#5CB85C" stroke="#DDD" width="70" height="30" x="0" y="-30" rx="8" ry="8"/><text text-anchor="middle" fill="#FFF" x="35" y="-10">653</text></a><g transform="translate(0,-30)"><g><a target="_top" xlink:href="mob-slice0-step17936641-ofs0-col0-cat3.html"><rect style="display:none" class="hcell-act-col0-cat3" fill="#5BC0DE" stroke="#000" stroke-width="5" width="70" height="20" x="0" y="-25" rx="8" ry="8"/><rect class="hcell-col0-cat3" fill="#5BC0DE" stroke="#DDD" width="70" height="30" x="0" y="-30" rx="8" ry="8"/><text text-anchor="middle" fill="#FFF" x="35" y="-10">857</text></a><g transform="translate(0,-30)"><g><a target="_top" xlink:href="mob-slice0-step17936641-ofs0-col0-cat4.html"><rect style="display:none" class="hcell-act-col0-cat4" fill="#337AB7" stroke="#000" stroke-width="5" width="70" height="20" x="0" y="-25" rx="8" ry="8"/><rect class="hcell-col0-cat4" fill="#337AB7" stroke="#DDD" width="70" height="30" x="0" y="-30" rx="8" ry="8"/><text text-anchor="middle" fill="#FFF" x="35" y="-10">1432</text></a><g transform="translate(0,-30)"><g><a target="_top" xlink:href="mob-slice0-step17936641-ofs0-col0-cat1.html"><rect style="display:none" class="hcell-act-col0-cat1" fill="#F0AD4E" stroke="#000" stroke-width="5" width="70" height="50" x="0" y="-55" rx="8" ry="8"/><rect class="hcell-col0-cat1" fill="#F0AD4E" stroke="#DDD" width="70" height="60" x="0" y="-60" rx="8" ry="8"/><text text-anchor="middle" fill="#FFF" x="35" y="-40">3805</text></a><g transform="translate(0,-60)"><g><a target="_top" xlink:href="mob-slice0-step17936641-ofs0-col0-cat0.html"><rect style="display:none" class="hcell-act-col0-cat0" fill="#D9534F" stroke="#000" stroke-width="5" width="70" height="129" x="0" y="-134" rx="8" ry="8"/><rect class="hcell-col0-cat0" fill="#D9534F" stroke="#DDD" width="70" height="139" x="0" y="-139" rx="8" ry="8"/><text text-anchor="middle" fill="#FFF" x="35" y="-119">8771</text></a></g></g></g></g></g></g></g></g></g></g></g></g><rect fill="none" stroke="#DDD" width="70" height="30" rx="8" ry="8" x="5" y="461"/><text text-anchor="middle" fill="#333" x="40" y="481">12-07</text><g transform="translate(5,501)"><g><a target="_top" xlink:href="mob-slice0-step17936641-ofs0-col0-cat5.html"><rect style="display:none" class="hcell-act-col0-cat5" fill="#777" stroke="#000" stroke-width="5" width="70" height="20" x="0" y="5" rx="8" ry="8"/><rect class="hcell-col0-cat5" fill="#777" stroke="#DDD" width="70" height="30" x="0" y="0" rx="8" ry="8"/><text text-anchor="middle" fill="#FFF" x="35" y="20">-71</text></a><g transform="translate(0,30)"><g><a target="_top" xlink:href="mob-slice0-step17936641-ofs0-col0-cat4.html"><rect style="display:none" class="hcell-act-col0-cat4" fill="#337AB7" stroke="#000" stroke-width="5" width="70" height="20" x="0" y="5" rx="8" ry="8"/><rect class="hcell-col0-cat4" fill="#337AB7" stroke="#DDD" width="70" height="30" x="0" y="0" rx="8" ry="8"/><text text-anchor="middle" fill="#FFF" x="35" y="20">-231</text></a></g></g></g></g></g><g><g transform="translate(85,451)"><g><a target="_top" xlink:href="mob-slice0-step17936641-ofs0-col1-cat5.html"><rect style="display:none" class="hcell-act-col1-cat5" fill="#777" stroke="#000" stroke-width="5" width="70" height="20" x="0" y="-25" rx="8" ry="8"/><rect class="hcell-col1-cat5" fill="#777" stroke="#DDD" width="70" height="30" x="0" y="-30" rx="8" ry="8"/><text text-anchor="middle" fill="#FFF" x="35" y="-10">95</text></a><g transform="translate(0,-30)"><g><a target="_top" xlink:href="mob-slice0-step17936641-ofs0-col1-cat3.html"><rect style="display:none" class="hcell-act-col1-cat3" fill="#5BC0DE" stroke="#000" stroke-width="5" width="70" height="20" x="0" y="-25" rx="8" ry="8"/><rect class="hcell-col1-cat3" fill="#5BC0DE" stroke="#DDD" width="70" height="30" x="0" y="-30" rx="8" ry="8"/><text text-anchor="middle" fill="#FFF" x="35" y="-10">668</text></a><g transform="translate(0,-30)"><g><a target="_top" xlink:href="mob-slice0-step17936641-ofs0-col1-cat2.html"><rect style="display:none" class="hcell-act-col1-cat2" fill="#5CB85C" stroke="#000" stroke-width="5" width="70" height="20" x="0" y="-25" rx="8" ry="8"/><rect class="hcell-col1-cat2" fill="#5CB85C" stroke="#DDD" width="70" height="30" x="0" y="-30" rx="8" ry="8"/><text text-anchor="middle" fill="#FFF" x="35" y="-10">950</text></a><g transform="translate(0,-30)"><g><a target="_top" xlink:href="mob-slice0-step17936641-ofs0-col1-cat4.html"><rect style="display:none" class="hcell-act-col1-cat4" fill="#337AB7" stroke="#000" stroke-width="5" width="70" height="23" x="0" y="-28" rx="8" ry="8"/><rect class="hcell-col1-cat4" fill="#337AB7" stroke="#DDD" width="70" height="33" x="0" y="-33" rx="8" ry="8"/><text text-anchor="middle" fill="#FFF" x="35" y="-13">2109</text></a><g transform="translate(0,-33)"><g><a target="_top" xlink:href="mob-slice0-step17936641-ofs0-col1-cat1.html"><rect style="display:none" class="hcell-act-col1-cat1" fill="#F0AD4E" stroke="#000" stroke-width="5" width="70" height="46" x="0" y="-51" rx="8" ry="8"/><rect class="hcell-col1-cat1" fill="#F0AD4E" stroke="#DDD" width="70" height="56" x="0" y="-56" rx="8" ry="8"/><text text-anchor="middle" fill="#FFF" x="35" y="-36">3552</text></a><g transform="translate(0,-56)"><g><a target="_top" xlink:href="mob-slice0-step17936641-ofs0-col1-cat0.html"><rect style="display:none" class="hcell-act-col1-cat0" fill="#D9534F" stroke="#000" stroke-width="5" width="70" height="156" x="0" y="-161" rx="8" ry="8"/><rect class="hcell-col1-cat0" fill="#D9534F" stroke="#DDD" width="70" height="166" x="0" y="-166" rx="8" ry="8"/><text text-anchor="middle" fill="#FFF" x="35" y="-146">10518</text></a></g></g></g></g></g></g></g></g></g></g></g></g><rect fill="none" stroke="#DDD" width="70" height="30" rx="8" ry="8" x="85" y="461"/><text text-anchor="middle" fill="#333" x="120" y="481">13-01</text><g transform="translate(85,501)"><g><a target="_top" xlink:href="mob-slice0-step17936641-ofs0-col1-cat4.html"><rect style="display:none" class="hcell-act-col1-cat4" fill="#337AB7" stroke="#000" stroke-width="5" width="70" height="20" x="0" y="5" rx="8" ry="8"/><rect class="hcell-col1-cat4" fill="#337AB7" stroke="#DDD" width="70" height="30" x="0" y="0" rx="8" ry="8"/><text text-anchor="middle" fill="#FFF" x="35" y="20">-59</text></a><g transform="translate(0,30)"><g><a target="_top" xlink:href="mob-slice0-step17936641-ofs0-col1-cat5.html"><rect style="display:none" class="hcell-act-col1-cat5" fill="#777" stroke="#000" stroke-width="5" width="70" height="20" x="0" y="5" rx="8" ry="8"/><rect class="hcell-col1-cat5" fill="#777" stroke="#DDD" width="70" height="30" x="0" y="0" rx="8" ry="8"/><text text-anchor="middle" fill="#FFF" x="35" y="20">-173</text></a></g></g></g></g></g><g><g transform="translate(165,451)"><g><a target="_top" xlink:href="mob-slice0-step17936641-ofs0-col2-cat5.html"><rect style="display:none" class="hcell-act-col2-cat5" fill="#777" stroke="#000" stroke-width="5" width="70" height="20" x="0" y="-25" rx="8" ry="8"/><rect class="hcell-col2-cat5" fill="#777" stroke="#DDD" width="70" height="30" x="0" y="-30" rx="8" ry="8"/><text text-anchor="middle" fill="#FFF" x="35" y="-10">131</text></a><g transform="translate(0,-30)"><g><a target="_top" xlink:href="mob-slice0-step17936641-ofs0-col2-cat3.html"><rect style="display:none" class="hcell-act-col2-cat3" fill="#5BC0DE" stroke="#000" stroke-width="5" width="70" height="20" x="0" y="-25" rx="8" ry="8"/><rect class="hcell-col2-cat3" fill="#5BC0DE" stroke="#DDD" width="70" height="30" x="0" y="-30" rx="8" ry="8"/><text text-anchor="middle" fill="#FFF" x="35" y="-10">517</text></a><g transform="translate(0,-30)"><g><a target="_top" xlink:href="mob-slice0-step17936641-ofs0-col2-cat2.html"><rect style="display:none" class="hcell-act-col2-cat2" fill="#5CB85C" stroke="#000" stroke-width="5" width="70" height="20" x="0" y="-25" rx="8" ry="8"/><rect class="hcell-col2-cat2" fill="#5CB85C" stroke="#DDD" width="70" height="30" x="0" y="-30" rx="8" ry="8"/><text text-anchor="middle" fill="#FFF" x="35" y="-10">1180</text></a><g transform="translate(0,-30)"><g><a target="_top" xlink:href="mob-slice0-step17936641-ofs0-col2-cat4.html"><rect style="display:none" class="hcell-act-col2-cat4" fill="#337AB7" stroke="#000" stroke-width="5" width="70" height="23" x="0" y="-28" rx="8" ry="8"/><rect class="hcell-col2-cat4" fill="#337AB7" stroke="#DDD" width="70" height="33" x="0" y="-33" rx="8" ry="8"/><text text-anchor="middle" fill="#FFF" x="35" y="-13">2085</text></a><g transform="translate(0,-33)"><g><a target="_top" xlink:href="mob-slice0-step17936641-ofs0-col2-cat1.html"><rect style="display:none" class="hcell-act-col2-cat1" fill="#F0AD4E" stroke="#000" stroke-width="5" width="70" height="40" x="0" y="-45" rx="8" ry="8"/><rect class="hcell-col2-cat1" fill="#F0AD4E" stroke="#DDD" width="70" height="50" x="0" y="-50" rx="8" ry="8"/><text text-anchor="middle" fill="#FFF" x="35" y="-30">3201</text></a><g transform="translate(0,-50)"><g><a target="_top" xlink:href="mob-slice0-step17936641-ofs0-col2-cat0.html"><rect style="display:none" class="hcell-act-col2-cat0" fill="#D9534F" stroke="#000" stroke-width="5" width="70" height="128" x="0" y="-133" rx="8" ry="8"/><rect class="hcell-col2-cat0" fill="#D9534F" stroke="#DDD" width="70" height="138" x="0" y="-138" rx="8" ry="8"/><text text-anchor="middle" fill="#FFF" x="35" y="-118">8734</text></a></g></g></g></g></g></g></g></g></g></g></g></g><rect fill="none" stroke="#DDD" width="70" height="30" rx="8" ry="8" x="165" y="461"/><text text-anchor="middle" fill="#333" x="200" y="481">13-08</text><g transform="translate(165,501)"><g><a target="_top" xlink:href="mob-slice0-step17936641-ofs0-col2-cat4.html"><rect style="display:none" class="hcell-act-col2-cat4" fill="#337AB7" stroke="#000" stroke-width="5" width="70" height="20" x="0" y="5" rx="8" ry="8"/><rect class="hcell-col2-cat4" fill="#337AB7" stroke="#DDD" width="70" height="30" x="0" y="0" rx="8" ry="8"/><text text-anchor="middle" fill="#FFF" x="35" y="20">-34</text></a><g transform="translate(0,30)"><g><a target="_top" xlink:href="mob-slice0-step17936641-ofs0-col2-cat5.html"><rect style="display:none" class="hcell-act-col2-cat5" fill="#777" stroke="#000" stroke-width="5" width="70" height="20" x="0" y="5" rx="8" ry="8"/><rect class="hcell-col2-cat5" fill="#777" stroke="#DDD" width="70" height="30" x="0" y="0" rx="8" ry="8"/><text text-anchor="middle" fill="#FFF" x="35" y="20">-98</text></a></g></g></g></g></g><g><g transform="translate(245,451)"><g><a target="_top" xlink:href="mob-slice0-step17936641-ofs0-col3-cat5.html"><rect style="display:none" class="hcell-act-col3-cat5" fill="#777" stroke="#000" stroke-width="5" width="70" height="20" x="0" y="-25" rx="8" ry="8"/><rect class="hcell-col3-cat5" fill="#777" stroke="#DDD" width="70" height="30" x="0" y="-30" rx="8" ry="8"/><text text-anchor="middle" fill="#FFF" x="35" y="-10">133</text></a><g transform="translate(0,-30)"><g><a target="_top" xlink:href="mob-slice0-step17936641-ofs0-col3-cat3.html"><rect style="display:none" class="hcell-act-col3-cat3" fill="#5BC0DE" stroke="#000" stroke-width="5" width="70" height="20" x="0" y="-25" rx="8" ry="8"/><rect class="hcell-col3-cat3" fill="#5BC0DE" stroke="#DDD" width="70" height="30" x="0" y="-30" rx="8" ry="8"/><text text-anchor="middle" fill="#FFF" x="35" y="-10">610</text></a><g transform="translate(0,-30)"><g><a target="_top" xlink:href="mob-slice0-step17936641-ofs0-col3-cat2.html"><rect style="display:none" class="hcell-act-col3-cat2" fill="#5CB85C" stroke="#000" stroke-width="5" width="70" height="20" x="0" y="-25" rx="8" ry="8"/><rect class="hcell-col3-cat2" fill="#5CB85C" stroke="#DDD" width="70" height="30" x="0" y="-30" rx="8" ry="8"/><text text-anchor="middle" fill="#FFF" x="35" y="-10">1617</text></a><g transform="translate(0,-30)"><g><a target="_top" xlink:href="mob-slice0-step17936641-ofs0-col3-cat4.html"><rect style="display:none" class="hcell-act-col3-cat4" fill="#337AB7" stroke="#000" stroke-width="5" width="70" height="64" x="0" y="-69" rx="8" ry="8"/><rect class="hcell-col3-cat4" fill="#337AB7" stroke="#DDD" width="70" height="74" x="0" y="-74" rx="8" ry="8"/><text text-anchor="middle" fill="#FFF" x="35" y="-54">4714</text></a><g transform="translate(0,-74)"><g><a target="_top" xlink:href="mob-slice0-step17936641-ofs0-col3-cat1.html"><rect style="display:none" class="hcell-act-col3-cat1" fill="#F0AD4E" stroke="#000" stroke-width="5" width="70" height="79" x="0" y="-84" rx="8" ry="8"/><rect class="hcell-col3-cat1" fill="#F0AD4E" stroke="#DDD" width="70" height="89" x="0" y="-89" rx="8" ry="8"/><text text-anchor="middle" fill="#FFF" x="35" y="-69">5634</text></a><g transform="translate(0,-89)"><g><a target="_top" xlink:href="mob-slice0-step17936641-ofs0-col3-cat0.html"><rect style="display:none" class="hcell-act-col3-cat0" fill="#D9534F" stroke="#000" stroke-width="5" width="70" height="183" x="0" y="-188" rx="8" ry="8"/><rect class="hcell-col3-cat0" fill="#D9534F" stroke="#DDD" width="70" height="193" x="0" y="-193" rx="8" ry="8"/><text text-anchor="middle" fill="#FFF" x="35" y="-173">12208</text></a></g></g></g></g></g></g></g></g></g></g></g></g><rect fill="none" stroke="#DDD" width="70" height="30" rx="8" ry="8" x="245" y="461"/><text text-anchor="middle" fill="#333" x="280" y="481">14-03</text><g transform="translate(245,501)"><g><a target="_top" xlink:href="mob-slice0-step17936641-ofs0-col3-cat5.html"><rect style="display:none" class="hcell-act-col3-cat5" fill="#777" stroke="#000" stroke-width="5" width="70" height="20" x="0" y="5" rx="8" ry="8"/><rect class="hcell-col3-cat5" fill="#777" stroke="#DDD" width="70" height="30" x="0" y="0" rx="8" ry="8"/><text text-anchor="middle" fill="#FFF" x="35" y="20">-13</text></a><g transform="translate(0,30)"><g><a target="_top" xlink:href="mob-slice0-step17936641-ofs0-col3-cat4.html"><rect style="display:none" class="hcell-act-col3-cat4" fill="#337AB7" stroke="#000" stroke-width="5" width="70" height="20" x="0" y="5" rx="8" ry="8"/><rect class="hcell-col3-cat4" fill="#337AB7" stroke="#DDD" width="70" height="30" x="0" y="0" rx="8" ry="8"/><text text-anchor="middle" fill="#FFF" x="35" y="20">-120</text></a></g></g></g></g></g><g><g transform="translate(325,451)"><g><a target="_top" xlink:href="mob-slice0-step17936641-ofs0-col4-cat5.html"><rect style="display:none" class="hcell-act-col4-cat5" fill="#777" stroke="#000" stroke-width="5" width="70" height="20" x="0" y="-25" rx="8" ry="8"/><rect class="hcell-col4-cat5" fill="#777" stroke="#DDD" width="70" height="30" x="0" y="-30" rx="8" ry="8"/><text text-anchor="middle" fill="#FFF" x="35" y="-10">140</text></a><g transform="translate(0,-30)"><g><a target="_top" xlink:href="mob-slice0-step17936641-ofs0-col4-cat3.html"><rect style="display:none" class="hcell-act-col4-cat3" fill="#5BC0DE" stroke="#000" stroke-width="5" width="70" height="20" x="0" y="-25" rx="8" ry="8"/><rect class="hcell-col4-cat3" fill="#5BC0DE" stroke="#DDD" width="70" height="30" x="0" y="-30" rx="8" ry="8"/><text text-anchor="middle" fill="#FFF" x="35" y="-10">560</text></a><g transform="translate(0,-30)"><g><a target="_top" xlink:href="mob-slice0-step17936641-ofs0-col4-cat4.html"><rect style="display:none" class="hcell-act-col4-cat4" fill="#337AB7" stroke="#000" stroke-width="5" width="70" height="24" x="0" y="-29" rx="8" ry="8"/><rect class="hcell-col4-cat4" fill="#337AB7" stroke="#DDD" width="70" height="34" x="0" y="-34" rx="8" ry="8"/><text text-anchor="middle" fill="#FFF" x="35" y="-14">2170</text></a><g transform="translate(0,-34)"><g><a target="_top" xlink:href="mob-slice0-step17936641-ofs0-col4-cat2.html"><rect style="display:none" class="hcell-act-col4-cat2" fill="#5CB85C" stroke="#000" stroke-width="5" width="70" height="25" x="0" y="-30" rx="8" ry="8"/><rect class="hcell-col4-cat2" fill="#5CB85C" stroke="#DDD" width="70" height="35" x="0" y="-35" rx="8" ry="8"/><text text-anchor="middle" fill="#FFF" x="35" y="-15">2240</text></a><g transform="translate(0,-35)"><g><a target="_top" xlink:href="mob-slice0-step17936641-ofs0-col4-cat1.html"><rect style="display:none" class="hcell-act-col4-cat1" fill="#F0AD4E" stroke="#000" stroke-width="5" width="70" height="67" x="0" y="-72" rx="8" ry="8"/><rect class="hcell-col4-cat1" fill="#F0AD4E" stroke="#DDD" width="70" height="77" x="0" y="-77" rx="8" ry="8"/><text text-anchor="middle" fill="#FFF" x="35" y="-57">4900</text></a><g transform="translate(0,-77)"><g><a target="_top" xlink:href="mob-slice0-step17936641-ofs0-col4-cat0.html"><rect style="display:none" class="hcell-act-col4-cat0" fill="#D9534F" stroke="#000" stroke-width="5" width="70" height="151" x="0" y="-156" rx="8" ry="8"/><rect class="hcell-col4-cat0" fill="#D9534F" stroke="#DDD" width="70" height="161" x="0" y="-161" rx="8" ry="8"/><text text-anchor="middle" fill="#FFF" x="35" y="-141">10151</text></a></g></g></g></g></g></g></g></g></g></g></g></g><rect fill="none" stroke="#DDD" width="70" height="30" rx="8" ry="8" x="325" y="461"/><text text-anchor="middle" fill="#333" x="360" y="481">14-10</text><g transform="translate(325,501)"></g></g></svg>