<svg xmlns="http://www.w3.org/2000/svg" xmlns:xlink="http://www.w3.org/1999/xlink" width="100%" height="100%" viewBox="0 0 400 459"><g><g transform="translate(5,211)"><g><a target="_top" xlink:href="mob-sliceTagWindyVault-step17936641-ofs0-col0-cat0.html"><rect style="display:none" class="hcell-act-col0-cat0" fill="#777" stroke="#000" stroke-width="5" width="70" height="172" x="0" y="-177" rx="8" ry="8"/><rect class="hcell-col0-cat0" fill="#777" stroke="#DDD" width="70" height="182" x="0" y="-182" rx="8" ry="8"/><text text-anchor="middle" fill="#FFF" x="35" y="-162">22613</text></a></g></g><rect fill="none" stroke="#DDD" width="70" height="30" rx="8" ry="8" x="5" y="221"/><text text-anchor="middle" fill="#333" x="40" y="241">12-07</text><g transform="translate(5,261)"><g><a target="_top" xlink:href="mob-sliceTagWindyVault-step17936641-ofs0-col0-cat0.html"><rect style="display:none" class="hcell-act-col0-cat0" fill="#777" stroke="#000" stroke-width="5" width="70" height="130" x="0" y="5" rx="8" ry="8"/><rect class="hcell-col0-cat0" fill="#777" stroke="#DDD" width="70" height="140" x="0" y="0" rx="8" ry="8"/><text text-anchor="middle" fill="#FFF" x="35" y="20">-17488</text></a></g></g></g><g><g transform="translate(85,211)"><g><a target="_top" xlink:href="mob-sliceTagWindyVault-step17936641-ofs0-col1-cat0.html"><rect style="display:none" class="hcell-act-col1-cat0" fill="#777" stroke="#000" stroke-width="5" width="70" height="196" x="0" y="-201" rx="8" ry="8"/><rect class="hcell-col1-cat0" fill="#777" stroke="#DDD" width="70" height="206" x="0" y="-206" rx="8" ry="8"/><text text-anchor="middle" fill="#FFF" x="35" y="-186">25609</text></a></g></g><rect fill="none" stroke="#DDD" width="70" height="30" rx="8" ry="8" x="85" y="221"/><text text-anchor="middle" fill="#333" x="120" y="241">13-01</text><g transform="translate(85,261)"><g><a target="_top" xlink:href="mob-sliceTagWindyVault-step17936641-ofs0-col1-cat0.html"><rect style="display:none" class="hcell-act-col1-cat0" fill="#777" stroke="#000" stroke-width="5" width="70" height="183" x="0" y="5" rx="8" ry="8"/><rect class="hcell-col1-cat0" fill="#777" stroke="#DDD" width="70" height="193" x="0" y="0" rx="8" ry="8"/><text text-anchor="middle" fill="#FFF" x="35" y="20">-24015</text></a></g></g></g><g><g transform="translate(165,211)"><g><a target="_top" xlink:href="mob-sliceTagWindyVault-step17936641-ofs0-col2-cat0.html"><rect style="display:none" class="hcell-act-col2-cat0" fill="#777" stroke="#000" stroke-width="5" width="70" height="165" x="0" y="-170" rx="8" ry="8"/><rect class="hcell-col2-cat0" fill="#777" stroke="#DDD" width="70" height="175" x="0" y="-175" rx="8" ry="8"/><text text-anchor="middle" fill="#FFF" x="35" y="-155">21758</text></a></g></g><rect fill="none" stroke="#DDD" width="70" height="30" rx="8" ry="8" x="165" y="221"/><text text-anchor="middle" fill="#333" x="200" y="241">13-08</text><g transform="translate(165,261)"><g><a target="_top" xlink:href="mob-sliceTagWindyVault-step17936641-ofs0-col2-cat0.html"><rect style="display:none" class="hcell-act-col2-cat0" fill="#777" stroke="#000" stroke-width="5" width="70" height="169" x="0" y="5" rx="8" ry="8"/><rect class="hcell-col2-cat0" fill="#777" stroke="#DDD" width="70" height="179" x="0" y="0" rx="8" ry="8"/><text text-anchor="middle" fill="#FFF" x="35" y="20">-22239</text></a></g></g></g><g><g transform="translate(245,211)"><g><a target="_top" xlink:href="mob-sliceTagWindyVault-step17936641-ofs0-col3-cat0.html"><rect style="display:none" class="hcell-act-col3-cat0" fill="#777" stroke="#000" stroke-width="5" width="70" height="116" x="0" y="-121" rx="8" ry="8"/><rect class="hcell-col3-cat0" fill="#777" stroke="#DDD" width="70" height="126" x="0" y="-126" rx="8" ry="8"/><text text-anchor="middle" fill="#FFF" x="35" y="-106">15684</text></a></g></g><rect fill="none" stroke="#DDD" width="70" height="30" rx="8" ry="8" x="245" y="221"/><text text-anchor="middle" fill="#333" x="280" y="241">14-03</text><g transform="translate(245,261)"><g><a target="_top" xlink:href="mob-sliceTagWindyVault-step17936641-ofs0-col3-cat0.html"><rect style="display:none" class="hcell-act-col3-cat0" fill="#777" stroke="#000" stroke-width="5" width="70" height="127" x="0" y="5" rx="8" ry="8"/><rect class="hcell-col3-cat0" fill="#777" stroke="#DDD" width="70" height="137" x="0" y="0" rx="8" ry="8"/><text text-anchor="middle" fill="#FFF" x="35" y="20">-17044</text></a></g></g></g><g><g transform="translate(325,211)"></g><rect fill="none" stroke="#DDD" width="70" height="30" rx="8" ry="8" x="325" y="221"/><text text-anchor="middle" fill="#333" x="360" y="241">14-10</text><g transform="translate(325,261)"></g></g></svg>