<svg xmlns="http://www.w3.org/2000/svg" xmlns:xlink="http://www.w3.org/1999/xlink" width="100%" height="100%" viewBox="0 0 400 459"><g><g transform="translate(5,175)"><g><a target="_top" xlink:href="mob-sliceTagChecking1042-step2628000-ofs35-col35-cat0.html"><rect style="display:none" class="hcell-act-col35-cat0" fill="#777" stroke="#000" stroke-width="5" width="70" height="160" x="0" y="-165" rx="8" ry="8"/><rect class="hcell-col35-cat0" fill="#777" stroke="#DDD" width="70" height="170" x="0" y="-170" rx="8" ry="8"/><text text-anchor="middle" fill="#FFF" x="35" y="-150">2600</text></a></g></g><rect fill="none" stroke="#DDD" width="70" height="30" rx="8" ry="8" x="5" y="185"/><text text-anchor="middle" fill="#333" x="40" y="205">15-06</text><g transform="translate(5,225)"><g><a target="_top" xlink:href="mob-sliceTagChecking1042-step2628000-ofs35-col35-cat0.html"><rect style="display:none" class="hcell-act-col35-cat0" fill="#777" stroke="#000" stroke-width="5" width="70" height="192" x="0" y="5" rx="8" ry="8"/><rect class="hcell-col35-cat0" fill="#777" stroke="#DDD" width="70" height="202" x="0" y="0" rx="8" ry="8"/><text text-anchor="middle" fill="#FFF" x="35" y="20">-3090</text></a></g></g></g><g><g transform="translate(85,175)"><g><a target="_top" xlink:href="mob-sliceTagChecking1042-step2628000-ofs35-col36-cat0.html"><rect style="display:none" class="hcell-act-col36-cat0" fill="#777" stroke="#000" stroke-width="5" width="70" height="160" x="0" y="-165" rx="8" ry="8"/><rect class="hcell-col36-cat0" fill="#777" stroke="#DDD" width="70" height="170" x="0" y="-170" rx="8" ry="8"/><text text-anchor="middle" fill="#FFF" x="35" y="-150">2600</text></a></g></g><rect fill="none" stroke="#DDD" width="70" height="30" rx="8" ry="8" x="85" y="185"/><text text-anchor="middle" fill="#333" x="120" y="205">15-07</text><g transform="translate(85,225)"><g><a target="_top" xlink:href="mob-sliceTagChecking1042-step2628000-ofs35-col36-cat0.html"><rect style="display:none" class="hcell-act-col36-cat0" fill="#777" stroke="#000" stroke-width="5" width="70" height="219" x="0" y="5" rx="8" ry="8"/><rect class="hcell-col36-cat0" fill="#777" stroke="#DDD" width="70" height="229" x="0" y="0" rx="8" ry="8"/><text text-anchor="middle" fill="#FFF" x="35" y="20">-3490</text></a></g></g></g><g><g transform="translate(165,175)"></g><rect fill="none" stroke="#DDD" width="70" height="30" rx="8" ry="8" x="165" y="185"/><text text-anchor="middle" fill="#333" x="200" y="205">15-08</text><g transform="translate(165,225)"></g></g><g><g transform="translate(245,175)"></g><rect fill="none" stroke="#DDD" width="70" height="30" rx="8" ry="8" x="245" y="185"/><text text-anchor="middle" fill="#333" x="280" y="205">15-08</text><g transform="translate(245,225)"></g></g><g><g transform="translate(325,175)"></g><rect fill="none" stroke="#DDD" width="70" height="30" rx="8" ry="8" x="325" y="185"/><text text-anchor="middle" fill="#333" x="360" y="205">15-10</text><g transform="translate(325,225)"></g></g></svg>