<svg xmlns="http://www.w3.org/2000/svg" xmlns:xlink="http://www.w3.org/1999/xlink" width="100%" height="100%" viewBox="0 0 400 459"><g><g transform="translate(5,316)"></g><rect fill="none" stroke="#DDD" width="70" height="30" rx="8" ry="8" x="5" y="326"/><text text-anchor="middle" fill="#333" x="40" y="346">14-08</text><g transform="translate(5,366)"><g><a target="_top" xlink:href="mob-sliceTagWeight-step2628000-ofs25-col25-cat0.html"><rect style="display:none" class="hcell-act-col25-cat0" fill="#777" stroke="#000" stroke-width="5" width="70" height="75" x="0" y="5" rx="8" ry="8"/><rect class="hcell-col25-cat0" fill="#777" stroke="#DDD" width="70" height="85" x="0" y="0" rx="8" ry="8"/><text text-anchor="middle" fill="#FFF" x="35" y="20">-6</text></a></g></g></g><g><g transform="translate(85,316)"></g><rect fill="none" stroke="#DDD" width="70" height="30" rx="8" ry="8" x="85" y="326"/><text text-anchor="middle" fill="#333" x="120" y="346">14-08</text><g transform="translate(85,366)"><g><a target="_top" xlink:href="mob-sliceTagWeight-step2628000-ofs25-col26-cat0.html"><rect style="display:none" class="hcell-act-col26-cat0" fill="#777" stroke="#000" stroke-width="5" width="70" height="20" x="0" y="5" rx="8" ry="8"/><rect class="hcell-col26-cat0" fill="#777" stroke="#DDD" width="70" height="30" x="0" y="0" rx="8" ry="8"/><text text-anchor="middle" fill="#FFF" x="35" y="20">-2</text></a></g></g></g><g><g transform="translate(165,316)"><g><a target="_top" xlink:href="mob-sliceTagWeight-step2628000-ofs25-col27-cat0.html"><rect style="display:none" class="hcell-act-col27-cat0" fill="#777" stroke="#000" stroke-width="5" width="70" height="301" x="0" y="-306" rx="8" ry="8"/><rect class="hcell-col27-cat0" fill="#777" stroke="#DDD" width="70" height="311" x="0" y="-311" rx="8" ry="8"/><text text-anchor="middle" fill="#FFF" x="35" y="-291">20</text></a></g></g><rect fill="none" stroke="#DDD" width="70" height="30" rx="8" ry="8" x="165" y="326"/><text text-anchor="middle" fill="#333" x="200" y="346">14-10</text><g transform="translate(165,366)"></g></g><g><g transform="translate(245,316)"></g><rect fill="none" stroke="#DDD" width="70" height="30" rx="8" ry="8" x="245" y="326"/><text text-anchor="middle" fill="#333" x="280" y="346">14-10</text><g transform="translate(245,366)"><g><a target="_top" xlink:href="mob-sliceTagWeight-step2628000-ofs25-col28-cat0.html"><rect style="display:none" class="hcell-act-col28-cat0" fill="#777" stroke="#000" stroke-width="5" width="70" height="22" x="0" y="5" rx="8" ry="8"/><rect class="hcell-col28-cat0" fill="#777" stroke="#DDD" width="70" height="32" x="0" y="0" rx="8" ry="8"/><text text-anchor="middle" fill="#FFF" x="35" y="20">-3</text></a></g></g></g><g><g transform="translate(325,316)"></g><rect fill="none" stroke="#DDD" width="70" height="30" rx="8" ry="8" x="325" y="326"/><text text-anchor="middle" fill="#333" x="360" y="346">14-12</text><g transform="translate(325,366)"><g><a target="_top" xlink:href="mob-sliceTagWeight-step2628000-ofs25-col29-cat0.html"><rect style="display:none" class="hcell-act-col29-cat0" fill="#777" stroke="#000" stroke-width="5" width="70" height="78" x="0" y="5" rx="8" ry="8"/><rect class="hcell-col29-cat0" fill="#777" stroke="#DDD" width="70" height="88" x="0" y="0" rx="8" ry="8"/><text text-anchor="middle" fill="#FFF" x="35" y="20">-6</text></a></g></g></g></svg>