<svg xmlns="http://www.w3.org/2000/svg" xmlns:xlink="http://www.w3.org/1999/xlink" width="100%" height="100%" viewBox="0 0 400 459"><g><g transform="translate(5,347)"><g><a target="_top" xlink:href="mob-sliceTagClothes-step2628000-ofs25-col25-cat0.html"><rect style="display:none" class="hcell-act-col25-cat0" fill="#777" stroke="#000" stroke-width="5" width="70" height="160" x="0" y="-165" rx="8" ry="8"/><rect class="hcell-col25-cat0" fill="#777" stroke="#DDD" width="70" height="170" x="0" y="-170" rx="8" ry="8"/><text text-anchor="middle" fill="#FFF" x="35" y="-150">90</text></a></g></g><rect fill="none" stroke="#DDD" width="70" height="30" rx="8" ry="8" x="5" y="357"/><text text-anchor="middle" fill="#333" x="40" y="377">14-08</text><g transform="translate(5,397)"></g></g><g><g transform="translate(85,347)"><g><a target="_top" xlink:href="mob-sliceTagClothes-step2628000-ofs25-col26-cat0.html"><rect style="display:none" class="hcell-act-col26-cat0" fill="#777" stroke="#000" stroke-width="5" width="70" height="259" x="0" y="-264" rx="8" ry="8"/><rect class="hcell-col26-cat0" fill="#777" stroke="#DDD" width="70" height="269" x="0" y="-269" rx="8" ry="8"/><text text-anchor="middle" fill="#FFF" x="35" y="-249">142</text></a></g></g><rect fill="none" stroke="#DDD" width="70" height="30" rx="8" ry="8" x="85" y="357"/><text text-anchor="middle" fill="#333" x="120" y="377">14-08</text><g transform="translate(85,397)"></g></g><g><g transform="translate(165,347)"><g><a target="_top" xlink:href="mob-sliceTagClothes-step2628000-ofs25-col27-cat0.html"><rect style="display:none" class="hcell-act-col27-cat0" fill="#777" stroke="#000" stroke-width="5" width="70" height="332" x="0" y="-337" rx="8" ry="8"/><rect class="hcell-col27-cat0" fill="#777" stroke="#DDD" width="70" height="342" x="0" y="-342" rx="8" ry="8"/><text text-anchor="middle" fill="#FFF" x="35" y="-322">181</text></a></g></g><rect fill="none" stroke="#DDD" width="70" height="30" rx="8" ry="8" x="165" y="357"/><text text-anchor="middle" fill="#333" x="200" y="377">14-10</text><g transform="translate(165,397)"></g></g><g><g transform="translate(245,347)"><g><a target="_top" xlink:href="mob-sliceTagClothes-step2628000-ofs25-col28-cat0.html"><rect style="display:none" class="hcell-act-col28-cat0" fill="#777" stroke="#000" stroke-width="5" width="70" height="232" x="0" y="-237" rx="8" ry="8"/><rect class="hcell-col28-cat0" fill="#777" stroke="#DDD" width="70" height="242" x="0" y="-242" rx="8" ry="8"/><text text-anchor="middle" fill="#FFF" x="35" y="-222">127</text></a></g></g><rect fill="none" stroke="#DDD" width="70" height="30" rx="8" ry="8" x="245" y="357"/><text text-anchor="middle" fill="#333" x="280" y="377">14-10</text><g transform="translate(245,397)"></g></g><g><g transform="translate(325,347)"><g><a target="_top" xlink:href="mob-sliceTagClothes-step2628000-ofs25-col29-cat0.html"><rect style="display:none" class="hcell-act-col29-cat0" fill="#777" stroke="#000" stroke-width="5" width="70" height="278" x="0" y="-283" rx="8" ry="8"/><rect class="hcell-col29-cat0" fill="#777" stroke="#DDD" width="70" height="288" x="0" y="-288" rx="8" ry="8"/><text text-anchor="middle" fill="#FFF" x="35" y="-268">152</text></a></g></g><rect fill="none" stroke="#DDD" width="70" height="30" rx="8" ry="8" x="325" y="357"/><text text-anchor="middle" fill="#333" x="360" y="377">14-12</text><g transform="translate(325,397)"><g><a target="_top" xlink:href="mob-sliceTagClothes-step2628000-ofs25-col29-cat0.html"><rect style="display:none" class="hcell-act-col29-cat0" fill="#777" stroke="#000" stroke-width="5" width="70" height="47" x="0" y="5" rx="8" ry="8"/><rect class="hcell-col29-cat0" fill="#777" stroke="#DDD" width="70" height="57" x="0" y="0" rx="8" ry="8"/><text text-anchor="middle" fill="#FFF" x="35" y="20">-31</text></a></g></g></g></svg>