<svg xmlns="http://www.w3.org/2000/svg" xmlns:xlink="http://www.w3.org/1999/xlink" width="100%" height="100%" viewBox="0 0 400 459"><g><g transform="translate(5,290)"></g><rect fill="none" stroke="#DDD" width="70" height="30" rx="8" ry="8" x="5" y="300"/><text text-anchor="middle" fill="#333" x="40" y="320">14-12</text><g transform="translate(5,340)"><g><a target="_top" xlink:href="mob-sliceTagCarPaper-step2628000-ofs30-col30-cat0.html"><rect style="display:none" class="hcell-act-col30-cat0" fill="#777" stroke="#000" stroke-width="5" width="70" height="104" x="0" y="5" rx="8" ry="8"/><rect class="hcell-col30-cat0" fill="#777" stroke="#DDD" width="70" height="114" x="0" y="0" rx="8" ry="8"/><text text-anchor="middle" fill="#FFF" x="35" y="20">-20</text></a></g></g></g><g><g transform="translate(85,290)"><g><a target="_top" xlink:href="mob-sliceTagCarPaper-step2628000-ofs30-col31-cat0.html"><rect style="display:none" class="hcell-act-col31-cat0" fill="#777" stroke="#000" stroke-width="5" width="70" height="275" x="0" y="-280" rx="8" ry="8"/><rect class="hcell-col31-cat0" fill="#777" stroke="#DDD" width="70" height="285" x="0" y="-285" rx="8" ry="8"/><text text-anchor="middle" fill="#FFF" x="35" y="-265">49</text></a></g></g><rect fill="none" stroke="#DDD" width="70" height="30" rx="8" ry="8" x="85" y="300"/><text text-anchor="middle" fill="#333" x="120" y="320">15-01</text><g transform="translate(85,340)"></g></g><g><g transform="translate(165,290)"><g><a target="_top" xlink:href="mob-sliceTagCarPaper-step2628000-ofs30-col32-cat0.html"><rect style="display:none" class="hcell-act-col32-cat0" fill="#777" stroke="#000" stroke-width="5" width="70" height="214" x="0" y="-219" rx="8" ry="8"/><rect class="hcell-col32-cat0" fill="#777" stroke="#DDD" width="70" height="224" x="0" y="-224" rx="8" ry="8"/><text text-anchor="middle" fill="#FFF" x="35" y="-204">39</text></a></g></g><rect fill="none" stroke="#DDD" width="70" height="30" rx="8" ry="8" x="165" y="300"/><text text-anchor="middle" fill="#333" x="200" y="320">15-03</text><g transform="translate(165,340)"></g></g><g><g transform="translate(245,290)"></g><rect fill="none" stroke="#DDD" width="70" height="30" rx="8" ry="8" x="245" y="300"/><text text-anchor="middle" fill="#333" x="280" y="320">15-04</text><g transform="translate(245,340)"><g><a target="_top" xlink:href="mob-sliceTagCarPaper-step2628000-ofs30-col33-cat0.html"><rect style="display:none" class="hcell-act-col33-cat0" fill="#777" stroke="#000" stroke-width="5" width="70" height="104" x="0" y="5" rx="8" ry="8"/><rect class="hcell-col33-cat0" fill="#777" stroke="#DDD" width="70" height="114" x="0" y="0" rx="8" ry="8"/><text text-anchor="middle" fill="#FFF" x="35" y="20">-20</text></a></g></g></g><g><g transform="translate(325,290)"></g><rect fill="none" stroke="#DDD" width="70" height="30" rx="8" ry="8" x="325" y="300"/><text text-anchor="middle" fill="#333" x="360" y="320">15-05</text><g transform="translate(325,340)"><g><a target="_top" xlink:href="mob-sliceTagCarPaper-step2628000-ofs30-col34-cat0.html"><rect style="display:none" class="hcell-act-col34-cat0" fill="#777" stroke="#000" stroke-width="5" width="70" height="104" x="0" y="5" rx="8" ry="8"/><rect class="hcell-col34-cat0" fill="#777" stroke="#DDD" width="70" height="114" x="0" y="0" rx="8" ry="8"/><text text-anchor="middle" fill="#FFF" x="35" y="20">-20</text></a></g></g></g></svg>