<svg xmlns="http://www.w3.org/2000/svg" xmlns:xlink="http://www.w3.org/1999/xlink" width="100%" height="100%" viewBox="0 0 400 459"><g><g transform="translate(5,279)"></g><rect fill="none" stroke="#DDD" width="70" height="30" rx="8" ry="8" x="5" y="289"/><text text-anchor="middle" fill="#333" x="40" y="309">12-07</text><g transform="translate(5,329)"></g></g><g><g transform="translate(85,279)"></g><rect fill="none" stroke="#DDD" width="70" height="30" rx="8" ry="8" x="85" y="289"/><text text-anchor="middle" fill="#333" x="120" y="309">13-01</text><g transform="translate(85,329)"></g></g><g><g transform="translate(165,279)"></g><rect fill="none" stroke="#DDD" width="70" height="30" rx="8" ry="8" x="165" y="289"/><text text-anchor="middle" fill="#333" x="200" y="309">13-08</text><g transform="translate(165,329)"></g></g><g><g transform="translate(245,279)"><g><a target="_top" xlink:href="mob-sliceTagProjects-step17936641-ofs0-col3-cat0.html"><rect style="display:none" class="hcell-act-col3-cat0" fill="#777" stroke="#000" stroke-width="5" width="70" height="264" x="0" y="-269" rx="8" ry="8"/><rect class="hcell-col3-cat0" fill="#777" stroke="#DDD" width="70" height="274" x="0" y="-274" rx="8" ry="8"/><text text-anchor="middle" fill="#FFF" x="35" y="-254">46</text></a></g></g><rect fill="none" stroke="#DDD" width="70" height="30" rx="8" ry="8" x="245" y="289"/><text text-anchor="middle" fill="#333" x="280" y="309">14-03</text><g transform="translate(245,329)"></g></g><g><g transform="translate(325,279)"></g><rect fill="none" stroke="#DDD" width="70" height="30" rx="8" ry="8" x="325" y="289"/><text text-anchor="middle" fill="#333" x="360" y="309">14-10</text><g transform="translate(325,329)"><g><a target="_top" xlink:href="mob-sliceTagProjects-step17936641-ofs0-col4-cat0.html"><rect style="display:none" class="hcell-act-col4-cat0" fill="#777" stroke="#000" stroke-width="5" width="70" height="115" x="0" y="5" rx="8" ry="8"/><rect class="hcell-col4-cat0" fill="#777" stroke="#DDD" width="70" height="125" x="0" y="0" rx="8" ry="8"/><text text-anchor="middle" fill="#FFF" x="35" y="20">-22</text></a></g></g></g></svg>