<svg xmlns="http://www.w3.org/2000/svg" xmlns:xlink="http://www.w3.org/1999/xlink" width="100%" height="100%" viewBox="0 0 400 485"><g><g transform="translate(5,140)"></g><rect fill="none" stroke="#DDD" width="70" height="30" rx="8" ry="8" x="5" y="150"/><text text-anchor="middle" fill="#333" x="40" y="170">12-07</text><g transform="translate(5,190)"></g></g><g><g transform="translate(85,140)"></g><rect fill="none" stroke="#DDD" width="70" height="30" rx="8" ry="8" x="85" y="150"/><text text-anchor="middle" fill="#333" x="120" y="170">13-01</text><g transform="translate(85,190)"></g></g><g><g transform="translate(165,140)"></g><rect fill="none" stroke="#DDD" width="70" height="30" rx="8" ry="8" x="165" y="150"/><text text-anchor="middle" fill="#333" x="200" y="170">13-08</text><g transform="translate(165,190)"></g></g><g><g transform="translate(245,140)"><g><a target="_top" xlink:href="mob-slice5-step17936641-ofs0-col3-cat3.html"><rect style="display:none" class="hcell-act-col3-cat3" fill="#5BC0DE" stroke="#000" stroke-width="5" width="70" height="49" x="0" y="-54" rx="8" ry="8"/><rect class="hcell-col3-cat3" fill="#5BC0DE" stroke="#DDD" width="70" height="59" x="0" y="-59" rx="8" ry="8"/><text text-anchor="middle" fill="#FFF" x="35" y="-39">1420</text></a><g transform="translate(0,-59)"><g><a target="_top" xlink:href="mob-slice5-step17936641-ofs0-col3-cat4.html"><rect style="display:none" class="hcell-act-col3-cat4" fill="#337AB7" stroke="#000" stroke-width="5" width="70" height="66" x="0" y="-71" rx="8" ry="8"/><rect class="hcell-col3-cat4" fill="#337AB7" stroke="#DDD" width="70" height="76" x="0" y="-76" rx="8" ry="8"/><text text-anchor="middle" fill="#FFF" x="35" y="-56">1828</text></a></g></g></g></g><rect fill="none" stroke="#DDD" width="70" height="30" rx="8" ry="8" x="245" y="150"/><text text-anchor="middle" fill="#333" x="280" y="170">14-03</text><g transform="translate(245,190)"><g><a target="_top" xlink:href="mob-slice5-step17936641-ofs0-col3-cat1.html"><rect style="display:none" class="hcell-act-col3-cat1" fill="#F0AD4E" stroke="#000" stroke-width="5" width="70" height="20" x="0" y="5" rx="8" ry="8"/><rect class="hcell-col3-cat1" fill="#F0AD4E" stroke="#DDD" width="70" height="30" x="0" y="0" rx="8" ry="8"/><text text-anchor="middle" fill="#FFF" x="35" y="20">-82</text></a><g transform="translate(0,30)"><g><a target="_top" xlink:href="mob-slice5-step17936641-ofs0-col3-cat0.html"><rect style="display:none" class="hcell-act-col3-cat0" fill="#D9534F" stroke="#000" stroke-width="5" width="70" height="104" x="0" y="5" rx="8" ry="8"/><rect class="hcell-col3-cat0" fill="#D9534F" stroke="#DDD" width="70" height="114" x="0" y="0" rx="8" ry="8"/><text text-anchor="middle" fill="#FFF" x="35" y="20">-2760</text></a><g transform="translate(0,114)"><g><a target="_top" xlink:href="mob-slice5-step17936641-ofs0-col3-cat2.html"><rect style="display:none" class="hcell-act-col3-cat2" fill="#5CB85C" stroke="#000" stroke-width="5" width="70" height="136" x="0" y="5" rx="8" ry="8"/><rect class="hcell-col3-cat2" fill="#5CB85C" stroke="#DDD" width="70" height="146" x="0" y="0" rx="8" ry="8"/><text text-anchor="middle" fill="#FFF" x="35" y="20">-3517</text></a></g></g></g></g></g></g></g><g><g transform="translate(325,140)"><g><a target="_top" xlink:href="mob-slice5-step17936641-ofs0-col4-cat4.html"><rect style="display:none" class="hcell-act-col4-cat4" fill="#337AB7" stroke="#000" stroke-width="5" width="70" height="20" x="0" y="-25" rx="8" ry="8"/><rect class="hcell-col4-cat4" fill="#337AB7" stroke="#DDD" width="70" height="30" x="0" y="-30" rx="8" ry="8"/><text text-anchor="middle" fill="#FFF" x="35" y="-10">366</text></a><g transform="translate(0,-30)"><g><a target="_top" xlink:href="mob-slice5-step17936641-ofs0-col4-cat0.html"><rect style="display:none" class="hcell-act-col4-cat0" fill="#D9534F" stroke="#000" stroke-width="5" width="70" height="82" x="0" y="-87" rx="8" ry="8"/><rect class="hcell-col4-cat0" fill="#D9534F" stroke="#DDD" width="70" height="92" x="0" y="-92" rx="8" ry="8"/><text text-anchor="middle" fill="#FFF" x="35" y="-72">2210</text></a></g></g></g></g><rect fill="none" stroke="#DDD" width="70" height="30" rx="8" ry="8" x="325" y="150"/><text text-anchor="middle" fill="#333" x="360" y="170">14-10</text><g transform="translate(325,190)"><g><a target="_top" xlink:href="mob-slice5-step17936641-ofs0-col4-cat1.html"><rect style="display:none" class="hcell-act-col4-cat1" fill="#F0AD4E" stroke="#000" stroke-width="5" width="70" height="20" x="0" y="5" rx="8" ry="8"/><rect class="hcell-col4-cat1" fill="#F0AD4E" stroke="#DDD" width="70" height="30" x="0" y="0" rx="8" ry="8"/><text text-anchor="middle" fill="#FFF" x="35" y="20">-229</text></a><g transform="translate(0,30)"><g><a target="_top" xlink:href="mob-slice5-step17936641-ofs0-col4-cat3.html"><rect style="display:none" class="hcell-act-col4-cat3" fill="#5BC0DE" stroke="#000" stroke-width="5" width="70" height="20" x="0" y="5" rx="8" ry="8"/><rect class="hcell-col4-cat3" fill="#5BC0DE" stroke="#DDD" width="70" height="30" x="0" y="0" rx="8" ry="8"/><text text-anchor="middle" fill="#FFF" x="35" y="20">-660</text></a><g transform="translate(0,30)"><g><a target="_top" xlink:href="mob-slice5-step17936641-ofs0-col4-cat2.html"><rect style="display:none" class="hcell-act-col4-cat2" fill="#5CB85C" stroke="#000" stroke-width="5" width="70" height="20" x="0" y="5" rx="8" ry="8"/><rect class="hcell-col4-cat2" fill="#5CB85C" stroke="#DDD" width="70" height="30" x="0" y="0" rx="8" ry="8"/><text text-anchor="middle" fill="#FFF" x="35" y="20">-717</text></a></g></g></g></g></g></g></g></svg>