<svg xmlns="http://www.w3.org/2000/svg" xmlns:xlink="http://www.w3.org/1999/xlink" width="100%" height="100%" viewBox="0 0 400 492"><g><g transform="translate(5,437)"></g><rect fill="none" stroke="#DDD" width="70" height="30" rx="8" ry="8" x="5" y="447"/><text text-anchor="middle" fill="#333" x="40" y="467">12-07</text><g transform="translate(5,487)"></g></g><g><g transform="translate(85,437)"><g><a target="_top" xlink:href="mob-slice2-step17936641-ofs0-col1-cat0.html"><rect style="display:none" class="hcell-act-col1-cat0" fill="#5CB85C" stroke="#000" stroke-width="5" width="70" height="20" x="0" y="-25" rx="8" ry="8"/><rect class="hcell-col1-cat0" fill="#5CB85C" stroke="#DDD" width="70" height="30" x="0" y="-30" rx="8" ry="8"/><text text-anchor="middle" fill="#FFF" x="35" y="-10">145</text></a><g transform="translate(0,-30)"><g><a target="_top" xlink:href="mob-slice2-step17936641-ofs0-col1-cat3.html"><rect style="display:none" class="hcell-act-col1-cat3" fill="#F0AD4E" stroke="#000" stroke-width="5" width="70" height="189" x="0" y="-194" rx="8" ry="8"/><rect class="hcell-col1-cat3" fill="#F0AD4E" stroke="#DDD" width="70" height="199" x="0" y="-199" rx="8" ry="8"/><text text-anchor="middle" fill="#FFF" x="35" y="-179">1530</text></a></g></g></g></g><rect fill="none" stroke="#DDD" width="70" height="30" rx="8" ry="8" x="85" y="447"/><text text-anchor="middle" fill="#333" x="120" y="467">13-01</text><g transform="translate(85,487)"></g></g><g><g transform="translate(165,437)"><g><a target="_top" xlink:href="mob-slice2-step17936641-ofs0-col2-cat2.html"><rect style="display:none" class="hcell-act-col2-cat2" fill="#337AB7" stroke="#000" stroke-width="5" width="70" height="20" x="0" y="-25" rx="8" ry="8"/><rect class="hcell-col2-cat2" fill="#337AB7" stroke="#DDD" width="70" height="30" x="0" y="-30" rx="8" ry="8"/><text text-anchor="middle" fill="#FFF" x="35" y="-10">10</text></a><g transform="translate(0,-30)"><g><a target="_top" xlink:href="mob-slice2-step17936641-ofs0-col2-cat0.html"><rect style="display:none" class="hcell-act-col2-cat0" fill="#5CB85C" stroke="#000" stroke-width="5" width="70" height="20" x="0" y="-25" rx="8" ry="8"/><rect class="hcell-col2-cat0" fill="#5CB85C" stroke="#DDD" width="70" height="30" x="0" y="-30" rx="8" ry="8"/><text text-anchor="middle" fill="#FFF" x="35" y="-10">111</text></a><g transform="translate(0,-30)"><g><a target="_top" xlink:href="mob-slice2-step17936641-ofs0-col2-cat3.html"><rect style="display:none" class="hcell-act-col2-cat3" fill="#F0AD4E" stroke="#000" stroke-width="5" width="70" height="36" x="0" y="-41" rx="8" ry="8"/><rect class="hcell-col2-cat3" fill="#F0AD4E" stroke="#DDD" width="70" height="46" x="0" y="-46" rx="8" ry="8"/><text text-anchor="middle" fill="#FFF" x="35" y="-26">354</text></a><g transform="translate(0,-46)"><g><a target="_top" xlink:href="mob-slice2-step17936641-ofs0-col2-cat1.html"><rect style="display:none" class="hcell-act-col2-cat1" fill="#5BC0DE" stroke="#000" stroke-width="5" width="70" height="37" x="0" y="-42" rx="8" ry="8"/><rect class="hcell-col2-cat1" fill="#5BC0DE" stroke="#DDD" width="70" height="47" x="0" y="-47" rx="8" ry="8"/><text text-anchor="middle" fill="#FFF" x="35" y="-27">364</text></a></g></g></g></g></g></g></g></g><rect fill="none" stroke="#DDD" width="70" height="30" rx="8" ry="8" x="165" y="447"/><text text-anchor="middle" fill="#333" x="200" y="467">13-08</text><g transform="translate(165,487)"></g></g><g><g transform="translate(245,437)"><g><a target="_top" xlink:href="mob-slice2-step17936641-ofs0-col3-cat2.html"><rect style="display:none" class="hcell-act-col3-cat2" fill="#337AB7" stroke="#000" stroke-width="5" width="70" height="20" x="0" y="-25" rx="8" ry="8"/><rect class="hcell-col3-cat2" fill="#337AB7" stroke="#DDD" width="70" height="30" x="0" y="-30" rx="8" ry="8"/><text text-anchor="middle" fill="#FFF" x="35" y="-10">10</text></a><g transform="translate(0,-30)"><g><a target="_top" xlink:href="mob-slice2-step17936641-ofs0-col3-cat0.html"><rect style="display:none" class="hcell-act-col3-cat0" fill="#5CB85C" stroke="#000" stroke-width="5" width="70" height="20" x="0" y="-25" rx="8" ry="8"/><rect class="hcell-col3-cat0" fill="#5CB85C" stroke="#DDD" width="70" height="30" x="0" y="-30" rx="8" ry="8"/><text text-anchor="middle" fill="#FFF" x="35" y="-10">199</text></a><g transform="translate(0,-30)"><g><a target="_top" xlink:href="mob-slice2-step17936641-ofs0-col3-cat1.html"><rect style="display:none" class="hcell-act-col3-cat1" fill="#5BC0DE" stroke="#000" stroke-width="5" width="70" height="94" x="0" y="-99" rx="8" ry="8"/><rect class="hcell-col3-cat1" fill="#5BC0DE" stroke="#DDD" width="70" height="104" x="0" y="-104" rx="8" ry="8"/><text text-anchor="middle" fill="#FFF" x="35" y="-84">797</text></a><g transform="translate(0,-104)"><g><a target="_top" xlink:href="mob-slice2-step17936641-ofs0-col3-cat3.html"><rect style="display:none" class="hcell-act-col3-cat3" fill="#F0AD4E" stroke="#000" stroke-width="5" width="70" height="258" x="0" y="-263" rx="8" ry="8"/><rect class="hcell-col3-cat3" fill="#F0AD4E" stroke="#DDD" width="70" height="268" x="0" y="-268" rx="8" ry="8"/><text text-anchor="middle" fill="#FFF" x="35" y="-248">2059</text></a></g></g></g></g></g></g></g></g><rect fill="none" stroke="#DDD" width="70" height="30" rx="8" ry="8" x="245" y="447"/><text text-anchor="middle" fill="#333" x="280" y="467">14-03</text><g transform="translate(245,487)"></g></g><g><g transform="translate(325,437)"><g><a target="_top" xlink:href="mob-slice2-step17936641-ofs0-col4-cat2.html"><rect style="display:none" class="hcell-act-col4-cat2" fill="#337AB7" stroke="#000" stroke-width="5" width="70" height="20" x="0" y="-25" rx="8" ry="8"/><rect class="hcell-col4-cat2" fill="#337AB7" stroke="#DDD" width="70" height="30" x="0" y="-30" rx="8" ry="8"/><text text-anchor="middle" fill="#FFF" x="35" y="-10">30</text></a><g transform="translate(0,-30)"><g><a target="_top" xlink:href="mob-slice2-step17936641-ofs0-col4-cat0.html"><rect style="display:none" class="hcell-act-col4-cat0" fill="#5CB85C" stroke="#000" stroke-width="5" width="70" height="20" x="0" y="-25" rx="8" ry="8"/><rect class="hcell-col4-cat0" fill="#5CB85C" stroke="#DDD" width="70" height="30" x="0" y="-30" rx="8" ry="8"/><text text-anchor="middle" fill="#FFF" x="35" y="-10">151</text></a><g transform="translate(0,-30)"><g><a target="_top" xlink:href="mob-slice2-step17936641-ofs0-col4-cat1.html"><rect style="display:none" class="hcell-act-col4-cat1" fill="#5BC0DE" stroke="#000" stroke-width="5" width="70" height="68" x="0" y="-73" rx="8" ry="8"/><rect class="hcell-col4-cat1" fill="#5BC0DE" stroke="#DDD" width="70" height="78" x="0" y="-78" rx="8" ry="8"/><text text-anchor="middle" fill="#FFF" x="35" y="-58">600</text></a><g transform="translate(0,-78)"><g><a target="_top" xlink:href="mob-slice2-step17936641-ofs0-col4-cat3.html"><rect style="display:none" class="hcell-act-col4-cat3" fill="#F0AD4E" stroke="#000" stroke-width="5" width="70" height="103" x="0" y="-108" rx="8" ry="8"/><rect class="hcell-col4-cat3" fill="#F0AD4E" stroke="#DDD" width="70" height="113" x="0" y="-113" rx="8" ry="8"/><text text-anchor="middle" fill="#FFF" x="35" y="-93">873</text></a></g></g></g></g></g></g></g></g><rect fill="none" stroke="#DDD" width="70" height="30" rx="8" ry="8" x="325" y="447"/><text text-anchor="middle" fill="#333" x="360" y="467">14-10</text><g transform="translate(325,487)"></g></g></svg>