<svg xmlns="http://www.w3.org/2000/svg" xmlns:xlink="http://www.w3.org/1999/xlink" width="100%" height="100%" viewBox="0 0 400 459"><g><g transform="translate(5,299)"></g><rect fill="none" stroke="#DDD" width="70" height="30" rx="8" ry="8" x="5" y="309"/><text text-anchor="middle" fill="#333" x="40" y="329">14-12</text><g transform="translate(5,349)"><g><a target="_top" xlink:href="mob-sliceTagVisa8394-step2628000-ofs30-col30-cat0.html"><rect style="display:none" class="hcell-act-col30-cat0" fill="#777" stroke="#000" stroke-width="5" width="70" height="76" x="0" y="5" rx="8" ry="8"/><rect class="hcell-col30-cat0" fill="#777" stroke="#DDD" width="70" height="86" x="0" y="0" rx="8" ry="8"/><text text-anchor="middle" fill="#FFF" x="35" y="20">-403</text></a></g></g></g><g><g transform="translate(85,299)"><g><a target="_top" xlink:href="mob-sliceTagVisa8394-step2628000-ofs30-col31-cat0.html"><rect style="display:none" class="hcell-act-col31-cat0" fill="#777" stroke="#000" stroke-width="5" width="70" height="250" x="0" y="-255" rx="8" ry="8"/><rect class="hcell-col31-cat0" fill="#777" stroke="#DDD" width="70" height="260" x="0" y="-260" rx="8" ry="8"/><text text-anchor="middle" fill="#FFF" x="35" y="-240">1212</text></a></g></g><rect fill="none" stroke="#DDD" width="70" height="30" rx="8" ry="8" x="85" y="309"/><text text-anchor="middle" fill="#333" x="120" y="329">15-01</text><g transform="translate(85,349)"><g><a target="_top" xlink:href="mob-sliceTagVisa8394-step2628000-ofs30-col31-cat0.html"><rect style="display:none" class="hcell-act-col31-cat0" fill="#777" stroke="#000" stroke-width="5" width="70" height="60" x="0" y="5" rx="8" ry="8"/><rect class="hcell-col31-cat0" fill="#777" stroke="#DDD" width="70" height="70" x="0" y="0" rx="8" ry="8"/><text text-anchor="middle" fill="#FFF" x="35" y="20">-329</text></a></g></g></g><g><g transform="translate(165,299)"></g><rect fill="none" stroke="#DDD" width="70" height="30" rx="8" ry="8" x="165" y="309"/><text text-anchor="middle" fill="#333" x="200" y="329">15-03</text><g transform="translate(165,349)"><g><a target="_top" xlink:href="mob-sliceTagVisa8394-step2628000-ofs30-col32-cat0.html"><rect style="display:none" class="hcell-act-col32-cat0" fill="#777" stroke="#000" stroke-width="5" width="70" height="20" x="0" y="5" rx="8" ry="8"/><rect class="hcell-col32-cat0" fill="#777" stroke="#DDD" width="70" height="30" x="0" y="0" rx="8" ry="8"/><text text-anchor="middle" fill="#FFF" x="35" y="20">-58</text></a></g></g></g><g><g transform="translate(245,299)"><g><a target="_top" xlink:href="mob-sliceTagVisa8394-step2628000-ofs30-col33-cat0.html"><rect style="display:none" class="hcell-act-col33-cat0" fill="#777" stroke="#000" stroke-width="5" width="70" height="284" x="0" y="-289" rx="8" ry="8"/><rect class="hcell-col33-cat0" fill="#777" stroke="#DDD" width="70" height="294" x="0" y="-294" rx="8" ry="8"/><text text-anchor="middle" fill="#FFF" x="35" y="-274">1370</text></a></g></g><rect fill="none" stroke="#DDD" width="70" height="30" rx="8" ry="8" x="245" y="309"/><text text-anchor="middle" fill="#333" x="280" y="329">15-04</text><g transform="translate(245,349)"><g><a target="_top" xlink:href="mob-sliceTagVisa8394-step2628000-ofs30-col33-cat0.html"><rect style="display:none" class="hcell-act-col33-cat0" fill="#777" stroke="#000" stroke-width="5" width="70" height="95" x="0" y="5" rx="8" ry="8"/><rect class="hcell-col33-cat0" fill="#777" stroke="#DDD" width="70" height="105" x="0" y="0" rx="8" ry="8"/><text text-anchor="middle" fill="#FFF" x="35" y="20">-489</text></a></g></g></g><g><g transform="translate(325,299)"></g><rect fill="none" stroke="#DDD" width="70" height="30" rx="8" ry="8" x="325" y="309"/><text text-anchor="middle" fill="#333" x="360" y="329">15-05</text><g transform="translate(325,349)"></g></g></svg>