<svg xmlns="http://www.w3.org/2000/svg" xmlns:xlink="http://www.w3.org/1999/xlink" width="100%" height="100%" viewBox="0 0 400 459"><g><g transform="translate(5,245)"><g><a target="_top" xlink:href="mob-sliceTagAwesomeCard-step2628000-ofs30-col30-cat0.html"><rect style="display:none" class="hcell-act-col30-cat0" fill="#777" stroke="#000" stroke-width="5" width="70" height="230" x="0" y="-235" rx="8" ry="8"/><rect class="hcell-col30-cat0" fill="#777" stroke="#DDD" width="70" height="240" x="0" y="-240" rx="8" ry="8"/><text text-anchor="middle" fill="#FFF" x="35" y="-220">133</text></a></g></g><rect fill="none" stroke="#DDD" width="70" height="30" rx="8" ry="8" x="5" y="255"/><text text-anchor="middle" fill="#333" x="40" y="275">14-12</text><g transform="translate(5,295)"></g></g><g><g transform="translate(85,245)"></g><rect fill="none" stroke="#DDD" width="70" height="30" rx="8" ry="8" x="85" y="255"/><text text-anchor="middle" fill="#333" x="120" y="275">15-01</text><g transform="translate(85,295)"><g><a target="_top" xlink:href="mob-sliceTagAwesomeCard-step2628000-ofs30-col31-cat0.html"><rect style="display:none" class="hcell-act-col31-cat0" fill="#777" stroke="#000" stroke-width="5" width="70" height="149" x="0" y="5" rx="8" ry="8"/><rect class="hcell-col31-cat0" fill="#777" stroke="#DDD" width="70" height="159" x="0" y="0" rx="8" ry="8"/><text text-anchor="middle" fill="#FFF" x="35" y="20">-89</text></a></g></g></g><g><g transform="translate(165,245)"></g><rect fill="none" stroke="#DDD" width="70" height="30" rx="8" ry="8" x="165" y="255"/><text text-anchor="middle" fill="#333" x="200" y="275">15-03</text><g transform="translate(165,295)"><g><a target="_top" xlink:href="mob-sliceTagAwesomeCard-step2628000-ofs30-col32-cat0.html"><rect style="display:none" class="hcell-act-col32-cat0" fill="#777" stroke="#000" stroke-width="5" width="70" height="38" x="0" y="5" rx="8" ry="8"/><rect class="hcell-col32-cat0" fill="#777" stroke="#DDD" width="70" height="48" x="0" y="0" rx="8" ry="8"/><text text-anchor="middle" fill="#FFF" x="35" y="20">-28</text></a></g></g></g><g><g transform="translate(245,245)"></g><rect fill="none" stroke="#DDD" width="70" height="30" rx="8" ry="8" x="245" y="255"/><text text-anchor="middle" fill="#333" x="280" y="275">15-04</text><g transform="translate(245,295)"><g><a target="_top" xlink:href="mob-sliceTagAwesomeCard-step2628000-ofs30-col33-cat0.html"><rect style="display:none" class="hcell-act-col33-cat0" fill="#777" stroke="#000" stroke-width="5" width="70" height="51" x="0" y="5" rx="8" ry="8"/><rect class="hcell-col33-cat0" fill="#777" stroke="#DDD" width="70" height="61" x="0" y="0" rx="8" ry="8"/><text text-anchor="middle" fill="#FFF" x="35" y="20">-35</text></a></g></g></g><g><g transform="translate(325,245)"></g><rect fill="none" stroke="#DDD" width="70" height="30" rx="8" ry="8" x="325" y="255"/><text text-anchor="middle" fill="#333" x="360" y="275">15-05</text><g transform="translate(325,295)"></g></g></svg>