<svg xmlns="http://www.w3.org/2000/svg" xmlns:xlink="http://www.w3.org/1999/xlink" width="100%" height="100%" viewBox="0 0 400 497"><g><g transform="translate(5,237)"><g><a target="_top" xlink:href="mob-slice5-step2628000-ofs5-col5-cat4.html"><rect style="display:none" class="hcell-act-col5-cat4" fill="#337AB7" stroke="#000" stroke-width="5" width="70" height="20" x="0" y="-25" rx="8" ry="8"/><rect class="hcell-col5-cat4" fill="#337AB7" stroke="#DDD" width="70" height="30" x="0" y="-30" rx="8" ry="8"/><text text-anchor="middle" fill="#FFF" x="35" y="-10">11</text></a><g transform="translate(0,-30)"><g><a target="_top" xlink:href="mob-slice5-step2628000-ofs5-col5-cat2.html"><rect style="display:none" class="hcell-act-col5-cat2" fill="#5CB85C" stroke="#000" stroke-width="5" width="70" height="102" x="0" y="-107" rx="8" ry="8"/><rect class="hcell-col5-cat2" fill="#5CB85C" stroke="#DDD" width="70" height="112" x="0" y="-112" rx="8" ry="8"/><text text-anchor="middle" fill="#FFF" x="35" y="-92">2800</text></a></g></g></g></g><rect fill="none" stroke="#DDD" width="70" height="30" rx="8" ry="8" x="5" y="247"/><text text-anchor="middle" fill="#333" x="40" y="267">12-12</text><g transform="translate(5,287)"><g><a target="_top" xlink:href="mob-slice5-step2628000-ofs5-col5-cat1.html"><rect style="display:none" class="hcell-act-col5-cat1" fill="#F0AD4E" stroke="#000" stroke-width="5" width="70" height="20" x="0" y="5" rx="8" ry="8"/><rect class="hcell-col5-cat1" fill="#F0AD4E" stroke="#DDD" width="70" height="30" x="0" y="0" rx="8" ry="8"/><text text-anchor="middle" fill="#FFF" x="35" y="20">-6</text></a><g transform="translate(0,30)"><g><a target="_top" xlink:href="mob-slice5-step2628000-ofs5-col5-cat4.html"><rect style="display:none" class="hcell-act-col5-cat4" fill="#337AB7" stroke="#000" stroke-width="5" width="70" height="20" x="0" y="5" rx="8" ry="8"/><rect class="hcell-col5-cat4" fill="#337AB7" stroke="#DDD" width="70" height="30" x="0" y="0" rx="8" ry="8"/><text text-anchor="middle" fill="#FFF" x="35" y="20">-421</text></a><g transform="translate(0,30)"><g><a target="_top" xlink:href="mob-slice5-step2628000-ofs5-col5-cat2.html"><rect style="display:none" class="hcell-act-col5-cat2" fill="#5CB85C" stroke="#000" stroke-width="5" width="70" height="72" x="0" y="5" rx="8" ry="8"/><rect class="hcell-col5-cat2" fill="#5CB85C" stroke="#DDD" width="70" height="82" x="0" y="0" rx="8" ry="8"/><text text-anchor="middle" fill="#FFF" x="35" y="20">-2052</text></a></g></g></g></g></g></g></g><g><g transform="translate(85,237)"><g><a target="_top" xlink:href="mob-slice5-step2628000-ofs5-col6-cat0.html"><rect style="display:none" class="hcell-act-col6-cat0" fill="#D9534F" stroke="#000" stroke-width="5" width="70" height="20" x="0" y="-25" rx="8" ry="8"/><rect class="hcell-col6-cat0" fill="#D9534F" stroke="#DDD" width="70" height="30" x="0" y="-30" rx="8" ry="8"/><text text-anchor="middle" fill="#FFF" x="35" y="-10">220</text></a><g transform="translate(0,-30)"><g><a target="_top" xlink:href="mob-slice5-step2628000-ofs5-col6-cat2.html"><rect style="display:none" class="hcell-act-col6-cat2" fill="#5CB85C" stroke="#000" stroke-width="5" width="70" height="100" x="0" y="-105" rx="8" ry="8"/><rect class="hcell-col6-cat2" fill="#5CB85C" stroke="#DDD" width="70" height="110" x="0" y="-110" rx="8" ry="8"/><text text-anchor="middle" fill="#FFF" x="35" y="-90">2753</text></a></g></g></g></g><rect fill="none" stroke="#DDD" width="70" height="30" rx="8" ry="8" x="85" y="247"/><text text-anchor="middle" fill="#333" x="120" y="267">12-12</text><g transform="translate(85,287)"><g><a target="_top" xlink:href="mob-slice5-step2628000-ofs5-col6-cat1.html"><rect style="display:none" class="hcell-act-col6-cat1" fill="#F0AD4E" stroke="#000" stroke-width="5" width="70" height="20" x="0" y="5" rx="8" ry="8"/><rect class="hcell-col6-cat1" fill="#F0AD4E" stroke="#DDD" width="70" height="30" x="0" y="0" rx="8" ry="8"/><text text-anchor="middle" fill="#FFF" x="35" y="20">-45</text></a><g transform="translate(0,30)"><g><a target="_top" xlink:href="mob-slice5-step2628000-ofs5-col6-cat4.html"><rect style="display:none" class="hcell-act-col6-cat4" fill="#337AB7" stroke="#000" stroke-width="5" width="70" height="20" x="0" y="5" rx="8" ry="8"/><rect class="hcell-col6-cat4" fill="#337AB7" stroke="#DDD" width="70" height="30" x="0" y="0" rx="8" ry="8"/><text text-anchor="middle" fill="#FFF" x="35" y="20">-458</text></a><g transform="translate(0,30)"><g><a target="_top" xlink:href="mob-slice5-step2628000-ofs5-col6-cat2.html"><rect style="display:none" class="hcell-act-col6-cat2" fill="#5CB85C" stroke="#000" stroke-width="5" width="70" height="66" x="0" y="5" rx="8" ry="8"/><rect class="hcell-col6-cat2" fill="#5CB85C" stroke="#DDD" width="70" height="76" x="0" y="0" rx="8" ry="8"/><text text-anchor="middle" fill="#FFF" x="35" y="20">-1904</text></a></g></g></g></g></g></g></g><g><g transform="translate(165,237)"><g><a target="_top" xlink:href="mob-slice5-step2628000-ofs5-col7-cat4.html"><rect style="display:none" class="hcell-act-col7-cat4" fill="#337AB7" stroke="#000" stroke-width="5" width="70" height="20" x="0" y="-25" rx="8" ry="8"/><rect class="hcell-col7-cat4" fill="#337AB7" stroke="#DDD" width="70" height="30" x="0" y="-30" rx="8" ry="8"/><text text-anchor="middle" fill="#FFF" x="35" y="-10">26</text></a><g transform="translate(0,-30)"><g><a target="_top" xlink:href="mob-slice5-step2628000-ofs5-col7-cat3.html"><rect style="display:none" class="hcell-act-col7-cat3" fill="#5BC0DE" stroke="#000" stroke-width="5" width="70" height="20" x="0" y="-25" rx="8" ry="8"/><rect class="hcell-col7-cat3" fill="#5BC0DE" stroke="#DDD" width="70" height="30" x="0" y="-30" rx="8" ry="8"/><text text-anchor="middle" fill="#FFF" x="35" y="-10">222</text></a><g transform="translate(0,-30)"><g><a target="_top" xlink:href="mob-slice5-step2628000-ofs5-col7-cat0.html"><rect style="display:none" class="hcell-act-col7-cat0" fill="#D9534F" stroke="#000" stroke-width="5" width="70" height="20" x="0" y="-25" rx="8" ry="8"/><rect class="hcell-col7-cat0" fill="#D9534F" stroke="#DDD" width="70" height="30" x="0" y="-30" rx="8" ry="8"/><text text-anchor="middle" fill="#FFF" x="35" y="-10">260</text></a><g transform="translate(0,-30)"><g><a target="_top" xlink:href="mob-slice5-step2628000-ofs5-col7-cat2.html"><rect style="display:none" class="hcell-act-col7-cat2" fill="#5CB85C" stroke="#000" stroke-width="5" width="70" height="94" x="0" y="-99" rx="8" ry="8"/><rect class="hcell-col7-cat2" fill="#5CB85C" stroke="#DDD" width="70" height="104" x="0" y="-104" rx="8" ry="8"/><text text-anchor="middle" fill="#FFF" x="35" y="-84">2600</text></a></g></g></g></g></g></g></g></g><rect fill="none" stroke="#DDD" width="70" height="30" rx="8" ry="8" x="165" y="247"/><text text-anchor="middle" fill="#333" x="200" y="267">13-01</text><g transform="translate(165,287)"><g><a target="_top" xlink:href="mob-slice5-step2628000-ofs5-col7-cat1.html"><rect style="display:none" class="hcell-act-col7-cat1" fill="#F0AD4E" stroke="#000" stroke-width="5" width="70" height="20" x="0" y="5" rx="8" ry="8"/><rect class="hcell-col7-cat1" fill="#F0AD4E" stroke="#DDD" width="70" height="30" x="0" y="0" rx="8" ry="8"/><text text-anchor="middle" fill="#FFF" x="35" y="20">-30</text></a><g transform="translate(0,30)"><g><a target="_top" xlink:href="mob-slice5-step2628000-ofs5-col7-cat4.html"><rect style="display:none" class="hcell-act-col7-cat4" fill="#337AB7" stroke="#000" stroke-width="5" width="70" height="20" x="0" y="5" rx="8" ry="8"/><rect class="hcell-col7-cat4" fill="#337AB7" stroke="#DDD" width="70" height="30" x="0" y="0" rx="8" ry="8"/><text text-anchor="middle" fill="#FFF" x="35" y="20">-516</text></a><g transform="translate(0,30)"><g><a target="_top" xlink:href="mob-slice5-step2628000-ofs5-col7-cat2.html"><rect style="display:none" class="hcell-act-col7-cat2" fill="#5CB85C" stroke="#000" stroke-width="5" width="70" height="47" x="0" y="5" rx="8" ry="8"/><rect class="hcell-col7-cat2" fill="#5CB85C" stroke="#DDD" width="70" height="57" x="0" y="0" rx="8" ry="8"/><text text-anchor="middle" fill="#FFF" x="35" y="20">-1420</text></a><g transform="translate(0,57)"><g><a target="_top" xlink:href="mob-slice5-step2628000-ofs5-col7-cat0.html"><rect style="display:none" class="hcell-act-col7-cat0" fill="#D9534F" stroke="#000" stroke-width="5" width="70" height="78" x="0" y="5" rx="8" ry="8"/><rect class="hcell-col7-cat0" fill="#D9534F" stroke="#DDD" width="70" height="88" x="0" y="0" rx="8" ry="8"/><text text-anchor="middle" fill="#FFF" x="35" y="20">-2200</text></a></g></g></g></g></g></g></g></g></g><g><g transform="translate(245,237)"><g><a target="_top" xlink:href="mob-slice5-step2628000-ofs5-col8-cat4.html"><rect style="display:none" class="hcell-act-col8-cat4" fill="#337AB7" stroke="#000" stroke-width="5" width="70" height="46" x="0" y="-51" rx="8" ry="8"/><rect class="hcell-col8-cat4" fill="#337AB7" stroke="#DDD" width="70" height="56" x="0" y="-56" rx="8" ry="8"/><text text-anchor="middle" fill="#FFF" x="35" y="-36">1403</text></a><g transform="translate(0,-56)"><g><a target="_top" xlink:href="mob-slice5-step2628000-ofs5-col8-cat2.html"><rect style="display:none" class="hcell-act-col8-cat2" fill="#5CB85C" stroke="#000" stroke-width="5" width="70" height="166" x="0" y="-171" rx="8" ry="8"/><rect class="hcell-col8-cat2" fill="#5CB85C" stroke="#DDD" width="70" height="176" x="0" y="-176" rx="8" ry="8"/><text text-anchor="middle" fill="#FFF" x="35" y="-156">4383</text></a></g></g></g></g><rect fill="none" stroke="#DDD" width="70" height="30" rx="8" ry="8" x="245" y="247"/><text text-anchor="middle" fill="#333" x="280" y="267">13-03</text><g transform="translate(245,287)"><g><a target="_top" xlink:href="mob-slice5-step2628000-ofs5-col8-cat1.html"><rect style="display:none" class="hcell-act-col8-cat1" fill="#F0AD4E" stroke="#000" stroke-width="5" width="70" height="20" x="0" y="5" rx="8" ry="8"/><rect class="hcell-col8-cat1" fill="#F0AD4E" stroke="#DDD" width="70" height="30" x="0" y="0" rx="8" ry="8"/><text text-anchor="middle" fill="#FFF" x="35" y="20">-29</text></a><g transform="translate(0,30)"><g><a target="_top" xlink:href="mob-slice5-step2628000-ofs5-col8-cat4.html"><rect style="display:none" class="hcell-act-col8-cat4" fill="#337AB7" stroke="#000" stroke-width="5" width="70" height="20" x="0" y="5" rx="8" ry="8"/><rect class="hcell-col8-cat4" fill="#337AB7" stroke="#DDD" width="70" height="30" x="0" y="0" rx="8" ry="8"/><text text-anchor="middle" fill="#FFF" x="35" y="20">-581</text></a><g transform="translate(0,30)"><g><a target="_top" xlink:href="mob-slice5-step2628000-ofs5-col8-cat2.html"><rect style="display:none" class="hcell-act-col8-cat2" fill="#5CB85C" stroke="#000" stroke-width="5" width="70" height="116" x="0" y="5" rx="8" ry="8"/><rect class="hcell-col8-cat2" fill="#5CB85C" stroke="#DDD" width="70" height="126" x="0" y="0" rx="8" ry="8"/><text text-anchor="middle" fill="#FFF" x="35" y="20">-3147</text></a></g></g></g></g></g></g></g><g><g transform="translate(325,237)"><g><a target="_top" xlink:href="mob-slice5-step2628000-ofs5-col9-cat4.html"><rect style="display:none" class="hcell-act-col9-cat4" fill="#337AB7" stroke="#000" stroke-width="5" width="70" height="45" x="0" y="-50" rx="8" ry="8"/><rect class="hcell-col9-cat4" fill="#337AB7" stroke="#DDD" width="70" height="55" x="0" y="-55" rx="8" ry="8"/><text text-anchor="middle" fill="#FFF" x="35" y="-35">1370</text></a><g transform="translate(0,-55)"><g><a target="_top" xlink:href="mob-slice5-step2628000-ofs5-col9-cat2.html"><rect style="display:none" class="hcell-act-col9-cat2" fill="#5CB85C" stroke="#000" stroke-width="5" width="70" height="94" x="0" y="-99" rx="8" ry="8"/><rect class="hcell-col9-cat2" fill="#5CB85C" stroke="#DDD" width="70" height="104" x="0" y="-104" rx="8" ry="8"/><text text-anchor="middle" fill="#FFF" x="35" y="-84">2600</text></a></g></g></g></g><rect fill="none" stroke="#DDD" width="70" height="30" rx="8" ry="8" x="325" y="247"/><text text-anchor="middle" fill="#333" x="360" y="267">13-04</text><g transform="translate(325,287)"><g><a target="_top" xlink:href="mob-slice5-step2628000-ofs5-col9-cat1.html"><rect style="display:none" class="hcell-act-col9-cat1" fill="#F0AD4E" stroke="#000" stroke-width="5" width="70" height="20" x="0" y="5" rx="8" ry="8"/><rect class="hcell-col9-cat1" fill="#F0AD4E" stroke="#DDD" width="70" height="30" x="0" y="0" rx="8" ry="8"/><text text-anchor="middle" fill="#FFF" x="35" y="20">-20</text></a><g transform="translate(0,30)"><g><a target="_top" xlink:href="mob-slice5-step2628000-ofs5-col9-cat4.html"><rect style="display:none" class="hcell-act-col9-cat4" fill="#337AB7" stroke="#000" stroke-width="5" width="70" height="20" x="0" y="5" rx="8" ry="8"/><rect class="hcell-col9-cat4" fill="#337AB7" stroke="#DDD" width="70" height="30" x="0" y="0" rx="8" ry="8"/><text text-anchor="middle" fill="#FFF" x="35" y="20">-479</text></a><g transform="translate(0,30)"><g><a target="_top" xlink:href="mob-slice5-step2628000-ofs5-col9-cat2.html"><rect style="display:none" class="hcell-act-col9-cat2" fill="#5CB85C" stroke="#000" stroke-width="5" width="70" height="112" x="0" y="5" rx="8" ry="8"/><rect class="hcell-col9-cat2" fill="#5CB85C" stroke="#DDD" width="70" height="122" x="0" y="0" rx="8" ry="8"/><text text-anchor="middle" fill="#FFF" x="35" y="20">-3054</text></a></g></g></g></g></g></g></g></svg>