<svg xmlns="http://www.w3.org/2000/svg" xmlns:xlink="http://www.w3.org/1999/xlink" width="100%" height="100%" viewBox="0 0 400 604"><g><g transform="translate(5,282)"><g><a target="_top" xlink:href="mob-slice5-step17936641-ofs0-col0-cat4.html"><rect style="display:none" class="hcell-act-col0-cat4" fill="#337AB7" stroke="#000" stroke-width="5" width="70" height="20" x="0" y="-25" rx="8" ry="8"/><rect class="hcell-col0-cat4" fill="#337AB7" stroke="#DDD" width="70" height="30" x="0" y="-30" rx="8" ry="8"/><text text-anchor="middle" fill="#FFF" x="35" y="-10">32</text></a><g transform="translate(0,-30)"><g><a target="_top" xlink:href="mob-slice5-step17936641-ofs0-col0-cat1.html"><rect style="display:none" class="hcell-act-col0-cat1" fill="#F0AD4E" stroke="#000" stroke-width="5" width="70" height="20" x="0" y="-25" rx="8" ry="8"/><rect class="hcell-col0-cat1" fill="#F0AD4E" stroke="#DDD" width="70" height="30" x="0" y="-30" rx="8" ry="8"/><text text-anchor="middle" fill="#FFF" x="35" y="-10">500</text></a><g transform="translate(0,-30)"><g><a target="_top" xlink:href="mob-slice5-step17936641-ofs0-col0-cat5.html"><rect style="display:none" class="hcell-act-col0-cat5" fill="#777" stroke="#000" stroke-width="5" width="70" height="20" x="0" y="-25" rx="8" ry="8"/><rect class="hcell-col0-cat5" fill="#777" stroke="#DDD" width="70" height="30" x="0" y="-30" rx="8" ry="8"/><text text-anchor="middle" fill="#FFF" x="35" y="-10">1000</text></a><g transform="translate(0,-30)"><g><a target="_top" xlink:href="mob-slice5-step17936641-ofs0-col0-cat0.html"><rect style="display:none" class="hcell-act-col0-cat0" fill="#D9534F" stroke="#000" stroke-width="5" width="70" height="20" x="0" y="-25" rx="8" ry="8"/><rect class="hcell-col0-cat0" fill="#D9534F" stroke="#DDD" width="70" height="30" x="0" y="-30" rx="8" ry="8"/><text text-anchor="middle" fill="#FFF" x="35" y="-10">2486</text></a><g transform="translate(0,-30)"><g><a target="_top" xlink:href="mob-slice5-step17936641-ofs0-col0-cat3.html"><rect style="display:none" class="hcell-act-col0-cat3" fill="#5BC0DE" stroke="#000" stroke-width="5" width="70" height="20" x="0" y="-25" rx="8" ry="8"/><rect class="hcell-col0-cat3" fill="#5BC0DE" stroke="#DDD" width="70" height="30" x="0" y="-30" rx="8" ry="8"/><text text-anchor="middle" fill="#FFF" x="35" y="-10">2792</text></a><g transform="translate(0,-30)"><g><a target="_top" xlink:href="mob-slice5-step17936641-ofs0-col0-cat2.html"><rect style="display:none" class="hcell-act-col0-cat2" fill="#5CB85C" stroke="#000" stroke-width="5" width="70" height="117" x="0" y="-122" rx="8" ry="8"/><rect class="hcell-col0-cat2" fill="#5CB85C" stroke="#DDD" width="70" height="127" x="0" y="-127" rx="8" ry="8"/><text text-anchor="middle" fill="#FFF" x="35" y="-107">19825</text></a></g></g></g></g></g></g></g></g></g></g></g></g><rect fill="none" stroke="#DDD" width="70" height="30" rx="8" ry="8" x="5" y="292"/><text text-anchor="middle" fill="#333" x="40" y="312">12-07</text><g transform="translate(5,332)"><g><a target="_top" xlink:href="mob-slice5-step17936641-ofs0-col0-cat1.html"><rect style="display:none" class="hcell-act-col0-cat1" fill="#F0AD4E" stroke="#000" stroke-width="5" width="70" height="20" x="0" y="5" rx="8" ry="8"/><rect class="hcell-col0-cat1" fill="#F0AD4E" stroke="#DDD" width="70" height="30" x="0" y="0" rx="8" ry="8"/><text text-anchor="middle" fill="#FFF" x="35" y="20">-112</text></a><g transform="translate(0,30)"><g><a target="_top" xlink:href="mob-slice5-step17936641-ofs0-col0-cat4.html"><rect style="display:none" class="hcell-act-col0-cat4" fill="#337AB7" stroke="#000" stroke-width="5" width="70" height="20" x="0" y="5" rx="8" ry="8"/><rect class="hcell-col0-cat4" fill="#337AB7" stroke="#DDD" width="70" height="30" x="0" y="0" rx="8" ry="8"/><text text-anchor="middle" fill="#FFF" x="35" y="20">-996</text></a><g transform="translate(0,30)"><g><a target="_top" xlink:href="mob-slice5-step17936641-ofs0-col0-cat3.html"><rect style="display:none" class="hcell-act-col0-cat3" fill="#5BC0DE" stroke="#000" stroke-width="5" width="70" height="20" x="0" y="5" rx="8" ry="8"/><rect class="hcell-col0-cat3" fill="#5BC0DE" stroke="#DDD" width="70" height="30" x="0" y="0" rx="8" ry="8"/><text text-anchor="middle" fill="#FFF" x="35" y="20">-1099</text></a><g transform="translate(0,30)"><g><a target="_top" xlink:href="mob-slice5-step17936641-ofs0-col0-cat2.html"><rect style="display:none" class="hcell-act-col0-cat2" fill="#5CB85C" stroke="#000" stroke-width="5" width="70" height="89" x="0" y="5" rx="8" ry="8"/><rect class="hcell-col0-cat2" fill="#5CB85C" stroke="#DDD" width="70" height="99" x="0" y="0" rx="8" ry="8"/><text text-anchor="middle" fill="#FFF" x="35" y="20">-15429</text></a></g></g></g></g></g></g></g></g></g><g><g transform="translate(85,282)"><g><a target="_top" xlink:href="mob-slice5-step17936641-ofs0-col1-cat0.html"><rect style="display:none" class="hcell-act-col1-cat0" fill="#D9534F" stroke="#000" stroke-width="5" width="70" height="20" x="0" y="-25" rx="8" ry="8"/><rect class="hcell-col1-cat0" fill="#D9534F" stroke="#DDD" width="70" height="30" x="0" y="-30" rx="8" ry="8"/><text text-anchor="middle" fill="#FFF" x="35" y="-10">480</text></a><g transform="translate(0,-30)"><g><a target="_top" xlink:href="mob-slice5-step17936641-ofs0-col1-cat3.html"><rect style="display:none" class="hcell-act-col1-cat3" fill="#5BC0DE" stroke="#000" stroke-width="5" width="70" height="20" x="0" y="-25" rx="8" ry="8"/><rect class="hcell-col1-cat3" fill="#5BC0DE" stroke="#DDD" width="70" height="30" x="0" y="-30" rx="8" ry="8"/><text text-anchor="middle" fill="#FFF" x="35" y="-10">1512</text></a><g transform="translate(0,-30)"><g><a target="_top" xlink:href="mob-slice5-step17936641-ofs0-col1-cat4.html"><rect style="display:none" class="hcell-act-col1-cat4" fill="#337AB7" stroke="#000" stroke-width="5" width="70" height="20" x="0" y="-25" rx="8" ry="8"/><rect class="hcell-col1-cat4" fill="#337AB7" stroke="#DDD" width="70" height="30" x="0" y="-30" rx="8" ry="8"/><text text-anchor="middle" fill="#FFF" x="35" y="-10">3950</text></a><g transform="translate(0,-30)"><g><a target="_top" xlink:href="mob-slice5-step17936641-ofs0-col1-cat2.html"><rect style="display:none" class="hcell-act-col1-cat2" fill="#5CB85C" stroke="#000" stroke-width="5" width="70" height="120" x="0" y="-125" rx="8" ry="8"/><rect class="hcell-col1-cat2" fill="#5CB85C" stroke="#DDD" width="70" height="130" x="0" y="-130" rx="8" ry="8"/><text text-anchor="middle" fill="#FFF" x="35" y="-110">20147</text></a></g></g></g></g></g></g></g></g><rect fill="none" stroke="#DDD" width="70" height="30" rx="8" ry="8" x="85" y="292"/><text text-anchor="middle" fill="#333" x="120" y="312">13-01</text><g transform="translate(85,332)"><g><a target="_top" xlink:href="mob-slice5-step17936641-ofs0-col1-cat1.html"><rect style="display:none" class="hcell-act-col1-cat1" fill="#F0AD4E" stroke="#000" stroke-width="5" width="70" height="20" x="0" y="5" rx="8" ry="8"/><rect class="hcell-col1-cat1" fill="#F0AD4E" stroke="#DDD" width="70" height="30" x="0" y="0" rx="8" ry="8"/><text text-anchor="middle" fill="#FFF" x="35" y="20">-104</text></a><g transform="translate(0,30)"><g><a target="_top" xlink:href="mob-slice5-step17936641-ofs0-col1-cat4.html"><rect style="display:none" class="hcell-act-col1-cat4" fill="#337AB7" stroke="#000" stroke-width="5" width="70" height="20" x="0" y="5" rx="8" ry="8"/><rect class="hcell-col1-cat4" fill="#337AB7" stroke="#DDD" width="70" height="30" x="0" y="0" rx="8" ry="8"/><text text-anchor="middle" fill="#FFF" x="35" y="20">-3293</text></a><g transform="translate(0,30)"><g><a target="_top" xlink:href="mob-slice5-step17936641-ofs0-col1-cat0.html"><rect style="display:none" class="hcell-act-col1-cat0" fill="#D9534F" stroke="#000" stroke-width="5" width="70" height="20" x="0" y="5" rx="8" ry="8"/><rect class="hcell-col1-cat0" fill="#D9534F" stroke="#DDD" width="70" height="30" x="0" y="0" rx="8" ry="8"/><text text-anchor="middle" fill="#FFF" x="35" y="20">-3760</text></a><g transform="translate(0,30)"><g><a target="_top" xlink:href="mob-slice5-step17936641-ofs0-col1-cat2.html"><rect style="display:none" class="hcell-act-col1-cat2" fill="#5CB85C" stroke="#000" stroke-width="5" width="70" height="123" x="0" y="5" rx="8" ry="8"/><rect class="hcell-col1-cat2" fill="#5CB85C" stroke="#DDD" width="70" height="133" x="0" y="0" rx="8" ry="8"/><text text-anchor="middle" fill="#FFF" x="35" y="20">-20723</text></a></g></g></g></g></g></g></g></g></g><g><g transform="translate(165,282)"><g><a target="_top" xlink:href="mob-slice5-step17936641-ofs0-col2-cat1.html"><rect style="display:none" class="hcell-act-col2-cat1" fill="#F0AD4E" stroke="#000" stroke-width="5" width="70" height="20" x="0" y="-25" rx="8" ry="8"/><rect class="hcell-col2-cat1" fill="#F0AD4E" stroke="#DDD" width="70" height="30" x="0" y="-30" rx="8" ry="8"/><text text-anchor="middle" fill="#FFF" x="35" y="-10">15</text></a><g transform="translate(0,-30)"><g><a target="_top" xlink:href="mob-slice5-step17936641-ofs0-col2-cat3.html"><rect style="display:none" class="hcell-act-col2-cat3" fill="#5BC0DE" stroke="#000" stroke-width="5" width="70" height="20" x="0" y="-25" rx="8" ry="8"/><rect class="hcell-col2-cat3" fill="#5BC0DE" stroke="#DDD" width="70" height="30" x="0" y="-30" rx="8" ry="8"/><text text-anchor="middle" fill="#FFF" x="35" y="-10">640</text></a><g transform="translate(0,-30)"><g><a target="_top" xlink:href="mob-slice5-step17936641-ofs0-col2-cat0.html"><rect style="display:none" class="hcell-act-col2-cat0" fill="#D9534F" stroke="#000" stroke-width="5" width="70" height="20" x="0" y="-25" rx="8" ry="8"/><rect class="hcell-col2-cat0" fill="#D9534F" stroke="#DDD" width="70" height="30" x="0" y="-30" rx="8" ry="8"/><text text-anchor="middle" fill="#FFF" x="35" y="-10">3580</text></a><g transform="translate(0,-30)"><g><a target="_top" xlink:href="mob-slice5-step17936641-ofs0-col2-cat4.html"><rect style="display:none" class="hcell-act-col2-cat4" fill="#337AB7" stroke="#000" stroke-width="5" width="70" height="27" x="0" y="-32" rx="8" ry="8"/><rect class="hcell-col2-cat4" fill="#337AB7" stroke="#DDD" width="70" height="37" x="0" y="-37" rx="8" ry="8"/><text text-anchor="middle" fill="#FFF" x="35" y="-17">5814</text></a><g transform="translate(0,-37)"><g><a target="_top" xlink:href="mob-slice5-step17936641-ofs0-col2-cat2.html"><rect style="display:none" class="hcell-act-col2-cat2" fill="#5CB85C" stroke="#000" stroke-width="5" width="70" height="114" x="0" y="-119" rx="8" ry="8"/><rect class="hcell-col2-cat2" fill="#5CB85C" stroke="#DDD" width="70" height="124" x="0" y="-124" rx="8" ry="8"/><text text-anchor="middle" fill="#FFF" x="35" y="-104">19268</text></a></g></g></g></g></g></g></g></g></g></g><rect fill="none" stroke="#DDD" width="70" height="30" rx="8" ry="8" x="165" y="292"/><text text-anchor="middle" fill="#333" x="200" y="312">13-08</text><g transform="translate(165,332)"><g><a target="_top" xlink:href="mob-slice5-step17936641-ofs0-col2-cat1.html"><rect style="display:none" class="hcell-act-col2-cat1" fill="#F0AD4E" stroke="#000" stroke-width="5" width="70" height="20" x="0" y="5" rx="8" ry="8"/><rect class="hcell-col2-cat1" fill="#F0AD4E" stroke="#DDD" width="70" height="30" x="0" y="0" rx="8" ry="8"/><text text-anchor="middle" fill="#FFF" x="35" y="20">-152</text></a><g transform="translate(0,30)"><g><a target="_top" xlink:href="mob-slice5-step17936641-ofs0-col2-cat0.html"><rect style="display:none" class="hcell-act-col2-cat0" fill="#D9534F" stroke="#000" stroke-width="5" width="70" height="20" x="0" y="5" rx="8" ry="8"/><rect class="hcell-col2-cat0" fill="#D9534F" stroke="#DDD" width="70" height="30" x="0" y="0" rx="8" ry="8"/><text text-anchor="middle" fill="#FFF" x="35" y="20">-650</text></a><g transform="translate(0,30)"><g><a target="_top" xlink:href="mob-slice5-step17936641-ofs0-col2-cat3.html"><rect style="display:none" class="hcell-act-col2-cat3" fill="#5BC0DE" stroke="#000" stroke-width="5" width="70" height="20" x="0" y="5" rx="8" ry="8"/><rect class="hcell-col2-cat3" fill="#5BC0DE" stroke="#DDD" width="70" height="30" x="0" y="0" rx="8" ry="8"/><text text-anchor="middle" fill="#FFF" x="35" y="20">-2551</text></a><g transform="translate(0,30)"><g><a target="_top" xlink:href="mob-slice5-step17936641-ofs0-col2-cat4.html"><rect style="display:none" class="hcell-act-col2-cat4" fill="#337AB7" stroke="#000" stroke-width="5" width="70" height="21" x="0" y="5" rx="8" ry="8"/><rect class="hcell-col2-cat4" fill="#337AB7" stroke="#DDD" width="70" height="31" x="0" y="0" rx="8" ry="8"/><text text-anchor="middle" fill="#FFF" x="35" y="20">-4847</text></a><g transform="translate(0,31)"><g><a target="_top" xlink:href="mob-slice5-step17936641-ofs0-col2-cat2.html"><rect style="display:none" class="hcell-act-col2-cat2" fill="#5CB85C" stroke="#000" stroke-width="5" width="70" height="92" x="0" y="5" rx="8" ry="8"/><rect class="hcell-col2-cat2" fill="#5CB85C" stroke="#DDD" width="70" height="102" x="0" y="0" rx="8" ry="8"/><text text-anchor="middle" fill="#FFF" x="35" y="20">-15929</text></a></g></g></g></g></g></g></g></g></g></g></g><g><g transform="translate(245,282)"><g><a target="_top" xlink:href="mob-slice5-step17936641-ofs0-col3-cat1.html"><rect style="display:none" class="hcell-act-col3-cat1" fill="#F0AD4E" stroke="#000" stroke-width="5" width="70" height="20" x="0" y="-25" rx="8" ry="8"/><rect class="hcell-col3-cat1" fill="#F0AD4E" stroke="#DDD" width="70" height="30" x="0" y="-30" rx="8" ry="8"/><text text-anchor="middle" fill="#FFF" x="35" y="-10">223</text></a><g transform="translate(0,-30)"><g><a target="_top" xlink:href="mob-slice5-step17936641-ofs0-col3-cat0.html"><rect style="display:none" class="hcell-act-col3-cat0" fill="#D9534F" stroke="#000" stroke-width="5" width="70" height="20" x="0" y="-25" rx="8" ry="8"/><rect class="hcell-col3-cat0" fill="#D9534F" stroke="#DDD" width="70" height="30" x="0" y="-30" rx="8" ry="8"/><text text-anchor="middle" fill="#FFF" x="35" y="-10">1500</text></a><g transform="translate(0,-30)"><g><a target="_top" xlink:href="mob-slice5-step17936641-ofs0-col3-cat3.html"><rect style="display:none" class="hcell-act-col3-cat3" fill="#5BC0DE" stroke="#000" stroke-width="5" width="70" height="20" x="0" y="-25" rx="8" ry="8"/><rect class="hcell-col3-cat3" fill="#5BC0DE" stroke="#DDD" width="70" height="30" x="0" y="-30" rx="8" ry="8"/><text text-anchor="middle" fill="#FFF" x="35" y="-10">1960</text></a><g transform="translate(0,-30)"><g><a target="_top" xlink:href="mob-slice5-step17936641-ofs0-col3-cat4.html"><rect style="display:none" class="hcell-act-col3-cat4" fill="#337AB7" stroke="#000" stroke-width="5" width="70" height="20" x="0" y="-25" rx="8" ry="8"/><rect class="hcell-col3-cat4" fill="#337AB7" stroke="#DDD" width="70" height="30" x="0" y="-30" rx="8" ry="8"/><text text-anchor="middle" fill="#FFF" x="35" y="-10">3569</text></a><g transform="translate(0,-30)"><g><a target="_top" xlink:href="mob-slice5-step17936641-ofs0-col3-cat2.html"><rect style="display:none" class="hcell-act-col3-cat2" fill="#5CB85C" stroke="#000" stroke-width="5" width="70" height="114" x="0" y="-119" rx="8" ry="8"/><rect class="hcell-col3-cat2" fill="#5CB85C" stroke="#DDD" width="70" height="124" x="0" y="-124" rx="8" ry="8"/><text text-anchor="middle" fill="#FFF" x="35" y="-104">19319</text></a></g></g></g></g></g></g></g></g></g></g><rect fill="none" stroke="#DDD" width="70" height="30" rx="8" ry="8" x="245" y="292"/><text text-anchor="middle" fill="#333" x="280" y="312">14-03</text><g transform="translate(245,332)"><g><a target="_top" xlink:href="mob-slice5-step17936641-ofs0-col3-cat1.html"><rect style="display:none" class="hcell-act-col3-cat1" fill="#F0AD4E" stroke="#000" stroke-width="5" width="70" height="20" x="0" y="5" rx="8" ry="8"/><rect class="hcell-col3-cat1" fill="#F0AD4E" stroke="#DDD" width="70" height="30" x="0" y="0" rx="8" ry="8"/><text text-anchor="middle" fill="#FFF" x="35" y="20">-595</text></a><g transform="translate(0,30)"><g><a target="_top" xlink:href="mob-slice5-step17936641-ofs0-col3-cat0.html"><rect style="display:none" class="hcell-act-col3-cat0" fill="#D9534F" stroke="#000" stroke-width="5" width="70" height="20" x="0" y="5" rx="8" ry="8"/><rect class="hcell-col3-cat0" fill="#D9534F" stroke="#DDD" width="70" height="30" x="0" y="0" rx="8" ry="8"/><text text-anchor="middle" fill="#FFF" x="35" y="20">-1970</text></a><g transform="translate(0,30)"><g><a target="_top" xlink:href="mob-slice5-step17936641-ofs0-col3-cat3.html"><rect style="display:none" class="hcell-act-col3-cat3" fill="#5BC0DE" stroke="#000" stroke-width="5" width="70" height="20" x="0" y="5" rx="8" ry="8"/><rect class="hcell-col3-cat3" fill="#5BC0DE" stroke="#DDD" width="70" height="30" x="0" y="0" rx="8" ry="8"/><text text-anchor="middle" fill="#FFF" x="35" y="20">-2500</text></a><g transform="translate(0,30)"><g><a target="_top" xlink:href="mob-slice5-step17936641-ofs0-col3-cat4.html"><rect style="display:none" class="hcell-act-col3-cat4" fill="#337AB7" stroke="#000" stroke-width="5" width="70" height="43" x="0" y="5" rx="8" ry="8"/><rect class="hcell-col3-cat4" fill="#337AB7" stroke="#DDD" width="70" height="53" x="0" y="0" rx="8" ry="8"/><text text-anchor="middle" fill="#FFF" x="35" y="20">-8266</text></a><g transform="translate(0,53)"><g><a target="_top" xlink:href="mob-slice5-step17936641-ofs0-col3-cat2.html"><rect style="display:none" class="hcell-act-col3-cat2" fill="#5CB85C" stroke="#000" stroke-width="5" width="70" height="114" x="0" y="5" rx="8" ry="8"/><rect class="hcell-col3-cat2" fill="#5CB85C" stroke="#DDD" width="70" height="124" x="0" y="0" rx="8" ry="8"/><text text-anchor="middle" fill="#FFF" x="35" y="20">-19307</text></a></g></g></g></g></g></g></g></g></g></g></g><g><g transform="translate(325,282)"><g><a target="_top" xlink:href="mob-slice5-step17936641-ofs0-col4-cat2.html"><rect style="display:none" class="hcell-act-col4-cat2" fill="#5CB85C" stroke="#000" stroke-width="5" width="70" height="107" x="0" y="-112" rx="8" ry="8"/><rect class="hcell-col4-cat2" fill="#5CB85C" stroke="#DDD" width="70" height="117" x="0" y="-117" rx="8" ry="8"/><text text-anchor="middle" fill="#FFF" x="35" y="-97">18200</text></a></g></g><rect fill="none" stroke="#DDD" width="70" height="30" rx="8" ry="8" x="325" y="292"/><text text-anchor="middle" fill="#333" x="360" y="312">14-10</text><g transform="translate(325,332)"><g><a target="_top" xlink:href="mob-slice5-step17936641-ofs0-col4-cat2.html"><rect style="display:none" class="hcell-act-col4-cat2" fill="#5CB85C" stroke="#000" stroke-width="5" width="70" height="120" x="0" y="5" rx="8" ry="8"/><rect class="hcell-col4-cat2" fill="#5CB85C" stroke="#DDD" width="70" height="130" x="0" y="0" rx="8" ry="8"/><text text-anchor="middle" fill="#FFF" x="35" y="20">-20162</text></a></g></g></g></svg>