<svg xmlns="http://www.w3.org/2000/svg" xmlns:xlink="http://www.w3.org/1999/xlink" width="100%" height="100%" viewBox="0 0 400 459"><g><g transform="translate(5,172)"><g><a target="_top" xlink:href="mob-sliceTagAsset-step2628000-ofs25-col25-cat0.html"><rect style="display:none" class="hcell-act-col25-cat0" fill="#777" stroke="#000" stroke-width="5" width="70" height="157" x="0" y="-162" rx="8" ry="8"/><rect class="hcell-col25-cat0" fill="#777" stroke="#DDD" width="70" height="167" x="0" y="-167" rx="8" ry="8"/><text text-anchor="middle" fill="#FFF" x="35" y="-147">7951</text></a></g></g><rect fill="none" stroke="#DDD" width="70" height="30" rx="8" ry="8" x="5" y="182"/><text text-anchor="middle" fill="#333" x="40" y="202">14-08</text><g transform="translate(5,222)"><g><a target="_top" xlink:href="mob-sliceTagAsset-step2628000-ofs25-col25-cat0.html"><rect style="display:none" class="hcell-act-col25-cat0" fill="#777" stroke="#000" stroke-width="5" width="70" height="100" x="0" y="5" rx="8" ry="8"/><rect class="hcell-col25-cat0" fill="#777" stroke="#DDD" width="70" height="110" x="0" y="0" rx="8" ry="8"/><text text-anchor="middle" fill="#FFF" x="35" y="20">-5250</text></a></g></g></g><g><g transform="translate(85,172)"><g><a target="_top" xlink:href="mob-sliceTagAsset-step2628000-ofs25-col26-cat0.html"><rect style="display:none" class="hcell-act-col26-cat0" fill="#777" stroke="#000" stroke-width="5" width="70" height="110" x="0" y="-115" rx="8" ry="8"/><rect class="hcell-col26-cat0" fill="#777" stroke="#DDD" width="70" height="120" x="0" y="-120" rx="8" ry="8"/><text text-anchor="middle" fill="#FFF" x="35" y="-100">5703</text></a></g></g><rect fill="none" stroke="#DDD" width="70" height="30" rx="8" ry="8" x="85" y="182"/><text text-anchor="middle" fill="#333" x="120" y="202">14-08</text><g transform="translate(85,222)"><g><a target="_top" xlink:href="mob-sliceTagAsset-step2628000-ofs25-col26-cat0.html"><rect style="display:none" class="hcell-act-col26-cat0" fill="#777" stroke="#000" stroke-width="5" width="70" height="222" x="0" y="5" rx="8" ry="8"/><rect class="hcell-col26-cat0" fill="#777" stroke="#DDD" width="70" height="232" x="0" y="0" rx="8" ry="8"/><text text-anchor="middle" fill="#FFF" x="35" y="20">-10998</text></a></g></g></g><g><g transform="translate(165,172)"><g><a target="_top" xlink:href="mob-sliceTagAsset-step2628000-ofs25-col27-cat0.html"><rect style="display:none" class="hcell-act-col27-cat0" fill="#777" stroke="#000" stroke-width="5" width="70" height="78" x="0" y="-83" rx="8" ry="8"/><rect class="hcell-col27-cat0" fill="#777" stroke="#DDD" width="70" height="88" x="0" y="-88" rx="8" ry="8"/><text text-anchor="middle" fill="#FFF" x="35" y="-68">4216</text></a></g></g><rect fill="none" stroke="#DDD" width="70" height="30" rx="8" ry="8" x="165" y="182"/><text text-anchor="middle" fill="#333" x="200" y="202">14-10</text><g transform="translate(165,222)"><g><a target="_top" xlink:href="mob-sliceTagAsset-step2628000-ofs25-col27-cat0.html"><rect style="display:none" class="hcell-act-col27-cat0" fill="#777" stroke="#000" stroke-width="5" width="70" height="44" x="0" y="5" rx="8" ry="8"/><rect class="hcell-col27-cat0" fill="#777" stroke="#DDD" width="70" height="54" x="0" y="0" rx="8" ry="8"/><text text-anchor="middle" fill="#FFF" x="35" y="20">-2562</text></a></g></g></g><g><g transform="translate(245,172)"><g><a target="_top" xlink:href="mob-sliceTagAsset-step2628000-ofs25-col28-cat0.html"><rect style="display:none" class="hcell-act-col28-cat0" fill="#777" stroke="#000" stroke-width="5" width="70" height="45" x="0" y="-50" rx="8" ry="8"/><rect class="hcell-col28-cat0" fill="#777" stroke="#DDD" width="70" height="55" x="0" y="-55" rx="8" ry="8"/><text text-anchor="middle" fill="#FFF" x="35" y="-35">2637</text></a></g></g><rect fill="none" stroke="#DDD" width="70" height="30" rx="8" ry="8" x="245" y="182"/><text text-anchor="middle" fill="#333" x="280" y="202">14-10</text><g transform="translate(245,222)"><g><a target="_top" xlink:href="mob-sliceTagAsset-step2628000-ofs25-col28-cat0.html"><rect style="display:none" class="hcell-act-col28-cat0" fill="#777" stroke="#000" stroke-width="5" width="70" height="91" x="0" y="5" rx="8" ry="8"/><rect class="hcell-col28-cat0" fill="#777" stroke="#DDD" width="70" height="101" x="0" y="0" rx="8" ry="8"/><text text-anchor="middle" fill="#FFF" x="35" y="20">-4831</text></a></g></g></g><g><g transform="translate(325,172)"><g><a target="_top" xlink:href="mob-sliceTagAsset-step2628000-ofs25-col29-cat0.html"><rect style="display:none" class="hcell-act-col29-cat0" fill="#777" stroke="#000" stroke-width="5" width="70" height="85" x="0" y="-90" rx="8" ry="8"/><rect class="hcell-col29-cat0" fill="#777" stroke="#DDD" width="70" height="95" x="0" y="-95" rx="8" ry="8"/><text text-anchor="middle" fill="#FFF" x="35" y="-75">4541</text></a></g></g><rect fill="none" stroke="#DDD" width="70" height="30" rx="8" ry="8" x="325" y="182"/><text text-anchor="middle" fill="#333" x="360" y="202">14-12</text><g transform="translate(325,222)"><g><a target="_top" xlink:href="mob-sliceTagAsset-step2628000-ofs25-col29-cat0.html"><rect style="display:none" class="hcell-act-col29-cat0" fill="#777" stroke="#000" stroke-width="5" width="70" height="91" x="0" y="5" rx="8" ry="8"/><rect class="hcell-col29-cat0" fill="#777" stroke="#DDD" width="70" height="101" x="0" y="0" rx="8" ry="8"/><text text-anchor="middle" fill="#FFF" x="35" y="20">-4812</text></a></g></g></g></svg>