<svg xmlns="http://www.w3.org/2000/svg" xmlns:xlink="http://www.w3.org/1999/xlink" width="100%" height="100%" viewBox="0 0 400 459"><g><g transform="translate(5,165)"><g><a target="_top" xlink:href="mob-sliceTagAsset-step2628000-ofs10-col10-cat0.html"><rect style="display:none" class="hcell-act-col10-cat0" fill="#777" stroke="#000" stroke-width="5" width="70" height="124" x="0" y="-129" rx="8" ry="8"/><rect class="hcell-col10-cat0" fill="#777" stroke="#DDD" width="70" height="134" x="0" y="-134" rx="8" ry="8"/><text text-anchor="middle" fill="#FFF" x="35" y="-114">3757</text></a></g></g><rect fill="none" stroke="#DDD" width="70" height="30" rx="8" ry="8" x="5" y="175"/><text text-anchor="middle" fill="#333" x="40" y="195">13-05</text><g transform="translate(5,215)"><g><a target="_top" xlink:href="mob-sliceTagAsset-step2628000-ofs10-col10-cat0.html"><rect style="display:none" class="hcell-act-col10-cat0" fill="#777" stroke="#000" stroke-width="5" width="70" height="165" x="0" y="5" rx="8" ry="8"/><rect class="hcell-col10-cat0" fill="#777" stroke="#DDD" width="70" height="175" x="0" y="0" rx="8" ry="8"/><text text-anchor="middle" fill="#FFF" x="35" y="20">-4908</text></a></g></g></g><g><g transform="translate(85,165)"><g><a target="_top" xlink:href="mob-sliceTagAsset-step2628000-ofs10-col11-cat0.html"><rect style="display:none" class="hcell-act-col11-cat0" fill="#777" stroke="#000" stroke-width="5" width="70" height="116" x="0" y="-121" rx="8" ry="8"/><rect class="hcell-col11-cat0" fill="#777" stroke="#DDD" width="70" height="126" x="0" y="-126" rx="8" ry="8"/><text text-anchor="middle" fill="#FFF" x="35" y="-106">3532</text></a></g></g><rect fill="none" stroke="#DDD" width="70" height="30" rx="8" ry="8" x="85" y="175"/><text text-anchor="middle" fill="#333" x="120" y="195">13-06</text><g transform="translate(85,215)"><g><a target="_top" xlink:href="mob-sliceTagAsset-step2628000-ofs10-col11-cat0.html"><rect style="display:none" class="hcell-act-col11-cat0" fill="#777" stroke="#000" stroke-width="5" width="70" height="100" x="0" y="5" rx="8" ry="8"/><rect class="hcell-col11-cat0" fill="#777" stroke="#DDD" width="70" height="110" x="0" y="0" rx="8" ry="8"/><text text-anchor="middle" fill="#FFF" x="35" y="20">-3101</text></a></g></g></g><g><g transform="translate(165,165)"><g><a target="_top" xlink:href="mob-sliceTagAsset-step2628000-ofs10-col12-cat0.html"><rect style="display:none" class="hcell-act-col12-cat0" fill="#777" stroke="#000" stroke-width="5" width="70" height="100" x="0" y="-105" rx="8" ry="8"/><rect class="hcell-col12-cat0" fill="#777" stroke="#DDD" width="70" height="110" x="0" y="-110" rx="8" ry="8"/><text text-anchor="middle" fill="#FFF" x="35" y="-90">3090</text></a></g></g><rect fill="none" stroke="#DDD" width="70" height="30" rx="8" ry="8" x="165" y="175"/><text text-anchor="middle" fill="#333" x="200" y="195">13-07</text><g transform="translate(165,215)"><g><a target="_top" xlink:href="mob-sliceTagAsset-step2628000-ofs10-col12-cat0.html"><rect style="display:none" class="hcell-act-col12-cat0" fill="#777" stroke="#000" stroke-width="5" width="70" height="229" x="0" y="5" rx="8" ry="8"/><rect class="hcell-col12-cat0" fill="#777" stroke="#DDD" width="70" height="239" x="0" y="0" rx="8" ry="8"/><text text-anchor="middle" fill="#FFF" x="35" y="20">-6695</text></a></g></g></g><g><g transform="translate(245,165)"><g><a target="_top" xlink:href="mob-sliceTagAsset-step2628000-ofs10-col13-cat0.html"><rect style="display:none" class="hcell-act-col13-cat0" fill="#777" stroke="#000" stroke-width="5" width="70" height="83" x="0" y="-88" rx="8" ry="8"/><rect class="hcell-col13-cat0" fill="#777" stroke="#DDD" width="70" height="93" x="0" y="-93" rx="8" ry="8"/><text text-anchor="middle" fill="#FFF" x="35" y="-73">2624</text></a></g></g><rect fill="none" stroke="#DDD" width="70" height="30" rx="8" ry="8" x="245" y="175"/><text text-anchor="middle" fill="#333" x="280" y="195">13-08</text><g transform="translate(245,215)"><g><a target="_top" xlink:href="mob-sliceTagAsset-step2628000-ofs10-col13-cat0.html"><rect style="display:none" class="hcell-act-col13-cat0" fill="#777" stroke="#000" stroke-width="5" width="70" height="71" x="0" y="5" rx="8" ry="8"/><rect class="hcell-col13-cat0" fill="#777" stroke="#DDD" width="70" height="81" x="0" y="0" rx="8" ry="8"/><text text-anchor="middle" fill="#FFF" x="35" y="20">-2277</text></a></g></g></g><g><g transform="translate(325,165)"><g><a target="_top" xlink:href="mob-sliceTagAsset-step2628000-ofs10-col14-cat0.html"><rect style="display:none" class="hcell-act-col14-cat0" fill="#777" stroke="#000" stroke-width="5" width="70" height="150" x="0" y="-155" rx="8" ry="8"/><rect class="hcell-col14-cat0" fill="#777" stroke="#DDD" width="70" height="160" x="0" y="-160" rx="8" ry="8"/><text text-anchor="middle" fill="#FFF" x="35" y="-140">4500</text></a></g></g><rect fill="none" stroke="#DDD" width="70" height="30" rx="8" ry="8" x="325" y="175"/><text text-anchor="middle" fill="#333" x="360" y="195">13-08</text><g transform="translate(325,215)"><g><a target="_top" xlink:href="mob-sliceTagAsset-step2628000-ofs10-col14-cat0.html"><rect style="display:none" class="hcell-act-col14-cat0" fill="#777" stroke="#000" stroke-width="5" width="70" height="58" x="0" y="5" rx="8" ry="8"/><rect class="hcell-col14-cat0" fill="#777" stroke="#DDD" width="70" height="68" x="0" y="0" rx="8" ry="8"/><text text-anchor="middle" fill="#FFF" x="35" y="20">-1911</text></a></g></g></g></svg>