<svg xmlns="http://www.w3.org/2000/svg" xmlns:xlink="http://www.w3.org/1999/xlink" width="100%" height="100%" viewBox="0 0 400 485"><g><g transform="translate(5,400)"><g><a target="_top" xlink:href="mob-sliceTagExpense-step17936641-ofs0-col0-cat0.html"><rect style="display:none" class="hcell-act-col0-cat0" fill="#777" stroke="#000" stroke-width="5" width="70" height="239" x="0" y="-244" rx="8" ry="8"/><rect class="hcell-col0-cat0" fill="#777" stroke="#DDD" width="70" height="249" x="0" y="-249" rx="8" ry="8"/><text text-anchor="middle" fill="#FFF" x="35" y="-229">15715</text></a></g></g><rect fill="none" stroke="#DDD" width="70" height="30" rx="8" ry="8" x="5" y="410"/><text text-anchor="middle" fill="#333" x="40" y="430">12-07</text><g transform="translate(5,450)"><g><a target="_top" xlink:href="mob-sliceTagExpense-step17936641-ofs0-col0-cat0.html"><rect style="display:none" class="hcell-act-col0-cat0" fill="#777" stroke="#000" stroke-width="5" width="70" height="20" x="0" y="5" rx="8" ry="8"/><rect class="hcell-col0-cat0" fill="#777" stroke="#DDD" width="70" height="30" x="0" y="0" rx="8" ry="8"/><text text-anchor="middle" fill="#FFF" x="35" y="20">-301</text></a></g></g></g><g><g transform="translate(85,400)"><g><a target="_top" xlink:href="mob-sliceTagExpense-step17936641-ofs0-col1-cat0.html"><rect style="display:none" class="hcell-act-col1-cat0" fill="#777" stroke="#000" stroke-width="5" width="70" height="273" x="0" y="-278" rx="8" ry="8"/><rect class="hcell-col1-cat0" fill="#777" stroke="#DDD" width="70" height="283" x="0" y="-283" rx="8" ry="8"/><text text-anchor="middle" fill="#FFF" x="35" y="-263">17894</text></a></g></g><rect fill="none" stroke="#DDD" width="70" height="30" rx="8" ry="8" x="85" y="410"/><text text-anchor="middle" fill="#333" x="120" y="430">13-01</text><g transform="translate(85,450)"><g><a target="_top" xlink:href="mob-sliceTagExpense-step17936641-ofs0-col1-cat0.html"><rect style="display:none" class="hcell-act-col1-cat0" fill="#777" stroke="#000" stroke-width="5" width="70" height="20" x="0" y="5" rx="8" ry="8"/><rect class="hcell-col1-cat0" fill="#777" stroke="#DDD" width="70" height="30" x="0" y="0" rx="8" ry="8"/><text text-anchor="middle" fill="#FFF" x="35" y="20">-231</text></a></g></g></g><g><g transform="translate(165,400)"><g><a target="_top" xlink:href="mob-sliceTagExpense-step17936641-ofs0-col2-cat0.html"><rect style="display:none" class="hcell-act-col2-cat0" fill="#777" stroke="#000" stroke-width="5" width="70" height="241" x="0" y="-246" rx="8" ry="8"/><rect class="hcell-col2-cat0" fill="#777" stroke="#DDD" width="70" height="251" x="0" y="-251" rx="8" ry="8"/><text text-anchor="middle" fill="#FFF" x="35" y="-231">15850</text></a></g></g><rect fill="none" stroke="#DDD" width="70" height="30" rx="8" ry="8" x="165" y="410"/><text text-anchor="middle" fill="#333" x="200" y="430">13-08</text><g transform="translate(165,450)"><g><a target="_top" xlink:href="mob-sliceTagExpense-step17936641-ofs0-col2-cat0.html"><rect style="display:none" class="hcell-act-col2-cat0" fill="#777" stroke="#000" stroke-width="5" width="70" height="20" x="0" y="5" rx="8" ry="8"/><rect class="hcell-col2-cat0" fill="#777" stroke="#DDD" width="70" height="30" x="0" y="0" rx="8" ry="8"/><text text-anchor="middle" fill="#FFF" x="35" y="20">-132</text></a></g></g></g><g><g transform="translate(245,400)"><g><a target="_top" xlink:href="mob-sliceTagExpense-step17936641-ofs0-col3-cat0.html"><rect style="display:none" class="hcell-act-col3-cat0" fill="#777" stroke="#000" stroke-width="5" width="70" height="385" x="0" y="-390" rx="8" ry="8"/><rect class="hcell-col3-cat0" fill="#777" stroke="#DDD" width="70" height="395" x="0" y="-395" rx="8" ry="8"/><text text-anchor="middle" fill="#FFF" x="35" y="-375">24919</text></a></g></g><rect fill="none" stroke="#DDD" width="70" height="30" rx="8" ry="8" x="245" y="410"/><text text-anchor="middle" fill="#333" x="280" y="430">14-03</text><g transform="translate(245,450)"><g><a target="_top" xlink:href="mob-sliceTagExpense-step17936641-ofs0-col3-cat0.html"><rect style="display:none" class="hcell-act-col3-cat0" fill="#777" stroke="#000" stroke-width="5" width="70" height="20" x="0" y="5" rx="8" ry="8"/><rect class="hcell-col3-cat0" fill="#777" stroke="#DDD" width="70" height="30" x="0" y="0" rx="8" ry="8"/><text text-anchor="middle" fill="#FFF" x="35" y="20">-132</text></a></g></g></g><g><g transform="translate(325,400)"><g><a target="_top" xlink:href="mob-sliceTagExpense-step17936641-ofs0-col4-cat0.html"><rect style="display:none" class="hcell-act-col4-cat0" fill="#777" stroke="#000" stroke-width="5" width="70" height="309" x="0" y="-314" rx="8" ry="8"/><rect class="hcell-col4-cat0" fill="#777" stroke="#DDD" width="70" height="319" x="0" y="-319" rx="8" ry="8"/><text text-anchor="middle" fill="#FFF" x="35" y="-299">20161</text></a></g></g><rect fill="none" stroke="#DDD" width="70" height="30" rx="8" ry="8" x="325" y="410"/><text text-anchor="middle" fill="#333" x="360" y="430">14-10</text><g transform="translate(325,450)"></g></g></svg>