<svg xmlns="http://www.w3.org/2000/svg" xmlns:xlink="http://www.w3.org/1999/xlink" width="100%" height="100%" viewBox="0 0 400 569"><g><g transform="translate(5,133)"><g><a target="_top" xlink:href="mob-slice0-step2628000-ofs30-col30-cat2.html"><rect style="display:none" class="hcell-act-col30-cat2" fill="#5CB85C" stroke="#000" stroke-width="5" width="70" height="39" x="0" y="-44" rx="8" ry="8"/><rect class="hcell-col30-cat2" fill="#5CB85C" stroke="#DDD" width="70" height="49" x="0" y="-49" rx="8" ry="8"/><text text-anchor="middle" fill="#FFF" x="35" y="-29">525</text></a></g></g><rect fill="none" stroke="#DDD" width="70" height="30" rx="8" ry="8" x="5" y="143"/><text text-anchor="middle" fill="#333" x="40" y="163">14-12</text><g transform="translate(5,183)"><g><a target="_top" xlink:href="mob-slice0-step2628000-ofs30-col30-cat3.html"><rect style="display:none" class="hcell-act-col30-cat3" fill="#5BC0DE" stroke="#000" stroke-width="5" width="70" height="20" x="0" y="5" rx="8" ry="8"/><rect class="hcell-col30-cat3" fill="#5BC0DE" stroke="#DDD" width="70" height="30" x="0" y="0" rx="8" ry="8"/><text text-anchor="middle" fill="#FFF" x="35" y="20">-7</text></a><g transform="translate(0,30)"><g><a target="_top" xlink:href="mob-slice0-step2628000-ofs30-col30-cat5.html"><rect style="display:none" class="hcell-act-col30-cat5" fill="#777" stroke="#000" stroke-width="5" width="70" height="20" x="0" y="5" rx="8" ry="8"/><rect class="hcell-col30-cat5" fill="#777" stroke="#DDD" width="70" height="30" x="0" y="0" rx="8" ry="8"/><text text-anchor="middle" fill="#FFF" x="35" y="20">-12</text></a><g transform="translate(0,30)"><g><a target="_top" xlink:href="mob-slice0-step2628000-ofs30-col30-cat4.html"><rect style="display:none" class="hcell-act-col30-cat4" fill="#337AB7" stroke="#000" stroke-width="5" width="70" height="20" x="0" y="5" rx="8" ry="8"/><rect class="hcell-col30-cat4" fill="#337AB7" stroke="#DDD" width="70" height="30" x="0" y="0" rx="8" ry="8"/><text text-anchor="middle" fill="#FFF" x="35" y="20">-149</text></a><g transform="translate(0,30)"><g><a target="_top" xlink:href="mob-slice0-step2628000-ofs30-col30-cat0.html"><rect style="display:none" class="hcell-act-col30-cat0" fill="#D9534F" stroke="#000" stroke-width="5" width="70" height="20" x="0" y="5" rx="8" ry="8"/><rect class="hcell-col30-cat0" fill="#D9534F" stroke="#DDD" width="70" height="30" x="0" y="0" rx="8" ry="8"/><text text-anchor="middle" fill="#FFF" x="35" y="20">-201</text></a><g transform="translate(0,30)"><g><a target="_top" xlink:href="mob-slice0-step2628000-ofs30-col30-cat1.html"><rect style="display:none" class="hcell-act-col30-cat1" fill="#F0AD4E" stroke="#000" stroke-width="5" width="70" height="20" x="0" y="5" rx="8" ry="8"/><rect class="hcell-col30-cat1" fill="#F0AD4E" stroke="#DDD" width="70" height="30" x="0" y="0" rx="8" ry="8"/><text text-anchor="middle" fill="#FFF" x="35" y="20">-204</text></a></g></g></g></g></g></g></g></g></g></g></g><g><g transform="translate(85,133)"><g><a target="_top" xlink:href="mob-slice0-step2628000-ofs30-col31-cat0.html"><rect style="display:none" class="hcell-act-col31-cat0" fill="#D9534F" stroke="#000" stroke-width="5" width="70" height="20" x="0" y="-25" rx="8" ry="8"/><rect class="hcell-col31-cat0" fill="#D9534F" stroke="#DDD" width="70" height="30" x="0" y="-30" rx="8" ry="8"/><text text-anchor="middle" fill="#FFF" x="35" y="-10">16</text></a><g transform="translate(0,-30)"><g><a target="_top" xlink:href="mob-slice0-step2628000-ofs30-col31-cat3.html"><rect style="display:none" class="hcell-act-col31-cat3" fill="#5BC0DE" stroke="#000" stroke-width="5" width="70" height="20" x="0" y="-25" rx="8" ry="8"/><rect class="hcell-col31-cat3" fill="#5BC0DE" stroke="#DDD" width="70" height="30" x="0" y="-30" rx="8" ry="8"/><text text-anchor="middle" fill="#FFF" x="35" y="-10">104</text></a><g transform="translate(0,-30)"><g><a target="_top" xlink:href="mob-slice0-step2628000-ofs30-col31-cat4.html"><rect style="display:none" class="hcell-act-col31-cat4" fill="#337AB7" stroke="#000" stroke-width="5" width="70" height="20" x="0" y="-25" rx="8" ry="8"/><rect class="hcell-col31-cat4" fill="#337AB7" stroke="#DDD" width="70" height="30" x="0" y="-30" rx="8" ry="8"/><text text-anchor="middle" fill="#FFF" x="35" y="-10">209</text></a><g transform="translate(0,-30)"><g><a target="_top" xlink:href="mob-slice0-step2628000-ofs30-col31-cat1.html"><rect style="display:none" class="hcell-act-col31-cat1" fill="#F0AD4E" stroke="#000" stroke-width="5" width="70" height="28" x="0" y="-33" rx="8" ry="8"/><rect class="hcell-col31-cat1" fill="#F0AD4E" stroke="#DDD" width="70" height="38" x="0" y="-38" rx="8" ry="8"/><text text-anchor="middle" fill="#FFF" x="35" y="-18">403</text></a></g></g></g></g></g></g></g></g><rect fill="none" stroke="#DDD" width="70" height="30" rx="8" ry="8" x="85" y="143"/><text text-anchor="middle" fill="#333" x="120" y="163">15-01</text><g transform="translate(85,183)"><g><a target="_top" xlink:href="mob-slice0-step2628000-ofs30-col31-cat5.html"><rect style="display:none" class="hcell-act-col31-cat5" fill="#777" stroke="#000" stroke-width="5" width="70" height="20" x="0" y="5" rx="8" ry="8"/><rect class="hcell-col31-cat5" fill="#777" stroke="#DDD" width="70" height="30" x="0" y="0" rx="8" ry="8"/><text text-anchor="middle" fill="#FFF" x="35" y="20">-20</text></a><g transform="translate(0,30)"><g><a target="_top" xlink:href="mob-slice0-step2628000-ofs30-col31-cat2.html"><rect style="display:none" class="hcell-act-col31-cat2" fill="#5CB85C" stroke="#000" stroke-width="5" width="70" height="20" x="0" y="5" rx="8" ry="8"/><rect class="hcell-col31-cat2" fill="#5CB85C" stroke="#DDD" width="70" height="30" x="0" y="0" rx="8" ry="8"/><text text-anchor="middle" fill="#FFF" x="35" y="20">-213</text></a></g></g></g></g></g><g><g transform="translate(165,133)"><g><a target="_top" xlink:href="mob-slice0-step2628000-ofs30-col32-cat5.html"><rect style="display:none" class="hcell-act-col32-cat5" fill="#777" stroke="#000" stroke-width="5" width="70" height="20" x="0" y="-25" rx="8" ry="8"/><rect class="hcell-col32-cat5" fill="#777" stroke="#DDD" width="70" height="30" x="0" y="-30" rx="8" ry="8"/><text text-anchor="middle" fill="#FFF" x="35" y="-10">22</text></a></g></g><rect fill="none" stroke="#DDD" width="70" height="30" rx="8" ry="8" x="165" y="143"/><text text-anchor="middle" fill="#333" x="200" y="163">15-03</text><g transform="translate(165,183)"><g><a target="_top" xlink:href="mob-slice0-step2628000-ofs30-col32-cat0.html"><rect style="display:none" class="hcell-act-col32-cat0" fill="#D9534F" stroke="#000" stroke-width="5" width="70" height="20" x="0" y="5" rx="8" ry="8"/><rect class="hcell-col32-cat0" fill="#D9534F" stroke="#DDD" width="70" height="30" x="0" y="0" rx="8" ry="8"/><text text-anchor="middle" fill="#FFF" x="35" y="20">-11</text></a><g transform="translate(0,30)"><g><a target="_top" xlink:href="mob-slice0-step2628000-ofs30-col32-cat4.html"><rect style="display:none" class="hcell-act-col32-cat4" fill="#337AB7" stroke="#000" stroke-width="5" width="70" height="20" x="0" y="5" rx="8" ry="8"/><rect class="hcell-col32-cat4" fill="#337AB7" stroke="#DDD" width="70" height="30" x="0" y="0" rx="8" ry="8"/><text text-anchor="middle" fill="#FFF" x="35" y="20">-32</text></a><g transform="translate(0,30)"><g><a target="_top" xlink:href="mob-slice0-step2628000-ofs30-col32-cat3.html"><rect style="display:none" class="hcell-act-col32-cat3" fill="#5BC0DE" stroke="#000" stroke-width="5" width="70" height="20" x="0" y="5" rx="8" ry="8"/><rect class="hcell-col32-cat3" fill="#5BC0DE" stroke="#DDD" width="70" height="30" x="0" y="0" rx="8" ry="8"/><text text-anchor="middle" fill="#FFF" x="35" y="20">-67</text></a><g transform="translate(0,30)"><g><a target="_top" xlink:href="mob-slice0-step2628000-ofs30-col32-cat1.html"><rect style="display:none" class="hcell-act-col32-cat1" fill="#F0AD4E" stroke="#000" stroke-width="5" width="70" height="20" x="0" y="5" rx="8" ry="8"/><rect class="hcell-col32-cat1" fill="#F0AD4E" stroke="#DDD" width="70" height="30" x="0" y="0" rx="8" ry="8"/><text text-anchor="middle" fill="#FFF" x="35" y="20">-222</text></a><g transform="translate(0,30)"><g><a target="_top" xlink:href="mob-slice0-step2628000-ofs30-col32-cat2.html"><rect style="display:none" class="hcell-act-col32-cat2" fill="#5CB85C" stroke="#000" stroke-width="5" width="70" height="20" x="0" y="5" rx="8" ry="8"/><rect class="hcell-col32-cat2" fill="#5CB85C" stroke="#DDD" width="70" height="30" x="0" y="0" rx="8" ry="8"/><text text-anchor="middle" fill="#FFF" x="35" y="20">-286</text></a></g></g></g></g></g></g></g></g></g></g></g><g><g transform="translate(245,133)"><g><a target="_top" xlink:href="mob-slice0-step2628000-ofs30-col33-cat3.html"><rect style="display:none" class="hcell-act-col33-cat3" fill="#5BC0DE" stroke="#000" stroke-width="5" width="70" height="20" x="0" y="-25" rx="8" ry="8"/><rect class="hcell-col33-cat3" fill="#5BC0DE" stroke="#DDD" width="70" height="30" x="0" y="-30" rx="8" ry="8"/><text text-anchor="middle" fill="#FFF" x="35" y="-10">4</text></a><g transform="translate(0,-30)"><g><a target="_top" xlink:href="mob-slice0-step2628000-ofs30-col33-cat0.html"><rect style="display:none" class="hcell-act-col33-cat0" fill="#D9534F" stroke="#000" stroke-width="5" width="70" height="20" x="0" y="-25" rx="8" ry="8"/><rect class="hcell-col33-cat0" fill="#D9534F" stroke="#DDD" width="70" height="30" x="0" y="-30" rx="8" ry="8"/><text text-anchor="middle" fill="#FFF" x="35" y="-10">22</text></a><g transform="translate(0,-30)"><g><a target="_top" xlink:href="mob-slice0-step2628000-ofs30-col33-cat5.html"><rect style="display:none" class="hcell-act-col33-cat5" fill="#777" stroke="#000" stroke-width="5" width="70" height="20" x="0" y="-25" rx="8" ry="8"/><rect class="hcell-col33-cat5" fill="#777" stroke="#DDD" width="70" height="30" x="0" y="-30" rx="8" ry="8"/><text text-anchor="middle" fill="#FFF" x="35" y="-10">25</text></a></g></g></g></g></g></g><rect fill="none" stroke="#DDD" width="70" height="30" rx="8" ry="8" x="245" y="143"/><text text-anchor="middle" fill="#333" x="280" y="163">15-04</text><g transform="translate(245,183)"><g><a target="_top" xlink:href="mob-slice0-step2628000-ofs30-col33-cat4.html"><rect style="display:none" class="hcell-act-col33-cat4" fill="#337AB7" stroke="#000" stroke-width="5" width="70" height="20" x="0" y="5" rx="8" ry="8"/><rect class="hcell-col33-cat4" fill="#337AB7" stroke="#DDD" width="70" height="30" x="0" y="0" rx="8" ry="8"/><text text-anchor="middle" fill="#FFF" x="35" y="20">-26</text></a><g transform="translate(0,30)"><g><a target="_top" xlink:href="mob-slice0-step2628000-ofs30-col33-cat2.html"><rect style="display:none" class="hcell-act-col33-cat2" fill="#5CB85C" stroke="#000" stroke-width="5" width="70" height="20" x="0" y="5" rx="8" ry="8"/><rect class="hcell-col33-cat2" fill="#5CB85C" stroke="#DDD" width="70" height="30" x="0" y="0" rx="8" ry="8"/><text text-anchor="middle" fill="#FFF" x="35" y="20">-85</text></a><g transform="translate(0,30)"><g><a target="_top" xlink:href="mob-slice0-step2628000-ofs30-col33-cat1.html"><rect style="display:none" class="hcell-act-col33-cat1" fill="#F0AD4E" stroke="#000" stroke-width="5" width="70" height="20" x="0" y="5" rx="8" ry="8"/><rect class="hcell-col33-cat1" fill="#F0AD4E" stroke="#DDD" width="70" height="30" x="0" y="0" rx="8" ry="8"/><text text-anchor="middle" fill="#FFF" x="35" y="20">-98</text></a></g></g></g></g></g></g></g><g><g transform="translate(325,133)"></g><rect fill="none" stroke="#DDD" width="70" height="30" rx="8" ry="8" x="325" y="143"/><text text-anchor="middle" fill="#333" x="360" y="163">15-05</text><g transform="translate(325,183)"><g><a target="_top" xlink:href="mob-slice0-step2628000-ofs30-col34-cat5.html"><rect style="display:none" class="hcell-act-col34-cat5" fill="#777" stroke="#000" stroke-width="5" width="70" height="20" x="0" y="5" rx="8" ry="8"/><rect class="hcell-col34-cat5" fill="#777" stroke="#DDD" width="70" height="30" x="0" y="0" rx="8" ry="8"/><text text-anchor="middle" fill="#FFF" x="35" y="20">-20</text></a><g transform="translate(0,30)"><g><a target="_top" xlink:href="mob-slice0-step2628000-ofs30-col34-cat3.html"><rect style="display:none" class="hcell-act-col34-cat3" fill="#5BC0DE" stroke="#000" stroke-width="5" width="70" height="20" x="0" y="5" rx="8" ry="8"/><rect class="hcell-col34-cat3" fill="#5BC0DE" stroke="#DDD" width="70" height="30" x="0" y="0" rx="8" ry="8"/><text text-anchor="middle" fill="#FFF" x="35" y="20">-80</text></a><g transform="translate(0,30)"><g><a target="_top" xlink:href="mob-slice0-step2628000-ofs30-col34-cat4.html"><rect style="display:none" class="hcell-act-col34-cat4" fill="#337AB7" stroke="#000" stroke-width="5" width="70" height="20" x="0" y="5" rx="8" ry="8"/><rect class="hcell-col34-cat4" fill="#337AB7" stroke="#DDD" width="70" height="30" x="0" y="0" rx="8" ry="8"/><text text-anchor="middle" fill="#FFF" x="35" y="20">-310</text></a><g transform="translate(0,30)"><g><a target="_top" xlink:href="mob-slice0-step2628000-ofs30-col34-cat2.html"><rect style="display:none" class="hcell-act-col34-cat2" fill="#5CB85C" stroke="#000" stroke-width="5" width="70" height="20" x="0" y="5" rx="8" ry="8"/><rect class="hcell-col34-cat2" fill="#5CB85C" stroke="#DDD" width="70" height="30" x="0" y="0" rx="8" ry="8"/><text text-anchor="middle" fill="#FFF" x="35" y="20">-320</text></a><g transform="translate(0,30)"><g><a target="_top" xlink:href="mob-slice0-step2628000-ofs30-col34-cat1.html"><rect style="display:none" class="hcell-act-col34-cat1" fill="#F0AD4E" stroke="#000" stroke-width="5" width="70" height="56" x="0" y="5" rx="8" ry="8"/><rect class="hcell-col34-cat1" fill="#F0AD4E" stroke="#DDD" width="70" height="66" x="0" y="0" rx="8" ry="8"/><text text-anchor="middle" fill="#FFF" x="35" y="20">-700</text></a><g transform="translate(0,66)"><g><a target="_top" xlink:href="mob-slice0-step2628000-ofs30-col34-cat0.html"><rect style="display:none" class="hcell-act-col34-cat0" fill="#D9534F" stroke="#000" stroke-width="5" width="70" height="185" x="0" y="5" rx="8" ry="8"/><rect class="hcell-col34-cat0" fill="#D9534F" stroke="#DDD" width="70" height="195" x="0" y="0" rx="8" ry="8"/><text text-anchor="middle" fill="#FFF" x="35" y="20">-2060</text></a></g></g></g></g></g></g></g></g></g></g></g></g></g></svg>