<svg xmlns="http://www.w3.org/2000/svg" xmlns:xlink="http://www.w3.org/1999/xlink" width="100%" height="100%" viewBox="0 0 400 486"><g><g transform="translate(5,232)"><g><a target="_top" xlink:href="mob-slice1-step2628000-ofs30-col30-cat4.html"><rect style="display:none" class="hcell-act-col30-cat4" fill="#D9534F" stroke="#000" stroke-width="5" width="70" height="20" x="0" y="-25" rx="8" ry="8"/><rect class="hcell-col30-cat4" fill="#D9534F" stroke="#DDD" width="70" height="30" x="0" y="-30" rx="8" ry="8"/><text text-anchor="middle" fill="#FFF" x="35" y="-10">5</text></a></g></g><rect fill="none" stroke="#DDD" width="70" height="30" rx="8" ry="8" x="5" y="242"/><text text-anchor="middle" fill="#333" x="40" y="262">14-12</text><g transform="translate(5,282)"><g><a target="_top" xlink:href="mob-slice1-step2628000-ofs30-col30-cat1.html"><rect style="display:none" class="hcell-act-col30-cat1" fill="#5BC0DE" stroke="#000" stroke-width="5" width="70" height="20" x="0" y="5" rx="8" ry="8"/><rect class="hcell-col30-cat1" fill="#5BC0DE" stroke="#DDD" width="70" height="30" x="0" y="0" rx="8" ry="8"/><text text-anchor="middle" fill="#FFF" x="35" y="20">-8</text></a><g transform="translate(0,30)"><g><a target="_top" xlink:href="mob-slice1-step2628000-ofs30-col30-cat2.html"><rect style="display:none" class="hcell-act-col30-cat2" fill="#337AB7" stroke="#000" stroke-width="5" width="70" height="20" x="0" y="5" rx="8" ry="8"/><rect class="hcell-col30-cat2" fill="#337AB7" stroke="#DDD" width="70" height="30" x="0" y="0" rx="8" ry="8"/><text text-anchor="middle" fill="#FFF" x="35" y="20">-20</text></a><g transform="translate(0,30)"><g><a target="_top" xlink:href="mob-slice1-step2628000-ofs30-col30-cat3.html"><rect style="display:none" class="hcell-act-col30-cat3" fill="#F0AD4E" stroke="#000" stroke-width="5" width="70" height="29" x="0" y="5" rx="8" ry="8"/><rect class="hcell-col30-cat3" fill="#F0AD4E" stroke="#DDD" width="70" height="39" x="0" y="0" rx="8" ry="8"/><text text-anchor="middle" fill="#FFF" x="35" y="20">-30</text></a><g transform="translate(0,39)"><g><a target="_top" xlink:href="mob-slice1-step2628000-ofs30-col30-cat0.html"><rect style="display:none" class="hcell-act-col30-cat0" fill="#5CB85C" stroke="#000" stroke-width="5" width="70" height="55" x="0" y="5" rx="8" ry="8"/><rect class="hcell-col30-cat0" fill="#5CB85C" stroke="#DDD" width="70" height="65" x="0" y="0" rx="8" ry="8"/><text text-anchor="middle" fill="#FFF" x="35" y="20">-50</text></a></g></g></g></g></g></g></g></g></g><g><g transform="translate(85,232)"><g><a target="_top" xlink:href="mob-slice1-step2628000-ofs30-col31-cat4.html"><rect style="display:none" class="hcell-act-col31-cat4" fill="#D9534F" stroke="#000" stroke-width="5" width="70" height="20" x="0" y="-25" rx="8" ry="8"/><rect class="hcell-col31-cat4" fill="#D9534F" stroke="#DDD" width="70" height="30" x="0" y="-30" rx="8" ry="8"/><text text-anchor="middle" fill="#FFF" x="35" y="-10">10</text></a><g transform="translate(0,-30)"><g><a target="_top" xlink:href="mob-slice1-step2628000-ofs30-col31-cat1.html"><rect style="display:none" class="hcell-act-col31-cat1" fill="#5BC0DE" stroke="#000" stroke-width="5" width="70" height="20" x="0" y="-25" rx="8" ry="8"/><rect class="hcell-col31-cat1" fill="#5BC0DE" stroke="#DDD" width="70" height="30" x="0" y="-30" rx="8" ry="8"/><text text-anchor="middle" fill="#FFF" x="35" y="-10">17</text></a><g transform="translate(0,-30)"><g><a target="_top" xlink:href="mob-slice1-step2628000-ofs30-col31-cat0.html"><rect style="display:none" class="hcell-act-col31-cat0" fill="#5CB85C" stroke="#000" stroke-width="5" width="70" height="157" x="0" y="-162" rx="8" ry="8"/><rect class="hcell-col31-cat0" fill="#5CB85C" stroke="#DDD" width="70" height="167" x="0" y="-167" rx="8" ry="8"/><text text-anchor="middle" fill="#FFF" x="35" y="-147">127</text></a></g></g></g></g></g></g><rect fill="none" stroke="#DDD" width="70" height="30" rx="8" ry="8" x="85" y="242"/><text text-anchor="middle" fill="#333" x="120" y="262">15-01</text><g transform="translate(85,282)"><g><a target="_top" xlink:href="mob-slice1-step2628000-ofs30-col31-cat2.html"><rect style="display:none" class="hcell-act-col31-cat2" fill="#337AB7" stroke="#000" stroke-width="5" width="70" height="20" x="0" y="5" rx="8" ry="8"/><rect class="hcell-col31-cat2" fill="#337AB7" stroke="#DDD" width="70" height="30" x="0" y="0" rx="8" ry="8"/><text text-anchor="middle" fill="#FFF" x="35" y="20">-18</text></a><g transform="translate(0,30)"><g><a target="_top" xlink:href="mob-slice1-step2628000-ofs30-col31-cat3.html"><rect style="display:none" class="hcell-act-col31-cat3" fill="#F0AD4E" stroke="#000" stroke-width="5" width="70" height="29" x="0" y="5" rx="8" ry="8"/><rect class="hcell-col31-cat3" fill="#F0AD4E" stroke="#DDD" width="70" height="39" x="0" y="0" rx="8" ry="8"/><text text-anchor="middle" fill="#FFF" x="35" y="20">-30</text></a></g></g></g></g></g><g><g transform="translate(165,232)"><g><a target="_top" xlink:href="mob-slice1-step2628000-ofs30-col32-cat4.html"><rect style="display:none" class="hcell-act-col32-cat4" fill="#D9534F" stroke="#000" stroke-width="5" width="70" height="20" x="0" y="-25" rx="8" ry="8"/><rect class="hcell-col32-cat4" fill="#D9534F" stroke="#DDD" width="70" height="30" x="0" y="-30" rx="8" ry="8"/><text text-anchor="middle" fill="#FFF" x="35" y="-10">15</text></a><g transform="translate(0,-30)"><g><a target="_top" xlink:href="mob-slice1-step2628000-ofs30-col32-cat3.html"><rect style="display:none" class="hcell-act-col32-cat3" fill="#F0AD4E" stroke="#000" stroke-width="5" width="70" height="60" x="0" y="-65" rx="8" ry="8"/><rect class="hcell-col32-cat3" fill="#F0AD4E" stroke="#DDD" width="70" height="70" x="0" y="-70" rx="8" ry="8"/><text text-anchor="middle" fill="#FFF" x="35" y="-50">53</text></a></g></g></g></g><rect fill="none" stroke="#DDD" width="70" height="30" rx="8" ry="8" x="165" y="242"/><text text-anchor="middle" fill="#333" x="200" y="262">15-03</text><g transform="translate(165,282)"><g><a target="_top" xlink:href="mob-slice1-step2628000-ofs30-col32-cat2.html"><rect style="display:none" class="hcell-act-col32-cat2" fill="#337AB7" stroke="#000" stroke-width="5" width="70" height="20" x="0" y="5" rx="8" ry="8"/><rect class="hcell-col32-cat2" fill="#337AB7" stroke="#DDD" width="70" height="30" x="0" y="0" rx="8" ry="8"/><text text-anchor="middle" fill="#FFF" x="35" y="20">-2</text></a><g transform="translate(0,30)"><g><a target="_top" xlink:href="mob-slice1-step2628000-ofs30-col32-cat0.html"><rect style="display:none" class="hcell-act-col32-cat0" fill="#5CB85C" stroke="#000" stroke-width="5" width="70" height="20" x="0" y="5" rx="8" ry="8"/><rect class="hcell-col32-cat0" fill="#5CB85C" stroke="#DDD" width="70" height="30" x="0" y="0" rx="8" ry="8"/><text text-anchor="middle" fill="#FFF" x="35" y="20">-24</text></a><g transform="translate(0,30)"><g><a target="_top" xlink:href="mob-slice1-step2628000-ofs30-col32-cat1.html"><rect style="display:none" class="hcell-act-col32-cat1" fill="#5BC0DE" stroke="#000" stroke-width="5" width="70" height="25" x="0" y="5" rx="8" ry="8"/><rect class="hcell-col32-cat1" fill="#5BC0DE" stroke="#DDD" width="70" height="35" x="0" y="0" rx="8" ry="8"/><text text-anchor="middle" fill="#FFF" x="35" y="20">-28</text></a></g></g></g></g></g></g></g><g><g transform="translate(245,232)"><g><a target="_top" xlink:href="mob-slice1-step2628000-ofs30-col33-cat2.html"><rect style="display:none" class="hcell-act-col33-cat2" fill="#337AB7" stroke="#000" stroke-width="5" width="70" height="20" x="0" y="-25" rx="8" ry="8"/><rect class="hcell-col33-cat2" fill="#337AB7" stroke="#DDD" width="70" height="30" x="0" y="-30" rx="8" ry="8"/><text text-anchor="middle" fill="#FFF" x="35" y="-10">7</text></a><g transform="translate(0,-30)"><g><a target="_top" xlink:href="mob-slice1-step2628000-ofs30-col33-cat1.html"><rect style="display:none" class="hcell-act-col33-cat1" fill="#5BC0DE" stroke="#000" stroke-width="5" width="70" height="33" x="0" y="-38" rx="8" ry="8"/><rect class="hcell-col33-cat1" fill="#5BC0DE" stroke="#DDD" width="70" height="43" x="0" y="-43" rx="8" ry="8"/><text text-anchor="middle" fill="#FFF" x="35" y="-23">33</text></a><g transform="translate(0,-43)"><g><a target="_top" xlink:href="mob-slice1-step2628000-ofs30-col33-cat4.html"><rect style="display:none" class="hcell-act-col33-cat4" fill="#D9534F" stroke="#000" stroke-width="5" width="70" height="41" x="0" y="-46" rx="8" ry="8"/><rect class="hcell-col33-cat4" fill="#D9534F" stroke="#DDD" width="70" height="51" x="0" y="-51" rx="8" ry="8"/><text text-anchor="middle" fill="#FFF" x="35" y="-31">39</text></a></g></g></g></g></g></g><rect fill="none" stroke="#DDD" width="70" height="30" rx="8" ry="8" x="245" y="242"/><text text-anchor="middle" fill="#333" x="280" y="262">15-04</text><g transform="translate(245,282)"><g><a target="_top" xlink:href="mob-slice1-step2628000-ofs30-col33-cat3.html"><rect style="display:none" class="hcell-act-col33-cat3" fill="#F0AD4E" stroke="#000" stroke-width="5" width="70" height="29" x="0" y="5" rx="8" ry="8"/><rect class="hcell-col33-cat3" fill="#F0AD4E" stroke="#DDD" width="70" height="39" x="0" y="0" rx="8" ry="8"/><text text-anchor="middle" fill="#FFF" x="35" y="20">-30</text></a><g transform="translate(0,39)"><g><a target="_top" xlink:href="mob-slice1-step2628000-ofs30-col33-cat0.html"><rect style="display:none" class="hcell-act-col33-cat0" fill="#5CB85C" stroke="#000" stroke-width="5" width="70" height="43" x="0" y="5" rx="8" ry="8"/><rect class="hcell-col33-cat0" fill="#5CB85C" stroke="#DDD" width="70" height="53" x="0" y="0" rx="8" ry="8"/><text text-anchor="middle" fill="#FFF" x="35" y="20">-41</text></a></g></g></g></g></g><g><g transform="translate(325,232)"></g><rect fill="none" stroke="#DDD" width="70" height="30" rx="8" ry="8" x="325" y="242"/><text text-anchor="middle" fill="#333" x="360" y="262">15-05</text><g transform="translate(325,282)"><g><a target="_top" xlink:href="mob-slice1-step2628000-ofs30-col34-cat2.html"><rect style="display:none" class="hcell-act-col34-cat2" fill="#337AB7" stroke="#000" stroke-width="5" width="70" height="20" x="0" y="5" rx="8" ry="8"/><rect class="hcell-col34-cat2" fill="#337AB7" stroke="#DDD" width="70" height="30" x="0" y="0" rx="8" ry="8"/><text text-anchor="middle" fill="#FFF" x="35" y="20">-20</text></a><g transform="translate(0,30)"><g><a target="_top" xlink:href="mob-slice1-step2628000-ofs30-col34-cat3.html"><rect style="display:none" class="hcell-act-col34-cat3" fill="#F0AD4E" stroke="#000" stroke-width="5" width="70" height="29" x="0" y="5" rx="8" ry="8"/><rect class="hcell-col34-cat3" fill="#F0AD4E" stroke="#DDD" width="70" height="39" x="0" y="0" rx="8" ry="8"/><text text-anchor="middle" fill="#FFF" x="35" y="20">-30</text></a><g transform="translate(0,39)"><g><a target="_top" xlink:href="mob-slice1-step2628000-ofs30-col34-cat0.html"><rect style="display:none" class="hcell-act-col34-cat0" fill="#5CB85C" stroke="#000" stroke-width="5" width="70" height="55" x="0" y="5" rx="8" ry="8"/><rect class="hcell-col34-cat0" fill="#5CB85C" stroke="#DDD" width="70" height="65" x="0" y="0" rx="8" ry="8"/><text text-anchor="middle" fill="#FFF" x="35" y="20">-50</text></a><g transform="translate(0,65)"><g><a target="_top" xlink:href="mob-slice1-step2628000-ofs30-col34-cat1.html"><rect style="display:none" class="hcell-act-col34-cat1" fill="#5BC0DE" stroke="#000" stroke-width="5" width="70" height="55" x="0" y="5" rx="8" ry="8"/><rect class="hcell-col34-cat1" fill="#5BC0DE" stroke="#DDD" width="70" height="65" x="0" y="0" rx="8" ry="8"/><text text-anchor="middle" fill="#FFF" x="35" y="20">-50</text></a></g></g></g></g></g></g></g></g></g></svg>