<svg xmlns="http://www.w3.org/2000/svg" xmlns:xlink="http://www.w3.org/1999/xlink" width="100%" height="100%" viewBox="0 0 400 486"><g><g transform="translate(5,308)"><g><a target="_top" xlink:href="mob-slice1-step2628000-ofs25-col25-cat4.html"><rect style="display:none" class="hcell-act-col25-cat4" fill="#D9534F" stroke="#000" stroke-width="5" width="70" height="20" x="0" y="-25" rx="8" ry="8"/><rect class="hcell-col25-cat4" fill="#D9534F" stroke="#DDD" width="70" height="30" x="0" y="-30" rx="8" ry="8"/><text text-anchor="middle" fill="#FFF" x="35" y="-10">4</text></a><g transform="translate(0,-30)"><g><a target="_top" xlink:href="mob-slice1-step2628000-ofs25-col25-cat3.html"><rect style="display:none" class="hcell-act-col25-cat3" fill="#F0AD4E" stroke="#000" stroke-width="5" width="70" height="20" x="0" y="-25" rx="8" ry="8"/><rect class="hcell-col25-cat3" fill="#F0AD4E" stroke="#DDD" width="70" height="30" x="0" y="-30" rx="8" ry="8"/><text text-anchor="middle" fill="#FFF" x="35" y="-10">5</text></a></g></g></g></g><rect fill="none" stroke="#DDD" width="70" height="30" rx="8" ry="8" x="5" y="318"/><text text-anchor="middle" fill="#333" x="40" y="338">14-08</text><g transform="translate(5,358)"><g><a target="_top" xlink:href="mob-slice1-step2628000-ofs25-col25-cat2.html"><rect style="display:none" class="hcell-act-col25-cat2" fill="#337AB7" stroke="#000" stroke-width="5" width="70" height="20" x="0" y="5" rx="8" ry="8"/><rect class="hcell-col25-cat2" fill="#337AB7" stroke="#DDD" width="70" height="30" x="0" y="0" rx="8" ry="8"/><text text-anchor="middle" fill="#FFF" x="35" y="20">-6</text></a><g transform="translate(0,30)"><g><a target="_top" xlink:href="mob-slice1-step2628000-ofs25-col25-cat0.html"><rect style="display:none" class="hcell-act-col25-cat0" fill="#5CB85C" stroke="#000" stroke-width="5" width="70" height="20" x="0" y="5" rx="8" ry="8"/><rect class="hcell-col25-cat0" fill="#5CB85C" stroke="#DDD" width="70" height="30" x="0" y="0" rx="8" ry="8"/><text text-anchor="middle" fill="#FFF" x="35" y="20">-20</text></a><g transform="translate(0,30)"><g><a target="_top" xlink:href="mob-slice1-step2628000-ofs25-col25-cat1.html"><rect style="display:none" class="hcell-act-col25-cat1" fill="#5BC0DE" stroke="#000" stroke-width="5" width="70" height="51" x="0" y="5" rx="8" ry="8"/><rect class="hcell-col25-cat1" fill="#5BC0DE" stroke="#DDD" width="70" height="61" x="0" y="0" rx="8" ry="8"/><text text-anchor="middle" fill="#FFF" x="35" y="20">-46</text></a></g></g></g></g></g></g></g><g><g transform="translate(85,308)"><g><a target="_top" xlink:href="mob-slice1-step2628000-ofs25-col26-cat0.html"><rect style="display:none" class="hcell-act-col26-cat0" fill="#5CB85C" stroke="#000" stroke-width="5" width="70" height="293" x="0" y="-298" rx="8" ry="8"/><rect class="hcell-col26-cat0" fill="#5CB85C" stroke="#DDD" width="70" height="303" x="0" y="-303" rx="8" ry="8"/><text text-anchor="middle" fill="#FFF" x="35" y="-283">224</text></a></g></g><rect fill="none" stroke="#DDD" width="70" height="30" rx="8" ry="8" x="85" y="318"/><text text-anchor="middle" fill="#333" x="120" y="338">14-08</text><g transform="translate(85,358)"><g><a target="_top" xlink:href="mob-slice1-step2628000-ofs25-col26-cat2.html"><rect style="display:none" class="hcell-act-col26-cat2" fill="#337AB7" stroke="#000" stroke-width="5" width="70" height="20" x="0" y="5" rx="8" ry="8"/><rect class="hcell-col26-cat2" fill="#337AB7" stroke="#DDD" width="70" height="30" x="0" y="0" rx="8" ry="8"/><text text-anchor="middle" fill="#FFF" x="35" y="20">-2</text></a><g transform="translate(0,30)"><g><a target="_top" xlink:href="mob-slice1-step2628000-ofs25-col26-cat1.html"><rect style="display:none" class="hcell-act-col26-cat1" fill="#5BC0DE" stroke="#000" stroke-width="5" width="70" height="21" x="0" y="5" rx="8" ry="8"/><rect class="hcell-col26-cat1" fill="#5BC0DE" stroke="#DDD" width="70" height="31" x="0" y="0" rx="8" ry="8"/><text text-anchor="middle" fill="#FFF" x="35" y="20">-24</text></a><g transform="translate(0,31)"><g><a target="_top" xlink:href="mob-slice1-step2628000-ofs25-col26-cat3.html"><rect style="display:none" class="hcell-act-col26-cat3" fill="#F0AD4E" stroke="#000" stroke-width="5" width="70" height="30" x="0" y="5" rx="8" ry="8"/><rect class="hcell-col26-cat3" fill="#F0AD4E" stroke="#DDD" width="70" height="40" x="0" y="0" rx="8" ry="8"/><text text-anchor="middle" fill="#FFF" x="35" y="20">-30</text></a></g></g></g></g></g></g></g><g><g transform="translate(165,308)"><g><a target="_top" xlink:href="mob-slice1-step2628000-ofs25-col27-cat4.html"><rect style="display:none" class="hcell-act-col27-cat4" fill="#D9534F" stroke="#000" stroke-width="5" width="70" height="20" x="0" y="-25" rx="8" ry="8"/><rect class="hcell-col27-cat4" fill="#D9534F" stroke="#DDD" width="70" height="30" x="0" y="-30" rx="8" ry="8"/><text text-anchor="middle" fill="#FFF" x="35" y="-10">7</text></a><g transform="translate(0,-30)"><g><a target="_top" xlink:href="mob-slice1-step2628000-ofs25-col27-cat2.html"><rect style="display:none" class="hcell-act-col27-cat2" fill="#337AB7" stroke="#000" stroke-width="5" width="70" height="20" x="0" y="-25" rx="8" ry="8"/><rect class="hcell-col27-cat2" fill="#337AB7" stroke="#DDD" width="70" height="30" x="0" y="-30" rx="8" ry="8"/><text text-anchor="middle" fill="#FFF" x="35" y="-10">20</text></a><g transform="translate(0,-30)"><g><a target="_top" xlink:href="mob-slice1-step2628000-ofs25-col27-cat3.html"><rect style="display:none" class="hcell-act-col27-cat3" fill="#F0AD4E" stroke="#000" stroke-width="5" width="70" height="130" x="0" y="-135" rx="8" ry="8"/><rect class="hcell-col27-cat3" fill="#F0AD4E" stroke="#DDD" width="70" height="140" x="0" y="-140" rx="8" ry="8"/><text text-anchor="middle" fill="#FFF" x="35" y="-120">104</text></a></g></g></g></g></g></g><rect fill="none" stroke="#DDD" width="70" height="30" rx="8" ry="8" x="165" y="318"/><text text-anchor="middle" fill="#333" x="200" y="338">14-10</text><g transform="translate(165,358)"><g><a target="_top" xlink:href="mob-slice1-step2628000-ofs25-col27-cat1.html"><rect style="display:none" class="hcell-act-col27-cat1" fill="#5BC0DE" stroke="#000" stroke-width="5" width="70" height="21" x="0" y="5" rx="8" ry="8"/><rect class="hcell-col27-cat1" fill="#5BC0DE" stroke="#DDD" width="70" height="31" x="0" y="0" rx="8" ry="8"/><text text-anchor="middle" fill="#FFF" x="35" y="20">-24</text></a><g transform="translate(0,31)"><g><a target="_top" xlink:href="mob-slice1-step2628000-ofs25-col27-cat0.html"><rect style="display:none" class="hcell-act-col27-cat0" fill="#5CB85C" stroke="#000" stroke-width="5" width="70" height="52" x="0" y="5" rx="8" ry="8"/><rect class="hcell-col27-cat0" fill="#5CB85C" stroke="#DDD" width="70" height="62" x="0" y="0" rx="8" ry="8"/><text text-anchor="middle" fill="#FFF" x="35" y="20">-47</text></a></g></g></g></g></g><g><g transform="translate(245,308)"><g><a target="_top" xlink:href="mob-slice1-step2628000-ofs25-col28-cat4.html"><rect style="display:none" class="hcell-act-col28-cat4" fill="#D9534F" stroke="#000" stroke-width="5" width="70" height="54" x="0" y="-59" rx="8" ry="8"/><rect class="hcell-col28-cat4" fill="#D9534F" stroke="#DDD" width="70" height="64" x="0" y="-64" rx="8" ry="8"/><text text-anchor="middle" fill="#FFF" x="35" y="-44">47</text></a><g transform="translate(0,-64)"><g><a target="_top" xlink:href="mob-slice1-step2628000-ofs25-col28-cat0.html"><rect style="display:none" class="hcell-act-col28-cat0" fill="#5CB85C" stroke="#000" stroke-width="5" width="70" height="219" x="0" y="-224" rx="8" ry="8"/><rect class="hcell-col28-cat0" fill="#5CB85C" stroke="#DDD" width="70" height="229" x="0" y="-229" rx="8" ry="8"/><text text-anchor="middle" fill="#FFF" x="35" y="-209">169</text></a></g></g></g></g><rect fill="none" stroke="#DDD" width="70" height="30" rx="8" ry="8" x="245" y="318"/><text text-anchor="middle" fill="#333" x="280" y="338">14-10</text><g transform="translate(245,358)"><g><a target="_top" xlink:href="mob-slice1-step2628000-ofs25-col28-cat2.html"><rect style="display:none" class="hcell-act-col28-cat2" fill="#337AB7" stroke="#000" stroke-width="5" width="70" height="20" x="0" y="5" rx="8" ry="8"/><rect class="hcell-col28-cat2" fill="#337AB7" stroke="#DDD" width="70" height="30" x="0" y="0" rx="8" ry="8"/><text text-anchor="middle" fill="#FFF" x="35" y="20">-3</text></a><g transform="translate(0,30)"><g><a target="_top" xlink:href="mob-slice1-step2628000-ofs25-col28-cat3.html"><rect style="display:none" class="hcell-act-col28-cat3" fill="#F0AD4E" stroke="#000" stroke-width="5" width="70" height="30" x="0" y="5" rx="8" ry="8"/><rect class="hcell-col28-cat3" fill="#F0AD4E" stroke="#DDD" width="70" height="40" x="0" y="0" rx="8" ry="8"/><text text-anchor="middle" fill="#FFF" x="35" y="20">-30</text></a><g transform="translate(0,40)"><g><a target="_top" xlink:href="mob-slice1-step2628000-ofs25-col28-cat1.html"><rect style="display:none" class="hcell-act-col28-cat1" fill="#5BC0DE" stroke="#000" stroke-width="5" width="70" height="43" x="0" y="5" rx="8" ry="8"/><rect class="hcell-col28-cat1" fill="#5BC0DE" stroke="#DDD" width="70" height="53" x="0" y="0" rx="8" ry="8"/><text text-anchor="middle" fill="#FFF" x="35" y="20">-40</text></a></g></g></g></g></g></g></g><g><g transform="translate(325,308)"><g><a target="_top" xlink:href="mob-slice1-step2628000-ofs25-col29-cat1.html"><rect style="display:none" class="hcell-act-col29-cat1" fill="#5BC0DE" stroke="#000" stroke-width="5" width="70" height="20" x="0" y="-25" rx="8" ry="8"/><rect class="hcell-col29-cat1" fill="#5BC0DE" stroke="#DDD" width="70" height="30" x="0" y="-30" rx="8" ry="8"/><text text-anchor="middle" fill="#FFF" x="35" y="-10">17</text></a><g transform="translate(0,-30)"><g><a target="_top" xlink:href="mob-slice1-step2628000-ofs25-col29-cat4.html"><rect style="display:none" class="hcell-act-col29-cat4" fill="#D9534F" stroke="#000" stroke-width="5" width="70" height="20" x="0" y="-25" rx="8" ry="8"/><rect class="hcell-col29-cat4" fill="#D9534F" stroke="#DDD" width="70" height="30" x="0" y="-30" rx="8" ry="8"/><text text-anchor="middle" fill="#FFF" x="35" y="-10">18</text></a><g transform="translate(0,-30)"><g><a target="_top" xlink:href="mob-slice1-step2628000-ofs25-col29-cat3.html"><rect style="display:none" class="hcell-act-col29-cat3" fill="#F0AD4E" stroke="#000" stroke-width="5" width="70" height="45" x="0" y="-50" rx="8" ry="8"/><rect class="hcell-col29-cat3" fill="#F0AD4E" stroke="#DDD" width="70" height="55" x="0" y="-55" rx="8" ry="8"/><text text-anchor="middle" fill="#FFF" x="35" y="-35">41</text></a></g></g></g></g></g></g><rect fill="none" stroke="#DDD" width="70" height="30" rx="8" ry="8" x="325" y="318"/><text text-anchor="middle" fill="#333" x="360" y="338">14-12</text><g transform="translate(325,358)"><g><a target="_top" xlink:href="mob-slice1-step2628000-ofs25-col29-cat2.html"><rect style="display:none" class="hcell-act-col29-cat2" fill="#337AB7" stroke="#000" stroke-width="5" width="70" height="20" x="0" y="5" rx="8" ry="8"/><rect class="hcell-col29-cat2" fill="#337AB7" stroke="#DDD" width="70" height="30" x="0" y="0" rx="8" ry="8"/><text text-anchor="middle" fill="#FFF" x="35" y="20">-6</text></a><g transform="translate(0,30)"><g><a target="_top" xlink:href="mob-slice1-step2628000-ofs25-col29-cat0.html"><rect style="display:none" class="hcell-act-col29-cat0" fill="#5CB85C" stroke="#000" stroke-width="5" width="70" height="57" x="0" y="5" rx="8" ry="8"/><rect class="hcell-col29-cat0" fill="#5CB85C" stroke="#DDD" width="70" height="67" x="0" y="0" rx="8" ry="8"/><text text-anchor="middle" fill="#FFF" x="35" y="20">-50</text></a></g></g></g></g></g></svg>