<svg xmlns="http://www.w3.org/2000/svg" xmlns:xlink="http://www.w3.org/1999/xlink" width="100%" height="100%" viewBox="0 0 400 518"><g><g transform="translate(5,433)"><g><a target="_top" xlink:href="mob-slice0-step2628000-ofs15-col15-cat5.html"><rect style="display:none" class="hcell-act-col15-cat5" fill="#777" stroke="#000" stroke-width="5" width="70" height="20" x="0" y="-25" rx="8" ry="8"/><rect class="hcell-col15-cat5" fill="#777" stroke="#DDD" width="70" height="30" x="0" y="-30" rx="8" ry="8"/><text text-anchor="middle" fill="#FFF" x="35" y="-10">15</text></a><g transform="translate(0,-30)"><g><a target="_top" xlink:href="mob-slice0-step2628000-ofs15-col15-cat2.html"><rect style="display:none" class="hcell-act-col15-cat2" fill="#5CB85C" stroke="#000" stroke-width="5" width="70" height="20" x="0" y="-25" rx="8" ry="8"/><rect class="hcell-col15-cat2" fill="#5CB85C" stroke="#DDD" width="70" height="30" x="0" y="-30" rx="8" ry="8"/><text text-anchor="middle" fill="#FFF" x="35" y="-10">101</text></a><g transform="translate(0,-30)"><g><a target="_top" xlink:href="mob-slice0-step2628000-ofs15-col15-cat3.html"><rect style="display:none" class="hcell-act-col15-cat3" fill="#5BC0DE" stroke="#000" stroke-width="5" width="70" height="20" x="0" y="-25" rx="8" ry="8"/><rect class="hcell-col15-cat3" fill="#5BC0DE" stroke="#DDD" width="70" height="30" x="0" y="-30" rx="8" ry="8"/><text text-anchor="middle" fill="#FFF" x="35" y="-10">109</text></a><g transform="translate(0,-30)"><g><a target="_top" xlink:href="mob-slice0-step2628000-ofs15-col15-cat1.html"><rect style="display:none" class="hcell-act-col15-cat1" fill="#F0AD4E" stroke="#000" stroke-width="5" width="70" height="31" x="0" y="-36" rx="8" ry="8"/><rect class="hcell-col15-cat1" fill="#F0AD4E" stroke="#DDD" width="70" height="41" x="0" y="-41" rx="8" ry="8"/><text text-anchor="middle" fill="#FFF" x="35" y="-21">282</text></a><g transform="translate(0,-41)"><g><a target="_top" xlink:href="mob-slice0-step2628000-ofs15-col15-cat4.html"><rect style="display:none" class="hcell-act-col15-cat4" fill="#337AB7" stroke="#000" stroke-width="5" width="70" height="34" x="0" y="-39" rx="8" ry="8"/><rect class="hcell-col15-cat4" fill="#337AB7" stroke="#DDD" width="70" height="44" x="0" y="-44" rx="8" ry="8"/><text text-anchor="middle" fill="#FFF" x="35" y="-24">309</text></a><g transform="translate(0,-44)"><g><a target="_top" xlink:href="mob-slice0-step2628000-ofs15-col15-cat0.html"><rect style="display:none" class="hcell-act-col15-cat0" fill="#D9534F" stroke="#000" stroke-width="5" width="70" height="203" x="0" y="-208" rx="8" ry="8"/><rect class="hcell-col15-cat0" fill="#D9534F" stroke="#DDD" width="70" height="213" x="0" y="-213" rx="8" ry="8"/><text text-anchor="middle" fill="#FFF" x="35" y="-193">1467</text></a></g></g></g></g></g></g></g></g></g></g></g></g><rect fill="none" stroke="#DDD" width="70" height="30" rx="8" ry="8" x="5" y="443"/><text text-anchor="middle" fill="#333" x="40" y="463">13-10</text><g transform="translate(5,483)"></g></g><g><g transform="translate(85,433)"><g><a target="_top" xlink:href="mob-slice0-step2628000-ofs15-col16-cat5.html"><rect style="display:none" class="hcell-act-col16-cat5" fill="#777" stroke="#000" stroke-width="5" width="70" height="20" x="0" y="-25" rx="8" ry="8"/><rect class="hcell-col16-cat5" fill="#777" stroke="#DDD" width="70" height="30" x="0" y="-30" rx="8" ry="8"/><text text-anchor="middle" fill="#FFF" x="35" y="-10">16</text></a><g transform="translate(0,-30)"><g><a target="_top" xlink:href="mob-slice0-step2628000-ofs15-col16-cat3.html"><rect style="display:none" class="hcell-act-col16-cat3" fill="#5BC0DE" stroke="#000" stroke-width="5" width="70" height="20" x="0" y="-25" rx="8" ry="8"/><rect class="hcell-col16-cat3" fill="#5BC0DE" stroke="#DDD" width="70" height="30" x="0" y="-30" rx="8" ry="8"/><text text-anchor="middle" fill="#FFF" x="35" y="-10">23</text></a><g transform="translate(0,-30)"><g><a target="_top" xlink:href="mob-slice0-step2628000-ofs15-col16-cat2.html"><rect style="display:none" class="hcell-act-col16-cat2" fill="#5CB85C" stroke="#000" stroke-width="5" width="70" height="20" x="0" y="-25" rx="8" ry="8"/><rect class="hcell-col16-cat2" fill="#5CB85C" stroke="#DDD" width="70" height="30" x="0" y="-30" rx="8" ry="8"/><text text-anchor="middle" fill="#FFF" x="35" y="-10">95</text></a><g transform="translate(0,-30)"><g><a target="_top" xlink:href="mob-slice0-step2628000-ofs15-col16-cat1.html"><rect style="display:none" class="hcell-act-col16-cat1" fill="#F0AD4E" stroke="#000" stroke-width="5" width="70" height="28" x="0" y="-33" rx="8" ry="8"/><rect class="hcell-col16-cat1" fill="#F0AD4E" stroke="#DDD" width="70" height="38" x="0" y="-38" rx="8" ry="8"/><text text-anchor="middle" fill="#FFF" x="35" y="-18">267</text></a><g transform="translate(0,-38)"><g><a target="_top" xlink:href="mob-slice0-step2628000-ofs15-col16-cat4.html"><rect style="display:none" class="hcell-act-col16-cat4" fill="#337AB7" stroke="#000" stroke-width="5" width="70" height="37" x="0" y="-42" rx="8" ry="8"/><rect class="hcell-col16-cat4" fill="#337AB7" stroke="#DDD" width="70" height="47" x="0" y="-47" rx="8" ry="8"/><text text-anchor="middle" fill="#FFF" x="35" y="-27">326</text></a><g transform="translate(0,-47)"><g><a target="_top" xlink:href="mob-slice0-step2628000-ofs15-col16-cat0.html"><rect style="display:none" class="hcell-act-col16-cat0" fill="#D9534F" stroke="#000" stroke-width="5" width="70" height="220" x="0" y="-225" rx="8" ry="8"/><rect class="hcell-col16-cat0" fill="#D9534F" stroke="#DDD" width="70" height="230" x="0" y="-230" rx="8" ry="8"/><text text-anchor="middle" fill="#FFF" x="35" y="-210">1586</text></a></g></g></g></g></g></g></g></g></g></g></g></g><rect fill="none" stroke="#DDD" width="70" height="30" rx="8" ry="8" x="85" y="443"/><text text-anchor="middle" fill="#333" x="120" y="463">13-10</text><g transform="translate(85,483)"><g><a target="_top" xlink:href="mob-slice0-step2628000-ofs15-col16-cat5.html"><rect style="display:none" class="hcell-act-col16-cat5" fill="#777" stroke="#000" stroke-width="5" width="70" height="20" x="0" y="5" rx="8" ry="8"/><rect class="hcell-col16-cat5" fill="#777" stroke="#DDD" width="70" height="30" x="0" y="0" rx="8" ry="8"/><text text-anchor="middle" fill="#FFF" x="35" y="20">-26</text></a></g></g></g><g><g transform="translate(165,433)"><g><a target="_top" xlink:href="mob-slice0-step2628000-ofs15-col17-cat5.html"><rect style="display:none" class="hcell-act-col17-cat5" fill="#777" stroke="#000" stroke-width="5" width="70" height="20" x="0" y="-25" rx="8" ry="8"/><rect class="hcell-col17-cat5" fill="#777" stroke="#DDD" width="70" height="30" x="0" y="-30" rx="8" ry="8"/><text text-anchor="middle" fill="#FFF" x="35" y="-10">27</text></a><g transform="translate(0,-30)"><g><a target="_top" xlink:href="mob-slice0-step2628000-ofs15-col17-cat3.html"><rect style="display:none" class="hcell-act-col17-cat3" fill="#5BC0DE" stroke="#000" stroke-width="5" width="70" height="20" x="0" y="-25" rx="8" ry="8"/><rect class="hcell-col17-cat3" fill="#5BC0DE" stroke="#DDD" width="70" height="30" x="0" y="-30" rx="8" ry="8"/><text text-anchor="middle" fill="#FFF" x="35" y="-10">135</text></a><g transform="translate(0,-30)"><g><a target="_top" xlink:href="mob-slice0-step2628000-ofs15-col17-cat4.html"><rect style="display:none" class="hcell-act-col17-cat4" fill="#337AB7" stroke="#000" stroke-width="5" width="70" height="36" x="0" y="-41" rx="8" ry="8"/><rect class="hcell-col17-cat4" fill="#337AB7" stroke="#DDD" width="70" height="46" x="0" y="-46" rx="8" ry="8"/><text text-anchor="middle" fill="#FFF" x="35" y="-26">317</text></a><g transform="translate(0,-46)"><g><a target="_top" xlink:href="mob-slice0-step2628000-ofs15-col17-cat2.html"><rect style="display:none" class="hcell-act-col17-cat2" fill="#5CB85C" stroke="#000" stroke-width="5" width="70" height="55" x="0" y="-60" rx="8" ry="8"/><rect class="hcell-col17-cat2" fill="#5CB85C" stroke="#DDD" width="70" height="65" x="0" y="-65" rx="8" ry="8"/><text text-anchor="middle" fill="#FFF" x="35" y="-45">448</text></a><g transform="translate(0,-65)"><g><a target="_top" xlink:href="mob-slice0-step2628000-ofs15-col17-cat1.html"><rect style="display:none" class="hcell-act-col17-cat1" fill="#F0AD4E" stroke="#000" stroke-width="5" width="70" height="74" x="0" y="-79" rx="8" ry="8"/><rect class="hcell-col17-cat1" fill="#F0AD4E" stroke="#DDD" width="70" height="84" x="0" y="-84" rx="8" ry="8"/><text text-anchor="middle" fill="#FFF" x="35" y="-64">579</text></a><g transform="translate(0,-84)"><g><a target="_top" xlink:href="mob-slice0-step2628000-ofs15-col17-cat0.html"><rect style="display:none" class="hcell-act-col17-cat0" fill="#D9534F" stroke="#000" stroke-width="5" width="70" height="163" x="0" y="-168" rx="8" ry="8"/><rect class="hcell-col17-cat0" fill="#D9534F" stroke="#DDD" width="70" height="173" x="0" y="-173" rx="8" ry="8"/><text text-anchor="middle" fill="#FFF" x="35" y="-153">1195</text></a></g></g></g></g></g></g></g></g></g></g></g></g><rect fill="none" stroke="#DDD" width="70" height="30" rx="8" ry="8" x="165" y="443"/><text text-anchor="middle" fill="#333" x="200" y="463">13-12</text><g transform="translate(165,483)"></g></g><g><g transform="translate(245,433)"><g><a target="_top" xlink:href="mob-slice0-step2628000-ofs15-col18-cat2.html"><rect style="display:none" class="hcell-act-col18-cat2" fill="#5CB85C" stroke="#000" stroke-width="5" width="70" height="20" x="0" y="-25" rx="8" ry="8"/><rect class="hcell-col18-cat2" fill="#5CB85C" stroke="#DDD" width="70" height="30" x="0" y="-30" rx="8" ry="8"/><text text-anchor="middle" fill="#FFF" x="35" y="-10">17</text></a><g transform="translate(0,-30)"><g><a target="_top" xlink:href="mob-slice0-step2628000-ofs15-col18-cat5.html"><rect style="display:none" class="hcell-act-col18-cat5" fill="#777" stroke="#000" stroke-width="5" width="70" height="20" x="0" y="-25" rx="8" ry="8"/><rect class="hcell-col18-cat5" fill="#777" stroke="#DDD" width="70" height="30" x="0" y="-30" rx="8" ry="8"/><text text-anchor="middle" fill="#FFF" x="35" y="-10">21</text></a><g transform="translate(0,-30)"><g><a target="_top" xlink:href="mob-slice0-step2628000-ofs15-col18-cat3.html"><rect style="display:none" class="hcell-act-col18-cat3" fill="#5BC0DE" stroke="#000" stroke-width="5" width="70" height="20" x="0" y="-25" rx="8" ry="8"/><rect class="hcell-col18-cat3" fill="#5BC0DE" stroke="#DDD" width="70" height="30" x="0" y="-30" rx="8" ry="8"/><text text-anchor="middle" fill="#FFF" x="35" y="-10">123</text></a><g transform="translate(0,-30)"><g><a target="_top" xlink:href="mob-slice0-step2628000-ofs15-col18-cat4.html"><rect style="display:none" class="hcell-act-col18-cat4" fill="#337AB7" stroke="#000" stroke-width="5" width="70" height="21" x="0" y="-26" rx="8" ry="8"/><rect class="hcell-col18-cat4" fill="#337AB7" stroke="#DDD" width="70" height="31" x="0" y="-31" rx="8" ry="8"/><text text-anchor="middle" fill="#FFF" x="35" y="-11">215</text></a><g transform="translate(0,-31)"><g><a target="_top" xlink:href="mob-slice0-step2628000-ofs15-col18-cat1.html"><rect style="display:none" class="hcell-act-col18-cat1" fill="#F0AD4E" stroke="#000" stroke-width="5" width="70" height="32" x="0" y="-37" rx="8" ry="8"/><rect class="hcell-col18-cat1" fill="#F0AD4E" stroke="#DDD" width="70" height="42" x="0" y="-42" rx="8" ry="8"/><text text-anchor="middle" fill="#FFF" x="35" y="-22">292</text></a><g transform="translate(0,-42)"><g><a target="_top" xlink:href="mob-slice0-step2628000-ofs15-col18-cat0.html"><rect style="display:none" class="hcell-act-col18-cat0" fill="#D9534F" stroke="#000" stroke-width="5" width="70" height="157" x="0" y="-162" rx="8" ry="8"/><rect class="hcell-col18-cat0" fill="#D9534F" stroke="#DDD" width="70" height="167" x="0" y="-167" rx="8" ry="8"/><text text-anchor="middle" fill="#FFF" x="35" y="-147">1151</text></a></g></g></g></g></g></g></g></g></g></g></g></g><rect fill="none" stroke="#DDD" width="70" height="30" rx="8" ry="8" x="245" y="443"/><text text-anchor="middle" fill="#333" x="280" y="463">13-12</text><g transform="translate(245,483)"><g><a target="_top" xlink:href="mob-slice0-step2628000-ofs15-col18-cat4.html"><rect style="display:none" class="hcell-act-col18-cat4" fill="#337AB7" stroke="#000" stroke-width="5" width="70" height="20" x="0" y="5" rx="8" ry="8"/><rect class="hcell-col18-cat4" fill="#337AB7" stroke="#DDD" width="70" height="30" x="0" y="0" rx="8" ry="8"/><text text-anchor="middle" fill="#FFF" x="35" y="20">-34</text></a></g></g></g><g><g transform="translate(325,433)"><g><a target="_top" xlink:href="mob-slice0-step2628000-ofs15-col19-cat5.html"><rect style="display:none" class="hcell-act-col19-cat5" fill="#777" stroke="#000" stroke-width="5" width="70" height="20" x="0" y="-25" rx="8" ry="8"/><rect class="hcell-col19-cat5" fill="#777" stroke="#DDD" width="70" height="30" x="0" y="-30" rx="8" ry="8"/><text text-anchor="middle" fill="#FFF" x="35" y="-10">29</text></a><g transform="translate(0,-30)"><g><a target="_top" xlink:href="mob-slice0-step2628000-ofs15-col19-cat3.html"><rect style="display:none" class="hcell-act-col19-cat3" fill="#5BC0DE" stroke="#000" stroke-width="5" width="70" height="20" x="0" y="-25" rx="8" ry="8"/><rect class="hcell-col19-cat3" fill="#5BC0DE" stroke="#DDD" width="70" height="30" x="0" y="-30" rx="8" ry="8"/><text text-anchor="middle" fill="#FFF" x="35" y="-10">58</text></a><g transform="translate(0,-30)"><g><a target="_top" xlink:href="mob-slice0-step2628000-ofs15-col19-cat4.html"><rect style="display:none" class="hcell-act-col19-cat4" fill="#337AB7" stroke="#000" stroke-width="5" width="70" height="20" x="0" y="-25" rx="8" ry="8"/><rect class="hcell-col19-cat4" fill="#337AB7" stroke="#DDD" width="70" height="30" x="0" y="-30" rx="8" ry="8"/><text text-anchor="middle" fill="#FFF" x="35" y="-10">105</text></a><g transform="translate(0,-30)"><g><a target="_top" xlink:href="mob-slice0-step2628000-ofs15-col19-cat2.html"><rect style="display:none" class="hcell-act-col19-cat2" fill="#5CB85C" stroke="#000" stroke-width="5" width="70" height="27" x="0" y="-32" rx="8" ry="8"/><rect class="hcell-col19-cat2" fill="#5CB85C" stroke="#DDD" width="70" height="37" x="0" y="-37" rx="8" ry="8"/><text text-anchor="middle" fill="#FFF" x="35" y="-17">259</text></a><g transform="translate(0,-37)"><g><a target="_top" xlink:href="mob-slice0-step2628000-ofs15-col19-cat1.html"><rect style="display:none" class="hcell-act-col19-cat1" fill="#F0AD4E" stroke="#000" stroke-width="5" width="70" height="77" x="0" y="-82" rx="8" ry="8"/><rect class="hcell-col19-cat1" fill="#F0AD4E" stroke="#DDD" width="70" height="87" x="0" y="-87" rx="8" ry="8"/><text text-anchor="middle" fill="#FFF" x="35" y="-67">601</text></a><g transform="translate(0,-87)"><g><a target="_top" xlink:href="mob-slice0-step2628000-ofs15-col19-cat0.html"><rect style="display:none" class="hcell-act-col19-cat0" fill="#D9534F" stroke="#000" stroke-width="5" width="70" height="154" x="0" y="-159" rx="8" ry="8"/><rect class="hcell-col19-cat0" fill="#D9534F" stroke="#DDD" width="70" height="164" x="0" y="-164" rx="8" ry="8"/><text text-anchor="middle" fill="#FFF" x="35" y="-144">1129</text></a></g></g></g></g></g></g></g></g></g></g></g></g><rect fill="none" stroke="#DDD" width="70" height="30" rx="8" ry="8" x="325" y="443"/><text text-anchor="middle" fill="#333" x="360" y="463">14-01</text><g transform="translate(325,483)"><g><a target="_top" xlink:href="mob-slice0-step2628000-ofs15-col19-cat5.html"><rect style="display:none" class="hcell-act-col19-cat5" fill="#777" stroke="#000" stroke-width="5" width="70" height="20" x="0" y="5" rx="8" ry="8"/><rect class="hcell-col19-cat5" fill="#777" stroke="#DDD" width="70" height="30" x="0" y="0" rx="8" ry="8"/><text text-anchor="middle" fill="#FFF" x="35" y="20">-47</text></a></g></g></g></svg>