<svg xmlns="http://www.w3.org/2000/svg" xmlns:xlink="http://www.w3.org/1999/xlink" width="100%" height="100%" viewBox="0 0 400 459"><g><g transform="translate(5,289)"><g><a target="_top" xlink:href="mob-sliceTagMedSvc-step2628000-ofs30-col30-cat0.html"><rect style="display:none" class="hcell-act-col30-cat0" fill="#777" stroke="#000" stroke-width="5" width="70" height="274" x="0" y="-279" rx="8" ry="8"/><rect class="hcell-col30-cat0" fill="#777" stroke="#DDD" width="70" height="284" x="0" y="-284" rx="8" ry="8"/><text text-anchor="middle" fill="#FFF" x="35" y="-264">491</text></a></g></g><rect fill="none" stroke="#DDD" width="70" height="30" rx="8" ry="8" x="5" y="299"/><text text-anchor="middle" fill="#333" x="40" y="319">14-12</text><g transform="translate(5,339)"></g></g><g><g transform="translate(85,289)"></g><rect fill="none" stroke="#DDD" width="70" height="30" rx="8" ry="8" x="85" y="299"/><text text-anchor="middle" fill="#333" x="120" y="319">15-01</text><g transform="translate(85,339)"><g><a target="_top" xlink:href="mob-sliceTagMedSvc-step2628000-ofs30-col31-cat0.html"><rect style="display:none" class="hcell-act-col31-cat0" fill="#777" stroke="#000" stroke-width="5" width="70" height="105" x="0" y="5" rx="8" ry="8"/><rect class="hcell-col31-cat0" fill="#777" stroke="#DDD" width="70" height="115" x="0" y="0" rx="8" ry="8"/><text text-anchor="middle" fill="#FFF" x="35" y="20">-200</text></a></g></g></g><g><g transform="translate(165,289)"></g><rect fill="none" stroke="#DDD" width="70" height="30" rx="8" ry="8" x="165" y="299"/><text text-anchor="middle" fill="#333" x="200" y="319">15-03</text><g transform="translate(165,339)"><g><a target="_top" xlink:href="mob-sliceTagMedSvc-step2628000-ofs30-col32-cat0.html"><rect style="display:none" class="hcell-act-col32-cat0" fill="#777" stroke="#000" stroke-width="5" width="70" height="105" x="0" y="5" rx="8" ry="8"/><rect class="hcell-col32-cat0" fill="#777" stroke="#DDD" width="70" height="115" x="0" y="0" rx="8" ry="8"/><text text-anchor="middle" fill="#FFF" x="35" y="20">-200</text></a></g></g></g><g><g transform="translate(245,289)"></g><rect fill="none" stroke="#DDD" width="70" height="30" rx="8" ry="8" x="245" y="299"/><text text-anchor="middle" fill="#333" x="280" y="319">15-04</text><g transform="translate(245,339)"><g><a target="_top" xlink:href="mob-sliceTagMedSvc-step2628000-ofs30-col33-cat0.html"><rect style="display:none" class="hcell-act-col33-cat0" fill="#777" stroke="#000" stroke-width="5" width="70" height="28" x="0" y="5" rx="8" ry="8"/><rect class="hcell-col33-cat0" fill="#777" stroke="#DDD" width="70" height="38" x="0" y="0" rx="8" ry="8"/><text text-anchor="middle" fill="#FFF" x="35" y="20">-67</text></a></g></g></g><g><g transform="translate(325,289)"></g><rect fill="none" stroke="#DDD" width="70" height="30" rx="8" ry="8" x="325" y="299"/><text text-anchor="middle" fill="#333" x="360" y="319">15-05</text><g transform="translate(325,339)"><g><a target="_top" xlink:href="mob-sliceTagMedSvc-step2628000-ofs30-col34-cat0.html"><rect style="display:none" class="hcell-act-col34-cat0" fill="#777" stroke="#000" stroke-width="5" width="70" height="105" x="0" y="5" rx="8" ry="8"/><rect class="hcell-col34-cat0" fill="#777" stroke="#DDD" width="70" height="115" x="0" y="0" rx="8" ry="8"/><text text-anchor="middle" fill="#FFF" x="35" y="20">-200</text></a></g></g></g></svg>