<svg xmlns="http://www.w3.org/2000/svg" xmlns:xlink="http://www.w3.org/1999/xlink" width="100%" height="100%" viewBox="0 0 400 459"><g><g transform="translate(5,276)"><g><a target="_top" xlink:href="mob-sliceTagClothes-step2628000-ofs10-col10-cat0.html"><rect style="display:none" class="hcell-act-col10-cat0" fill="#777" stroke="#000" stroke-width="5" width="70" height="261" x="0" y="-266" rx="8" ry="8"/><rect class="hcell-col10-cat0" fill="#777" stroke="#DDD" width="70" height="271" x="0" y="-271" rx="8" ry="8"/><text text-anchor="middle" fill="#FFF" x="35" y="-251">123</text></a></g></g><rect fill="none" stroke="#DDD" width="70" height="30" rx="8" ry="8" x="5" y="286"/><text text-anchor="middle" fill="#333" x="40" y="306">13-05</text><g transform="translate(5,326)"></g></g><g><g transform="translate(85,276)"><g><a target="_top" xlink:href="mob-sliceTagClothes-step2628000-ofs10-col11-cat0.html"><rect style="display:none" class="hcell-act-col11-cat0" fill="#777" stroke="#000" stroke-width="5" width="70" height="190" x="0" y="-195" rx="8" ry="8"/><rect class="hcell-col11-cat0" fill="#777" stroke="#DDD" width="70" height="200" x="0" y="-200" rx="8" ry="8"/><text text-anchor="middle" fill="#FFF" x="35" y="-180">91</text></a></g></g><rect fill="none" stroke="#DDD" width="70" height="30" rx="8" ry="8" x="85" y="286"/><text text-anchor="middle" fill="#333" x="120" y="306">13-06</text><g transform="translate(85,326)"><g><a target="_top" xlink:href="mob-sliceTagClothes-step2628000-ofs10-col11-cat0.html"><rect style="display:none" class="hcell-act-col11-cat0" fill="#777" stroke="#000" stroke-width="5" width="70" height="118" x="0" y="5" rx="8" ry="8"/><rect class="hcell-col11-cat0" fill="#777" stroke="#DDD" width="70" height="128" x="0" y="0" rx="8" ry="8"/><text text-anchor="middle" fill="#FFF" x="35" y="20">-59</text></a></g></g></g><g><g transform="translate(165,276)"><g><a target="_top" xlink:href="mob-sliceTagClothes-step2628000-ofs10-col12-cat0.html"><rect style="display:none" class="hcell-act-col12-cat0" fill="#777" stroke="#000" stroke-width="5" width="70" height="147" x="0" y="-152" rx="8" ry="8"/><rect class="hcell-col12-cat0" fill="#777" stroke="#DDD" width="70" height="157" x="0" y="-157" rx="8" ry="8"/><text text-anchor="middle" fill="#FFF" x="35" y="-137">71</text></a></g></g><rect fill="none" stroke="#DDD" width="70" height="30" rx="8" ry="8" x="165" y="286"/><text text-anchor="middle" fill="#333" x="200" y="306">13-07</text><g transform="translate(165,326)"></g></g><g><g transform="translate(245,276)"><g><a target="_top" xlink:href="mob-sliceTagClothes-step2628000-ofs10-col13-cat0.html"><rect style="display:none" class="hcell-act-col13-cat0" fill="#777" stroke="#000" stroke-width="5" width="70" height="178" x="0" y="-183" rx="8" ry="8"/><rect class="hcell-col13-cat0" fill="#777" stroke="#DDD" width="70" height="188" x="0" y="-188" rx="8" ry="8"/><text text-anchor="middle" fill="#FFF" x="35" y="-168">85</text></a></g></g><rect fill="none" stroke="#DDD" width="70" height="30" rx="8" ry="8" x="245" y="286"/><text text-anchor="middle" fill="#333" x="280" y="306">13-08</text><g transform="translate(245,326)"></g></g><g><g transform="translate(325,276)"><g><a target="_top" xlink:href="mob-sliceTagClothes-step2628000-ofs10-col14-cat0.html"><rect style="display:none" class="hcell-act-col14-cat0" fill="#777" stroke="#000" stroke-width="5" width="70" height="151" x="0" y="-156" rx="8" ry="8"/><rect class="hcell-col14-cat0" fill="#777" stroke="#DDD" width="70" height="161" x="0" y="-161" rx="8" ry="8"/><text text-anchor="middle" fill="#FFF" x="35" y="-141">73</text></a></g></g><rect fill="none" stroke="#DDD" width="70" height="30" rx="8" ry="8" x="325" y="286"/><text text-anchor="middle" fill="#333" x="360" y="306">13-08</text><g transform="translate(325,326)"></g></g></svg>