<svg xmlns="http://www.w3.org/2000/svg" xmlns:xlink="http://www.w3.org/1999/xlink" width="100%" height="100%" viewBox="0 0 400 459"><g><g transform="translate(5,357)"><g><a target="_top" xlink:href="mob-sliceTagExpense-step2628000-ofs25-col25-cat0.html"><rect style="display:none" class="hcell-act-col25-cat0" fill="#777" stroke="#000" stroke-width="5" width="70" height="67" x="0" y="-72" rx="8" ry="8"/><rect class="hcell-col25-cat0" fill="#777" stroke="#DDD" width="70" height="77" x="0" y="-77" rx="8" ry="8"/><text text-anchor="middle" fill="#FFF" x="35" y="-57">402</text></a></g></g><rect fill="none" stroke="#DDD" width="70" height="30" rx="8" ry="8" x="5" y="367"/><text text-anchor="middle" fill="#333" x="40" y="387">14-08</text><g transform="translate(5,407)"></g></g><g><g transform="translate(85,357)"><g><a target="_top" xlink:href="mob-sliceTagExpense-step2628000-ofs25-col26-cat0.html"><rect style="display:none" class="hcell-act-col26-cat0" fill="#777" stroke="#000" stroke-width="5" width="70" height="342" x="0" y="-347" rx="8" ry="8"/><rect class="hcell-col26-cat0" fill="#777" stroke="#DDD" width="70" height="352" x="0" y="-352" rx="8" ry="8"/><text text-anchor="middle" fill="#FFF" x="35" y="-332">1838</text></a></g></g><rect fill="none" stroke="#DDD" width="70" height="30" rx="8" ry="8" x="85" y="367"/><text text-anchor="middle" fill="#333" x="120" y="387">14-08</text><g transform="translate(85,407)"></g></g><g><g transform="translate(165,357)"></g><rect fill="none" stroke="#DDD" width="70" height="30" rx="8" ry="8" x="165" y="367"/><text text-anchor="middle" fill="#333" x="200" y="387">14-10</text><g transform="translate(165,407)"><g><a target="_top" xlink:href="mob-sliceTagExpense-step2628000-ofs25-col27-cat0.html"><rect style="display:none" class="hcell-act-col27-cat0" fill="#777" stroke="#000" stroke-width="5" width="70" height="37" x="0" y="5" rx="8" ry="8"/><rect class="hcell-col27-cat0" fill="#777" stroke="#DDD" width="70" height="47" x="0" y="0" rx="8" ry="8"/><text text-anchor="middle" fill="#FFF" x="35" y="20">-248</text></a></g></g></g><g><g transform="translate(245,357)"><g><a target="_top" xlink:href="mob-sliceTagExpense-step2628000-ofs25-col28-cat0.html"><rect style="display:none" class="hcell-act-col28-cat0" fill="#777" stroke="#000" stroke-width="5" width="70" height="112" x="0" y="-117" rx="8" ry="8"/><rect class="hcell-col28-cat0" fill="#777" stroke="#DDD" width="70" height="122" x="0" y="-122" rx="8" ry="8"/><text text-anchor="middle" fill="#FFF" x="35" y="-102">638</text></a></g></g><rect fill="none" stroke="#DDD" width="70" height="30" rx="8" ry="8" x="245" y="367"/><text text-anchor="middle" fill="#333" x="280" y="387">14-10</text><g transform="translate(245,407)"></g></g><g><g transform="translate(325,357)"></g><rect fill="none" stroke="#DDD" width="70" height="30" rx="8" ry="8" x="325" y="367"/><text text-anchor="middle" fill="#333" x="360" y="387">14-12</text><g transform="translate(325,407)"><g><a target="_top" xlink:href="mob-sliceTagExpense-step2628000-ofs25-col29-cat0.html"><rect style="display:none" class="hcell-act-col29-cat0" fill="#777" stroke="#000" stroke-width="5" width="70" height="20" x="0" y="5" rx="8" ry="8"/><rect class="hcell-col29-cat0" fill="#777" stroke="#DDD" width="70" height="30" x="0" y="0" rx="8" ry="8"/><text text-anchor="middle" fill="#FFF" x="35" y="20">-51</text></a></g></g></g></svg>