<svg xmlns="http://www.w3.org/2000/svg" xmlns:xlink="http://www.w3.org/1999/xlink" width="100%" height="100%" viewBox="0 0 400 459"><g><g transform="translate(5,166)"><g><a target="_top" xlink:href="mob-sliceTagChecking1042-step2628000-ofs30-col30-cat0.html"><rect style="display:none" class="hcell-act-col30-cat0" fill="#777" stroke="#000" stroke-width="5" width="70" height="118" x="0" y="-123" rx="8" ry="8"/><rect class="hcell-col30-cat0" fill="#777" stroke="#DDD" width="70" height="128" x="0" y="-128" rx="8" ry="8"/><text text-anchor="middle" fill="#FFF" x="35" y="-108">2677</text></a></g></g><rect fill="none" stroke="#DDD" width="70" height="30" rx="8" ry="8" x="5" y="176"/><text text-anchor="middle" fill="#333" x="40" y="196">14-12</text><g transform="translate(5,216)"><g><a target="_top" xlink:href="mob-sliceTagChecking1042-step2628000-ofs30-col30-cat0.html"><rect style="display:none" class="hcell-act-col30-cat0" fill="#777" stroke="#000" stroke-width="5" width="70" height="164" x="0" y="5" rx="8" ry="8"/><rect class="hcell-col30-cat0" fill="#777" stroke="#DDD" width="70" height="174" x="0" y="0" rx="8" ry="8"/><text text-anchor="middle" fill="#FFF" x="35" y="20">-3646</text></a></g></g></g><g><g transform="translate(85,166)"><g><a target="_top" xlink:href="mob-sliceTagChecking1042-step2628000-ofs30-col31-cat0.html"><rect style="display:none" class="hcell-act-col31-cat0" fill="#777" stroke="#000" stroke-width="5" width="70" height="114" x="0" y="-119" rx="8" ry="8"/><rect class="hcell-col31-cat0" fill="#777" stroke="#DDD" width="70" height="124" x="0" y="-124" rx="8" ry="8"/><text text-anchor="middle" fill="#FFF" x="35" y="-104">2600</text></a></g></g><rect fill="none" stroke="#DDD" width="70" height="30" rx="8" ry="8" x="85" y="176"/><text text-anchor="middle" fill="#333" x="120" y="196">15-01</text><g transform="translate(85,216)"><g><a target="_top" xlink:href="mob-sliceTagChecking1042-step2628000-ofs30-col31-cat0.html"><rect style="display:none" class="hcell-act-col31-cat0" fill="#777" stroke="#000" stroke-width="5" width="70" height="220" x="0" y="5" rx="8" ry="8"/><rect class="hcell-col31-cat0" fill="#777" stroke="#DDD" width="70" height="230" x="0" y="0" rx="8" ry="8"/><text text-anchor="middle" fill="#FFF" x="35" y="20">-4796</text></a></g></g></g><g><g transform="translate(165,166)"><g><a target="_top" xlink:href="mob-sliceTagChecking1042-step2628000-ofs30-col32-cat0.html"><rect style="display:none" class="hcell-act-col32-cat0" fill="#777" stroke="#000" stroke-width="5" width="70" height="151" x="0" y="-156" rx="8" ry="8"/><rect class="hcell-col32-cat0" fill="#777" stroke="#DDD" width="70" height="161" x="0" y="-161" rx="8" ry="8"/><text text-anchor="middle" fill="#FFF" x="35" y="-141">3375</text></a></g></g><rect fill="none" stroke="#DDD" width="70" height="30" rx="8" ry="8" x="165" y="176"/><text text-anchor="middle" fill="#333" x="200" y="196">15-03</text><g transform="translate(165,216)"><g><a target="_top" xlink:href="mob-sliceTagChecking1042-step2628000-ofs30-col32-cat0.html"><rect style="display:none" class="hcell-act-col32-cat0" fill="#777" stroke="#000" stroke-width="5" width="70" height="176" x="0" y="5" rx="8" ry="8"/><rect class="hcell-col32-cat0" fill="#777" stroke="#DDD" width="70" height="186" x="0" y="0" rx="8" ry="8"/><text text-anchor="middle" fill="#FFF" x="35" y="20">-3897</text></a></g></g></g><g><g transform="translate(245,166)"><g><a target="_top" xlink:href="mob-sliceTagChecking1042-step2628000-ofs30-col33-cat0.html"><rect style="display:none" class="hcell-act-col33-cat0" fill="#777" stroke="#000" stroke-width="5" width="70" height="116" x="0" y="-121" rx="8" ry="8"/><rect class="hcell-col33-cat0" fill="#777" stroke="#DDD" width="70" height="126" x="0" y="-126" rx="8" ry="8"/><text text-anchor="middle" fill="#FFF" x="35" y="-106">2632</text></a></g></g><rect fill="none" stroke="#DDD" width="70" height="30" rx="8" ry="8" x="245" y="176"/><text text-anchor="middle" fill="#333" x="280" y="196">15-04</text><g transform="translate(245,216)"><g><a target="_top" xlink:href="mob-sliceTagChecking1042-step2628000-ofs30-col33-cat0.html"><rect style="display:none" class="hcell-act-col33-cat0" fill="#777" stroke="#000" stroke-width="5" width="70" height="228" x="0" y="5" rx="8" ry="8"/><rect class="hcell-col33-cat0" fill="#777" stroke="#DDD" width="70" height="238" x="0" y="0" rx="8" ry="8"/><text text-anchor="middle" fill="#FFF" x="35" y="20">-4963</text></a></g></g></g><g><g transform="translate(325,166)"></g><rect fill="none" stroke="#DDD" width="70" height="30" rx="8" ry="8" x="325" y="176"/><text text-anchor="middle" fill="#333" x="360" y="196">15-05</text><g transform="translate(325,216)"></g></g></svg>