<svg xmlns="http://www.w3.org/2000/svg" xmlns:xlink="http://www.w3.org/1999/xlink" width="100%" height="100%" viewBox="0 0 400 459"><g><g transform="translate(5,224)"></g><rect fill="none" stroke="#DDD" width="70" height="30" rx="8" ry="8" x="5" y="234"/><text text-anchor="middle" fill="#333" x="40" y="254">14-08</text><g transform="translate(5,274)"><g><a target="_top" xlink:href="mob-sliceTagHygiene-step2628000-ofs25-col25-cat0.html"><rect style="display:none" class="hcell-act-col25-cat0" fill="#777" stroke="#000" stroke-width="5" width="70" height="20" x="0" y="5" rx="8" ry="8"/><rect class="hcell-col25-cat0" fill="#777" stroke="#DDD" width="70" height="30" x="0" y="0" rx="8" ry="8"/><text text-anchor="middle" fill="#FFF" x="35" y="20">-15</text></a></g></g></g><g><g transform="translate(85,224)"></g><rect fill="none" stroke="#DDD" width="70" height="30" rx="8" ry="8" x="85" y="234"/><text text-anchor="middle" fill="#333" x="120" y="254">14-08</text><g transform="translate(85,274)"><g><a target="_top" xlink:href="mob-sliceTagHygiene-step2628000-ofs25-col26-cat0.html"><rect style="display:none" class="hcell-act-col26-cat0" fill="#777" stroke="#000" stroke-width="5" width="70" height="50" x="0" y="5" rx="8" ry="8"/><rect class="hcell-col26-cat0" fill="#777" stroke="#DDD" width="70" height="60" x="0" y="0" rx="8" ry="8"/><text text-anchor="middle" fill="#FFF" x="35" y="20">-31</text></a></g></g></g><g><g transform="translate(165,224)"></g><rect fill="none" stroke="#DDD" width="70" height="30" rx="8" ry="8" x="165" y="234"/><text text-anchor="middle" fill="#333" x="200" y="254">14-10</text><g transform="translate(165,274)"><g><a target="_top" xlink:href="mob-sliceTagHygiene-step2628000-ofs25-col27-cat0.html"><rect style="display:none" class="hcell-act-col27-cat0" fill="#777" stroke="#000" stroke-width="5" width="70" height="170" x="0" y="5" rx="8" ry="8"/><rect class="hcell-col27-cat0" fill="#777" stroke="#DDD" width="70" height="180" x="0" y="0" rx="8" ry="8"/><text text-anchor="middle" fill="#FFF" x="35" y="20">-93</text></a></g></g></g><g><g transform="translate(245,224)"><g><a target="_top" xlink:href="mob-sliceTagHygiene-step2628000-ofs25-col28-cat0.html"><rect style="display:none" class="hcell-act-col28-cat0" fill="#777" stroke="#000" stroke-width="5" width="70" height="209" x="0" y="-214" rx="8" ry="8"/><rect class="hcell-col28-cat0" fill="#777" stroke="#DDD" width="70" height="219" x="0" y="-219" rx="8" ry="8"/><text text-anchor="middle" fill="#FFF" x="35" y="-199">112</text></a></g></g><rect fill="none" stroke="#DDD" width="70" height="30" rx="8" ry="8" x="245" y="234"/><text text-anchor="middle" fill="#333" x="280" y="254">14-10</text><g transform="translate(245,274)"></g></g><g><g transform="translate(325,224)"></g><rect fill="none" stroke="#DDD" width="70" height="30" rx="8" ry="8" x="325" y="234"/><text text-anchor="middle" fill="#333" x="360" y="254">14-12</text><g transform="translate(325,274)"><g><a target="_top" xlink:href="mob-sliceTagHygiene-step2628000-ofs25-col29-cat0.html"><rect style="display:none" class="hcell-act-col29-cat0" fill="#777" stroke="#000" stroke-width="5" width="70" height="55" x="0" y="5" rx="8" ry="8"/><rect class="hcell-col29-cat0" fill="#777" stroke="#DDD" width="70" height="65" x="0" y="0" rx="8" ry="8"/><text text-anchor="middle" fill="#FFF" x="35" y="20">-34</text></a></g></g></g></svg>