<svg xmlns="http://www.w3.org/2000/svg" xmlns:xlink="http://www.w3.org/1999/xlink" width="100%" height="100%" viewBox="0 0 400 460"><g><g transform="translate(5,205)"><g><a target="_top" xlink:href="mob-sliceTagCashWdw-step2628000-ofs30-col30-cat0.html"><rect style="display:none" class="hcell-act-col30-cat0" fill="#777" stroke="#000" stroke-width="5" width="70" height="130" x="0" y="-135" rx="8" ry="8"/><rect class="hcell-col30-cat0" fill="#777" stroke="#DDD" width="70" height="140" x="0" y="-140" rx="8" ry="8"/><text text-anchor="middle" fill="#FFF" x="35" y="-120">1000</text></a></g></g><rect fill="none" stroke="#DDD" width="70" height="30" rx="8" ry="8" x="5" y="215"/><text text-anchor="middle" fill="#333" x="40" y="235">14-12</text><g transform="translate(5,255)"><g><a target="_top" xlink:href="mob-sliceTagCashWdw-step2628000-ofs30-col30-cat0.html"><rect style="display:none" class="hcell-act-col30-cat0" fill="#777" stroke="#000" stroke-width="5" width="70" height="130" x="0" y="5" rx="8" ry="8"/><rect class="hcell-col30-cat0" fill="#777" stroke="#DDD" width="70" height="140" x="0" y="0" rx="8" ry="8"/><text text-anchor="middle" fill="#FFF" x="35" y="20">-1000</text></a></g></g></g><g><g transform="translate(85,205)"><g><a target="_top" xlink:href="mob-sliceTagCashWdw-step2628000-ofs30-col31-cat0.html"><rect style="display:none" class="hcell-act-col31-cat0" fill="#777" stroke="#000" stroke-width="5" width="70" height="147" x="0" y="-152" rx="8" ry="8"/><rect class="hcell-col31-cat0" fill="#777" stroke="#DDD" width="70" height="157" x="0" y="-157" rx="8" ry="8"/><text text-anchor="middle" fill="#FFF" x="35" y="-137">1120</text></a></g></g><rect fill="none" stroke="#DDD" width="70" height="30" rx="8" ry="8" x="85" y="215"/><text text-anchor="middle" fill="#333" x="120" y="235">15-01</text><g transform="translate(85,255)"><g><a target="_top" xlink:href="mob-sliceTagCashWdw-step2628000-ofs30-col31-cat0.html"><rect style="display:none" class="hcell-act-col31-cat0" fill="#777" stroke="#000" stroke-width="5" width="70" height="147" x="0" y="5" rx="8" ry="8"/><rect class="hcell-col31-cat0" fill="#777" stroke="#DDD" width="70" height="157" x="0" y="0" rx="8" ry="8"/><text text-anchor="middle" fill="#FFF" x="35" y="20">-1120</text></a></g></g></g><g><g transform="translate(165,205)"><g><a target="_top" xlink:href="mob-sliceTagCashWdw-step2628000-ofs30-col32-cat0.html"><rect style="display:none" class="hcell-act-col32-cat0" fill="#777" stroke="#000" stroke-width="5" width="70" height="113" x="0" y="-118" rx="8" ry="8"/><rect class="hcell-col32-cat0" fill="#777" stroke="#DDD" width="70" height="123" x="0" y="-123" rx="8" ry="8"/><text text-anchor="middle" fill="#FFF" x="35" y="-103">880</text></a></g></g><rect fill="none" stroke="#DDD" width="70" height="30" rx="8" ry="8" x="165" y="215"/><text text-anchor="middle" fill="#333" x="200" y="235">15-03</text><g transform="translate(165,255)"><g><a target="_top" xlink:href="mob-sliceTagCashWdw-step2628000-ofs30-col32-cat0.html"><rect style="display:none" class="hcell-act-col32-cat0" fill="#777" stroke="#000" stroke-width="5" width="70" height="113" x="0" y="5" rx="8" ry="8"/><rect class="hcell-col32-cat0" fill="#777" stroke="#DDD" width="70" height="123" x="0" y="0" rx="8" ry="8"/><text text-anchor="middle" fill="#FFF" x="35" y="20">-880</text></a></g></g></g><g><g transform="translate(245,205)"><g><a target="_top" xlink:href="mob-sliceTagCashWdw-step2628000-ofs30-col33-cat0.html"><rect style="display:none" class="hcell-act-col33-cat0" fill="#777" stroke="#000" stroke-width="5" width="70" height="190" x="0" y="-195" rx="8" ry="8"/><rect class="hcell-col33-cat0" fill="#777" stroke="#DDD" width="70" height="200" x="0" y="-200" rx="8" ry="8"/><text text-anchor="middle" fill="#FFF" x="35" y="-180">1420</text></a></g></g><rect fill="none" stroke="#DDD" width="70" height="30" rx="8" ry="8" x="245" y="215"/><text text-anchor="middle" fill="#333" x="280" y="235">15-04</text><g transform="translate(245,255)"><g><a target="_top" xlink:href="mob-sliceTagCashWdw-step2628000-ofs30-col33-cat0.html"><rect style="display:none" class="hcell-act-col33-cat0" fill="#777" stroke="#000" stroke-width="5" width="70" height="190" x="0" y="5" rx="8" ry="8"/><rect class="hcell-col33-cat0" fill="#777" stroke="#DDD" width="70" height="200" x="0" y="0" rx="8" ry="8"/><text text-anchor="middle" fill="#FFF" x="35" y="20">-1420</text></a></g></g></g><g><g transform="translate(325,205)"></g><rect fill="none" stroke="#DDD" width="70" height="30" rx="8" ry="8" x="325" y="215"/><text text-anchor="middle" fill="#333" x="360" y="235">15-05</text><g transform="translate(325,255)"></g></g></svg>