<svg xmlns="http://www.w3.org/2000/svg" xmlns:xlink="http://www.w3.org/1999/xlink" width="100%" height="100%" viewBox="0 0 400 485"><g><g transform="translate(5,400)"><g><a target="_top" xlink:href="mob-sliceTagExpense-step2628000-ofs25-col25-cat0.html"><rect style="display:none" class="hcell-act-col25-cat0" fill="#777" stroke="#000" stroke-width="5" width="70" height="299" x="0" y="-304" rx="8" ry="8"/><rect class="hcell-col25-cat0" fill="#777" stroke="#DDD" width="70" height="309" x="0" y="-309" rx="8" ry="8"/><text text-anchor="middle" fill="#FFF" x="35" y="-289">3558</text></a></g></g><rect fill="none" stroke="#DDD" width="70" height="30" rx="8" ry="8" x="5" y="410"/><text text-anchor="middle" fill="#333" x="40" y="430">14-08</text><g transform="translate(5,450)"></g></g><g><g transform="translate(85,400)"><g><a target="_top" xlink:href="mob-sliceTagExpense-step2628000-ofs25-col26-cat0.html"><rect style="display:none" class="hcell-act-col26-cat0" fill="#777" stroke="#000" stroke-width="5" width="70" height="385" x="0" y="-390" rx="8" ry="8"/><rect class="hcell-col26-cat0" fill="#777" stroke="#DDD" width="70" height="395" x="0" y="-395" rx="8" ry="8"/><text text-anchor="middle" fill="#FFF" x="35" y="-375">4549</text></a></g></g><rect fill="none" stroke="#DDD" width="70" height="30" rx="8" ry="8" x="85" y="410"/><text text-anchor="middle" fill="#333" x="120" y="430">14-08</text><g transform="translate(85,450)"><g><a target="_top" xlink:href="mob-sliceTagExpense-step2628000-ofs25-col26-cat0.html"><rect style="display:none" class="hcell-act-col26-cat0" fill="#777" stroke="#000" stroke-width="5" width="70" height="20" x="0" y="5" rx="8" ry="8"/><rect class="hcell-col26-cat0" fill="#777" stroke="#DDD" width="70" height="30" x="0" y="0" rx="8" ry="8"/><text text-anchor="middle" fill="#FFF" x="35" y="20">-22</text></a></g></g></g><g><g transform="translate(165,400)"><g><a target="_top" xlink:href="mob-sliceTagExpense-step2628000-ofs25-col27-cat0.html"><rect style="display:none" class="hcell-act-col27-cat0" fill="#777" stroke="#000" stroke-width="5" width="70" height="202" x="0" y="-207" rx="8" ry="8"/><rect class="hcell-col27-cat0" fill="#777" stroke="#DDD" width="70" height="212" x="0" y="-212" rx="8" ry="8"/><text text-anchor="middle" fill="#FFF" x="35" y="-192">2442</text></a></g></g><rect fill="none" stroke="#DDD" width="70" height="30" rx="8" ry="8" x="165" y="410"/><text text-anchor="middle" fill="#333" x="200" y="430">14-10</text><g transform="translate(165,450)"></g></g><g><g transform="translate(245,400)"><g><a target="_top" xlink:href="mob-sliceTagExpense-step2628000-ofs25-col28-cat0.html"><rect style="display:none" class="hcell-act-col28-cat0" fill="#777" stroke="#000" stroke-width="5" width="70" height="289" x="0" y="-294" rx="8" ry="8"/><rect class="hcell-col28-cat0" fill="#777" stroke="#DDD" width="70" height="299" x="0" y="-299" rx="8" ry="8"/><text text-anchor="middle" fill="#FFF" x="35" y="-279">3447</text></a></g></g><rect fill="none" stroke="#DDD" width="70" height="30" rx="8" ry="8" x="245" y="410"/><text text-anchor="middle" fill="#333" x="280" y="430">14-10</text><g transform="translate(245,450)"></g></g><g><g transform="translate(325,400)"><g><a target="_top" xlink:href="mob-sliceTagExpense-step2628000-ofs25-col29-cat0.html"><rect style="display:none" class="hcell-act-col29-cat0" fill="#777" stroke="#000" stroke-width="5" width="70" height="263" x="0" y="-268" rx="8" ry="8"/><rect class="hcell-col29-cat0" fill="#777" stroke="#DDD" width="70" height="273" x="0" y="-273" rx="8" ry="8"/><text text-anchor="middle" fill="#FFF" x="35" y="-253">3144</text></a></g></g><rect fill="none" stroke="#DDD" width="70" height="30" rx="8" ry="8" x="325" y="410"/><text text-anchor="middle" fill="#333" x="360" y="430">14-12</text><g transform="translate(325,450)"><g><a target="_top" xlink:href="mob-sliceTagExpense-step2628000-ofs25-col29-cat0.html"><rect style="display:none" class="hcell-act-col29-cat0" fill="#777" stroke="#000" stroke-width="5" width="70" height="20" x="0" y="5" rx="8" ry="8"/><rect class="hcell-col29-cat0" fill="#777" stroke="#DDD" width="70" height="30" x="0" y="0" rx="8" ry="8"/><text text-anchor="middle" fill="#FFF" x="35" y="20">-56</text></a></g></g></g></svg>