<svg xmlns="http://www.w3.org/2000/svg" xmlns:xlink="http://www.w3.org/1999/xlink" width="100%" height="100%" viewBox="0 0 400 459"><g><g transform="translate(5,216)"><g><a target="_top" xlink:href="mob-sliceTagCashWdw-step2628000-ofs20-col20-cat0.html"><rect style="display:none" class="hcell-act-col20-cat0" fill="#777" stroke="#000" stroke-width="5" width="70" height="201" x="0" y="-206" rx="8" ry="8"/><rect class="hcell-col20-cat0" fill="#777" stroke="#DDD" width="70" height="211" x="0" y="-211" rx="8" ry="8"/><text text-anchor="middle" fill="#FFF" x="35" y="-191">1680</text></a></g></g><rect fill="none" stroke="#DDD" width="70" height="30" rx="8" ry="8" x="5" y="226"/><text text-anchor="middle" fill="#333" x="40" y="246">14-03</text><g transform="translate(5,266)"></g></g><g><g transform="translate(85,216)"></g><rect fill="none" stroke="#DDD" width="70" height="30" rx="8" ry="8" x="85" y="226"/><text text-anchor="middle" fill="#333" x="120" y="246">14-04</text><g transform="translate(85,266)"><g><a target="_top" xlink:href="mob-sliceTagCashWdw-step2628000-ofs20-col21-cat0.html"><rect style="display:none" class="hcell-act-col21-cat0" fill="#777" stroke="#000" stroke-width="5" width="70" height="178" x="0" y="5" rx="8" ry="8"/><rect class="hcell-col21-cat0" fill="#777" stroke="#DDD" width="70" height="188" x="0" y="0" rx="8" ry="8"/><text text-anchor="middle" fill="#FFF" x="35" y="20">-1500</text></a></g></g></g><g><g transform="translate(165,216)"><g><a target="_top" xlink:href="mob-sliceTagCashWdw-step2628000-ofs20-col22-cat0.html"><rect style="display:none" class="hcell-act-col22-cat0" fill="#777" stroke="#000" stroke-width="5" width="70" height="178" x="0" y="-183" rx="8" ry="8"/><rect class="hcell-col22-cat0" fill="#777" stroke="#DDD" width="70" height="188" x="0" y="-188" rx="8" ry="8"/><text text-anchor="middle" fill="#FFF" x="35" y="-168">1500</text></a></g></g><rect fill="none" stroke="#DDD" width="70" height="30" rx="8" ry="8" x="165" y="226"/><text text-anchor="middle" fill="#333" x="200" y="246">14-05</text><g transform="translate(165,266)"></g></g><g><g transform="translate(245,216)"></g><rect fill="none" stroke="#DDD" width="70" height="30" rx="8" ry="8" x="245" y="226"/><text text-anchor="middle" fill="#333" x="280" y="246">14-06</text><g transform="translate(245,266)"></g></g><g><g transform="translate(325,216)"></g><rect fill="none" stroke="#DDD" width="70" height="30" rx="8" ry="8" x="325" y="226"/><text text-anchor="middle" fill="#333" x="360" y="246">14-07</text><g transform="translate(325,266)"></g></g></svg>