<svg xmlns="http://www.w3.org/2000/svg" xmlns:xlink="http://www.w3.org/1999/xlink" width="100%" height="100%" viewBox="0 0 400 527"><g><g transform="translate(5,363)"><g><a target="_top" xlink:href="mob-slice0-step2628000-ofs25-col25-cat3.html"><rect style="display:none" class="hcell-act-col25-cat3" fill="#5BC0DE" stroke="#000" stroke-width="5" width="70" height="20" x="0" y="-25" rx="8" ry="8"/><rect class="hcell-col25-cat3" fill="#5BC0DE" stroke="#DDD" width="70" height="30" x="0" y="-30" rx="8" ry="8"/><text text-anchor="middle" fill="#FFF" x="35" y="-10">27</text></a><g transform="translate(0,-30)"><g><a target="_top" xlink:href="mob-slice0-step2628000-ofs25-col25-cat0.html"><rect style="display:none" class="hcell-act-col25-cat0" fill="#D9534F" stroke="#000" stroke-width="5" width="70" height="20" x="0" y="-25" rx="8" ry="8"/><rect class="hcell-col25-cat0" fill="#D9534F" stroke="#DDD" width="70" height="30" x="0" y="-30" rx="8" ry="8"/><text text-anchor="middle" fill="#FFF" x="35" y="-10">59</text></a><g transform="translate(0,-30)"><g><a target="_top" xlink:href="mob-slice0-step2628000-ofs25-col25-cat4.html"><rect style="display:none" class="hcell-act-col25-cat4" fill="#337AB7" stroke="#000" stroke-width="5" width="70" height="20" x="0" y="-25" rx="8" ry="8"/><rect class="hcell-col25-cat4" fill="#337AB7" stroke="#DDD" width="70" height="30" x="0" y="-30" rx="8" ry="8"/><text text-anchor="middle" fill="#FFF" x="35" y="-10">71</text></a><g transform="translate(0,-30)"><g><a target="_top" xlink:href="mob-slice0-step2628000-ofs25-col25-cat2.html"><rect style="display:none" class="hcell-act-col25-cat2" fill="#5CB85C" stroke="#000" stroke-width="5" width="70" height="67" x="0" y="-72" rx="8" ry="8"/><rect class="hcell-col25-cat2" fill="#5CB85C" stroke="#DDD" width="70" height="77" x="0" y="-77" rx="8" ry="8"/><text text-anchor="middle" fill="#FFF" x="35" y="-57">491</text></a></g></g></g></g></g></g></g></g><rect fill="none" stroke="#DDD" width="70" height="30" rx="8" ry="8" x="5" y="373"/><text text-anchor="middle" fill="#333" x="40" y="393">14-08</text><g transform="translate(5,413)"><g><a target="_top" xlink:href="mob-slice0-step2628000-ofs25-col25-cat5.html"><rect style="display:none" class="hcell-act-col25-cat5" fill="#777" stroke="#000" stroke-width="5" width="70" height="20" x="0" y="5" rx="8" ry="8"/><rect class="hcell-col25-cat5" fill="#777" stroke="#DDD" width="70" height="30" x="0" y="0" rx="8" ry="8"/><text text-anchor="middle" fill="#FFF" x="35" y="20">-13</text></a><g transform="translate(0,30)"><g><a target="_top" xlink:href="mob-slice0-step2628000-ofs25-col25-cat1.html"><rect style="display:none" class="hcell-act-col25-cat1" fill="#F0AD4E" stroke="#000" stroke-width="5" width="70" height="27" x="0" y="5" rx="8" ry="8"/><rect class="hcell-col25-cat1" fill="#F0AD4E" stroke="#DDD" width="70" height="37" x="0" y="0" rx="8" ry="8"/><text text-anchor="middle" fill="#FFF" x="35" y="20">-236</text></a></g></g></g></g></g><g><g transform="translate(85,363)"><g><a target="_top" xlink:href="mob-slice0-step2628000-ofs25-col26-cat3.html"><rect style="display:none" class="hcell-act-col26-cat3" fill="#5BC0DE" stroke="#000" stroke-width="5" width="70" height="20" x="0" y="-25" rx="8" ry="8"/><rect class="hcell-col26-cat3" fill="#5BC0DE" stroke="#DDD" width="70" height="30" x="0" y="-30" rx="8" ry="8"/><text text-anchor="middle" fill="#FFF" x="35" y="-10">51</text></a><g transform="translate(0,-30)"><g><a target="_top" xlink:href="mob-slice0-step2628000-ofs25-col26-cat1.html"><rect style="display:none" class="hcell-act-col26-cat1" fill="#F0AD4E" stroke="#000" stroke-width="5" width="70" height="20" x="0" y="-25" rx="8" ry="8"/><rect class="hcell-col26-cat1" fill="#F0AD4E" stroke="#DDD" width="70" height="30" x="0" y="-30" rx="8" ry="8"/><text text-anchor="middle" fill="#FFF" x="35" y="-10">111</text></a><g transform="translate(0,-30)"><g><a target="_top" xlink:href="mob-slice0-step2628000-ofs25-col26-cat4.html"><rect style="display:none" class="hcell-act-col26-cat4" fill="#337AB7" stroke="#000" stroke-width="5" width="70" height="24" x="0" y="-29" rx="8" ry="8"/><rect class="hcell-col26-cat4" fill="#337AB7" stroke="#DDD" width="70" height="34" x="0" y="-34" rx="8" ry="8"/><text text-anchor="middle" fill="#FFF" x="35" y="-14">220</text></a><g transform="translate(0,-34)"><g><a target="_top" xlink:href="mob-slice0-step2628000-ofs25-col26-cat0.html"><rect style="display:none" class="hcell-act-col26-cat0" fill="#D9534F" stroke="#000" stroke-width="5" width="70" height="254" x="0" y="-259" rx="8" ry="8"/><rect class="hcell-col26-cat0" fill="#D9534F" stroke="#DDD" width="70" height="264" x="0" y="-264" rx="8" ry="8"/><text text-anchor="middle" fill="#FFF" x="35" y="-244">1669</text></a></g></g></g></g></g></g></g></g><rect fill="none" stroke="#DDD" width="70" height="30" rx="8" ry="8" x="85" y="373"/><text text-anchor="middle" fill="#333" x="120" y="393">14-08</text><g transform="translate(85,413)"><g><a target="_top" xlink:href="mob-slice0-step2628000-ofs25-col26-cat5.html"><rect style="display:none" class="hcell-act-col26-cat5" fill="#777" stroke="#000" stroke-width="5" width="70" height="20" x="0" y="5" rx="8" ry="8"/><rect class="hcell-col26-cat5" fill="#777" stroke="#DDD" width="70" height="30" x="0" y="0" rx="8" ry="8"/><text text-anchor="middle" fill="#FFF" x="35" y="20">-14</text></a><g transform="translate(0,30)"><g><a target="_top" xlink:href="mob-slice0-step2628000-ofs25-col26-cat2.html"><rect style="display:none" class="hcell-act-col26-cat2" fill="#5CB85C" stroke="#000" stroke-width="5" width="70" height="21" x="0" y="5" rx="8" ry="8"/><rect class="hcell-col26-cat2" fill="#5CB85C" stroke="#DDD" width="70" height="31" x="0" y="0" rx="8" ry="8"/><text text-anchor="middle" fill="#FFF" x="35" y="20">-200</text></a></g></g></g></g></g><g><g transform="translate(165,363)"><g><a target="_top" xlink:href="mob-slice0-step2628000-ofs25-col27-cat5.html"><rect style="display:none" class="hcell-act-col27-cat5" fill="#777" stroke="#000" stroke-width="5" width="70" height="20" x="0" y="-25" rx="8" ry="8"/><rect class="hcell-col27-cat5" fill="#777" stroke="#DDD" width="70" height="30" x="0" y="-30" rx="8" ry="8"/><text text-anchor="middle" fill="#FFF" x="35" y="-10">5</text></a><g transform="translate(0,-30)"><g><a target="_top" xlink:href="mob-slice0-step2628000-ofs25-col27-cat1.html"><rect style="display:none" class="hcell-act-col27-cat1" fill="#F0AD4E" stroke="#000" stroke-width="5" width="70" height="20" x="0" y="-25" rx="8" ry="8"/><rect class="hcell-col27-cat1" fill="#F0AD4E" stroke="#DDD" width="70" height="30" x="0" y="-30" rx="8" ry="8"/><text text-anchor="middle" fill="#FFF" x="35" y="-10">63</text></a><g transform="translate(0,-30)"><g><a target="_top" xlink:href="mob-slice0-step2628000-ofs25-col27-cat4.html"><rect style="display:none" class="hcell-act-col27-cat4" fill="#337AB7" stroke="#000" stroke-width="5" width="70" height="20" x="0" y="-25" rx="8" ry="8"/><rect class="hcell-col27-cat4" fill="#337AB7" stroke="#DDD" width="70" height="30" x="0" y="-30" rx="8" ry="8"/><text text-anchor="middle" fill="#FFF" x="35" y="-10">158</text></a></g></g></g></g></g></g><rect fill="none" stroke="#DDD" width="70" height="30" rx="8" ry="8" x="165" y="373"/><text text-anchor="middle" fill="#333" x="200" y="393">14-10</text><g transform="translate(165,413)"><g><a target="_top" xlink:href="mob-slice0-step2628000-ofs25-col27-cat3.html"><rect style="display:none" class="hcell-act-col27-cat3" fill="#5BC0DE" stroke="#000" stroke-width="5" width="70" height="20" x="0" y="5" rx="8" ry="8"/><rect class="hcell-col27-cat3" fill="#5BC0DE" stroke="#DDD" width="70" height="30" x="0" y="0" rx="8" ry="8"/><text text-anchor="middle" fill="#FFF" x="35" y="20">-11</text></a><g transform="translate(0,30)"><g><a target="_top" xlink:href="mob-slice0-step2628000-ofs25-col27-cat0.html"><rect style="display:none" class="hcell-act-col27-cat0" fill="#D9534F" stroke="#000" stroke-width="5" width="70" height="20" x="0" y="5" rx="8" ry="8"/><rect class="hcell-col27-cat0" fill="#D9534F" stroke="#DDD" width="70" height="30" x="0" y="0" rx="8" ry="8"/><text text-anchor="middle" fill="#FFF" x="35" y="20">-154</text></a><g transform="translate(0,30)"><g><a target="_top" xlink:href="mob-slice0-step2628000-ofs25-col27-cat2.html"><rect style="display:none" class="hcell-act-col27-cat2" fill="#5CB85C" stroke="#000" stroke-width="5" width="70" height="39" x="0" y="5" rx="8" ry="8"/><rect class="hcell-col27-cat2" fill="#5CB85C" stroke="#DDD" width="70" height="49" x="0" y="0" rx="8" ry="8"/><text text-anchor="middle" fill="#FFF" x="35" y="20">-311</text></a></g></g></g></g></g></g></g><g><g transform="translate(245,363)"><g><a target="_top" xlink:href="mob-slice0-step2628000-ofs25-col28-cat5.html"><rect style="display:none" class="hcell-act-col28-cat5" fill="#777" stroke="#000" stroke-width="5" width="70" height="20" x="0" y="-25" rx="8" ry="8"/><rect class="hcell-col28-cat5" fill="#777" stroke="#DDD" width="70" height="30" x="0" y="-30" rx="8" ry="8"/><text text-anchor="middle" fill="#FFF" x="35" y="-10">10</text></a><g transform="translate(0,-30)"><g><a target="_top" xlink:href="mob-slice0-step2628000-ofs25-col28-cat3.html"><rect style="display:none" class="hcell-act-col28-cat3" fill="#5BC0DE" stroke="#000" stroke-width="5" width="70" height="20" x="0" y="-25" rx="8" ry="8"/><rect class="hcell-col28-cat3" fill="#5BC0DE" stroke="#DDD" width="70" height="30" x="0" y="-30" rx="8" ry="8"/><text text-anchor="middle" fill="#FFF" x="35" y="-10">43</text></a><g transform="translate(0,-30)"><g><a target="_top" xlink:href="mob-slice0-step2628000-ofs25-col28-cat4.html"><rect style="display:none" class="hcell-act-col28-cat4" fill="#337AB7" stroke="#000" stroke-width="5" width="70" height="20" x="0" y="-25" rx="8" ry="8"/><rect class="hcell-col28-cat4" fill="#337AB7" stroke="#DDD" width="70" height="30" x="0" y="-30" rx="8" ry="8"/><text text-anchor="middle" fill="#FFF" x="35" y="-10">152</text></a><g transform="translate(0,-30)"><g><a target="_top" xlink:href="mob-slice0-step2628000-ofs25-col28-cat0.html"><rect style="display:none" class="hcell-act-col28-cat0" fill="#D9534F" stroke="#000" stroke-width="5" width="70" height="111" x="0" y="-116" rx="8" ry="8"/><rect class="hcell-col28-cat0" fill="#D9534F" stroke="#DDD" width="70" height="121" x="0" y="-121" rx="8" ry="8"/><text text-anchor="middle" fill="#FFF" x="35" y="-101">764</text></a></g></g></g></g></g></g></g></g><rect fill="none" stroke="#DDD" width="70" height="30" rx="8" ry="8" x="245" y="373"/><text text-anchor="middle" fill="#333" x="280" y="393">14-10</text><g transform="translate(245,413)"><g><a target="_top" xlink:href="mob-slice0-step2628000-ofs25-col28-cat2.html"><rect style="display:none" class="hcell-act-col28-cat2" fill="#5CB85C" stroke="#000" stroke-width="5" width="70" height="20" x="0" y="5" rx="8" ry="8"/><rect class="hcell-col28-cat2" fill="#5CB85C" stroke="#DDD" width="70" height="30" x="0" y="0" rx="8" ry="8"/><text text-anchor="middle" fill="#FFF" x="35" y="20">-89</text></a><g transform="translate(0,30)"><g><a target="_top" xlink:href="mob-slice0-step2628000-ofs25-col28-cat1.html"><rect style="display:none" class="hcell-act-col28-cat1" fill="#F0AD4E" stroke="#000" stroke-width="5" width="70" height="28" x="0" y="5" rx="8" ry="8"/><rect class="hcell-col28-cat1" fill="#F0AD4E" stroke="#DDD" width="70" height="38" x="0" y="0" rx="8" ry="8"/><text text-anchor="middle" fill="#FFF" x="35" y="20">-244</text></a></g></g></g></g></g><g><g transform="translate(325,363)"><g><a target="_top" xlink:href="mob-slice0-step2628000-ofs25-col29-cat3.html"><rect style="display:none" class="hcell-act-col29-cat3" fill="#5BC0DE" stroke="#000" stroke-width="5" width="70" height="20" x="0" y="-25" rx="8" ry="8"/><rect class="hcell-col29-cat3" fill="#5BC0DE" stroke="#DDD" width="70" height="30" x="0" y="-30" rx="8" ry="8"/><text text-anchor="middle" fill="#FFF" x="35" y="-10">1</text></a><g transform="translate(0,-30)"><g><a target="_top" xlink:href="mob-slice0-step2628000-ofs25-col29-cat4.html"><rect style="display:none" class="hcell-act-col29-cat4" fill="#337AB7" stroke="#000" stroke-width="5" width="70" height="20" x="0" y="-25" rx="8" ry="8"/><rect class="hcell-col29-cat4" fill="#337AB7" stroke="#DDD" width="70" height="30" x="0" y="-30" rx="8" ry="8"/><text text-anchor="middle" fill="#FFF" x="35" y="-10">18</text></a><g transform="translate(0,-30)"><g><a target="_top" xlink:href="mob-slice0-step2628000-ofs25-col29-cat2.html"><rect style="display:none" class="hcell-act-col29-cat2" fill="#5CB85C" stroke="#000" stroke-width="5" width="70" height="20" x="0" y="-25" rx="8" ry="8"/><rect class="hcell-col29-cat2" fill="#5CB85C" stroke="#DDD" width="70" height="30" x="0" y="-30" rx="8" ry="8"/><text text-anchor="middle" fill="#FFF" x="35" y="-10">163</text></a></g></g></g></g></g></g><rect fill="none" stroke="#DDD" width="70" height="30" rx="8" ry="8" x="325" y="373"/><text text-anchor="middle" fill="#333" x="360" y="393">14-12</text><g transform="translate(325,413)"><g><a target="_top" xlink:href="mob-slice0-step2628000-ofs25-col29-cat5.html"><rect style="display:none" class="hcell-act-col29-cat5" fill="#777" stroke="#000" stroke-width="5" width="70" height="20" x="0" y="5" rx="8" ry="8"/><rect class="hcell-col29-cat5" fill="#777" stroke="#DDD" width="70" height="30" x="0" y="0" rx="8" ry="8"/><text text-anchor="middle" fill="#FFF" x="35" y="20">-46</text></a><g transform="translate(0,30)"><g><a target="_top" xlink:href="mob-slice0-step2628000-ofs25-col29-cat1.html"><rect style="display:none" class="hcell-act-col29-cat1" fill="#F0AD4E" stroke="#000" stroke-width="5" width="70" height="20" x="0" y="5" rx="8" ry="8"/><rect class="hcell-col29-cat1" fill="#F0AD4E" stroke="#DDD" width="70" height="30" x="0" y="0" rx="8" ry="8"/><text text-anchor="middle" fill="#FFF" x="35" y="20">-84</text></a><g transform="translate(0,30)"><g><a target="_top" xlink:href="mob-slice0-step2628000-ofs25-col29-cat0.html"><rect style="display:none" class="hcell-act-col29-cat0" fill="#D9534F" stroke="#000" stroke-width="5" width="70" height="20" x="0" y="5" rx="8" ry="8"/><rect class="hcell-col29-cat0" fill="#D9534F" stroke="#DDD" width="70" height="30" x="0" y="0" rx="8" ry="8"/><text text-anchor="middle" fill="#FFF" x="35" y="20">-106</text></a></g></g></g></g></g></g></g></svg>