<svg xmlns="http://www.w3.org/2000/svg" xmlns:xlink="http://www.w3.org/1999/xlink" width="100%" height="100%" viewBox="0 0 400 568"><g><g transform="translate(5,453)"><g><a target="_top" xlink:href="mob-slice0-step17936641-ofs0-col0-cat5.html"><rect style="display:none" class="hcell-act-col0-cat5" fill="#777" stroke="#000" stroke-width="5" width="70" height="20" x="0" y="-25" rx="8" ry="8"/><rect class="hcell-col0-cat5" fill="#777" stroke="#DDD" width="70" height="30" x="0" y="-30" rx="8" ry="8"/><text text-anchor="middle" fill="#FFF" x="35" y="-10">195</text></a><g transform="translate(0,-30)"><g><a target="_top" xlink:href="mob-slice0-step17936641-ofs0-col0-cat2.html"><rect style="display:none" class="hcell-act-col0-cat2" fill="#5CB85C" stroke="#000" stroke-width="5" width="70" height="20" x="0" y="-25" rx="8" ry="8"/><rect class="hcell-col0-cat2" fill="#5CB85C" stroke="#DDD" width="70" height="30" x="0" y="-30" rx="8" ry="8"/><text text-anchor="middle" fill="#FFF" x="35" y="-10">653</text></a><g transform="translate(0,-30)"><g><a target="_top" xlink:href="mob-slice0-step17936641-ofs0-col0-cat3.html"><rect style="display:none" class="hcell-act-col0-cat3" fill="#5BC0DE" stroke="#000" stroke-width="5" width="70" height="20" x="0" y="-25" rx="8" ry="8"/><rect class="hcell-col0-cat3" fill="#5BC0DE" stroke="#DDD" width="70" height="30" x="0" y="-30" rx="8" ry="8"/><text text-anchor="middle" fill="#FFF" x="35" y="-10">857</text></a><g transform="translate(0,-30)"><g><a target="_top" xlink:href="mob-slice0-step17936641-ofs0-col0-cat4.html"><rect style="display:none" class="hcell-act-col0-cat4" fill="#337AB7" stroke="#000" stroke-width="5" width="70" height="20" x="0" y="-25" rx="8" ry="8"/><rect class="hcell-col0-cat4" fill="#337AB7" stroke="#DDD" width="70" height="30" x="0" y="-30" rx="8" ry="8"/><text text-anchor="middle" fill="#FFF" x="35" y="-10">1432</text></a><g transform="translate(0,-30)"><g><a target="_top" xlink:href="mob-slice0-step17936641-ofs0-col0-cat1.html"><rect style="display:none" class="hcell-act-col0-cat1" fill="#F0AD4E" stroke="#000" stroke-width="5" width="70" height="48" x="0" y="-53" rx="8" ry="8"/><rect class="hcell-col0-cat1" fill="#F0AD4E" stroke="#DDD" width="70" height="58" x="0" y="-58" rx="8" ry="8"/><text text-anchor="middle" fill="#FFF" x="35" y="-38">3805</text></a><g transform="translate(0,-58)"><g><a target="_top" xlink:href="mob-slice0-step17936641-ofs0-col0-cat0.html"><rect style="display:none" class="hcell-act-col0-cat0" fill="#D9534F" stroke="#000" stroke-width="5" width="70" height="124" x="0" y="-129" rx="8" ry="8"/><rect class="hcell-col0-cat0" fill="#D9534F" stroke="#DDD" width="70" height="134" x="0" y="-134" rx="8" ry="8"/><text text-anchor="middle" fill="#FFF" x="35" y="-114">8771</text></a></g></g></g></g></g></g></g></g></g></g></g></g><rect fill="none" stroke="#DDD" width="70" height="30" rx="8" ry="8" x="5" y="463"/><text text-anchor="middle" fill="#333" x="40" y="483">12-07</text><g transform="translate(5,503)"><g><a target="_top" xlink:href="mob-slice0-step17936641-ofs0-col0-cat5.html"><rect style="display:none" class="hcell-act-col0-cat5" fill="#777" stroke="#000" stroke-width="5" width="70" height="20" x="0" y="5" rx="8" ry="8"/><rect class="hcell-col0-cat5" fill="#777" stroke="#DDD" width="70" height="30" x="0" y="0" rx="8" ry="8"/><text text-anchor="middle" fill="#FFF" x="35" y="20">-71</text></a><g transform="translate(0,30)"><g><a target="_top" xlink:href="mob-slice0-step17936641-ofs0-col0-cat4.html"><rect style="display:none" class="hcell-act-col0-cat4" fill="#337AB7" stroke="#000" stroke-width="5" width="70" height="20" x="0" y="5" rx="8" ry="8"/><rect class="hcell-col0-cat4" fill="#337AB7" stroke="#DDD" width="70" height="30" x="0" y="0" rx="8" ry="8"/><text text-anchor="middle" fill="#FFF" x="35" y="20">-231</text></a></g></g></g></g></g><g><g transform="translate(85,453)"><g><a target="_top" xlink:href="mob-slice0-step17936641-ofs0-col1-cat5.html"><rect style="display:none" class="hcell-act-col1-cat5" fill="#777" stroke="#000" stroke-width="5" width="70" height="20" x="0" y="-25" rx="8" ry="8"/><rect class="hcell-col1-cat5" fill="#777" stroke="#DDD" width="70" height="30" x="0" y="-30" rx="8" ry="8"/><text text-anchor="middle" fill="#FFF" x="35" y="-10">95</text></a><g transform="translate(0,-30)"><g><a target="_top" xlink:href="mob-slice0-step17936641-ofs0-col1-cat3.html"><rect style="display:none" class="hcell-act-col1-cat3" fill="#5BC0DE" stroke="#000" stroke-width="5" width="70" height="20" x="0" y="-25" rx="8" ry="8"/><rect class="hcell-col1-cat3" fill="#5BC0DE" stroke="#DDD" width="70" height="30" x="0" y="-30" rx="8" ry="8"/><text text-anchor="middle" fill="#FFF" x="35" y="-10">668</text></a><g transform="translate(0,-30)"><g><a target="_top" xlink:href="mob-slice0-step17936641-ofs0-col1-cat2.html"><rect style="display:none" class="hcell-act-col1-cat2" fill="#5CB85C" stroke="#000" stroke-width="5" width="70" height="20" x="0" y="-25" rx="8" ry="8"/><rect class="hcell-col1-cat2" fill="#5CB85C" stroke="#DDD" width="70" height="30" x="0" y="-30" rx="8" ry="8"/><text text-anchor="middle" fill="#FFF" x="35" y="-10">950</text></a><g transform="translate(0,-30)"><g><a target="_top" xlink:href="mob-slice0-step17936641-ofs0-col1-cat4.html"><rect style="display:none" class="hcell-act-col1-cat4" fill="#337AB7" stroke="#000" stroke-width="5" width="70" height="22" x="0" y="-27" rx="8" ry="8"/><rect class="hcell-col1-cat4" fill="#337AB7" stroke="#DDD" width="70" height="32" x="0" y="-32" rx="8" ry="8"/><text text-anchor="middle" fill="#FFF" x="35" y="-12">2109</text></a><g transform="translate(0,-32)"><g><a target="_top" xlink:href="mob-slice0-step17936641-ofs0-col1-cat1.html"><rect style="display:none" class="hcell-act-col1-cat1" fill="#F0AD4E" stroke="#000" stroke-width="5" width="70" height="44" x="0" y="-49" rx="8" ry="8"/><rect class="hcell-col1-cat1" fill="#F0AD4E" stroke="#DDD" width="70" height="54" x="0" y="-54" rx="8" ry="8"/><text text-anchor="middle" fill="#FFF" x="35" y="-34">3552</text></a><g transform="translate(0,-54)"><g><a target="_top" xlink:href="mob-slice0-step17936641-ofs0-col1-cat0.html"><rect style="display:none" class="hcell-act-col1-cat0" fill="#D9534F" stroke="#000" stroke-width="5" width="70" height="151" x="0" y="-156" rx="8" ry="8"/><rect class="hcell-col1-cat0" fill="#D9534F" stroke="#DDD" width="70" height="161" x="0" y="-161" rx="8" ry="8"/><text text-anchor="middle" fill="#FFF" x="35" y="-141">10518</text></a></g></g></g></g></g></g></g></g></g></g></g></g><rect fill="none" stroke="#DDD" width="70" height="30" rx="8" ry="8" x="85" y="463"/><text text-anchor="middle" fill="#333" x="120" y="483">13-01</text><g transform="translate(85,503)"><g><a target="_top" xlink:href="mob-slice0-step17936641-ofs0-col1-cat4.html"><rect style="display:none" class="hcell-act-col1-cat4" fill="#337AB7" stroke="#000" stroke-width="5" width="70" height="20" x="0" y="5" rx="8" ry="8"/><rect class="hcell-col1-cat4" fill="#337AB7" stroke="#DDD" width="70" height="30" x="0" y="0" rx="8" ry="8"/><text text-anchor="middle" fill="#FFF" x="35" y="20">-59</text></a><g transform="translate(0,30)"><g><a target="_top" xlink:href="mob-slice0-step17936641-ofs0-col1-cat5.html"><rect style="display:none" class="hcell-act-col1-cat5" fill="#777" stroke="#000" stroke-width="5" width="70" height="20" x="0" y="5" rx="8" ry="8"/><rect class="hcell-col1-cat5" fill="#777" stroke="#DDD" width="70" height="30" x="0" y="0" rx="8" ry="8"/><text text-anchor="middle" fill="#FFF" x="35" y="20">-173</text></a></g></g></g></g></g><g><g transform="translate(165,453)"><g><a target="_top" xlink:href="mob-slice0-step17936641-ofs0-col2-cat5.html"><rect style="display:none" class="hcell-act-col2-cat5" fill="#777" stroke="#000" stroke-width="5" width="70" height="20" x="0" y="-25" rx="8" ry="8"/><rect class="hcell-col2-cat5" fill="#777" stroke="#DDD" width="70" height="30" x="0" y="-30" rx="8" ry="8"/><text text-anchor="middle" fill="#FFF" x="35" y="-10">131</text></a><g transform="translate(0,-30)"><g><a target="_top" xlink:href="mob-slice0-step17936641-ofs0-col2-cat3.html"><rect style="display:none" class="hcell-act-col2-cat3" fill="#5BC0DE" stroke="#000" stroke-width="5" width="70" height="20" x="0" y="-25" rx="8" ry="8"/><rect class="hcell-col2-cat3" fill="#5BC0DE" stroke="#DDD" width="70" height="30" x="0" y="-30" rx="8" ry="8"/><text text-anchor="middle" fill="#FFF" x="35" y="-10">517</text></a><g transform="translate(0,-30)"><g><a target="_top" xlink:href="mob-slice0-step17936641-ofs0-col2-cat2.html"><rect style="display:none" class="hcell-act-col2-cat2" fill="#5CB85C" stroke="#000" stroke-width="5" width="70" height="20" x="0" y="-25" rx="8" ry="8"/><rect class="hcell-col2-cat2" fill="#5CB85C" stroke="#DDD" width="70" height="30" x="0" y="-30" rx="8" ry="8"/><text text-anchor="middle" fill="#FFF" x="35" y="-10">1180</text></a><g transform="translate(0,-30)"><g><a target="_top" xlink:href="mob-slice0-step17936641-ofs0-col2-cat4.html"><rect style="display:none" class="hcell-act-col2-cat4" fill="#337AB7" stroke="#000" stroke-width="5" width="70" height="22" x="0" y="-27" rx="8" ry="8"/><rect class="hcell-col2-cat4" fill="#337AB7" stroke="#DDD" width="70" height="32" x="0" y="-32" rx="8" ry="8"/><text text-anchor="middle" fill="#FFF" x="35" y="-12">2085</text></a><g transform="translate(0,-32)"><g><a target="_top" xlink:href="mob-slice0-step17936641-ofs0-col2-cat1.html"><rect style="display:none" class="hcell-act-col2-cat1" fill="#F0AD4E" stroke="#000" stroke-width="5" width="70" height="39" x="0" y="-44" rx="8" ry="8"/><rect class="hcell-col2-cat1" fill="#F0AD4E" stroke="#DDD" width="70" height="49" x="0" y="-49" rx="8" ry="8"/><text text-anchor="middle" fill="#FFF" x="35" y="-29">3201</text></a><g transform="translate(0,-49)"><g><a target="_top" xlink:href="mob-slice0-step17936641-ofs0-col2-cat0.html"><rect style="display:none" class="hcell-act-col2-cat0" fill="#D9534F" stroke="#000" stroke-width="5" width="70" height="124" x="0" y="-129" rx="8" ry="8"/><rect class="hcell-col2-cat0" fill="#D9534F" stroke="#DDD" width="70" height="134" x="0" y="-134" rx="8" ry="8"/><text text-anchor="middle" fill="#FFF" x="35" y="-114">8734</text></a></g></g></g></g></g></g></g></g></g></g></g></g><rect fill="none" stroke="#DDD" width="70" height="30" rx="8" ry="8" x="165" y="463"/><text text-anchor="middle" fill="#333" x="200" y="483">13-08</text><g transform="translate(165,503)"><g><a target="_top" xlink:href="mob-slice0-step17936641-ofs0-col2-cat4.html"><rect style="display:none" class="hcell-act-col2-cat4" fill="#337AB7" stroke="#000" stroke-width="5" width="70" height="20" x="0" y="5" rx="8" ry="8"/><rect class="hcell-col2-cat4" fill="#337AB7" stroke="#DDD" width="70" height="30" x="0" y="0" rx="8" ry="8"/><text text-anchor="middle" fill="#FFF" x="35" y="20">-34</text></a><g transform="translate(0,30)"><g><a target="_top" xlink:href="mob-slice0-step17936641-ofs0-col2-cat5.html"><rect style="display:none" class="hcell-act-col2-cat5" fill="#777" stroke="#000" stroke-width="5" width="70" height="20" x="0" y="5" rx="8" ry="8"/><rect class="hcell-col2-cat5" fill="#777" stroke="#DDD" width="70" height="30" x="0" y="0" rx="8" ry="8"/><text text-anchor="middle" fill="#FFF" x="35" y="20">-98</text></a></g></g></g></g></g><g><g transform="translate(245,453)"><g><a target="_top" xlink:href="mob-slice0-step17936641-ofs0-col3-cat5.html"><rect style="display:none" class="hcell-act-col3-cat5" fill="#777" stroke="#000" stroke-width="5" width="70" height="20" x="0" y="-25" rx="8" ry="8"/><rect class="hcell-col3-cat5" fill="#777" stroke="#DDD" width="70" height="30" x="0" y="-30" rx="8" ry="8"/><text text-anchor="middle" fill="#FFF" x="35" y="-10">112</text></a><g transform="translate(0,-30)"><g><a target="_top" xlink:href="mob-slice0-step17936641-ofs0-col3-cat3.html"><rect style="display:none" class="hcell-act-col3-cat3" fill="#5BC0DE" stroke="#000" stroke-width="5" width="70" height="20" x="0" y="-25" rx="8" ry="8"/><rect class="hcell-col3-cat3" fill="#5BC0DE" stroke="#DDD" width="70" height="30" x="0" y="-30" rx="8" ry="8"/><text text-anchor="middle" fill="#FFF" x="35" y="-10">629</text></a><g transform="translate(0,-30)"><g><a target="_top" xlink:href="mob-slice0-step17936641-ofs0-col3-cat2.html"><rect style="display:none" class="hcell-act-col3-cat2" fill="#5CB85C" stroke="#000" stroke-width="5" width="70" height="20" x="0" y="-25" rx="8" ry="8"/><rect class="hcell-col3-cat2" fill="#5CB85C" stroke="#DDD" width="70" height="30" x="0" y="-30" rx="8" ry="8"/><text text-anchor="middle" fill="#FFF" x="35" y="-10">1589</text></a><g transform="translate(0,-30)"><g><a target="_top" xlink:href="mob-slice0-step17936641-ofs0-col3-cat4.html"><rect style="display:none" class="hcell-act-col3-cat4" fill="#337AB7" stroke="#000" stroke-width="5" width="70" height="65" x="0" y="-70" rx="8" ry="8"/><rect class="hcell-col3-cat4" fill="#337AB7" stroke="#DDD" width="70" height="75" x="0" y="-75" rx="8" ry="8"/><text text-anchor="middle" fill="#FFF" x="35" y="-55">4888</text></a><g transform="translate(0,-75)"><g><a target="_top" xlink:href="mob-slice0-step17936641-ofs0-col3-cat1.html"><rect style="display:none" class="hcell-act-col3-cat1" fill="#F0AD4E" stroke="#000" stroke-width="5" width="70" height="65" x="0" y="-70" rx="8" ry="8"/><rect class="hcell-col3-cat1" fill="#F0AD4E" stroke="#DDD" width="70" height="75" x="0" y="-75" rx="8" ry="8"/><text text-anchor="middle" fill="#FFF" x="35" y="-55">4928</text></a><g transform="translate(0,-75)"><g><a target="_top" xlink:href="mob-slice0-step17936641-ofs0-col3-cat0.html"><rect style="display:none" class="hcell-act-col3-cat0" fill="#D9534F" stroke="#000" stroke-width="5" width="70" height="198" x="0" y="-203" rx="8" ry="8"/><rect class="hcell-col3-cat0" fill="#D9534F" stroke="#DDD" width="70" height="208" x="0" y="-208" rx="8" ry="8"/><text text-anchor="middle" fill="#FFF" x="35" y="-188">13598</text></a></g></g></g></g></g></g></g></g></g></g></g></g><rect fill="none" stroke="#DDD" width="70" height="30" rx="8" ry="8" x="245" y="463"/><text text-anchor="middle" fill="#333" x="280" y="483">14-03</text><g transform="translate(245,503)"><g><a target="_top" xlink:href="mob-slice0-step17936641-ofs0-col3-cat5.html"><rect style="display:none" class="hcell-act-col3-cat5" fill="#777" stroke="#000" stroke-width="5" width="70" height="20" x="0" y="5" rx="8" ry="8"/><rect class="hcell-col3-cat5" fill="#777" stroke="#DDD" width="70" height="30" x="0" y="0" rx="8" ry="8"/><text text-anchor="middle" fill="#FFF" x="35" y="20">-34</text></a><g transform="translate(0,30)"><g><a target="_top" xlink:href="mob-slice0-step17936641-ofs0-col3-cat4.html"><rect style="display:none" class="hcell-act-col3-cat4" fill="#337AB7" stroke="#000" stroke-width="5" width="70" height="20" x="0" y="5" rx="8" ry="8"/><rect class="hcell-col3-cat4" fill="#337AB7" stroke="#DDD" width="70" height="30" x="0" y="0" rx="8" ry="8"/><text text-anchor="middle" fill="#FFF" x="35" y="20">-120</text></a></g></g></g></g></g><g><g transform="translate(325,453)"><g><a target="_top" xlink:href="mob-slice0-step17936641-ofs0-col4-cat5.html"><rect style="display:none" class="hcell-act-col4-cat5" fill="#777" stroke="#000" stroke-width="5" width="70" height="20" x="0" y="-25" rx="8" ry="8"/><rect class="hcell-col4-cat5" fill="#777" stroke="#DDD" width="70" height="30" x="0" y="-30" rx="8" ry="8"/><text text-anchor="middle" fill="#FFF" x="35" y="-10">147</text></a><g transform="translate(0,-30)"><g><a target="_top" xlink:href="mob-slice0-step17936641-ofs0-col4-cat3.html"><rect style="display:none" class="hcell-act-col4-cat3" fill="#5BC0DE" stroke="#000" stroke-width="5" width="70" height="20" x="0" y="-25" rx="8" ry="8"/><rect class="hcell-col4-cat3" fill="#5BC0DE" stroke="#DDD" width="70" height="30" x="0" y="-30" rx="8" ry="8"/><text text-anchor="middle" fill="#FFF" x="35" y="-10">612</text></a><g transform="translate(0,-30)"><g><a target="_top" xlink:href="mob-slice0-step17936641-ofs0-col4-cat2.html"><rect style="display:none" class="hcell-act-col4-cat2" fill="#5CB85C" stroke="#000" stroke-width="5" width="70" height="20" x="0" y="-25" rx="8" ry="8"/><rect class="hcell-col4-cat2" fill="#5CB85C" stroke="#DDD" width="70" height="30" x="0" y="-30" rx="8" ry="8"/><text text-anchor="middle" fill="#FFF" x="35" y="-10">1947</text></a><g transform="translate(0,-30)"><g><a target="_top" xlink:href="mob-slice0-step17936641-ofs0-col4-cat4.html"><rect style="display:none" class="hcell-act-col4-cat4" fill="#337AB7" stroke="#000" stroke-width="5" width="70" height="27" x="0" y="-32" rx="8" ry="8"/><rect class="hcell-col4-cat4" fill="#337AB7" stroke="#DDD" width="70" height="37" x="0" y="-37" rx="8" ry="8"/><text text-anchor="middle" fill="#FFF" x="35" y="-17">2452</text></a><g transform="translate(0,-37)"><g><a target="_top" xlink:href="mob-slice0-step17936641-ofs0-col4-cat1.html"><rect style="display:none" class="hcell-act-col4-cat1" fill="#F0AD4E" stroke="#000" stroke-width="5" width="70" height="57" x="0" y="-62" rx="8" ry="8"/><rect class="hcell-col4-cat1" fill="#F0AD4E" stroke="#DDD" width="70" height="67" x="0" y="-67" rx="8" ry="8"/><text text-anchor="middle" fill="#FFF" x="35" y="-47">4398</text></a><g transform="translate(0,-67)"><g><a target="_top" xlink:href="mob-slice0-step17936641-ofs0-col4-cat0.html"><rect style="display:none" class="hcell-act-col4-cat0" fill="#D9534F" stroke="#000" stroke-width="5" width="70" height="150" x="0" y="-155" rx="8" ry="8"/><rect class="hcell-col4-cat0" fill="#D9534F" stroke="#DDD" width="70" height="160" x="0" y="-160" rx="8" ry="8"/><text text-anchor="middle" fill="#FFF" x="35" y="-140">10464</text></a></g></g></g></g></g></g></g></g></g></g></g></g><rect fill="none" stroke="#DDD" width="70" height="30" rx="8" ry="8" x="325" y="463"/><text text-anchor="middle" fill="#333" x="360" y="483">14-10</text><g transform="translate(325,503)"><g><a target="_top" xlink:href="mob-slice0-step17936641-ofs0-col4-cat5.html"><rect style="display:none" class="hcell-act-col4-cat5" fill="#777" stroke="#000" stroke-width="5" width="70" height="20" x="0" y="5" rx="8" ry="8"/><rect class="hcell-col4-cat5" fill="#777" stroke="#DDD" width="70" height="30" x="0" y="0" rx="8" ry="8"/><text text-anchor="middle" fill="#FFF" x="35" y="20">-26</text></a><g transform="translate(0,30)"><g><a target="_top" xlink:href="mob-slice0-step17936641-ofs0-col4-cat4.html"><rect style="display:none" class="hcell-act-col4-cat4" fill="#337AB7" stroke="#000" stroke-width="5" width="70" height="20" x="0" y="5" rx="8" ry="8"/><rect class="hcell-col4-cat4" fill="#337AB7" stroke="#DDD" width="70" height="30" x="0" y="0" rx="8" ry="8"/><text text-anchor="middle" fill="#FFF" x="35" y="20">-141</text></a></g></g></g></g></g></svg>