<svg xmlns="http://www.w3.org/2000/svg" xmlns:xlink="http://www.w3.org/1999/xlink" width="100%" height="100%" viewBox="0 0 400 459"><g><g transform="translate(5,145)"></g><rect fill="none" stroke="#DDD" width="70" height="30" rx="8" ry="8" x="5" y="155"/><text text-anchor="middle" fill="#333" x="40" y="175">12-07</text><g transform="translate(5,195)"></g></g><g><g transform="translate(85,145)"></g><rect fill="none" stroke="#DDD" width="70" height="30" rx="8" ry="8" x="85" y="155"/><text text-anchor="middle" fill="#333" x="120" y="175">13-01</text><g transform="translate(85,195)"></g></g><g><g transform="translate(165,145)"></g><rect fill="none" stroke="#DDD" width="70" height="30" rx="8" ry="8" x="165" y="155"/><text text-anchor="middle" fill="#333" x="200" y="175">13-08</text><g transform="translate(165,195)"></g></g><g><g transform="translate(245,145)"><g><a target="_top" xlink:href="mob-sliceTagAwesomeCard-step17936641-ofs0-col3-cat0.html"><rect style="display:none" class="hcell-act-col3-cat0" fill="#777" stroke="#000" stroke-width="5" width="70" height="101" x="0" y="-106" rx="8" ry="8"/><rect class="hcell-col3-cat0" fill="#777" stroke="#DDD" width="70" height="111" x="0" y="-111" rx="8" ry="8"/><text text-anchor="middle" fill="#FFF" x="35" y="-91">253</text></a></g></g><rect fill="none" stroke="#DDD" width="70" height="30" rx="8" ry="8" x="245" y="155"/><text text-anchor="middle" fill="#333" x="280" y="175">14-03</text><g transform="translate(245,195)"><g><a target="_top" xlink:href="mob-sliceTagAwesomeCard-step17936641-ofs0-col3-cat0.html"><rect style="display:none" class="hcell-act-col3-cat0" fill="#777" stroke="#000" stroke-width="5" width="70" height="249" x="0" y="5" rx="8" ry="8"/><rect class="hcell-col3-cat0" fill="#777" stroke="#DDD" width="70" height="259" x="0" y="0" rx="8" ry="8"/><text text-anchor="middle" fill="#FFF" x="35" y="20">-590</text></a></g></g></g><g><g transform="translate(325,145)"><g><a target="_top" xlink:href="mob-sliceTagAwesomeCard-step17936641-ofs0-col4-cat0.html"><rect style="display:none" class="hcell-act-col4-cat0" fill="#777" stroke="#000" stroke-width="5" width="70" height="130" x="0" y="-135" rx="8" ry="8"/><rect class="hcell-col4-cat0" fill="#777" stroke="#DDD" width="70" height="140" x="0" y="-140" rx="8" ry="8"/><text text-anchor="middle" fill="#FFF" x="35" y="-120">318</text></a></g></g><rect fill="none" stroke="#DDD" width="70" height="30" rx="8" ry="8" x="325" y="155"/><text text-anchor="middle" fill="#333" x="360" y="175">14-10</text><g transform="translate(325,195)"><g><a target="_top" xlink:href="mob-sliceTagAwesomeCard-step17936641-ofs0-col4-cat0.html"><rect style="display:none" class="hcell-act-col4-cat0" fill="#777" stroke="#000" stroke-width="5" width="70" height="212" x="0" y="5" rx="8" ry="8"/><rect class="hcell-col4-cat0" fill="#777" stroke="#DDD" width="70" height="222" x="0" y="0" rx="8" ry="8"/><text text-anchor="middle" fill="#FFF" x="35" y="20">-506</text></a></g></g></g></svg>