<svg xmlns="http://www.w3.org/2000/svg" xmlns:xlink="http://www.w3.org/1999/xlink" width="100%" height="100%" viewBox="0 0 400 459"><g><g transform="translate(5,404)"><g><a target="_top" xlink:href="mob-slice1-step17936641-ofs5-col5-cat2.html"><rect style="display:none" class="hcell-act-col5-cat2" fill="#337AB7" stroke="#000" stroke-width="5" width="70" height="43" x="0" y="-48" rx="8" ry="8"/><rect class="hcell-col5-cat2" fill="#337AB7" stroke="#DDD" width="70" height="53" x="0" y="-53" rx="8" ry="8"/><text text-anchor="middle" fill="#FFF" x="35" y="-33">40</text></a><g transform="translate(0,-53)"><g><a target="_top" xlink:href="mob-slice1-step17936641-ofs5-col5-cat3.html"><rect style="display:none" class="hcell-act-col5-cat3" fill="#F0AD4E" stroke="#000" stroke-width="5" width="70" height="70" x="0" y="-75" rx="8" ry="8"/><rect class="hcell-col5-cat3" fill="#F0AD4E" stroke="#DDD" width="70" height="80" x="0" y="-80" rx="8" ry="8"/><text text-anchor="middle" fill="#FFF" x="35" y="-60">60</text></a><g transform="translate(0,-80)"><g><a target="_top" xlink:href="mob-slice1-step17936641-ofs5-col5-cat0.html"><rect style="display:none" class="hcell-act-col5-cat0" fill="#5CB85C" stroke="#000" stroke-width="5" width="70" height="123" x="0" y="-128" rx="8" ry="8"/><rect class="hcell-col5-cat0" fill="#5CB85C" stroke="#DDD" width="70" height="133" x="0" y="-133" rx="8" ry="8"/><text text-anchor="middle" fill="#FFF" x="35" y="-113">100</text></a><g transform="translate(0,-133)"><g><a target="_top" xlink:href="mob-slice1-step17936641-ofs5-col5-cat1.html"><rect style="display:none" class="hcell-act-col5-cat1" fill="#5BC0DE" stroke="#000" stroke-width="5" width="70" height="123" x="0" y="-128" rx="8" ry="8"/><rect class="hcell-col5-cat1" fill="#5BC0DE" stroke="#DDD" width="70" height="133" x="0" y="-133" rx="8" ry="8"/><text text-anchor="middle" fill="#FFF" x="35" y="-113">100</text></a></g></g></g></g></g></g></g></g><rect fill="none" stroke="#DDD" width="70" height="30" rx="8" ry="8" x="5" y="414"/><text text-anchor="middle" fill="#333" x="40" y="434">15-05</text><g transform="translate(5,454)"></g></g><g><g transform="translate(85,404)"></g><rect fill="none" stroke="#DDD" width="70" height="30" rx="8" ry="8" x="85" y="414"/><text text-anchor="middle" fill="#333" x="120" y="434">15-11</text><g transform="translate(85,454)"></g></g><g><g transform="translate(165,404)"></g><rect fill="none" stroke="#DDD" width="70" height="30" rx="8" ry="8" x="165" y="414"/><text text-anchor="middle" fill="#333" x="200" y="434">16-06</text><g transform="translate(165,454)"></g></g><g><g transform="translate(245,404)"></g><rect fill="none" stroke="#DDD" width="70" height="30" rx="8" ry="8" x="245" y="414"/><text text-anchor="middle" fill="#333" x="280" y="434">17-01</text><g transform="translate(245,454)"></g></g><g><g transform="translate(325,404)"></g><rect fill="none" stroke="#DDD" width="70" height="30" rx="8" ry="8" x="325" y="414"/><text text-anchor="middle" fill="#333" x="360" y="434">17-08</text><g transform="translate(325,454)"></g></g></svg>