<svg xmlns="http://www.w3.org/2000/svg" xmlns:xlink="http://www.w3.org/1999/xlink" width="100%" height="100%" viewBox="0 0 400 526"><g><g transform="translate(5,224)"><g><a target="_top" xlink:href="mob-slice5-step2628000-ofs30-col30-cat1.html"><rect style="display:none" class="hcell-act-col30-cat1" fill="#F0AD4E" stroke="#000" stroke-width="5" width="70" height="20" x="0" y="-25" rx="8" ry="8"/><rect class="hcell-col30-cat1" fill="#F0AD4E" stroke="#DDD" width="70" height="30" x="0" y="-30" rx="8" ry="8"/><text text-anchor="middle" fill="#FFF" x="35" y="-10">166</text></a><g transform="translate(0,-30)"><g><a target="_top" xlink:href="mob-slice5-step2628000-ofs30-col30-cat4.html"><rect style="display:none" class="hcell-act-col30-cat4" fill="#337AB7" stroke="#000" stroke-width="5" width="70" height="20" x="0" y="-25" rx="8" ry="8"/><rect class="hcell-col30-cat4" fill="#337AB7" stroke="#DDD" width="70" height="30" x="0" y="-30" rx="8" ry="8"/><text text-anchor="middle" fill="#FFF" x="35" y="-10">611</text></a><g transform="translate(0,-30)"><g><a target="_top" xlink:href="mob-slice5-step2628000-ofs30-col30-cat0.html"><rect style="display:none" class="hcell-act-col30-cat0" fill="#D9534F" stroke="#000" stroke-width="5" width="70" height="20" x="0" y="-25" rx="8" ry="8"/><rect class="hcell-col30-cat0" fill="#D9534F" stroke="#DDD" width="70" height="30" x="0" y="-30" rx="8" ry="8"/><text text-anchor="middle" fill="#FFF" x="35" y="-10">1000</text></a><g transform="translate(0,-30)"><g><a target="_top" xlink:href="mob-slice5-step2628000-ofs30-col30-cat2.html"><rect style="display:none" class="hcell-act-col30-cat2" fill="#5CB85C" stroke="#000" stroke-width="5" width="70" height="71" x="0" y="-76" rx="8" ry="8"/><rect class="hcell-col30-cat2" fill="#5CB85C" stroke="#DDD" width="70" height="81" x="0" y="-81" rx="8" ry="8"/><text text-anchor="middle" fill="#FFF" x="35" y="-61">2677</text></a></g></g></g></g></g></g></g></g><rect fill="none" stroke="#DDD" width="70" height="30" rx="8" ry="8" x="5" y="234"/><text text-anchor="middle" fill="#333" x="40" y="254">14-12</text><g transform="translate(5,274)"><g><a target="_top" xlink:href="mob-slice5-step2628000-ofs30-col30-cat1.html"><rect style="display:none" class="hcell-act-col30-cat1" fill="#F0AD4E" stroke="#000" stroke-width="5" width="70" height="20" x="0" y="5" rx="8" ry="8"/><rect class="hcell-col30-cat1" fill="#F0AD4E" stroke="#DDD" width="70" height="30" x="0" y="0" rx="8" ry="8"/><text text-anchor="middle" fill="#FFF" x="35" y="20">-33</text></a><g transform="translate(0,30)"><g><a target="_top" xlink:href="mob-slice5-step2628000-ofs30-col30-cat4.html"><rect style="display:none" class="hcell-act-col30-cat4" fill="#337AB7" stroke="#000" stroke-width="5" width="70" height="24" x="0" y="5" rx="8" ry="8"/><rect class="hcell-col30-cat4" fill="#337AB7" stroke="#DDD" width="70" height="34" x="0" y="0" rx="8" ry="8"/><text text-anchor="middle" fill="#FFF" x="35" y="20">-1121</text></a><g transform="translate(0,34)"><g><a target="_top" xlink:href="mob-slice5-step2628000-ofs30-col30-cat2.html"><rect style="display:none" class="hcell-act-col30-cat2" fill="#5CB85C" stroke="#000" stroke-width="5" width="70" height="100" x="0" y="5" rx="8" ry="8"/><rect class="hcell-col30-cat2" fill="#5CB85C" stroke="#DDD" width="70" height="110" x="0" y="0" rx="8" ry="8"/><text text-anchor="middle" fill="#FFF" x="35" y="20">-3646</text></a></g></g></g></g></g></g></g><g><g transform="translate(85,224)"><g><a target="_top" xlink:href="mob-slice5-step2628000-ofs30-col31-cat1.html"><rect style="display:none" class="hcell-act-col31-cat1" fill="#F0AD4E" stroke="#000" stroke-width="5" width="70" height="20" x="0" y="-25" rx="8" ry="8"/><rect class="hcell-col31-cat1" fill="#F0AD4E" stroke="#DDD" width="70" height="30" x="0" y="-30" rx="8" ry="8"/><text text-anchor="middle" fill="#FFF" x="35" y="-10">10</text></a><g transform="translate(0,-30)"><g><a target="_top" xlink:href="mob-slice5-step2628000-ofs30-col31-cat3.html"><rect style="display:none" class="hcell-act-col31-cat3" fill="#5BC0DE" stroke="#000" stroke-width="5" width="70" height="20" x="0" y="-25" rx="8" ry="8"/><rect class="hcell-col31-cat3" fill="#5BC0DE" stroke="#DDD" width="70" height="30" x="0" y="-30" rx="8" ry="8"/><text text-anchor="middle" fill="#FFF" x="35" y="-10">600</text></a><g transform="translate(0,-30)"><g><a target="_top" xlink:href="mob-slice5-step2628000-ofs30-col31-cat0.html"><rect style="display:none" class="hcell-act-col31-cat0" fill="#D9534F" stroke="#000" stroke-width="5" width="70" height="24" x="0" y="-29" rx="8" ry="8"/><rect class="hcell-col31-cat0" fill="#D9534F" stroke="#DDD" width="70" height="34" x="0" y="-34" rx="8" ry="8"/><text text-anchor="middle" fill="#FFF" x="35" y="-14">1120</text></a><g transform="translate(0,-34)"><g><a target="_top" xlink:href="mob-slice5-step2628000-ofs30-col31-cat4.html"><rect style="display:none" class="hcell-act-col31-cat4" fill="#337AB7" stroke="#000" stroke-width="5" width="70" height="37" x="0" y="-42" rx="8" ry="8"/><rect class="hcell-col31-cat4" fill="#337AB7" stroke="#DDD" width="70" height="47" x="0" y="-47" rx="8" ry="8"/><text text-anchor="middle" fill="#FFF" x="35" y="-27">1568</text></a><g transform="translate(0,-47)"><g><a target="_top" xlink:href="mob-slice5-step2628000-ofs30-col31-cat2.html"><rect style="display:none" class="hcell-act-col31-cat2" fill="#5CB85C" stroke="#000" stroke-width="5" width="70" height="68" x="0" y="-73" rx="8" ry="8"/><rect class="hcell-col31-cat2" fill="#5CB85C" stroke="#DDD" width="70" height="78" x="0" y="-78" rx="8" ry="8"/><text text-anchor="middle" fill="#FFF" x="35" y="-58">2600</text></a></g></g></g></g></g></g></g></g></g></g><rect fill="none" stroke="#DDD" width="70" height="30" rx="8" ry="8" x="85" y="234"/><text text-anchor="middle" fill="#333" x="120" y="254">15-01</text><g transform="translate(85,274)"><g><a target="_top" xlink:href="mob-slice5-step2628000-ofs30-col31-cat1.html"><rect style="display:none" class="hcell-act-col31-cat1" fill="#F0AD4E" stroke="#000" stroke-width="5" width="70" height="20" x="0" y="5" rx="8" ry="8"/><rect class="hcell-col31-cat1" fill="#F0AD4E" stroke="#DDD" width="70" height="30" x="0" y="0" rx="8" ry="8"/><text text-anchor="middle" fill="#FFF" x="35" y="20">-89</text></a><g transform="translate(0,30)"><g><a target="_top" xlink:href="mob-slice5-step2628000-ofs30-col31-cat3.html"><rect style="display:none" class="hcell-act-col31-cat3" fill="#5BC0DE" stroke="#000" stroke-width="5" width="70" height="24" x="0" y="5" rx="8" ry="8"/><rect class="hcell-col31-cat3" fill="#5BC0DE" stroke="#DDD" width="70" height="34" x="0" y="0" rx="8" ry="8"/><text text-anchor="middle" fill="#FFF" x="35" y="20">-1120</text></a><g transform="translate(0,34)"><g><a target="_top" xlink:href="mob-slice5-step2628000-ofs30-col31-cat4.html"><rect style="display:none" class="hcell-act-col31-cat4" fill="#337AB7" stroke="#000" stroke-width="5" width="70" height="28" x="0" y="5" rx="8" ry="8"/><rect class="hcell-col31-cat4" fill="#337AB7" stroke="#DDD" width="70" height="38" x="0" y="0" rx="8" ry="8"/><text text-anchor="middle" fill="#FFF" x="35" y="20">-1272</text></a><g transform="translate(0,38)"><g><a target="_top" xlink:href="mob-slice5-step2628000-ofs30-col31-cat2.html"><rect style="display:none" class="hcell-act-col31-cat2" fill="#5CB85C" stroke="#000" stroke-width="5" width="70" height="135" x="0" y="5" rx="8" ry="8"/><rect class="hcell-col31-cat2" fill="#5CB85C" stroke="#DDD" width="70" height="145" x="0" y="0" rx="8" ry="8"/><text text-anchor="middle" fill="#FFF" x="35" y="20">-4796</text></a></g></g></g></g></g></g></g></g></g><g><g transform="translate(165,224)"><g><a target="_top" xlink:href="mob-slice5-step2628000-ofs30-col32-cat0.html"><rect style="display:none" class="hcell-act-col32-cat0" fill="#D9534F" stroke="#000" stroke-width="5" width="70" height="20" x="0" y="-25" rx="8" ry="8"/><rect class="hcell-col32-cat0" fill="#D9534F" stroke="#DDD" width="70" height="30" x="0" y="-30" rx="8" ry="8"/><text text-anchor="middle" fill="#FFF" x="35" y="-10">880</text></a><g transform="translate(0,-30)"><g><a target="_top" xlink:href="mob-slice5-step2628000-ofs30-col32-cat4.html"><rect style="display:none" class="hcell-act-col32-cat4" fill="#337AB7" stroke="#000" stroke-width="5" width="70" height="37" x="0" y="-42" rx="8" ry="8"/><rect class="hcell-col32-cat4" fill="#337AB7" stroke="#DDD" width="70" height="47" x="0" y="-47" rx="8" ry="8"/><text text-anchor="middle" fill="#FFF" x="35" y="-27">1565</text></a><g transform="translate(0,-47)"><g><a target="_top" xlink:href="mob-slice5-step2628000-ofs30-col32-cat2.html"><rect style="display:none" class="hcell-act-col32-cat2" fill="#5CB85C" stroke="#000" stroke-width="5" width="70" height="92" x="0" y="-97" rx="8" ry="8"/><rect class="hcell-col32-cat2" fill="#5CB85C" stroke="#DDD" width="70" height="102" x="0" y="-102" rx="8" ry="8"/><text text-anchor="middle" fill="#FFF" x="35" y="-82">3375</text></a></g></g></g></g></g></g><rect fill="none" stroke="#DDD" width="70" height="30" rx="8" ry="8" x="165" y="234"/><text text-anchor="middle" fill="#333" x="200" y="254">15-03</text><g transform="translate(165,274)"><g><a target="_top" xlink:href="mob-slice5-step2628000-ofs30-col32-cat1.html"><rect style="display:none" class="hcell-act-col32-cat1" fill="#F0AD4E" stroke="#000" stroke-width="5" width="70" height="20" x="0" y="5" rx="8" ry="8"/><rect class="hcell-col32-cat1" fill="#F0AD4E" stroke="#DDD" width="70" height="30" x="0" y="0" rx="8" ry="8"/><text text-anchor="middle" fill="#FFF" x="35" y="20">-28</text></a><g transform="translate(0,30)"><g><a target="_top" xlink:href="mob-slice5-step2628000-ofs30-col32-cat3.html"><rect style="display:none" class="hcell-act-col32-cat3" fill="#5BC0DE" stroke="#000" stroke-width="5" width="70" height="20" x="0" y="5" rx="8" ry="8"/><rect class="hcell-col32-cat3" fill="#5BC0DE" stroke="#DDD" width="70" height="30" x="0" y="0" rx="8" ry="8"/><text text-anchor="middle" fill="#FFF" x="35" y="20">-55</text></a><g transform="translate(0,30)"><g><a target="_top" xlink:href="mob-slice5-step2628000-ofs30-col32-cat4.html"><rect style="display:none" class="hcell-act-col32-cat4" fill="#337AB7" stroke="#000" stroke-width="5" width="70" height="20" x="0" y="5" rx="8" ry="8"/><rect class="hcell-col32-cat4" fill="#337AB7" stroke="#DDD" width="70" height="30" x="0" y="0" rx="8" ry="8"/><text text-anchor="middle" fill="#FFF" x="35" y="20">-558</text></a><g transform="translate(0,30)"><g><a target="_top" xlink:href="mob-slice5-step2628000-ofs30-col32-cat0.html"><rect style="display:none" class="hcell-act-col32-cat0" fill="#D9534F" stroke="#000" stroke-width="5" width="70" height="20" x="0" y="5" rx="8" ry="8"/><rect class="hcell-col32-cat0" fill="#D9534F" stroke="#DDD" width="70" height="30" x="0" y="0" rx="8" ry="8"/><text text-anchor="middle" fill="#FFF" x="35" y="20">-720</text></a><g transform="translate(0,30)"><g><a target="_top" xlink:href="mob-slice5-step2628000-ofs30-col32-cat2.html"><rect style="display:none" class="hcell-act-col32-cat2" fill="#5CB85C" stroke="#000" stroke-width="5" width="70" height="108" x="0" y="5" rx="8" ry="8"/><rect class="hcell-col32-cat2" fill="#5CB85C" stroke="#DDD" width="70" height="118" x="0" y="0" rx="8" ry="8"/><text text-anchor="middle" fill="#FFF" x="35" y="20">-3897</text></a></g></g></g></g></g></g></g></g></g></g></g><g><g transform="translate(245,224)"><g><a target="_top" xlink:href="mob-slice5-step2628000-ofs30-col33-cat1.html"><rect style="display:none" class="hcell-act-col33-cat1" fill="#F0AD4E" stroke="#000" stroke-width="5" width="70" height="20" x="0" y="-25" rx="8" ry="8"/><rect class="hcell-col33-cat1" fill="#F0AD4E" stroke="#DDD" width="70" height="30" x="0" y="-30" rx="8" ry="8"/><text text-anchor="middle" fill="#FFF" x="35" y="-10">79</text></a><g transform="translate(0,-30)"><g><a target="_top" xlink:href="mob-slice5-step2628000-ofs30-col33-cat0.html"><rect style="display:none" class="hcell-act-col33-cat0" fill="#D9534F" stroke="#000" stroke-width="5" width="70" height="33" x="0" y="-38" rx="8" ry="8"/><rect class="hcell-col33-cat0" fill="#D9534F" stroke="#DDD" width="70" height="43" x="0" y="-43" rx="8" ry="8"/><text text-anchor="middle" fill="#FFF" x="35" y="-23">1420</text></a><g transform="translate(0,-43)"><g><a target="_top" xlink:href="mob-slice5-step2628000-ofs30-col33-cat4.html"><rect style="display:none" class="hcell-act-col33-cat4" fill="#337AB7" stroke="#000" stroke-width="5" width="70" height="41" x="0" y="-46" rx="8" ry="8"/><rect class="hcell-col33-cat4" fill="#337AB7" stroke="#DDD" width="70" height="51" x="0" y="-51" rx="8" ry="8"/><text text-anchor="middle" fill="#FFF" x="35" y="-31">1700</text></a><g transform="translate(0,-51)"><g><a target="_top" xlink:href="mob-slice5-step2628000-ofs30-col33-cat2.html"><rect style="display:none" class="hcell-act-col33-cat2" fill="#5CB85C" stroke="#000" stroke-width="5" width="70" height="69" x="0" y="-74" rx="8" ry="8"/><rect class="hcell-col33-cat2" fill="#5CB85C" stroke="#DDD" width="70" height="79" x="0" y="-79" rx="8" ry="8"/><text text-anchor="middle" fill="#FFF" x="35" y="-59">2632</text></a></g></g></g></g></g></g></g></g><rect fill="none" stroke="#DDD" width="70" height="30" rx="8" ry="8" x="245" y="234"/><text text-anchor="middle" fill="#333" x="280" y="254">15-04</text><g transform="translate(245,274)"><g><a target="_top" xlink:href="mob-slice5-step2628000-ofs30-col33-cat1.html"><rect style="display:none" class="hcell-act-col33-cat1" fill="#F0AD4E" stroke="#000" stroke-width="5" width="70" height="20" x="0" y="5" rx="8" ry="8"/><rect class="hcell-col33-cat1" fill="#F0AD4E" stroke="#DDD" width="70" height="30" x="0" y="0" rx="8" ry="8"/><text text-anchor="middle" fill="#FFF" x="35" y="20">-173</text></a><g transform="translate(0,30)"><g><a target="_top" xlink:href="mob-slice5-step2628000-ofs30-col33-cat4.html"><rect style="display:none" class="hcell-act-col33-cat4" fill="#337AB7" stroke="#000" stroke-width="5" width="70" height="20" x="0" y="5" rx="8" ry="8"/><rect class="hcell-col33-cat4" fill="#337AB7" stroke="#DDD" width="70" height="30" x="0" y="0" rx="8" ry="8"/><text text-anchor="middle" fill="#FFF" x="35" y="20">-977</text></a><g transform="translate(0,30)"><g><a target="_top" xlink:href="mob-slice5-step2628000-ofs30-col33-cat2.html"><rect style="display:none" class="hcell-act-col33-cat2" fill="#5CB85C" stroke="#000" stroke-width="5" width="70" height="140" x="0" y="5" rx="8" ry="8"/><rect class="hcell-col33-cat2" fill="#5CB85C" stroke="#DDD" width="70" height="150" x="0" y="0" rx="8" ry="8"/><text text-anchor="middle" fill="#FFF" x="35" y="20">-4963</text></a></g></g></g></g></g></g></g><g><g transform="translate(325,224)"><g><a target="_top" xlink:href="mob-slice5-step2628000-ofs30-col34-cat0.html"><rect style="display:none" class="hcell-act-col34-cat0" fill="#D9534F" stroke="#000" stroke-width="5" width="70" height="20" x="0" y="-25" rx="8" ry="8"/><rect class="hcell-col34-cat0" fill="#D9534F" stroke="#DDD" width="70" height="30" x="0" y="-30" rx="8" ry="8"/><text text-anchor="middle" fill="#FFF" x="35" y="-10">96</text></a></g></g><rect fill="none" stroke="#DDD" width="70" height="30" rx="8" ry="8" x="325" y="234"/><text text-anchor="middle" fill="#333" x="360" y="254">15-05</text><g transform="translate(325,274)"><g><a target="_top" xlink:href="mob-slice5-step2628000-ofs30-col34-cat0.html"><rect style="display:none" class="hcell-act-col34-cat0" fill="#D9534F" stroke="#000" stroke-width="5" width="70" height="20" x="0" y="5" rx="8" ry="8"/><rect class="hcell-col34-cat0" fill="#D9534F" stroke="#DDD" width="70" height="30" x="0" y="0" rx="8" ry="8"/><text text-anchor="middle" fill="#FFF" x="35" y="20">-96</text></a></g></g></g></svg>