<svg xmlns="http://www.w3.org/2000/svg" xmlns:xlink="http://www.w3.org/1999/xlink" width="100%" height="100%" viewBox="0 0 400 459"><g><g transform="translate(5,245)"><g><a target="_top" xlink:href="mob-sliceTagVioGor7260-step2628000-ofs25-col25-cat0.html"><rect style="display:none" class="hcell-act-col25-cat0" fill="#777" stroke="#000" stroke-width="5" width="70" height="67" x="0" y="-72" rx="8" ry="8"/><rect class="hcell-col25-cat0" fill="#777" stroke="#DDD" width="70" height="77" x="0" y="-77" rx="8" ry="8"/><text text-anchor="middle" fill="#FFF" x="35" y="-57">12</text></a></g></g><rect fill="none" stroke="#DDD" width="70" height="30" rx="8" ry="8" x="5" y="255"/><text text-anchor="middle" fill="#333" x="40" y="275">14-08</text><g transform="translate(5,295)"></g></g><g><g transform="translate(85,245)"></g><rect fill="none" stroke="#DDD" width="70" height="30" rx="8" ry="8" x="85" y="255"/><text text-anchor="middle" fill="#333" x="120" y="275">14-08</text><g transform="translate(85,295)"><g><a target="_top" xlink:href="mob-sliceTagVioGor7260-step2628000-ofs25-col26-cat0.html"><rect style="display:none" class="hcell-act-col26-cat0" fill="#777" stroke="#000" stroke-width="5" width="70" height="31" x="0" y="5" rx="8" ry="8"/><rect class="hcell-col26-cat0" fill="#777" stroke="#DDD" width="70" height="41" x="0" y="0" rx="8" ry="8"/><text text-anchor="middle" fill="#FFF" x="35" y="20">-7</text></a></g></g></g><g><g transform="translate(165,245)"><g><a target="_top" xlink:href="mob-sliceTagVioGor7260-step2628000-ofs25-col27-cat0.html"><rect style="display:none" class="hcell-act-col27-cat0" fill="#777" stroke="#000" stroke-width="5" width="70" height="74" x="0" y="-79" rx="8" ry="8"/><rect class="hcell-col27-cat0" fill="#777" stroke="#DDD" width="70" height="84" x="0" y="-84" rx="8" ry="8"/><text text-anchor="middle" fill="#FFF" x="35" y="-64">13</text></a></g></g><rect fill="none" stroke="#DDD" width="70" height="30" rx="8" ry="8" x="165" y="255"/><text text-anchor="middle" fill="#333" x="200" y="275">14-10</text><g transform="translate(165,295)"></g></g><g><g transform="translate(245,245)"><g><a target="_top" xlink:href="mob-sliceTagVioGor7260-step2628000-ofs25-col28-cat0.html"><rect style="display:none" class="hcell-act-col28-cat0" fill="#777" stroke="#000" stroke-width="5" width="70" height="230" x="0" y="-235" rx="8" ry="8"/><rect class="hcell-col28-cat0" fill="#777" stroke="#DDD" width="70" height="240" x="0" y="-240" rx="8" ry="8"/><text text-anchor="middle" fill="#FFF" x="35" y="-220">37</text></a></g></g><rect fill="none" stroke="#DDD" width="70" height="30" rx="8" ry="8" x="245" y="255"/><text text-anchor="middle" fill="#333" x="280" y="275">14-10</text><g transform="translate(245,295)"></g></g><g><g transform="translate(325,245)"></g><rect fill="none" stroke="#DDD" width="70" height="30" rx="8" ry="8" x="325" y="255"/><text text-anchor="middle" fill="#333" x="360" y="275">14-12</text><g transform="translate(325,295)"><g><a target="_top" xlink:href="mob-sliceTagVioGor7260-step2628000-ofs25-col29-cat0.html"><rect style="display:none" class="hcell-act-col29-cat0" fill="#777" stroke="#000" stroke-width="5" width="70" height="149" x="0" y="5" rx="8" ry="8"/><rect class="hcell-col29-cat0" fill="#777" stroke="#DDD" width="70" height="159" x="0" y="0" rx="8" ry="8"/><text text-anchor="middle" fill="#FFF" x="35" y="20">-25</text></a></g></g></g></svg>