<svg xmlns="http://www.w3.org/2000/svg" xmlns:xlink="http://www.w3.org/1999/xlink" width="100%" height="100%" viewBox="0 0 400 542"><g><g transform="translate(5,200)"><g><a target="_top" xlink:href="mob-slice5-step2628000-ofs25-col25-cat1.html"><rect style="display:none" class="hcell-act-col25-cat1" fill="#F0AD4E" stroke="#000" stroke-width="5" width="70" height="20" x="0" y="-25" rx="8" ry="8"/><rect class="hcell-col25-cat1" fill="#F0AD4E" stroke="#DDD" width="70" height="30" x="0" y="-30" rx="8" ry="8"/><text text-anchor="middle" fill="#FFF" x="35" y="-10">12</text></a><g transform="translate(0,-30)"><g><a target="_top" xlink:href="mob-slice5-step2628000-ofs25-col25-cat3.html"><rect style="display:none" class="hcell-act-col25-cat3" fill="#5BC0DE" stroke="#000" stroke-width="5" width="70" height="22" x="0" y="-27" rx="8" ry="8"/><rect class="hcell-col25-cat3" fill="#5BC0DE" stroke="#DDD" width="70" height="32" x="0" y="-32" rx="8" ry="8"/><text text-anchor="middle" fill="#FFF" x="35" y="-12">1560</text></a><g transform="translate(0,-32)"><g><a target="_top" xlink:href="mob-slice5-step2628000-ofs25-col25-cat4.html"><rect style="display:none" class="hcell-act-col25-cat4" fill="#337AB7" stroke="#000" stroke-width="5" width="70" height="26" x="0" y="-31" rx="8" ry="8"/><rect class="hcell-col25-cat4" fill="#337AB7" stroke="#DDD" width="70" height="36" x="0" y="-36" rx="8" ry="8"/><text text-anchor="middle" fill="#FFF" x="35" y="-16">1745</text></a><g transform="translate(0,-36)"><g><a target="_top" xlink:href="mob-slice5-step2628000-ofs25-col25-cat2.html"><rect style="display:none" class="hcell-act-col25-cat2" fill="#5CB85C" stroke="#000" stroke-width="5" width="70" height="87" x="0" y="-92" rx="8" ry="8"/><rect class="hcell-col25-cat2" fill="#5CB85C" stroke="#DDD" width="70" height="97" x="0" y="-97" rx="8" ry="8"/><text text-anchor="middle" fill="#FFF" x="35" y="-77">4634</text></a></g></g></g></g></g></g></g></g><rect fill="none" stroke="#DDD" width="70" height="30" rx="8" ry="8" x="5" y="210"/><text text-anchor="middle" fill="#333" x="40" y="230">14-08</text><g transform="translate(5,250)"><g><a target="_top" xlink:href="mob-slice5-step2628000-ofs25-col25-cat1.html"><rect style="display:none" class="hcell-act-col25-cat1" fill="#F0AD4E" stroke="#000" stroke-width="5" width="70" height="20" x="0" y="5" rx="8" ry="8"/><rect class="hcell-col25-cat1" fill="#F0AD4E" stroke="#DDD" width="70" height="30" x="0" y="0" rx="8" ry="8"/><text text-anchor="middle" fill="#FFF" x="35" y="20">-86</text></a><g transform="translate(0,30)"><g><a target="_top" xlink:href="mob-slice5-step2628000-ofs25-col25-cat4.html"><rect style="display:none" class="hcell-act-col25-cat4" fill="#337AB7" stroke="#000" stroke-width="5" width="70" height="20" x="0" y="5" rx="8" ry="8"/><rect class="hcell-col25-cat4" fill="#337AB7" stroke="#DDD" width="70" height="30" x="0" y="0" rx="8" ry="8"/><text text-anchor="middle" fill="#FFF" x="35" y="20">-794</text></a><g transform="translate(0,30)"><g><a target="_top" xlink:href="mob-slice5-step2628000-ofs25-col25-cat2.html"><rect style="display:none" class="hcell-act-col25-cat2" fill="#5CB85C" stroke="#000" stroke-width="5" width="70" height="82" x="0" y="5" rx="8" ry="8"/><rect class="hcell-col25-cat2" fill="#5CB85C" stroke="#DDD" width="70" height="92" x="0" y="0" rx="8" ry="8"/><text text-anchor="middle" fill="#FFF" x="35" y="20">-4371</text></a></g></g></g></g></g></g></g><g><g transform="translate(85,200)"><g><a target="_top" xlink:href="mob-slice5-step2628000-ofs25-col26-cat1.html"><rect style="display:none" class="hcell-act-col26-cat1" fill="#F0AD4E" stroke="#000" stroke-width="5" width="70" height="20" x="0" y="-25" rx="8" ry="8"/><rect class="hcell-col26-cat1" fill="#F0AD4E" stroke="#DDD" width="70" height="30" x="0" y="-30" rx="8" ry="8"/><text text-anchor="middle" fill="#FFF" x="35" y="-10">67</text></a><g transform="translate(0,-30)"><g><a target="_top" xlink:href="mob-slice5-step2628000-ofs25-col26-cat3.html"><rect style="display:none" class="hcell-act-col26-cat3" fill="#5BC0DE" stroke="#000" stroke-width="5" width="70" height="20" x="0" y="-25" rx="8" ry="8"/><rect class="hcell-col26-cat3" fill="#5BC0DE" stroke="#DDD" width="70" height="30" x="0" y="-30" rx="8" ry="8"/><text text-anchor="middle" fill="#FFF" x="35" y="-10">600</text></a><g transform="translate(0,-30)"><g><a target="_top" xlink:href="mob-slice5-step2628000-ofs25-col26-cat0.html"><rect style="display:none" class="hcell-act-col26-cat0" fill="#D9534F" stroke="#000" stroke-width="5" width="70" height="20" x="0" y="-25" rx="8" ry="8"/><rect class="hcell-col26-cat0" fill="#D9534F" stroke="#DDD" width="70" height="30" x="0" y="-30" rx="8" ry="8"/><text text-anchor="middle" fill="#FFF" x="35" y="-10">740</text></a><g transform="translate(0,-30)"><g><a target="_top" xlink:href="mob-slice5-step2628000-ofs25-col26-cat4.html"><rect style="display:none" class="hcell-act-col26-cat4" fill="#337AB7" stroke="#000" stroke-width="5" width="70" height="25" x="0" y="-30" rx="8" ry="8"/><rect class="hcell-col26-cat4" fill="#337AB7" stroke="#DDD" width="70" height="35" x="0" y="-35" rx="8" ry="8"/><text text-anchor="middle" fill="#FFF" x="35" y="-15">1696</text></a><g transform="translate(0,-35)"><g><a target="_top" xlink:href="mob-slice5-step2628000-ofs25-col26-cat2.html"><rect style="display:none" class="hcell-act-col26-cat2" fill="#5CB85C" stroke="#000" stroke-width="5" width="70" height="44" x="0" y="-49" rx="8" ry="8"/><rect class="hcell-col26-cat2" fill="#5CB85C" stroke="#DDD" width="70" height="54" x="0" y="-54" rx="8" ry="8"/><text text-anchor="middle" fill="#FFF" x="35" y="-34">2600</text></a></g></g></g></g></g></g></g></g></g></g><rect fill="none" stroke="#DDD" width="70" height="30" rx="8" ry="8" x="85" y="210"/><text text-anchor="middle" fill="#333" x="120" y="230">14-08</text><g transform="translate(85,250)"><g><a target="_top" xlink:href="mob-slice5-step2628000-ofs25-col26-cat1.html"><rect style="display:none" class="hcell-act-col26-cat1" fill="#F0AD4E" stroke="#000" stroke-width="5" width="70" height="20" x="0" y="5" rx="8" ry="8"/><rect class="hcell-col26-cat1" fill="#F0AD4E" stroke="#DDD" width="70" height="30" x="0" y="0" rx="8" ry="8"/><text text-anchor="middle" fill="#FFF" x="35" y="20">-112</text></a><g transform="translate(0,30)"><g><a target="_top" xlink:href="mob-slice5-step2628000-ofs25-col26-cat3.html"><rect style="display:none" class="hcell-act-col26-cat3" fill="#5BC0DE" stroke="#000" stroke-width="5" width="70" height="20" x="0" y="5" rx="8" ry="8"/><rect class="hcell-col26-cat3" fill="#5BC0DE" stroke="#DDD" width="70" height="30" x="0" y="0" rx="8" ry="8"/><text text-anchor="middle" fill="#FFF" x="35" y="20">-740</text></a><g transform="translate(0,30)"><g><a target="_top" xlink:href="mob-slice5-step2628000-ofs25-col26-cat4.html"><rect style="display:none" class="hcell-act-col26-cat4" fill="#337AB7" stroke="#000" stroke-width="5" width="70" height="20" x="0" y="5" rx="8" ry="8"/><rect class="hcell-col26-cat4" fill="#337AB7" stroke="#DDD" width="70" height="30" x="0" y="0" rx="8" ry="8"/><text text-anchor="middle" fill="#FFF" x="35" y="20">-746</text></a><g transform="translate(0,30)"><g><a target="_top" xlink:href="mob-slice5-step2628000-ofs25-col26-cat0.html"><rect style="display:none" class="hcell-act-col26-cat0" fill="#D9534F" stroke="#000" stroke-width="5" width="70" height="63" x="0" y="5" rx="8" ry="8"/><rect class="hcell-col26-cat0" fill="#D9534F" stroke="#DDD" width="70" height="73" x="0" y="0" rx="8" ry="8"/><text text-anchor="middle" fill="#FFF" x="35" y="20">-3500</text></a><g transform="translate(0,73)"><g><a target="_top" xlink:href="mob-slice5-step2628000-ofs25-col26-cat2.html"><rect style="display:none" class="hcell-act-col26-cat2" fill="#5CB85C" stroke="#000" stroke-width="5" width="70" height="114" x="0" y="5" rx="8" ry="8"/><rect class="hcell-col26-cat2" fill="#5CB85C" stroke="#DDD" width="70" height="124" x="0" y="0" rx="8" ry="8"/><text text-anchor="middle" fill="#FFF" x="35" y="20">-5901</text></a></g></g></g></g></g></g></g></g></g></g></g><g><g transform="translate(165,200)"><g><a target="_top" xlink:href="mob-slice5-step2628000-ofs25-col27-cat1.html"><rect style="display:none" class="hcell-act-col27-cat1" fill="#F0AD4E" stroke="#000" stroke-width="5" width="70" height="20" x="0" y="-25" rx="8" ry="8"/><rect class="hcell-col27-cat1" fill="#F0AD4E" stroke="#DDD" width="70" height="30" x="0" y="-30" rx="8" ry="8"/><text text-anchor="middle" fill="#FFF" x="35" y="-10">71</text></a><g transform="translate(0,-30)"><g><a target="_top" xlink:href="mob-slice5-step2628000-ofs25-col27-cat2.html"><rect style="display:none" class="hcell-act-col27-cat2" fill="#5CB85C" stroke="#000" stroke-width="5" width="70" height="77" x="0" y="-82" rx="8" ry="8"/><rect class="hcell-col27-cat2" fill="#5CB85C" stroke="#DDD" width="70" height="87" x="0" y="-87" rx="8" ry="8"/><text text-anchor="middle" fill="#FFF" x="35" y="-67">4145</text></a></g></g></g></g><rect fill="none" stroke="#DDD" width="70" height="30" rx="8" ry="8" x="165" y="210"/><text text-anchor="middle" fill="#333" x="200" y="230">14-10</text><g transform="translate(165,250)"><g><a target="_top" xlink:href="mob-slice5-step2628000-ofs25-col27-cat3.html"><rect style="display:none" class="hcell-act-col27-cat3" fill="#5BC0DE" stroke="#000" stroke-width="5" width="70" height="20" x="0" y="5" rx="8" ry="8"/><rect class="hcell-col27-cat3" fill="#5BC0DE" stroke="#DDD" width="70" height="30" x="0" y="0" rx="8" ry="8"/><text text-anchor="middle" fill="#FFF" x="35" y="20">-85</text></a><g transform="translate(0,30)"><g><a target="_top" xlink:href="mob-slice5-step2628000-ofs25-col27-cat1.html"><rect style="display:none" class="hcell-act-col27-cat1" fill="#F0AD4E" stroke="#000" stroke-width="5" width="70" height="20" x="0" y="5" rx="8" ry="8"/><rect class="hcell-col27-cat1" fill="#F0AD4E" stroke="#DDD" width="70" height="30" x="0" y="0" rx="8" ry="8"/><text text-anchor="middle" fill="#FFF" x="35" y="20">-123</text></a><g transform="translate(0,30)"><g><a target="_top" xlink:href="mob-slice5-step2628000-ofs25-col27-cat4.html"><rect style="display:none" class="hcell-act-col27-cat4" fill="#337AB7" stroke="#000" stroke-width="5" width="70" height="20" x="0" y="5" rx="8" ry="8"/><rect class="hcell-col27-cat4" fill="#337AB7" stroke="#DDD" width="70" height="30" x="0" y="0" rx="8" ry="8"/><text text-anchor="middle" fill="#FFF" x="35" y="20">-746</text></a><g transform="translate(0,30)"><g><a target="_top" xlink:href="mob-slice5-step2628000-ofs25-col27-cat2.html"><rect style="display:none" class="hcell-act-col27-cat2" fill="#5CB85C" stroke="#000" stroke-width="5" width="70" height="23" x="0" y="5" rx="8" ry="8"/><rect class="hcell-col27-cat2" fill="#5CB85C" stroke="#DDD" width="70" height="33" x="0" y="0" rx="8" ry="8"/><text text-anchor="middle" fill="#FFF" x="35" y="20">-1609</text></a></g></g></g></g></g></g></g></g></g><g><g transform="translate(245,200)"><g><a target="_top" xlink:href="mob-slice5-step2628000-ofs25-col28-cat1.html"><rect style="display:none" class="hcell-act-col28-cat1" fill="#F0AD4E" stroke="#000" stroke-width="5" width="70" height="20" x="0" y="-25" rx="8" ry="8"/><rect class="hcell-col28-cat1" fill="#F0AD4E" stroke="#DDD" width="70" height="30" x="0" y="-30" rx="8" ry="8"/><text text-anchor="middle" fill="#FFF" x="35" y="-10">37</text></a><g transform="translate(0,-30)"><g><a target="_top" xlink:href="mob-slice5-step2628000-ofs25-col28-cat2.html"><rect style="display:none" class="hcell-act-col28-cat2" fill="#5CB85C" stroke="#000" stroke-width="5" width="70" height="44" x="0" y="-49" rx="8" ry="8"/><rect class="hcell-col28-cat2" fill="#5CB85C" stroke="#DDD" width="70" height="54" x="0" y="-54" rx="8" ry="8"/><text text-anchor="middle" fill="#FFF" x="35" y="-34">2600</text></a></g></g></g></g><rect fill="none" stroke="#DDD" width="70" height="30" rx="8" ry="8" x="245" y="210"/><text text-anchor="middle" fill="#333" x="280" y="230">14-10</text><g transform="translate(245,250)"><g><a target="_top" xlink:href="mob-slice5-step2628000-ofs25-col28-cat1.html"><rect style="display:none" class="hcell-act-col28-cat1" fill="#F0AD4E" stroke="#000" stroke-width="5" width="70" height="20" x="0" y="5" rx="8" ry="8"/><rect class="hcell-col28-cat1" fill="#F0AD4E" stroke="#DDD" width="70" height="30" x="0" y="0" rx="8" ry="8"/><text text-anchor="middle" fill="#FFF" x="35" y="20">-131</text></a><g transform="translate(0,30)"><g><a target="_top" xlink:href="mob-slice5-step2628000-ofs25-col28-cat4.html"><rect style="display:none" class="hcell-act-col28-cat4" fill="#337AB7" stroke="#000" stroke-width="5" width="70" height="20" x="0" y="5" rx="8" ry="8"/><rect class="hcell-col28-cat4" fill="#337AB7" stroke="#DDD" width="70" height="30" x="0" y="0" rx="8" ry="8"/><text text-anchor="middle" fill="#FFF" x="35" y="20">-607</text></a><g transform="translate(0,30)"><g><a target="_top" xlink:href="mob-slice5-step2628000-ofs25-col28-cat0.html"><rect style="display:none" class="hcell-act-col28-cat0" fill="#D9534F" stroke="#000" stroke-width="5" width="70" height="21" x="0" y="5" rx="8" ry="8"/><rect class="hcell-col28-cat0" fill="#D9534F" stroke="#DDD" width="70" height="31" x="0" y="0" rx="8" ry="8"/><text text-anchor="middle" fill="#FFF" x="35" y="20">-1470</text></a><g transform="translate(0,31)"><g><a target="_top" xlink:href="mob-slice5-step2628000-ofs25-col28-cat2.html"><rect style="display:none" class="hcell-act-col28-cat2" fill="#5CB85C" stroke="#000" stroke-width="5" width="70" height="45" x="0" y="5" rx="8" ry="8"/><rect class="hcell-col28-cat2" fill="#5CB85C" stroke="#DDD" width="70" height="55" x="0" y="0" rx="8" ry="8"/><text text-anchor="middle" fill="#FFF" x="35" y="20">-2624</text></a></g></g></g></g></g></g></g></g></g><g><g transform="translate(325,200)"><g><a target="_top" xlink:href="mob-slice5-step2628000-ofs25-col29-cat1.html"><rect style="display:none" class="hcell-act-col29-cat1" fill="#F0AD4E" stroke="#000" stroke-width="5" width="70" height="20" x="0" y="-25" rx="8" ry="8"/><rect class="hcell-col29-cat1" fill="#F0AD4E" stroke="#DDD" width="70" height="30" x="0" y="-30" rx="8" ry="8"/><text text-anchor="middle" fill="#FFF" x="35" y="-10">96</text></a><g transform="translate(0,-30)"><g><a target="_top" xlink:href="mob-slice5-step2628000-ofs25-col29-cat4.html"><rect style="display:none" class="hcell-act-col29-cat4" fill="#337AB7" stroke="#000" stroke-width="5" width="70" height="25" x="0" y="-30" rx="8" ry="8"/><rect class="hcell-col29-cat4" fill="#337AB7" stroke="#DDD" width="70" height="35" x="0" y="-35" rx="8" ry="8"/><text text-anchor="middle" fill="#FFF" x="35" y="-15">1663</text></a><g transform="translate(0,-35)"><g><a target="_top" xlink:href="mob-slice5-step2628000-ofs25-col29-cat2.html"><rect style="display:none" class="hcell-act-col29-cat2" fill="#5CB85C" stroke="#000" stroke-width="5" width="70" height="48" x="0" y="-53" rx="8" ry="8"/><rect class="hcell-col29-cat2" fill="#5CB85C" stroke="#DDD" width="70" height="58" x="0" y="-58" rx="8" ry="8"/><text text-anchor="middle" fill="#FFF" x="35" y="-38">2782</text></a></g></g></g></g></g></g><rect fill="none" stroke="#DDD" width="70" height="30" rx="8" ry="8" x="325" y="210"/><text text-anchor="middle" fill="#333" x="360" y="230">14-12</text><g transform="translate(325,250)"><g><a target="_top" xlink:href="mob-slice5-step2628000-ofs25-col29-cat0.html"><rect style="display:none" class="hcell-act-col29-cat0" fill="#D9534F" stroke="#000" stroke-width="5" width="70" height="20" x="0" y="5" rx="8" ry="8"/><rect class="hcell-col29-cat0" fill="#D9534F" stroke="#DDD" width="70" height="30" x="0" y="0" rx="8" ry="8"/><text text-anchor="middle" fill="#FFF" x="35" y="20">-20</text></a><g transform="translate(0,30)"><g><a target="_top" xlink:href="mob-slice5-step2628000-ofs25-col29-cat1.html"><rect style="display:none" class="hcell-act-col29-cat1" fill="#F0AD4E" stroke="#000" stroke-width="5" width="70" height="20" x="0" y="5" rx="8" ry="8"/><rect class="hcell-col29-cat1" fill="#F0AD4E" stroke="#DDD" width="70" height="30" x="0" y="0" rx="8" ry="8"/><text text-anchor="middle" fill="#FFF" x="35" y="20">-78</text></a><g transform="translate(0,30)"><g><a target="_top" xlink:href="mob-slice5-step2628000-ofs25-col29-cat4.html"><rect style="display:none" class="hcell-act-col29-cat4" fill="#337AB7" stroke="#000" stroke-width="5" width="70" height="22" x="0" y="5" rx="8" ry="8"/><rect class="hcell-col29-cat4" fill="#337AB7" stroke="#DDD" width="70" height="32" x="0" y="0" rx="8" ry="8"/><text text-anchor="middle" fill="#FFF" x="35" y="20">-1538</text></a><g transform="translate(0,32)"><g><a target="_top" xlink:href="mob-slice5-step2628000-ofs25-col29-cat2.html"><rect style="display:none" class="hcell-act-col29-cat2" fill="#5CB85C" stroke="#000" stroke-width="5" width="70" height="57" x="0" y="5" rx="8" ry="8"/><rect class="hcell-col29-cat2" fill="#5CB85C" stroke="#DDD" width="70" height="67" x="0" y="0" rx="8" ry="8"/><text text-anchor="middle" fill="#FFF" x="35" y="20">-3176</text></a></g></g></g></g></g></g></g></g></g></svg>