<svg xmlns="http://www.w3.org/2000/svg" xmlns:xlink="http://www.w3.org/1999/xlink" width="100%" height="100%" viewBox="0 0 400 459"><g><g transform="translate(5,257)"><g><a target="_top" xlink:href="mob-sliceTagPhone-step2628000-ofs25-col25-cat0.html"><rect style="display:none" class="hcell-act-col25-cat0" fill="#777" stroke="#000" stroke-width="5" width="70" height="192" x="0" y="-197" rx="8" ry="8"/><rect class="hcell-col25-cat0" fill="#777" stroke="#DDD" width="70" height="202" x="0" y="-202" rx="8" ry="8"/><text text-anchor="middle" fill="#FFF" x="35" y="-182">96</text></a></g></g><rect fill="none" stroke="#DDD" width="70" height="30" rx="8" ry="8" x="5" y="267"/><text text-anchor="middle" fill="#333" x="40" y="287">14-08</text><g transform="translate(5,307)"></g></g><g><g transform="translate(85,257)"><g><a target="_top" xlink:href="mob-sliceTagPhone-step2628000-ofs25-col26-cat0.html"><rect style="display:none" class="hcell-act-col26-cat0" fill="#777" stroke="#000" stroke-width="5" width="70" height="242" x="0" y="-247" rx="8" ry="8"/><rect class="hcell-col26-cat0" fill="#777" stroke="#DDD" width="70" height="252" x="0" y="-252" rx="8" ry="8"/><text text-anchor="middle" fill="#FFF" x="35" y="-232">120</text></a></g></g><rect fill="none" stroke="#DDD" width="70" height="30" rx="8" ry="8" x="85" y="267"/><text text-anchor="middle" fill="#333" x="120" y="287">14-08</text><g transform="translate(85,307)"></g></g><g><g transform="translate(165,257)"></g><rect fill="none" stroke="#DDD" width="70" height="30" rx="8" ry="8" x="165" y="267"/><text text-anchor="middle" fill="#333" x="200" y="287">14-10</text><g transform="translate(165,307)"><g><a target="_top" xlink:href="mob-sliceTagPhone-step2628000-ofs25-col27-cat0.html"><rect style="display:none" class="hcell-act-col27-cat0" fill="#777" stroke="#000" stroke-width="5" width="70" height="137" x="0" y="5" rx="8" ry="8"/><rect class="hcell-col27-cat0" fill="#777" stroke="#DDD" width="70" height="147" x="0" y="0" rx="8" ry="8"/><text text-anchor="middle" fill="#FFF" x="35" y="20">-70</text></a></g></g></g><g><g transform="translate(245,257)"></g><rect fill="none" stroke="#DDD" width="70" height="30" rx="8" ry="8" x="245" y="267"/><text text-anchor="middle" fill="#333" x="280" y="287">14-10</text><g transform="translate(245,307)"><g><a target="_top" xlink:href="mob-sliceTagPhone-step2628000-ofs25-col28-cat0.html"><rect style="display:none" class="hcell-act-col28-cat0" fill="#777" stroke="#000" stroke-width="5" width="70" height="137" x="0" y="5" rx="8" ry="8"/><rect class="hcell-col28-cat0" fill="#777" stroke="#DDD" width="70" height="147" x="0" y="0" rx="8" ry="8"/><text text-anchor="middle" fill="#FFF" x="35" y="20">-70</text></a></g></g></g><g><g transform="translate(325,257)"></g><rect fill="none" stroke="#DDD" width="70" height="30" rx="8" ry="8" x="325" y="267"/><text text-anchor="middle" fill="#333" x="360" y="287">14-12</text><g transform="translate(325,307)"><g><a target="_top" xlink:href="mob-sliceTagPhone-step2628000-ofs25-col29-cat0.html"><rect style="display:none" class="hcell-act-col29-cat0" fill="#777" stroke="#000" stroke-width="5" width="70" height="51" x="0" y="5" rx="8" ry="8"/><rect class="hcell-col29-cat0" fill="#777" stroke="#DDD" width="70" height="61" x="0" y="0" rx="8" ry="8"/><text text-anchor="middle" fill="#FFF" x="35" y="20">-29</text></a></g></g></g></svg>