<svg xmlns="http://www.w3.org/2000/svg" xmlns:xlink="http://www.w3.org/1999/xlink" width="100%" height="100%" viewBox="0 0 400 459"><g><g transform="translate(5,172)"></g><rect fill="none" stroke="#DDD" width="70" height="30" rx="8" ry="8" x="5" y="182"/><text text-anchor="middle" fill="#333" x="40" y="202">12-07</text><g transform="translate(5,222)"></g></g><g><g transform="translate(85,172)"></g><rect fill="none" stroke="#DDD" width="70" height="30" rx="8" ry="8" x="85" y="182"/><text text-anchor="middle" fill="#333" x="120" y="202">13-01</text><g transform="translate(85,222)"></g></g><g><g transform="translate(165,172)"><g><a target="_top" xlink:href="mob-sliceTagCrispyBills-step17936641-ofs0-col2-cat0.html"><rect style="display:none" class="hcell-act-col2-cat0" fill="#777" stroke="#000" stroke-width="5" width="70" height="157" x="0" y="-162" rx="8" ry="8"/><rect class="hcell-col2-cat0" fill="#777" stroke="#DDD" width="70" height="167" x="0" y="-167" rx="8" ry="8"/><text text-anchor="middle" fill="#FFF" x="35" y="-147">3965</text></a></g></g><rect fill="none" stroke="#DDD" width="70" height="30" rx="8" ry="8" x="165" y="182"/><text text-anchor="middle" fill="#333" x="200" y="202">13-08</text><g transform="translate(165,222)"><g><a target="_top" xlink:href="mob-sliceTagCrispyBills-step17936641-ofs0-col2-cat0.html"><rect style="display:none" class="hcell-act-col2-cat0" fill="#777" stroke="#000" stroke-width="5" width="70" height="35" x="0" y="5" rx="8" ry="8"/><rect class="hcell-col2-cat0" fill="#777" stroke="#DDD" width="70" height="45" x="0" y="0" rx="8" ry="8"/><text text-anchor="middle" fill="#FFF" x="35" y="20">-1088</text></a></g></g></g><g><g transform="translate(245,172)"><g><a target="_top" xlink:href="mob-sliceTagCrispyBills-step17936641-ofs0-col3-cat0.html"><rect style="display:none" class="hcell-act-col3-cat0" fill="#777" stroke="#000" stroke-width="5" width="70" height="119" x="0" y="-124" rx="8" ry="8"/><rect class="hcell-col3-cat0" fill="#777" stroke="#DDD" width="70" height="129" x="0" y="-129" rx="8" ry="8"/><text text-anchor="middle" fill="#FFF" x="35" y="-109">3060</text></a></g></g><rect fill="none" stroke="#DDD" width="70" height="30" rx="8" ry="8" x="245" y="182"/><text text-anchor="middle" fill="#333" x="280" y="202">14-03</text><g transform="translate(245,222)"><g><a target="_top" xlink:href="mob-sliceTagCrispyBills-step17936641-ofs0-col3-cat0.html"><rect style="display:none" class="hcell-act-col3-cat0" fill="#777" stroke="#000" stroke-width="5" width="70" height="222" x="0" y="5" rx="8" ry="8"/><rect class="hcell-col3-cat0" fill="#777" stroke="#DDD" width="70" height="232" x="0" y="0" rx="8" ry="8"/><text text-anchor="middle" fill="#FFF" x="35" y="20">-5495</text></a></g></g></g><g><g transform="translate(325,172)"><g><a target="_top" xlink:href="mob-sliceTagCrispyBills-step17936641-ofs0-col4-cat0.html"><rect style="display:none" class="hcell-act-col4-cat0" fill="#777" stroke="#000" stroke-width="5" width="70" height="126" x="0" y="-131" rx="8" ry="8"/><rect class="hcell-col4-cat0" fill="#777" stroke="#DDD" width="70" height="136" x="0" y="-136" rx="8" ry="8"/><text text-anchor="middle" fill="#FFF" x="35" y="-116">3225</text></a></g></g><rect fill="none" stroke="#DDD" width="70" height="30" rx="8" ry="8" x="325" y="182"/><text text-anchor="middle" fill="#333" x="360" y="202">14-10</text><g transform="translate(325,222)"><g><a target="_top" xlink:href="mob-sliceTagCrispyBills-step17936641-ofs0-col4-cat0.html"><rect style="display:none" class="hcell-act-col4-cat0" fill="#777" stroke="#000" stroke-width="5" width="70" height="177" x="0" y="5" rx="8" ry="8"/><rect class="hcell-col4-cat0" fill="#777" stroke="#DDD" width="70" height="187" x="0" y="0" rx="8" ry="8"/><text text-anchor="middle" fill="#FFF" x="35" y="20">-4431</text></a></g></g></g></svg>