<svg xmlns="http://www.w3.org/2000/svg" xmlns:xlink="http://www.w3.org/1999/xlink" width="100%" height="100%" viewBox="0 0 400 461"><g><g transform="translate(5,376)"><g><a target="_top" xlink:href="mob-sliceTagAwsGiftBnk-step2628000-ofs0-col0-cat0.html"><rect style="display:none" class="hcell-act-col0-cat0" fill="#777" stroke="#000" stroke-width="5" width="70" height="361" x="0" y="-366" rx="8" ry="8"/><rect class="hcell-col0-cat0" fill="#777" stroke="#DDD" width="70" height="371" x="0" y="-371" rx="8" ry="8"/><text text-anchor="middle" fill="#FFF" x="35" y="-351">500</text></a></g></g><rect fill="none" stroke="#DDD" width="70" height="30" rx="8" ry="8" x="5" y="386"/><text text-anchor="middle" fill="#333" x="40" y="406">12-07</text><g transform="translate(5,426)"><g><a target="_top" xlink:href="mob-sliceTagAwsGiftBnk-step2628000-ofs0-col0-cat0.html"><rect style="display:none" class="hcell-act-col0-cat0" fill="#777" stroke="#000" stroke-width="5" width="70" height="20" x="0" y="5" rx="8" ry="8"/><rect class="hcell-col0-cat0" fill="#777" stroke="#DDD" width="70" height="30" x="0" y="0" rx="8" ry="8"/><text text-anchor="middle" fill="#FFF" x="35" y="20">-39</text></a></g></g></g><g><g transform="translate(85,376)"></g><rect fill="none" stroke="#DDD" width="70" height="30" rx="8" ry="8" x="85" y="386"/><text text-anchor="middle" fill="#333" x="120" y="406">12-08</text><g transform="translate(85,426)"><g><a target="_top" xlink:href="mob-sliceTagAwsGiftBnk-step2628000-ofs0-col1-cat0.html"><rect style="display:none" class="hcell-act-col1-cat0" fill="#777" stroke="#000" stroke-width="5" width="70" height="20" x="0" y="5" rx="8" ry="8"/><rect class="hcell-col1-cat0" fill="#777" stroke="#DDD" width="70" height="30" x="0" y="0" rx="8" ry="8"/><text text-anchor="middle" fill="#FFF" x="35" y="20">-10</text></a></g></g></g><g><g transform="translate(165,376)"></g><rect fill="none" stroke="#DDD" width="70" height="30" rx="8" ry="8" x="165" y="386"/><text text-anchor="middle" fill="#333" x="200" y="406">12-08</text><g transform="translate(165,426)"></g></g><g><g transform="translate(245,376)"></g><rect fill="none" stroke="#DDD" width="70" height="30" rx="8" ry="8" x="245" y="386"/><text text-anchor="middle" fill="#333" x="280" y="406">12-10</text><g transform="translate(245,426)"><g><a target="_top" xlink:href="mob-sliceTagAwsGiftBnk-step2628000-ofs0-col3-cat0.html"><rect style="display:none" class="hcell-act-col3-cat0" fill="#777" stroke="#000" stroke-width="5" width="70" height="20" x="0" y="5" rx="8" ry="8"/><rect class="hcell-col3-cat0" fill="#777" stroke="#DDD" width="70" height="30" x="0" y="0" rx="8" ry="8"/><text text-anchor="middle" fill="#FFF" x="35" y="20">-18</text></a></g></g></g><g><g transform="translate(325,376)"></g><rect fill="none" stroke="#DDD" width="70" height="30" rx="8" ry="8" x="325" y="386"/><text text-anchor="middle" fill="#333" x="360" y="406">12-10</text><g transform="translate(325,426)"><g><a target="_top" xlink:href="mob-sliceTagAwsGiftBnk-step2628000-ofs0-col4-cat0.html"><rect style="display:none" class="hcell-act-col4-cat0" fill="#777" stroke="#000" stroke-width="5" width="70" height="20" x="0" y="5" rx="8" ry="8"/><rect class="hcell-col4-cat0" fill="#777" stroke="#DDD" width="70" height="30" x="0" y="0" rx="8" ry="8"/><text text-anchor="middle" fill="#FFF" x="35" y="20">-10</text></a></g></g></g></svg>