<svg xmlns="http://www.w3.org/2000/svg" xmlns:xlink="http://www.w3.org/1999/xlink" width="100%" height="100%" viewBox="0 0 400 459"><g><g transform="translate(5,157)"></g><rect fill="none" stroke="#DDD" width="70" height="30" rx="8" ry="8" x="5" y="167"/><text text-anchor="middle" fill="#333" x="40" y="187">14-08</text><g transform="translate(5,207)"><g><a target="_top" xlink:href="mob-sliceTagAwesome1875-step2628000-ofs25-col25-cat0.html"><rect style="display:none" class="hcell-act-col25-cat0" fill="#777" stroke="#000" stroke-width="5" width="70" height="148" x="0" y="5" rx="8" ry="8"/><rect class="hcell-col25-cat0" fill="#777" stroke="#DDD" width="70" height="158" x="0" y="0" rx="8" ry="8"/><text text-anchor="middle" fill="#FFF" x="35" y="20">-82</text></a></g></g></g><g><g transform="translate(85,157)"><g><a target="_top" xlink:href="mob-sliceTagAwesome1875-step2628000-ofs25-col26-cat0.html"><rect style="display:none" class="hcell-act-col26-cat0" fill="#777" stroke="#000" stroke-width="5" width="70" height="64" x="0" y="-69" rx="8" ry="8"/><rect class="hcell-col26-cat0" fill="#777" stroke="#DDD" width="70" height="74" x="0" y="-74" rx="8" ry="8"/><text text-anchor="middle" fill="#FFF" x="35" y="-54">38</text></a></g></g><rect fill="none" stroke="#DDD" width="70" height="30" rx="8" ry="8" x="85" y="167"/><text text-anchor="middle" fill="#333" x="120" y="187">14-08</text><g transform="translate(85,207)"><g><a target="_top" xlink:href="mob-sliceTagAwesome1875-step2628000-ofs25-col26-cat0.html"><rect style="display:none" class="hcell-act-col26-cat0" fill="#777" stroke="#000" stroke-width="5" width="70" height="102" x="0" y="5" rx="8" ry="8"/><rect class="hcell-col26-cat0" fill="#777" stroke="#DDD" width="70" height="112" x="0" y="0" rx="8" ry="8"/><text text-anchor="middle" fill="#FFF" x="35" y="20">-58</text></a></g></g></g><g><g transform="translate(165,157)"><g><a target="_top" xlink:href="mob-sliceTagAwesome1875-step2628000-ofs25-col27-cat0.html"><rect style="display:none" class="hcell-act-col27-cat0" fill="#777" stroke="#000" stroke-width="5" width="70" height="103" x="0" y="-108" rx="8" ry="8"/><rect class="hcell-col27-cat0" fill="#777" stroke="#DDD" width="70" height="113" x="0" y="-113" rx="8" ry="8"/><text text-anchor="middle" fill="#FFF" x="35" y="-93">58</text></a></g></g><rect fill="none" stroke="#DDD" width="70" height="30" rx="8" ry="8" x="165" y="167"/><text text-anchor="middle" fill="#333" x="200" y="187">14-10</text><g transform="translate(165,207)"><g><a target="_top" xlink:href="mob-sliceTagAwesome1875-step2628000-ofs25-col27-cat0.html"><rect style="display:none" class="hcell-act-col27-cat0" fill="#777" stroke="#000" stroke-width="5" width="70" height="228" x="0" y="5" rx="8" ry="8"/><rect class="hcell-col27-cat0" fill="#777" stroke="#DDD" width="70" height="238" x="0" y="0" rx="8" ry="8"/><text text-anchor="middle" fill="#FFF" x="35" y="20">-123</text></a></g></g></g><g><g transform="translate(245,157)"></g><rect fill="none" stroke="#DDD" width="70" height="30" rx="8" ry="8" x="245" y="167"/><text text-anchor="middle" fill="#333" x="280" y="187">14-10</text><g transform="translate(245,207)"><g><a target="_top" xlink:href="mob-sliceTagAwesome1875-step2628000-ofs25-col28-cat0.html"><rect style="display:none" class="hcell-act-col28-cat0" fill="#777" stroke="#000" stroke-width="5" width="70" height="237" x="0" y="5" rx="8" ry="8"/><rect class="hcell-col28-cat0" fill="#777" stroke="#DDD" width="70" height="247" x="0" y="0" rx="8" ry="8"/><text text-anchor="middle" fill="#FFF" x="35" y="20">-127</text></a></g></g></g><g><g transform="translate(325,157)"><g><a target="_top" xlink:href="mob-sliceTagAwesome1875-step2628000-ofs25-col29-cat0.html"><rect style="display:none" class="hcell-act-col29-cat0" fill="#777" stroke="#000" stroke-width="5" width="70" height="142" x="0" y="-147" rx="8" ry="8"/><rect class="hcell-col29-cat0" fill="#777" stroke="#DDD" width="70" height="152" x="0" y="-152" rx="8" ry="8"/><text text-anchor="middle" fill="#FFF" x="35" y="-132">78</text></a></g></g><rect fill="none" stroke="#DDD" width="70" height="30" rx="8" ry="8" x="325" y="167"/><text text-anchor="middle" fill="#333" x="360" y="187">14-12</text><g transform="translate(325,207)"><g><a target="_top" xlink:href="mob-sliceTagAwesome1875-step2628000-ofs25-col29-cat0.html"><rect style="display:none" class="hcell-act-col29-cat0" fill="#777" stroke="#000" stroke-width="5" width="70" height="57" x="0" y="5" rx="8" ry="8"/><rect class="hcell-col29-cat0" fill="#777" stroke="#DDD" width="70" height="67" x="0" y="0" rx="8" ry="8"/><text text-anchor="middle" fill="#FFF" x="35" y="20">-35</text></a></g></g></g></svg>