<svg xmlns="http://www.w3.org/2000/svg" xmlns:xlink="http://www.w3.org/1999/xlink" width="100%" height="100%" viewBox="0 0 400 470"><g><g transform="translate(5,323)"></g><rect fill="none" stroke="#DDD" width="70" height="30" rx="8" ry="8" x="5" y="333"/><text text-anchor="middle" fill="#333" x="40" y="353">12-07</text><g transform="translate(5,373)"></g></g><g><g transform="translate(85,323)"></g><rect fill="none" stroke="#DDD" width="70" height="30" rx="8" ry="8" x="85" y="333"/><text text-anchor="middle" fill="#333" x="120" y="353">13-01</text><g transform="translate(85,373)"></g></g><g><g transform="translate(165,323)"></g><rect fill="none" stroke="#DDD" width="70" height="30" rx="8" ry="8" x="165" y="333"/><text text-anchor="middle" fill="#333" x="200" y="353">13-08</text><g transform="translate(165,373)"></g></g><g><g transform="translate(245,323)"><g><a target="_top" xlink:href="mob-slice4-step17936641-ofs0-col3-cat0.html"><rect style="display:none" class="hcell-act-col3-cat0" fill="#5CB85C" stroke="#000" stroke-width="5" width="70" height="308" x="0" y="-313" rx="8" ry="8"/><rect class="hcell-col3-cat0" fill="#5CB85C" stroke="#DDD" width="70" height="318" x="0" y="-318" rx="8" ry="8"/><text text-anchor="middle" fill="#FFF" x="35" y="-298">2600</text></a></g></g><rect fill="none" stroke="#DDD" width="70" height="30" rx="8" ry="8" x="245" y="333"/><text text-anchor="middle" fill="#333" x="280" y="353">14-03</text><g transform="translate(245,373)"><g><a target="_top" xlink:href="mob-slice4-step17936641-ofs0-col3-cat2.html"><rect style="display:none" class="hcell-act-col3-cat2" fill="#777" stroke="#000" stroke-width="5" width="70" height="20" x="0" y="5" rx="8" ry="8"/><rect class="hcell-col3-cat2" fill="#777" stroke="#DDD" width="70" height="30" x="0" y="0" rx="8" ry="8"/><text text-anchor="middle" fill="#FFF" x="35" y="20">-94</text></a><g transform="translate(0,30)"><g><a target="_top" xlink:href="mob-slice4-step17936641-ofs0-col3-cat1.html"><rect style="display:none" class="hcell-act-col3-cat1" fill="#337AB7" stroke="#000" stroke-width="5" width="70" height="20" x="0" y="5" rx="8" ry="8"/><rect class="hcell-col3-cat1" fill="#337AB7" stroke="#DDD" width="70" height="30" x="0" y="0" rx="8" ry="8"/><text text-anchor="middle" fill="#FFF" x="35" y="20">-204</text></a></g></g></g></g></g><g><g transform="translate(325,323)"></g><rect fill="none" stroke="#DDD" width="70" height="30" rx="8" ry="8" x="325" y="333"/><text text-anchor="middle" fill="#333" x="360" y="353">14-10</text><g transform="translate(325,373)"><g><a target="_top" xlink:href="mob-slice4-step17936641-ofs0-col4-cat2.html"><rect style="display:none" class="hcell-act-col4-cat2" fill="#777" stroke="#000" stroke-width="5" width="70" height="20" x="0" y="5" rx="8" ry="8"/><rect class="hcell-col4-cat2" fill="#777" stroke="#DDD" width="70" height="30" x="0" y="0" rx="8" ry="8"/><text text-anchor="middle" fill="#FFF" x="35" y="20">-152</text></a><g transform="translate(0,30)"><g><a target="_top" xlink:href="mob-slice4-step17936641-ofs0-col4-cat1.html"><rect style="display:none" class="hcell-act-col4-cat1" fill="#337AB7" stroke="#000" stroke-width="5" width="70" height="52" x="0" y="5" rx="8" ry="8"/><rect class="hcell-col4-cat1" fill="#337AB7" stroke="#DDD" width="70" height="62" x="0" y="0" rx="8" ry="8"/><text text-anchor="middle" fill="#FFF" x="35" y="20">-513</text></a></g></g></g></g></g></svg>