<svg xmlns="http://www.w3.org/2000/svg" xmlns:xlink="http://www.w3.org/1999/xlink" width="100%" height="100%" viewBox="0 0 400 466"><g><g transform="translate(5,381)"><g><a target="_top" xlink:href="mob-sliceTagPayment-step17936641-ofs0-col0-cat0.html"><rect style="display:none" class="hcell-act-col0-cat0" fill="#777" stroke="#000" stroke-width="5" width="70" height="20" x="0" y="-25" rx="8" ry="8"/><rect class="hcell-col0-cat0" fill="#777" stroke="#DDD" width="70" height="30" x="0" y="-30" rx="8" ry="8"/><text text-anchor="middle" fill="#FFF" x="35" y="-10">11</text></a></g></g><rect fill="none" stroke="#DDD" width="70" height="30" rx="8" ry="8" x="5" y="391"/><text text-anchor="middle" fill="#333" x="40" y="411">12-07</text><g transform="translate(5,431)"><g><a target="_top" xlink:href="mob-sliceTagPayment-step17936641-ofs0-col0-cat0.html"><rect style="display:none" class="hcell-act-col0-cat0" fill="#777" stroke="#000" stroke-width="5" width="70" height="20" x="0" y="5" rx="8" ry="8"/><rect class="hcell-col0-cat0" fill="#777" stroke="#DDD" width="70" height="30" x="0" y="0" rx="8" ry="8"/><text text-anchor="middle" fill="#FFF" x="35" y="20">-371</text></a></g></g></g><g><g transform="translate(85,381)"><g><a target="_top" xlink:href="mob-sliceTagPayment-step17936641-ofs0-col1-cat0.html"><rect style="display:none" class="hcell-act-col1-cat0" fill="#777" stroke="#000" stroke-width="5" width="70" height="243" x="0" y="-248" rx="8" ry="8"/><rect class="hcell-col1-cat0" fill="#777" stroke="#DDD" width="70" height="253" x="0" y="-253" rx="8" ry="8"/><text text-anchor="middle" fill="#FFF" x="35" y="-233">3915</text></a></g></g><rect fill="none" stroke="#DDD" width="70" height="30" rx="8" ry="8" x="85" y="391"/><text text-anchor="middle" fill="#333" x="120" y="411">13-01</text><g transform="translate(85,431)"><g><a target="_top" xlink:href="mob-sliceTagPayment-step17936641-ofs0-col1-cat0.html"><rect style="display:none" class="hcell-act-col1-cat0" fill="#777" stroke="#000" stroke-width="5" width="70" height="20" x="0" y="5" rx="8" ry="8"/><rect class="hcell-col1-cat0" fill="#777" stroke="#DDD" width="70" height="30" x="0" y="0" rx="8" ry="8"/><text text-anchor="middle" fill="#FFF" x="35" y="20">-358</text></a></g></g></g><g><g transform="translate(165,381)"><g><a target="_top" xlink:href="mob-sliceTagPayment-step17936641-ofs0-col2-cat0.html"><rect style="display:none" class="hcell-act-col2-cat0" fill="#777" stroke="#000" stroke-width="5" width="70" height="366" x="0" y="-371" rx="8" ry="8"/><rect class="hcell-col2-cat0" fill="#777" stroke="#DDD" width="70" height="376" x="0" y="-376" rx="8" ry="8"/><text text-anchor="middle" fill="#FFF" x="35" y="-356">5804</text></a></g></g><rect fill="none" stroke="#DDD" width="70" height="30" rx="8" ry="8" x="165" y="391"/><text text-anchor="middle" fill="#333" x="200" y="411">13-08</text><g transform="translate(165,431)"><g><a target="_top" xlink:href="mob-sliceTagPayment-step17936641-ofs0-col2-cat0.html"><rect style="display:none" class="hcell-act-col2-cat0" fill="#777" stroke="#000" stroke-width="5" width="70" height="20" x="0" y="5" rx="8" ry="8"/><rect class="hcell-col2-cat0" fill="#777" stroke="#DDD" width="70" height="30" x="0" y="0" rx="8" ry="8"/><text text-anchor="middle" fill="#FFF" x="35" y="20">-194</text></a></g></g></g><g><g transform="translate(245,381)"><g><a target="_top" xlink:href="mob-sliceTagPayment-step17936641-ofs0-col3-cat0.html"><rect style="display:none" class="hcell-act-col3-cat0" fill="#777" stroke="#000" stroke-width="5" width="70" height="234" x="0" y="-239" rx="8" ry="8"/><rect class="hcell-col3-cat0" fill="#777" stroke="#DDD" width="70" height="244" x="0" y="-244" rx="8" ry="8"/><text text-anchor="middle" fill="#FFF" x="35" y="-224">3780</text></a></g></g><rect fill="none" stroke="#DDD" width="70" height="30" rx="8" ry="8" x="245" y="391"/><text text-anchor="middle" fill="#333" x="280" y="411">14-03</text><g transform="translate(245,431)"><g><a target="_top" xlink:href="mob-sliceTagPayment-step17936641-ofs0-col3-cat0.html"><rect style="display:none" class="hcell-act-col3-cat0" fill="#777" stroke="#000" stroke-width="5" width="70" height="20" x="0" y="5" rx="8" ry="8"/><rect class="hcell-col3-cat0" fill="#777" stroke="#DDD" width="70" height="30" x="0" y="0" rx="8" ry="8"/><text text-anchor="middle" fill="#FFF" x="35" y="20">-300</text></a></g></g></g><g><g transform="translate(325,381)"></g><rect fill="none" stroke="#DDD" width="70" height="30" rx="8" ry="8" x="325" y="391"/><text text-anchor="middle" fill="#333" x="360" y="411">14-10</text><g transform="translate(325,431)"></g></g></svg>