<svg xmlns="http://www.w3.org/2000/svg" xmlns:xlink="http://www.w3.org/1999/xlink" width="100%" height="100%" viewBox="0 0 400 459"><g><g transform="translate(5,263)"><g><a target="_top" xlink:href="mob-sliceTagSavings2453-step2628000-ofs0-col0-cat0.html"><rect style="display:none" class="hcell-act-col0-cat0" fill="#777" stroke="#000" stroke-width="5" width="70" height="20" x="0" y="-25" rx="8" ry="8"/><rect class="hcell-col0-cat0" fill="#777" stroke="#DDD" width="70" height="30" x="0" y="-30" rx="8" ry="8"/><text text-anchor="middle" fill="#FFF" x="35" y="-10">100</text></a></g></g><rect fill="none" stroke="#DDD" width="70" height="30" rx="8" ry="8" x="5" y="273"/><text text-anchor="middle" fill="#333" x="40" y="293">12-07</text><g transform="translate(5,313)"></g></g><g><g transform="translate(85,263)"><g><a target="_top" xlink:href="mob-sliceTagSavings2453-step2628000-ofs0-col1-cat0.html"><rect style="display:none" class="hcell-act-col1-cat0" fill="#777" stroke="#000" stroke-width="5" width="70" height="20" x="0" y="-25" rx="8" ry="8"/><rect class="hcell-col1-cat0" fill="#777" stroke="#DDD" width="70" height="30" x="0" y="-30" rx="8" ry="8"/><text text-anchor="middle" fill="#FFF" x="35" y="-10">190</text></a></g></g><rect fill="none" stroke="#DDD" width="70" height="30" rx="8" ry="8" x="85" y="273"/><text text-anchor="middle" fill="#333" x="120" y="293">12-08</text><g transform="translate(85,313)"></g></g><g><g transform="translate(165,263)"><g><a target="_top" xlink:href="mob-sliceTagSavings2453-step2628000-ofs0-col2-cat0.html"><rect style="display:none" class="hcell-act-col2-cat0" fill="#777" stroke="#000" stroke-width="5" width="70" height="54" x="0" y="-59" rx="8" ry="8"/><rect class="hcell-col2-cat0" fill="#777" stroke="#DDD" width="70" height="64" x="0" y="-64" rx="8" ry="8"/><text text-anchor="middle" fill="#FFF" x="35" y="-44">502</text></a></g></g><rect fill="none" stroke="#DDD" width="70" height="30" rx="8" ry="8" x="165" y="273"/><text text-anchor="middle" fill="#333" x="200" y="293">12-08</text><g transform="translate(165,313)"></g></g><g><g transform="translate(245,263)"></g><rect fill="none" stroke="#DDD" width="70" height="30" rx="8" ry="8" x="245" y="273"/><text text-anchor="middle" fill="#333" x="280" y="293">12-10</text><g transform="translate(245,313)"></g></g><g><g transform="translate(325,263)"><g><a target="_top" xlink:href="mob-sliceTagSavings2453-step2628000-ofs0-col4-cat0.html"><rect style="display:none" class="hcell-act-col4-cat0" fill="#777" stroke="#000" stroke-width="5" width="70" height="248" x="0" y="-253" rx="8" ry="8"/><rect class="hcell-col4-cat0" fill="#777" stroke="#DDD" width="70" height="258" x="0" y="-258" rx="8" ry="8"/><text text-anchor="middle" fill="#FFF" x="35" y="-238">2000</text></a></g></g><rect fill="none" stroke="#DDD" width="70" height="30" rx="8" ry="8" x="325" y="273"/><text text-anchor="middle" fill="#333" x="360" y="293">12-10</text><g transform="translate(325,313)"><g><a target="_top" xlink:href="mob-sliceTagSavings2453-step2628000-ofs0-col4-cat0.html"><rect style="display:none" class="hcell-act-col4-cat0" fill="#777" stroke="#000" stroke-width="5" width="70" height="131" x="0" y="5" rx="8" ry="8"/><rect class="hcell-col4-cat0" fill="#777" stroke="#DDD" width="70" height="141" x="0" y="0" rx="8" ry="8"/><text text-anchor="middle" fill="#FFF" x="35" y="20">-1099</text></a></g></g></g></svg>