<svg xmlns="http://www.w3.org/2000/svg" xmlns:xlink="http://www.w3.org/1999/xlink" width="100%" height="100%" viewBox="0 0 400 459"><g><g transform="translate(5,213)"><g><a target="_top" xlink:href="mob-sliceTagWindyVault-step2628000-ofs15-col15-cat0.html"><rect style="display:none" class="hcell-act-col15-cat0" fill="#777" stroke="#000" stroke-width="5" width="70" height="107" x="0" y="-112" rx="8" ry="8"/><rect class="hcell-col15-cat0" fill="#777" stroke="#DDD" width="70" height="117" x="0" y="-117" rx="8" ry="8"/><text text-anchor="middle" fill="#FFF" x="35" y="-97">2711</text></a></g></g><rect fill="none" stroke="#DDD" width="70" height="30" rx="8" ry="8" x="5" y="223"/><text text-anchor="middle" fill="#333" x="40" y="243">13-10</text><g transform="translate(5,263)"><g><a target="_top" xlink:href="mob-sliceTagWindyVault-step2628000-ofs15-col15-cat0.html"><rect style="display:none" class="hcell-act-col15-cat0" fill="#777" stroke="#000" stroke-width="5" width="70" height="81" x="0" y="5" rx="8" ry="8"/><rect class="hcell-col15-cat0" fill="#777" stroke="#DDD" width="70" height="91" x="0" y="0" rx="8" ry="8"/><text text-anchor="middle" fill="#FFF" x="35" y="20">-2112</text></a></g></g></g><g><g transform="translate(85,213)"><g><a target="_top" xlink:href="mob-sliceTagWindyVault-step2628000-ofs15-col16-cat0.html"><rect style="display:none" class="hcell-act-col16-cat0" fill="#777" stroke="#000" stroke-width="5" width="70" height="198" x="0" y="-203" rx="8" ry="8"/><rect class="hcell-col16-cat0" fill="#777" stroke="#DDD" width="70" height="208" x="0" y="-208" rx="8" ry="8"/><text text-anchor="middle" fill="#FFF" x="35" y="-188">4820</text></a></g></g><rect fill="none" stroke="#DDD" width="70" height="30" rx="8" ry="8" x="85" y="223"/><text text-anchor="middle" fill="#333" x="120" y="243">13-10</text><g transform="translate(85,263)"><g><a target="_top" xlink:href="mob-sliceTagWindyVault-step2628000-ofs15-col16-cat0.html"><rect style="display:none" class="hcell-act-col16-cat0" fill="#777" stroke="#000" stroke-width="5" width="70" height="181" x="0" y="5" rx="8" ry="8"/><rect class="hcell-col16-cat0" fill="#777" stroke="#DDD" width="70" height="191" x="0" y="0" rx="8" ry="8"/><text text-anchor="middle" fill="#FFF" x="35" y="20">-4418</text></a></g></g></g><g><g transform="translate(165,213)"><g><a target="_top" xlink:href="mob-sliceTagWindyVault-step2628000-ofs15-col17-cat0.html"><rect style="display:none" class="hcell-act-col17-cat0" fill="#777" stroke="#000" stroke-width="5" width="70" height="102" x="0" y="-107" rx="8" ry="8"/><rect class="hcell-col17-cat0" fill="#777" stroke="#DDD" width="70" height="112" x="0" y="-112" rx="8" ry="8"/><text text-anchor="middle" fill="#FFF" x="35" y="-92">2600</text></a></g></g><rect fill="none" stroke="#DDD" width="70" height="30" rx="8" ry="8" x="165" y="223"/><text text-anchor="middle" fill="#333" x="200" y="243">13-12</text><g transform="translate(165,263)"><g><a target="_top" xlink:href="mob-sliceTagWindyVault-step2628000-ofs15-col17-cat0.html"><rect style="display:none" class="hcell-act-col17-cat0" fill="#777" stroke="#000" stroke-width="5" width="70" height="113" x="0" y="5" rx="8" ry="8"/><rect class="hcell-col17-cat0" fill="#777" stroke="#DDD" width="70" height="123" x="0" y="0" rx="8" ry="8"/><text text-anchor="middle" fill="#FFF" x="35" y="20">-2857</text></a></g></g></g><g><g transform="translate(245,213)"><g><a target="_top" xlink:href="mob-sliceTagWindyVault-step2628000-ofs15-col18-cat0.html"><rect style="display:none" class="hcell-act-col18-cat0" fill="#777" stroke="#000" stroke-width="5" width="70" height="131" x="0" y="-136" rx="8" ry="8"/><rect class="hcell-col18-cat0" fill="#777" stroke="#DDD" width="70" height="141" x="0" y="-141" rx="8" ry="8"/><text text-anchor="middle" fill="#FFF" x="35" y="-121">3273</text></a></g></g><rect fill="none" stroke="#DDD" width="70" height="30" rx="8" ry="8" x="245" y="223"/><text text-anchor="middle" fill="#333" x="280" y="243">13-12</text><g transform="translate(245,263)"><g><a target="_top" xlink:href="mob-sliceTagWindyVault-step2628000-ofs15-col18-cat0.html"><rect style="display:none" class="hcell-act-col18-cat0" fill="#777" stroke="#000" stroke-width="5" width="70" height="178" x="0" y="5" rx="8" ry="8"/><rect class="hcell-col18-cat0" fill="#777" stroke="#DDD" width="70" height="188" x="0" y="0" rx="8" ry="8"/><text text-anchor="middle" fill="#FFF" x="35" y="20">-4361</text></a></g></g></g><g><g transform="translate(325,213)"><g><a target="_top" xlink:href="mob-sliceTagWindyVault-step2628000-ofs15-col19-cat0.html"><rect style="display:none" class="hcell-act-col19-cat0" fill="#777" stroke="#000" stroke-width="5" width="70" height="125" x="0" y="-130" rx="8" ry="8"/><rect class="hcell-col19-cat0" fill="#777" stroke="#DDD" width="70" height="135" x="0" y="-135" rx="8" ry="8"/><text text-anchor="middle" fill="#FFF" x="35" y="-115">3127</text></a></g></g><rect fill="none" stroke="#DDD" width="70" height="30" rx="8" ry="8" x="325" y="223"/><text text-anchor="middle" fill="#333" x="360" y="243">14-01</text><g transform="translate(325,263)"><g><a target="_top" xlink:href="mob-sliceTagWindyVault-step2628000-ofs15-col19-cat0.html"><rect style="display:none" class="hcell-act-col19-cat0" fill="#777" stroke="#000" stroke-width="5" width="70" height="167" x="0" y="5" rx="8" ry="8"/><rect class="hcell-col19-cat0" fill="#777" stroke="#DDD" width="70" height="177" x="0" y="0" rx="8" ry="8"/><text text-anchor="middle" fill="#FFF" x="35" y="20">-4092</text></a></g></g></g></svg>