<svg xmlns="http://www.w3.org/2000/svg" xmlns:xlink="http://www.w3.org/1999/xlink" width="100%" height="100%" viewBox="0 0 400 459"><g><g transform="translate(5,262)"></g><rect fill="none" stroke="#DDD" width="70" height="30" rx="8" ry="8" x="5" y="272"/><text text-anchor="middle" fill="#333" x="40" y="292">14-12</text><g transform="translate(5,312)"><g><a target="_top" xlink:href="mob-sliceTagCrispyBills-step2628000-ofs30-col30-cat0.html"><rect style="display:none" class="hcell-act-col30-cat0" fill="#777" stroke="#000" stroke-width="5" width="70" height="20" x="0" y="5" rx="8" ry="8"/><rect class="hcell-col30-cat0" fill="#777" stroke="#DDD" width="70" height="30" x="0" y="0" rx="8" ry="8"/><text text-anchor="middle" fill="#FFF" x="35" y="20">-108</text></a></g></g></g><g><g transform="translate(85,262)"></g><rect fill="none" stroke="#DDD" width="70" height="30" rx="8" ry="8" x="85" y="272"/><text text-anchor="middle" fill="#333" x="120" y="292">15-01</text><g transform="translate(85,312)"><g><a target="_top" xlink:href="mob-sliceTagCrispyBills-step2628000-ofs30-col31-cat0.html"><rect style="display:none" class="hcell-act-col31-cat0" fill="#777" stroke="#000" stroke-width="5" width="70" height="132" x="0" y="5" rx="8" ry="8"/><rect class="hcell-col31-cat0" fill="#777" stroke="#DDD" width="70" height="142" x="0" y="0" rx="8" ry="8"/><text text-anchor="middle" fill="#FFF" x="35" y="20">-588</text></a></g></g></g><g><g transform="translate(165,262)"><g><a target="_top" xlink:href="mob-sliceTagCrispyBills-step2628000-ofs30-col32-cat0.html"><rect style="display:none" class="hcell-act-col32-cat0" fill="#777" stroke="#000" stroke-width="5" width="70" height="247" x="0" y="-252" rx="8" ry="8"/><rect class="hcell-col32-cat0" fill="#777" stroke="#DDD" width="70" height="257" x="0" y="-257" rx="8" ry="8"/><text text-anchor="middle" fill="#FFF" x="35" y="-237">1065</text></a></g></g><rect fill="none" stroke="#DDD" width="70" height="30" rx="8" ry="8" x="165" y="272"/><text text-anchor="middle" fill="#333" x="200" y="292">15-03</text><g transform="translate(165,312)"></g></g><g><g transform="translate(245,262)"></g><rect fill="none" stroke="#DDD" width="70" height="30" rx="8" ry="8" x="245" y="272"/><text text-anchor="middle" fill="#333" x="280" y="292">15-04</text><g transform="translate(245,312)"><g><a target="_top" xlink:href="mob-sliceTagCrispyBills-step2628000-ofs30-col33-cat0.html"><rect style="display:none" class="hcell-act-col33-cat0" fill="#777" stroke="#000" stroke-width="5" width="70" height="28" x="0" y="5" rx="8" ry="8"/><rect class="hcell-col33-cat0" fill="#777" stroke="#DDD" width="70" height="38" x="0" y="0" rx="8" ry="8"/><text text-anchor="middle" fill="#FFF" x="35" y="20">-158</text></a></g></g></g><g><g transform="translate(325,262)"></g><rect fill="none" stroke="#DDD" width="70" height="30" rx="8" ry="8" x="325" y="272"/><text text-anchor="middle" fill="#333" x="360" y="292">15-05</text><g transform="translate(325,312)"></g></g></svg>