<svg xmlns="http://www.w3.org/2000/svg" xmlns:xlink="http://www.w3.org/1999/xlink" width="100%" height="100%" viewBox="0 0 400 459"><g><g transform="translate(5,47)"></g><rect fill="none" stroke="#DDD" width="70" height="30" rx="8" ry="8" x="5" y="57"/><text text-anchor="middle" fill="#333" x="40" y="77">12-12</text><g transform="translate(5,97)"></g></g><g><g transform="translate(85,47)"><g><a target="_top" xlink:href="mob-sliceTagCash-step2628000-ofs5-col6-cat0.html"><rect style="display:none" class="hcell-act-col6-cat0" fill="#777" stroke="#000" stroke-width="5" width="70" height="25" x="0" y="-30" rx="8" ry="8"/><rect class="hcell-col6-cat0" fill="#777" stroke="#DDD" width="70" height="35" x="0" y="-35" rx="8" ry="8"/><text text-anchor="middle" fill="#FFF" x="35" y="-15">220</text></a></g></g><rect fill="none" stroke="#DDD" width="70" height="30" rx="8" ry="8" x="85" y="57"/><text text-anchor="middle" fill="#333" x="120" y="77">12-12</text><g transform="translate(85,97)"></g></g><g><g transform="translate(165,47)"><g><a target="_top" xlink:href="mob-sliceTagCash-step2628000-ofs5-col7-cat0.html"><rect style="display:none" class="hcell-act-col7-cat0" fill="#777" stroke="#000" stroke-width="5" width="70" height="32" x="0" y="-37" rx="8" ry="8"/><rect class="hcell-col7-cat0" fill="#777" stroke="#DDD" width="70" height="42" x="0" y="-42" rx="8" ry="8"/><text text-anchor="middle" fill="#FFF" x="35" y="-22">260</text></a></g></g><rect fill="none" stroke="#DDD" width="70" height="30" rx="8" ry="8" x="165" y="57"/><text text-anchor="middle" fill="#333" x="200" y="77">13-01</text><g transform="translate(165,97)"><g><a target="_top" xlink:href="mob-sliceTagCash-step2628000-ofs5-col7-cat0.html"><rect style="display:none" class="hcell-act-col7-cat0" fill="#777" stroke="#000" stroke-width="5" width="70" height="347" x="0" y="5" rx="8" ry="8"/><rect class="hcell-col7-cat0" fill="#777" stroke="#DDD" width="70" height="357" x="0" y="0" rx="8" ry="8"/><text text-anchor="middle" fill="#FFF" x="35" y="20">-2200</text></a></g></g></g><g><g transform="translate(245,47)"></g><rect fill="none" stroke="#DDD" width="70" height="30" rx="8" ry="8" x="245" y="57"/><text text-anchor="middle" fill="#333" x="280" y="77">13-03</text><g transform="translate(245,97)"></g></g><g><g transform="translate(325,47)"></g><rect fill="none" stroke="#DDD" width="70" height="30" rx="8" ry="8" x="325" y="57"/><text text-anchor="middle" fill="#333" x="360" y="77">13-04</text><g transform="translate(325,97)"></g></g></svg>