<svg xmlns="http://www.w3.org/2000/svg" xmlns:xlink="http://www.w3.org/1999/xlink" width="100%" height="100%" viewBox="0 0 400 459"><g><g transform="translate(5,371)"><g><a target="_top" xlink:href="mob-sliceTagPayment-step2628000-ofs30-col30-cat0.html"><rect style="display:none" class="hcell-act-col30-cat0" fill="#777" stroke="#000" stroke-width="5" width="70" height="150" x="0" y="-155" rx="8" ry="8"/><rect class="hcell-col30-cat0" fill="#777" stroke="#DDD" width="70" height="160" x="0" y="-160" rx="8" ry="8"/><text text-anchor="middle" fill="#FFF" x="35" y="-140">777</text></a></g></g><rect fill="none" stroke="#DDD" width="70" height="30" rx="8" ry="8" x="5" y="381"/><text text-anchor="middle" fill="#333" x="40" y="401">14-12</text><g transform="translate(5,421)"><g><a target="_top" xlink:href="mob-sliceTagPayment-step2628000-ofs30-col30-cat0.html"><rect style="display:none" class="hcell-act-col30-cat0" fill="#777" stroke="#000" stroke-width="5" width="70" height="23" x="0" y="5" rx="8" ry="8"/><rect class="hcell-col30-cat0" fill="#777" stroke="#DDD" width="70" height="33" x="0" y="0" rx="8" ry="8"/><text text-anchor="middle" fill="#FFF" x="35" y="20">-161</text></a></g></g></g><g><g transform="translate(85,371)"><g><a target="_top" xlink:href="mob-sliceTagPayment-step2628000-ofs30-col31-cat0.html"><rect style="display:none" class="hcell-act-col31-cat0" fill="#777" stroke="#000" stroke-width="5" width="70" height="315" x="0" y="-320" rx="8" ry="8"/><rect class="hcell-col31-cat0" fill="#777" stroke="#DDD" width="70" height="325" x="0" y="-325" rx="8" ry="8"/><text text-anchor="middle" fill="#FFF" x="35" y="-305">1578</text></a></g></g><rect fill="none" stroke="#DDD" width="70" height="30" rx="8" ry="8" x="85" y="381"/><text text-anchor="middle" fill="#333" x="120" y="401">15-01</text><g transform="translate(85,421)"><g><a target="_top" xlink:href="mob-sliceTagPayment-step2628000-ofs30-col31-cat0.html"><rect style="display:none" class="hcell-act-col31-cat0" fill="#777" stroke="#000" stroke-width="5" width="70" height="20" x="0" y="5" rx="8" ry="8"/><rect class="hcell-col31-cat0" fill="#777" stroke="#DDD" width="70" height="30" x="0" y="0" rx="8" ry="8"/><text text-anchor="middle" fill="#FFF" x="35" y="20">-44</text></a></g></g></g><g><g transform="translate(165,371)"><g><a target="_top" xlink:href="mob-sliceTagPayment-step2628000-ofs30-col32-cat0.html"><rect style="display:none" class="hcell-act-col32-cat0" fill="#777" stroke="#000" stroke-width="5" width="70" height="312" x="0" y="-317" rx="8" ry="8"/><rect class="hcell-col32-cat0" fill="#777" stroke="#DDD" width="70" height="322" x="0" y="-322" rx="8" ry="8"/><text text-anchor="middle" fill="#FFF" x="35" y="-302">1565</text></a></g></g><rect fill="none" stroke="#DDD" width="70" height="30" rx="8" ry="8" x="165" y="381"/><text text-anchor="middle" fill="#333" x="200" y="401">15-03</text><g transform="translate(165,421)"></g></g><g><g transform="translate(245,371)"><g><a target="_top" xlink:href="mob-sliceTagPayment-step2628000-ofs30-col33-cat0.html"><rect style="display:none" class="hcell-act-col33-cat0" fill="#777" stroke="#000" stroke-width="5" width="70" height="356" x="0" y="-361" rx="8" ry="8"/><rect class="hcell-col33-cat0" fill="#777" stroke="#DDD" width="70" height="366" x="0" y="-366" rx="8" ry="8"/><text text-anchor="middle" fill="#FFF" x="35" y="-346">1779</text></a></g></g><rect fill="none" stroke="#DDD" width="70" height="30" rx="8" ry="8" x="245" y="381"/><text text-anchor="middle" fill="#333" x="280" y="401">15-04</text><g transform="translate(245,421)"><g><a target="_top" xlink:href="mob-sliceTagPayment-step2628000-ofs30-col33-cat0.html"><rect style="display:none" class="hcell-act-col33-cat0" fill="#777" stroke="#000" stroke-width="5" width="70" height="20" x="0" y="5" rx="8" ry="8"/><rect class="hcell-col33-cat0" fill="#777" stroke="#DDD" width="70" height="30" x="0" y="0" rx="8" ry="8"/><text text-anchor="middle" fill="#FFF" x="35" y="20">-96</text></a></g></g></g><g><g transform="translate(325,371)"></g><rect fill="none" stroke="#DDD" width="70" height="30" rx="8" ry="8" x="325" y="381"/><text text-anchor="middle" fill="#333" x="360" y="401">15-05</text><g transform="translate(325,421)"></g></g></svg>