<svg xmlns="http://www.w3.org/2000/svg" xmlns:xlink="http://www.w3.org/1999/xlink" width="100%" height="100%" viewBox="0 0 400 478"><g><g transform="translate(5,393)"><g><a target="_top" xlink:href="mob-sliceTagExpense-step2628000-ofs10-col10-cat0.html"><rect style="display:none" class="hcell-act-col10-cat0" fill="#777" stroke="#000" stroke-width="5" width="70" height="189" x="0" y="-194" rx="8" ry="8"/><rect class="hcell-col10-cat0" fill="#777" stroke="#DDD" width="70" height="199" x="0" y="-199" rx="8" ry="8"/><text text-anchor="middle" fill="#FFF" x="35" y="-179">2327</text></a></g></g><rect fill="none" stroke="#DDD" width="70" height="30" rx="8" ry="8" x="5" y="403"/><text text-anchor="middle" fill="#333" x="40" y="423">13-05</text><g transform="translate(5,443)"><g><a target="_top" xlink:href="mob-sliceTagExpense-step2628000-ofs10-col10-cat0.html"><rect style="display:none" class="hcell-act-col10-cat0" fill="#777" stroke="#000" stroke-width="5" width="70" height="20" x="0" y="5" rx="8" ry="8"/><rect class="hcell-col10-cat0" fill="#777" stroke="#DDD" width="70" height="30" x="0" y="0" rx="8" ry="8"/><text text-anchor="middle" fill="#FFF" x="35" y="20">-32</text></a></g></g></g><g><g transform="translate(85,393)"><g><a target="_top" xlink:href="mob-sliceTagExpense-step2628000-ofs10-col11-cat0.html"><rect style="display:none" class="hcell-act-col11-cat0" fill="#777" stroke="#000" stroke-width="5" width="70" height="193" x="0" y="-198" rx="8" ry="8"/><rect class="hcell-col11-cat0" fill="#777" stroke="#DDD" width="70" height="203" x="0" y="-203" rx="8" ry="8"/><text text-anchor="middle" fill="#FFF" x="35" y="-183">2378</text></a></g></g><rect fill="none" stroke="#DDD" width="70" height="30" rx="8" ry="8" x="85" y="403"/><text text-anchor="middle" fill="#333" x="120" y="423">13-06</text><g transform="translate(85,443)"><g><a target="_top" xlink:href="mob-sliceTagExpense-step2628000-ofs10-col11-cat0.html"><rect style="display:none" class="hcell-act-col11-cat0" fill="#777" stroke="#000" stroke-width="5" width="70" height="20" x="0" y="5" rx="8" ry="8"/><rect class="hcell-col11-cat0" fill="#777" stroke="#DDD" width="70" height="30" x="0" y="0" rx="8" ry="8"/><text text-anchor="middle" fill="#FFF" x="35" y="20">-133</text></a></g></g></g><g><g transform="translate(165,393)"><g><a target="_top" xlink:href="mob-sliceTagExpense-step2628000-ofs10-col12-cat0.html"><rect style="display:none" class="hcell-act-col12-cat0" fill="#777" stroke="#000" stroke-width="5" width="70" height="378" x="0" y="-383" rx="8" ry="8"/><rect class="hcell-col12-cat0" fill="#777" stroke="#DDD" width="70" height="388" x="0" y="-388" rx="8" ry="8"/><text text-anchor="middle" fill="#FFF" x="35" y="-368">4532</text></a></g></g><rect fill="none" stroke="#DDD" width="70" height="30" rx="8" ry="8" x="165" y="403"/><text text-anchor="middle" fill="#333" x="200" y="423">13-07</text><g transform="translate(165,443)"></g></g><g><g transform="translate(245,393)"><g><a target="_top" xlink:href="mob-sliceTagExpense-step2628000-ofs10-col13-cat0.html"><rect style="display:none" class="hcell-act-col13-cat0" fill="#777" stroke="#000" stroke-width="5" width="70" height="194" x="0" y="-199" rx="8" ry="8"/><rect class="hcell-col13-cat0" fill="#777" stroke="#DDD" width="70" height="204" x="0" y="-204" rx="8" ry="8"/><text text-anchor="middle" fill="#FFF" x="35" y="-184">2381</text></a></g></g><rect fill="none" stroke="#DDD" width="70" height="30" rx="8" ry="8" x="245" y="403"/><text text-anchor="middle" fill="#333" x="280" y="423">13-08</text><g transform="translate(245,443)"><g><a target="_top" xlink:href="mob-sliceTagExpense-step2628000-ofs10-col13-cat0.html"><rect style="display:none" class="hcell-act-col13-cat0" fill="#777" stroke="#000" stroke-width="5" width="70" height="20" x="0" y="5" rx="8" ry="8"/><rect class="hcell-col13-cat0" fill="#777" stroke="#DDD" width="70" height="30" x="0" y="0" rx="8" ry="8"/><text text-anchor="middle" fill="#FFF" x="35" y="20">-25</text></a></g></g></g><g><g transform="translate(325,393)"><g><a target="_top" xlink:href="mob-sliceTagExpense-step2628000-ofs10-col14-cat0.html"><rect style="display:none" class="hcell-act-col14-cat0" fill="#777" stroke="#000" stroke-width="5" width="70" height="157" x="0" y="-162" rx="8" ry="8"/><rect class="hcell-col14-cat0" fill="#777" stroke="#DDD" width="70" height="167" x="0" y="-167" rx="8" ry="8"/><text text-anchor="middle" fill="#FFF" x="35" y="-147">1950</text></a></g></g><rect fill="none" stroke="#DDD" width="70" height="30" rx="8" ry="8" x="325" y="403"/><text text-anchor="middle" fill="#333" x="360" y="423">13-08</text><g transform="translate(325,443)"></g></g></svg>