<svg xmlns="http://www.w3.org/2000/svg" xmlns:xlink="http://www.w3.org/1999/xlink" width="100%" height="100%" viewBox="0 0 400 459"><g><g transform="translate(5,183)"><g><a target="_top" xlink:href="mob-sliceTagAsset-step17936641-ofs0-col0-cat0.html"><rect style="display:none" class="hcell-act-col0-cat0" fill="#777" stroke="#000" stroke-width="5" width="70" height="131" x="0" y="-136" rx="8" ry="8"/><rect class="hcell-col0-cat0" fill="#777" stroke="#DDD" width="70" height="141" x="0" y="-141" rx="8" ry="8"/><text text-anchor="middle" fill="#FFF" x="35" y="-121">26635</text></a></g></g><rect fill="none" stroke="#DDD" width="70" height="30" rx="8" ry="8" x="5" y="193"/><text text-anchor="middle" fill="#333" x="40" y="213">12-07</text><g transform="translate(5,233)"><g><a target="_top" xlink:href="mob-sliceTagAsset-step17936641-ofs0-col0-cat0.html"><rect style="display:none" class="hcell-act-col0-cat0" fill="#777" stroke="#000" stroke-width="5" width="70" height="83" x="0" y="5" rx="8" ry="8"/><rect class="hcell-col0-cat0" fill="#777" stroke="#DDD" width="70" height="93" x="0" y="0" rx="8" ry="8"/><text text-anchor="middle" fill="#FFF" x="35" y="20">-17635</text></a></g></g></g><g><g transform="translate(85,183)"><g><a target="_top" xlink:href="mob-sliceTagAsset-step17936641-ofs0-col1-cat0.html"><rect style="display:none" class="hcell-act-col1-cat0" fill="#777" stroke="#000" stroke-width="5" width="70" height="128" x="0" y="-133" rx="8" ry="8"/><rect class="hcell-col1-cat0" fill="#777" stroke="#DDD" width="70" height="138" x="0" y="-138" rx="8" ry="8"/><text text-anchor="middle" fill="#FFF" x="35" y="-118">26089</text></a></g></g><rect fill="none" stroke="#DDD" width="70" height="30" rx="8" ry="8" x="85" y="193"/><text text-anchor="middle" fill="#333" x="120" y="213">13-01</text><g transform="translate(85,233)"><g><a target="_top" xlink:href="mob-sliceTagAsset-step17936641-ofs0-col1-cat0.html"><rect style="display:none" class="hcell-act-col1-cat0" fill="#777" stroke="#000" stroke-width="5" width="70" height="138" x="0" y="5" rx="8" ry="8"/><rect class="hcell-col1-cat0" fill="#777" stroke="#DDD" width="70" height="148" x="0" y="0" rx="8" ry="8"/><text text-anchor="middle" fill="#FFF" x="35" y="20">-27879</text></a></g></g></g><g><g transform="translate(165,183)"><g><a target="_top" xlink:href="mob-sliceTagAsset-step17936641-ofs0-col2-cat0.html"><rect style="display:none" class="hcell-act-col2-cat0" fill="#777" stroke="#000" stroke-width="5" width="70" height="146" x="0" y="-151" rx="8" ry="8"/><rect class="hcell-col2-cat0" fill="#777" stroke="#DDD" width="70" height="156" x="0" y="-156" rx="8" ry="8"/><text text-anchor="middle" fill="#FFF" x="35" y="-136">29318</text></a></g></g><rect fill="none" stroke="#DDD" width="70" height="30" rx="8" ry="8" x="165" y="193"/><text text-anchor="middle" fill="#333" x="200" y="213">13-08</text><g transform="translate(165,233)"><g><a target="_top" xlink:href="mob-sliceTagAsset-step17936641-ofs0-col2-cat0.html"><rect style="display:none" class="hcell-act-col2-cat0" fill="#777" stroke="#000" stroke-width="5" width="70" height="118" x="0" y="5" rx="8" ry="8"/><rect class="hcell-col2-cat0" fill="#777" stroke="#DDD" width="70" height="128" x="0" y="0" rx="8" ry="8"/><text text-anchor="middle" fill="#FFF" x="35" y="20">-24128</text></a></g></g></g><g><g transform="translate(245,183)"><g><a target="_top" xlink:href="mob-sliceTagAsset-step17936641-ofs0-col3-cat0.html"><rect style="display:none" class="hcell-act-col3-cat0" fill="#777" stroke="#000" stroke-width="5" width="70" height="163" x="0" y="-168" rx="8" ry="8"/><rect class="hcell-col3-cat0" fill="#777" stroke="#DDD" width="70" height="173" x="0" y="-173" rx="8" ry="8"/><text text-anchor="middle" fill="#FFF" x="35" y="-153">32496</text></a></g></g><rect fill="none" stroke="#DDD" width="70" height="30" rx="8" ry="8" x="245" y="193"/><text text-anchor="middle" fill="#333" x="280" y="213">14-03</text><g transform="translate(245,233)"><g><a target="_top" xlink:href="mob-sliceTagAsset-step17936641-ofs0-col3-cat0.html"><rect style="display:none" class="hcell-act-col3-cat0" fill="#777" stroke="#000" stroke-width="5" width="70" height="211" x="0" y="5" rx="8" ry="8"/><rect class="hcell-col3-cat0" fill="#777" stroke="#DDD" width="70" height="221" x="0" y="0" rx="8" ry="8"/><text text-anchor="middle" fill="#FFF" x="35" y="20">-41672</text></a></g></g></g><g><g transform="translate(325,183)"><g><a target="_top" xlink:href="mob-sliceTagAsset-step17936641-ofs0-col4-cat0.html"><rect style="display:none" class="hcell-act-col4-cat0" fill="#777" stroke="#000" stroke-width="5" width="70" height="168" x="0" y="-173" rx="8" ry="8"/><rect class="hcell-col4-cat0" fill="#777" stroke="#DDD" width="70" height="178" x="0" y="-178" rx="8" ry="8"/><text text-anchor="middle" fill="#FFF" x="35" y="-158">33424</text></a></g></g><rect fill="none" stroke="#DDD" width="70" height="30" rx="8" ry="8" x="325" y="193"/><text text-anchor="middle" fill="#333" x="360" y="213">14-10</text><g transform="translate(325,233)"><g><a target="_top" xlink:href="mob-sliceTagAsset-step17936641-ofs0-col4-cat0.html"><rect style="display:none" class="hcell-act-col4-cat0" fill="#777" stroke="#000" stroke-width="5" width="70" height="173" x="0" y="5" rx="8" ry="8"/><rect class="hcell-col4-cat0" fill="#777" stroke="#DDD" width="70" height="183" x="0" y="0" rx="8" ry="8"/><text text-anchor="middle" fill="#FFF" x="35" y="20">-34416</text></a></g></g></g></svg>