<svg xmlns="http://www.w3.org/2000/svg" xmlns:xlink="http://www.w3.org/1999/xlink" width="100%" height="100%" viewBox="0 0 400 580"><g><g transform="translate(5,465)"><g><a target="_top" xlink:href="mob-slice0-step2628000-ofs25-col25-cat5.html"><rect style="display:none" class="hcell-act-col25-cat5" fill="#777" stroke="#000" stroke-width="5" width="70" height="20" x="0" y="-25" rx="8" ry="8"/><rect class="hcell-col25-cat5" fill="#777" stroke="#DDD" width="70" height="30" x="0" y="-30" rx="8" ry="8"/><text text-anchor="middle" fill="#FFF" x="35" y="-10">7</text></a><g transform="translate(0,-30)"><g><a target="_top" xlink:href="mob-slice0-step2628000-ofs25-col25-cat3.html"><rect style="display:none" class="hcell-act-col25-cat3" fill="#5BC0DE" stroke="#000" stroke-width="5" width="70" height="20" x="0" y="-25" rx="8" ry="8"/><rect class="hcell-col25-cat3" fill="#5BC0DE" stroke="#DDD" width="70" height="30" x="0" y="-30" rx="8" ry="8"/><text text-anchor="middle" fill="#FFF" x="35" y="-10">107</text></a><g transform="translate(0,-30)"><g><a target="_top" xlink:href="mob-slice0-step2628000-ofs25-col25-cat4.html"><rect style="display:none" class="hcell-act-col25-cat4" fill="#337AB7" stroke="#000" stroke-width="5" width="70" height="23" x="0" y="-28" rx="8" ry="8"/><rect class="hcell-col25-cat4" fill="#337AB7" stroke="#DDD" width="70" height="33" x="0" y="-33" rx="8" ry="8"/><text text-anchor="middle" fill="#FFF" x="35" y="-13">381</text></a><g transform="translate(0,-33)"><g><a target="_top" xlink:href="mob-slice0-step2628000-ofs25-col25-cat1.html"><rect style="display:none" class="hcell-act-col25-cat1" fill="#F0AD4E" stroke="#000" stroke-width="5" width="70" height="30" x="0" y="-35" rx="8" ry="8"/><rect class="hcell-col25-cat1" fill="#F0AD4E" stroke="#DDD" width="70" height="40" x="0" y="-40" rx="8" ry="8"/><text text-anchor="middle" fill="#FFF" x="35" y="-20">464</text></a><g transform="translate(0,-40)"><g><a target="_top" xlink:href="mob-slice0-step2628000-ofs25-col25-cat2.html"><rect style="display:none" class="hcell-act-col25-cat2" fill="#5CB85C" stroke="#000" stroke-width="5" width="70" height="60" x="0" y="-65" rx="8" ry="8"/><rect class="hcell-col25-cat2" fill="#5CB85C" stroke="#DDD" width="70" height="70" x="0" y="-70" rx="8" ry="8"/><text text-anchor="middle" fill="#FFF" x="35" y="-50">811</text></a><g transform="translate(0,-70)"><g><a target="_top" xlink:href="mob-slice0-step2628000-ofs25-col25-cat0.html"><rect style="display:none" class="hcell-act-col25-cat0" fill="#D9534F" stroke="#000" stroke-width="5" width="70" height="145" x="0" y="-150" rx="8" ry="8"/><rect class="hcell-col25-cat0" fill="#D9534F" stroke="#DDD" width="70" height="155" x="0" y="-155" rx="8" ry="8"/><text text-anchor="middle" fill="#FFF" x="35" y="-135">1785</text></a></g></g></g></g></g></g></g></g></g></g></g></g><rect fill="none" stroke="#DDD" width="70" height="30" rx="8" ry="8" x="5" y="475"/><text text-anchor="middle" fill="#333" x="40" y="495">14-08</text><g transform="translate(5,515)"></g></g><g><g transform="translate(85,465)"><g><a target="_top" xlink:href="mob-slice0-step2628000-ofs25-col26-cat5.html"><rect style="display:none" class="hcell-act-col26-cat5" fill="#777" stroke="#000" stroke-width="5" width="70" height="20" x="0" y="-25" rx="8" ry="8"/><rect class="hcell-col26-cat5" fill="#777" stroke="#DDD" width="70" height="30" x="0" y="-30" rx="8" ry="8"/><text text-anchor="middle" fill="#FFF" x="35" y="-10">27</text></a><g transform="translate(0,-30)"><g><a target="_top" xlink:href="mob-slice0-step2628000-ofs25-col26-cat2.html"><rect style="display:none" class="hcell-act-col26-cat2" fill="#5CB85C" stroke="#000" stroke-width="5" width="70" height="20" x="0" y="-25" rx="8" ry="8"/><rect class="hcell-col26-cat2" fill="#5CB85C" stroke="#DDD" width="70" height="30" x="0" y="-30" rx="8" ry="8"/><text text-anchor="middle" fill="#FFF" x="35" y="-10">120</text></a><g transform="translate(0,-30)"><g><a target="_top" xlink:href="mob-slice0-step2628000-ofs25-col26-cat3.html"><rect style="display:none" class="hcell-act-col26-cat3" fill="#5BC0DE" stroke="#000" stroke-width="5" width="70" height="20" x="0" y="-25" rx="8" ry="8"/><rect class="hcell-col26-cat3" fill="#5BC0DE" stroke="#DDD" width="70" height="30" x="0" y="-30" rx="8" ry="8"/><text text-anchor="middle" fill="#FFF" x="35" y="-10">131</text></a><g transform="translate(0,-30)"><g><a target="_top" xlink:href="mob-slice0-step2628000-ofs25-col26-cat4.html"><rect style="display:none" class="hcell-act-col26-cat4" fill="#337AB7" stroke="#000" stroke-width="5" width="70" height="36" x="0" y="-41" rx="8" ry="8"/><rect class="hcell-col26-cat4" fill="#337AB7" stroke="#DDD" width="70" height="46" x="0" y="-46" rx="8" ry="8"/><text text-anchor="middle" fill="#FFF" x="35" y="-26">530</text></a><g transform="translate(0,-46)"><g><a target="_top" xlink:href="mob-slice0-step2628000-ofs25-col26-cat1.html"><rect style="display:none" class="hcell-act-col26-cat1" fill="#F0AD4E" stroke="#000" stroke-width="5" width="70" height="60" x="0" y="-65" rx="8" ry="8"/><rect class="hcell-col26-cat1" fill="#F0AD4E" stroke="#DDD" width="70" height="70" x="0" y="-70" rx="8" ry="8"/><text text-anchor="middle" fill="#FFF" x="35" y="-50">811</text></a><g transform="translate(0,-70)"><g><a target="_top" xlink:href="mob-slice0-step2628000-ofs25-col26-cat0.html"><rect style="display:none" class="hcell-act-col26-cat0" fill="#D9534F" stroke="#000" stroke-width="5" width="70" height="244" x="0" y="-249" rx="8" ry="8"/><rect class="hcell-col26-cat0" fill="#D9534F" stroke="#DDD" width="70" height="254" x="0" y="-254" rx="8" ry="8"/><text text-anchor="middle" fill="#FFF" x="35" y="-234">2929</text></a></g></g></g></g></g></g></g></g></g></g></g></g><rect fill="none" stroke="#DDD" width="70" height="30" rx="8" ry="8" x="85" y="475"/><text text-anchor="middle" fill="#333" x="120" y="495">14-08</text><g transform="translate(85,515)"><g><a target="_top" xlink:href="mob-slice0-step2628000-ofs25-col26-cat5.html"><rect style="display:none" class="hcell-act-col26-cat5" fill="#777" stroke="#000" stroke-width="5" width="70" height="20" x="0" y="5" rx="8" ry="8"/><rect class="hcell-col26-cat5" fill="#777" stroke="#DDD" width="70" height="30" x="0" y="0" rx="8" ry="8"/><text text-anchor="middle" fill="#FFF" x="35" y="20">-22</text></a></g></g></g><g><g transform="translate(165,465)"><g><a target="_top" xlink:href="mob-slice0-step2628000-ofs25-col27-cat2.html"><rect style="display:none" class="hcell-act-col27-cat2" fill="#5CB85C" stroke="#000" stroke-width="5" width="70" height="20" x="0" y="-25" rx="8" ry="8"/><rect class="hcell-col27-cat2" fill="#5CB85C" stroke="#DDD" width="70" height="30" x="0" y="-30" rx="8" ry="8"/><text text-anchor="middle" fill="#FFF" x="35" y="-10">9</text></a><g transform="translate(0,-30)"><g><a target="_top" xlink:href="mob-slice0-step2628000-ofs25-col27-cat5.html"><rect style="display:none" class="hcell-act-col27-cat5" fill="#777" stroke="#000" stroke-width="5" width="70" height="20" x="0" y="-25" rx="8" ry="8"/><rect class="hcell-col27-cat5" fill="#777" stroke="#DDD" width="70" height="30" x="0" y="-30" rx="8" ry="8"/><text text-anchor="middle" fill="#FFF" x="35" y="-10">25</text></a><g transform="translate(0,-30)"><g><a target="_top" xlink:href="mob-slice0-step2628000-ofs25-col27-cat3.html"><rect style="display:none" class="hcell-act-col27-cat3" fill="#5BC0DE" stroke="#000" stroke-width="5" width="70" height="20" x="0" y="-25" rx="8" ry="8"/><rect class="hcell-col27-cat3" fill="#5BC0DE" stroke="#DDD" width="70" height="30" x="0" y="-30" rx="8" ry="8"/><text text-anchor="middle" fill="#FFF" x="35" y="-10">69</text></a><g transform="translate(0,-30)"><g><a target="_top" xlink:href="mob-slice0-step2628000-ofs25-col27-cat4.html"><rect style="display:none" class="hcell-act-col27-cat4" fill="#337AB7" stroke="#000" stroke-width="5" width="70" height="30" x="0" y="-35" rx="8" ry="8"/><rect class="hcell-col27-cat4" fill="#337AB7" stroke="#DDD" width="70" height="40" x="0" y="-40" rx="8" ry="8"/><text text-anchor="middle" fill="#FFF" x="35" y="-20">468</text></a><g transform="translate(0,-40)"><g><a target="_top" xlink:href="mob-slice0-step2628000-ofs25-col27-cat1.html"><rect style="display:none" class="hcell-act-col27-cat1" fill="#F0AD4E" stroke="#000" stroke-width="5" width="70" height="56" x="0" y="-61" rx="8" ry="8"/><rect class="hcell-col27-cat1" fill="#F0AD4E" stroke="#DDD" width="70" height="66" x="0" y="-66" rx="8" ry="8"/><text text-anchor="middle" fill="#FFF" x="35" y="-46">763</text></a><g transform="translate(0,-66)"><g><a target="_top" xlink:href="mob-slice0-step2628000-ofs25-col27-cat0.html"><rect style="display:none" class="hcell-act-col27-cat0" fill="#D9534F" stroke="#000" stroke-width="5" width="70" height="86" x="0" y="-91" rx="8" ry="8"/><rect class="hcell-col27-cat0" fill="#D9534F" stroke="#DDD" width="70" height="96" x="0" y="-96" rx="8" ry="8"/><text text-anchor="middle" fill="#FFF" x="35" y="-76">1106</text></a></g></g></g></g></g></g></g></g></g></g></g></g><rect fill="none" stroke="#DDD" width="70" height="30" rx="8" ry="8" x="165" y="475"/><text text-anchor="middle" fill="#333" x="200" y="495">14-10</text><g transform="translate(165,515)"></g></g><g><g transform="translate(245,465)"><g><a target="_top" xlink:href="mob-slice0-step2628000-ofs25-col28-cat5.html"><rect style="display:none" class="hcell-act-col28-cat5" fill="#777" stroke="#000" stroke-width="5" width="70" height="20" x="0" y="-25" rx="8" ry="8"/><rect class="hcell-col28-cat5" fill="#777" stroke="#DDD" width="70" height="30" x="0" y="-30" rx="8" ry="8"/><text text-anchor="middle" fill="#FFF" x="35" y="-10">30</text></a><g transform="translate(0,-30)"><g><a target="_top" xlink:href="mob-slice0-step2628000-ofs25-col28-cat3.html"><rect style="display:none" class="hcell-act-col28-cat3" fill="#5BC0DE" stroke="#000" stroke-width="5" width="70" height="20" x="0" y="-25" rx="8" ry="8"/><rect class="hcell-col28-cat3" fill="#5BC0DE" stroke="#DDD" width="70" height="30" x="0" y="-30" rx="8" ry="8"/><text text-anchor="middle" fill="#FFF" x="35" y="-10">123</text></a><g transform="translate(0,-30)"><g><a target="_top" xlink:href="mob-slice0-step2628000-ofs25-col28-cat2.html"><rect style="display:none" class="hcell-act-col28-cat2" fill="#5CB85C" stroke="#000" stroke-width="5" width="70" height="20" x="0" y="-25" rx="8" ry="8"/><rect class="hcell-col28-cat2" fill="#5CB85C" stroke="#DDD" width="70" height="30" x="0" y="-30" rx="8" ry="8"/><text text-anchor="middle" fill="#FFF" x="35" y="-10">231</text></a><g transform="translate(0,-30)"><g><a target="_top" xlink:href="mob-slice0-step2628000-ofs25-col28-cat1.html"><rect style="display:none" class="hcell-act-col28-cat1" fill="#F0AD4E" stroke="#000" stroke-width="5" width="70" height="29" x="0" y="-34" rx="8" ry="8"/><rect class="hcell-col28-cat1" fill="#F0AD4E" stroke="#DDD" width="70" height="39" x="0" y="-39" rx="8" ry="8"/><text text-anchor="middle" fill="#FFF" x="35" y="-19">456</text></a><g transform="translate(0,-39)"><g><a target="_top" xlink:href="mob-slice0-step2628000-ofs25-col28-cat4.html"><rect style="display:none" class="hcell-act-col28-cat4" fill="#337AB7" stroke="#000" stroke-width="5" width="70" height="30" x="0" y="-35" rx="8" ry="8"/><rect class="hcell-col28-cat4" fill="#337AB7" stroke="#DDD" width="70" height="40" x="0" y="-40" rx="8" ry="8"/><text text-anchor="middle" fill="#FFF" x="35" y="-20">462</text></a><g transform="translate(0,-40)"><g><a target="_top" xlink:href="mob-slice0-step2628000-ofs25-col28-cat0.html"><rect style="display:none" class="hcell-act-col28-cat0" fill="#D9534F" stroke="#000" stroke-width="5" width="70" height="176" x="0" y="-181" rx="8" ry="8"/><rect class="hcell-col28-cat0" fill="#D9534F" stroke="#DDD" width="70" height="186" x="0" y="-186" rx="8" ry="8"/><text text-anchor="middle" fill="#FFF" x="35" y="-166">2144</text></a></g></g></g></g></g></g></g></g></g></g></g></g><rect fill="none" stroke="#DDD" width="70" height="30" rx="8" ry="8" x="245" y="475"/><text text-anchor="middle" fill="#333" x="280" y="495">14-10</text><g transform="translate(245,515)"></g></g><g><g transform="translate(325,465)"><g><a target="_top" xlink:href="mob-slice0-step2628000-ofs25-col29-cat3.html"><rect style="display:none" class="hcell-act-col29-cat3" fill="#5BC0DE" stroke="#000" stroke-width="5" width="70" height="20" x="0" y="-25" rx="8" ry="8"/><rect class="hcell-col29-cat3" fill="#5BC0DE" stroke="#DDD" width="70" height="30" x="0" y="-30" rx="8" ry="8"/><text text-anchor="middle" fill="#FFF" x="35" y="-10">81</text></a><g transform="translate(0,-30)"><g><a target="_top" xlink:href="mob-slice0-step2628000-ofs25-col29-cat4.html"><rect style="display:none" class="hcell-act-col29-cat4" fill="#337AB7" stroke="#000" stroke-width="5" width="70" height="21" x="0" y="-26" rx="8" ry="8"/><rect class="hcell-col29-cat4" fill="#337AB7" stroke="#DDD" width="70" height="31" x="0" y="-31" rx="8" ry="8"/><text text-anchor="middle" fill="#FFF" x="35" y="-11">358</text></a><g transform="translate(0,-31)"><g><a target="_top" xlink:href="mob-slice0-step2628000-ofs25-col29-cat2.html"><rect style="display:none" class="hcell-act-col29-cat2" fill="#5CB85C" stroke="#000" stroke-width="5" width="70" height="32" x="0" y="-37" rx="8" ry="8"/><rect class="hcell-col29-cat2" fill="#5CB85C" stroke="#DDD" width="70" height="42" x="0" y="-42" rx="8" ry="8"/><text text-anchor="middle" fill="#FFF" x="35" y="-22">483</text></a><g transform="translate(0,-42)"><g><a target="_top" xlink:href="mob-slice0-step2628000-ofs25-col29-cat1.html"><rect style="display:none" class="hcell-act-col29-cat1" fill="#F0AD4E" stroke="#000" stroke-width="5" width="70" height="43" x="0" y="-48" rx="8" ry="8"/><rect class="hcell-col29-cat1" fill="#F0AD4E" stroke="#DDD" width="70" height="53" x="0" y="-53" rx="8" ry="8"/><text text-anchor="middle" fill="#FFF" x="35" y="-33">616</text></a><g transform="translate(0,-53)"><g><a target="_top" xlink:href="mob-slice0-step2628000-ofs25-col29-cat0.html"><rect style="display:none" class="hcell-act-col29-cat0" fill="#D9534F" stroke="#000" stroke-width="5" width="70" height="129" x="0" y="-134" rx="8" ry="8"/><rect class="hcell-col29-cat0" fill="#D9534F" stroke="#DDD" width="70" height="139" x="0" y="-139" rx="8" ry="8"/><text text-anchor="middle" fill="#FFF" x="35" y="-119">1604</text></a></g></g></g></g></g></g></g></g></g></g><rect fill="none" stroke="#DDD" width="70" height="30" rx="8" ry="8" x="325" y="475"/><text text-anchor="middle" fill="#333" x="360" y="495">14-12</text><g transform="translate(325,515)"><g><a target="_top" xlink:href="mob-slice0-step2628000-ofs25-col29-cat5.html"><rect style="display:none" class="hcell-act-col29-cat5" fill="#777" stroke="#000" stroke-width="5" width="70" height="20" x="0" y="5" rx="8" ry="8"/><rect class="hcell-col29-cat5" fill="#777" stroke="#DDD" width="70" height="30" x="0" y="0" rx="8" ry="8"/><text text-anchor="middle" fill="#FFF" x="35" y="20">-26</text></a><g transform="translate(0,30)"><g><a target="_top" xlink:href="mob-slice0-step2628000-ofs25-col29-cat4.html"><rect style="display:none" class="hcell-act-col29-cat4" fill="#337AB7" stroke="#000" stroke-width="5" width="70" height="20" x="0" y="5" rx="8" ry="8"/><rect class="hcell-col29-cat4" fill="#337AB7" stroke="#DDD" width="70" height="30" x="0" y="0" rx="8" ry="8"/><text text-anchor="middle" fill="#FFF" x="35" y="20">-31</text></a></g></g></g></g></g></svg>